<?xml version="1.0" standalone="no"?>
<!DOCTYPE svg PUBLIC "-//W3C//DTD SVG 1.1//EN" "http://www.w3.org/Graphics/SVG/1.1/DTD/svg11.dtd" >
<svg>
<metadata>
Created by FontForge 20090914 at Tue Jun 21 12:35:51 2016
 By www-data
Copyright (c) 2015 by Newlyn Works Limited. All rights reserved.
</metadata>
<defs>
<font id="TPFrank-Regular" horiz-adv-x="601" >
  <font-face 
    font-family="TP Frank"
    font-weight="400"
    font-stretch="normal"
    units-per-em="1000"
    panose-1="0 0 5 0 0 0 0 0 0 0"
    ascent="800"
    descent="-200"
    x-height="549"
    cap-height="732"
    bbox="-157 -248.501 1106 990.002"
    underline-thickness="50"
    underline-position="-50"
    unicode-range="U+000D-U+FB02"
  />
<missing-glyph horiz-adv-x="600" 
 />
    <glyph glyph-name="fi" unicode="fi" horiz-adv-x="632" 
d="M343 747v-51c0 -8 -4 -12 -12 -12h-40c-26.667 0 -46.167 -6 -58.5 -18s-18.5 -30.667 -18.5 -56v-64h119c6.66699 0 10 -3.66699 10 -11v-53c0 -8 -3.66699 -12 -11 -12h-118v-459c0 -7.33301 -4 -11 -12 -11h-66c-8.66699 0 -13 3.66699 -13 11v459h-78
c-6.66699 0 -10 4 -10 12v53c0 7.33301 3.33301 11 10 11h78v61c0 49.333 13.333 87 40 113s64.667 39 114 39h52c9.33301 0 14 -4 14 -12zM547 745v-97c0 -9.33301 -5 -14 -15 -14h-60c-10 0 -15 4.66699 -15 14v97c0 9.33301 5 14 15 14h60c10 0 15 -4.66699 15 -14z
M547 537v-525c0 -8 -4 -12 -12 -12h-65c-8.66699 0 -13 4 -13 12v525c0 8 4.33301 12 13 12h65c8 0 12 -4 12 -12z" />
    <glyph glyph-name="fl" unicode="fl" horiz-adv-x="632" 
d="M343 747v-51c0 -8 -4 -12 -12 -12h-40c-26.667 0 -46.167 -6 -58.5 -18s-18.5 -30.667 -18.5 -56v-64h119c6.66699 0 10 -3.66699 10 -11v-53c0 -8 -3.66699 -12 -11 -12h-118v-459c0 -7.33301 -4 -11 -12 -11h-66c-8.66699 0 -13 3.66699 -13 11v459h-78
c-6.66699 0 -10 4 -10 12v53c0 7.33301 3.33301 11 10 11h78v61c0 49.333 13.333 87 40 113s64.667 39 114 39h52c9.33301 0 14 -4 14 -12zM547 748v-736c0 -8 -4 -12 -12 -12h-65c-8.66699 0 -13 4 -13 12v736c0 8 4.33301 12 13 12h65c8 0 12 -4 12 -12z" />
    <glyph glyph-name=".notdef" horiz-adv-x="600" 
 />
    <glyph glyph-name="nonmarkingreturn" unicode="&#xd;" horiz-adv-x="600" 
 />
    <glyph glyph-name="space" unicode=" " horiz-adv-x="276" 
 />
    <glyph glyph-name="exclam" unicode="!" horiz-adv-x="265" 
d="M180 717c0 -42.667 -2.16699 -118 -6.5 -226s-7.83301 -177.667 -10.5 -209c-0.666992 -8.66699 -5 -13 -13 -13h-36c-8 0 -12.333 4.33301 -13 13c-2.66699 30.667 -6.16699 100 -10.5 208s-6.5 183.667 -6.5 227c0 10 4.66699 15 14 15h67c10 0 15 -5 15 -15zM177 164
v-148c0 -10.667 -5 -16 -15 -16h-60c-9.33301 0 -14 5 -14 15v149c0 10.667 4.66699 16 14 16h60c10 0 15 -5.33301 15 -16z" />
    <glyph glyph-name="quotedbl" unicode="&#x22;" horiz-adv-x="413" 
d="M167 719l-10 -256c0 -8.66699 -4.66699 -13 -14 -13h-42c-8.66699 0 -13 4.66699 -13 14l-10 254c0 9.33301 4.66699 14 14 14h61c9.33301 0 14 -4.33301 14 -13zM335 719l-10 -256c0 -8.66699 -4.66699 -13 -14 -13h-42c-8.66699 0 -13 4.66699 -13 14l-10 254
c0 9.33301 4.66699 14 14 14h61c9.33301 0 14 -4.33301 14 -13z" />
    <glyph glyph-name="numbersign" unicode="#" horiz-adv-x="698" 
d="M648 523v-44c0 -8.66699 -4 -13 -12 -13h-119l-47 -200h103c8 0 12 -4.33301 12 -13v-44c0 -8.66699 -4 -13 -12 -13h-119l-44 -185c-2 -7.33301 -6.66699 -11 -14 -11h-47c-9.33301 0 -13 4.66699 -11 14l42 182h-136l-43 -185c-2 -7.33301 -7 -11 -15 -11h-47
c-9.33301 0 -13 4.66699 -11 14l43 182h-109c-8 0 -12 4.33301 -12 13v44c0 8.66699 4 13 12 13h125l47 200h-109c-8 0 -12 4.33301 -12 13v44c0 8.66699 4 13 12 13h125l43 185c2 7.33301 7 11 15 11h47c9.33301 0 13 -4.33301 11 -13l-43 -183h137l43 185
c2 7.33301 7 11 15 11h47c9.33301 0 13 -4.66699 11 -14l-43 -182h103c8 0 12 -4.33301 12 -13zM444 466h-137l-47 -200h137z" />
    <glyph glyph-name="dollar" unicode="$" 
d="M481 70.5c-33.333 -34.333 -78.6689 -55.165 -136.002 -62.498v-73c0 -8 -4.33301 -12 -13 -12h-55c-8.66699 0 -13 4 -13 12v71c-52 5.33301 -95.333 21.5 -130 48.5s-58.667 63.833 -72 110.5c-0.666992 1.33301 -1 3 -1 5c0 5.33301 3.33301 9 10 11l54 18
c2 0.666992 4.33301 1 7 1c5.33301 0 9 -3.33301 11 -10c8.66699 -31.333 24.334 -56.166 47.001 -74.499s51.334 -28.833 86.001 -31.5v252c-70.667 27.333 -121 56.666 -151 87.999s-45 70.666 -45 117.999c0 49.333 16.5 90.166 49.5 122.499s77.833 52.166 134.5 59.499
v74c0 8 4.33301 12 13 12h55c8.66699 0 13 -4 13 -12v-74c44 -5.33301 81.333 -20.166 112 -44.499s54 -57.166 70 -98.499c0.666992 -1.33301 1 -3 1 -5c0 -5.33301 -3 -9 -9 -11l-54 -20l-6 -1c-5.33301 0 -9 3 -11 9c-11.333 28 -26.333 49.667 -45 65
s-41.667 24.666 -69 27.999v-238l4 -2c70 -26.667 119.667 -55.667 149 -87s44 -71 44 -119c0 -52 -16.667 -95.167 -50 -129.5zM189.997 484.501c15.333 -16.333 44 -33.833 86 -52.5v214c-34 -4 -60.667 -14.833 -80 -32.5s-29 -40.5 -29 -68.5
c0 -24 7.66699 -44.167 23 -60.5zM414.497 121.001c19.667 18.667 29.5 42.333 29.5 71c0 27.333 -7.83301 49.833 -23.5 67.5s-44.5 35.5 -86.5 53.5v-228c34 5.33301 60.833 17.333 80.5 36z" />
    <glyph glyph-name="percent" unicode="%" horiz-adv-x="804" 
d="M293 707.5c24.667 -23.667 37 -56.167 37 -97.5v-115c0 -41.333 -12.333 -73.833 -37 -97.5s-58 -35.5 -100 -35.5c-42.667 0 -76.334 11.833 -101.001 35.5s-37 56.167 -37 97.5v115c0 41.333 12.333 73.833 37 97.5s58.334 35.5 101.001 35.5
c42 0 75.333 -11.833 100 -35.5zM631.5 727.5c1.66699 -3 1.5 -6.16699 -0.5 -9.5l-399 -708c-3.33301 -6.66699 -8.33301 -10 -15 -10h-35c-4.66699 0 -7.83398 1.5 -9.50098 4.5s-1.5 6.16699 0.5 9.5l399 708c4.66699 6.66699 9.66699 10 15 10h35
c4.66699 0 7.83398 -1.5 9.50098 -4.5zM138 665.5c-14 -12.333 -21 -31.833 -21 -58.5v-109c0 -26.667 7 -46.167 21 -58.5s32.333 -18.5 55 -18.5s41 6.16699 55 18.5s21 31.833 21 58.5v109c0 26.667 -7 46.167 -21 58.5s-32.333 18.5 -55 18.5s-41 -6.16699 -55 -18.5z
M712 334.5c24.667 -23.667 37 -56.167 37 -97.5v-115c0 -41.333 -12.333 -73.833 -37 -97.5s-58 -35.5 -100 -35.5c-42.667 0 -76.334 11.833 -101.001 35.5s-37 56.167 -37 97.5v115c0 41.333 12.333 73.833 37 97.5s58.334 35.5 101.001 35.5
c42 0 75.333 -11.833 100 -35.5zM556.5 292.5c-13.667 -12.333 -20.5 -31.833 -20.5 -58.5v-109c0 -26.667 6.83301 -46.167 20.5 -58.5s32.167 -18.5 55.5 -18.5c22.667 0 40.834 6.16699 54.501 18.5s20.5 31.833 20.5 58.5v109c0 26.667 -6.83301 46.167 -20.5 58.5
s-31.834 18.5 -54.501 18.5c-23.333 0 -41.833 -6.16699 -55.5 -18.5z" />
    <glyph glyph-name="ampersand" unicode="&#x26;" horiz-adv-x="683" 
d="M641 8c0 -2 -0.667969 -3.83203 -2.00098 -5.49902s-3.33301 -2.5 -6 -2.5h-81c-6.66699 0 -13 3.33301 -19 10l-53 63c-58 -56 -124 -84 -198 -84c-42 0 -79.167 8.83301 -111.5 26.5s-57.333 41.667 -75 72s-26.5 63.833 -26.5 100.5c0 88 49.667 153.333 149 196
l-10 12c-26.667 30.667 -47 60.167 -61 88.5s-21 57.166 -21 86.499c0 32.667 7.83301 62.167 23.5 88.5s37.834 46.833 66.501 61.5s61.667 22 99 22c58 0 103.833 -15.333 137.5 -46s50.5 -71.667 50.5 -123c0 -84 -53.667 -153.667 -161 -209l145 -171
c29.333 45.333 50.666 105 63.999 179c0.666992 5.33301 2.33398 9 5.00098 11s6.66699 2.33301 12 1l52 -14c8.66699 -2.66699 12 -9 10 -19c-7.33301 -38 -18.833 -76.5 -34.5 -115.5s-34.5 -74.167 -56.5 -105.5l99 -116c2 -2 3 -4.33301 3 -7zM241.499 644.501
c-19 -17.667 -28.501 -41.835 -28.501 -72.502c0 -21.333 5.83301 -42.5 17.5 -63.5s29.834 -46.167 54.501 -75.5l11 -13c36 18.667 65 40.834 87 66.501s33 54.167 33 85.5c0 30.667 -9 54.834 -27 72.501s-42.667 26.5 -74 26.5c-30 0 -54.5 -8.83301 -73.5 -26.5z
M430.998 132l-167.999 198c-68.667 -31.333 -103 -76.333 -103 -135c0 -22 5.33301 -42.667 16 -62s26 -35 46 -47s43.333 -18 70 -18c53.333 0 99.666 21.333 138.999 64z" />
    <glyph glyph-name="quotesingle" unicode="'" horiz-adv-x="245" 
d="M167 719l-10 -256c0 -8.66699 -4.66699 -13 -14 -13h-42c-8.66699 0 -13 4.66699 -13 14l-10 254c0 9.33301 4.66699 14 14 14h61c9.33301 0 14 -4.33301 14 -13z" />
    <glyph glyph-name="parenleft" unicode="(" horiz-adv-x="327" 
d="M236 765l42 -30.9961c4 -4 6 -7.66699 6 -11c0 -2.66699 -1 -5.66699 -3 -9c-82.667 -124.667 -124 -269.334 -124 -434.001c0 -165.333 41.333 -310.333 124 -435c2 -3.33301 3 -6.33301 3 -9c0 -4.66699 -2 -8.33398 -6 -11.001l-42 -30
c-4.66699 -4 -8.66699 -6 -12 -6c-4 0 -8.66699 3 -14 9c-41.333 54.667 -76 122.167 -104 202.5s-42.333 173.5 -43 279.5c0 105.333 14 198.166 42 278.499s63 148.166 105 203.499c5.33301 5.33301 10 8 14 8c2.66699 0 6.66699 -1.66699 12 -5z" />
    <glyph glyph-name="parenright" unicode=")" horiz-adv-x="327" 
d="M221 561c28 -80 42 -172.335 42 -277.002c0 -107.333 -14 -201.5 -42 -282.5s-63 -148.833 -105 -203.5c-4 -6 -8.33301 -9 -13 -9c-3.33301 0 -7.66602 2 -12.999 6l-41 30c-4.66699 4.66699 -7 8.33398 -7 11.001c0 2 1.33301 5 4 9c82 124 123 269 123 435
c0 165.333 -41 310 -123 434c-2.66699 4 -4 7 -4 9c0 2.66699 2.33301 6.33398 7 11.001l41 31c5.33301 3.33301 9.66602 5 12.999 5c4 0 8.33301 -2.66699 13 -8c42 -54 77 -121 105 -201z" />
    <glyph glyph-name="asterisk" unicode="*" horiz-adv-x="471" 
d="M409 586c0 -4.66699 -3.33398 -7.66699 -10.001 -9l-116 -30l75 -99c2 -2.66699 3 -5.33398 3 -8.00098c0 -3.33301 -2 -6.66602 -6 -9.99902l-32 -24c-3.33301 -2.66699 -6.66602 -4 -9.99902 -4s-6.33301 2.33301 -9 7l-68 109l-69 -109
c-2.66699 -4.66699 -6 -7 -10 -7c-3.33301 0 -6.33301 1.33301 -9 4l-32 24c-4 3.33301 -6 6.66602 -6 9.99902c0 2.66699 1 5.33398 3 8.00098l76 99l-117 30c-6.66699 1.33301 -10 4.33301 -10 9l2 8l11 36c2 6.66699 5 10 9 10l8 -2l116 -42l-5 123
c0 5.33301 1 8.83301 3 10.5s5.33301 2.5 10 2.5h40c5.33301 0 8.83301 -0.833008 10.5 -2.5s2.5 -5.16699 2.5 -10.5l-5 -122l115 41l8 2c4 0 7 -3.33301 9 -10l11 -36z" />
    <glyph glyph-name="plus" unicode="+" 
d="M553 338v-58c0 -8.66699 -4 -13 -12 -13h-196v-203c0 -8 -4.33301 -12 -13 -12h-62c-8.66699 0 -13 4 -13 12v203h-196c-8 0 -12 4.33301 -12 13v58c0 8.66699 4 13 12 13h196v202c0 8 4.33301 12 13 12h62c8.66699 0 13 -4 13 -12v-202h196c8 0 12 -4.33301 12 -13z" />
    <glyph glyph-name="comma" unicode="," horiz-adv-x="254" 
d="M157.5 -17.5c-10.333 -36.333 -27.167 -73.501 -50.5 -111.501c-3.33301 -5.33301 -7.33301 -8 -12 -8c-2 0 -5 0.666992 -9 2l-36 16c-6.66699 2.66699 -10 6.66699 -10 12c0 2.66699 1 6 3 10c18 37.333 29.333 69.5 34 96.5s7 71.167 7 132.5c0 10.667 5 16 15 16h58
c10.667 0 16 -5.33301 16 -16c0 -63.333 -5.16699 -113.166 -15.5 -149.499z" />
    <glyph glyph-name="hyphen" unicode="-" horiz-adv-x="473" 
d="M391 339v-59c0 -8.66699 -4 -13 -12 -13h-285c-8 0 -12 4.33301 -12 13v59c0 9.33301 4 14 12 14h285c8 0 12 -4.66699 12 -14z" />
    <glyph glyph-name="period" unicode="." horiz-adv-x="253" 
d="M171 164v-148c0 -10.667 -5 -16 -15 -16h-61c-8.66699 0 -13 5 -13 15v149c0 10.667 4.33301 16 13 16h61c10 0 15 -5.33301 15 -16z" />
    <glyph glyph-name="slash" unicode="/" horiz-adv-x="415" 
d="M309 732h58c4 0 7 -1.16699 9 -3.5s2.33301 -5.83301 1 -10.5l-257 -906c-2 -8 -6.66699 -12 -14 -12h-58c-10 0 -13.333 4.66699 -10 14l256 906c3.33301 8 8.33301 12 15 12z" />
    <glyph glyph-name="zero" unicode="0" 
d="M134 50.5c-41.333 41 -61.999 97.5 -61.999 169.5v292c0 72 20.667 128.5 62 169.5s97 61.5 167 61.5s125.5 -20.833 166.5 -62.5s61.5 -97.834 61.5 -168.501v-292c0 -71.333 -20.333 -127.666 -61 -168.999s-96.334 -62 -167.001 -62c-70 0 -125.667 20.5 -167 61.5z
M399.501 113.5c23.667 24.333 35.5 60.833 35.5 109.5v286c0 48.667 -12 85.167 -36 109.5s-56.667 36.5 -98 36.5c-42 0 -75 -12.167 -99 -36.5s-36 -60.833 -36 -109.5v-286c0 -48.667 12.167 -85.167 36.5 -109.5s57.5 -36.5 99.5 -36.5
c41.333 0 73.833 12.167 97.5 36.5z" />
    <glyph glyph-name="one" unicode="1" 
d="M545 75v-62c0 -8.66699 -3.66699 -13 -11 -13h-413c-7.33301 -0 -11 4.33301 -11 13v62c0 8.66699 3.66699 13 11 13h165v536l-169 -68c-1.33301 -0.666992 -3.33301 -1 -6 -1c-5.33301 0 -9 3 -11 9l-22 57c-1.33301 2.66699 -2 5 -2 7c0 4 2.66699 7.66699 8 11l210 86
c10.667 4.66699 19 7 25 7h47c8 0 12 -4 12 -12v-632h156c7.33301 0 11 -4.33301 11 -13z" />
    <glyph glyph-name="two" unicode="2" 
d="M415 716.5c33.333 -17.667 59.001 -42.332 77.001 -73.999s27 -68.167 27 -109.5c0 -33.333 -5.33301 -63.833 -16 -91.5s-27.834 -56.167 -51.501 -85.5s-57.5 -65.666 -101.5 -108.999l-159 -159h330c8 0 12 -4.33301 12 -13v-62c0 -8.66699 -4 -13 -12 -13h-427
c-8.66699 0 -14 4 -16 12l-11 55c-0.666992 2 -1 4.66699 -1 8c0 4.66699 2 10 6 16l203 203c42 42.667 73.333 76.667 94 102s35 47.666 43 66.999s12 40 12 62c0 40.667 -11.5 72.5 -34.5 95.5s-54.5 34.5 -94.5 34.5c-36.667 0 -66.167 -9.16699 -88.5 -27.5
s-39.166 -45.833 -50.499 -82.5c-2 -9.33301 -8 -12.333 -18 -9l-60 18c-8 3.33301 -10.667 9.66602 -8 18.999c34 113.333 109.667 170 227 170c45.333 0 84.666 -8.83301 117.999 -26.5z" />
    <glyph glyph-name="three" unicode="3" 
d="M458 691.5c38 -34.333 57 -80.1689 57 -137.502v-14c0 -38 -11 -71.5 -33 -100.5s-50 -48.833 -84 -59.5c38.667 -8.66699 70.167 -27.834 94.5 -57.501s36.5 -66.167 36.5 -109.5v-15c0 -41.333 -9.5 -77.666 -28.5 -108.999s-46.167 -55.833 -81.5 -73.5
s-77 -26.5 -125 -26.5c-62.667 0 -113.334 15.333 -152.001 46s-65 70.334 -79 119.001c-0.666992 2 -1 4.33301 -1 7c0 6.66699 3.33301 11.334 10 14.001l53 19c4 1.33301 7 2 9 2c6 0 10.667 -3.66699 14 -11c10.667 -36 27.834 -63.5 51.501 -82.5
s55.5 -28.5 95.5 -28.5c44 0 78.333 11.333 103 34s37 54 37 94v12c0 39.333 -12.667 69.333 -38 90s-62 31 -110 31h-46c-8.66699 0 -13 4.33301 -13 13v57c0 9.33301 4.33301 14 13 14h46c42 0 75 10.333 99 31s36 48.667 36 84v11c0 37.333 -11.5 65.5 -34.5 84.5
s-54.833 28.5 -95.5 28.5c-69.333 0 -114.666 -32.333 -135.999 -97c-2.66699 -8.66699 -8.33398 -11 -17.001 -7l-56 27c-7.33301 3.33301 -9.33301 9 -6 17c16.667 45.333 43 80.833 79 106.5s82.667 38.5 140 38.5c70 0 124 -17.167 162 -51.5z" />
    <glyph glyph-name="four" unicode="4" 
d="M555 209l-0.00195312 -60c0 -8 -3.66699 -12 -11 -12h-91v-125c0 -8 -4.33301 -12 -13 -12h-63c-8.66699 0 -13 4 -13 12v125h-293c-5.33301 0 -9.16602 1 -11.499 3s-4.16602 5.66699 -5.49902 11l-13 50c-0.666992 2 -1 4.66699 -1 8c0 5.33301 1.66699 11.333 5 18
l244 494c4 7.33301 10.667 11 20 11h66c6.66699 0 10 -3.33301 10 -10c0 -3.33301 -0.666992 -6 -2 -8l-247 -493h228v196c0 7.33301 4.33301 11 13 11h63c8.66699 0 13 -3.66699 13 -11v-196h91c7.33301 0 11 -4 11 -12z" />
    <glyph glyph-name="five" unicode="5" 
d="M496 720l-0.00292969 -59.998c0 -8.66699 -3.66699 -13 -11 -13h-307v-236l3 -1c36.667 42 86.334 63 149.001 63c38 0 72.5 -8.66699 103.5 -26s55.333 -42.333 73 -75s26.5 -71.334 26.5 -116.001v-45c0 -68.667 -20.667 -122.834 -62 -162.501
s-97.666 -59.5 -168.999 -59.5c-64 0 -114.833 14.833 -152.5 44.5s-63.5 66.5 -77.5 110.5c-0.666992 1.33301 -1 3.33301 -1 6c0 6 3.33301 10 10 12l56 19c1.33301 0.666992 3.66602 1 6.99902 1c5.33301 0 9.33301 -3.33301 12 -10
c24.667 -64.667 73 -97.334 145 -98.001c43.333 0 77.5 11.833 102.5 35.5s37.5 59.167 37.5 106.5v35c0 46 -12 80.833 -36 104.5s-55.667 35.5 -95 35.5c-29.333 0 -54.166 -5.66699 -74.499 -17s-38.166 -28.666 -53.499 -51.999c-4 -5.33301 -8.33301 -8 -13 -8
c-2 0 -5 1 -9 3l-50 23c-5.33301 1.33301 -9 3.33301 -11 6s-3 7 -3 13v359v2c0 8 4.33301 12 13 12h376c7.33301 0 11 -4 11 -12z" />
    <glyph glyph-name="six" unicode="6" 
d="M512 653c2.66699 -2.66699 3.99805 -5.66602 3.99805 -8.99902c0 -4 -2 -8 -6 -12l-36 -38c-4.66699 -3.33301 -8.33398 -5 -11.001 -5c-4 0 -8 2.33301 -12 7c-31.333 40.667 -75.333 61 -132 61c-49.333 0 -86.666 -13 -111.999 -39s-38 -62.333 -38 -109v-117h1
c14.667 25.333 36.334 45.5 65.001 60.5s60.334 22.5 95.001 22.5c40 0 75.667 -8.5 107 -25.5s55.666 -41.667 72.999 -74s26 -70.833 26 -115.5v-48c0 -69.333 -20.333 -123.5 -61 -162.5s-96.667 -58.5 -168 -58.5c-72 0 -128.333 21 -169 63s-61 98.333 -61 169l1 277
c0.666992 75.333 21.5 134.666 62.5 177.999s99.167 65 174.5 65c84.667 0 150.334 -30 197.001 -90zM209.498 357.001c-27 -24.667 -40.499 -59.332 -40.499 -103.999v-34c0 -47.333 12.5 -83 37.5 -107s58.833 -36 101.5 -36c43.333 0 77 11.667 101 35
s36 58.666 36 105.999v36c0 46.667 -11.833 81.667 -35.5 105s-55.834 35.333 -96.501 36c-42 0 -76.5 -12.333 -103.5 -37z" />
    <glyph glyph-name="seven" unicode="7" 
d="M535 720l10.002 -51.999c0.666992 -1.33301 1 -3.33301 1 -6c0 -4.66699 -2 -10.667 -6 -18l-307 -632c-2.66699 -4.66699 -5.33398 -7.83398 -8.00098 -9.50098s-6.33398 -2.5 -11.001 -2.5h-70c-5.33301 0 -9 1.66699 -11 5s-1.66699 7 1 11l311 628h-364
c-8 0 -12 4.33301 -12 13v62c0 8.66699 4 13 12 13h438c8.66699 0 14 -4 16 -12z" />
    <glyph glyph-name="eight" unicode="8" 
d="M175 14.5c-35.333 17 -62.332 40.833 -80.999 71.5s-28 65.667 -28 105v19c0 44 12.167 80.833 36.5 110.5s55.166 49.5 92.499 59.5c-33.333 11.333 -61.166 31 -83.499 59s-33.5 62 -33.5 102v13c0 35.333 8.5 67.333 25.5 96s42.333 51.334 76 68.001
s73.834 25 120.501 25c47.333 0 87.666 -8.33301 120.999 -25s58.666 -39.334 75.999 -68.001s26 -60.667 26 -96v-14c0 -39.333 -11.167 -73 -33.5 -101s-50.5 -47.667 -84.5 -59c38 -10 69.167 -29.667 93.5 -59s36.5 -66.333 36.5 -111v-19
c0 -39.333 -9.5 -74.333 -28.5 -105s-46.167 -54.5 -81.5 -71.5s-77 -25.5 -125 -25.5s-89.667 8.5 -125 25.5zM396.001 458c22.667 21.333 34.002 47.666 34.002 78.999v13c0 33.333 -11.5 60.333 -34.5 81s-54.833 31 -95.5 31s-72.334 -10.5 -95.001 -31.5
s-34 -47.833 -34 -80.5v-13c0 -31.333 11.167 -57.666 33.5 -78.999s54.166 -34.333 95.499 -39c41.333 4.66699 73.333 17.667 96 39zM404.003 106c24.667 22.667 36.998 53 36.998 91v17c0 34.667 -12.167 63.167 -36.5 85.5s-59.166 35.833 -104.499 40.5
c-45.333 -4.66699 -80 -18.167 -104 -40.5s-36 -50.833 -36 -85.5v-17c0 -38 12.333 -68.333 37 -91s59 -34 103 -34c44.667 0 79.334 11.333 104.001 34z" />
    <glyph glyph-name="nine" unicode="9" 
d="M80 93c-2 3.33301 -3.00098 6.66602 -3.00098 9.99902c0 4.66699 2 8.33398 6 11.001l42 33c3.33301 3.33301 6.66602 5 9.99902 5c4 0 8 -3 12 -9c15.333 -20.667 34 -36.834 56 -48.501s49.333 -17.5 82 -17.5c48.667 0 85.334 13 110.001 39s37 62.333 37 109v117h-1
c-13.333 -25.333 -34.166 -45.5 -62.499 -60.5s-60.166 -22.5 -95.499 -22.5c-40 0 -75.333 8.5 -106 25.5s-54.667 41.667 -72 74s-26 70.833 -26 115.5v48c0 68.667 19.833 122.5 59.5 161.5s94.5 58.833 164.5 59.5c73.333 0 130.333 -21 171 -63s61 -98.333 61 -169
l-1 -277c0 -75.333 -20.333 -134.666 -61 -177.999s-98.667 -65 -174 -65c-92.667 0 -162.334 34 -209.001 102zM392.499 376.5c26.333 24.333 39.501 58.834 39.501 103.501v35c0 48 -12.333 83.833 -37 107.5s-58 35.5 -100 35.5
c-42.667 -0.666992 -75.834 -12.5 -99.501 -35.5s-35.5 -58.167 -35.5 -105.5v-36c0 -46.667 11.667 -81.834 35 -105.501s55 -35.5 95 -35.5c42 0 76.167 12.167 102.5 36.5z" />
    <glyph glyph-name="colon" unicode=":" horiz-adv-x="254" 
d="M171 531v-148c0 -10.667 -5 -16 -15 -16h-61c-8.66699 0 -13 5 -13 15v149c0 10.667 4.33301 16 13 16h61c10 0 15 -5.33301 15 -16zM171 164v-148c0 -10.667 -5 -16 -15 -16h-61c-8.66699 0 -13 5 -13 15v149c0 10.667 4.33301 16 13 16h61c10 0 15 -5.33301 15 -16z
" />
    <glyph glyph-name="semicolon" unicode=";" horiz-adv-x="278" 
d="M184 531v-148c0 -10.667 -5 -16 -15 -16h-61c-8.66699 0 -13 5 -13 15v149c0 10.667 4.33301 16 13 16h61c10 0 15 -5.33301 15 -16zM173.5 -17.5c-10.333 -36.333 -27.167 -73.501 -50.5 -111.501c-3.33301 -5.33301 -7.33301 -8 -12 -8c-2 0 -5 0.666992 -9 2l-36 16
c-6.66699 2.66699 -10 6.66699 -10 12c0 2.66699 1 6 3 10c18 37.333 29.333 69.5 34 96.5s7 71.167 7 132.5c0 10.667 5 16 15 16h58c10.667 0 16 -5.33301 16 -16c0 -63.333 -5.16699 -113.166 -15.5 -149.499z" />
    <glyph glyph-name="less" unicode="&#x3c;" 
d="M512 210v-65.002c0 -4 -1.5 -7.16699 -4.5 -9.5s-6.83301 -2.83301 -11.5 -1.5l-419 171c-7.33301 2.66699 -11 8.33398 -11 17.001v69c0 8.66699 3.66699 14.334 11 17.001l419 171c1.33301 0.666992 3 1 5 1c2.66699 0 5 -1.16699 7 -3.5s3 -5.16602 3 -8.49902v-66
c0 -8 -4 -13.333 -12 -16l-340 -129l341 -130c8 -2.66699 12 -8.33398 12 -17.001z" />
    <glyph glyph-name="equal" unicode="=" 
d="M531 428v-50c0 -8.66699 -4 -13 -12 -13h-437c-8 0 -12 4.33301 -12 13v50c0 8.66699 4 13 12 13h437c8 0 12 -4.33301 12 -13zM531 251v-51c0 -8.66699 -4 -13 -12 -13h-437c-8 0 -12 4.33301 -12 13v51c0 8.66699 4 13 12 13h437c8 0 12 -4.33301 12 -13z" />
    <glyph glyph-name="greater" unicode="&#x3e;" 
d="M535 391l-0.000976562 -68.998c0 -8.66699 -3.66699 -14.334 -11 -17.001l-419 -171c-1.33301 -0.666992 -3 -1 -5 -1c-3.33301 0 -6 1.16699 -8 3.5s-3 5.16602 -3 8.49902v65c0 8.66699 4 14.334 12 17.001l342 129l-341 130c-8 2.66699 -12 8 -12 16v66
c0 4 1.33301 7.16699 4 9.5s6.33398 2.83301 11.001 1.5l419 -171c7.33301 -2.66699 11 -8.33398 11 -17.001z" />
    <glyph glyph-name="question" unicode="?" horiz-adv-x="471" 
d="M190 280c0 2 0.667969 5.00098 2.00098 9.00098c14.667 32.667 37 73 67 121c24 38.667 41.5 69.834 52.5 93.501s16.5 46.834 16.5 69.501c0 28.667 -8.33301 50.667 -25 66s-40.667 23 -72 23c-30 0 -54 -6.83301 -72 -20.5s-31.333 -34.834 -40 -63.501
c-1.33301 -6 -3.5 -9.83301 -6.5 -11.5s-7.16699 -1.83398 -12.5 -0.500977l-46 15c-4.66699 1.33301 -7.66699 3.5 -9 6.5s-1.33301 7.16699 0 12.5c11.333 46 34 81.333 68 106s76.667 37 128 37c53.333 0 96.166 -14.333 128.499 -43s48.5 -66.667 48.5 -114
c0 -28.667 -7.16699 -58.334 -21.5 -89.001s-36.166 -69.667 -65.499 -117c-24 -36 -43 -68.333 -57 -97c-2.66699 -5.33301 -5.83398 -9 -9.50098 -11s-8.16699 -3 -13.5 -3h-49c-8 0 -12 3.66699 -12 11zM186.001 15.001v149c0 10.667 4.66699 16 14 16h60
c10 0 15 -5.33301 15 -16v-148c0 -10.667 -5 -16 -15 -16h-60c-9.33301 0 -14 5 -14 15z" />
    <glyph glyph-name="at" unicode="@" horiz-adv-x="859" 
d="M692.5 550.5c62.333 -53 93.5039 -130.17 93.5039 -231.503v-106c0 -48.667 -13.667 -88.167 -41 -118.5s-65.333 -45.5 -114 -45.5c-25.333 0 -47.5 5.33301 -66.5 16s-33.167 25.334 -42.5 44.001c-24.667 -42 -62.334 -63 -113.001 -63
c-38.667 0 -69.834 12.667 -93.501 38s-35.5 58.666 -35.5 99.999v112c0 42 11.667 75.667 35 101s54 38 92 38c20 0 38.667 -3.83301 56 -11.5s32 -19.167 44 -34.5v26c0 6 3.66699 9 11 9h47c4 0 6.83301 -0.666992 8.5 -2s2.5 -3.66602 2.5 -6.99902v-237
c0 -21.333 5.33301 -37.5 16 -48.5s24.334 -16.5 41.001 -16.5c54 0 81 33.667 81 101v102c0 82.667 -23.833 143.834 -71.5 183.501s-118.167 59.5 -211.5 59.5c-90.667 0 -161.334 -20.667 -212.001 -62s-76 -103 -76 -185v-128c0 -78 22.5 -140 67.5 -186
s114.5 -69 208.5 -69c45.333 0 84 3.5 116 10.5s64 16.167 96 27.5c1.33301 0.666992 3.33301 1 6 1c4.66699 0 8 -2.66699 10 -8l11 -43l1 -5c0 -5.33301 -2.66699 -9 -8 -11c-76.667 -28 -154.334 -42 -233.001 -42c-76.667 0 -141.167 14 -193.5 42
s-91.166 66.333 -116.499 115s-38 104 -38 166v132c0 66.667 15.167 123.834 45.5 171.501s72.666 83.667 126.999 108s117.5 36.5 189.5 36.5c111.333 0 198.166 -26.5 260.499 -79.5zM503.004 292.997c0 23.333 -6.83301 42 -20.5 56s-32.167 21 -55.5 21
s-41.5 -6.83301 -54.5 -20.5s-19.5 -33.167 -19.5 -58.5v-101c0 -25.333 6.33301 -44.833 19 -58.5s30.667 -20.5 54 -20.5s42 7 56 21s21 32.667 21 56v105z" />
    <glyph glyph-name="A" unicode="A" horiz-adv-x="641" 
d="M610 9c0 -2.66699 -0.832031 -4.83203 -2.49902 -6.49902s-3.83398 -2.5 -6.50098 -2.5h-73c-7.33301 0 -12 3.66699 -14 11l-62 194h-265l-62 -194c-2 -7.33301 -7.33301 -11 -16 -11h-67c-4 0 -6.83301 1.33301 -8.5 4s-1.83398 6 -0.500977 10l225 706
c2 8 7.33301 12 16 12h91c4.66699 0 8.33398 -0.833008 11.001 -2.5s4.66699 -4.83398 6 -9.50098l227 -706c0.666992 -1.33301 1 -3 1 -5zM425.001 291.002l-41.999 133c-30.667 100 -51.334 170 -62.001 210h-2c-20 -73.333 -41 -144 -63 -212l-42 -131h211z" />
    <glyph glyph-name="B" unicode="B" horiz-adv-x="635" 
d="M498 683.5c34 -32.333 51 -76.499 51 -132.499v-16c0 -39.333 -9.5 -72.333 -28.5 -99s-44.167 -45.334 -75.5 -56.001c36 -6 65.833 -24 89.5 -54s35.5 -67.333 35.5 -112v-21c0 -61.333 -18.833 -108.833 -56.5 -142.5s-90.5 -50.5 -158.5 -50.5h-244
c-9.33301 0 -14 4 -14 12v708c0 8 4.66699 12 14 12h241c63.333 0 112 -16.167 146 -48.5zM191 648.001v-231h144c42.667 0 73.667 10.333 93 31s29 47 29 79v11c0 73.333 -40.333 110 -121 110h-145zM191 333.001v-249h150c90 0 135 38.667 135 116v15
c0 38 -11.5 67.167 -34.5 87.5s-56.833 30.5 -101.5 30.5h-149z" />
    <glyph glyph-name="C" unicode="C" horiz-adv-x="613" 
d="M560 574c0.666992 -2 1.00098 -4.33398 1.00098 -7.00098c0 -6.66699 -3 -11 -9 -13l-59 -18c-4 -1.33301 -6.66699 -2 -8 -2c-5.33301 0 -9 3.33301 -11 10c-12.667 36.667 -30.334 64.334 -53.001 83.001s-54 28 -94 28c-49.333 0 -87.5 -14.5 -114.5 -43.5
s-40.5 -72.833 -40.5 -131.5v-228c0 -58.667 13.667 -102.5 41 -131.5s65.333 -43.5 114 -43.5c79.333 0 130 39.333 152 118c2 7.33301 5.66699 11 11 11l8 -2l59 -19c8.66699 -4 11.667 -10.667 9 -20c-16 -55.333 -44 -98.5 -84 -129.5s-92 -46.5 -156 -46.5
c-76 0 -136.333 22.667 -181 68s-67 108 -67 188v242c0 80 22.333 142.667 67 188s105 68 181 68c120.667 0 198.667 -56.333 234 -169z" />
    <glyph glyph-name="D" unicode="D" horiz-adv-x="675" 
d="M526.5 664.5c47.667 -45 71.5 -107.5 71.5 -187.5v-221c0 -80 -23.833 -142.667 -71.5 -188s-114.834 -68 -201.501 -68h-215c-8.66699 0 -13 4 -13 12v708c0 8 4.66699 12 14 12h214c86.667 0 153.834 -22.5 201.501 -67.5zM191 644v-556h131c121.333 0 182 58 182 174
v208c0 116 -60.667 174 -182 174h-131z" />
    <glyph glyph-name="E" unicode="E" horiz-adv-x="575" 
d="M504 719v-60c0 -8.66699 -4 -13 -12 -13h-301v-232h272c8 0 12 -4.33301 12 -13v-57c0 -8.66699 -4 -13 -12 -13h-272v-245h301c8 0 12 -4.33301 12 -13v-60c0 -8.66699 -4 -13 -12 -13h-381c-9.33301 0 -14 4 -14 12v708c0 8 4.66699 12 14 12h381
c8 0 12 -4.33301 12 -13z" />
    <glyph glyph-name="F" unicode="F" horiz-adv-x="544" 
d="M495 719v-60c0 -8.66699 -4 -13 -12 -13h-292v-251h262c8 0 12 -4.33301 12 -13v-58c0 -8.66699 -4 -13 -12 -13h-262v-299c0 -8 -4.33301 -12 -13 -12h-68c-8.66699 0 -13 4 -13 12v708c0 8 4.66699 12 14 12h372c8 0 12 -4.33301 12 -13z" />
    <glyph glyph-name="G" unicode="G" horiz-adv-x="663" 
d="M497.5 698.5c39.667 -29.667 68.167 -70.5 85.5 -122.5c1.33301 -4 2 -6.33301 2 -7c0 -6 -3.33301 -10 -10 -12l-60 -19c-4 -1.33301 -6.66699 -2 -8 -2c-4 0 -7.66699 3.33301 -11 10c-12 36.667 -30.5 64 -55.5 82s-57.833 27 -98.5 27
c-113.333 0 -170 -58.333 -170 -175v-228c0 -58.667 14.5 -102.5 43.5 -131.5s71.167 -43.5 126.5 -43.5c50 0 89.333 12 118 36s43 60.333 43 109v83h-141c-8 0 -12 4.33301 -12 13v58c0 8.66699 4 13 12 13h218c9.33301 0 14 -4.33301 14 -13v-158
c0 -45.333 -10.5 -85.333 -31.5 -120s-50.5 -61.5 -88.5 -80.5s-82 -28.5 -132 -28.5c-83.333 0 -148.166 22.5 -194.499 67.5s-69.5 107.833 -69.5 188.5v242c0 81.333 23.167 144.333 69.5 189s111.166 67 194.499 67c64 0 115.833 -14.833 155.5 -44.5z" />
    <glyph glyph-name="H" unicode="H" horiz-adv-x="704" 
d="M607 719v-707c0 -8 -4.66699 -12 -14 -12h-67c-8.66699 0 -13 4 -13 12v313h-322v-313c0 -8 -4.33301 -12 -13 -12h-68c-8.66699 0 -13 4 -13 12v707c0 8.66699 4.66699 13 14 13h67c4.66699 0 8 -1 10 -3s3 -5.33301 3 -10v-306h322v306c0 4.66699 1 8 3 10
s5.33301 3 10 3h67c9.33301 0 14 -4.33301 14 -13z" />
    <glyph glyph-name="I" unicode="I" horiz-adv-x="289" 
d="M191 720v-708c0 -8 -4.33301 -12 -13 -12h-67c-9.33301 0 -14 4 -14 12v708c0 8 4.66699 12 14 12h67c8.66699 0 13 -4 13 -12z" />
    <glyph glyph-name="J" unicode="J" horiz-adv-x="484" 
d="M390 720l0.000976562 -523.999c0 -66.667 -16.833 -117.834 -50.5 -153.501s-80.834 -53.5 -141.501 -53.5c-68 0 -124.667 25 -170 75c-4.66699 4.66699 -7 9 -7 13s1.66699 7.66699 5 11l38 42c4 4.66699 8.33301 7 13 7c4 0 8.33301 -2.66699 13 -8
c28 -34 63 -51 105 -51c32.667 0 57.667 9.66699 75 29s26 48.333 26 87v526c0 8 4.33301 12 13 12h68c8.66699 0 13 -4 13 -12z" />
    <glyph glyph-name="K" unicode="K" horiz-adv-x="627" 
d="M593 10c0 -2.66699 -1.16992 -4.99805 -3.50293 -6.99805s-5.16602 -3 -8.49902 -3h-75c-4.66699 0 -8.16699 0.666992 -10.5 2s-4.16602 3.66602 -5.49902 6.99902l-198 347l-101 -124v-220c0 -8 -4.33301 -12 -13 -12h-67c-9.33301 0 -14 4 -14 12v708
c0 8 4.66699 12 14 12h67c8.66699 0 13 -4 13 -12v-361l292 364c2.66699 3.33301 5.16699 5.66602 7.5 6.99902s5.83301 2 10.5 2h75c4.66699 0 7.83398 -1.83301 9.50098 -5.5s1.16699 -7.16699 -1.5 -10.5l-232 -286l239 -413c1.33301 -2.66699 2 -5 2 -7z" />
    <glyph glyph-name="L" unicode="L" horiz-adv-x="527" 
d="M191 720v-632h298c8 0 12 -4.33301 12 -13v-63c0 -8 -4 -12 -12 -12h-379c-8.66699 0 -13 4 -13 12v708c0 8 4.66699 12 14 12h67c8.66699 0 13 -4 13 -12z" />
    <glyph glyph-name="M" unicode="M" horiz-adv-x="838" 
d="M740 715l-0.00195312 -702.001c0 -8.66699 -4 -13 -12 -13h-64c-6.66699 0 -10 4.33301 -10 13v449c0 50.667 1.33301 109.334 4 176.001h-3l-187 -624c-2 -9.33301 -8.33301 -14 -19 -14h-60c-10 0 -16.333 4.66699 -19 14l-189 625h-3c4 -66.667 6 -125.667 6 -177
v-450c0 -3.33301 -1.16699 -6.16602 -3.5 -8.49902s-5.5 -3.5 -9.5 -3.5h-62c-3.33301 0 -6.16602 1.16699 -8.49902 3.5s-3.5 5.16602 -3.5 8.49902v703c0 11.333 6 17 18 17h106c10 0 16.333 -5 19 -15l116 -382l12 -42c22.667 -78.667 40 -141 52 -187h2
c18.667 78 39.667 155 63 231l115 379c2.66699 10.667 9.33398 16 20.001 16h103c11.333 0 17 -5.66699 17 -17z" />
    <glyph glyph-name="N" unicode="N" horiz-adv-x="715" 
d="M618 720v-705.001c0 -10 -5.33301 -15 -16 -15h-93c-8 0 -14.667 4.66699 -20 14l-211 414c-16.667 32.667 -33.167 67.834 -49.5 105.501l-30.5 69.5l-13 29h-2c3.33301 -70 5 -133.333 5 -190v-429c0 -8.66699 -4 -13 -12 -13h-65c-9.33301 -0 -14 4.33301 -14 13v704
c0 10 5.33301 15 16 15h101c9.33301 0 16 -5 20 -15l207 -413c20 -40 50.333 -106.667 91 -200h2c-4.66699 58.667 -7 122.667 -7 192v424c0 8 4.33301 12 13 12h65c8.66699 0 13 -4 13 -12z" />
    <glyph glyph-name="O" unicode="O" horiz-adv-x="683" 
d="M536 674.5c46.667 -45.667 70 -108.167 70 -187.5v-240c0 -80 -23.333 -143 -70 -189s-111.667 -69 -195 -69s-148.166 22.5 -194.499 67.5s-69.5 107.833 -69.5 188.5v240c0 82 23.167 145.5 69.5 190.5s111.166 67.5 194.499 67.5s148.333 -22.833 195 -68.5zM215 612
c-29.333 -28.667 -44 -71.334 -44 -128.001v-236c0 -56.667 14.667 -99.334 44 -128.001s71.333 -43 126 -43c55.333 0 97.666 14.333 126.999 43s44 71.334 44 128.001v236c0 56.667 -14.667 99.334 -44 128.001s-71.666 43 -126.999 43
c-54.667 0 -96.667 -14.333 -126 -43z" />
    <glyph glyph-name="P" unicode="P" horiz-adv-x="595" 
d="M484.5 674.5c38.333 -38.333 57.5 -91.5 57.5 -159.5v-43c0 -70 -19.167 -124.333 -57.5 -163s-96.166 -58 -173.499 -58h-120v-239c0 -8 -4.33301 -12 -13 -12h-67c-9.33301 0 -14 4 -14 12v709c0 3.33301 1.16699 6 3.5 8s4.83301 3 7.5 3h203
c77.333 0 135.166 -19.167 173.499 -57.5zM191 646v-309h113c51.333 0 88.166 11.667 110.499 35s33.5 58.666 33.5 105.999v30c0 46.667 -11.167 81.334 -33.5 104.001s-59.166 34 -110.499 34h-113z" />
    <glyph glyph-name="Q" unicode="Q" horiz-adv-x="683" 
d="M560 85.5c-30.667 -43 -74.666 -71.833 -131.999 -86.5l111 -140c2 -3.33301 3 -6 3 -8c0 -5.33301 -2.66699 -9 -8 -11l-53 -27c-4 -1.33301 -7 -2 -9 -2c-4 0 -7.66699 2 -11 6l-134 172c-78.667 3.33301 -140 27.333 -184 72s-66 106 -66 184v240
c0 82 23.167 145.5 69.5 190.5s111.166 67.5 194.499 67.5s148.333 -22.833 195 -68.5s70 -108.167 70 -187.5v-240c0 -64.667 -15.333 -118.5 -46 -161.5zM512.001 484c0 56.667 -14.667 99.334 -44 128.001s-71.666 43 -126.999 43c-54.667 0 -96.667 -14.333 -126 -43
s-44 -71.334 -44 -128.001v-236c0 -56.667 14.667 -99.334 44 -128.001s71.333 -43 126 -43c55.333 0 97.666 14.333 126.999 43s44 71.334 44 128.001v236z" />
    <glyph glyph-name="R" unicode="R" horiz-adv-x="629" 
d="M578 9c0 -6 -3.66699 -9 -11 -9h-77c-4.66699 -0 -8.16699 0.833008 -10.5 2.5s-4.5 4.5 -6.5 8.5l-159 281h-123v-280c0 -8 -4.33301 -12 -13 -12h-67c-9.33301 0 -14 4 -14 12v708c0 8 4.66699 12 14 12h219c76 0 133 -18.667 171 -56s57 -88 57 -152v-21
c0 -52 -12.5 -95.5 -37.5 -130.5s-61.833 -58.833 -110.5 -71.5l166 -286c1.33301 -2.66699 2 -4.66699 2 -6zM191 375l132 -0.000976562c49.333 0 85.166 10.833 107.499 32.5s33.5 53.834 33.5 96.501v15c0 41.333 -11.167 72.833 -33.5 94.5s-58.166 32.5 -107.499 32.5
h-132v-271z" />
    <glyph glyph-name="S" unicode="S" horiz-adv-x="595" 
d="M444 704c38.667 -26 66.6641 -63.668 83.9971 -113.001c0.666992 -1.33301 1 -3.33301 1 -6c0 -5.33301 -3.33301 -9 -10 -11l-56 -21c-1.33301 -0.666992 -3.33301 -1 -6 -1c-4.66699 0 -8.66699 3 -12 9c-12.667 32.667 -30.667 57 -54 73s-52.666 24 -87.999 24
c-41.333 0 -74.166 -9.66699 -98.499 -29s-36.5 -45.333 -36.5 -78c0 -20 4.83301 -37.167 14.5 -51.5s26.5 -28.333 50.5 -42s59 -29.5 105 -47.5c70.667 -27.333 120.834 -57.5 150.501 -90.5s44.5 -74.833 44.5 -125.5c0 -40 -9.83301 -75.5 -29.5 -106.5
s-47.5 -55.167 -83.5 -72.5s-77.333 -26 -124 -26c-63.333 0 -115.5 14.333 -156.5 43s-69.167 70 -84.5 124l-1 5c0 6.66699 3.33301 11 10 13l58 19c2 0.666992 4.33301 1 7 1c5.33301 0 9 -3.66699 11 -11c8.66699 -35.333 26.5 -62.333 53.5 -81s61.167 -28 102.5 -28
c43.333 0 77.833 10.167 103.5 30.5s38.5 47.833 38.5 82.5c0 22 -4.5 40.5 -13.5 55.5s-24.667 29.333 -47 43s-54.5 28.5 -96.5 44.5c-75.333 29.333 -128.666 60.666 -159.999 93.999s-47 75 -47 125c0 36.667 9.5 69.834 28.5 99.501s45.667 52.834 80 69.501
s74.166 25 119.499 25c56 0 103.333 -13 142 -39z" />
    <glyph glyph-name="T" unicode="T" horiz-adv-x="575" 
d="M546 719v-62c0 -8.66699 -3.66699 -13 -11 -13h-201v-632c0 -8 -4.33301 -12 -13 -12h-69c-8 0 -12 4 -12 12v632h-200c-7.33301 0 -11 4.33301 -11 13v62c0 8.66699 3.66699 13 11 13h495c7.33301 0 11 -4.33301 11 -13z" />
    <glyph glyph-name="U" unicode="U" horiz-adv-x="691" 
d="M596 729c2 -2 2.99902 -5.33301 2.99902 -10v-480c0 -78 -22.5 -139.167 -67.5 -183.5s-107.167 -66.5 -186.5 -66.5c-78.667 0 -140.5 21.833 -185.5 65.5s-67.5 105.167 -67.5 184.5v480c0 8.66699 4.33301 13 13 13h68c4.66699 0 8 -1 10 -3s3 -5.33301 3 -10v-475
c0 -55.333 13.833 -97 41.5 -125s66.834 -42 117.501 -42s90 14 118 42s42 69.667 42 125v475c0 4.66699 1 8 3 10s5.33301 3 10 3h68c4.66699 0 8 -1 10 -3z" />
    <glyph glyph-name="V" unicode="V" horiz-adv-x="630" 
d="M259 2.5c-2.66699 1.66699 -4.66797 4.83203 -6.00098 9.49902l-219 706c-0.666992 1.33301 -1 3 -1 5c0 2.66699 0.833008 4.83398 2.5 6.50098s3.83398 2.5 6.50098 2.5h73c7.33301 0 12.333 -3.66699 15 -11l126 -413c30 -101.333 49.667 -171.333 59 -210h3
c12.667 52 32.667 122.667 60 212l126 411c2 7.33301 7.33301 11 16 11h66c4 0 6.83301 -1.33301 8.5 -4s1.83398 -6 0.500977 -10l-218 -706c-2 -8 -7.33301 -12 -16 -12h-91c-4.66699 -0 -8.33398 0.833008 -11.001 2.5z" />
    <glyph glyph-name="W" unicode="W" horiz-adv-x="905" 
d="M854.5 728c1.66699 -2.66699 1.83398 -5.99805 0.500977 -9.99805l-142 -704c-2 -9.33301 -8 -14 -18 -14h-85c-9.33301 0 -15 4.66699 -17 14l-100 423c-4.66699 19.333 -14.667 64.666 -30 135.999l-8 38h-2c-18 -83.333 -31 -141 -39 -173l-101 -424
c-2 -9.33301 -8 -14 -18 -14h-84c-10 0 -16 4.66699 -18 14l-145 704v3c0 7.33301 3.66699 11 11 11h69c7.33301 0 12.333 -3.66699 15 -11l83 -436l31 -188h3l38 189l101 432c3.33301 9.33301 9.33301 14 18 14h75c8.66699 0 14.667 -4.66699 18 -14l101 -435
c12 -51.333 22.333 -102 31 -152c2 -8 4.33301 -19.333 7 -34h3c3.33301 23.333 5.66602 37.666 6.99902 42.999c8 52 16 99.667 24 143l82 438c0.666992 7.33301 5.66699 11 15 11h66c4 0 6.83301 -1.33301 8.5 -4z" />
    <glyph glyph-name="X" unicode="X" horiz-adv-x="626" 
d="M588 9c0 -6 -4 -9 -12 -9h-78c-4 -0 -7.16699 0.833008 -9.5 2.5s-4.83301 4.5 -7.5 8.5l-169 283l-171 -283c-2.66699 -4 -5.16699 -6.83301 -7.5 -8.5s-5.5 -2.5 -9.5 -2.5h-74c-8 0 -12 3 -12 9c0 2.66699 1 5.33398 3 8.00098l216 352l-212 346c-2 3.33301 -3 6 -3 8
c0 6 4 9 12 9h78c4 0 7.16699 -0.833008 9.5 -2.5s4.83301 -4.5 7.5 -8.5l165 -275l168 275c2.66699 4 5.16699 6.83301 7.5 8.5s5.5 2.5 9.5 2.5h73c5.33301 0 9 -1.66699 11 -5s1.66699 -7.33301 -1 -12l-214 -345l217 -353c2 -2.66699 3 -5.33398 3 -8.00098z" />
    <glyph glyph-name="Y" unicode="Y" horiz-adv-x="613" 
d="M583.5 726.5c1.66699 -3.66699 1.16699 -7.5 -1.5 -11.5l-229 -408v-294c0 -8.66699 -4 -13 -12 -13h-70c-8 -0 -12 4.33301 -12 13v292l-230 410c-1.33301 2.66699 -2 5 -2 7c0 2.66699 1 5 3 7s4.66699 3 8 3h77c4.66699 0 8.16699 -0.833008 10.5 -2.5
s4.5 -4.5 6.5 -8.5l176 -327l175 327c2 4 4.16699 6.83301 6.5 8.5s5.83301 2.5 10.5 2.5h73c5.33301 0 8.83301 -1.83301 10.5 -5.5z" />
    <glyph glyph-name="Z" unicode="Z" horiz-adv-x="583" 
d="M522 720l6 -48c0.666992 -1.33301 1 -3.66602 1 -6.99902c0 -4.66699 -2 -10 -6 -16l-358 -561h351c8 0 12 -4.33301 12 -13v-62c0 -8.66699 -4 -13 -12 -13h-444c-8.66699 0 -14 4 -16 12l-5 48c-0.666992 2 -1 4.33301 -1 7c0 5.33301 1.66699 10.666 5 15.999l360 561
h-343c-8 0 -12 4.33301 -12 13v62c0 8.66699 4 13 12 13h434c10 0 15.333 -4 16 -12z" />
    <glyph glyph-name="bracketleft" unicode="[" horiz-adv-x="351" 
d="M311 746v-58c0 -8.66699 -4 -13 -12 -13h-120v-791h120c8 0 12 -4.33301 12 -13v-58c0 -8.66699 -4 -13 -12 -13h-199c-8.66699 0 -13 4.33301 -13 13v933c0 8.66699 4.33301 13 13 13h199c8 0 12 -4.33301 12 -13z" />
    <glyph glyph-name="backslash" unicode="\" horiz-adv-x="415" 
d="M377 -186c0.666992 -1.33301 1 -3 1 -5c0 -6 -3.66699 -9 -11 -9h-58c-6.66699 0 -11.667 4 -15 12l-256 906c-0.666992 1.33301 -1 3 -1 5c0 6 3.66699 9 11 9h58c7.33301 0 12 -4 14 -12z" />
    <glyph glyph-name="bracketright" unicode="]" horiz-adv-x="351" 
d="M252 759c8.66699 0 13 -4.33301 13 -13v-933c0 -8.66699 -4.33301 -13 -13 -13h-199c-8 0 -12 4.33301 -12 13v58c0 8.66699 4 13 12 13h120v791h-120c-8 0 -12 4.33301 -12 13v58c0 8.66699 4 13 12 13h199z" />
    <glyph glyph-name="asciicircum" unicode="^" 
d="M553 313c0 -3.33301 -1.16797 -6 -3.50098 -8s-5.16602 -3 -8.49902 -3h-68c-5.33301 0 -9 2.33301 -11 7l-162 336l-162 -336c-2 -4.66699 -5.66699 -7 -11 -7h-68c-4.66699 0 -8.16699 1.66699 -10.5 5s-2.5 7.33301 -0.5 12l200 401c3.33301 8 9 12 17 12h70
c8 0 13.667 -4 17 -12l200 -401c0.666992 -1.33301 1 -3.33301 1 -6z" />
    <glyph glyph-name="underscore" unicode="_" horiz-adv-x="432" 
d="M432 -35v-64c0 -7.33301 -4.33301 -11 -13 -11h-406c-8.66699 0 -13 3.66699 -13 11v64c-0 8.66699 4.33301 13 13 13h406c8.66699 0 13 -4.33301 13 -13z" />
    <glyph glyph-name="grave" unicode="`" horiz-adv-x="580" 
d="M199 757c-4 0 -6.66797 -1.33301 -8.00098 -4s-0.666016 -5.66699 2.00098 -9l98 -122c3.33301 -3.33301 6 -5.66602 8 -6.99902s5 -2 9 -2h47c4 0 6.83301 1.5 8.5 4.5s1.16699 6.5 -1.5 10.5l-85 120c-2 3.33301 -4 5.66602 -6 6.99902s-5 2 -9 2h-63z" />
    <glyph glyph-name="a" unicode="a" horiz-adv-x="554" 
d="M420.5 516c35 -28.667 52.499 -71.334 52.499 -128.001v-376c0 -8 -4.33301 -12 -13 -12h-60c-8.66699 0 -13 4 -13 12v72c-17.333 -30 -40.333 -53.167 -69 -69.5s-60.334 -24.5 -95.001 -24.5c-51.333 0 -92.333 15 -123 45s-46 68.667 -46 116
c0 100.667 66.667 156 200 166c24 2 46.333 3 67 3c15.333 0 36.333 -0.666992 63 -2v64c0 68 -36.667 102 -110 102c-32.667 0 -57.167 -5.66699 -73.5 -17s-28.833 -29.666 -37.5 -54.999c-1.33301 -4.66699 -3.16602 -7.66699 -5.49902 -9s-6.16602 -1.33301 -11.499 0
l-59 16c-8.66699 2 -11.667 7 -9 15c9.33301 39.333 30.833 70 64.5 92s78.5 33 134.5 33c60.667 0 108.5 -14.333 143.5 -43zM327.499 92c24.333 18 43.167 43 56.5 75v88c-25.333 1.33301 -45 2 -59 2c-20 0 -41 -1 -63 -3c-40 -4 -70.167 -13.667 -90.5 -29
s-30.5 -38.333 -30.5 -69c0 -27.333 9 -49.333 27 -66s42.667 -25 74 -25c32.667 0 61.167 9 85.5 27z" />
    <glyph glyph-name="b" unicode="b" horiz-adv-x="595" 
d="M175 748v-274.001c13.333 24 34 44.167 62 60.5s61 24.5 99 24.5c58 0 104.167 -19 138.5 -57s51.5 -88.667 51.5 -152v-153c0 -63.333 -17.333 -113.666 -52 -150.999s-81.667 -56.333 -141 -57c-37.333 0 -70 8.16699 -98 24.5s-48.667 36.5 -62 60.5v-63
c0 -7.33301 -4 -11 -12 -11h-64c-8 0 -12 3.66699 -12 11v737c0 7.33301 3.66699 11 11 11h68c7.33301 0 11 -3.66699 11 -11zM214 440.499c-26 -25 -39 -59.5 -39 -103.5v-128c0 -43.333 13 -77.166 39 -101.499s57.667 -36.5 95 -36.5c40 0 71 11.667 93 35
s33 57.666 33 102.999v129c0 45.333 -11 80 -33 104s-53 36 -93 36c-37.333 0 -69 -12.5 -95 -37.5z" />
    <glyph glyph-name="c" unicode="c" horiz-adv-x="532" 
d="M410.5 522c34.333 -25.333 57.1689 -60.667 68.502 -106l1 -4c0 -6 -3.66699 -10 -11 -12l-54 -16c-2 -0.666992 -4.33301 -1 -7 -1c-4.66699 0 -8 3 -10 9c-8.66699 26 -21.5 47 -38.5 63s-42.5 24 -76.5 24c-39.333 0 -69.833 -11.833 -91.5 -35.5
s-32.5 -57.5 -32.5 -101.5v-136c0 -44 10.667 -77.5 32 -100.5s52 -34.5 92 -34.5c33.333 0 59 7 77 21s31.667 35 41 63c2 6.66699 5 10 9 10l9 -2l52 -19c8.66699 -2 11.667 -8 9 -18c-10.667 -40.667 -33.334 -73.667 -68.001 -99s-79.334 -38 -134.001 -38
c-65.333 0.666992 -116.666 20.167 -153.999 58.5s-56 89.5 -56 153.5v145c0 64 18.667 115.667 56 155s88.666 59 153.999 59c54 0 98.167 -12.667 132.5 -38z" />
    <glyph glyph-name="d" unicode="d" horiz-adv-x="595" 
d="M121 46c-34.667 37.333 -52 87.667 -52 151v153c0 63.333 17.167 114 51.5 152s80.5 57 138.5 57c38 0 71 -8.16699 99 -24.5s48.667 -36.5 62 -60.5v274c0 7.33301 3.66699 11 11 11h69c3.33301 0 6 -1 8 -3s3 -4.66699 3 -8v-737c0 -7.33301 -4.33301 -11 -13 -11h-64
c-8 0 -12 3.66699 -12 11v63c-13.333 -24 -34 -44.167 -62 -60.5s-60.667 -24.5 -98 -24.5c-59.333 0.666992 -106.333 19.667 -141 57zM381 107.501c26 24.333 39 58.166 39 101.499v128c0 44 -13 78.5 -39 103.5s-57.667 37.5 -95 37.5c-40 0 -71 -12 -93 -36
s-33 -58.667 -33 -104v-129c0 -45.333 11 -79.666 33 -102.999s53 -35 93 -35c37.333 0 69 12.167 95 36.5z" />
    <glyph glyph-name="e" unicode="e" horiz-adv-x="562" 
d="M156 245l0.000976562 -44.002c0 -43.333 11.5 -76.5 34.5 -99.5s56.167 -34.833 99.5 -35.5c36.667 0 64.5 6.16699 83.5 18.5s34.167 30.5 45.5 54.5c4 6.66699 7.66699 10 11 10s7 -1 11 -3l43 -22c7.33301 -2.66699 11 -6.66699 11 -12c0 -2.66699 -1 -6 -3 -10
c-15.333 -35.333 -40.333 -63 -75 -83s-77.334 -30 -128.001 -30c-70 0.666992 -124.333 20.167 -163 58.5s-58 89.5 -58 153.5v147c0 63.333 19 114.333 57 153s91.667 58.334 161 59.001c68 -0.666992 120.5 -20.167 157.5 -58.5s55.5 -89.166 55.5 -152.499v-80
c0 -16 -8.66699 -24 -26 -24h-317zM190.001 447.998c-22.667 -23.333 -33.998 -56 -33.998 -98v-41h258v41c0 42 -11.333 74.667 -34 98s-54.334 35.333 -95.001 36c-40.667 -0.666992 -72.334 -12.667 -95.001 -36z" />
    <glyph glyph-name="f" unicode="f" horiz-adv-x="372" 
d="M343 747v-51c0 -8 -4 -12 -12 -12h-40c-26.667 0 -46.167 -6 -58.5 -18s-18.5 -30.667 -18.5 -56v-64h119c6.66699 0 10 -3.66699 10 -11v-53c0 -8 -3.66699 -12 -11 -12h-118v-459c0 -7.33301 -4 -11 -12 -11h-66c-8.66699 0 -13 3.66699 -13 11v459h-78
c-6.66699 0 -10 4 -10 12v53c0 7.33301 3.33301 11 10 11h78v61c0 49.333 13.333 87 40 113s64.667 39 114 39h52c9.33301 0 14 -4 14 -12z" />
    <glyph glyph-name="g" unicode="g" horiz-adv-x="558" 
d="M478 59.5c29.333 -26.333 44.001 -61.1621 44.001 -104.495c0 -48.667 -19.833 -88.334 -59.5 -119.001s-101.5 -46 -185.5 -46c-78.667 0 -136.5 13.167 -173.5 39.5s-55.5 62.5 -55.5 108.5c0 25.333 6.83301 48.666 20.5 69.999s34.167 37.666 61.5 48.999
c-12.667 9.33301 -22.167 20.166 -28.5 32.499s-9.5 24.833 -9.5 37.5c0 16.667 4.83301 31.834 14.5 45.501s23.5 24.167 41.5 31.5c-27.333 16 -48.166 37.333 -62.499 64s-21.5 57.667 -21.5 93c0 57.333 17.5 103 52.5 137s85.833 51 152.5 51h240
c6.66699 0 10 -4 10 -12v-49c0 -8.66699 -4 -13 -12 -13h-96c17.333 -12.667 31.166 -29.834 41.499 -51.501s15.5 -46.5 15.5 -74.5c0 -52.667 -17.167 -94.834 -51.5 -126.501s-83.5 -47.5 -147.5 -47.5h-3v0h-42c-18 0 -31.5 -3.5 -40.5 -10.5s-13.5 -16.167 -13.5 -27.5
s4.5 -20.5 13.5 -27.5s22.5 -10.5 40.5 -10.5h118c61.333 0 106.666 -13.167 135.999 -39.5zM178.501 447.504c-21 -20.333 -31.5 -48.833 -31.5 -85.5c0 -37.333 10.667 -66.5 32 -87.5s51.666 -31.5 90.999 -31.5c37.333 0 66.333 9.83301 87 29.5s31 48.5 31 86.5
c0 37.333 -10.167 66.5 -30.5 87.5s-50.166 31.5 -89.499 31.5c-38.667 0 -68.5 -10.167 -89.5 -30.5zM396.501 -118.996c25.667 16.667 38.499 39.334 38.499 68.001c0 22.667 -7.83301 41 -23.5 55s-42.167 21 -79.5 21h-101c-35.333 0 -60.666 -7.33301 -75.999 -22
s-23 -33.334 -23 -56.001c0 -28.667 12 -51 36 -67s61.667 -24 113 -24s89.833 8.33301 115.5 25z" />
    <glyph glyph-name="h" unicode="h" horiz-adv-x="586" 
d="M175 747l-0.00292969 -282c18.667 28 42.334 50.667 71.001 68s61.334 26 98.001 26c51.333 0 91 -16.5 119 -49.5s42 -76.833 42 -131.5l-1 -366c0 -8 -4 -12 -12 -12h-65c-8.66699 0 -13 4 -13 12l-1 351c0 74.667 -33 112 -99 112
c-29.333 0 -56.666 -9.5 -81.999 -28.5s-44.333 -44.833 -57 -77.5v-357c0 -8 -4 -12 -12 -12h-65c-8.66699 0 -13 4 -13 12v735c0 8 4.33301 12 13 12h65c8 0 12 -4 12 -12z" />
    <glyph glyph-name="i" unicode="i" horiz-adv-x="260" 
d="M175 745v-97c0 -9.33301 -5 -14 -15 -14h-60c-10 0 -15 4.66699 -15 14v97c0 9.33301 5 14 15 14h60c10 0 15 -4.66699 15 -14zM175 537v-525c0 -8 -4 -12 -12 -12h-65c-8.66699 0 -13 4 -13 12v525c0 8 4.33301 12 13 12h65c8 0 12 -4 12 -12z" />
    <glyph glyph-name="j" unicode="j" horiz-adv-x="260" 
d="M176 745v-97c0 -9.33301 -5.33301 -14 -16 -14h-59c-10.667 0 -16 4.66699 -16 14v97c0 9.33301 5.33301 14 16 14h59c10.667 0 16 -4.66699 16 -14zM176 537v-488.001c0 -60 -9.5 -110 -28.5 -150s-46.167 -75.667 -81.5 -107c-2.66699 -2.66699 -6 -4 -10 -4
s-7.66699 1.66699 -11 5l-45 37c-3.33301 3.33301 -5 6.33301 -5 9s2 6.66699 6 12c19.333 18 34.5 34.167 45.5 48.5s20.167 33.333 27.5 57s11 52.834 11 87.501v493c0 8 4.33301 12 13 12h65c8.66699 0 13 -4 13 -12z" />
    <glyph glyph-name="k" unicode="k" horiz-adv-x="536" 
d="M508 10c0 -6.66699 -3.66699 -10 -11 -10h-72c-4.66699 -0 -8.33398 0.833008 -11.001 2.5s-5 4.5 -7 8.5l-145 252l-87 -100v-151c0 -8 -4 -12 -12 -12h-66c-8 0 -12 4 -12 12v736c0 8 4 12 12 12h66c8 0 12 -4 12 -12v-470l219 259c6 8 13.667 12 23 12h71
c5.33301 0 8.83301 -1.83301 10.5 -5.5s0.833984 -7.16699 -2.49902 -10.5l-174 -200l184 -316c1.33301 -2.66699 2 -5 2 -7z" />
    <glyph glyph-name="l" unicode="l" horiz-adv-x="260" 
d="M175 748v-736c0 -8 -4 -12 -12 -12h-65c-8.66699 0 -13 4 -13 12v736c0 8 4.33301 12 13 12h65c8 0 12 -4 12 -12z" />
    <glyph glyph-name="m" unicode="m" horiz-adv-x="848" 
d="M237.5 533c26.333 18 55.834 26.999 88.501 26.999c35.333 0 64.166 -9.16699 86.499 -27.5s38.166 -42.166 47.499 -71.499c20 31.333 43.667 55.666 71 72.999s57 26 89 26c44.667 0 80.167 -15.167 106.5 -45.5s39.5 -71.166 39.5 -122.499v-380
c0 -8 -4.66699 -12 -14 -12h-62c-9.33301 0 -14 4 -14 12v361c0 33.333 -7.16699 58.833 -21.5 76.5s-35.166 26.5 -62.499 26.5c-25.333 0 -48.5 -8.66699 -69.5 -26s-38.167 -42 -51.5 -74v-364c0 -8 -4 -12 -12 -12h-67c-8 0 -12 4 -12 12v361
c0 33.333 -7.16699 58.833 -21.5 76.5s-34.833 26.5 -61.5 26.5c-26 0 -49.833 -9.66699 -71.5 -29s-38.5 -44.333 -50.5 -75v-360c0 -8 -4 -12 -12 -12h-66c-8 0 -12 4 -12 12v526c0 7.33301 4 11 12 11h64c8 0 12 -3.66699 12 -11v-72c16.667 26.667 38.167 49 64.5 67z
" />
    <glyph glyph-name="n" unicode="n" horiz-adv-x="586" 
d="M231.5 447c-25 -19.333 -43.833 -45 -56.5 -77v-358c0 -8 -4 -12 -12 -12h-65c-8.66699 0 -13 4 -13 12v526c0 7.33301 4 11 12 11h64c8 0 12 -3.66699 12 -11v-72c20 28 44.5 50.667 73.5 68s61.5 26 97.5 26c51.333 0 91 -16.5 119 -49.5s42 -76.833 42 -131.5v-367
c0 -8 -4.33301 -12 -13 -12h-65c-8.66699 0 -13 4 -13 12v352c0 36 -8.33301 63.667 -25 83s-42 29 -76 29c-29.333 0 -56.5 -9.66699 -81.5 -29z" />
    <glyph glyph-name="o" unicode="o" horiz-adv-x="580" 
d="M455 502c38 -38.667 57 -90.667 57 -156v-143c0 -66 -19 -118.167 -57 -156.5s-93 -57.5 -165 -57.5s-127 19.167 -165 57.5s-57 89.833 -57 154.5v143c0 66 19 118.5 57 157.5s93 58.5 165 58.5s127 -19.333 165 -58zM193 443.5
c-22.667 -23.667 -34.001 -57.5 -34.001 -101.5v-136c0 -44 11.333 -77.5 34 -100.5s55 -34.5 97 -34.5c42.667 0 75.334 11.5 98.001 34.5s34 56.5 34 100.5v136c0 44 -11.5 77.833 -34.5 101.5s-55.5 35.5 -97.5 35.5s-74.333 -11.833 -97 -35.5z" />
    <glyph glyph-name="p" unicode="p" horiz-adv-x="595" 
d="M96 -200c-7.33301 0 -11 3.66699 -11 11v727c0 7.33301 4 11 12 11h64c8 0 12 -3.66699 12 -11v-62c13.333 23.333 34 43.166 62 59.499s60.667 24.5 98 24.5c59.333 -0.666992 106.333 -19.667 141 -57s52 -87.666 52 -150.999v-154c0 -62.667 -17.167 -113 -51.5 -151
s-80.5 -57.333 -138.5 -58c-38 0 -71 8.16699 -99 24.5s-48.667 36.5 -62 60.5v-263c0 -7.33301 -3.66699 -11 -11 -11h-68zM402 106.5c22 23.667 33 58.167 33 103.5v131c0 44.667 -11 78.667 -33 102s-53 35.333 -93 36c-37.333 0 -69 -12.333 -95 -37
s-39 -58.667 -39 -102v-129c0 -44 13 -78.333 39 -103s57.667 -37 95 -37c40 0 71 11.833 93 35.5z" />
    <glyph glyph-name="q" unicode="q" horiz-adv-x="595" 
d="M420 -189v263c-13.333 -24 -34 -44.167 -62 -60.5s-61 -24.5 -99 -24.5c-58 0.666992 -104.167 20 -138.5 58s-51.5 88.333 -51.5 151v154c0 63.333 17.333 113.666 52 150.999s81.667 56.333 141 57c37.333 0 70 -8.16699 98 -24.5s48.667 -36.166 62 -59.499v62
c0 7.33301 4 11 12 11h64c8.66699 0 13 -3.66699 13 -11v-727c0 -3.33301 -1 -6 -3 -8s-4.66699 -3 -8 -3h-69c-7.33301 0 -11 3.66699 -11 11zM381 108c26 24.667 39 59 39 103v129c0 43.333 -13 77.333 -39 102s-57.667 37 -95 37c-40 -0.666992 -71 -12.667 -93 -36
s-33 -57.333 -33 -102v-131c0 -45.333 11 -79.833 33 -103.5s53 -35.5 93 -35.5c37.333 0 69 12.333 95 37z" />
    <glyph glyph-name="r" unicode="r" horiz-adv-x="383" 
d="M353 553.5c2 -1.66699 3 -5.16699 3 -10.5v-61c0 -4.66699 -1 -8 -3 -10s-5.33301 -3 -10 -3h-12c-38.667 0 -71.167 -9.83301 -97.5 -29.5s-45.833 -46.167 -58.5 -79.5v-349c0 -7.33301 -3.66699 -11 -11 -11h-68c-7.33301 0 -11 3.66699 -11 11v527
c0 7.33301 4 11 12 11h62c8.66699 0 13 -4 13 -12l-1 -83c16 30 38.333 54.5 67 73.5s62.667 28.5 102 28.5c6.66699 0 11 -0.833008 13 -2.5z" />
    <glyph glyph-name="s" unicode="s" horiz-adv-x="518" 
d="M386 526.5c34.667 -21.667 57.9971 -52.1641 69.9971 -91.4971l1 -5c0 -6 -3.66699 -10 -11 -12l-50 -18c-1.33301 -0.666992 -3.33301 -1 -6 -1c-5.33301 0 -9 3.33301 -11 10c-17.333 50.667 -57 76 -119 76c-33.333 0 -59.5 -6.66699 -78.5 -20
s-28.5 -31.666 -28.5 -54.999c0 -14.667 3.83301 -26.834 11.5 -36.501s21 -18.834 40 -27.501s46.833 -18.334 83.5 -29.001c62.667 -18 107.334 -39.833 134.001 -65.5s40 -59.5 40 -101.5c0 -31.333 -8.33301 -59.333 -25 -84s-40.167 -43.667 -70.5 -57
s-65.166 -20 -104.499 -20c-54 0 -99.667 11.167 -137 33.5s-62.333 53.5 -75 93.5c-0.666992 1.33301 -1 3.33301 -1 6c0 6 3.66699 10.667 11 14l45 20l8 2c5.33301 0 9.33301 -4 12 -12c7.33301 -25.333 23.166 -45.5 47.499 -60.5s53.5 -22.5 87.5 -22.5
c34.667 0 62.334 7.5 83.001 22.5s31 34.5 31 58.5c0 16 -4 29.5 -12 40.5s-22 21.167 -42 30.5s-48.667 19.333 -86 30c-59.333 17.333 -102.333 38.5 -129 63.5s-40 57.5 -40 97.5c0 45.333 17.833 82.166 53.5 110.499s82.167 42.5 139.5 42.5
c50.667 0 93.334 -10.833 128.001 -32.5z" />
    <glyph glyph-name="t" unicode="t" horiz-adv-x="377" 
d="M209 678v-132h117c8 0 12 -4.66699 12 -14v-49c0 -8.66699 -4 -13 -12 -13h-117v-317c0 -48 25.333 -72 76 -72h40c8.66699 0 13 -4 13 -12v-56c0 -8.66699 -4.33301 -13 -13 -13h-53c-48.667 -0 -86.167 12.333 -112.5 37s-39.5 59 -39.5 103v330h-75
c-7.33301 0 -11 4.33301 -11 13v49c0 9.33301 3.66699 14 11 14h76v132c0 8 4.33301 12 13 12h62c8.66699 0 13 -4 13 -12z" />
    <glyph glyph-name="u" unicode="u" horiz-adv-x="586" 
d="M123 38.5c-28 33 -42.001 76.833 -42.001 131.5v367c0 8 4.33301 12 13 12h65c8.66699 0 13 -4 13 -12v-352c0 -36 8.33301 -63.667 25 -83s41.667 -29 75 -29c29.333 0 56.5 9.66699 81.5 29s43.833 45 56.5 77v358c0 8 4.33301 12 13 12h65c8.66699 0 13 -4 13 -12
v-525c0 -8 -4 -12 -12 -12h-64c-8 0 -12 4 -12 12v72c-19.333 -28 -43.666 -50.833 -72.999 -68.5s-62 -26.5 -98 -26.5c-51.333 0 -91 16.5 -119 49.5z" />
    <glyph glyph-name="v" unicode="v" horiz-adv-x="536" 
d="M501 545c2 -2.66699 2.33301 -6.33301 1 -11l-177 -522c-2.66699 -8 -8.33398 -12 -17.001 -12h-79c-5.33301 0 -9.33301 1 -12 3s-4.66699 5 -6 9l-176 522c-0.666992 1.33301 -1 3 -1 5c0 2.66699 1 5 3 7s4.66699 3 8 3h68c8.66699 0 14.334 -3.66699 17.001 -11
l86 -264c16 -51.333 33.667 -115 53 -191h2c18.667 72 36.667 135.667 54 191l86 264c2.66699 7.33301 8 11 16 11h64c4.66699 0 8 -1.33301 10 -4z" />
    <glyph glyph-name="w" unicode="w" horiz-adv-x="759" 
d="M719 535l-129 -523c-2 -8 -7.66699 -12 -17 -12h-76c-8.66699 0 -14 4 -16 12l-55 214c-22 86 -37.333 153.667 -46 203h-1c-6 -30 -16.333 -75 -31 -135l-16 -68l-55 -214c-2.66699 -8 -8 -12 -16 -12h-77c-8.66699 0 -14 4 -16 12l-127 524l-1 5
c0 5.33301 3.66699 8 11 8h65c9.33301 0 15 -4 17 -12l57 -263c14 -68 26 -132 36 -192h1c13.333 71.333 27.333 135.333 42 192l69 264c2 7.33301 6.33301 11 13 11h64c8 0 13 -4 15 -12l66 -264c12.667 -50 26 -113.333 40 -190h2c12.667 73.333 25 137 37 191l57 263
c2 8 7.33301 12 16 12h60c10 0 13.667 -4.66699 11 -14z" />
    <glyph glyph-name="x" unicode="x" horiz-adv-x="524" 
d="M487 10c0 -2.66699 -1.00098 -5 -3.00098 -7s-4.66699 -3 -8 -3h-72c-5.33301 0 -9.16602 0.666992 -11.499 2s-4.83301 4 -7.5 8l-124 196l-124 -196c-2.66699 -4 -5.33398 -6.66699 -8.00098 -8s-6.33398 -2 -11.001 -2h-68c-4.66699 -0 -8 1.83301 -10 5.5
s-1.66699 7.16699 1 10.5l171 259l-171 258c-1.33301 2.66699 -2 5 -2 7c0 2.66699 1 4.83398 3 6.50098s4.33301 2.5 7 2.5h73c5.33301 0 9.16602 -0.666992 11.499 -2s4.83301 -4 7.5 -8l123 -194l122 195c2.66699 3.33301 5.33398 5.66602 8.00098 6.99902
s6.33398 2 11.001 2h68c4.66699 0 7.83398 -1.66699 9.50098 -5s1.16699 -7 -1.5 -11l-168 -257l172 -260c1.33301 -2.66699 2 -4.66699 2 -6z" />
    <glyph glyph-name="y" unicode="y" horiz-adv-x="536" 
d="M503.5 545c2.33301 -2.66699 2.83105 -6.33496 1.49805 -11.002l-196 -535c-36 -99.333 -85.667 -168.666 -149 -207.999c-5.33301 -3.33301 -9.66602 -5 -12.999 -5s-7 2 -11 6l-38 41c-2.66699 4 -4 7.33301 -4 10c0 4.66699 2.33301 8.33398 7 11.001
c32 20 57.5 42.5 76.5 67.5s35.167 59.833 48.5 104.5l-195 508c-0.666992 1.33301 -1 3 -1 5c0 2.66699 1.16699 5 3.5 7s5.16602 3 8.49902 3h70c8 0 13.333 -4 16 -12l85 -236c28.667 -81.333 48.334 -142 59.001 -182h1c14 50.667 30.333 102.667 49 156l9 26l81 237
c2.66699 7.33301 8.33398 11 17.001 11h65c4 0 7.16699 -1.33301 9.5 -4z" />
    <glyph glyph-name="z" unicode="z" horiz-adv-x="499" 
d="M440 538l4.99902 -39.001v-6c0 -8 -1.66699 -14 -5 -18l-278 -396h272c8 0 12 -3.66699 12 -11v-56c0 -8 -4 -12 -12 -12h-365c-9.33301 0 -14.333 3.66699 -15 11l-5 39c-0.666992 2 -1 4.33301 -1 7c0 6.66699 2 12.334 6 17.001l278 396h-263
c-3.33301 0 -6.16602 1.33301 -8.49902 4s-3.5 5.66699 -3.5 9v54c0 8 3.66699 12 11 12h356c10 0 15.333 -3.66699 16 -11z" />
    <glyph glyph-name="braceleft" unicode="{" horiz-adv-x="381" 
d="M338 746v-58.001c0 -8.66699 -4 -13 -12 -13h-36c-20 0 -35.833 -5.66699 -47.5 -17s-17.5 -28.666 -17.5 -51.999v-199c0 -31.333 -7.5 -58.5 -22.5 -81.5s-35.5 -37.833 -61.5 -44.5v-2c26 -6.66699 46.5 -21.667 61.5 -45s22.5 -50.333 22.5 -81v-199
c0 -23.333 5.83301 -40.833 17.5 -52.5s27.5 -17.5 47.5 -17.5h36c8 0 12 -4.33301 12 -13v-57c0 -8.66699 -4 -13 -12 -13h-55c-44 0 -78 13.333 -102 40s-36 60 -36 100l1 206c0 26 -6.83301 47.167 -20.5 63.5s-36.834 24.5 -69.501 24.5c-8.66699 0 -13 4.33301 -13 13
v63c0 8.66699 4.33301 13 13 13c32.667 0 55.834 8.33301 69.501 25s20.5 38 20.5 64l-1 206c0 40 12 73.333 36 100s58 40 102 40h55c8 0 12 -4.33301 12 -13z" />
    <glyph glyph-name="bar" unicode="|" horiz-adv-x="255" 
d="M168 720v-910c0 -8 -4.33301 -12 -13 -12h-55c-8.66699 0 -13 4 -13 12v910c0 8 4.33301 12 13 12h55c8.66699 0 13 -4 13 -12z" />
    <glyph glyph-name="braceright" unicode="}" horiz-adv-x="381" 
d="M110 759c44 0 78 -13.332 102 -39.999s36 -60 36 -100l-1 -206c0 -59.333 30 -89 90 -89c8.66699 0 13 -4.33301 13 -13v-63c0 -8.66699 -4.33301 -13 -13 -13c-60 0 -90 -29.333 -90 -88l1 -206c0 -40 -12 -73.333 -36 -100s-58 -40 -102 -40h-55
c-8 0 -12 4.33301 -12 13v57c0 8.66699 4 13 12 13h36c20 0 35.833 5.83301 47.5 17.5s17.5 29.167 17.5 52.5l-1 199c0.666992 30.667 8.66699 57.667 24 81s35.666 38.333 60.999 45v2c-25.333 6.66699 -45.666 21.5 -60.999 44.5s-23.333 50.167 -24 81.5l1 199
c0 23.333 -5.83301 40.666 -17.5 51.999s-27.5 17 -47.5 17h-36c-8 0 -12 4.33301 -12 13v58c0 8.66699 4 13 12 13h55z" />
    <glyph glyph-name="asciitilde" unicode="~" 
d="M459 333c12 10.667 22.998 26.666 32.998 47.999c4.66699 8 11.334 10 20.001 6l43 -20c7.33301 -2.66699 9.66602 -8 6.99902 -16c-27.333 -79.333 -76 -119 -146 -119c-19.333 0 -39 3.83301 -59 11.5s-44.667 18.834 -74 33.501c-22 11.333 -40 19.833 -54 25.5
s-26.667 8.5 -38 8.5c-19.333 0 -35 -5.16699 -47 -15.5s-23.333 -26.166 -34 -47.499c-1.33301 -4 -3.66602 -6.66699 -6.99902 -8s-7 -1 -11 1l-46 22c-6 3.33301 -8 8.66602 -6 15.999c28 79.333 76.667 119 146 119c19.333 0 39.166 -4 59.499 -12s43.833 -19 70.5 -33
c22.667 -12 41.334 -21 56.001 -27s28.334 -9 41.001 -9c18.667 0 34 5.33301 46 16z" />
    <glyph glyph-name="uni00A0" unicode="&#xa0;" horiz-adv-x="276" 
 />
    <glyph glyph-name="exclamdown" unicode="&#xa1;" horiz-adv-x="257" 
d="M98 367c-9.33301 0 -14 5.33301 -14 16v149c0 10 4.66699 15 14 15h60c10 0 15 -5.33301 15 -16v-148c0 -10.667 -5 -16 -15 -16h-60zM94 -185c-9.33301 0 -14 5 -14 15c0 43.333 2.16699 119 6.5 227s7.83301 177.333 10.5 208c0.666992 8.66699 5 13 13 13h36
c8 0 12.333 -4.33301 13 -13c2.66699 -31.333 6.16699 -101 10.5 -209s6.5 -183.333 6.5 -226c0 -10 -5 -15 -15 -15h-67z" />
    <glyph glyph-name="cent" unicode="&#xa2;" 
d="M514.5 229c1 -2.66699 0.833008 -6.33203 -0.5 -10.999c-10.667 -35.333 -29.834 -64.833 -57.501 -88.5s-63.167 -38.5 -106.5 -44.5v-71c0 -8 -4.33301 -12 -13 -12h-55c-8.66699 0 -13 4 -13 12v72c-55.333 7.33301 -98.5 29.5 -129.5 66.5s-46.5 84.167 -46.5 141.5
v107c0 56.667 15.5 103.834 46.5 141.501s74.167 60.167 129.5 67.5v85c0 7.33301 4.33301 11 13 11h55c8.66699 0 13 -3.66699 13 -11v-84c43.333 -6 79 -21 107 -45s46.667 -55.333 56 -94c0.666992 -1.33301 1 -3.33301 1 -6c0 -4.66699 -3 -8 -9 -10l-47 -14l-8 -2
c-4 0 -7 3 -9 9c-16.667 51.333 -50.667 80.333 -102 87v-376c28 3.33301 50.333 12.166 67 26.499s29.334 34.166 38.001 59.499c2 6 5.33301 9 10 9l8 -2l44 -17c4.66699 -2 7.5 -4.33301 8.5 -7zM201 204.002c18.667 -23.333 45.334 -37.668 80.001 -43.001v374
c-34.667 -5.33301 -61.334 -19.833 -80.001 -43.5s-28 -55.167 -28 -94.5v-99c0 -39.333 9.33301 -70.666 28 -93.999z" />
    <glyph glyph-name="sterling" unicode="&#xa3;" 
d="M551 611c0 -6 -3 -9.66797 -9 -11.001l-50 -20c-2 -0.666992 -4.33301 -1 -7 -1c-5.33301 0 -9.33301 2.66699 -12 8c-10 25.333 -24 44.5 -42 57.5s-41.667 19.5 -71 19.5c-39.333 0 -69.833 -10.833 -91.5 -32.5s-32.5 -54.167 -32.5 -97.5v-158h204
c8 0 12 -4.66699 12 -14v-54c0 -8.66699 -4 -13 -12 -13h-204v-211h288c8 0 12 -4.33301 12 -13v-58c0 -8.66699 -4 -13 -12 -13h-459c-8 0 -12 4.33301 -12 13v58c0 8.66699 4 13 12 13h79v211h-79c-8 0 -12 4.33301 -12 13v54c0 9.33301 4 14 12 14h79v154
c0 66 19.333 117.833 58 155.5s91 56.5 157 56.5c50 0 91 -11.167 123 -33.5s54.333 -52.166 67 -89.499z" />
    <glyph glyph-name="currency" unicode="&#xa4;" 
d="M538 121c0 -3.33301 -1.66504 -6.66504 -4.99805 -9.99805l-39 -39c-4.66699 -3.33301 -8 -5 -10 -5c-1.33301 0 -4 1.33301 -8 4l-59 60c-33.333 -23.333 -72 -35 -116 -35c-42.667 0 -81.334 11.667 -116.001 35l-60 -60c-2.66699 -2.66699 -5.33398 -4 -8.00098 -4
c-1.33301 0 -4.33301 1.66699 -9 5l-40 39c-2.66699 3.33301 -4 6.66602 -4 9.99902s1.33301 6 4 8l60 60c-24 34.667 -36 73 -36 115s12.333 81.333 37 118l-60 59c-2.66699 4 -4 6.66699 -4 8c0 3.33301 1.66699 6.66602 5 9.99902l39 39
c3.33301 3.33301 6.66602 5 9.99902 5s6 -1.33301 8 -4l60 -60c35.333 22.667 73.333 34 114 34s78.667 -11.333 114 -34l60 60c2.66699 2.66699 5.33398 4 8.00098 4c3.33301 0 6.33301 -1.66699 9 -5l39 -39c3.33301 -2.66699 5 -5.66699 5 -9s-1.33301 -6.33301 -4 -9
l-59 -59c24 -35.333 36 -74.666 36 -117.999s-11.333 -82 -34 -116l59 -59c2.66699 -2.66699 4 -5.33398 4 -8.00098zM209.502 211.001c25 -25.333 55.499 -38 91.499 -38c23.333 0 44.833 5.66699 64.5 17s35.334 27 47.001 47s17.5 41.667 17.5 65
c0 37.333 -12.5 69 -37.5 95s-55.5 39 -91.5 39c-23.333 0 -45 -5.83301 -65 -17.5s-35.667 -27.667 -47 -48s-17 -42.5 -17 -66.5c0 -36.667 12.5 -67.667 37.5 -93z" />
    <glyph glyph-name="yen" unicode="&#xa5;" 
d="M342 299v-7h144c8 0 12 -4.33301 12 -13v-60c0 -8.66699 -4 -13 -12 -13h-138v-193c0 -8.66699 -4 -13 -12 -13h-70c-8 -0 -12 4.33301 -12 13v193h-138c-8 0 -12 4.33301 -12 13v60c0 8.66699 4 13 12 13h144v5l-224 418c-1.33301 2 -2 4.33301 -2 7
c0 6.66699 3.66699 10 11 10h77c8 0 13.667 -3.66699 17 -11l163 -323l164 323c2 4 4.16699 6.83301 6.5 8.5s5.83301 2.5 10.5 2.5h73c5.33301 0 8.83301 -1.83301 10.5 -5.5s1.16699 -7.5 -1.5 -11.5z" />
    <glyph glyph-name="brokenbar" unicode="&#xa6;" horiz-adv-x="261" 
d="M171 720v-396c0 -8 -4.33301 -12 -13 -12h-55c-8.66699 0 -13 4 -13 12v396c0 8 4.33301 12 13 12h55c8.66699 0 13 -4 13 -12zM171 210v-400c0 -8 -4.33301 -12 -13 -12h-55c-8.66699 0 -13 4 -13 12v400c0 8 4.33301 12 13 12h55c8.66699 0 13 -4 13 -12z" />
    <glyph glyph-name="section" unicode="&#xa7;" horiz-adv-x="587" 
d="M102.5 495c-8.33301 20 -12.498 43.001 -12.498 69.001c0 34.667 8.66699 65.5 26 92.5s42.166 48.167 74.499 63.5s70.166 23 113.499 23c56 0 101.167 -13 135.5 -39s58.833 -60.333 73.5 -103c0.666992 -1.33301 1 -3 1 -5c0 -5.33301 -3 -9 -9 -11l-54 -20
c-1.33301 -0.666992 -3.33301 -1 -6 -1c-4 0 -7.66699 3 -11 9c-11.333 28 -27.166 49.833 -47.499 65.5s-47.833 23.5 -82.5 23.5c-39.333 0 -70 -9.16699 -92 -27.5s-33 -41.833 -33 -70.5c0 -18.667 4.83301 -35 14.5 -49s25.667 -27.333 48 -40
s54.5 -27.334 96.5 -44.001c62 -24.667 107.667 -52.167 137 -82.5s44 -70.833 44 -121.5c0 -27.333 -5.33301 -52.833 -16 -76.5s-26 -43.167 -46 -58.5c32.667 -30 49 -70.333 49 -121c0 -37.333 -9 -70.333 -27 -99s-43.667 -50.834 -77 -66.501
s-72.333 -23.5 -117 -23.5c-63.333 0 -113.333 14.333 -150 43s-61.334 66.334 -74.001 113.001l-1 5c0 6 3.33301 10 10 12l55 18c2 0.666992 4.33301 1 7 1c5.33301 0 9 -3.33301 11 -10c8.66699 -32.667 25 -57.667 49 -75s55.333 -26 94 -26
c39.333 0 70.833 9.16699 94.5 27.5s35.5 43.5 35.5 75.5c0 22 -5 40.5 -15 55.5s-25 28.333 -45 40s-48.667 24.834 -86 39.501c-68 26.667 -117.333 55.5 -148 86.5s-46 71.167 -46 120.5c0 27.333 5.83301 52.666 17.5 75.999s28.167 42.333 49.5 57
c-18.667 16 -32.167 34 -40.5 54zM166.002 309.001c0 -18.667 4.49902 -34.834 13.499 -48.501s24 -26.667 45 -39s50.833 -26.166 89.5 -41.499c32 -14 56.333 -26.667 73 -38c14 8.66699 24.667 20 32 34s11 29.667 11 47c0 21.333 -5 39.5 -15 54.5s-25 28.333 -45 40
s-48.667 25.167 -86 40.5c-25.333 10 -47.666 21 -66.999 33c-34 -18 -51 -45.333 -51 -82z" />
    <glyph glyph-name="dieresis" unicode="&#xa8;" horiz-adv-x="580" 
d="M236 728v-85c0 -10 -5.33301 -15 -16 -15h-47c-10.667 0 -16 5 -16 15v85c0 9.33301 5.33301 14 16 14h47c10.667 0 16 -4.66699 16 -14zM423 728v-85c0 -10 -5 -15 -15 -15h-48c-10.667 0 -16 5 -16 15v85c0 9.33301 5.33301 14 16 14h48c10 0 15 -4.66699 15 -14z" />
    <glyph glyph-name="copyright" unicode="&#xa9;" horiz-adv-x="886" 
d="M251 39c-58 33.333 -103.667 78.833 -137 136.5s-50 121.167 -50 190.5s16.667 132.833 50 190.5s79 103.167 137 136.5s122 50 192 50s134 -16.667 192 -50s103.667 -78.833 137 -136.5s50 -121.167 50 -190.5s-16.667 -132.833 -50 -190.5s-79 -103.167 -137 -136.5
s-122 -50 -192 -50s-134 16.667 -192 50zM606.5 86.5c49.667 28.333 88.834 67.166 117.501 116.499s43 103.666 43 162.999s-14.333 113.5 -43 162.5s-67.834 87.833 -117.501 116.5s-104.167 43 -163.5 43c-60 0 -114.667 -14.333 -164 -43s-88.333 -67.5 -117 -116.5
s-43 -103.167 -43 -162.5s14.333 -113.666 43 -162.999s67.667 -88.166 117 -116.499s104 -42.5 164 -42.5c59.333 0 113.833 14.167 163.5 42.5zM599 475l0.000976562 -1.99902c0 -4 -2.66699 -7 -8 -9l-42 -13h-4c-5.33301 0 -8.66602 2.33301 -9.99902 7
c-7.33301 22.667 -17.833 39.5 -31.5 50.5s-32.834 16.5 -57.501 16.5c-30.667 0 -54.334 -9.33301 -71.001 -28s-25 -45 -25 -79v-105c0 -34 8.33301 -60 25 -78s40.334 -27 71.001 -27c25.333 0 44.833 5.33301 58.5 16s24.167 27.667 31.5 51
c2 7.33301 6.66699 9.66602 14 6.99902l43 -13c6 -2 8.33301 -5.66699 7 -11c-10 -37.333 -28.167 -65.333 -54.5 -84s-59.833 -28 -100.5 -28c-51.333 0 -91.833 15 -121.5 45s-44.5 70 -44.5 120v110c0 50 14.667 90.167 44 120.5s69 45.5 119 45.5
c83.333 0 135.666 -37.333 156.999 -112z" />
    <glyph glyph-name="ordfeminine" unicode="&#xaa;" horiz-adv-x="386" 
d="M277.5 819c20.333 -17.333 30.501 -42.667 30.501 -76v-219c0 -4.66699 -2.33301 -7 -7 -7h-40c-5.33301 0 -8 2.33301 -8 7v42c-10 -17.333 -23 -30.833 -39 -40.5s-34 -14.5 -54 -14.5c-29.333 0 -52.833 8.83301 -70.5 26.5s-26.5 40.167 -26.5 67.5
c0 61.333 39 94.333 117 99c20 1.33301 34 2 42 2l29 -1v35c0 38 -20 57 -60 57c-16 0 -28.833 -3.16699 -38.5 -9.5s-16.5 -16.5 -20.5 -30.5c-1.33301 -5.33301 -4.66602 -7.33301 -9.99902 -6l-40 11c-4.66699 1.33301 -6.33398 4 -5.00098 8c14 50 53 75 117 75
c35.333 0 63.166 -8.66699 83.499 -26zM219.501 574.999c13.667 10 24.166 24 31.499 42v47c-7.33301 0.666992 -18.333 1 -33 1c-14 0 -25 -0.666992 -33 -2c-22 -2 -38.5 -7.33301 -49.5 -16s-16.5 -21 -16.5 -37c0 -15.333 4.83301 -27.5 14.5 -36.5
s23.167 -13.5 40.5 -13.5c16.667 0 31.834 5 45.501 15z" />
    <glyph glyph-name="guillemotleft" unicode="&#xab;" horiz-adv-x="539" 
d="M257 100c0 -3.33301 -1.66699 -5.99902 -5 -7.99902l-64 -33c-2.66699 -1.33301 -4.66699 -2 -6 -2c-4 0 -7 1.66699 -9 5l-120 213c-0.666992 3.33301 -0.666992 6.33301 0 9l120 213c4 5.33301 9 6.66602 15 3.99902l64 -33c2.66699 -1.33301 4.16699 -3.5 4.5 -6.5
s-0.166992 -5.83301 -1.5 -8.5l-97 -173l97 -173c1.33301 -2.66699 2 -5 2 -7zM471 100.001c0 -3.33301 -1.66699 -5.99902 -5 -7.99902l-64 -33c-2.66699 -1.33301 -4.66699 -2 -6 -2c-4 0 -7 1.66699 -9 5l-120 213c-0.666992 3.33301 -0.666992 6.33301 0 9l120 213
c4 5.33301 9 6.66602 15 3.99902l64 -33c2.66699 -1.33301 4.16699 -3.5 4.5 -6.5s-0.166992 -5.83301 -1.5 -8.5l-97 -173l97 -173c1.33301 -2.66699 2 -5 2 -7z" />
    <glyph glyph-name="logicalnot" unicode="&#xac;" 
d="M79 267c-8 0 -12 4.33301 -12 13v57c0 8.66699 4 13 12 13h444c8 0 12 -4.33301 12 -13v-206c0 -8 -4.33301 -12 -13 -12h-56c-8.66699 0 -13 4 -13 12v136h-374z" />
    <glyph glyph-name="uni00AD" unicode="&#xad;" horiz-adv-x="473" 
d="M391 339v-59c0 -8.66699 -4 -13 -12 -13h-285c-8 0 -12 4.33301 -12 13v59c0 9.33301 4 14 12 14h285c8 0 12 -4.66699 12 -14z" />
    <glyph glyph-name="registered" unicode="&#xae;" horiz-adv-x="597" 
d="M414.5 711.5c35.667 -21 64 -49.333 85 -85s31.5 -74.5 31.5 -116.5s-10.5 -80.667 -31.5 -116s-49.167 -63.333 -84.5 -84s-74.333 -31 -117 -31c-42 0 -80.833 10.333 -116.5 31s-63.834 48.667 -84.501 84s-31 74 -31 116s10.333 80.833 31 116.5s48.834 64 84.501 85
s74.5 31.5 116.5 31.5s80.833 -10.5 116.5 -31.5zM397 340c30 17.333 53.833 41 71.5 71s26.5 63 26.5 99s-8.83301 69.167 -26.5 99.5s-41.5 54.333 -71.5 72s-63 26.5 -99 26.5s-69 -8.83301 -99 -26.5s-53.833 -41.667 -71.5 -72s-26.5 -63.5 -26.5 -99.5
s8.83301 -69 26.5 -99s41.5 -53.667 71.5 -71s63 -26 99 -26s69 8.66699 99 26zM404 385c0.666992 -1.33301 1 -3.00098 1 -5.00098c0 -4.66699 -2 -7 -6 -7h-36c-3.33301 0 -6 2 -8 6l-55 100h-41v-98c0 -5.33301 -2.66699 -8 -8 -8h-31c-4 0 -6 2.66699 -6 8v266
c0 5.33301 2 8 6 8h87c30 0 52.5 -7.5 67.5 -22.5s22.5 -34.833 22.5 -59.5v-12c0 -17.333 -4.16699 -32.666 -12.5 -45.999s-20.833 -23 -37.5 -29zM259 518.999h44c17.333 0 29.833 3.83301 37.5 11.5s11.5 19.167 11.5 34.5v5c0 14.667 -3.83301 25.667 -11.5 33
s-20.167 11 -37.5 11h-44v-95z" />
    <glyph glyph-name="macron" unicode="&#xaf;" horiz-adv-x="580" 
d="M428 694v-43c0 -8.66699 -4 -13 -12 -13h-252c-8 0 -12 4.33301 -12 13v43c0 8.66699 4 13 12 13h252c8 0 12 -4.33301 12 -13z" />
    <glyph glyph-name="degree" unicode="&#xb0;" horiz-adv-x="406" 
d="M275.5 722.5c22.333 -13 39.998 -30.333 52.998 -52s19.5 -45.5 19.5 -71.5s-6.66699 -49.833 -20 -71.5s-31.166 -39 -53.499 -52s-46.166 -19.5 -71.499 -19.5c-26 0 -50.167 6.5 -72.5 19.5s-40 30.333 -53 52s-19.5 45.5 -19.5 71.5s6.5 49.833 19.5 71.5
s30.667 39 53 52s46.5 19.5 72.5 19.5s50.167 -6.5 72.5 -19.5zM142.998 659.5c-16.667 -17 -25 -37.167 -25 -60.5s8.33301 -43.5 25 -60.5s36.667 -25.5 60 -25.5c24 0 44.167 8.33301 60.5 25s24.5 37 24.5 61s-8.16699 44.333 -24.5 61s-36.5 25 -60.5 25
c-23.333 0 -43.333 -8.5 -60 -25.5z" />
    <glyph glyph-name="plusminus" unicode="&#xb1;" 
d="M48 387v57c0 8.66699 4 13 12 13h196v202c0 8 4.33301 12 13 12h63c8.66699 0 13 -4 13 -12v-202h195c8 0 12 -4.33301 12 -13v-57c0 -8.66699 -4 -13 -12 -13h-195v-203c0 -8 -4.33301 -12 -13 -12h-63c-8.66699 0 -13 4 -13 12v203h-196c-8 0 -12 4.33301 -12 13z
M553 62v-49c0 -8.66699 -4 -13 -12 -13h-481c-8 -0 -12 4.33301 -12 13v49c0 8.66699 4 13 12 13h481c8 0 12 -4.33301 12 -13z" />
    <glyph glyph-name="uni00B2" unicode="&#xb2;" horiz-adv-x="344" 
d="M299 488l-0.000976562 -38.998c0 -6.66699 -3.66699 -10 -11 -10h-232c-5.33301 0 -8.66602 2.66699 -9.99902 8l-9 42v2c0 2.66699 1 5 3 7l113 108c32.667 31.333 54.167 54.833 64.5 70.5s15.5 32.167 15.5 49.5c0 19.333 -5.83301 34.666 -17.5 45.999
s-27.167 17 -46.5 17c-18 0 -32.667 -4.33301 -44 -13s-20 -22 -26 -40c-0.666992 -3.33301 -2.33398 -5.83301 -5.00098 -7.5s-5.66699 -2.16699 -9 -1.5l-37 12c-7.33301 1.33301 -9.66602 6.66602 -6.99902 15.999c10 30 25.167 53 45.5 69s48.166 24 83.499 24
c39.333 0 70.333 -10.833 93 -32.5s34.334 -50.5 35.001 -86.5c0 -27.333 -7 -51.833 -21 -73.5s-38 -48.5 -72 -80.5l-86 -77h169c7.33301 0 11 -3.33301 11 -10z" />
    <glyph glyph-name="uni00B3" unicode="&#xb3;" horiz-adv-x="346" 
d="M280 618c14 -16 21 -36.333 21 -61v-7c0 -36 -12 -64.5 -36 -85.5s-56.667 -31.5 -98 -31.5c-35.333 0 -63.833 8.33301 -85.5 25s-36.834 40 -45.501 70v2c0 2 0.666992 4 2 6s3 3.33301 5 4l37 13h3c4.66699 0 8.33398 -2.33301 11.001 -7
c7.33301 -19.333 16.833 -33.5 28.5 -42.5s27.167 -13.5 46.5 -13.5c21.333 0 38 5.66699 50 17s18 26.333 18 45v6c0 40 -24.333 60 -73 60h-22c-3.33301 0 -6 1 -8 3s-3 4.33301 -3 7v36c0 2.66699 1 5 3 7s4.66699 3 8 3h22c20.667 0 36.834 5 48.501 15
s17.5 23.667 17.5 41v6c0 18 -5.66699 31.667 -17 41s-27.333 14 -48 14c-32 0 -54 -15.667 -66 -47c-4 -6 -9.33301 -7.66699 -16 -5l-33 17c-4.66699 3.33301 -6.66699 6.33301 -6 9c7.33301 24 21.333 43.833 42 59.5s48.667 23.5 84 23.5
c39.333 0 69.666 -9.66699 90.999 -29s32 -45 32 -77v-7c0 -20 -5.66699 -37.833 -17 -53.5s-26.333 -26.5 -45 -32.5c18.667 -4.66699 35 -15 49 -31z" />
    <glyph glyph-name="acute" unicode="&#xb4;" horiz-adv-x="580" 
d="M219 628c-2 -2 -3 -4.33301 -3 -7c0 -5.33301 3.33301 -8 10 -8h46c4 0 7 0.5 9 1.5s4.66699 3.5 8 7.5l99 122c1.33301 1.33301 2 3.33301 2 6c0 4.66699 -3 7 -9 7h-63c-6 0 -10.667 -3 -14 -9z" />
    <glyph glyph-name="uni00B5" unicode="&#xb5;" horiz-adv-x="589" 
d="M505 535v-522.999c0 -8 -4.33301 -12 -13 -12h-63c-8.66699 0 -13 4 -13 12v71c-18.667 -28 -42.5 -50.667 -71.5 -68s-60.5 -26 -94.5 -26c-32 0 -60 9.33301 -84 28v-207c0 -8 -4.33301 -12 -13 -12h-55c-8.66699 0 -13 4 -13 12v725c0 8 4.33301 12 13 12h64
c8.66699 0 13 -4 13 -12v-350c0 -36 8.5 -63.667 25.5 -83s42.167 -29 75.5 -29c29.333 0 56.5 9.66699 81.5 29s43.833 44.666 56.5 75.999v357c0 8 4.33301 12 13 12h64c9.33301 0 14 -4 14 -12z" />
    <glyph glyph-name="paragraph" unicode="&#xb6;" horiz-adv-x="565" 
d="M251 722v-405c0 -3.33301 -1 -6 -3 -8s-4.33301 -3 -7 -3c-37.333 2 -71.5 12.667 -102.5 32s-55.5 45 -73.5 77s-27 67 -27 105c0 37.333 9 72 27 104s42.5 57.667 73.5 77s65.167 30 102.5 32c6.66699 0 10 -3.66699 10 -11zM515 721v-60
c0 -6.66699 -3.66699 -10 -11 -10h-78v-843c0 -6.66699 -3.33301 -10 -10 -10h-63c-3.33301 0 -6 1 -8 3s-3 4.33301 -3 7v914c0 2.66699 1 5 3 7s4.66699 3 8 3h151c7.33301 0 11 -3.66699 11 -11z" />
    <glyph glyph-name="periodcentered" unicode="&#xb7;" horiz-adv-x="255" 
d="M172 416v-149c0 -10 -5 -15 -15 -15h-61c-8.66699 0 -13 5 -13 15v149c0 10 4.33301 15 13 15h61c10 0 15 -5 15 -15z" />
    <glyph glyph-name="cedilla" unicode="&#xb8;" horiz-adv-x="580" 
d="M355.5 -70.5c15 -14.333 22.501 -32.501 22.501 -54.501c0 -28 -10.667 -50.833 -32 -68.5s-49.333 -26.5 -84 -26.5c-22.667 0 -43 4 -61 12c-6 3.33301 -8 8 -6 14l9 36c2.66699 6.66699 8 8.66699 16 6c12.667 -4.66699 26.667 -7 42 -7
c14.667 0 26.167 3.33301 34.5 10s12.5 15.334 12.5 26.001c0 11.333 -5.33301 20.333 -16 27s-25.667 10.667 -45 12c-2.66699 0 -4.83398 0.833008 -6.50098 2.5s-2.16699 4.16699 -1.5 7.5l23 99l47 -6l-15 -61c25.333 -4.66699 45.5 -14.167 60.5 -28.5z" />
    <glyph glyph-name="uni00B9" unicode="&#xb9;" horiz-adv-x="242" 
d="M181 832v-383c0 -6.66699 -3.66699 -10 -11 -10h-42c-6.66699 0 -10 3.33301 -10 10v319l-68 -27l-4 -1c-4 0 -7 2.66699 -9 8l-14 35c-0.666992 0.666992 -1 2 -1 4c0 4.66699 2 8 6 10l106 45h3h33c7.33301 0 11 -3.33301 11 -10z" />
    <glyph glyph-name="ordmasculine" unicode="&#xba;" horiz-adv-x="392" 
d="M293 812c22 -22.667 33 -53.332 33 -91.999v-82c0 -38.667 -11 -69.334 -33 -92.001s-54.333 -34 -97 -34s-75 11.167 -97 33.5s-33 52.833 -33 91.5v82c0 38.667 11 69.5 33 92.5s54.333 34.5 97 34.5s75 -11.333 97 -34zM142.5 773.502
c-12.333 -13.667 -18.5 -32.834 -18.5 -57.501v-76c0 -24.667 6.16699 -43.5 18.5 -56.5s30.166 -19.5 53.499 -19.5s41.166 6.5 53.499 19.5s18.5 31.833 18.5 56.5v76c0 24.667 -6.16699 43.834 -18.5 57.501s-30.166 20.5 -53.499 20.5s-41.166 -6.83301 -53.499 -20.5z
" />
    <glyph glyph-name="guillemotright" unicode="&#xbb;" horiz-adv-x="539" 
d="M271 284c1.33301 -2.66699 1.33398 -5.66699 0.000976562 -9l-120 -213c-1.33301 -2.66699 -3.5 -4.16699 -6.5 -4.5s-5.83301 0.166992 -8.5 1.5l-64 33c-5.33301 2.66699 -6.33301 7.66699 -3 15l97 173l-97 173c-1.33301 2.66699 -2 5 -2 7c0 4 1.66699 6.66699 5 8
l64 33c1.33301 0.666992 3 1 5 1c3.33301 0 6.66602 -1.66699 9.99902 -5zM486.001 275l-119.999 -213c-1.33301 -2.66699 -3.5 -4.16699 -6.5 -4.5s-5.83301 0.166992 -8.5 1.5l-64 33c-5.33301 2.66699 -6.33301 7.66699 -3 15l97 173l-97 173c-1.33301 2.66699 -2 5 -2 7
c0 4 1.66699 6.66699 5 8l64 33c1.33301 0.666992 3 1 5 1c3.33301 0 6.66602 -1.66699 9.99902 -5l120 -213c1.33301 -2.66699 1.33301 -5.66699 0 -9z" />
    <glyph glyph-name="onequarter" unicode="&#xbc;" horiz-adv-x="758" 
d="M202 722v-383c0 -6.66699 -3.66699 -10 -11 -10h-42c-6.66699 0 -10 3.33301 -10 10v319l-68 -27l-4 -1c-4 0 -7 2.66699 -9 8l-14 35c-0.666992 0.666992 -1 2 -1 4c0 4.66699 2 8 6 10l106 45h3h33c7.33301 0 11 -3.33301 11 -10zM177 2.5
c-2 -1.66699 -4.99902 -2.49902 -8.99902 -2.49902h-35c-3.33301 0 -6 0.833008 -8 2.5s-3 3.83398 -3 6.50098l2 8l375 703c2 3.33301 4.16699 6.16602 6.5 8.49902s5.16602 3.5 8.49902 3.5h36c4.66699 0 8 -1.66699 10 -5s1.66699 -7.33301 -1 -12l-376 -703
c-2 -4.66699 -4 -7.83398 -6 -9.50098zM713.001 127.001c2 -2 2.99805 -4.33203 2.99805 -6.99902v-38c0 -2.66699 -1 -5 -3 -7s-4.66699 -3 -8 -3h-40v-61c0 -3.33301 -1 -6 -3 -8s-4.66699 -3 -8 -3h-40c-2.66699 0 -5 1 -7 3s-3 4.66699 -3 8v61h-162
c-5.33301 0 -8.66602 2.33301 -9.99902 7l-12 41c0 3.33301 0.333008 5.66602 1 6.99902l138 274c2.66699 2.66699 5.33398 4 8.00098 4h41c8 0 12 -3.66699 12 -11c0 -1.33301 -0.666992 -4 -2 -8l-130 -256h116v103c0 6.66699 3.33301 10 10 10h40
c7.33301 0 11 -3.33301 11 -10v-103h40c3.33301 0 6 -1 8 -3z" />
    <glyph glyph-name="onehalf" unicode="&#xbd;" horiz-adv-x="779" 
d="M202 722v-383c0 -6.66699 -3.66699 -10 -11 -10h-42c-6.66699 0 -10 3.33301 -10 10v319l-68 -27l-4 -1c-4 0 -7 2.66699 -9 8l-14 35c-0.666992 0.666992 -1 2 -1 4c0 4.66699 2 8 6 10l106 45h3h33c7.33301 0 11 -3.33301 11 -10zM177 2.5
c-2 -1.66699 -4.99902 -2.49902 -8.99902 -2.49902h-35c-3.33301 0 -6 0.833008 -8 2.5s-3 3.83398 -3 6.50098l2 8l375 703c2 3.33301 4.16699 6.16602 6.5 8.49902s5.16602 3.5 8.49902 3.5h36c4.66699 0 8 -1.66699 10 -5s1.66699 -7.33301 -1 -12l-376 -703
c-2 -4.66699 -4 -7.83398 -6 -9.50098zM721.001 49.001l-0.000976562 -38.998c0 -6.66699 -3.66699 -10 -11 -10h-232c-5.33301 0 -8.66602 2.66699 -9.99902 8l-9 42v2c0 2.66699 1 5 3 7l113 108c32.667 31.333 54.167 54.833 64.5 70.5s15.5 32.167 15.5 49.5
c0 19.333 -5.83301 34.666 -17.5 45.999s-27.167 17 -46.5 17c-18 0 -32.667 -4.33301 -44 -13s-20 -22 -26 -40c-0.666992 -3.33301 -2.33398 -5.83301 -5.00098 -7.5s-5.66699 -2.16699 -9 -1.5l-37 12c-7.33301 1.33301 -9.66602 6.66602 -6.99902 15.999
c10 30 25.167 53 45.5 69s48.166 24 83.499 24c39.333 0 70.333 -10.833 93 -32.5s34.334 -50.5 35.001 -86.5c0 -27.333 -7 -51.833 -21 -73.5s-38 -48.5 -72 -80.5l-85 -77h168c7.33301 0 11 -3.33301 11 -10z" />
    <glyph glyph-name="threequarters" unicode="&#xbe;" horiz-adv-x="859" 
d="M299 508c14 -16 21 -36.333 21 -61v-7c0 -36 -12 -64.5 -36 -85.5s-56.667 -31.5 -98 -31.5c-35.333 0 -63.833 8.33301 -85.5 25s-36.834 40 -45.501 70v2c0 2 0.666992 4 2 6s3 3.33301 5 4l37 13h3c4.66699 0 8.33398 -2.33301 11.001 -7
c7.33301 -19.333 16.833 -33.5 28.5 -42.5s27.167 -13.5 46.5 -13.5c21.333 0 38 5.66699 50 17s18 26.333 18 45v6c0 40 -24.333 60 -73 60h-22c-3.33301 0 -6 1 -8 3s-3 4.33301 -3 7v36c0 2.66699 1 5 3 7s4.66699 3 8 3h22c20.667 0 36.834 5 48.501 15
s17.5 23.667 17.5 41v6c0 18 -5.66699 31.667 -17 41s-27.333 14 -48 14c-32 0 -54 -15.667 -66 -47c-4 -6 -9.33301 -7.66699 -16 -5l-33 17c-4.66699 3.33301 -6.66699 6.33301 -6 9c7.33301 24 21.333 43.833 42 59.5s48.667 23.5 84 23.5
c39.333 0 69.666 -9.66699 90.999 -29s32 -45 32 -77v-7c0 -20 -5.66699 -37.833 -17 -53.5s-26.333 -26.5 -45 -32.5c18.667 -4.66699 35 -15 49 -31zM278 2.5c-2 -1.66699 -4.99902 -2.49902 -8.99902 -2.49902h-35c-3.33301 0 -6 0.833008 -8 2.5s-3 3.83398 -3 6.50098
l2 8l375 703c2 3.33301 4.16699 6.16602 6.5 8.49902s5.16602 3.5 8.49902 3.5h36c4.66699 0 8 -1.66699 10 -5s1.66699 -7.33301 -1 -12l-376 -703c-2 -4.66699 -4 -7.83398 -6 -9.50098zM814.001 127.001c2 -2 2.99805 -4.33203 2.99805 -6.99902v-38
c0 -2.66699 -1 -5 -3 -7s-4.66699 -3 -8 -3h-40v-61c0 -3.33301 -1 -6 -3 -8s-4.66699 -3 -8 -3h-40c-2.66699 0 -5 1 -7 3s-3 4.66699 -3 8v61h-162c-5.33301 0 -8.66602 2.33301 -9.99902 7l-12 41c0 3.33301 0.333008 5.66602 1 6.99902l138 274
c2.66699 2.66699 5.33398 4 8.00098 4h41c8 0 12 -3.66699 12 -11c0 -1.33301 -0.666992 -4 -2 -8l-130 -256h116v103c0 6.66699 3.33301 10 10 10h40c7.33301 0 11 -3.33301 11 -10v-103h40c3.33301 0 6 -1 8 -3z" />
    <glyph glyph-name="questiondown" unicode="&#xbf;" horiz-adv-x="461" 
d="M279 532v-149c0 -10.667 -4.66699 -16 -14 -16h-61c-10 0 -15 5.33301 -15 16v148c0 10.667 5 16 15 16h61c9.33301 0 14 -5 14 -15zM271.5 274.5c2.33301 -2.33301 3.50195 -5.16895 3.50195 -8.50195l-2 -8c-14.667 -32.667 -37 -73 -67 -121
c-24 -38.667 -41.5 -69.834 -52.5 -93.501s-16.5 -46.834 -16.5 -69.501c0 -28.667 8.33301 -50.667 25 -66s40.667 -23 72 -23c30 0 54 6.83301 72 20.5s31 34.834 39 63.501c1.33301 6 3.66602 9.83301 6.99902 11.5s7.66602 1.83398 12.999 0.500977l46 -15
c4.66699 -1.33301 7.66699 -3.5 9 -6.5s1.33301 -7.16699 0 -12.5c-11.333 -46 -34 -81.333 -68 -106s-76.667 -37 -128 -37c-54 0 -97.167 14.333 -129.5 43s-48.5 66.667 -48.5 114c0 28.667 7.33301 58.334 22 89.001s36.667 69.334 66 116.001c4 6 12.333 19.5 25 40.5
s23.334 40.167 32.001 57.5c2.66699 5.33301 5.5 9 8.5 11s7.5 3 13.5 3h50c3.33301 0 6.16602 -1.16699 8.49902 -3.5z" />
    <glyph glyph-name="Agrave" unicode="&#xc0;" horiz-adv-x="641" 
d="M610 9c0 -2.66699 -0.832031 -4.83203 -2.49902 -6.49902s-3.83398 -2.5 -6.50098 -2.5h-73c-7.33301 0 -12 3.66699 -14 11l-62 194h-265l-62 -194c-2 -7.33301 -7.33301 -11 -16 -11h-67c-4 0 -6.83301 1.33301 -8.5 4s-1.83398 6 -0.500977 10l225 706
c2 8 7.33301 12 16 12h91c4.66699 0 8.33398 -0.833008 11.001 -2.5s4.66699 -4.83398 6 -9.50098l227 -706c0.666992 -1.33301 1 -3 1 -5zM425.001 291.002l-41.999 133c-30.667 100 -51.334 170 -62.001 210h-2c-20 -73.333 -41 -144 -63 -212l-42 -131h211z
M202.002 942.002c-4 0 -6.66797 -1.33301 -8.00098 -4s-0.666016 -5.66699 2.00098 -9l98 -122c3.33301 -3.33301 6 -5.66602 8 -6.99902s5 -2 9 -2h47c4 0 6.83301 1.5 8.5 4.5s1.16699 6.5 -1.5 10.5l-85 120c-2 3.33301 -4 5.66602 -6 6.99902s-5 2 -9 2h-63z" />
    <glyph glyph-name="Aacute" unicode="&#xc1;" horiz-adv-x="641" 
d="M610 9c0 -2.66699 -0.832031 -4.83203 -2.49902 -6.49902s-3.83398 -2.5 -6.50098 -2.5h-73c-7.33301 0 -12 3.66699 -14 11l-62 194h-265l-62 -194c-2 -7.33301 -7.33301 -11 -16 -11h-67c-4 0 -6.83301 1.33301 -8.5 4s-1.83398 6 -0.500977 10l225 706
c2 8 7.33301 12 16 12h91c4.66699 0 8.33398 -0.833008 11.001 -2.5s4.66699 -4.83398 6 -9.50098l227 -706c0.666992 -1.33301 1 -3 1 -5zM425.001 291.002l-41.999 133c-30.667 100 -51.334 170 -62.001 210h-2c-20 -73.333 -41 -144 -63 -212l-42 -131h211z
M274.002 813.002c-2 -2 -3 -4.33301 -3 -7c0 -5.33301 3.33301 -8 10 -8h46c4 0 7 0.5 9 1.5s4.66699 3.5 8 7.5l99 122c1.33301 1.33301 2 3.33301 2 6c0 4.66699 -3 7 -9 7h-63c-6 0 -11 -3 -15 -9z" />
    <glyph glyph-name="Acircumflex" unicode="&#xc2;" horiz-adv-x="641" 
d="M610 9c0 -2.66699 -0.832031 -4.83203 -2.49902 -6.49902s-3.83398 -2.5 -6.50098 -2.5h-73c-7.33301 0 -12 3.66699 -14 11l-62 194h-265l-62 -194c-2 -7.33301 -7.33301 -11 -16 -11h-67c-4 0 -6.83301 1.33301 -8.5 4s-1.83398 6 -0.500977 10l225 706
c2 8 7.33301 12 16 12h91c4.66699 0 8.33398 -0.833008 11.001 -2.5s4.66699 -4.83398 6 -9.50098l227 -706c0.666992 -1.33301 1 -3 1 -5zM425.001 291.002l-41.999 133c-30.667 100 -51.334 170 -62.001 210h-2c-20 -73.333 -41 -144 -63 -212l-42 -131h211z
M458.002 807.002c0 -6 -3.33301 -9.00098 -10 -9.00098h-51c-5.33301 0 -9.66602 2.66699 -12.999 8l-64 87l-63 -87c-4.66699 -5.33301 -9.33398 -8 -14.001 -8h-51c-2.66699 0 -5 0.833008 -7 2.5s-3 3.83398 -3 6.50098c0 1.33301 1.66699 4.33301 5 9l90 118
c3.33301 5.33301 8 8 14 8h58c6 0 10.667 -2.66699 14 -8l91 -118c2.66699 -3.33301 4 -6.33301 4 -9z" />
    <glyph glyph-name="Atilde" unicode="&#xc3;" horiz-adv-x="641" 
d="M610 9c0 -2.66699 -0.832031 -4.83203 -2.49902 -6.49902s-3.83398 -2.5 -6.50098 -2.5h-73c-7.33301 0 -12 3.66699 -14 11l-62 194h-265l-62 -194c-2 -7.33301 -7.33301 -11 -16 -11h-67c-4 0 -6.83301 1.33301 -8.5 4s-1.83398 6 -0.500977 10l225 706
c2 8 7.33301 12 16 12h91c4.66699 0 8.33398 -0.833008 11.001 -2.5s4.66699 -4.83398 6 -9.50098l227 -706c0.666992 -1.33301 1 -3 1 -5zM425.001 291.002l-41.999 133c-30.667 100 -51.334 170 -62.001 210h-2c-20 -73.333 -41 -144 -63 -212l-42 -131h211z
M299.502 908.502c10.333 -4.33301 22.168 -10.833 35.501 -19.5c10.667 -6.66699 19.167 -11.5 25.5 -14.5s13.166 -4.5 20.499 -4.5c17.333 0 32.666 10.667 45.999 32c4 6 8.66699 7 14 3l30 -21c4.66699 -4 5.33398 -8.66699 2.00098 -14
c-7.33301 -17.333 -19 -31.833 -35 -43.5s-34.333 -17.834 -55 -18.501c-13.333 0 -25.166 2.16699 -35.499 6.5s-22.166 10.833 -35.499 19.5c-10 6.66699 -18.5 11.5 -25.5 14.5s-14.167 4.5 -21.5 4.5c-16.667 0 -31.667 -10.667 -45 -32
c-4.66699 -5.33301 -9.66699 -6.33301 -15 -3l-29 22c-4.66699 3.33301 -5.33398 8.33301 -2.00098 15c8 16.667 20 30.834 36 42.501s34 17.5 54 17.5c13.333 0 25.166 -2.16699 35.499 -6.5z" />
    <glyph glyph-name="Adieresis" unicode="&#xc4;" horiz-adv-x="641" 
d="M610 9c0 -2.66699 -0.832031 -4.83203 -2.49902 -6.49902s-3.83398 -2.5 -6.50098 -2.5h-73c-7.33301 0 -12 3.66699 -14 11l-62 194h-265l-62 -194c-2 -7.33301 -7.33301 -11 -16 -11h-67c-4 0 -6.83301 1.33301 -8.5 4s-1.83398 6 -0.500977 10l225 706
c2 8 7.33301 12 16 12h91c4.66699 0 8.33398 -0.833008 11.001 -2.5s4.66699 -4.83398 6 -9.50098l227 -706c0.666992 -1.33301 1 -3 1 -5zM425.001 291.002l-41.999 133c-30.667 100 -51.334 170 -62.001 210h-2c-20 -73.333 -41 -144 -63 -212l-42 -131h211z
M266.002 913.002v-85c0 -10 -5 -15 -15 -15h-48c-10.667 0 -16 5 -16 15v85c0 9.33301 5.33301 14 16 14h48c10 0 15 -4.66699 15 -14zM453.002 913.002v-85c0 -10 -5 -15 -15 -15h-48c-10.667 0 -16 5 -16 15v85c0 9.33301 5.33301 14 16 14h48c10 0 15 -4.66699 15 -14z
" />
    <glyph glyph-name="Aring" unicode="&#xc5;" horiz-adv-x="641" 
d="M610 9c0 -2.66699 -0.832031 -4.83203 -2.49902 -6.49902s-3.83398 -2.5 -6.50098 -2.5h-73c-7.33301 0 -12 3.66699 -14 11l-62 194h-265l-62 -194c-2 -7.33301 -7.33301 -11 -16 -11h-67c-4 0 -6.83301 1.33301 -8.5 4s-1.83398 6 -0.500977 10l225 706
c2 8 7.33301 12 16 12h91c4.66699 0 8.33398 -0.833008 11.001 -2.5s4.66699 -4.83398 6 -9.50098l227 -706c0.666992 -1.33301 1 -3 1 -5zM425.001 291.002l-41.999 133c-30.667 100 -51.334 170 -62.001 210h-2c-20 -73.333 -41 -144 -63 -212l-42 -131h211z
M242.002 802.502c-22 21.667 -33 47.5 -33 77.5s11 55.833 33 77.5s48 32.5 78 32.5s56 -10.833 78 -32.5s33 -47.5 33 -77.5s-11 -55.833 -33 -77.5s-48 -32.5 -78 -32.5s-56 10.833 -78 32.5zM363.002 837.002c12 12 18 26.333 18 43s-6 31 -18 43s-26.333 18 -43 18
s-31 -6 -43 -18s-18 -26.333 -18 -43s6 -31 18 -43s26.333 -18 43 -18s31 6 43 18z" />
    <glyph glyph-name="AE" unicode="&#xc6;" horiz-adv-x="907" 
d="M837 73l-0.000976562 -60.001c0 -8.66699 -4 -13 -12 -13h-382c-8.66699 0 -13 4 -13 12v193h-224l-97 -194c-3.33301 -7.33301 -9 -11 -17 -11h-71c-4.66699 0 -8 1.66699 -10 5s-2 7.33301 0 12l355 703c2 4.66699 4.33301 7.83398 7 9.50098s6.33398 2.5 11.001 2.5
h440c8 0 12 -4.33301 12 -13v-60c0 -8.66699 -4 -13 -12 -13h-300v-232h272c8 0 12 -4.33301 12 -13v-57c0 -8.66699 -4 -13 -12 -13h-272v-245h301c8 0 12 -4.33301 12 -13zM429.999 290.999v355h-3l-178 -355h181z" />
    <glyph glyph-name="Ccedilla" unicode="&#xc7;" horiz-adv-x="614" 
d="M566 177.5c1.33301 -3 1.33496 -7.1709 0.00195312 -12.5039c-14.667 -52 -40.334 -93.5 -77.001 -124.5s-84 -47.833 -142 -50.5l-7 -31c25.333 -5.33301 45.333 -15.166 60 -29.499s22 -32.5 22 -54.5c0 -28 -10.5 -50.833 -31.5 -68.5s-48.833 -26.5 -83.5 -26.5
c-23.333 0 -44 4 -62 12c-5.33301 2.66699 -7.33301 7.33398 -6 14.001l9 36c2.66699 6.66699 8 8.66699 16 6c14 -4.66699 28.333 -7 43 -7c14 0 25.167 3.33301 33.5 10s12.5 15.334 12.5 26.001c0 11.333 -5.33301 20.333 -16 27s-25.667 10.667 -45 12
c-2.66699 0 -4.83398 0.833008 -6.50098 2.5s-2.16699 4.16699 -1.5 7.5l15 64c-68 5.33301 -121.833 30.333 -161.5 75s-59.5 104.667 -59.5 180v242c0 80 22.5 142.667 67.5 188s105.5 68 181.5 68c120.667 0 198.334 -56.333 233.001 -169l2 -8
c0 -6 -3.33301 -10 -10 -12l-59 -18c-4 -1.33301 -6.66699 -2 -8 -2c-4 0 -7.66699 3.33301 -11 10c-12 36.667 -29.333 64.334 -52 83.001s-54 28 -94 28c-50 0 -88.5 -14.5 -115.5 -43.5s-40.5 -72.833 -40.5 -131.5v-228c0 -58.667 13.667 -102.5 41 -131.5
s65.666 -43.5 114.999 -43.5c78.667 0 129 39.333 151 118c2 7.33301 6 11 12 11l8 -2l58 -19c4.66699 -2 7.66699 -4.5 9 -7.5z" />
    <glyph glyph-name="Egrave" unicode="&#xc8;" horiz-adv-x="575" 
d="M504 719v-60c0 -8.66699 -4 -13 -12 -13h-301v-232h272c8 0 12 -4.33301 12 -13v-57c0 -8.66699 -4 -13 -12 -13h-272v-245h301c8 0 12 -4.33301 12 -13v-60c0 -8.66699 -4 -13 -12 -13h-381c-9.33301 0 -14 4 -14 12v708c0 8 4.66699 12 14 12h381
c8 0 12 -4.33301 12 -13zM180 942c-4 0 -6.66797 -1.33301 -8.00098 -4s-0.666016 -5.66699 2.00098 -9l98 -122c3.33301 -3.33301 6 -5.66602 8 -6.99902s5 -2 9 -2h47c4 0 6.83301 1.5 8.5 4.5s1.16699 6.5 -1.5 10.5l-85 120c-2 3.33301 -4 5.66602 -6 6.99902s-5 2 -9 2
h-63z" />
    <glyph glyph-name="Eacute" unicode="&#xc9;" horiz-adv-x="575" 
d="M504 719v-60c0 -8.66699 -4 -13 -12 -13h-301v-232h272c8 0 12 -4.33301 12 -13v-57c0 -8.66699 -4 -13 -12 -13h-272v-245h301c8 0 12 -4.33301 12 -13v-60c0 -8.66699 -4 -13 -12 -13h-381c-9.33301 0 -14 4 -14 12v708c0 8 4.66699 12 14 12h381
c8 0 12 -4.33301 12 -13zM252 813c-2 -2 -3 -4.33301 -3 -7c0 -5.33301 3.33301 -8 10 -8h46c4 0 7 0.5 9 1.5s4.66699 3.5 8 7.5l99 122c1.33301 1.33301 2 3.33301 2 6c0 4.66699 -3 7 -9 7h-63c-6 0 -11 -3 -15 -9z" />
    <glyph glyph-name="Ecircumflex" unicode="&#xca;" horiz-adv-x="575" 
d="M504 719v-60c0 -8.66699 -4 -13 -12 -13h-301v-232h272c8 0 12 -4.33301 12 -13v-57c0 -8.66699 -4 -13 -12 -13h-272v-245h301c8 0 12 -4.33301 12 -13v-60c0 -8.66699 -4 -13 -12 -13h-381c-9.33301 0 -14 4 -14 12v708c0 8 4.66699 12 14 12h381
c8 0 12 -4.33301 12 -13zM436 807c0 -6 -3.33301 -9.00098 -10 -9.00098h-51c-5.33301 0 -9.66602 2.66699 -12.999 8l-64 87l-63 -87c-4.66699 -5.33301 -9.33398 -8 -14.001 -8h-51c-2.66699 0 -5 0.833008 -7 2.5s-3 3.83398 -3 6.50098c0 1.33301 1.66699 4.33301 5 9
l90 118c3.33301 5.33301 8 8 14 8h58c6 0 10.667 -2.66699 14 -8l91 -118c2.66699 -3.33301 4 -6.33301 4 -9z" />
    <glyph glyph-name="Edieresis" unicode="&#xcb;" horiz-adv-x="575" 
d="M504 719v-60c0 -8.66699 -4 -13 -12 -13h-301v-232h272c8 0 12 -4.33301 12 -13v-57c0 -8.66699 -4 -13 -12 -13h-272v-245h301c8 0 12 -4.33301 12 -13v-60c0 -8.66699 -4 -13 -12 -13h-381c-9.33301 0 -14 4 -14 12v708c0 8 4.66699 12 14 12h381
c8 0 12 -4.33301 12 -13zM244 913v-85c0 -10 -5 -15 -15 -15h-48c-10.667 0 -16 5 -16 15v85c0 9.33301 5.33301 14 16 14h48c10 0 15 -4.66699 15 -14zM431 913v-85c0 -10 -5 -15 -15 -15h-48c-10.667 0 -16 5 -16 15v85c0 9.33301 5.33301 14 16 14h48
c10 0 15 -4.66699 15 -14z" />
    <glyph glyph-name="Igrave" unicode="&#xcc;" horiz-adv-x="289" 
d="M191 720v-708c0 -8 -4.33301 -12 -13 -12h-67c-9.33301 0 -14 4 -14 12v708c0 8 4.66699 12 14 12h67c8.66699 0 13 -4 13 -12zM26 942c-4 0 -6.66797 -1.33301 -8.00098 -4s-0.666016 -5.66699 2.00098 -9l98 -122c3.33301 -3.33301 6 -5.66602 8 -6.99902s5 -2 9 -2h47
c4 0 6.83301 1.5 8.5 4.5s1.16699 6.5 -1.5 10.5l-85 120c-2 3.33301 -4 5.66602 -6 6.99902s-5 2 -9 2h-63z" />
    <glyph glyph-name="Iacute" unicode="&#xcd;" horiz-adv-x="289" 
d="M191 720v-708c0 -8 -4.33301 -12 -13 -12h-67c-9.33301 0 -14 4 -14 12v708c0 8 4.66699 12 14 12h67c8.66699 0 13 -4 13 -12zM99 813c-2 -2 -3 -4.33301 -3 -7c0 -5.33301 3.33301 -8 10 -8h46c4 0 7 0.5 9 1.5s4.66699 3.5 8 7.5l99 122
c1.33301 1.33301 2 3.33301 2 6c0 4.66699 -3 7 -9 7h-63c-6 0 -11 -3 -15 -9z" />
    <glyph glyph-name="Icircumflex" unicode="&#xce;" horiz-adv-x="289" 
d="M191 720v-708c0 -8 -4.33301 -12 -13 -12h-67c-9.33301 0 -14 4 -14 12v708c0 8 4.66699 12 14 12h67c8.66699 0 13 -4 13 -12zM283 807c0 -6 -3.33301 -9.00098 -10 -9.00098h-51c-5.33301 0 -9.66602 2.66699 -12.999 8l-64 87l-63 -87
c-4.66699 -5.33301 -9.33398 -8 -14.001 -8h-51c-2.66699 0 -5 0.833008 -7 2.5s-3 3.83398 -3 6.50098c0 1.33301 1.66699 4.33301 5 9l90 118c3.33301 5.33301 8 8 14 8h58c6 0 10.667 -2.66699 14 -8l91 -118c2.66699 -3.33301 4 -6.33301 4 -9z" />
    <glyph glyph-name="Idieresis" unicode="&#xcf;" horiz-adv-x="289" 
d="M191 720v-708c0 -8 -4.33301 -12 -13 -12h-67c-9.33301 0 -14 4 -14 12v708c0 8 4.66699 12 14 12h67c8.66699 0 13 -4 13 -12zM91 913v-85c0 -10 -5 -15 -15 -15h-48c-10.667 0 -16 5 -16 15v85c0 9.33301 5.33301 14 16 14h48c10 0 15 -4.66699 15 -14zM278 913v-85
c0 -10 -5 -15 -15 -15h-48c-10.667 0 -16 5 -16 15v85c0 9.33301 5.33301 14 16 14h48c10 0 15 -4.66699 15 -14z" />
    <glyph glyph-name="Eth" unicode="&#xd0;" horiz-adv-x="701" 
d="M553.5 664.5c47.667 -45 71.5 -107.5 71.5 -187.5v-221c0 -80 -23.833 -142.667 -71.5 -188s-114.834 -68 -201.501 -68h-215c-8.66699 0 -13 4 -13 12v313h-84c-8 0 -12 4.33301 -12 13v57c0 8.66699 4 13 12 13h84v312c0 8 4.33301 12 13 12h215
c86.667 0 153.834 -22.5 201.501 -67.5zM531 470c0 116 -61 174 -183 174h-130v-236h124c8 0 12 -4.33301 12 -13v-57c0 -8.66699 -4 -13 -12 -13h-124v-237h130c122 0 183 58 183 174v208z" />
    <glyph glyph-name="Ntilde" unicode="&#xd1;" horiz-adv-x="715" 
d="M618 720v-705.001c0 -10 -5.33301 -15 -16 -15h-93c-8 0 -14.667 4.66699 -20 14l-211 414c-16.667 32.667 -33.167 67.834 -49.5 105.501l-30.5 69.5l-13 29h-2c3.33301 -70 5 -133.333 5 -190v-429c0 -8.66699 -4 -13 -12 -13h-65c-9.33301 -0 -14 4.33301 -14 13v704
c0 10 5.33301 15 16 15h101c9.33301 0 16 -5 20 -15l207 -413c20 -40 50.333 -106.667 91 -200h2c-4.66699 58.667 -7 122.667 -7 192v424c0 8 4.33301 12 13 12h65c8.66699 0 13 -4 13 -12zM342.5 908.499c10.333 -4.33301 22.168 -10.833 35.501 -19.5
c10.667 -6.66699 19.167 -11.5 25.5 -14.5s13.166 -4.5 20.499 -4.5c17.333 0 32.666 10.667 45.999 32c4 6 8.66699 7 14 3l30 -21c4.66699 -4 5.33398 -8.66699 2.00098 -14c-7.33301 -17.333 -19 -31.833 -35 -43.5s-34.333 -17.834 -55 -18.501
c-13.333 0 -25.166 2.16699 -35.499 6.5s-22.166 10.833 -35.499 19.5c-10 6.66699 -18.5 11.5 -25.5 14.5s-14.167 4.5 -21.5 4.5c-16.667 0 -31.667 -10.667 -45 -32c-4.66699 -5.33301 -9.66699 -6.33301 -15 -3l-29 22c-4.66699 3.33301 -5.33398 8.33301 -2.00098 15
c8 16.667 20 30.834 36 42.501s34 17.5 54 17.5c13.333 0 25.166 -2.16699 35.499 -6.5z" />
    <glyph glyph-name="Ograve" unicode="&#xd2;" horiz-adv-x="683" 
d="M536 674.5c46.667 -45.667 70 -108.167 70 -187.5v-240c0 -80 -23.333 -143 -70 -189s-111.667 -69 -195 -69s-148.166 22.5 -194.499 67.5s-69.5 107.833 -69.5 188.5v240c0 82 23.167 145.5 69.5 190.5s111.166 67.5 194.499 67.5s148.333 -22.833 195 -68.5zM215 612
c-29.333 -28.667 -44 -71.334 -44 -128.001v-236c0 -56.667 14.667 -99.334 44 -128.001s71.333 -43 126 -43c55.333 0 97.666 14.333 126.999 43s44 71.334 44 128.001v236c0 56.667 -14.667 99.334 -44 128.001s-71.666 43 -126.999 43
c-54.667 0 -96.667 -14.333 -126 -43zM223 942c-4 0 -6.66797 -1.33301 -8.00098 -4s-0.666016 -5.66699 2.00098 -9l98 -122c3.33301 -3.33301 6 -5.66602 8 -6.99902s5 -2 9 -2h47c4 0 6.83301 1.5 8.5 4.5s1.16699 6.5 -1.5 10.5l-85 120
c-2 3.33301 -4 5.66602 -6 6.99902s-5 2 -9 2h-63z" />
    <glyph glyph-name="Oacute" unicode="&#xd3;" horiz-adv-x="683" 
d="M536 674.5c46.667 -45.667 70 -108.167 70 -187.5v-240c0 -80 -23.333 -143 -70 -189s-111.667 -69 -195 -69s-148.166 22.5 -194.499 67.5s-69.5 107.833 -69.5 188.5v240c0 82 23.167 145.5 69.5 190.5s111.166 67.5 194.499 67.5s148.333 -22.833 195 -68.5zM215 612
c-29.333 -28.667 -44 -71.334 -44 -128.001v-236c0 -56.667 14.667 -99.334 44 -128.001s71.333 -43 126 -43c55.333 0 97.666 14.333 126.999 43s44 71.334 44 128.001v236c0 56.667 -14.667 99.334 -44 128.001s-71.666 43 -126.999 43
c-54.667 0 -96.667 -14.333 -126 -43zM295 813c-2 -2 -3 -4.33301 -3 -7c0 -5.33301 3.33301 -8 10 -8h46c4 0 7 0.5 9 1.5s4.66699 3.5 8 7.5l99 122c1.33301 1.33301 2 3.33301 2 6c0 4.66699 -3 7 -9 7h-63c-6 0 -11 -3 -15 -9z" />
    <glyph glyph-name="Ocircumflex" unicode="&#xd4;" horiz-adv-x="683" 
d="M536 674.5c46.667 -45.667 70 -108.167 70 -187.5v-240c0 -80 -23.333 -143 -70 -189s-111.667 -69 -195 -69s-148.166 22.5 -194.499 67.5s-69.5 107.833 -69.5 188.5v240c0 82 23.167 145.5 69.5 190.5s111.166 67.5 194.499 67.5s148.333 -22.833 195 -68.5zM215 612
c-29.333 -28.667 -44 -71.334 -44 -128.001v-236c0 -56.667 14.667 -99.334 44 -128.001s71.333 -43 126 -43c55.333 0 97.666 14.333 126.999 43s44 71.334 44 128.001v236c0 56.667 -14.667 99.334 -44 128.001s-71.666 43 -126.999 43
c-54.667 0 -96.667 -14.333 -126 -43zM479 807c0 -6 -3.33301 -9.00098 -10 -9.00098h-51c-5.33301 0 -9.66602 2.66699 -12.999 8l-64 87l-63 -87c-4.66699 -5.33301 -9.33398 -8 -14.001 -8h-51c-2.66699 0 -5 0.833008 -7 2.5s-3 3.83398 -3 6.50098
c0 1.33301 1.66699 4.33301 5 9l90 118c3.33301 5.33301 8 8 14 8h58c6 0 10.667 -2.66699 14 -8l91 -118c2.66699 -3.33301 4 -6.33301 4 -9z" />
    <glyph glyph-name="Otilde" unicode="&#xd5;" horiz-adv-x="683" 
d="M536 674.5c46.667 -45.667 70 -108.167 70 -187.5v-240c0 -80 -23.333 -143 -70 -189s-111.667 -69 -195 -69s-148.166 22.5 -194.499 67.5s-69.5 107.833 -69.5 188.5v240c0 82 23.167 145.5 69.5 190.5s111.166 67.5 194.499 67.5s148.333 -22.833 195 -68.5zM215 612
c-29.333 -28.667 -44 -71.334 -44 -128.001v-236c0 -56.667 14.667 -99.334 44 -128.001s71.333 -43 126 -43c55.333 0 97.666 14.333 126.999 43s44 71.334 44 128.001v236c0 56.667 -14.667 99.334 -44 128.001s-71.666 43 -126.999 43
c-54.667 0 -96.667 -14.333 -126 -43zM320.5 908.5c10.333 -4.33301 22.168 -10.833 35.501 -19.5c10.667 -6.66699 19.167 -11.5 25.5 -14.5s13.166 -4.5 20.499 -4.5c17.333 0 32.666 10.667 45.999 32c4 6 8.66699 7 14 3l30 -21
c4.66699 -4 5.33398 -8.66699 2.00098 -14c-7.33301 -17.333 -19 -31.833 -35 -43.5s-34.333 -17.834 -55 -18.501c-13.333 0 -25.166 2.16699 -35.499 6.5s-22.166 10.833 -35.499 19.5c-10 6.66699 -18.5 11.5 -25.5 14.5s-14.167 4.5 -21.5 4.5
c-16.667 0 -31.667 -10.667 -45 -32c-4.66699 -5.33301 -9.66699 -6.33301 -15 -3l-29 22c-4.66699 3.33301 -5.33398 8.33301 -2.00098 15c8 16.667 20 30.834 36 42.501s34 17.5 54 17.5c13.333 0 25.166 -2.16699 35.499 -6.5z" />
    <glyph glyph-name="Odieresis" unicode="&#xd6;" horiz-adv-x="683" 
d="M536 674.5c46.667 -45.667 70 -108.167 70 -187.5v-240c0 -80 -23.333 -143 -70 -189s-111.667 -69 -195 -69s-148.166 22.5 -194.499 67.5s-69.5 107.833 -69.5 188.5v240c0 82 23.167 145.5 69.5 190.5s111.166 67.5 194.499 67.5s148.333 -22.833 195 -68.5zM215 612
c-29.333 -28.667 -44 -71.334 -44 -128.001v-236c0 -56.667 14.667 -99.334 44 -128.001s71.333 -43 126 -43c55.333 0 97.666 14.333 126.999 43s44 71.334 44 128.001v236c0 56.667 -14.667 99.334 -44 128.001s-71.666 43 -126.999 43
c-54.667 0 -96.667 -14.333 -126 -43zM287 913v-85c0 -10 -5 -15 -15 -15h-48c-10.667 0 -16 5 -16 15v85c0 9.33301 5.33301 14 16 14h48c10 0 15 -4.66699 15 -14zM474 913v-85c0 -10 -5 -15 -15 -15h-48c-10.667 0 -16 5 -16 15v85c0 9.33301 5.33301 14 16 14h48
c10 0 15 -4.66699 15 -14z" />
    <glyph glyph-name="multiply" unicode="&#xd7;" 
d="M525 143c2.66699 -2.66699 3.99902 -5.66699 3.99902 -9s-1.33301 -6.33301 -4 -9l-42 -40c-2.66699 -3.33301 -5.66699 -5 -9 -5s-6.33301 1.33301 -9 4l-164 165l-165 -165c-3.33301 -3.33301 -6.33301 -5 -9 -5s-6 2 -10 6l-41 40c-3.33301 4.66699 -5 8 -5 10
s1.33301 5 4 9l166 165l-165 165c-2.66699 2 -4 4.66699 -4 8s1.66699 6.66602 5 9.99902l41 40c6.66699 6.66699 12.334 7.33398 17.001 2.00098l165 -166l165 165c2.66699 2.66699 5.33398 4 8.00098 4c3.33301 0 6.66602 -1.66699 9.99902 -5l42 -41
c3.33301 -3.33301 5 -6.33301 5 -9s-1.66699 -5.66699 -5 -9l-165 -165z" />
    <glyph glyph-name="Oslash" unicode="&#xd8;" horiz-adv-x="683" 
d="M606 487l-0.000976562 -239.999c0 -80 -23.333 -143 -70 -189s-111.667 -69 -195 -69c-62.667 0 -114.667 13 -156 39l-37 -66c-4 -6.66699 -10 -10 -18 -10h-33c-3.33301 0 -6.16602 1 -8.49902 3s-3.5 4.66699 -3.5 8s0.666992 6 2 8l52 93
c-41.333 45.333 -62 105.666 -62 180.999v240c0 82 23.167 145.5 69.5 190.5s111.166 67.5 194.499 67.5c60.667 0 113 -13 157 -39l43 75c2 4 4.33301 6.66699 7 8s6.33398 2 11.001 2h32c8.66699 0 13 -3.33301 13 -10c0 -2.66699 -1 -5.66699 -3 -9l-58 -103
c42 -45.333 63 -105.333 63 -180zM188.999 153.001l264.999 472.001c-27.333 20.667 -65 31 -113 31c-55.333 0 -97.666 -14.333 -126.999 -43s-44 -71.667 -44 -129v-236c0 -38.667 6.33301 -70.334 19 -95.001zM512.998 484.002c0 36 -6.33301 67.667 -19 95l-265 -473
c28 -20 65.333 -30 112 -30c56 0 98.667 14.333 128 43s44 71.667 44 129v236z" />
    <glyph glyph-name="Ugrave" unicode="&#xd9;" horiz-adv-x="691" 
d="M596 729c2 -2 2.99902 -5.33301 2.99902 -10v-480c0 -78 -22.5 -139.167 -67.5 -183.5s-107.167 -66.5 -186.5 -66.5c-78.667 0 -140.5 21.833 -185.5 65.5s-67.5 105.167 -67.5 184.5v480c0 8.66699 4.33301 13 13 13h68c4.66699 0 8 -1 10 -3s3 -5.33301 3 -10v-475
c0 -55.333 13.833 -97 41.5 -125s66.834 -42 117.501 -42s90 14 118 42s42 69.667 42 125v475c0 4.66699 1 8 3 10s5.33301 3 10 3h68c4.66699 0 8 -1 10 -3zM228.999 934c-4 0 -6.66797 -1.33301 -8.00098 -4s-0.666016 -5.66699 2.00098 -9l98 -122
c3.33301 -3.33301 6 -5.66602 8 -6.99902s5 -2 9 -2h47c4 0 6.83301 1.5 8.5 4.5s1.16699 6.5 -1.5 10.5l-85 120c-2 3.33301 -4 5.66602 -6 6.99902s-5 2 -9 2h-63z" />
    <glyph glyph-name="Uacute" unicode="&#xda;" horiz-adv-x="691" 
d="M596 729c2 -2 2.99902 -5.33301 2.99902 -10v-480c0 -78 -22.5 -139.167 -67.5 -183.5s-107.167 -66.5 -186.5 -66.5c-78.667 0 -140.5 21.833 -185.5 65.5s-67.5 105.167 -67.5 184.5v480c0 8.66699 4.33301 13 13 13h68c4.66699 0 8 -1 10 -3s3 -5.33301 3 -10v-475
c0 -55.333 13.833 -97 41.5 -125s66.834 -42 117.501 -42s90 14 118 42s42 69.667 42 125v475c0 4.66699 1 8 3 10s5.33301 3 10 3h68c4.66699 0 8 -1 10 -3zM300.999 805c-2 -2 -3 -4.33301 -3 -7c0 -5.33301 3.33301 -8 10 -8h46c4 0 7 0.5 9 1.5s4.66699 3.5 8 7.5
l99 122c1.33301 1.33301 2 3.33301 2 6c0 4.66699 -3 7 -9 7h-63c-6 0 -11 -3 -15 -9z" />
    <glyph glyph-name="Ucircumflex" unicode="&#xdb;" horiz-adv-x="691" 
d="M596 729c2 -2 2.99902 -5.33301 2.99902 -10v-480c0 -78 -22.5 -139.167 -67.5 -183.5s-107.167 -66.5 -186.5 -66.5c-78.667 0 -140.5 21.833 -185.5 65.5s-67.5 105.167 -67.5 184.5v480c0 8.66699 4.33301 13 13 13h68c4.66699 0 8 -1 10 -3s3 -5.33301 3 -10v-475
c0 -55.333 13.833 -97 41.5 -125s66.834 -42 117.501 -42s90 14 118 42s42 69.667 42 125v475c0 4.66699 1 8 3 10s5.33301 3 10 3h68c4.66699 0 8 -1 10 -3zM484.999 799c0 -6 -3.33301 -9.00098 -10 -9.00098h-51c-5.33301 0 -9.66602 2.66699 -12.999 8l-64 87l-63 -87
c-4.66699 -5.33301 -9.33398 -8 -14.001 -8h-51c-2.66699 0 -5 0.833008 -7 2.5s-3 3.83398 -3 6.50098c0 1.33301 1.66699 4.33301 5 9l90 118c3.33301 5.33301 8 8 14 8h58c6 0 10.667 -2.66699 14 -8l91 -118c2.66699 -3.33301 4 -6.33301 4 -9z" />
    <glyph glyph-name="Udieresis" unicode="&#xdc;" horiz-adv-x="691" 
d="M596 729c2 -2 2.99902 -5.33301 2.99902 -10v-480c0 -78 -22.5 -139.167 -67.5 -183.5s-107.167 -66.5 -186.5 -66.5c-78.667 0 -140.5 21.833 -185.5 65.5s-67.5 105.167 -67.5 184.5v480c0 8.66699 4.33301 13 13 13h68c4.66699 0 8 -1 10 -3s3 -5.33301 3 -10v-475
c0 -55.333 13.833 -97 41.5 -125s66.834 -42 117.501 -42s90 14 118 42s42 69.667 42 125v475c0 4.66699 1 8 3 10s5.33301 3 10 3h68c4.66699 0 8 -1 10 -3zM292.999 905v-85c0 -10 -5 -15 -15 -15h-48c-10.667 0 -16 5 -16 15v85c0 9.33301 5.33301 14 16 14h48
c10 0 15 -4.66699 15 -14zM479.999 905v-85c0 -10 -5 -15 -15 -15h-48c-10.667 0 -16 5 -16 15v85c0 9.33301 5.33301 14 16 14h48c10 0 15 -4.66699 15 -14z" />
    <glyph glyph-name="Yacute" unicode="&#xdd;" horiz-adv-x="613" 
d="M583.5 726.5c1.66699 -3.66699 1.16699 -7.5 -1.5 -11.5l-229 -408v-294c0 -8.66699 -4 -13 -12 -13h-70c-8 -0 -12 4.33301 -12 13v292l-230 410c-1.33301 2.66699 -2 5 -2 7c0 2.66699 1 5 3 7s4.66699 3 8 3h77c4.66699 0 8.16699 -0.833008 10.5 -2.5
s4.5 -4.5 6.5 -8.5l176 -327l175 327c2 4 4.16699 6.83301 6.5 8.5s5.83301 2.5 10.5 2.5h73c5.33301 0 8.83301 -1.83301 10.5 -5.5zM265 805c-2 -2 -3 -4.33301 -3 -7c0 -5.33301 3.33301 -8 10 -8h46c4 0 7 0.5 9 1.5s4.66699 3.5 8 7.5l99 122
c1.33301 1.33301 2 3.33301 2 6c0 4.66699 -3 7 -9 7h-63c-6 0 -11 -3 -15 -9z" />
    <glyph glyph-name="Thorn" unicode="&#xde;" horiz-adv-x="598" 
d="M484.5 550c38.333 -38 57.5 -91 57.5 -159v-44c0 -69.333 -19.167 -123.333 -57.5 -162s-96.166 -58 -173.499 -58h-120v-115c0 -8 -4.33301 -12 -13 -12h-67c-9.33301 0 -14 4 -14 12v709c0 8 4.66699 12 14 12h67c8.66699 0 13 -4 13 -12v-114h120
c77.333 0 135.166 -19 173.499 -57zM414.5 487.5c-22.333 22.333 -59.166 33.501 -110.499 33.501h-113v-308h113c51.333 0 88.166 11.667 110.499 35s33.5 58.666 33.5 105.999v30c0 46.667 -11.167 81.167 -33.5 103.5z" />
    <glyph glyph-name="germandbls" unicode="&#xdf;" horiz-adv-x="618" 
d="M519.5 336.5c25.667 -31 38.501 -70.8359 38.501 -119.503v-20c0 -40 -9.33301 -75.667 -28 -107s-45.5 -55.833 -80.5 -73.5s-75.833 -26.5 -122.5 -26.5c-26 0 -49.667 2.33301 -71 7c-2.66699 0.666992 -4.83398 2.33398 -6.50098 5.00098s-2.16699 5.66699 -1.5 9
l9 56c2 6 6.66699 9 14 9c18.667 -4 35.667 -6 51 -6c44.667 0 80.167 12.167 106.5 36.5s39.5 56.833 39.5 97.5v17c0 82 -51 126 -153 132c-7.33301 0 -11 3.33301 -11 10v60c0 6 3.66699 9.66699 11 11c30 2.66699 56.333 12.834 79 30.501s34 45.834 34 84.501v19
c0 32 -11.5 58.667 -34.5 80s-53.833 32 -92.5 32s-69.334 -11.333 -92.001 -34s-34 -51 -34 -85v-550c0 -7.33301 -3.33301 -11 -10 -11h-70c-6.66699 0 -10 3.66699 -10 11v549c0 36.667 8.5 70.167 25.5 100.5s41.833 54.333 74.5 72s71.667 26.5 117 26.5
c44.667 0 83.334 -8.33301 116.001 -25s57.5 -39 74.5 -67s25.5 -58.333 25.5 -91v-25c0 -37.333 -9.5 -69 -28.5 -95s-44.5 -45.333 -76.5 -58c45.333 -10 80.833 -30.5 106.5 -61.5z" />
    <glyph glyph-name="agrave" unicode="&#xe0;" horiz-adv-x="554" 
d="M420.5 516c35 -28.667 52.499 -71.334 52.499 -128.001v-376c0 -8 -4.33301 -12 -13 -12h-60c-8.66699 0 -13 4 -13 12v72c-17.333 -30 -40.333 -53.167 -69 -69.5s-60.334 -24.5 -95.001 -24.5c-51.333 0 -92.333 15 -123 45s-46 68.667 -46 116
c0 100.667 66.667 156 200 166c24 2 46.333 3 67 3c15.333 0 36.333 -0.666992 63 -2v64c0 68 -36.667 102 -110 102c-32.667 0 -57.167 -5.66699 -73.5 -17s-28.833 -29.666 -37.5 -54.999c-1.33301 -4.66699 -3.16602 -7.66699 -5.49902 -9s-6.16602 -1.33301 -11.499 0
l-59 16c-8.66699 2 -11.667 7 -9 15c9.33301 39.333 30.833 70 64.5 92s78.5 33 134.5 33c60.667 0 108.5 -14.333 143.5 -43zM327.499 92c24.333 18 43.167 43 56.5 75v88c-25.333 1.33301 -45 2 -59 2c-20 0 -41 -1 -63 -3c-40 -4 -70.167 -13.667 -90.5 -29
s-30.5 -38.333 -30.5 -69c0 -27.333 9 -49.333 27 -66s42.667 -25 74 -25c32.667 0 61.167 9 85.5 27zM165 759c-4 0 -6.66797 -1.33301 -8.00098 -4s-0.666016 -5.66699 2.00098 -9l98 -122c3.33301 -3.33301 6 -5.66602 8 -6.99902s5 -2 9 -2h47c4 0 6.83301 1.5 8.5 4.5
s1.16699 6.5 -1.5 10.5l-85 120c-2 3.33301 -4 5.66602 -6 6.99902s-5 2 -9 2h-63z" />
    <glyph glyph-name="aacute" unicode="&#xe1;" horiz-adv-x="554" 
d="M420.5 516c35 -28.667 52.499 -71.334 52.499 -128.001v-376c0 -8 -4.33301 -12 -13 -12h-60c-8.66699 0 -13 4 -13 12v72c-17.333 -30 -40.333 -53.167 -69 -69.5s-60.334 -24.5 -95.001 -24.5c-51.333 0 -92.333 15 -123 45s-46 68.667 -46 116
c0 100.667 66.667 156 200 166c24 2 46.333 3 67 3c15.333 0 36.333 -0.666992 63 -2v64c0 68 -36.667 102 -110 102c-32.667 0 -57.167 -5.66699 -73.5 -17s-28.833 -29.666 -37.5 -54.999c-1.33301 -4.66699 -3.16602 -7.66699 -5.49902 -9s-6.16602 -1.33301 -11.499 0
l-59 16c-8.66699 2 -11.667 7 -9 15c9.33301 39.333 30.833 70 64.5 92s78.5 33 134.5 33c60.667 0 108.5 -14.333 143.5 -43zM327.499 92c24.333 18 43.167 43 56.5 75v88c-25.333 1.33301 -45 2 -59 2c-20 0 -41 -1 -63 -3c-40 -4 -70.167 -13.667 -90.5 -29
s-30.5 -38.333 -30.5 -69c0 -27.333 9 -49.333 27 -66s42.667 -25 74 -25c32.667 0 61.167 9 85.5 27zM237 630c-2 -2 -3 -4.33301 -3 -7c0 -5.33301 3.33301 -8 10 -8h46c4 0 7 0.5 9 1.5s4.66699 3.5 8 7.5l99 122c1.33301 1.33301 2 3.33301 2 6c0 4.66699 -3 7 -9 7h-63
c-6 0 -11 -3 -15 -9z" />
    <glyph glyph-name="acircumflex" unicode="&#xe2;" horiz-adv-x="554" 
d="M420.5 516c35 -28.667 52.499 -71.334 52.499 -128.001v-376c0 -8 -4.33301 -12 -13 -12h-60c-8.66699 0 -13 4 -13 12v72c-17.333 -30 -40.333 -53.167 -69 -69.5s-60.334 -24.5 -95.001 -24.5c-51.333 0 -92.333 15 -123 45s-46 68.667 -46 116
c0 100.667 66.667 156 200 166c24 2 46.333 3 67 3c15.333 0 36.333 -0.666992 63 -2v64c0 68 -36.667 102 -110 102c-32.667 0 -57.167 -5.66699 -73.5 -17s-28.833 -29.666 -37.5 -54.999c-1.33301 -4.66699 -3.16602 -7.66699 -5.49902 -9s-6.16602 -1.33301 -11.499 0
l-59 16c-8.66699 2 -11.667 7 -9 15c9.33301 39.333 30.833 70 64.5 92s78.5 33 134.5 33c60.667 0 108.5 -14.333 143.5 -43zM327.499 92c24.333 18 43.167 43 56.5 75v88c-25.333 1.33301 -45 2 -59 2c-20 0 -41 -1 -63 -3c-40 -4 -70.167 -13.667 -90.5 -29
s-30.5 -38.333 -30.5 -69c0 -27.333 9 -49.333 27 -66s42.667 -25 74 -25c32.667 0 61.167 9 85.5 27zM421 624c0 -6 -3.33301 -9.00098 -10 -9.00098h-51c-5.33301 0 -9.66602 2.66699 -12.999 8l-64 87l-63 -87c-4.66699 -5.33301 -9.33398 -8 -14.001 -8h-51
c-2.66699 0 -5 0.833008 -7 2.5s-3 3.83398 -3 6.50098c0 1.33301 1.66699 4.33301 5 9l90 118c3.33301 5.33301 8 8 14 8h58c6 0 10.667 -2.66699 14 -8l91 -118c2.66699 -3.33301 4 -6.33301 4 -9z" />
    <glyph glyph-name="atilde" unicode="&#xe3;" horiz-adv-x="554" 
d="M420.5 516c35 -28.667 52.499 -71.334 52.499 -128.001v-376c0 -8 -4.33301 -12 -13 -12h-60c-8.66699 0 -13 4 -13 12v72c-17.333 -30 -40.333 -53.167 -69 -69.5s-60.334 -24.5 -95.001 -24.5c-51.333 0 -92.333 15 -123 45s-46 68.667 -46 116
c0 100.667 66.667 156 200 166c24 2 46.333 3 67 3c15.333 0 36.333 -0.666992 63 -2v64c0 68 -36.667 102 -110 102c-32.667 0 -57.167 -5.66699 -73.5 -17s-28.833 -29.666 -37.5 -54.999c-1.33301 -4.66699 -3.16602 -7.66699 -5.49902 -9s-6.16602 -1.33301 -11.499 0
l-59 16c-8.66699 2 -11.667 7 -9 15c9.33301 39.333 30.833 70 64.5 92s78.5 33 134.5 33c60.667 0 108.5 -14.333 143.5 -43zM327.499 92c24.333 18 43.167 43 56.5 75v88c-25.333 1.33301 -45 2 -59 2c-20 0 -41 -1 -63 -3c-40 -4 -70.167 -13.667 -90.5 -29
s-30.5 -38.333 -30.5 -69c0 -27.333 9 -49.333 27 -66s42.667 -25 74 -25c32.667 0 61.167 9 85.5 27zM262.5 725.5c10.333 -4.33301 22.168 -10.833 35.501 -19.5c10.667 -6.66699 19.167 -11.5 25.5 -14.5s13.166 -4.5 20.499 -4.5c17.333 0 32.666 10.667 45.999 32
c4 6 8.66699 7 14 3l30 -21c4.66699 -4 5.33398 -8.66699 2.00098 -14c-7.33301 -17.333 -19 -31.833 -35 -43.5s-34.333 -17.834 -55 -18.501c-13.333 0 -25.166 2.16699 -35.499 6.5s-22.166 10.833 -35.499 19.5c-10 6.66699 -18.5 11.5 -25.5 14.5
s-14.167 4.5 -21.5 4.5c-16.667 0 -31.667 -10.667 -45 -32c-4.66699 -5.33301 -9.66699 -6.33301 -15 -3l-29 22c-4.66699 3.33301 -5.33398 8.33301 -2.00098 15c8 16.667 20 30.834 36 42.501s34 17.5 54 17.5c13.333 0 25.166 -2.16699 35.499 -6.5z" />
    <glyph glyph-name="adieresis" unicode="&#xe4;" horiz-adv-x="554" 
d="M420.5 516c35 -28.667 52.499 -71.334 52.499 -128.001v-376c0 -8 -4.33301 -12 -13 -12h-60c-8.66699 0 -13 4 -13 12v72c-17.333 -30 -40.333 -53.167 -69 -69.5s-60.334 -24.5 -95.001 -24.5c-51.333 0 -92.333 15 -123 45s-46 68.667 -46 116
c0 100.667 66.667 156 200 166c24 2 46.333 3 67 3c15.333 0 36.333 -0.666992 63 -2v64c0 68 -36.667 102 -110 102c-32.667 0 -57.167 -5.66699 -73.5 -17s-28.833 -29.666 -37.5 -54.999c-1.33301 -4.66699 -3.16602 -7.66699 -5.49902 -9s-6.16602 -1.33301 -11.499 0
l-59 16c-8.66699 2 -11.667 7 -9 15c9.33301 39.333 30.833 70 64.5 92s78.5 33 134.5 33c60.667 0 108.5 -14.333 143.5 -43zM327.499 92c24.333 18 43.167 43 56.5 75v88c-25.333 1.33301 -45 2 -59 2c-20 0 -41 -1 -63 -3c-40 -4 -70.167 -13.667 -90.5 -29
s-30.5 -38.333 -30.5 -69c0 -27.333 9 -49.333 27 -66s42.667 -25 74 -25c32.667 0 61.167 9 85.5 27zM229 730v-85c0 -10 -5 -15 -15 -15h-48c-10.667 0 -16 5 -16 15v85c0 9.33301 5.33301 14 16 14h48c10 0 15 -4.66699 15 -14zM416 730v-85c0 -10 -5 -15 -15 -15h-48
c-10.667 0 -16 5 -16 15v85c0 9.33301 5.33301 14 16 14h48c10 0 15 -4.66699 15 -14z" />
    <glyph glyph-name="aring" unicode="&#xe5;" horiz-adv-x="554" 
d="M420.5 516c35 -28.667 52.499 -71.334 52.499 -128.001v-376c0 -8 -4.33301 -12 -13 -12h-60c-8.66699 0 -13 4 -13 12v72c-17.333 -30 -40.333 -53.167 -69 -69.5s-60.334 -24.5 -95.001 -24.5c-51.333 0 -92.333 15 -123 45s-46 68.667 -46 116
c0 100.667 66.667 156 200 166c24 2 46.333 3 67 3c15.333 0 36.333 -0.666992 63 -2v64c0 68 -36.667 102 -110 102c-32.667 0 -57.167 -5.66699 -73.5 -17s-28.833 -29.666 -37.5 -54.999c-1.33301 -4.66699 -3.16602 -7.66699 -5.49902 -9s-6.16602 -1.33301 -11.499 0
l-59 16c-8.66699 2 -11.667 7 -9 15c9.33301 39.333 30.833 70 64.5 92s78.5 33 134.5 33c60.667 0 108.5 -14.333 143.5 -43zM327.499 92c24.333 18 43.167 43 56.5 75v88c-25.333 1.33301 -45 2 -59 2c-20 0 -41 -1 -63 -3c-40 -4 -70.167 -13.667 -90.5 -29
s-30.5 -38.333 -30.5 -69c0 -27.333 9 -49.333 27 -66s42.667 -25 74 -25c32.667 0 61.167 9 85.5 27zM205 619.5c-22 21.667 -33 47.5 -33 77.5s11 55.833 33 77.5s48 32.5 78 32.5s56 -10.833 78 -32.5s33 -47.5 33 -77.5s-11 -55.833 -33 -77.5s-48 -32.5 -78 -32.5
s-56 10.833 -78 32.5zM326 654c12 12 18 26.333 18 43s-6 31 -18 43s-26.333 18 -43 18s-31 -6 -43 -18s-18 -26.333 -18 -43s6 -31 18 -43s26.333 -18 43 -18s31 6 43 18z" />
    <glyph glyph-name="ae" unicode="&#xe6;" horiz-adv-x="876" 
d="M469 249l-0.00195312 -41.998c0 -94 45 -141 135 -141c36.667 0 64.5 6.33301 83.5 19s34.167 30.667 45.5 54c2.66699 6.66699 6.66699 10 12 10c2.66699 0 6 -1 10 -3l43 -22c6.66699 -2.66699 10 -7 10 -13c0 -2 -0.666992 -5 -2 -9
c-16 -36 -40.833 -63.833 -74.5 -83.5s-75.834 -29.5 -126.501 -29.5c-50 0 -91.667 10 -125 30s-58.666 46.667 -75.999 80c-18 -33.333 -43 -59.833 -75 -79.5s-68 -29.5 -108 -29.5c-50.667 0 -91.167 14.667 -121.5 44s-45.5 67.666 -45.5 114.999
c0 98 66.667 152.667 200 164c24 2 46.333 3 67 3c14 0 34.333 -0.666992 61 -2v67c0 34.667 -9.5 60.5 -28.5 77.5s-45.833 25.5 -80.5 25.5c-32 0 -56.5 -5.83301 -73.5 -17.5s-29.167 -29.834 -36.5 -54.501c-1.33301 -4.66699 -3.16602 -7.66699 -5.49902 -9
s-6.16602 -1.33301 -11.499 0l-59 16c-8 2 -11 7 -9 15c10 38.667 31 69.167 63 91.5s74 33.5 126 33.5c40.667 0 75.167 -7.66699 103.5 -23s49.5 -38 63.5 -68c16 29.333 38.833 52 68.5 68s64.167 24 103.5 24c64 0 114.333 -19.5 151 -58.5s55 -89.833 55 -152.5v-77
c0 -15.333 -8.33301 -23 -25 -23h-318zM501.998 446.502c-22 -24.333 -33.001 -58.5 -33.001 -102.5v-31h258v37c0 42.667 -11.167 75.667 -33.5 99s-54.166 35 -95.499 35c-42 -0.666992 -74 -13.167 -96 -37.5zM325.497 92.502c24.333 18.333 43.5 44.166 57.5 77.499
l-1 17v65c-10.667 0.666992 -27 1 -49 1c-23.333 0 -47.666 -1 -72.999 -3c-39.333 -4 -69 -13.5 -89 -28.5s-30 -37.167 -30 -66.5c0 -27.333 8.83301 -49.166 26.5 -65.499s42.5 -24.5 74.5 -24.5c31.333 0 59.166 9.16699 83.499 27.5z" />
    <glyph glyph-name="ccedilla" unicode="&#xe7;" horiz-adv-x="532" 
d="M480 126c-10 -38 -30.665 -69.5039 -61.998 -94.5039s-71.333 -38.833 -120 -41.5l-7 -31c25.333 -5.33301 45.333 -15.166 60 -29.499s22 -32.5 22 -54.5c0 -28 -10.5 -50.833 -31.5 -68.5s-48.833 -26.5 -83.5 -26.5c-23.333 0 -43.666 4 -60.999 12
c-6 2.66699 -8.33301 7.33398 -7 14.001l9 36c2.66699 6.66699 8 8.66699 16 6c14 -4.66699 28.333 -7 43 -7c14 0 25.167 3.33301 33.5 10s12.5 15.334 12.5 26.001c0 11.333 -5.33301 20.333 -16 27s-25.334 10.667 -44.001 12c-3.33301 0 -5.83301 0.833008 -7.5 2.5
s-2.16699 4.16699 -1.5 7.5l15 65c-57.333 5.33301 -102 26.833 -134 64.5s-48 86.167 -48 145.5v145c0 64 18.667 115.667 56 155s88.666 59 153.999 59c54 0 98.167 -12.667 132.5 -38s57.166 -60.666 68.499 -105.999l1 -4c0 -6 -3.66699 -10 -11 -12l-54 -16
c-2 -0.666992 -4.33301 -1 -7 -1c-4.66699 0 -8 3 -10 9c-8.66699 26 -21.5 47 -38.5 63s-42.5 24 -76.5 24c-39.333 0 -69.833 -11.833 -91.5 -35.5s-32.5 -57.5 -32.5 -101.5v-136c0 -44 10.667 -77.5 32 -100.5s52 -34.5 92 -34.5c33.333 0 59 7 77 21s31.667 35 41 63
c2 6.66699 5 10 9 10l9 -2l52 -19c8.66699 -2 11.667 -8 9 -18z" />
    <glyph glyph-name="egrave" unicode="&#xe8;" horiz-adv-x="562" 
d="M156 245l0.000976562 -44.002c0 -43.333 11.5 -76.5 34.5 -99.5s56.167 -34.833 99.5 -35.5c36.667 0 64.5 6.16699 83.5 18.5s34.167 30.5 45.5 54.5c4 6.66699 7.66699 10 11 10s7 -1 11 -3l43 -22c7.33301 -2.66699 11 -6.66699 11 -12c0 -2.66699 -1 -6 -3 -10
c-15.333 -35.333 -40.333 -63 -75 -83s-77.334 -30 -128.001 -30c-70 0.666992 -124.333 20.167 -163 58.5s-58 89.5 -58 153.5v147c0 63.333 19 114.333 57 153s91.667 58.334 161 59.001c68 -0.666992 120.5 -20.167 157.5 -58.5s55.5 -89.166 55.5 -152.499v-80
c0 -16 -8.66699 -24 -26 -24h-317zM190.001 447.998c-22.667 -23.333 -33.998 -56 -33.998 -98v-41h258v41c0 42 -11.333 74.667 -34 98s-54.334 35.333 -95.001 36c-40.667 -0.666992 -72.334 -12.667 -95.001 -36zM165.003 758.998c-4 0 -6.66797 -1.33301 -8.00098 -4
s-0.666016 -5.66699 2.00098 -9l98 -122c3.33301 -3.33301 6 -5.66602 8 -6.99902s5 -2 9 -2h47c4 0 6.83301 1.5 8.5 4.5s1.16699 6.5 -1.5 10.5l-85 120c-2 3.33301 -4 5.66602 -6 6.99902s-5 2 -9 2h-63z" />
    <glyph glyph-name="eacute" unicode="&#xe9;" horiz-adv-x="562" 
d="M156 245l0.000976562 -44.002c0 -43.333 11.5 -76.5 34.5 -99.5s56.167 -34.833 99.5 -35.5c36.667 0 64.5 6.16699 83.5 18.5s34.167 30.5 45.5 54.5c4 6.66699 7.66699 10 11 10s7 -1 11 -3l43 -22c7.33301 -2.66699 11 -6.66699 11 -12c0 -2.66699 -1 -6 -3 -10
c-15.333 -35.333 -40.333 -63 -75 -83s-77.334 -30 -128.001 -30c-70 0.666992 -124.333 20.167 -163 58.5s-58 89.5 -58 153.5v147c0 63.333 19 114.333 57 153s91.667 58.334 161 59.001c68 -0.666992 120.5 -20.167 157.5 -58.5s55.5 -89.166 55.5 -152.499v-80
c0 -16 -8.66699 -24 -26 -24h-317zM190.001 447.998c-22.667 -23.333 -33.998 -56 -33.998 -98v-41h258v41c0 42 -11.333 74.667 -34 98s-54.334 35.333 -95.001 36c-40.667 -0.666992 -72.334 -12.667 -95.001 -36zM237.003 629.998c-2 -2 -3 -4.33301 -3 -7
c0 -5.33301 3.33301 -8 10 -8h46c4 0 7 0.5 9 1.5s4.66699 3.5 8 7.5l99 122c1.33301 1.33301 2 3.33301 2 6c0 4.66699 -3 7 -9 7h-63c-6 0 -11 -3 -15 -9z" />
    <glyph glyph-name="ecircumflex" unicode="&#xea;" horiz-adv-x="562" 
d="M156 245l0.000976562 -44.002c0 -43.333 11.5 -76.5 34.5 -99.5s56.167 -34.833 99.5 -35.5c36.667 0 64.5 6.16699 83.5 18.5s34.167 30.5 45.5 54.5c4 6.66699 7.66699 10 11 10s7 -1 11 -3l43 -22c7.33301 -2.66699 11 -6.66699 11 -12c0 -2.66699 -1 -6 -3 -10
c-15.333 -35.333 -40.333 -63 -75 -83s-77.334 -30 -128.001 -30c-70 0.666992 -124.333 20.167 -163 58.5s-58 89.5 -58 153.5v147c0 63.333 19 114.333 57 153s91.667 58.334 161 59.001c68 -0.666992 120.5 -20.167 157.5 -58.5s55.5 -89.166 55.5 -152.499v-80
c0 -16 -8.66699 -24 -26 -24h-317zM190.001 447.998c-22.667 -23.333 -33.998 -56 -33.998 -98v-41h258v41c0 42 -11.333 74.667 -34 98s-54.334 35.333 -95.001 36c-40.667 -0.666992 -72.334 -12.667 -95.001 -36zM421.003 623.998c0 -6 -3.33301 -9.00098 -10 -9.00098
h-51c-5.33301 0 -9.66602 2.66699 -12.999 8l-64 87l-63 -87c-4.66699 -5.33301 -9.33398 -8 -14.001 -8h-51c-2.66699 0 -5 0.833008 -7 2.5s-3 3.83398 -3 6.50098c0 1.33301 1.66699 4.33301 5 9l90 118c3.33301 5.33301 8 8 14 8h58c6 0 10.667 -2.66699 14 -8l91 -118
c2.66699 -3.33301 4 -6.33301 4 -9z" />
    <glyph glyph-name="edieresis" unicode="&#xeb;" horiz-adv-x="562" 
d="M156 245l0.000976562 -44.002c0 -43.333 11.5 -76.5 34.5 -99.5s56.167 -34.833 99.5 -35.5c36.667 0 64.5 6.16699 83.5 18.5s34.167 30.5 45.5 54.5c4 6.66699 7.66699 10 11 10s7 -1 11 -3l43 -22c7.33301 -2.66699 11 -6.66699 11 -12c0 -2.66699 -1 -6 -3 -10
c-15.333 -35.333 -40.333 -63 -75 -83s-77.334 -30 -128.001 -30c-70 0.666992 -124.333 20.167 -163 58.5s-58 89.5 -58 153.5v147c0 63.333 19 114.333 57 153s91.667 58.334 161 59.001c68 -0.666992 120.5 -20.167 157.5 -58.5s55.5 -89.166 55.5 -152.499v-80
c0 -16 -8.66699 -24 -26 -24h-317zM190.001 447.998c-22.667 -23.333 -33.998 -56 -33.998 -98v-41h258v41c0 42 -11.333 74.667 -34 98s-54.334 35.333 -95.001 36c-40.667 -0.666992 -72.334 -12.667 -95.001 -36zM229.003 729.998v-85c0 -10 -5 -15 -15 -15h-48
c-10.667 0 -16 5 -16 15v85c0 9.33301 5.33301 14 16 14h48c10 0 15 -4.66699 15 -14zM416.003 729.998v-85c0 -10 -5 -15 -15 -15h-48c-10.667 0 -16 5 -16 15v85c0 9.33301 5.33301 14 16 14h48c10 0 15 -4.66699 15 -14z" />
    <glyph glyph-name="igrave" unicode="&#xec;" horiz-adv-x="260" 
d="M175 537v-525c0 -8 -4 -12 -12 -12h-65c-8.66699 0 -13 4 -13 12v525c0 8 4.33301 12 13 12h65c8 0 12 -4 12 -12zM12 757c-4 0 -6.66797 -1.33301 -8.00098 -4s-0.666016 -5.66699 2.00098 -9l98 -122c3.33301 -3.33301 6 -5.66602 8 -6.99902s5 -2 9 -2h47
c4 0 6.83301 1.5 8.5 4.5s1.16699 6.5 -1.5 10.5l-85 120c-2 3.33301 -4 5.66602 -6 6.99902s-5 2 -9 2h-63z" />
    <glyph glyph-name="iacute" unicode="&#xed;" horiz-adv-x="260" 
d="M175 537v-525c0 -8 -4 -12 -12 -12h-65c-8.66699 0 -13 4 -13 12v525c0 8 4.33301 12 13 12h65c8 0 12 -4 12 -12zM84 628c-2 -2 -3 -4.33301 -3 -7c0 -5.33301 3.33301 -8 10 -8h46c4 0 7 0.5 9 1.5s4.66699 3.5 8 7.5l99 122c1.33301 1.33301 2 3.33301 2 6
c0 4.66699 -3 7 -9 7h-63c-6 0 -10.667 -3 -14 -9z" />
    <glyph glyph-name="icircumflex" unicode="&#xee;" horiz-adv-x="260" 
d="M175 537v-525c0 -8 -4 -12 -12 -12h-65c-8.66699 0 -13 4 -13 12v525c0 8 4.33301 12 13 12h65c8 0 12 -4 12 -12zM268 622c0 -6 -3.00098 -9.00098 -9.00098 -9.00098h-52c-5.33301 0 -9.66602 2.66699 -12.999 8l-64 87l-63 -87c-3.33301 -5.33301 -8 -8 -14 -8h-51
c-2.66699 0 -5 0.833008 -7 2.5s-3 3.83398 -3 6.50098c0 1.33301 1.66699 4.33301 5 9l90 118c3.33301 5.33301 8 8 14 8h58c6 0 10.667 -2.66699 14 -8l91 -118c2.66699 -3.33301 4 -6.33301 4 -9z" />
    <glyph glyph-name="idieresis" unicode="&#xef;" horiz-adv-x="260" 
d="M85 728v-85c0 -10 -5.33301 -15 -16 -15h-47c-10.667 0 -16 5 -16 15v85c0 9.33301 5.33301 14 16 14h47c10.667 0 16 -4.66699 16 -14zM255 728v-85c0 -10 -5.33301 -15 -16 -15h-48c-10 0 -15 5 -15 15v85c0 9.33301 5 14 15 14h48c10.667 0 16 -4.66699 16 -14z
M175 537v-525c0 -8 -4 -12 -12 -12h-65c-8.66699 0 -13 4 -13 12v525c0 8 4.33301 12 13 12h65c8 0 12 -4 12 -12z" />
    <glyph glyph-name="eth" unicode="&#xf0;" horiz-adv-x="547" 
d="M481 306v-119c0 -60.667 -17.667 -108.834 -53 -144.501s-86.666 -53.5 -153.999 -53.5c-66.667 0.666992 -117.667 18.667 -153 54s-53 83 -53 143v118c0 56.667 15.167 102.834 45.5 138.501s73.166 53.5 128.499 53.5c24 0 51 -5.33301 81 -16l-58 109h-115
c-8 0 -12 4.33301 -12 13v45c0 8.66699 4 13 12 13h78l-34 65c-1.33301 2.66699 -2 4.66699 -2 6c0 3.33301 2 6 6 8l58 32c0.666992 0.666992 2 1 4 1c4.66699 0 8 -2.33301 10 -7l55 -105h93c7.33301 0 11 -4.33301 11 -13v-45c0 -8.66699 -3.66699 -13 -11 -13h-55
l92 -175c17.333 -30.667 26 -66.667 26 -108zM390 301c0 38.667 -9.66699 68.498 -29 89.498s-47.333 31.5 -84 31.5c-38.667 0 -68 -10.333 -88 -31s-30 -50.667 -30 -90v-110c0 -39.333 10 -69.166 30 -89.499s49.667 -30.5 89 -30.5c36.667 0 64.5 10.333 83.5 31
s28.5 50.334 28.5 89.001v110z" />
    <glyph glyph-name="ntilde" unicode="&#xf1;" horiz-adv-x="586" 
d="M231.5 447c-25 -19.333 -43.833 -45 -56.5 -77v-358c0 -8 -4 -12 -12 -12h-65c-8.66699 0 -13 4 -13 12v526c0 7.33301 4 11 12 11h64c8 0 12 -3.66699 12 -11v-72c20 28 44.5 50.667 73.5 68s61.5 26 97.5 26c51.333 0 91 -16.5 119 -49.5s42 -76.833 42 -131.5v-367
c0 -8 -4.33301 -12 -13 -12h-65c-8.66699 0 -13 4 -13 12v352c0 36 -8.33301 63.667 -25 83s-42 29 -76 29c-29.333 0 -56.5 -9.66699 -81.5 -29zM275.5 725.5c10.333 -4.33301 22.168 -10.833 35.501 -19.5c10.667 -6.66699 19.167 -11.5 25.5 -14.5
s13.166 -4.5 20.499 -4.5c17.333 0 32.666 10.667 45.999 32c4 6 8.66699 7 14 3l30 -21c4.66699 -4 5.33398 -8.66699 2.00098 -14c-7.33301 -17.333 -19 -31.833 -35 -43.5s-34.333 -17.834 -55 -18.501c-13.333 0 -25.166 2.16699 -35.499 6.5
s-22.166 10.833 -35.499 19.5c-10 6.66699 -18.5 11.5 -25.5 14.5s-14.167 4.5 -21.5 4.5c-16.667 0 -31.667 -10.667 -45 -32c-4.66699 -5.33301 -9.66699 -6.33301 -15 -3l-29 22c-4.66699 3.33301 -5.33398 8.33301 -2.00098 15c8 16.667 20 30.834 36 42.501
s34 17.5 54 17.5c13.333 0 25.166 -2.16699 35.499 -6.5z" />
    <glyph glyph-name="ograve" unicode="&#xf2;" horiz-adv-x="580" 
d="M455 502c38 -38.667 57 -90.667 57 -156v-143c0 -66 -19 -118.167 -57 -156.5s-93 -57.5 -165 -57.5s-127 19.167 -165 57.5s-57 89.833 -57 154.5v143c0 66 19 118.5 57 157.5s93 58.5 165 58.5s127 -19.333 165 -58zM193 443.5
c-22.667 -23.667 -34.001 -57.5 -34.001 -101.5v-136c0 -44 11.333 -77.5 34 -100.5s55 -34.5 97 -34.5c42.667 0 75.334 11.5 98.001 34.5s34 56.5 34 100.5v136c0 44 -11.5 77.833 -34.5 101.5s-55.5 35.5 -97.5 35.5s-74.333 -11.833 -97 -35.5zM171.999 759
c-4 0 -6.66797 -1.33301 -8.00098 -4s-0.666016 -5.66699 2.00098 -9l98 -122c3.33301 -3.33301 6 -5.66602 8 -6.99902s5 -2 9 -2h47c4 0 6.83301 1.5 8.5 4.5s1.16699 6.5 -1.5 10.5l-85 120c-2 3.33301 -4 5.66602 -6 6.99902s-5 2 -9 2h-63z" />
    <glyph glyph-name="oacute" unicode="&#xf3;" horiz-adv-x="580" 
d="M455 502c38 -38.667 57 -90.667 57 -156v-143c0 -66 -19 -118.167 -57 -156.5s-93 -57.5 -165 -57.5s-127 19.167 -165 57.5s-57 89.833 -57 154.5v143c0 66 19 118.5 57 157.5s93 58.5 165 58.5s127 -19.333 165 -58zM193 443.5
c-22.667 -23.667 -34.001 -57.5 -34.001 -101.5v-136c0 -44 11.333 -77.5 34 -100.5s55 -34.5 97 -34.5c42.667 0 75.334 11.5 98.001 34.5s34 56.5 34 100.5v136c0 44 -11.5 77.833 -34.5 101.5s-55.5 35.5 -97.5 35.5s-74.333 -11.833 -97 -35.5zM243.999 630
c-2 -2 -3 -4.33301 -3 -7c0 -5.33301 3.33301 -8 10 -8h46c4 0 7 0.5 9 1.5s4.66699 3.5 8 7.5l99 122c1.33301 1.33301 2 3.33301 2 6c0 4.66699 -3 7 -9 7h-63c-6 0 -11 -3 -15 -9z" />
    <glyph glyph-name="ocircumflex" unicode="&#xf4;" horiz-adv-x="580" 
d="M455 502c38 -38.667 57 -90.667 57 -156v-143c0 -66 -19 -118.167 -57 -156.5s-93 -57.5 -165 -57.5s-127 19.167 -165 57.5s-57 89.833 -57 154.5v143c0 66 19 118.5 57 157.5s93 58.5 165 58.5s127 -19.333 165 -58zM193 443.5
c-22.667 -23.667 -34.001 -57.5 -34.001 -101.5v-136c0 -44 11.333 -77.5 34 -100.5s55 -34.5 97 -34.5c42.667 0 75.334 11.5 98.001 34.5s34 56.5 34 100.5v136c0 44 -11.5 77.833 -34.5 101.5s-55.5 35.5 -97.5 35.5s-74.333 -11.833 -97 -35.5zM427.999 624
c0 -6 -3.33301 -9.00098 -10 -9.00098h-51c-5.33301 0 -9.66602 2.66699 -12.999 8l-64 87l-63 -87c-4.66699 -5.33301 -9.33398 -8 -14.001 -8h-51c-2.66699 0 -5 0.833008 -7 2.5s-3 3.83398 -3 6.50098c0 1.33301 1.66699 4.33301 5 9l90 118c3.33301 5.33301 8 8 14 8
h58c6 0 10.667 -2.66699 14 -8l91 -118c2.66699 -3.33301 4 -6.33301 4 -9z" />
    <glyph glyph-name="otilde" unicode="&#xf5;" horiz-adv-x="580" 
d="M455 502c38 -38.667 57 -90.667 57 -156v-143c0 -66 -19 -118.167 -57 -156.5s-93 -57.5 -165 -57.5s-127 19.167 -165 57.5s-57 89.833 -57 154.5v143c0 66 19 118.5 57 157.5s93 58.5 165 58.5s127 -19.333 165 -58zM193 443.5
c-22.667 -23.667 -34.001 -57.5 -34.001 -101.5v-136c0 -44 11.333 -77.5 34 -100.5s55 -34.5 97 -34.5c42.667 0 75.334 11.5 98.001 34.5s34 56.5 34 100.5v136c0 44 -11.5 77.833 -34.5 101.5s-55.5 35.5 -97.5 35.5s-74.333 -11.833 -97 -35.5zM269.499 725.5
c10.333 -4.33301 22.168 -10.833 35.501 -19.5c10.667 -6.66699 19.167 -11.5 25.5 -14.5s13.166 -4.5 20.499 -4.5c17.333 0 32.666 10.667 45.999 32c4 6 8.66699 7 14 3l30 -21c4.66699 -4 5.33398 -8.66699 2.00098 -14c-7.33301 -17.333 -19 -31.833 -35 -43.5
s-34.333 -17.834 -55 -18.501c-13.333 0 -25.166 2.16699 -35.499 6.5s-22.166 10.833 -35.499 19.5c-10 6.66699 -18.5 11.5 -25.5 14.5s-14.167 4.5 -21.5 4.5c-16.667 0 -31.667 -10.667 -45 -32c-4.66699 -5.33301 -9.66699 -6.33301 -15 -3l-29 22
c-4.66699 3.33301 -5.33398 8.33301 -2.00098 15c8 16.667 20 30.834 36 42.501s34 17.5 54 17.5c13.333 0 25.166 -2.16699 35.499 -6.5z" />
    <glyph glyph-name="odieresis" unicode="&#xf6;" horiz-adv-x="580" 
d="M455 502c38 -38.667 57 -90.667 57 -156v-143c0 -66 -19 -118.167 -57 -156.5s-93 -57.5 -165 -57.5s-127 19.167 -165 57.5s-57 89.833 -57 154.5v143c0 66 19 118.5 57 157.5s93 58.5 165 58.5s127 -19.333 165 -58zM193 443.5
c-22.667 -23.667 -34.001 -57.5 -34.001 -101.5v-136c0 -44 11.333 -77.5 34 -100.5s55 -34.5 97 -34.5c42.667 0 75.334 11.5 98.001 34.5s34 56.5 34 100.5v136c0 44 -11.5 77.833 -34.5 101.5s-55.5 35.5 -97.5 35.5s-74.333 -11.833 -97 -35.5zM235.999 730v-85
c0 -10 -5 -15 -15 -15h-48c-10.667 0 -16 5 -16 15v85c0 9.33301 5.33301 14 16 14h48c10 0 15 -4.66699 15 -14zM422.999 730v-85c0 -10 -5 -15 -15 -15h-48c-10.667 0 -16 5 -16 15v85c0 9.33301 5.33301 14 16 14h48c10 0 15 -4.66699 15 -14z" />
    <glyph glyph-name="divide" unicode="&#xf7;" 
d="M340.5 575c3 -2.66699 4.5 -6.66699 4.5 -12v-120c0 -5.33301 -1.5 -9.33301 -4.5 -12s-6.5 -4 -10.5 -4h-58c-9.33301 0 -14 5.33301 -14 16v120c0 4.66699 1.16699 8.5 3.5 11.5s5.83301 4.5 10.5 4.5h58c4 0 7.5 -1.33301 10.5 -4zM544 338v-58
c0 -8.66699 -4 -13 -12 -13h-462c-8 0 -12 4.33301 -12 13v58c0 8.66699 4 13 12 13h462c8 0 12 -4.33301 12 -13zM345 174v-121c0 -10 -5 -15 -15 -15h-58c-9.33301 0 -14 5 -14 15v121c0 10 4.66699 15 14 15h58c10 0 15 -5 15 -15z" />
    <glyph glyph-name="oslash" unicode="&#xf8;" horiz-adv-x="580" 
d="M460 497c34.667 -37.333 52.001 -87.666 52.001 -150.999v-143c0 -66 -19 -118.167 -57 -156.5s-93 -57.5 -165 -57.5c-48 0 -89.333 9 -124 27l-29 -50c-4.66699 -6.66699 -11 -10 -19 -10h-31c-4 0 -7.16699 1 -9.5 3s-3.5 4.66699 -3.5 8c0 2.66699 1 5.66699 3 9
l45 74c-36 37.333 -54 87.666 -54 150.999v143c0 66 19 118.5 57 157.5s93 58.5 165 58.5c50 0 91.667 -9.66699 125 -29l36 61c4 6.66699 10 10 18 10h32c3.33301 0 6.16602 -1 8.49902 -3s3.5 -4.66699 3.5 -8s-0.666992 -6 -2 -8zM155.001 204
c0 -31.333 5.99902 -57.667 17.999 -79l200 336c-21.333 14 -49 21 -83 21c-43.333 0 -76.666 -12 -99.999 -36s-35 -58.333 -35 -103v-139zM426 342.999c0 32 -5.99902 58.332 -17.999 78.999l-200 -335c21.333 -14 48.666 -21 81.999 -21c44 0 77.667 11.833 101 35.5
s35 57.834 35 102.501v139z" />
    <glyph glyph-name="ugrave" unicode="&#xf9;" horiz-adv-x="586" 
d="M123 38.5c-28 33 -42.001 76.833 -42.001 131.5v367c0 8 4.33301 12 13 12h65c8.66699 0 13 -4 13 -12v-352c0 -36 8.33301 -63.667 25 -83s41.667 -29 75 -29c29.333 0 56.5 9.66699 81.5 29s43.833 45 56.5 77v358c0 8 4.33301 12 13 12h65c8.66699 0 13 -4 13 -12
v-525c0 -8 -4 -12 -12 -12h-64c-8 0 -12 4 -12 12v72c-19.333 -28 -43.666 -50.833 -72.999 -68.5s-62 -26.5 -98 -26.5c-51.333 0 -91 16.5 -119 49.5zM172.999 759c-4 0 -6.66797 -1.33301 -8.00098 -4s-0.666016 -5.66699 2.00098 -9l98 -122
c3.33301 -3.33301 6 -5.66602 8 -6.99902s5 -2 9 -2h47c4 0 6.83301 1.5 8.5 4.5s1.16699 6.5 -1.5 10.5l-85 120c-2 3.33301 -4 5.66602 -6 6.99902s-5 2 -9 2h-63z" />
    <glyph glyph-name="uacute" unicode="&#xfa;" horiz-adv-x="586" 
d="M123 38.5c-28 33 -42.001 76.833 -42.001 131.5v367c0 8 4.33301 12 13 12h65c8.66699 0 13 -4 13 -12v-352c0 -36 8.33301 -63.667 25 -83s41.667 -29 75 -29c29.333 0 56.5 9.66699 81.5 29s43.833 45 56.5 77v358c0 8 4.33301 12 13 12h65c8.66699 0 13 -4 13 -12
v-525c0 -8 -4 -12 -12 -12h-64c-8 0 -12 4 -12 12v72c-19.333 -28 -43.666 -50.833 -72.999 -68.5s-62 -26.5 -98 -26.5c-51.333 0 -91 16.5 -119 49.5zM245.999 630c-2 -2 -3 -4.33301 -3 -7c0 -5.33301 3.33301 -8 10 -8h46c4 0 7 0.5 9 1.5s4.66699 3.5 8 7.5l99 122
c1.33301 1.33301 2 3.33301 2 6c0 4.66699 -3 7 -9 7h-63c-6 0 -11 -3 -15 -9z" />
    <glyph glyph-name="ucircumflex" unicode="&#xfb;" horiz-adv-x="586" 
d="M123 38.5c-28 33 -42.001 76.833 -42.001 131.5v367c0 8 4.33301 12 13 12h65c8.66699 0 13 -4 13 -12v-352c0 -36 8.33301 -63.667 25 -83s41.667 -29 75 -29c29.333 0 56.5 9.66699 81.5 29s43.833 45 56.5 77v358c0 8 4.33301 12 13 12h65c8.66699 0 13 -4 13 -12
v-525c0 -8 -4 -12 -12 -12h-64c-8 0 -12 4 -12 12v72c-19.333 -28 -43.666 -50.833 -72.999 -68.5s-62 -26.5 -98 -26.5c-51.333 0 -91 16.5 -119 49.5zM429.999 624c0 -6 -3.33301 -9.00098 -10 -9.00098h-51c-5.33301 0 -9.66602 2.66699 -12.999 8l-64 87l-63 -87
c-4.66699 -5.33301 -9.33398 -8 -14.001 -8h-51c-2.66699 0 -5 0.833008 -7 2.5s-3 3.83398 -3 6.50098c0 1.33301 1.66699 4.33301 5 9l90 118c3.33301 5.33301 8 8 14 8h58c6 0 10.667 -2.66699 14 -8l91 -118c2.66699 -3.33301 4 -6.33301 4 -9z" />
    <glyph glyph-name="udieresis" unicode="&#xfc;" horiz-adv-x="586" 
d="M123 38.5c-28 33 -42.001 76.833 -42.001 131.5v367c0 8 4.33301 12 13 12h65c8.66699 0 13 -4 13 -12v-352c0 -36 8.33301 -63.667 25 -83s41.667 -29 75 -29c29.333 0 56.5 9.66699 81.5 29s43.833 45 56.5 77v358c0 8 4.33301 12 13 12h65c8.66699 0 13 -4 13 -12
v-525c0 -8 -4 -12 -12 -12h-64c-8 0 -12 4 -12 12v72c-19.333 -28 -43.666 -50.833 -72.999 -68.5s-62 -26.5 -98 -26.5c-51.333 0 -91 16.5 -119 49.5zM237.999 730v-85c0 -10 -5 -15 -15 -15h-48c-10.667 0 -16 5 -16 15v85c0 9.33301 5.33301 14 16 14h48
c10 0 15 -4.66699 15 -14zM424.999 730v-85c0 -10 -5 -15 -15 -15h-48c-10.667 0 -16 5 -16 15v85c0 9.33301 5.33301 14 16 14h48c10 0 15 -4.66699 15 -14z" />
    <glyph glyph-name="yacute" unicode="&#xfd;" horiz-adv-x="536" 
d="M503.5 545c2.33301 -2.66699 2.83105 -6.33496 1.49805 -11.002l-196 -535c-36 -99.333 -85.667 -168.666 -149 -207.999c-5.33301 -3.33301 -9.66602 -5 -12.999 -5s-7 2 -11 6l-38 41c-2.66699 4 -4 7.33301 -4 10c0 4.66699 2.33301 8.33398 7 11.001
c32 20 57.5 42.5 76.5 67.5s35.167 59.833 48.5 104.5l-195 508c-0.666992 1.33301 -1 3 -1 5c0 2.66699 1.16699 5 3.5 7s5.16602 3 8.49902 3h70c8 0 13.333 -4 16 -12l85 -236c28.667 -81.333 48.334 -142 59.001 -182h1c14 50.667 30.333 102.667 49 156l9 26l81 237
c2.66699 7.33301 8.33398 11 17.001 11h65c4 0 7.16699 -1.33301 9.5 -4zM225.998 629.999c-2 -2 -3 -4.33301 -3 -7c0 -5.33301 3.33301 -8 10 -8h46c4 0 7 0.5 9 1.5s4.66699 3.5 8 7.5l99 122c1.33301 1.33301 2 3.33301 2 6c0 4.66699 -3 7 -9 7h-63c-6 0 -11 -3 -15 -9
z" />
    <glyph glyph-name="thorn" unicode="&#xfe;" horiz-adv-x="595" 
d="M173 474c13.333 24 34 44.168 62 60.501s60.667 24.5 98 24.5c59.333 0 106.333 -18.833 141 -56.5s52 -87.834 52 -150.501v-154c0 -62.667 -17.167 -113.167 -51.5 -151.5s-80.5 -57.5 -138.5 -57.5c-38 0 -71 8.16699 -99 24.5s-48.667 36.5 -62 60.5v-263
c0 -7.33301 -3.66699 -11 -11 -11h-68c-7.33301 0 -11 3.66699 -11 11v937c0 7.33301 3.66699 11 11 11h66c7.33301 0 11 -3.66699 11 -11v-274zM214 441.001c-26 -24.667 -39 -58.334 -39 -101.001v-130c0 -43.333 13 -77.333 39 -102s57.667 -37 95 -37
c40 0 71 11.833 93 35.5s33 58.167 33 103.5v130c0 44.667 -11 78.834 -33 102.501s-53 35.5 -93 35.5c-37.333 0 -69 -12.333 -95 -37z" />
    <glyph glyph-name="ydieresis" unicode="&#xff;" horiz-adv-x="536" 
d="M503.5 545c2.33301 -2.66699 2.83105 -6.33496 1.49805 -11.002l-196 -535c-36 -99.333 -85.667 -168.666 -149 -207.999c-5.33301 -3.33301 -9.66602 -5 -12.999 -5s-7 2 -11 6l-38 41c-2.66699 4 -4 7.33301 -4 10c0 4.66699 2.33301 8.33398 7 11.001
c32 20 57.5 42.5 76.5 67.5s35.167 59.833 48.5 104.5l-195 508c-0.666992 1.33301 -1 3 -1 5c0 2.66699 1.16699 5 3.5 7s5.16602 3 8.49902 3h70c8 0 13.333 -4 16 -12l85 -236c28.667 -81.333 48.334 -142 59.001 -182h1c14 50.667 30.333 102.667 49 156l9 26l81 237
c2.66699 7.33301 8.33398 11 17.001 11h65c4 0 7.16699 -1.33301 9.5 -4zM217.998 729.999v-85c0 -10 -5 -15 -15 -15h-48c-10.667 0 -16 5 -16 15v85c0 9.33301 5.33301 14 16 14h48c10 0 15 -4.66699 15 -14zM404.998 729.999v-85c0 -10 -5 -15 -15 -15h-48
c-10.667 0 -16 5 -16 15v85c0 9.33301 5.33301 14 16 14h48c10 0 15 -4.66699 15 -14z" />
    <glyph glyph-name="Amacron" unicode="&#x100;" horiz-adv-x="641" 
d="M610 9c0 -2.66699 -0.832031 -4.83203 -2.49902 -6.49902s-3.83398 -2.5 -6.50098 -2.5h-73c-7.33301 0 -12 3.66699 -14 11l-62 194h-265l-62 -194c-2 -7.33301 -7.33301 -11 -16 -11h-67c-4 0 -6.83301 1.33301 -8.5 4s-1.83398 6 -0.500977 10l225 706
c2 8 7.33301 12 16 12h91c4.66699 0 8.33398 -0.833008 11.001 -2.5s4.66699 -4.83398 6 -9.50098l227 -706c0.666992 -1.33301 1 -3 1 -5zM425.001 291.002l-41.999 133c-30.667 100 -51.334 170 -62.001 210h-2c-20 -73.333 -41 -144 -63 -212l-42 -131h211z
M458.002 879.002v-43c0 -8.66699 -4 -13 -12 -13h-252c-8 0 -12 4.33301 -12 13v43c0 8.66699 4 13 12 13h252c8 0 12 -4.33301 12 -13z" />
    <glyph glyph-name="amacron" unicode="&#x101;" horiz-adv-x="554" 
d="M420.5 516c35 -28.667 52.499 -71.334 52.499 -128.001v-376c0 -8 -4.33301 -12 -13 -12h-60c-8.66699 0 -13 4 -13 12v72c-17.333 -30 -40.333 -53.167 -69 -69.5s-60.334 -24.5 -95.001 -24.5c-51.333 0 -92.333 15 -123 45s-46 68.667 -46 116
c0 100.667 66.667 156 200 166c24 2 46.333 3 67 3c15.333 0 36.333 -0.666992 63 -2v64c0 68 -36.667 102 -110 102c-32.667 0 -57.167 -5.66699 -73.5 -17s-28.833 -29.666 -37.5 -54.999c-1.33301 -4.66699 -3.16602 -7.66699 -5.49902 -9s-6.16602 -1.33301 -11.499 0
l-59 16c-8.66699 2 -11.667 7 -9 15c9.33301 39.333 30.833 70 64.5 92s78.5 33 134.5 33c60.667 0 108.5 -14.333 143.5 -43zM327.499 92c24.333 18 43.167 43 56.5 75v88c-25.333 1.33301 -45 2 -59 2c-20 0 -41 -1 -63 -3c-40 -4 -70.167 -13.667 -90.5 -29
s-30.5 -38.333 -30.5 -69c0 -27.333 9 -49.333 27 -66s42.667 -25 74 -25c32.667 0 61.167 9 85.5 27zM421 696v-43c0 -8.66699 -4 -13 -12 -13h-252c-8 0 -12 4.33301 -12 13v43c0 8.66699 4 13 12 13h252c8 0 12 -4.33301 12 -13z" />
    <glyph glyph-name="Abreve" unicode="&#x102;" horiz-adv-x="641" 
d="M610 9c0 -2.66699 -0.832031 -4.83203 -2.49902 -6.49902s-3.83398 -2.5 -6.50098 -2.5h-73c-7.33301 0 -12 3.66699 -14 11l-62 194h-265l-62 -194c-2 -7.33301 -7.33301 -11 -16 -11h-67c-4 0 -6.83301 1.33301 -8.5 4s-1.83398 6 -0.500977 10l225 706
c2 8 7.33301 12 16 12h91c4.66699 0 8.33398 -0.833008 11.001 -2.5s4.66699 -4.83398 6 -9.50098l227 -706c0.666992 -1.33301 1 -3 1 -5zM425.001 291.002l-41.999 133c-30.667 100 -51.334 170 -62.001 210h-2c-20 -73.333 -41 -144 -63 -212l-42 -131h211z
M445.002 912.002c0 -20 -5.16699 -39.168 -15.5 -57.501s-25 -33.166 -44 -44.499s-40.833 -17 -65.5 -17c-36.667 0 -66.667 11.667 -90 35s-35 51.333 -35 84c0 2.66699 1 5 3 7s4.66699 3 8 3h39c6 0 9 -3 9 -9c0 -16.667 6 -31.5 18 -44.5s28 -19.5 48 -19.5
s36 6.5 48 19.5s18 27.833 18 44.5c0 6 3.33301 9 10 9h38c7.33301 0 11 -3.33301 11 -10z" />
    <glyph glyph-name="abreve" unicode="&#x103;" horiz-adv-x="554" 
d="M420.5 516c35 -28.667 52.499 -71.334 52.499 -128.001v-376c0 -8 -4.33301 -12 -13 -12h-60c-8.66699 0 -13 4 -13 12v72c-17.333 -30 -40.333 -53.167 -69 -69.5s-60.334 -24.5 -95.001 -24.5c-51.333 0 -92.333 15 -123 45s-46 68.667 -46 116
c0 100.667 66.667 156 200 166c24 2 46.333 3 67 3c15.333 0 36.333 -0.666992 63 -2v64c0 68 -36.667 102 -110 102c-32.667 0 -57.167 -5.66699 -73.5 -17s-28.833 -29.666 -37.5 -54.999c-1.33301 -4.66699 -3.16602 -7.66699 -5.49902 -9s-6.16602 -1.33301 -11.499 0
l-59 16c-8.66699 2 -11.667 7 -9 15c9.33301 39.333 30.833 70 64.5 92s78.5 33 134.5 33c60.667 0 108.5 -14.333 143.5 -43zM327.499 92c24.333 18 43.167 43 56.5 75v88c-25.333 1.33301 -45 2 -59 2c-20 0 -41 -1 -63 -3c-40 -4 -70.167 -13.667 -90.5 -29
s-30.5 -38.333 -30.5 -69c0 -27.333 9 -49.333 27 -66s42.667 -25 74 -25c32.667 0 61.167 9 85.5 27zM408 729c0 -20 -5.16699 -39.168 -15.5 -57.501s-25 -33.166 -44 -44.499s-40.833 -17 -65.5 -17c-36.667 0 -66.667 11.667 -90 35s-35 51.333 -35 84
c0 2.66699 1 5 3 7s4.66699 3 8 3h39c6 0 9 -3 9 -9c0 -16.667 6 -31.5 18 -44.5s28 -19.5 48 -19.5s36 6.5 48 19.5s18 27.833 18 44.5c0 6 3.33301 9 10 9h38c7.33301 0 11 -3.33301 11 -10z" />
    <glyph glyph-name="Aogonek" unicode="&#x104;" horiz-adv-x="641" 
d="M527 -38c-17.333 -17.333 -26.001 -36.332 -26.001 -56.999c0 -16 4.66699 -29 14 -39s22 -15 38 -15c6.66699 0 15 1.66699 25 5c1.33301 0.666992 3.33301 1 6 1c4 0 6.33301 -2 7 -6l12 -43l1 -4c0 -4 -2.66699 -7.33301 -8 -10
c-6 -3.33301 -14.167 -6.16602 -24.5 -8.49902s-20.166 -3.5 -29.499 -3.5c-30.667 0 -56.167 9.16699 -76.5 27.5s-30.5 42.833 -30.5 73.5c0 50.667 26.667 92.667 80 126c-0.666992 0 -1 0.666992 -1 2l-62 194h-265l-62 -194c-2 -7.33301 -7.33301 -11 -16 -11h-67
c-4 0 -6.83301 1.33301 -8.5 4s-1.83398 6 -0.500977 10l225 706c2 8 7.33301 12 16 12h91c4.66699 0 8.33398 -0.833008 11.001 -2.5s4.66699 -4.83398 6 -9.50098l227 -706c0.666992 -1.33301 1 -3 1 -5c0 -2.66699 -0.833008 -4.83398 -2.5 -6.50098
s-3.83398 -2.5 -6.50098 -2.5h-7c-27.333 -8 -49.666 -20.667 -66.999 -38zM424.999 291.001l-41.999 133c-30.667 100 -51.334 170 -62.001 210h-2c-20 -73.333 -41 -144 -63 -212l-42 -131h211z" />
    <glyph glyph-name="aogonek" unicode="&#x105;" horiz-adv-x="554" 
d="M420.5 516c35 -28.667 52.499 -71.335 52.499 -128.002v-376c0 -8 -4.33301 -12 -13 -12c-27.333 -8 -49.666 -20.667 -66.999 -38s-26 -36.333 -26 -57c0 -16 4.66699 -29 14 -39s22 -15 38 -15c6.66699 0 15 1.66699 25 5c1.33301 0.666992 3.33301 1 6 1
c4 0 6.33301 -2 7 -6l12 -43l1 -4c0 -4 -2.66699 -7.33301 -8 -10c-6 -3.33301 -14.167 -6.16602 -24.5 -8.49902s-20.166 -3.5 -29.499 -3.5c-30.667 0 -56.334 9.16699 -77.001 27.5s-31 42.833 -31 73.5c0 28 7.66699 52.833 23 74.5s36.666 40.167 63.999 55.5v71
c-17.333 -30 -40.333 -53.167 -69 -69.5s-60.334 -24.5 -95.001 -24.5c-51.333 0 -92.333 15 -123 45s-46 68.667 -46 116c0 100.667 66.667 156 200 166c24 2 46.333 3 67 3c15.333 0 36.333 -0.666992 63 -2v64c0 68 -36.667 102 -110 102
c-32.667 0 -57.167 -5.66699 -73.5 -17s-28.833 -29.666 -37.5 -54.999c-1.33301 -4.66699 -3.16602 -7.66699 -5.49902 -9s-6.16602 -1.33301 -11.499 0l-59 16c-8.66699 2 -11.667 7 -9 15c9.33301 39.333 30.833 70 64.5 92s78.5 33 134.5 33
c60.667 0 108.5 -14.333 143.5 -43zM327.499 91.999c24.333 18 43.167 43 56.5 75v88c-25.333 1.33301 -45 2 -59 2c-20 0 -41 -1 -63 -3c-40 -4 -70.167 -13.667 -90.5 -29s-30.5 -38.333 -30.5 -69c0 -27.333 9 -49.333 27 -66s42.667 -25 74 -25
c32.667 0 61.167 9 85.5 27z" />
    <glyph glyph-name="Cacute" unicode="&#x106;" horiz-adv-x="613" 
d="M560 574c0.666992 -2 1.00098 -4.33398 1.00098 -7.00098c0 -6.66699 -3 -11 -9 -13l-59 -18c-4 -1.33301 -6.66699 -2 -8 -2c-5.33301 0 -9 3.33301 -11 10c-12.667 36.667 -30.334 64.334 -53.001 83.001s-54 28 -94 28c-49.333 0 -87.5 -14.5 -114.5 -43.5
s-40.5 -72.833 -40.5 -131.5v-228c0 -58.667 13.667 -102.5 41 -131.5s65.333 -43.5 114 -43.5c79.333 0 130 39.333 152 118c2 7.33301 5.66699 11 11 11l8 -2l59 -19c8.66699 -4 11.667 -10.667 9 -20c-16 -55.333 -44 -98.5 -84 -129.5s-92 -46.5 -156 -46.5
c-76 0 -136.333 22.667 -181 68s-67 108 -67 188v242c0 80 22.333 142.667 67 188s105 68 181 68c120.667 0 198.667 -56.333 234 -169zM276.001 812.999c-2 -2 -3 -4.33301 -3 -7c0 -5.33301 3.33301 -8 10 -8h46c4 0 7 0.5 9 1.5s4.66699 3.5 8 7.5l99 122
c1.33301 1.33301 2 3.33301 2 6c0 4.66699 -3 7 -9 7h-63c-6 0 -11 -3 -15 -9z" />
    <glyph glyph-name="cacute" unicode="&#x107;" horiz-adv-x="532" 
d="M410.5 522c34.333 -25.333 57.1689 -60.667 68.502 -106l1 -4c0 -6 -3.66699 -10 -11 -12l-54 -16c-2 -0.666992 -4.33301 -1 -7 -1c-4.66699 0 -8 3 -10 9c-8.66699 26 -21.5 47 -38.5 63s-42.5 24 -76.5 24c-39.333 0 -69.833 -11.833 -91.5 -35.5
s-32.5 -57.5 -32.5 -101.5v-136c0 -44 10.667 -77.5 32 -100.5s52 -34.5 92 -34.5c33.333 0 59 7 77 21s31.667 35 41 63c2 6.66699 5 10 9 10l9 -2l52 -19c8.66699 -2 11.667 -8 9 -18c-10.667 -40.667 -33.334 -73.667 -68.001 -99s-79.334 -38 -134.001 -38
c-65.333 0.666992 -116.666 20.167 -153.999 58.5s-56 89.5 -56 153.5v145c0 64 18.667 115.667 56 155s88.666 59 153.999 59c54 0 98.167 -12.667 132.5 -38zM233.003 629.999c-2 -2 -3 -4.33301 -3 -7c0 -5.33301 3.33301 -8 10 -8h46c4 0 7 0.5 9 1.5s4.66699 3.5 8 7.5
l99 122c1.33301 1.33301 2 3.33301 2 6c0 4.66699 -3 7 -9 7h-63c-6 0 -11 -3 -15 -9z" />
    <glyph glyph-name="Cdotaccent" unicode="&#x10a;" horiz-adv-x="613" 
d="M560 574c0.666992 -2 1.00098 -4.33398 1.00098 -7.00098c0 -6.66699 -3 -11 -9 -13l-59 -18c-4 -1.33301 -6.66699 -2 -8 -2c-5.33301 0 -9 3.33301 -11 10c-12.667 36.667 -30.334 64.334 -53.001 83.001s-54 28 -94 28c-49.333 0 -87.5 -14.5 -114.5 -43.5
s-40.5 -72.833 -40.5 -131.5v-228c0 -58.667 13.667 -102.5 41 -131.5s65.333 -43.5 114 -43.5c79.333 0 130 39.333 152 118c2 7.33301 5.66699 11 11 11l8 -2l59 -19c8.66699 -4 11.667 -10.667 9 -20c-16 -55.333 -44 -98.5 -84 -129.5s-92 -46.5 -156 -46.5
c-76 0 -136.333 22.667 -181 68s-67 108 -67 188v242c0 80 22.333 142.667 67 188s105 68 181 68c120.667 0 198.667 -56.333 234 -169zM362.001 912.999v-85c0 -10 -5.33301 -15 -16 -15h-48c-10.667 0 -16 5 -16 15v85c0 9.33301 5.33301 14 16 14h48
c10.667 0 16 -4.66699 16 -14z" />
    <glyph glyph-name="cdotaccent" unicode="&#x10b;" horiz-adv-x="532" 
d="M410.5 522c34.333 -25.333 57.1689 -60.667 68.502 -106l1 -4c0 -6 -3.66699 -10 -11 -12l-54 -16c-2 -0.666992 -4.33301 -1 -7 -1c-4.66699 0 -8 3 -10 9c-8.66699 26 -21.5 47 -38.5 63s-42.5 24 -76.5 24c-39.333 0 -69.833 -11.833 -91.5 -35.5
s-32.5 -57.5 -32.5 -101.5v-136c0 -44 10.667 -77.5 32 -100.5s52 -34.5 92 -34.5c33.333 0 59 7 77 21s31.667 35 41 63c2 6.66699 5 10 9 10l9 -2l52 -19c8.66699 -2 11.667 -8 9 -18c-10.667 -40.667 -33.334 -73.667 -68.001 -99s-79.334 -38 -134.001 -38
c-65.333 0.666992 -116.666 20.167 -153.999 58.5s-56 89.5 -56 153.5v145c0 64 18.667 115.667 56 155s88.666 59 153.999 59c54 0 98.167 -12.667 132.5 -38zM319.003 729.999v-85c0 -10 -5.33301 -15 -16 -15h-48c-10.667 0 -16 5 -16 15v85c0 9.33301 5.33301 14 16 14
h48c10.667 0 16 -4.66699 16 -14z" />
    <glyph glyph-name="Ccaron" unicode="&#x10c;" horiz-adv-x="613" 
d="M560 574c0.666992 -2 1.00098 -4.33398 1.00098 -7.00098c0 -6.66699 -3 -11 -9 -13l-59 -18c-4 -1.33301 -6.66699 -2 -8 -2c-5.33301 0 -9 3.33301 -11 10c-12.667 36.667 -30.334 64.334 -53.001 83.001s-54 28 -94 28c-49.333 0 -87.5 -14.5 -114.5 -43.5
s-40.5 -72.833 -40.5 -131.5v-228c0 -58.667 13.667 -102.5 41 -131.5s65.333 -43.5 114 -43.5c79.333 0 130 39.333 152 118c2 7.33301 5.66699 11 11 11l8 -2l59 -19c8.66699 -4 11.667 -10.667 9 -20c-16 -55.333 -44 -98.5 -84 -129.5s-92 -46.5 -156 -46.5
c-76 0 -136.333 22.667 -181 68s-67 108 -67 188v242c0 80 22.333 142.667 67 188s105 68 181 68c120.667 0 198.667 -56.333 234 -169zM461.001 932.999c0 -2 -1.66602 -5.33203 -4.99902 -9.99902l-90 -118l-4.5 -4.5c-2.33301 -2.33301 -5.5 -3.5 -9.5 -3.5h-59
c-5.33301 0 -10 2.66699 -14 8l-90 118c-2.66699 3.33301 -4 6.66602 -4 9.99902c0 5.33301 3 8 9 8h52c5.33301 0 9.66602 -2.66699 12.999 -8l64 -87l63 87c3.33301 5.33301 8 8 14 8h51c6.66699 0 10 -2.66699 10 -8z" />
    <glyph glyph-name="ccaron" unicode="&#x10d;" horiz-adv-x="532" 
d="M410.5 522c34.333 -25.333 57.1689 -60.667 68.502 -106l1 -4c0 -6 -3.66699 -10 -11 -12l-54 -16c-2 -0.666992 -4.33301 -1 -7 -1c-4.66699 0 -8 3 -10 9c-8.66699 26 -21.5 47 -38.5 63s-42.5 24 -76.5 24c-39.333 0 -69.833 -11.833 -91.5 -35.5
s-32.5 -57.5 -32.5 -101.5v-136c0 -44 10.667 -77.5 32 -100.5s52 -34.5 92 -34.5c33.333 0 59 7 77 21s31.667 35 41 63c2 6.66699 5 10 9 10l9 -2l52 -19c8.66699 -2 11.667 -8 9 -18c-10.667 -40.667 -33.334 -73.667 -68.001 -99s-79.334 -38 -134.001 -38
c-65.333 0.666992 -116.666 20.167 -153.999 58.5s-56 89.5 -56 153.5v145c0 64 18.667 115.667 56 155s88.666 59 153.999 59c54 0 98.167 -12.667 132.5 -38zM418.003 749.999c0 -2 -1.66602 -5.33203 -4.99902 -9.99902l-90 -118l-4.5 -4.5
c-2.33301 -2.33301 -5.5 -3.5 -9.5 -3.5h-59c-5.33301 0 -10 2.66699 -14 8l-90 118c-2.66699 3.33301 -4 6.66602 -4 9.99902c0 5.33301 3 8 9 8h52c5.33301 0 9.66602 -2.66699 12.999 -8l64 -87l63 87c3.33301 5.33301 8 8 14 8h51c6.66699 0 10 -2.66699 10 -8z" />
    <glyph glyph-name="Dcaron" unicode="&#x10e;" horiz-adv-x="675" 
d="M526.5 664.5c47.667 -45 71.5 -107.5 71.5 -187.5v-221c0 -80 -23.833 -142.667 -71.5 -188s-114.834 -68 -201.501 -68h-215c-8.66699 0 -13 4 -13 12v708c0 8 4.66699 12 14 12h214c86.667 0 153.834 -22.5 201.501 -67.5zM191 644v-556h131c121.333 0 182 58 182 174
v208c0 116 -60.667 174 -182 174h-131zM463 933c0 -2 -1.66602 -5.33203 -4.99902 -9.99902l-90 -118l-4.5 -4.5c-2.33301 -2.33301 -5.5 -3.5 -9.5 -3.5h-59c-5.33301 0 -10 2.66699 -14 8l-90 118c-2.66699 3.33301 -4 6.66602 -4 9.99902c0 5.33301 3 8 9 8h52
c5.33301 0 9.66602 -2.66699 12.999 -8l64 -87l63 87c3.33301 5.33301 8 8 14 8h51c6.66699 0 10 -2.66699 10 -8z" />
    <glyph glyph-name="dcaron" unicode="&#x10f;" horiz-adv-x="628" 
d="M121 46c-34.667 37.333 -52 87.667 -52 151v153c0 63.333 17.167 114 51.5 152s80.5 57 138.5 57c38 0 71 -8.16699 99 -24.5s48.667 -36.5 62 -60.5v274c0 7.33301 3.66699 11 11 11h69c3.33301 0 6 -1 8 -3s3 -4.66699 3 -8v-737c0 -7.33301 -4.33301 -11 -13 -11h-64
c-8 0 -12 3.66699 -12 11v63c-13.333 -24 -34 -44.167 -62 -60.5s-60.667 -24.5 -98 -24.5c-59.333 0.666992 -106.333 19.667 -141 57zM381 107.501c26 24.333 39 58.166 39 101.499v128c0 44 -13 78.5 -39 103.5s-57.667 37.5 -95 37.5c-40 0 -71 -12 -93 -36
s-33 -58.667 -33 -104v-129c0 -45.333 11 -79.666 33 -102.999s53 -35 93 -35c37.333 0 69 12.167 95 36.5zM566.5 582.501c-1 3 -0.833008 5.83301 0.5 8.5c17.333 42 26 94 26 156c0 2.66699 1 5 3 7s4.66699 3 8 3h51c7.33301 0 11 -3.66699 11 -11
c-1.33301 -75.333 -14.333 -135 -39 -179c-3.33301 -5.33301 -7.33301 -7 -12 -5l-42 14c-3.33301 1.33301 -5.5 3.5 -6.5 6.5z" />
    <glyph glyph-name="Dcroat" unicode="&#x110;" horiz-adv-x="701" 
d="M553.5 664.5c47.667 -45 71.5 -107.5 71.5 -187.5v-221c0 -80 -23.833 -142.667 -71.5 -188s-114.834 -68 -201.501 -68h-215c-8.66699 0 -13 4 -13 12v313h-84c-8 0 -12 4.33301 -12 13v57c0 8.66699 4 13 12 13h84v312c0 8 4.33301 12 13 12h215
c86.667 0 153.834 -22.5 201.501 -67.5zM531 470c0 116 -61 174 -183 174h-130v-236h124c8 0 12 -4.33301 12 -13v-57c0 -8.66699 -4 -13 -12 -13h-124v-237h130c122 0 183 58 183 174v208z" />
    <glyph glyph-name="dcroat" unicode="&#x111;" horiz-adv-x="595" 
d="M571 665v-43.999c0 -8.66699 -4 -13 -12 -13h-48v-597c0 -7.33301 -4.33301 -11 -13 -11h-64c-8 0 -12 3.66699 -12 11v63c-13.333 -24 -34 -44.167 -62 -60.5s-60.667 -24.5 -98 -24.5c-59.333 0.666992 -106.333 19.667 -141 57s-52 87.666 -52 150.999v153
c0 63.333 17.167 114 51.5 152s80.5 57 138.5 57c38 0 71 -8.16699 99 -24.5s48.667 -36.5 62 -60.5v134h-136c-8 0 -12 4.33301 -12 13v44c0 9.33301 4 14 12 14h136v69c0 7.33301 3.66699 11 11 11h69c3.33301 0 6 -1 8 -3s3 -4.66699 3 -8v-69h48c8 0 12 -4.66699 12 -14
zM420 337.001c0 44 -13 78.5 -39 103.5s-57.667 37.5 -95 37.5c-40 0 -71 -12 -93 -36s-33 -58.667 -33 -104v-129c0 -45.333 11 -79.666 33 -102.999s53 -35 93 -35c37.333 0 69 12.167 95 36.5s39 58.166 39 101.499v128z" />
    <glyph glyph-name="Emacron" unicode="&#x112;" horiz-adv-x="575" 
d="M504 719v-60c0 -8.66699 -4 -13 -12 -13h-301v-232h272c8 0 12 -4.33301 12 -13v-57c0 -8.66699 -4 -13 -12 -13h-272v-245h301c8 0 12 -4.33301 12 -13v-60c0 -8.66699 -4 -13 -12 -13h-381c-9.33301 0 -14 4 -14 12v708c0 8 4.66699 12 14 12h381
c8 0 12 -4.33301 12 -13zM436 879v-43c0 -8.66699 -4 -13 -12 -13h-252c-8 0 -12 4.33301 -12 13v43c0 8.66699 4 13 12 13h252c8 0 12 -4.33301 12 -13z" />
    <glyph glyph-name="emacron" unicode="&#x113;" horiz-adv-x="562" 
d="M156 245l0.000976562 -44.002c0 -43.333 11.5 -76.5 34.5 -99.5s56.167 -34.833 99.5 -35.5c36.667 0 64.5 6.16699 83.5 18.5s34.167 30.5 45.5 54.5c4 6.66699 7.66699 10 11 10s7 -1 11 -3l43 -22c7.33301 -2.66699 11 -6.66699 11 -12c0 -2.66699 -1 -6 -3 -10
c-15.333 -35.333 -40.333 -63 -75 -83s-77.334 -30 -128.001 -30c-70 0.666992 -124.333 20.167 -163 58.5s-58 89.5 -58 153.5v147c0 63.333 19 114.333 57 153s91.667 58.334 161 59.001c68 -0.666992 120.5 -20.167 157.5 -58.5s55.5 -89.166 55.5 -152.499v-80
c0 -16 -8.66699 -24 -26 -24h-317zM190.001 447.998c-22.667 -23.333 -33.998 -56 -33.998 -98v-41h258v41c0 42 -11.333 74.667 -34 98s-54.334 35.333 -95.001 36c-40.667 -0.666992 -72.334 -12.667 -95.001 -36zM421.003 695.998v-43c0 -8.66699 -4 -13 -12 -13h-252
c-8 0 -12 4.33301 -12 13v43c0 8.66699 4 13 12 13h252c8 0 12 -4.33301 12 -13z" />
    <glyph glyph-name="Edotaccent" unicode="&#x116;" horiz-adv-x="575" 
d="M504 719v-60c0 -8.66699 -4 -13 -12 -13h-301v-232h272c8 0 12 -4.33301 12 -13v-57c0 -8.66699 -4 -13 -12 -13h-272v-245h301c8 0 12 -4.33301 12 -13v-60c0 -8.66699 -4 -13 -12 -13h-381c-9.33301 0 -14 4 -14 12v708c0 8 4.66699 12 14 12h381
c8 0 12 -4.33301 12 -13zM338 913v-85c0 -10 -5.33301 -15 -16 -15h-48c-10.667 0 -16 5 -16 15v85c0 9.33301 5.33301 14 16 14h48c10.667 0 16 -4.66699 16 -14z" />
    <glyph glyph-name="edotaccent" unicode="&#x117;" horiz-adv-x="562" 
d="M156 245l0.000976562 -44.002c0 -43.333 11.5 -76.5 34.5 -99.5s56.167 -34.833 99.5 -35.5c36.667 0 64.5 6.16699 83.5 18.5s34.167 30.5 45.5 54.5c4 6.66699 7.66699 10 11 10s7 -1 11 -3l43 -22c7.33301 -2.66699 11 -6.66699 11 -12c0 -2.66699 -1 -6 -3 -10
c-15.333 -35.333 -40.333 -63 -75 -83s-77.334 -30 -128.001 -30c-70 0.666992 -124.333 20.167 -163 58.5s-58 89.5 -58 153.5v147c0 63.333 19 114.333 57 153s91.667 58.334 161 59.001c68 -0.666992 120.5 -20.167 157.5 -58.5s55.5 -89.166 55.5 -152.499v-80
c0 -16 -8.66699 -24 -26 -24h-317zM190.001 447.998c-22.667 -23.333 -33.998 -56 -33.998 -98v-41h258v41c0 42 -11.333 74.667 -34 98s-54.334 35.333 -95.001 36c-40.667 -0.666992 -72.334 -12.667 -95.001 -36zM323.003 729.998v-85c0 -10 -5.33301 -15 -16 -15h-48
c-10.667 0 -16 5 -16 15v85c0 9.33301 5.33301 14 16 14h48c10.667 0 16 -4.66699 16 -14z" />
    <glyph glyph-name="Eogonek" unicode="&#x118;" horiz-adv-x="575" 
d="M493 0c-28 -8 -50.667 -20.6689 -68 -38.002s-26 -36.333 -26 -57c0 -16 4.83301 -29 14.5 -39s22.5 -15 38.5 -15c7.33301 0 15.333 1.66699 24 5c1.33301 0.666992 3.33301 1 6 1c4.66699 0 7.33398 -2 8.00098 -6l11 -43l1 -4
c0 -3.33301 -2.33301 -6.66602 -7 -9.99902c-6.66699 -3.33301 -15 -6.16602 -25 -8.49902s-19.667 -3.5 -29 -3.5c-30.667 0 -56.334 9.16699 -77.001 27.5s-31 42.833 -31 73.5c0 45.333 22.333 84.333 67 117h-289c-9.33301 0 -14 4 -14 12v708c0 8 4.66699 12 14 12h381
c8 0 12 -4.33301 12 -13v-60c0 -8.66699 -4 -13 -12 -13h-301v-232h272c8 0 12 -4.33301 12 -13v-57c0 -8.66699 -4 -13 -12 -13h-272v-245h301c8 0 12 -4.33301 12 -13v-60c0 -8.66699 -3.66699 -13 -11 -13z" />
    <glyph glyph-name="eogonek" unicode="&#x119;" horiz-adv-x="562" 
d="M156 245l-0.000976562 -44.0059c0 -43.333 11.5 -76.5 34.5 -99.5s56.167 -34.833 99.5 -35.5c36.667 0 64.5 6.16699 83.5 18.5s34.167 30.5 45.5 54.5c4 6.66699 7.66699 10 11 10s7 -1 11 -3l43 -22c7.33301 -2.66699 11 -6.66699 11 -12c0 -2.66699 -1 -6 -3 -10
c-10.667 -24.667 -26.167 -45.667 -46.5 -63s-44.833 -30.333 -73.5 -39c-28 -8 -50.667 -20.667 -68 -38s-26 -36.333 -26 -57c0 -16 4.66699 -29 14 -39s22 -15 38 -15c8 0 16.333 1.66699 25 5c1.33301 0.666992 3.33301 1 6 1c4 0 6.33301 -2 7 -6l12 -43l1 -4
c0 -3.33301 -2.33301 -6.66602 -7 -9.99902c-6.66699 -3.33301 -15 -6.16602 -25 -8.49902s-20 -3.5 -30 -3.5c-30.667 0 -56.167 9.16699 -76.5 27.5s-30.5 42.833 -30.5 73.5c0 42 18 77.667 54 107c-63.333 4.66699 -112.166 25.834 -146.499 63.501
s-51.5 86.834 -51.5 147.501v147c0 63.333 19 114.333 57 153s91.667 58.334 161 59.001c68 -0.666992 120.5 -20.167 157.5 -58.5s55.5 -89.166 55.5 -152.499v-80c0 -16 -8.66699 -24 -26 -24h-317zM189.999 447.994c-22.667 -23.333 -33.998 -56 -33.998 -98v-41h258v41
c0 42 -11.333 74.667 -34 98s-54.334 35.333 -95.001 36c-40.667 -0.666992 -72.334 -12.667 -95.001 -36z" />
    <glyph glyph-name="Ecaron" unicode="&#x11a;" horiz-adv-x="575" 
d="M504 719v-60c0 -8.66699 -4 -13 -12 -13h-301v-232h272c8 0 12 -4.33301 12 -13v-57c0 -8.66699 -4 -13 -12 -13h-272v-245h301c8 0 12 -4.33301 12 -13v-60c0 -8.66699 -4 -13 -12 -13h-381c-9.33301 0 -14 4 -14 12v708c0 8 4.66699 12 14 12h381
c8 0 12 -4.33301 12 -13zM437 933c0 -2 -1.66602 -5.33203 -4.99902 -9.99902l-90 -118l-4.5 -4.5c-2.33301 -2.33301 -5.5 -3.5 -9.5 -3.5h-59c-5.33301 0 -10 2.66699 -14 8l-90 118c-2.66699 3.33301 -4 6.66602 -4 9.99902c0 5.33301 3 8 9 8h52
c5.33301 0 9.66602 -2.66699 12.999 -8l64 -87l63 87c3.33301 5.33301 8 8 14 8h51c6.66699 0 10 -2.66699 10 -8z" />
    <glyph glyph-name="ecaron" unicode="&#x11b;" horiz-adv-x="562" 
d="M156 245l0.000976562 -44.002c0 -43.333 11.5 -76.5 34.5 -99.5s56.167 -34.833 99.5 -35.5c36.667 0 64.5 6.16699 83.5 18.5s34.167 30.5 45.5 54.5c4 6.66699 7.66699 10 11 10s7 -1 11 -3l43 -22c7.33301 -2.66699 11 -6.66699 11 -12c0 -2.66699 -1 -6 -3 -10
c-15.333 -35.333 -40.333 -63 -75 -83s-77.334 -30 -128.001 -30c-70 0.666992 -124.333 20.167 -163 58.5s-58 89.5 -58 153.5v147c0 63.333 19 114.333 57 153s91.667 58.334 161 59.001c68 -0.666992 120.5 -20.167 157.5 -58.5s55.5 -89.166 55.5 -152.499v-80
c0 -16 -8.66699 -24 -26 -24h-317zM190.001 447.998c-22.667 -23.333 -33.998 -56 -33.998 -98v-41h258v41c0 42 -11.333 74.667 -34 98s-54.334 35.333 -95.001 36c-40.667 -0.666992 -72.334 -12.667 -95.001 -36zM422.003 749.998
c0 -2 -1.66602 -5.33203 -4.99902 -9.99902l-90 -118l-4.5 -4.5c-2.33301 -2.33301 -5.5 -3.5 -9.5 -3.5h-59c-5.33301 0 -10 2.66699 -14 8l-90 118c-2.66699 3.33301 -4 6.66602 -4 9.99902c0 5.33301 3 8 9 8h52c5.33301 0 9.66602 -2.66699 12.999 -8l64 -87l63 87
c3.33301 5.33301 8 8 14 8h51c6.66699 0 10 -2.66699 10 -8z" />
    <glyph glyph-name="Gbreve" unicode="&#x11e;" horiz-adv-x="663" 
d="M497.5 698.5c39.667 -29.667 68.167 -70.5 85.5 -122.5c1.33301 -4 2 -6.33301 2 -7c0 -6 -3.33301 -10 -10 -12l-60 -19c-4 -1.33301 -6.66699 -2 -8 -2c-4 0 -7.66699 3.33301 -11 10c-12 36.667 -30.5 64 -55.5 82s-57.833 27 -98.5 27
c-113.333 0 -170 -58.333 -170 -175v-228c0 -58.667 14.5 -102.5 43.5 -131.5s71.167 -43.5 126.5 -43.5c50 0 89.333 12 118 36s43 60.333 43 109v83h-141c-8 0 -12 4.33301 -12 13v58c0 8.66699 4 13 12 13h218c9.33301 0 14 -4.33301 14 -13v-158
c0 -45.333 -10.5 -85.333 -31.5 -120s-50.5 -61.5 -88.5 -80.5s-82 -28.5 -132 -28.5c-83.333 0 -148.166 22.5 -194.499 67.5s-69.5 107.833 -69.5 188.5v242c0 81.333 23.167 144.333 69.5 189s111.166 67 194.499 67c64 0 115.833 -14.833 155.5 -44.5zM464 912
c0 -20 -5.16699 -39.168 -15.5 -57.501s-25 -33.166 -44 -44.499s-40.833 -17 -65.5 -17c-36.667 0 -66.667 11.667 -90 35s-35 51.333 -35 84c0 2.66699 1 5 3 7s4.66699 3 8 3h39c6 0 9 -3 9 -9c0 -16.667 6 -31.5 18 -44.5s28 -19.5 48 -19.5s36 6.5 48 19.5
s18 27.833 18 44.5c0 6 3.33301 9 10 9h38c7.33301 0 11 -3.33301 11 -10z" />
    <glyph glyph-name="gbreve" unicode="&#x11f;" horiz-adv-x="558" 
d="M478 59.5c29.333 -26.333 44.001 -61.1621 44.001 -104.495c0 -48.667 -19.833 -88.334 -59.5 -119.001s-101.5 -46 -185.5 -46c-78.667 0 -136.5 13.167 -173.5 39.5s-55.5 62.5 -55.5 108.5c0 25.333 6.83301 48.666 20.5 69.999s34.167 37.666 61.5 48.999
c-12.667 9.33301 -22.167 20.166 -28.5 32.499s-9.5 24.833 -9.5 37.5c0 16.667 4.83301 31.834 14.5 45.501s23.5 24.167 41.5 31.5c-27.333 16 -48.166 37.333 -62.499 64s-21.5 57.667 -21.5 93c0 57.333 17.5 103 52.5 137s85.833 51 152.5 51h240
c6.66699 0 10 -4 10 -12v-49c0 -8.66699 -4 -13 -12 -13h-96c17.333 -12.667 31.166 -29.834 41.499 -51.501s15.5 -46.5 15.5 -74.5c0 -52.667 -17.167 -94.834 -51.5 -126.501s-83.5 -47.5 -147.5 -47.5h-3v0h-42c-18 0 -31.5 -3.5 -40.5 -10.5s-13.5 -16.167 -13.5 -27.5
s4.5 -20.5 13.5 -27.5s22.5 -10.5 40.5 -10.5h118c61.333 0 106.666 -13.167 135.999 -39.5zM178.501 447.504c-21 -20.333 -31.5 -48.833 -31.5 -85.5c0 -37.333 10.667 -66.5 32 -87.5s51.666 -31.5 90.999 -31.5c37.333 0 66.333 9.83301 87 29.5s31 48.5 31 86.5
c0 37.333 -10.167 66.5 -30.5 87.5s-50.166 31.5 -89.499 31.5c-38.667 0 -68.5 -10.167 -89.5 -30.5zM396.501 -118.996c25.667 16.667 38.499 39.334 38.499 68.001c0 22.667 -7.83301 41 -23.5 55s-42.167 21 -79.5 21h-101c-35.333 0 -60.666 -7.33301 -75.999 -22
s-23 -33.334 -23 -56.001c0 -28.667 12 -51 36 -67s61.667 -24 113 -24s89.833 8.33301 115.5 25zM401 729.004c0 -20 -5.16699 -39.168 -15.5 -57.501s-25 -33.166 -44 -44.499s-40.833 -17 -65.5 -17c-36.667 0 -66.667 11.667 -90 35s-35 51.333 -35 84
c0 2.66699 1 5 3 7s4.66699 3 8 3h39c6 0 9 -3 9 -9c0 -16.667 6 -31.5 18 -44.5s28 -19.5 48 -19.5s36 6.5 48 19.5s18 27.833 18 44.5c0 6 3.33301 9 10 9h38c7.33301 0 11 -3.33301 11 -10z" />
    <glyph glyph-name="Gdotaccent" unicode="&#x120;" horiz-adv-x="663" 
d="M497.5 698.5c39.667 -29.667 68.167 -70.5 85.5 -122.5c1.33301 -4 2 -6.33301 2 -7c0 -6 -3.33301 -10 -10 -12l-60 -19c-4 -1.33301 -6.66699 -2 -8 -2c-4 0 -7.66699 3.33301 -11 10c-12 36.667 -30.5 64 -55.5 82s-57.833 27 -98.5 27
c-113.333 0 -170 -58.333 -170 -175v-228c0 -58.667 14.5 -102.5 43.5 -131.5s71.167 -43.5 126.5 -43.5c50 0 89.333 12 118 36s43 60.333 43 109v83h-141c-8 0 -12 4.33301 -12 13v58c0 8.66699 4 13 12 13h218c9.33301 0 14 -4.33301 14 -13v-158
c0 -45.333 -10.5 -85.333 -31.5 -120s-50.5 -61.5 -88.5 -80.5s-82 -28.5 -132 -28.5c-83.333 0 -148.166 22.5 -194.499 67.5s-69.5 107.833 -69.5 188.5v242c0 81.333 23.167 144.333 69.5 189s111.166 67 194.499 67c64 0 115.833 -14.833 155.5 -44.5zM379 913v-85
c0 -10 -5.33301 -15 -16 -15h-48c-10.667 0 -16 5 -16 15v85c0 9.33301 5.33301 14 16 14h48c10.667 0 16 -4.66699 16 -14z" />
    <glyph glyph-name="gdotaccent" unicode="&#x121;" horiz-adv-x="558" 
d="M478 59.5c29.333 -26.333 44.001 -61.1621 44.001 -104.495c0 -48.667 -19.833 -88.334 -59.5 -119.001s-101.5 -46 -185.5 -46c-78.667 0 -136.5 13.167 -173.5 39.5s-55.5 62.5 -55.5 108.5c0 25.333 6.83301 48.666 20.5 69.999s34.167 37.666 61.5 48.999
c-12.667 9.33301 -22.167 20.166 -28.5 32.499s-9.5 24.833 -9.5 37.5c0 16.667 4.83301 31.834 14.5 45.501s23.5 24.167 41.5 31.5c-27.333 16 -48.166 37.333 -62.499 64s-21.5 57.667 -21.5 93c0 57.333 17.5 103 52.5 137s85.833 51 152.5 51h240
c6.66699 0 10 -4 10 -12v-49c0 -8.66699 -4 -13 -12 -13h-96c17.333 -12.667 31.166 -29.834 41.499 -51.501s15.5 -46.5 15.5 -74.5c0 -52.667 -17.167 -94.834 -51.5 -126.501s-83.5 -47.5 -147.5 -47.5h-3v0h-42c-18 0 -31.5 -3.5 -40.5 -10.5s-13.5 -16.167 -13.5 -27.5
s4.5 -20.5 13.5 -27.5s22.5 -10.5 40.5 -10.5h118c61.333 0 106.666 -13.167 135.999 -39.5zM178.501 447.504c-21 -20.333 -31.5 -48.833 -31.5 -85.5c0 -37.333 10.667 -66.5 32 -87.5s51.666 -31.5 90.999 -31.5c37.333 0 66.333 9.83301 87 29.5s31 48.5 31 86.5
c0 37.333 -10.167 66.5 -30.5 87.5s-50.166 31.5 -89.499 31.5c-38.667 0 -68.5 -10.167 -89.5 -30.5zM396.501 -118.996c25.667 16.667 38.499 39.334 38.499 68.001c0 22.667 -7.83301 41 -23.5 55s-42.167 21 -79.5 21h-101c-35.333 0 -60.666 -7.33301 -75.999 -22
s-23 -33.334 -23 -56.001c0 -28.667 12 -51 36 -67s61.667 -24 113 -24s89.833 8.33301 115.5 25zM316 730.004v-85c0 -10 -5.33301 -15 -16 -15h-48c-10.667 0 -16 5 -16 15v85c0 9.33301 5.33301 14 16 14h48c10.667 0 16 -4.66699 16 -14z" />
    <glyph glyph-name="uni0122" unicode="&#x122;" horiz-adv-x="663" 
d="M497.5 698.5c39.667 -29.667 68.167 -70.5 85.5 -122.5c1.33301 -4 2 -6.33301 2 -7c0 -6 -3.33301 -10 -10 -12l-60 -19c-4 -1.33301 -6.66699 -2 -8 -2c-4 0 -7.66699 3.33301 -11 10c-12 36.667 -30.5 64 -55.5 82s-57.833 27 -98.5 27
c-113.333 0 -170 -58.333 -170 -175v-228c0 -58.667 14.5 -102.5 43.5 -131.5s71.167 -43.5 126.5 -43.5c50 0 89.333 12 118 36s43 60.333 43 109v83h-141c-8 0 -12 4.33301 -12 13v58c0 8.66699 4 13 12 13h218c9.33301 0 14 -4.33301 14 -13v-158
c0 -45.333 -10.5 -85.333 -31.5 -120s-50.5 -61.5 -88.5 -80.5s-82 -28.5 -132 -28.5c-83.333 0 -148.166 22.5 -194.499 67.5s-69.5 107.833 -69.5 188.5v242c0 81.333 23.167 144.333 69.5 189s111.166 67 194.499 67c64 0 115.833 -14.833 155.5 -44.5zM370 -67
c2 -2 3.00098 -4.66699 3.00098 -8c-0.666992 -36 -3.66699 -68 -9 -96s-15 -52.333 -29 -73c-0.666992 -2 -2.33398 -3.33301 -5.00098 -4s-5 -0.666992 -7 0l-39 17c-3.33301 1.33301 -5.5 3.5 -6.5 6.5s-0.833008 5.83301 0.5 8.5c16 34.667 24 81.667 24 141
c0 3.33301 1 6 3 8s4.66699 3 8 3h49c3.33301 0 6 -1 8 -3z" />
    <glyph glyph-name="uni0123" unicode="&#x123;" horiz-adv-x="558" 
d="M243 615.5c-2 2.33301 -3.00098 5.16504 -3.00098 8.49805c0.666992 36 3.66699 68 9 96s15 52 29 72c0.666992 2.66699 2.33398 4.33398 5.00098 5.00098s5 0.333984 7 -0.999023l39 -17c3.33301 -1.33301 5.5 -3.33301 6.5 -6s0.833008 -5.66699 -0.5 -9
c-16 -34 -24 -81 -24 -141c0 -2.66699 -1 -5.16699 -3 -7.5s-4.66699 -3.5 -8 -3.5h-49c-3.33301 0 -6 1.16699 -8 3.5zM477.999 59.499c29.333 -26.333 44.001 -61.1621 44.001 -104.495c0 -48.667 -19.833 -88.334 -59.5 -119.001s-101.5 -46 -185.5 -46
c-78.667 0 -136.5 13.167 -173.5 39.5s-55.5 62.5 -55.5 108.5c0 25.333 6.83301 48.666 20.5 69.999s34.167 37.666 61.5 48.999c-12.667 9.33301 -22.167 20.166 -28.5 32.499s-9.5 24.833 -9.5 37.5c0 16.667 4.83301 31.834 14.5 45.501s23.5 24.167 41.5 31.5
c-27.333 16 -48.166 37.333 -62.499 64s-21.5 57.667 -21.5 93c0 57.333 17.5 103 52.5 137s85.833 51 152.5 51h240c6.66699 0 10 -4 10 -12v-49c0 -8.66699 -4 -13 -12 -13h-96c17.333 -12.667 31.166 -29.834 41.499 -51.501s15.5 -46.5 15.5 -74.5
c0 -52.667 -17.167 -94.834 -51.5 -126.501s-83.5 -47.5 -147.5 -47.5h-3v0h-42c-18 0 -31.5 -3.5 -40.5 -10.5s-13.5 -16.167 -13.5 -27.5s4.5 -20.5 13.5 -27.5s22.5 -10.5 40.5 -10.5h118c61.333 0 106.666 -13.167 135.999 -39.5zM178.5 447.503
c-21 -20.333 -31.5 -48.833 -31.5 -85.5c0 -37.333 10.667 -66.5 32 -87.5s51.666 -31.5 90.999 -31.5c37.333 0 66.333 9.83301 87 29.5s31 48.5 31 86.5c0 37.333 -10.167 66.5 -30.5 87.5s-50.166 31.5 -89.499 31.5c-38.667 0 -68.5 -10.167 -89.5 -30.5z
M396.5 -118.997c25.667 16.667 38.499 39.334 38.499 68.001c0 22.667 -7.83301 41 -23.5 55s-42.167 21 -79.5 21h-101c-35.333 0 -60.666 -7.33301 -75.999 -22s-23 -33.334 -23 -56.001c0 -28.667 12 -51 36 -67s61.667 -24 113 -24s89.833 8.33301 115.5 25z" />
    <glyph glyph-name="Hbar" unicode="&#x126;" horiz-adv-x="729" 
d="M700 585v-45c0 -8.66699 -4 -13 -12 -13h-69v-515c0 -8 -4.33301 -12 -13 -12h-68c-8.66699 0 -13 4 -13 12v313h-321v-313c0 -8 -4.33301 -12 -13 -12h-68c-8.66699 0 -13 4 -13 12v515h-69c-8 0 -12 4.33301 -12 13v45c0 8.66699 4 13 12 13h69v121
c0 8.66699 4.33301 13 13 13h68c4.66699 0 8 -1 10 -3s3 -5.33301 3 -10v-121h321v121c0 8.66699 4.33301 13 13 13h68c4.66699 0 8 -1 10 -3s3 -5.33301 3 -10v-121h69c8 0 12 -4.33301 12 -13zM525 527h-321v-114h321v114z" />
    <glyph glyph-name="hbar" unicode="&#x127;" horiz-adv-x="586" 
d="M463 509.5c28 -33 41.9971 -76.833 41.9971 -131.5l-1 -366c0 -8 -4 -12 -12 -12h-65c-8.66699 0 -13 4 -13 12l-1 351c0 74.667 -33 112 -99 112c-29.333 0 -56.666 -9.5 -81.999 -28.5s-44.333 -44.833 -57 -77.5v-357c0 -8 -4 -12 -12 -12h-65
c-8.66699 0 -13 4 -13 12v596h-49c-8 0 -12 4.33301 -12 13v44c0 9.33301 4 14 12 14h49v68c0 8 4.33301 12 13 12h65c8 0 12 -4 12 -12v-68h136c8 0 12 -4.66699 12 -14v-44c0 -8.66699 -4 -13 -12 -13h-136v-143c18.667 28 42.334 50.667 71.001 68s61.334 26 98.001 26
c51.333 0 91 -16.5 119 -49.5z" />
    <glyph glyph-name="Imacron" unicode="&#x12a;" horiz-adv-x="289" 
d="M191 720v-708c0 -8 -4.33301 -12 -13 -12h-67c-9.33301 0 -14 4 -14 12v708c0 8 4.66699 12 14 12h67c8.66699 0 13 -4 13 -12zM283 879v-43c0 -8.66699 -4 -13 -12 -13h-252c-8 0 -12 4.33301 -12 13v43c0 8.66699 4 13 12 13h252c8 0 12 -4.33301 12 -13z" />
    <glyph glyph-name="imacron" unicode="&#x12b;" horiz-adv-x="260" 
d="M175 537v-525c0 -8 -4 -12 -12 -12h-65c-8.66699 0 -13 4 -13 12v525c0 8 4.33301 12 13 12h65c8 0 12 -4 12 -12zM268 694v-43c0 -8.66699 -4 -13 -12 -13h-252c-8 0 -12 4.33301 -12 13v43c0 8.66699 4 13 12 13h252c8 0 12 -4.33301 12 -13z" />
    <glyph glyph-name="Iogonek" unicode="&#x12e;" horiz-adv-x="289" 
d="M180 0c-27.333 -8 -49.667 -20.668 -67 -38.001s-26 -36.333 -26 -57c0 -16 4.66699 -29 14 -39s22 -15 38 -15c6.66699 0 15 1.66699 25 5c1.33301 0.666992 3.33301 1 6 1c4 0 6.33301 -2 7 -6l12 -43l1 -4c0 -4 -2.66699 -7.33301 -8 -10
c-6 -3.33301 -14.167 -6.16602 -24.5 -8.49902s-20.166 -3.5 -29.499 -3.5c-30.667 0 -56.334 9.16699 -77.001 27.5s-31 42.833 -31 73.5c0 26 7 49.5 21 70.5s33 39.167 57 54.5v4v708c0 8 4.33301 12 13 12h68c8.66699 0 13 -4 13 -12v-708c0 -8 -4 -12 -12 -12z" />
    <glyph glyph-name="iogonek" unicode="&#x12f;" horiz-adv-x="261" 
d="M85 643v85c0 10 5.33301 15 16 15h59c10.667 0 16 -5 16 -15v-85c0 -9.33301 -5.33301 -14 -16 -14h-59c-10.667 0 -16 4.66699 -16 14zM194 -197c0 -4 -2.66797 -7.33398 -8.00098 -10.001c-6 -3.33301 -14 -6.16602 -24 -8.49902s-20 -3.5 -30 -3.5
c-32 0 -57.833 9.33301 -77.5 28s-29.5 43 -29.5 73c0 24.667 5.66699 47.334 17 68.001s27 38.334 47 53.001c-2.66699 2 -4 5 -4 9v525c0 8 4.33301 12 13 12h65c8.66699 0 13 -4 13 -12v-525c0 -8 -4 -12 -12 -12c-22.667 -8.66699 -40.5 -21.834 -53.5 -39.501
s-19.5 -36.834 -19.5 -57.501c0 -16 4.66699 -28.833 14 -38.5s22 -14.5 38 -14.5c6.66699 0 15 1.66699 25 5c1.33301 0.666992 3 1 5 1c4.66699 0 7.33398 -2 8.00098 -6l12 -44z" />
    <glyph glyph-name="Idotaccent" unicode="&#x130;" horiz-adv-x="289" 
d="M191 720v-708c0 -8 -4.33301 -12 -13 -12h-67c-9.33301 0 -14 4 -14 12v708c0 8 4.66699 12 14 12h67c8.66699 0 13 -4 13 -12zM185 913v-85c0 -10 -5.33301 -15 -16 -15h-48c-10.667 0 -16 5 -16 15v85c0 9.33301 5.33301 14 16 14h48c10.667 0 16 -4.66699 16 -14z" />
    <glyph glyph-name="dotlessi" unicode="&#x131;" horiz-adv-x="260" 
d="M175 537v-525c0 -8 -4 -12 -12 -12h-65c-8.66699 0 -13 4 -13 12v525c0 8 4.33301 12 13 12h65c8 0 12 -4 12 -12z" />
    <glyph glyph-name="IJ" unicode="&#x132;" horiz-adv-x="694" 
d="M186 287l-0.00195312 -43c0 -55.333 14 -97 42 -125s67.667 -42 119 -42s91 14.167 119 42.5s42 69.833 42 124.5v475c0 8.66699 4.33301 13 13 13h68c4.66699 0 8 -1 10 -3s3 -5.33301 3 -10v-480c0 -78 -22.667 -139.167 -68 -183.5s-107.666 -66.5 -186.999 -66.5
s-141.666 21.833 -186.999 65.5s-68 105.167 -68 184.5v48c0 7.33301 3.33301 11 10 11h74c6.66699 0 10 -3.66699 10 -11zM94.998 388c-2 2 -3 4.66699 -3 8v323c0 8.66699 4.33301 13 13 13h68c4.66699 0 8 -1 10 -3s3 -5.33301 3 -10v-323c0 -3.33301 -1 -6 -3 -8
s-4.33301 -3 -7 -3h-74c-2.66699 0 -5 1 -7 3z" />
    <glyph glyph-name="ij" unicode="&#x133;" horiz-adv-x="520" 
d="M175 745v-97c0 -9.33301 -5 -14 -15 -14h-60c-10 0 -15 4.66699 -15 14v97c0 9.33301 5 14 15 14h60c10 0 15 -4.66699 15 -14zM175 537v-525c0 -8 -4 -12 -12 -12h-65c-8.66699 0 -13 4 -13 12v525c0 8 4.33301 12 13 12h65c8 0 12 -4 12 -12zM436 745v-97
c0 -9.33301 -5.33301 -14 -16 -14h-59c-10.667 0 -16 4.66699 -16 14v97c0 9.33301 5.33301 14 16 14h59c10.667 0 16 -4.66699 16 -14zM436 537v-488.001c0 -60 -9.5 -110 -28.5 -150s-46.167 -75.667 -81.5 -107c-2.66699 -2.66699 -6 -4 -10 -4s-7.66699 1.66699 -11 5
l-45 37c-3.33301 3.33301 -5 6.33301 -5 9s2 6.66699 6 12c19.333 18 34.5 34.167 45.5 48.5s20.167 33.333 27.5 57s11 52.834 11 87.501v493c0 8 4.33301 12 13 12h65c8.66699 0 13 -4 13 -12z" />
    <glyph glyph-name="uni0136" unicode="&#x136;" horiz-adv-x="627" 
d="M593 10c0 -2.66699 -1.16992 -4.99805 -3.50293 -6.99805s-5.16602 -3 -8.49902 -3h-75c-4.66699 0 -8.16699 0.666992 -10.5 2s-4.16602 3.66602 -5.49902 6.99902l-198 347l-101 -124v-220c0 -8 -4.33301 -12 -13 -12h-67c-9.33301 0 -14 4 -14 12v708
c0 8 4.66699 12 14 12h67c8.66699 0 13 -4 13 -12v-361l292 364c2.66699 3.33301 5.16699 5.66602 7.5 6.99902s5.83301 2 10.5 2h75c4.66699 0 7.83398 -1.83301 9.50098 -5.5s1.16699 -7.16699 -1.5 -10.5l-232 -286l239 -413c1.33301 -2.66699 2 -5 2 -7z
M348.997 -66.998c2 -2 3.00098 -4.66699 3.00098 -8c-0.666992 -36 -3.66699 -68 -9 -96s-15 -52.333 -29 -73c-0.666992 -2 -2.33398 -3.33301 -5.00098 -4s-5 -0.666992 -7 0l-39 17c-3.33301 1.33301 -5.5 3.5 -6.5 6.5s-0.833008 5.83301 0.5 8.5
c16 34.667 24 81.667 24 141c0 3.33301 1 6 3 8s4.66699 3 8 3h49c3.33301 0 6 -1 8 -3z" />
    <glyph glyph-name="uni0137" unicode="&#x137;" horiz-adv-x="536" 
d="M508 10c0 -6.66699 -3.66699 -10 -11 -10h-72c-4.66699 -0 -8.33398 0.833008 -11.001 2.5s-5 4.5 -7 8.5l-145 252l-87 -100v-151c0 -8 -4 -12 -12 -12h-66c-8 0 -12 4 -12 12v736c0 8 4 12 12 12h66c8 0 12 -4 12 -12v-470l219 259c6 8 13.667 12 23 12h71
c5.33301 0 8.83301 -1.83301 10.5 -5.5s0.833984 -7.16699 -2.49902 -10.5l-174 -200l184 -316c1.33301 -2.66699 2 -5 2 -7zM306 -67c2 -2 3.00098 -4.66699 3.00098 -8c-0.666992 -36 -3.66699 -68 -9 -96s-15 -52.333 -29 -73
c-0.666992 -2 -2.33398 -3.33301 -5.00098 -4s-5 -0.666992 -7 0l-39 17c-3.33301 1.33301 -5.5 3.5 -6.5 6.5s-0.833008 5.83301 0.5 8.5c16 34.667 24 81.667 24 141c0 3.33301 1 6 3 8s4.66699 3 8 3h49c3.33301 0 6 -1 8 -3z" />
    <glyph glyph-name="Lacute" unicode="&#x139;" horiz-adv-x="527" 
d="M191 720v-632h298c8 0 12 -4.33301 12 -13v-63c0 -8 -4 -12 -12 -12h-379c-8.66699 0 -13 4 -13 12v708c0 8 4.66699 12 14 12h67c8.66699 0 13 -4 13 -12zM97 813c-2 -2 -3 -4.33301 -3 -7c0 -5.33301 3.33301 -8 10 -8h46c4 0 7 0.5 9 1.5s4.66699 3.5 8 7.5l99 122
c1.33301 1.33301 2 3.33301 2 6c0 4.66699 -3 7 -9 7h-63c-6 0 -11 -3 -15 -9z" />
    <glyph glyph-name="lacute" unicode="&#x13a;" horiz-adv-x="260" 
d="M175 748v-736c0 -8 -4 -12 -12 -12h-65c-8.66699 0 -13 4 -13 12v736c0 8 4.33301 12 13 12h65c8 0 12 -4 12 -12zM84 813c-2 -2 -3 -4.33301 -3 -7c0 -5.33301 3.33301 -8 10 -8h46c4 0 7 0.5 9 1.5s4.66699 3.5 8 7.5l99 122c1.33301 1.33301 2 3.33301 2 6
c0 4.66699 -3 7 -9 7h-63c-6 0 -11 -3 -15 -9z" />
    <glyph glyph-name="uni013B" unicode="&#x13b;" horiz-adv-x="527" 
d="M191 720v-632h298c8 0 12 -4.33301 12 -13v-63c0 -8 -4 -12 -12 -12h-379c-8.66699 0 -13 4 -13 12v708c0 8 4.66699 12 14 12h67c8.66699 0 13 -4 13 -12zM310 -67c2 -2 3.00098 -4.66699 3.00098 -8c-0.666992 -36 -3.66699 -68 -9 -96s-15 -52.333 -29 -73
c-0.666992 -2 -2.33398 -3.33301 -5.00098 -4s-5 -0.666992 -7 0l-39 17c-3.33301 1.33301 -5.5 3.5 -6.5 6.5s-0.833008 5.83301 0.5 8.5c16 34.667 24 81.667 24 141c0 3.33301 1 6 3 8s4.66699 3 8 3h49c3.33301 0 6 -1 8 -3z" />
    <glyph glyph-name="uni013C" unicode="&#x13c;" horiz-adv-x="260" 
d="M175 748v-736c0 -8 -4 -12 -12 -12h-65c-8.66699 0 -13 4 -13 12v736c0 8 4.33301 12 13 12h65c8 0 12 -4 12 -12zM163 -67c2 -2 3.00098 -4.66699 3.00098 -8c-0.666992 -36 -3.66699 -68 -9 -96s-15 -52.333 -29 -73c-0.666992 -2 -2.33398 -3.33301 -5.00098 -4
s-5 -0.666992 -7 0l-39 17c-3.33301 1.33301 -5.5 3.5 -6.5 6.5s-0.833008 5.83301 0.5 8.5c16 34.667 24 81.667 24 141c0 3.33301 1 6 3 8s4.66699 3 8 3h49c3.33301 0 6 -1 8 -3z" />
    <glyph glyph-name="Lcaron" unicode="&#x13d;" horiz-adv-x="529" 
d="M191 720v-632h298c8 0 12 -4.33301 12 -13v-63c0 -8 -4 -12 -12 -12h-379c-8.66699 0 -13 4 -13 12v708c0 8 4.66699 12 14 12h67c8.66699 0 13 -4 13 -12zM319.5 556.5c-1 3 -0.833008 5.83301 0.5 8.5c17.333 42 26 94 26 156c0 2.66699 1 5 3 7s4.66699 3 8 3h51
c7.33301 0 11 -3.66699 11 -11c-1.33301 -75.333 -14.333 -135 -39 -179c-3.33301 -5.33301 -7.33301 -7 -12 -5l-42 14c-3.33301 1.33301 -5.5 3.5 -6.5 6.5z" />
    <glyph glyph-name="lcaron" unicode="&#x13e;" horiz-adv-x="293" 
d="M175 748v-736c0 -8 -4 -12 -12 -12h-65c-8.66699 0 -13 4 -13 12v736c0 8 4.33301 12 13 12h65c8 0 12 -4 12 -12zM231.5 582.5c-1 3 -0.833008 5.83301 0.5 8.5c17.333 42 26 94 26 156c0 2.66699 1 5 3 7s4.66699 3 8 3h51c7.33301 0 11 -3.66699 11 -11
c-1.33301 -75.333 -14.333 -135 -39 -179c-3.33301 -5.33301 -7.33301 -7 -12 -5l-42 14c-3.33301 1.33301 -5.5 3.5 -6.5 6.5z" />
    <glyph glyph-name="Ldot" unicode="&#x13f;" horiz-adv-x="529" 
d="M191 720v-632h298c8 0 12 -4.33301 12 -13v-63c0 -8 -4 -12 -12 -12h-379c-8.66699 0 -13 4 -13 12v708c0 8 4.66699 12 14 12h67c8.66699 0 13 -4 13 -12zM422 481v-149c0 -10 -5 -15 -15 -15h-61c-8.66699 0 -13 5 -13 15v149c0 10 4.33301 15 13 15h61
c10 0 15 -5 15 -15z" />
    <glyph glyph-name="ldot" unicode="&#x140;" horiz-adv-x="357" 
d="M175 748v-736c0 -8 -4 -12 -12 -12h-65c-8.66699 0 -13 4 -13 12v736c0 8 4.33301 12 13 12h65c8 0 12 -4 12 -12zM353 459v-149c0 -10 -5 -15 -15 -15h-61c-8.66699 0 -13 5 -13 15v149c0 10 4.33301 15 13 15h61c10 0 15 -5 15 -15z" />
    <glyph glyph-name="Lslash" unicode="&#x141;" horiz-adv-x="537" 
d="M511 75v-63.001c0 -8 -4 -12 -12 -12h-379c-8 0 -12 4 -12 12v291l-57 -32c-2.66699 -2 -5.66699 -3 -9 -3c-6.66699 0 -10 4.33301 -10 13v50c0 8 3.33301 14 10 18l66 38v333c0 8 4.33301 12 13 12h68c8.66699 0 13 -4 13 -12v-284l98 55c2 1.33301 4.66699 2 8 2
s6 -1.16699 8 -3.5s3 -5.16602 3 -8.49902v-51c0 -8 -3.33301 -14 -10 -18l-107 -61v-263h297c8 0 12 -4.33301 12 -13z" />
    <glyph glyph-name="lslash" unicode="&#x142;" horiz-adv-x="331" 
d="M289 488c7.33301 0 11 -3.99902 11 -11.999v-52c0 -8 -3.33301 -14 -10 -18l-78 -44v-350c0 -8 -4.33301 -12 -13 -12h-65c-8.66699 0 -13 4 -13 12v303l-69 -39c-3.33301 -2 -6.33301 -3 -9 -3s-5 1.16699 -7 3.5s-3 5.16602 -3 8.49902v51c0 8.66699 3 14.667 9 18
l79 45v349c0 8 4.33301 12 13 12h65c8.66699 0 13 -4 13 -12v-302l68 39c2.66699 2 5.66699 3 9 3z" />
    <glyph glyph-name="Nacute" unicode="&#x143;" horiz-adv-x="715" 
d="M618 720v-705.001c0 -10 -5.33301 -15 -16 -15h-93c-8 0 -14.667 4.66699 -20 14l-211 414c-16.667 32.667 -33.167 67.834 -49.5 105.501l-30.5 69.5l-13 29h-2c3.33301 -70 5 -133.333 5 -190v-429c0 -8.66699 -4 -13 -12 -13h-65c-9.33301 -0 -14 4.33301 -14 13v704
c0 10 5.33301 15 16 15h101c9.33301 0 16 -5 20 -15l207 -413c20 -40 50.333 -106.667 91 -200h2c-4.66699 58.667 -7 122.667 -7 192v424c0 8 4.33301 12 13 12h65c8.66699 0 13 -4 13 -12zM317 812.999c-2 -2 -3 -4.33301 -3 -7c0 -5.33301 3.33301 -8 10 -8h46
c4 0 7 0.5 9 1.5s4.66699 3.5 8 7.5l99 122c1.33301 1.33301 2 3.33301 2 6c0 4.66699 -3 7 -9 7h-63c-6 0 -11 -3 -15 -9z" />
    <glyph glyph-name="nacute" unicode="&#x144;" horiz-adv-x="586" 
d="M231.5 447c-25 -19.333 -43.833 -45 -56.5 -77v-358c0 -8 -4 -12 -12 -12h-65c-8.66699 0 -13 4 -13 12v526c0 7.33301 4 11 12 11h64c8 0 12 -3.66699 12 -11v-72c20 28 44.5 50.667 73.5 68s61.5 26 97.5 26c51.333 0 91 -16.5 119 -49.5s42 -76.833 42 -131.5v-367
c0 -8 -4.33301 -12 -13 -12h-65c-8.66699 0 -13 4 -13 12v352c0 36 -8.33301 63.667 -25 83s-42 29 -76 29c-29.333 0 -56.5 -9.66699 -81.5 -29zM250 630c-2 -2 -3 -4.33301 -3 -7c0 -5.33301 3.33301 -8 10 -8h46c4 0 7 0.5 9 1.5s4.66699 3.5 8 7.5l99 122
c1.33301 1.33301 2 3.33301 2 6c0 4.66699 -3 7 -9 7h-63c-6 0 -11 -3 -15 -9z" />
    <glyph glyph-name="uni0145" unicode="&#x145;" horiz-adv-x="715" 
d="M618 720v-705.001c0 -10 -5.33301 -15 -16 -15h-93c-8 0 -14.667 4.66699 -20 14l-211 414c-16.667 32.667 -33.167 67.834 -49.5 105.501l-30.5 69.5l-13 29h-2c3.33301 -70 5 -133.333 5 -190v-429c0 -8.66699 -4 -13 -12 -13h-65c-9.33301 -0 -14 4.33301 -14 13v704
c0 10 5.33301 15 16 15h101c9.33301 0 16 -5 20 -15l207 -413c20 -40 50.333 -106.667 91 -200h2c-4.66699 58.667 -7 122.667 -7 192v424c0 8 4.33301 12 13 12h65c8.66699 0 13 -4 13 -12zM396 -67.001c2 -2 3.00098 -4.66699 3.00098 -8
c-0.666992 -36 -3.66699 -68 -9 -96s-15 -52.333 -29 -73c-0.666992 -2 -2.33398 -3.33301 -5.00098 -4s-5 -0.666992 -7 0l-39 17c-3.33301 1.33301 -5.5 3.5 -6.5 6.5s-0.833008 5.83301 0.5 8.5c16 34.667 24 81.667 24 141c0 3.33301 1 6 3 8s4.66699 3 8 3h49
c3.33301 0 6 -1 8 -3z" />
    <glyph glyph-name="uni0146" unicode="&#x146;" horiz-adv-x="586" 
d="M231.5 447c-25 -19.333 -43.833 -45 -56.5 -77v-358c0 -8 -4 -12 -12 -12h-65c-8.66699 0 -13 4 -13 12v526c0 7.33301 4 11 12 11h64c8 0 12 -3.66699 12 -11v-72c20 28 44.5 50.667 73.5 68s61.5 26 97.5 26c51.333 0 91 -16.5 119 -49.5s42 -76.833 42 -131.5v-367
c0 -8 -4.33301 -12 -13 -12h-65c-8.66699 0 -13 4 -13 12v352c0 36 -8.33301 63.667 -25 83s-42 29 -76 29c-29.333 0 -56.5 -9.66699 -81.5 -29zM327 -67c2 -2 3.00098 -4.66699 3.00098 -8c-0.666992 -36 -3.66699 -68 -9 -96s-15 -52.333 -29 -73
c-0.666992 -2 -2.33398 -3.33301 -5.00098 -4s-5 -0.666992 -7 0l-39 17c-3.33301 1.33301 -5.5 3.5 -6.5 6.5s-0.833008 5.83301 0.5 8.5c16 34.667 24 81.667 24 141c0 3.33301 1 6 3 8s4.66699 3 8 3h49c3.33301 0 6 -1 8 -3z" />
    <glyph glyph-name="Ncaron" unicode="&#x147;" horiz-adv-x="715" 
d="M618 720v-705.001c0 -10 -5.33301 -15 -16 -15h-93c-8 0 -14.667 4.66699 -20 14l-211 414c-16.667 32.667 -33.167 67.834 -49.5 105.501l-30.5 69.5l-13 29h-2c3.33301 -70 5 -133.333 5 -190v-429c0 -8.66699 -4 -13 -12 -13h-65c-9.33301 -0 -14 4.33301 -14 13v704
c0 10 5.33301 15 16 15h101c9.33301 0 16 -5 20 -15l207 -413c20 -40 50.333 -106.667 91 -200h2c-4.66699 58.667 -7 122.667 -7 192v424c0 8 4.33301 12 13 12h65c8.66699 0 13 -4 13 -12zM502 932.999c0 -2 -1.66602 -5.33203 -4.99902 -9.99902l-90 -118l-4.5 -4.5
c-2.33301 -2.33301 -5.5 -3.5 -9.5 -3.5h-59c-5.33301 0 -10 2.66699 -14 8l-90 118c-2.66699 3.33301 -4 6.66602 -4 9.99902c0 5.33301 3 8 9 8h52c5.33301 0 9.66602 -2.66699 12.999 -8l64 -87l63 87c3.33301 5.33301 8 8 14 8h51c6.66699 0 10 -2.66699 10 -8z" />
    <glyph glyph-name="ncaron" unicode="&#x148;" horiz-adv-x="586" 
d="M231.5 447c-25 -19.333 -43.833 -45 -56.5 -77v-358c0 -8 -4 -12 -12 -12h-65c-8.66699 0 -13 4 -13 12v526c0 7.33301 4 11 12 11h64c8 0 12 -3.66699 12 -11v-72c20 28 44.5 50.667 73.5 68s61.5 26 97.5 26c51.333 0 91 -16.5 119 -49.5s42 -76.833 42 -131.5v-367
c0 -8 -4.33301 -12 -13 -12h-65c-8.66699 0 -13 4 -13 12v352c0 36 -8.33301 63.667 -25 83s-42 29 -76 29c-29.333 0 -56.5 -9.66699 -81.5 -29zM435 750c0 -2 -1.66602 -5.33203 -4.99902 -9.99902l-90 -118l-4.5 -4.5c-2.33301 -2.33301 -5.5 -3.5 -9.5 -3.5h-59
c-5.33301 0 -10 2.66699 -14 8l-90 118c-2.66699 3.33301 -4 6.66602 -4 9.99902c0 5.33301 3 8 9 8h52c5.33301 0 9.66602 -2.66699 12.999 -8l64 -87l63 87c3.33301 5.33301 8 8 14 8h51c6.66699 0 10 -2.66699 10 -8z" />
    <glyph glyph-name="Eng" unicode="&#x14a;" horiz-adv-x="716" 
d="M618 720l-0.00195312 -723.998c0 -66.667 -17 -117.834 -51 -153.501s-81.333 -53.5 -142 -53.5c-67.333 0 -123.666 25 -168.999 75c-4.66699 4.66699 -7 9 -7 13s1.66699 7.66699 5 11l38 42c4 4.66699 8.33301 7 13 7c4 0 8.33301 -2.66699 13 -8
c28 -34 63 -51 105 -51c27.333 0 49.5 7.16699 66.5 21.5s27.833 35.833 32.5 64.5l-244 468c-13.333 25.333 -27.166 53.666 -41.499 84.999l-39.5 89l-12 28h-2c3.33301 -70 5 -133 5 -189v-432c0 -8.66699 -4 -13 -12 -13h-65c-9.33301 -0 -14 4.33301 -14 13v704
c0 10 5.33301 15 16 15h101c9.33301 0 16 -5 20 -15l209 -411c2 -4 24.667 -52.333 68 -145c4 -10 8 -19 12 -27s7.33301 -15.333 10 -22h2c-5.33301 66 -8 127.667 -8 185v423c0 8 4.33301 12 13 12h65c8.66699 0 13 -4 13 -12z" />
    <glyph glyph-name="eng" unicode="&#x14b;" horiz-adv-x="586" 
d="M463 510.5c28 -33 42 -76.834 42 -131.501v-330c0 -60 -9.5 -110 -28.5 -150s-46.167 -75.667 -81.5 -107c-2.66699 -2.66699 -6 -4 -10 -4s-8 1.66699 -12 5l-44 37c-3.33301 3.33301 -5 6.33301 -5 9s2 6.66699 6 12c19.333 18 34.5 34.167 45.5 48.5
s20.167 33.333 27.5 57s11 52.834 11 87.501v320c0 36 -8.33301 63.667 -25 83s-42 29 -76 29c-29.333 0 -56.5 -9.66699 -81.5 -29s-43.833 -45 -56.5 -77v-358c0 -8 -4 -12 -12 -12h-65c-8.66699 0 -13 4 -13 12v526c0 7.33301 4 11 12 11h64c8 0 12 -3.66699 12 -11v-72
c20 28 44.5 50.667 73.5 68s61.5 26 97.5 26c51.333 0 91 -16.5 119 -49.5z" />
    <glyph glyph-name="Omacron" unicode="&#x14c;" horiz-adv-x="683" 
d="M536 674.5c46.667 -45.667 70 -108.167 70 -187.5v-240c0 -80 -23.333 -143 -70 -189s-111.667 -69 -195 -69s-148.166 22.5 -194.499 67.5s-69.5 107.833 -69.5 188.5v240c0 82 23.167 145.5 69.5 190.5s111.166 67.5 194.499 67.5s148.333 -22.833 195 -68.5zM215 612
c-29.333 -28.667 -44 -71.334 -44 -128.001v-236c0 -56.667 14.667 -99.334 44 -128.001s71.333 -43 126 -43c55.333 0 97.666 14.333 126.999 43s44 71.334 44 128.001v236c0 56.667 -14.667 99.334 -44 128.001s-71.666 43 -126.999 43
c-54.667 0 -96.667 -14.333 -126 -43zM479 879v-43c0 -8.66699 -4 -13 -12 -13h-252c-8 0 -12 4.33301 -12 13v43c0 8.66699 4 13 12 13h252c8 0 12 -4.33301 12 -13z" />
    <glyph glyph-name="omacron" unicode="&#x14d;" horiz-adv-x="580" 
d="M455 502c38 -38.667 57 -90.667 57 -156v-143c0 -66 -19 -118.167 -57 -156.5s-93 -57.5 -165 -57.5s-127 19.167 -165 57.5s-57 89.833 -57 154.5v143c0 66 19 118.5 57 157.5s93 58.5 165 58.5s127 -19.333 165 -58zM193 443.5
c-22.667 -23.667 -34.001 -57.5 -34.001 -101.5v-136c0 -44 11.333 -77.5 34 -100.5s55 -34.5 97 -34.5c42.667 0 75.334 11.5 98.001 34.5s34 56.5 34 100.5v136c0 44 -11.5 77.833 -34.5 101.5s-55.5 35.5 -97.5 35.5s-74.333 -11.833 -97 -35.5zM427.999 696v-43
c0 -8.66699 -4 -13 -12 -13h-252c-8 0 -12 4.33301 -12 13v43c0 8.66699 4 13 12 13h252c8 0 12 -4.33301 12 -13z" />
    <glyph glyph-name="Ohungarumlaut" unicode="&#x150;" horiz-adv-x="683" 
d="M536 674.5c46.667 -45.667 70 -108.167 70 -187.5v-240c0 -80 -23.333 -143 -70 -189s-111.667 -69 -195 -69s-148.166 22.5 -194.499 67.5s-69.5 107.833 -69.5 188.5v240c0 82 23.167 145.5 69.5 190.5s111.166 67.5 194.499 67.5s148.333 -22.833 195 -68.5zM215 612
c-29.333 -28.667 -44 -71.334 -44 -128.001v-236c0 -56.667 14.667 -99.334 44 -128.001s71.333 -43 126 -43c55.333 0 97.666 14.333 126.999 43s44 71.334 44 128.001v236c0 56.667 -14.667 99.334 -44 128.001s-71.666 43 -126.999 43
c-54.667 0 -96.667 -14.333 -126 -43zM374 813c-2 -2 -3 -4.33301 -3 -7c0 -5.33301 3.33301 -8 10 -8h46c4 0 7 0.5 9 1.5s4.66699 3.5 8 7.5l99 122c1.33301 1.33301 2 3.33301 2 6c0 4.66699 -3 7 -9 7h-63c-6 0 -10.667 -3 -14 -9zM226 813c-2 -2 -3 -4.33301 -3 -7
c0 -5.33301 3.33301 -8 10 -8h46c4 0 7 0.5 9 1.5s4.66699 3.5 8 7.5l99 122c1.33301 1.33301 2 3.33301 2 6c0 4.66699 -3 7 -9 7h-63c-6 0 -10.667 -3 -14 -9z" />
    <glyph glyph-name="ohungarumlaut" unicode="&#x151;" horiz-adv-x="580" 
d="M455 502c38 -38.667 57 -90.667 57 -156v-143c0 -66 -19 -118.167 -57 -156.5s-93 -57.5 -165 -57.5s-127 19.167 -165 57.5s-57 89.833 -57 154.5v143c0 66 19 118.5 57 157.5s93 58.5 165 58.5s127 -19.333 165 -58zM193 443.5
c-22.667 -23.667 -34.001 -57.5 -34.001 -101.5v-136c0 -44 11.333 -77.5 34 -100.5s55 -34.5 97 -34.5c42.667 0 75.334 11.5 98.001 34.5s34 56.5 34 100.5v136c0 44 -11.5 77.833 -34.5 101.5s-55.5 35.5 -97.5 35.5s-74.333 -11.833 -97 -35.5zM322.999 630
c-2 -2 -3 -4.33301 -3 -7c0 -5.33301 3.33301 -8 10 -8h46c4 0 7 0.5 9 1.5s4.66699 3.5 8 7.5l99 122c1.33301 1.33301 2 3.33301 2 6c0 4.66699 -3 7 -9 7h-63c-6 0 -10.667 -3 -14 -9zM174.999 630c-2 -2 -3 -4.33301 -3 -7c0 -5.33301 3.33301 -8 10 -8h46
c4 0 7 0.5 9 1.5s4.66699 3.5 8 7.5l99 122c1.33301 1.33301 2 3.33301 2 6c0 4.66699 -3 7 -9 7h-63c-6 0 -10.667 -3 -14 -9z" />
    <glyph glyph-name="OE" unicode="&#x152;" horiz-adv-x="981" 
d="M911 73v-59.999c0 -8.66699 -4 -13 -12 -13h-374c-8.66699 0 -13 4 -13 12v48c-43.333 -47.333 -104.333 -71 -183 -71c-77.333 0 -138.666 22.667 -183.999 68s-68 108 -68 188v240c0 81.333 22.667 144.666 68 189.999s106.666 68 183.999 68c80 0 141 -23.667 183 -71
v48c0 8 4.33301 12 13 12h373c8 0 12 -4.33301 12 -13v-60c0 -8.66699 -4 -13 -12 -13h-300v-232h272c8 0 12 -4.33301 12 -13v-57c0 -8.66699 -4 -13 -12 -13h-272v-245h301c8 0 12 -4.33301 12 -13zM468 120.001c29.333 28.667 44 71.334 44 128.001v236
c0 56.667 -14.667 99.334 -44 128.001s-71.333 43 -126 43c-55.333 0 -97.666 -14.333 -126.999 -43s-44 -71.334 -44 -128.001v-236c0 -56.667 14.667 -99.334 44 -128.001s71.666 -43 126.999 -43c54.667 0 96.667 14.333 126 43z" />
    <glyph glyph-name="oe" unicode="&#x153;" horiz-adv-x="918" 
d="M512 245l0.00195312 -43.998c0 -44 11.5 -77.5 34.5 -100.5s56.5 -34.5 100.5 -34.5c37.333 0 65.5 6.5 84.5 19.5s33.5 30.833 43.5 53.5c2.66699 6.66699 6.66699 10 12 10c2.66699 0 6 -1 10 -3l44 -22c6.66699 -2.66699 10 -7 10 -13c0 -2.66699 -1 -5.66699 -3 -9
c-14.667 -34 -38.834 -61.333 -72.501 -82s-75.834 -31 -126.501 -31c-42.667 0 -79.5 8.83301 -110.5 26.5s-54.167 44.167 -69.5 79.5c-15.333 -34.667 -39 -61 -71 -79s-69.333 -27 -112 -27c-70 0.666992 -123.833 20 -161.5 58s-56.5 89.333 -56.5 154v143
c0 66 19 118.333 57 157s92.333 58 163 58c42 0 78.5 -8.83301 109.5 -26.5s54.5 -43.834 70.5 -78.501c14.667 34 37.5 60 68.5 78s67.167 27 108.5 27c66 0 117.5 -19.333 154.5 -58s55.5 -89.334 55.5 -152.001v-80c0 -16 -8.66699 -24 -26 -24h-317zM546.002 448.502
c-22.667 -23 -33.999 -56.167 -33.999 -99.5v-40h255v40c0 42.667 -11 75.667 -33 99s-53 35 -93 35c-40.667 0 -72.334 -11.5 -95.001 -34.5zM421.003 341.002c0 44 -11.168 77.832 -33.501 101.499s-54.166 35.5 -95.499 35.5c-43.333 0 -76.5 -11.667 -99.5 -35
s-34.5 -57.333 -34.5 -102v-135c0 -44 11 -77.5 33 -100.5s53.667 -34.5 95 -34.5c44 0 77.5 11.333 100.5 34s34.5 56.334 34.5 101.001v135z" />
    <glyph glyph-name="Racute" unicode="&#x154;" horiz-adv-x="629" 
d="M578 9c0 -6 -3.66699 -9 -11 -9h-77c-4.66699 -0 -8.16699 0.833008 -10.5 2.5s-4.5 4.5 -6.5 8.5l-159 281h-123v-280c0 -8 -4.33301 -12 -13 -12h-67c-9.33301 0 -14 4 -14 12v708c0 8 4.66699 12 14 12h219c76 0 133 -18.667 171 -56s57 -88 57 -152v-21
c0 -52 -12.5 -95.5 -37.5 -130.5s-61.833 -58.833 -110.5 -71.5l166 -286c1.33301 -2.66699 2 -4.66699 2 -6zM191 375l132 -0.000976562c49.333 0 85.166 10.833 107.499 32.5s33.5 53.834 33.5 96.501v15c0 41.333 -11.167 72.833 -33.5 94.5s-58.166 32.5 -107.499 32.5
h-132v-271zM267 812.999c-2 -2 -3 -4.33301 -3 -7c0 -5.33301 3.33301 -8 10 -8h46c4 0 7 0.5 9 1.5s4.66699 3.5 8 7.5l99 122c1.33301 1.33301 2 3.33301 2 6c0 4.66699 -3 7 -9 7h-63c-6 0 -11 -3 -15 -9z" />
    <glyph glyph-name="racute" unicode="&#x155;" horiz-adv-x="383" 
d="M353 553.5c2 -1.66699 3 -5.16699 3 -10.5v-61c0 -4.66699 -1 -8 -3 -10s-5.33301 -3 -10 -3h-12c-38.667 0 -71.167 -9.83301 -97.5 -29.5s-45.833 -46.167 -58.5 -79.5v-349c0 -7.33301 -3.66699 -11 -11 -11h-68c-7.33301 0 -11 3.66699 -11 11v527
c0 7.33301 4 11 12 11h62c8.66699 0 13 -4 13 -12l-1 -83c16 30 38.333 54.5 67 73.5s62.667 28.5 102 28.5c6.66699 0 11 -0.833008 13 -2.5zM165 630c-2 -2 -3 -4.33301 -3 -7c0 -5.33301 3.33301 -8 10 -8h46c4 0 7 0.5 9 1.5s4.66699 3.5 8 7.5l99 122
c1.33301 1.33301 2 3.33301 2 6c0 4.66699 -3 7 -9 7h-63c-6 0 -11 -3 -15 -9z" />
    <glyph glyph-name="uni0156" unicode="&#x156;" horiz-adv-x="629" 
d="M578 9c0 -6 -3.66699 -9 -11 -9h-77c-4.66699 -0 -8.16699 0.833008 -10.5 2.5s-4.5 4.5 -6.5 8.5l-159 281h-123v-280c0 -8 -4.33301 -12 -13 -12h-67c-9.33301 0 -14 4 -14 12v708c0 8 4.66699 12 14 12h219c76 0 133 -18.667 171 -56s57 -88 57 -152v-21
c0 -52 -12.5 -95.5 -37.5 -130.5s-61.833 -58.833 -110.5 -71.5l166 -286c1.33301 -2.66699 2 -4.66699 2 -6zM191 375l132 -0.000976562c49.333 0 85.166 10.833 107.499 32.5s33.5 53.834 33.5 96.501v15c0 41.333 -11.167 72.833 -33.5 94.5s-58.166 32.5 -107.499 32.5
h-132v-271zM347 -67.001c2 -2 3.00098 -4.66699 3.00098 -8c-0.666992 -36 -3.66699 -68 -9 -96s-15 -52.333 -29 -73c-0.666992 -2 -2.33398 -3.33301 -5.00098 -4s-5 -0.666992 -7 0l-39 17c-3.33301 1.33301 -5.5 3.5 -6.5 6.5s-0.833008 5.83301 0.5 8.5
c16 34.667 24 81.667 24 141c0 3.33301 1 6 3 8s4.66699 3 8 3h49c3.33301 0 6 -1 8 -3z" />
    <glyph glyph-name="uni0157" unicode="&#x157;" horiz-adv-x="383" 
d="M353 553.5c2 -1.66699 3 -5.16699 3 -10.5v-61c0 -4.66699 -1 -8 -3 -10s-5.33301 -3 -10 -3h-12c-38.667 0 -71.167 -9.83301 -97.5 -29.5s-45.833 -46.167 -58.5 -79.5v-349c0 -7.33301 -3.66699 -11 -11 -11h-68c-7.33301 0 -11 3.66699 -11 11v527
c0 7.33301 4 11 12 11h62c8.66699 0 13 -4 13 -12l-1 -83c16 30 38.333 54.5 67 73.5s62.667 28.5 102 28.5c6.66699 0 11 -0.833008 13 -2.5zM165 -67c2 -2 3.00098 -4.66699 3.00098 -8c-0.666992 -36 -3.66699 -68 -9 -96s-15 -52.333 -29 -73
c-0.666992 -2 -2.33398 -3.33301 -5.00098 -4s-5 -0.666992 -7 0l-39 17c-3.33301 1.33301 -5.5 3.5 -6.5 6.5s-0.833008 5.83301 0.5 8.5c16 34.667 24 81.667 24 141c0 3.33301 1 6 3 8s4.66699 3 8 3h49c3.33301 0 6 -1 8 -3z" />
    <glyph glyph-name="Rcaron" unicode="&#x158;" horiz-adv-x="629" 
d="M578 9c0 -6 -3.66699 -9 -11 -9h-77c-4.66699 -0 -8.16699 0.833008 -10.5 2.5s-4.5 4.5 -6.5 8.5l-159 281h-123v-280c0 -8 -4.33301 -12 -13 -12h-67c-9.33301 0 -14 4 -14 12v708c0 8 4.66699 12 14 12h219c76 0 133 -18.667 171 -56s57 -88 57 -152v-21
c0 -52 -12.5 -95.5 -37.5 -130.5s-61.833 -58.833 -110.5 -71.5l166 -286c1.33301 -2.66699 2 -4.66699 2 -6zM191 375l132 -0.000976562c49.333 0 85.166 10.833 107.499 32.5s33.5 53.834 33.5 96.501v15c0 41.333 -11.167 72.833 -33.5 94.5s-58.166 32.5 -107.499 32.5
h-132v-271zM452 932.999c0 -2 -1.66602 -5.33203 -4.99902 -9.99902l-90 -118l-4.5 -4.5c-2.33301 -2.33301 -5.5 -3.5 -9.5 -3.5h-59c-5.33301 0 -10 2.66699 -14 8l-90 118c-2.66699 3.33301 -4 6.66602 -4 9.99902c0 5.33301 3 8 9 8h52
c5.33301 0 9.66602 -2.66699 12.999 -8l64 -87l63 87c3.33301 5.33301 8 8 14 8h51c6.66699 0 10 -2.66699 10 -8z" />
    <glyph glyph-name="rcaron" unicode="&#x159;" horiz-adv-x="383" 
d="M353 553.5c2 -1.66699 3 -5.16699 3 -10.5v-61c0 -4.66699 -1 -8 -3 -10s-5.33301 -3 -10 -3h-12c-38.667 0 -71.167 -9.83301 -97.5 -29.5s-45.833 -46.167 -58.5 -79.5v-349c0 -7.33301 -3.66699 -11 -11 -11h-68c-7.33301 0 -11 3.66699 -11 11v527
c0 7.33301 4 11 12 11h62c8.66699 0 13 -4 13 -12l-1 -83c16 30 38.333 54.5 67 73.5s62.667 28.5 102 28.5c6.66699 0 11 -0.833008 13 -2.5zM350 750c0 -2 -1.66602 -5.33203 -4.99902 -9.99902l-90 -118l-4.5 -4.5c-2.33301 -2.33301 -5.5 -3.5 -9.5 -3.5h-59
c-5.33301 0 -10 2.66699 -14 8l-90 118c-2.66699 3.33301 -4 6.66602 -4 9.99902c0 5.33301 3 8 9 8h52c5.33301 0 9.66602 -2.66699 12.999 -8l64 -87l63 87c3.33301 5.33301 8 8 14 8h51c6.66699 0 10 -2.66699 10 -8z" />
    <glyph glyph-name="Sacute" unicode="&#x15a;" horiz-adv-x="595" 
d="M444 704c38.667 -26 66.6641 -63.668 83.9971 -113.001c0.666992 -1.33301 1 -3.33301 1 -6c0 -5.33301 -3.33301 -9 -10 -11l-56 -21c-1.33301 -0.666992 -3.33301 -1 -6 -1c-4.66699 0 -8.66699 3 -12 9c-12.667 32.667 -30.667 57 -54 73s-52.666 24 -87.999 24
c-41.333 0 -74.166 -9.66699 -98.499 -29s-36.5 -45.333 -36.5 -78c0 -20 4.83301 -37.167 14.5 -51.5s26.5 -28.333 50.5 -42s59 -29.5 105 -47.5c70.667 -27.333 120.834 -57.5 150.501 -90.5s44.5 -74.833 44.5 -125.5c0 -40 -9.83301 -75.5 -29.5 -106.5
s-47.5 -55.167 -83.5 -72.5s-77.333 -26 -124 -26c-63.333 0 -115.5 14.333 -156.5 43s-69.167 70 -84.5 124l-1 5c0 6.66699 3.33301 11 10 13l58 19c2 0.666992 4.33301 1 7 1c5.33301 0 9 -3.66699 11 -11c8.66699 -35.333 26.5 -62.333 53.5 -81s61.167 -28 102.5 -28
c43.333 0 77.833 10.167 103.5 30.5s38.5 47.833 38.5 82.5c0 22 -4.5 40.5 -13.5 55.5s-24.667 29.333 -47 43s-54.5 28.5 -96.5 44.5c-75.333 29.333 -128.666 60.666 -159.999 93.999s-47 75 -47 125c0 36.667 9.5 69.834 28.5 99.501s45.667 52.834 80 69.501
s74.166 25 119.499 25c56 0 103.333 -13 142 -39zM253.997 804.999c-2 -2 -3 -4.33301 -3 -7c0 -5.33301 3.33301 -8 10 -8h46c4 0 7 0.5 9 1.5s4.66699 3.5 8 7.5l99 122c1.33301 1.33301 2 3.33301 2 6c0 4.66699 -3 7 -9 7h-63c-6 0 -11 -3 -15 -9z" />
    <glyph glyph-name="sacute" unicode="&#x15b;" horiz-adv-x="518" 
d="M386 526.5c34.667 -21.667 57.9971 -52.1641 69.9971 -91.4971l1 -5c0 -6 -3.66699 -10 -11 -12l-50 -18c-1.33301 -0.666992 -3.33301 -1 -6 -1c-5.33301 0 -9 3.33301 -11 10c-17.333 50.667 -57 76 -119 76c-33.333 0 -59.5 -6.66699 -78.5 -20
s-28.5 -31.666 -28.5 -54.999c0 -14.667 3.83301 -26.834 11.5 -36.501s21 -18.834 40 -27.501s46.833 -18.334 83.5 -29.001c62.667 -18 107.334 -39.833 134.001 -65.5s40 -59.5 40 -101.5c0 -31.333 -8.33301 -59.333 -25 -84s-40.167 -43.667 -70.5 -57
s-65.166 -20 -104.499 -20c-54 0 -99.667 11.167 -137 33.5s-62.333 53.5 -75 93.5c-0.666992 1.33301 -1 3.33301 -1 6c0 6 3.66699 10.667 11 14l45 20l8 2c5.33301 0 9.33301 -4 12 -12c7.33301 -25.333 23.166 -45.5 47.499 -60.5s53.5 -22.5 87.5 -22.5
c34.667 0 62.334 7.5 83.001 22.5s31 34.5 31 58.5c0 16 -4 29.5 -12 40.5s-22 21.167 -42 30.5s-48.667 19.333 -86 30c-59.333 17.333 -102.333 38.5 -129 63.5s-40 57.5 -40 97.5c0 45.333 17.833 82.166 53.5 110.499s82.167 42.5 139.5 42.5
c50.667 0 93.334 -10.833 128.001 -32.5zM211.997 630.003c-2 -2 -3 -4.33301 -3 -7c0 -5.33301 3.33301 -8 10 -8h46c4 0 7 0.5 9 1.5s4.66699 3.5 8 7.5l99 122c1.33301 1.33301 2 3.33301 2 6c0 4.66699 -3 7 -9 7h-63c-6 0 -11 -3 -15 -9z" />
    <glyph glyph-name="uni015E" unicode="&#x15e;" horiz-adv-x="595" 
d="M505.5 91c-18.333 -30 -44.001 -53.8369 -77.001 -71.5039s-71.5 -27.5 -115.5 -29.5l-7 -31c25.333 -5.33301 45.333 -15.166 60 -29.499s22 -32.5 22 -54.5c0 -28 -10.5 -50.833 -31.5 -68.5s-48.833 -26.5 -83.5 -26.5c-23.333 0 -44 4 -62 12
c-5.33301 2.66699 -7.33301 7.33398 -6 14.001l9 36c2.66699 6.66699 8 8.66699 16 6c12.667 -4.66699 27 -7 43 -7c14 0 25.167 3.33301 33.5 10s12.5 15.334 12.5 26.001c0 11.333 -5.33301 20.333 -16 27s-25.667 10.667 -45 12
c-2.66699 0 -4.83398 0.833008 -6.50098 2.5s-2.16699 4.16699 -1.5 7.5l15 64c-54.667 4.66699 -99.834 21 -135.501 49s-60.5 67 -74.5 117l-1 5c0 6.66699 3.33301 11 10 13l58 19c2 0.666992 4.33301 1 7 1c5.33301 0 9 -3.66699 11 -11
c8.66699 -35.333 26.5 -62.333 53.5 -81s61.167 -28 102.5 -28c43.333 0 77.833 10.167 103.5 30.5s38.5 47.833 38.5 82.5c0 22 -4.5 40.5 -13.5 55.5s-24.667 29.333 -47 43s-54.5 28.5 -96.5 44.5c-75.333 29.333 -128.666 60.666 -159.999 93.999s-47 75 -47 125
c0 36.667 9.5 69.834 28.5 99.501s45.667 52.834 80 69.501s74.166 25 119.499 25c56 0 103.333 -13 142 -39s66.667 -63.667 84 -113c0.666992 -1.33301 1 -3.33301 1 -6c0 -5.33301 -3.33301 -9 -10 -11l-56 -21c-1.33301 -0.666992 -3.33301 -1 -6 -1
c-4.66699 0 -8.66699 3 -12 9c-12.667 32.667 -30.667 57 -54 73s-52.666 24 -87.999 24c-41.333 0 -74.166 -9.66699 -98.499 -29s-36.5 -45.333 -36.5 -78c0 -20 4.83301 -37.167 14.5 -51.5s26.5 -28.333 50.5 -42s59 -29.5 105 -47.5
c70.667 -27.333 120.834 -57.5 150.501 -90.5s44.5 -74.833 44.5 -125.5c0 -38.667 -9.16699 -73 -27.5 -103z" />
    <glyph glyph-name="uni015F" unicode="&#x15f;" horiz-adv-x="518" 
d="M413.5 39c-32.333 -29.333 -75.501 -46 -129.501 -50l-8 -30c26 -5.33301 46.333 -15.166 61 -29.499s22 -32.5 22 -54.5c0 -28 -10.667 -50.833 -32 -68.5s-49.333 -26.5 -84 -26.5c-23.333 0 -43.666 4 -60.999 12c-6 2.66699 -8.33301 7.33398 -7 14.001l10 36
c2 6.66699 7 8.66699 15 6c14 -4.66699 28.333 -7 43 -7s26 3.33301 34 10s12 15.334 12 26.001c0 11.333 -5.33301 20.333 -16 27s-25.334 10.667 -44.001 12c-6.66699 0 -9.66699 3.33301 -9 10l15 64c-47.333 3.33301 -87.333 16 -120 38s-54.334 51.333 -65.001 88
c-0.666992 1.33301 -1 3.33301 -1 6c0 6 3.66699 10.667 11 14l45 20l8 2c5.33301 0 9.33301 -4 12 -12c7.33301 -25.333 23.166 -45.5 47.499 -60.5s53.5 -22.5 87.5 -22.5c34.667 0 62.334 7.5 83.001 22.5s31 34.5 31 58.5c0 16 -4 29.5 -12 40.5s-22 21.167 -42 30.5
s-48.667 19.333 -86 30c-59.333 17.333 -102.333 38.5 -129 63.5s-40 57.5 -40 97.5c0 45.333 17.833 82.166 53.5 110.499s82.167 42.5 139.5 42.5c50.667 0 93.334 -10.833 128.001 -32.5s58 -52.167 70 -91.5l1 -5c0 -6 -3.66699 -10 -11 -12l-50 -18
c-1.33301 -0.666992 -3.33301 -1 -6 -1c-5.33301 0 -9 3.33301 -11 10c-17.333 50.667 -57 76 -119 76c-33.333 0 -59.5 -6.66699 -78.5 -20s-28.5 -31.666 -28.5 -54.999c0 -14.667 3.83301 -26.834 11.5 -36.501s21 -18.834 40 -27.501s46.833 -18.334 83.5 -29.001
c62.667 -18 107.334 -39.833 134.001 -65.5s40 -59.5 40 -101.5c0 -44.667 -16.167 -81.667 -48.5 -111z" />
    <glyph glyph-name="Scaron" unicode="&#x160;" horiz-adv-x="595" 
d="M444 704c38.667 -26 66.6641 -63.668 83.9971 -113.001c0.666992 -1.33301 1 -3.33301 1 -6c0 -5.33301 -3.33301 -9 -10 -11l-56 -21c-1.33301 -0.666992 -3.33301 -1 -6 -1c-4.66699 0 -8.66699 3 -12 9c-12.667 32.667 -30.667 57 -54 73s-52.666 24 -87.999 24
c-41.333 0 -74.166 -9.66699 -98.499 -29s-36.5 -45.333 -36.5 -78c0 -20 4.83301 -37.167 14.5 -51.5s26.5 -28.333 50.5 -42s59 -29.5 105 -47.5c70.667 -27.333 120.834 -57.5 150.501 -90.5s44.5 -74.833 44.5 -125.5c0 -40 -9.83301 -75.5 -29.5 -106.5
s-47.5 -55.167 -83.5 -72.5s-77.333 -26 -124 -26c-63.333 0 -115.5 14.333 -156.5 43s-69.167 70 -84.5 124l-1 5c0 6.66699 3.33301 11 10 13l58 19c2 0.666992 4.33301 1 7 1c5.33301 0 9 -3.66699 11 -11c8.66699 -35.333 26.5 -62.333 53.5 -81s61.167 -28 102.5 -28
c43.333 0 77.833 10.167 103.5 30.5s38.5 47.833 38.5 82.5c0 22 -4.5 40.5 -13.5 55.5s-24.667 29.333 -47 43s-54.5 28.5 -96.5 44.5c-75.333 29.333 -128.666 60.666 -159.999 93.999s-47 75 -47 125c0 36.667 9.5 69.834 28.5 99.501s45.667 52.834 80 69.501
s74.166 25 119.499 25c56 0 103.333 -13 142 -39zM438.997 924.999c0 -2 -1.66602 -5.33203 -4.99902 -9.99902l-90 -118l-4.5 -4.5c-2.33301 -2.33301 -5.5 -3.5 -9.5 -3.5h-59c-5.33301 0 -10 2.66699 -14 8l-90 118c-2.66699 3.33301 -4 6.66602 -4 9.99902
c0 5.33301 3 8 9 8h52c5.33301 0 9.66602 -2.66699 12.999 -8l64 -87l63 87c3.33301 5.33301 8 8 14 8h51c6.66699 0 10 -2.66699 10 -8z" />
    <glyph glyph-name="scaron" unicode="&#x161;" horiz-adv-x="518" 
d="M386 526.5c34.667 -21.667 57.9971 -52.1641 69.9971 -91.4971l1 -5c0 -6 -3.66699 -10 -11 -12l-50 -18c-1.33301 -0.666992 -3.33301 -1 -6 -1c-5.33301 0 -9 3.33301 -11 10c-17.333 50.667 -57 76 -119 76c-33.333 0 -59.5 -6.66699 -78.5 -20
s-28.5 -31.666 -28.5 -54.999c0 -14.667 3.83301 -26.834 11.5 -36.501s21 -18.834 40 -27.501s46.833 -18.334 83.5 -29.001c62.667 -18 107.334 -39.833 134.001 -65.5s40 -59.5 40 -101.5c0 -31.333 -8.33301 -59.333 -25 -84s-40.167 -43.667 -70.5 -57
s-65.166 -20 -104.499 -20c-54 0 -99.667 11.167 -137 33.5s-62.333 53.5 -75 93.5c-0.666992 1.33301 -1 3.33301 -1 6c0 6 3.66699 10.667 11 14l45 20l8 2c5.33301 0 9.33301 -4 12 -12c7.33301 -25.333 23.166 -45.5 47.499 -60.5s53.5 -22.5 87.5 -22.5
c34.667 0 62.334 7.5 83.001 22.5s31 34.5 31 58.5c0 16 -4 29.5 -12 40.5s-22 21.167 -42 30.5s-48.667 19.333 -86 30c-59.333 17.333 -102.333 38.5 -129 63.5s-40 57.5 -40 97.5c0 45.333 17.833 82.166 53.5 110.499s82.167 42.5 139.5 42.5
c50.667 0 93.334 -10.833 128.001 -32.5zM396.997 750.003c0 -2 -1.66602 -5.33203 -4.99902 -9.99902l-90 -118l-4.5 -4.5c-2.33301 -2.33301 -5.5 -3.5 -9.5 -3.5h-59c-5.33301 0 -10 2.66699 -14 8l-90 118c-2.66699 3.33301 -4 6.66602 -4 9.99902c0 5.33301 3 8 9 8h52
c5.33301 0 9.66602 -2.66699 12.999 -8l64 -87l63 87c3.33301 5.33301 8 8 14 8h51c6.66699 0 10 -2.66699 10 -8z" />
    <glyph glyph-name="uni0162" unicode="&#x162;" horiz-adv-x="575" 
d="M546 719v-62.0029c0 -8.66699 -3.66699 -13 -11 -13h-201v-632c0 -8 -4.33301 -12 -13 -12h-15l-9 -41c25.333 -5.33301 45.333 -15.166 60 -29.499s22 -32.5 22 -54.5c0 -28 -10.5 -50.833 -31.5 -68.5s-48.833 -26.5 -83.5 -26.5c-23.333 0 -43.666 4 -60.999 12
c-6 2.66699 -8.33301 7.33398 -7 14.001l9 36c2.66699 6.66699 8 8.66699 16 6c14 -4.66699 28.333 -7 43 -7c14 0 25.167 3.33301 33.5 10s12.5 15.334 12.5 26.001c0 11.333 -5.33301 20.333 -16 27s-25.334 10.667 -44.001 12c-6.66699 0 -9.66699 3.33301 -9 10l17 74
h-6c-8 0 -12 4 -12 12v632h-200c-7.33301 0 -11 4.33301 -11 13v62c0 8.66699 3.66699 13 11 13h495c7.33301 0 11 -4.33301 11 -13z" />
    <glyph glyph-name="uni0163" unicode="&#x163;" horiz-adv-x="377" 
d="M209 470l0.00195312 -317.001c0 -48 25.333 -72 76 -72h40c8.66699 0 13 -4 13 -12v-56c0 -8.66699 -4.33301 -13 -13 -13h-53c-12 0 -27.333 1.33301 -46 4l-11 -45c25.333 -4.66699 45.5 -14.167 60.5 -28.5s22.5 -32.833 22.5 -55.5c0 -28 -10.667 -50.833 -32 -68.5
s-49.333 -26.5 -84 -26.5c-22.667 0 -43 4 -61 12c-6 3.33301 -8 8 -6 14l9 36c2.66699 6.66699 8 8.66699 16 6c12.667 -4.66699 26.667 -7 42 -7c14.667 0 26 3.33301 34 10s12 15.334 12 26.001c0 11.333 -5.33301 20.333 -16 27s-25.334 10.667 -44.001 12
c-2.66699 0 -4.83398 0.833008 -6.50098 2.5s-2.16699 4.16699 -1.5 7.5l22 95c-41.333 23.333 -62 63 -62 119v330h-75c-7.33301 0 -11 4.33301 -11 13v49c0 9.33301 3.66699 14 11 14h76v132c0 8 4.33301 12 13 12h62c8.66699 0 13 -4 13 -12v-132h117
c8 0 12 -4.66699 12 -14v-49c0 -8.66699 -4 -13 -12 -13h-117z" />
    <glyph glyph-name="Tcaron" unicode="&#x164;" horiz-adv-x="575" 
d="M546 719v-62c0 -8.66699 -3.66699 -13 -11 -13h-201v-632c0 -8 -4.33301 -12 -13 -12h-69c-8 0 -12 4 -12 12v632h-200c-7.33301 0 -11 4.33301 -11 13v62c0 8.66699 3.66699 13 11 13h495c7.33301 0 11 -4.33301 11 -13zM427 925
c0 -2 -1.66602 -5.33203 -4.99902 -9.99902l-90 -118l-4.5 -4.5c-2.33301 -2.33301 -5.5 -3.5 -9.5 -3.5h-59c-5.33301 0 -10 2.66699 -14 8l-90 118c-2.66699 3.33301 -4 6.66602 -4 9.99902c0 5.33301 3 8 9 8h52c5.33301 0 9.66602 -2.66699 12.999 -8l64 -87l63 87
c3.33301 5.33301 8 8 14 8h51c6.66699 0 10 -2.66699 10 -8z" />
    <glyph glyph-name="tcaron" unicode="&#x165;" horiz-adv-x="377" 
d="M209 678v-132h117c8 0 12 -4.66699 12 -14v-49c0 -8.66699 -4 -13 -12 -13h-117v-317c0 -48 25.333 -72 76 -72h40c8.66699 0 13 -4 13 -12v-56c0 -8.66699 -4.33301 -13 -13 -13h-53c-48.667 -0 -86.167 12.333 -112.5 37s-39.5 59 -39.5 103v330h-75
c-7.33301 0 -11 4.33301 -11 13v49c0 9.33301 3.66699 14 11 14h76v132c0 8 4.33301 12 13 12h62c8.66699 0 13 -4 13 -12zM293.5 613.5c-1 3 -0.833008 5.83301 0.5 8.5c17.333 42 26 94 26 156c0 2.66699 1 5 3 7s4.66699 3 8 3h51c7.33301 0 11 -3.66699 11 -11
c-1.33301 -75.333 -14.333 -135 -39 -179c-3.33301 -5.33301 -7.33301 -7 -12 -5l-42 14c-3.33301 1.33301 -5.5 3.5 -6.5 6.5z" />
    <glyph glyph-name="Tbar" unicode="&#x166;" horiz-adv-x="596" 
d="M556 719v-62c0 -8.66699 -3.66699 -13 -11 -13h-201v-236h125c8 0 12 -4.33301 12 -13v-57c0 -8.66699 -4 -13 -12 -13h-125v-313c0 -8 -4 -12 -12 -12h-70c-8 0 -12 4 -12 12v313h-123c-8 0 -12 4.33301 -12 13v57c0 8.66699 4 13 12 13h123v236h-200
c-7.33301 0 -11 4.33301 -11 13v62c0 8.66699 3.66699 13 11 13h495c7.33301 0 11 -4.33301 11 -13z" />
    <glyph glyph-name="tbar" unicode="&#x167;" horiz-adv-x="386" 
d="M215 470l0.000976562 -120h117c8 0 12 -4.33301 12 -13v-42c0 -8.66699 -4 -13 -12 -13h-117v-129c0 -48 25.333 -72 76 -72h40c8.66699 0 13 -4 13 -12v-56c0 -8.66699 -4.33301 -13 -13 -13h-53c-48.667 -0 -86.334 12.333 -113.001 37s-40 59 -40 103v142h-74
c-8 0 -12 4.33301 -12 13v42c0 8.66699 4 13 12 13h74v120h-74c-8 0 -12 4.33301 -12 13v49c0 9.33301 4 14 12 14h75v132c0 8 4.33301 12 13 12h63c8.66699 0 13 -4 13 -12v-132h117c8 0 12 -4.66699 12 -14v-49c0 -8.66699 -4 -13 -12 -13h-117z" />
    <glyph glyph-name="Umacron" unicode="&#x16a;" horiz-adv-x="691" 
d="M596 729c2 -2 2.99902 -5.33301 2.99902 -10v-480c0 -78 -22.5 -139.167 -67.5 -183.5s-107.167 -66.5 -186.5 -66.5c-78.667 0 -140.5 21.833 -185.5 65.5s-67.5 105.167 -67.5 184.5v480c0 8.66699 4.33301 13 13 13h68c4.66699 0 8 -1 10 -3s3 -5.33301 3 -10v-475
c0 -55.333 13.833 -97 41.5 -125s66.834 -42 117.501 -42s90 14 118 42s42 69.667 42 125v475c0 4.66699 1 8 3 10s5.33301 3 10 3h68c4.66699 0 8 -1 10 -3zM484.999 871v-43c0 -8.66699 -4 -13 -12 -13h-252c-8 0 -12 4.33301 -12 13v43c0 8.66699 4 13 12 13h252
c8 0 12 -4.33301 12 -13z" />
    <glyph glyph-name="umacron" unicode="&#x16b;" horiz-adv-x="586" 
d="M123 38.5c-28 33 -42.001 76.833 -42.001 131.5v367c0 8 4.33301 12 13 12h65c8.66699 0 13 -4 13 -12v-352c0 -36 8.33301 -63.667 25 -83s41.667 -29 75 -29c29.333 0 56.5 9.66699 81.5 29s43.833 45 56.5 77v358c0 8 4.33301 12 13 12h65c8.66699 0 13 -4 13 -12
v-525c0 -8 -4 -12 -12 -12h-64c-8 0 -12 4 -12 12v72c-19.333 -28 -43.666 -50.833 -72.999 -68.5s-62 -26.5 -98 -26.5c-51.333 0 -91 16.5 -119 49.5zM429.999 696v-43c0 -8.66699 -4 -13 -12 -13h-252c-8 0 -12 4.33301 -12 13v43c0 8.66699 4 13 12 13h252
c8 0 12 -4.33301 12 -13z" />
    <glyph glyph-name="Uring" unicode="&#x16e;" horiz-adv-x="691" 
d="M596 729c2 -2 2.99902 -5.33301 2.99902 -10v-480c0 -78 -22.5 -139.167 -67.5 -183.5s-107.167 -66.5 -186.5 -66.5c-78.667 0 -140.5 21.833 -185.5 65.5s-67.5 105.167 -67.5 184.5v480c0 8.66699 4.33301 13 13 13h68c4.66699 0 8 -1 10 -3s3 -5.33301 3 -10v-475
c0 -55.333 13.833 -97 41.5 -125s66.834 -42 117.501 -42s90 14 118 42s42 69.667 42 125v475c0 4.66699 1 8 3 10s5.33301 3 10 3h68c4.66699 0 8 -1 10 -3zM268.999 794.5c-22 21.667 -33 47.5 -33 77.5s11 55.833 33 77.5s48 32.5 78 32.5s56 -10.833 78 -32.5
s33 -47.5 33 -77.5s-11 -55.833 -33 -77.5s-48 -32.5 -78 -32.5s-56 10.833 -78 32.5zM389.999 829c12 12 18 26.333 18 43s-6 31 -18 43s-26.333 18 -43 18s-31 -6 -43 -18s-18 -26.333 -18 -43s6 -31 18 -43s26.333 -18 43 -18s31 6 43 18z" />
    <glyph glyph-name="uring" unicode="&#x16f;" horiz-adv-x="586" 
d="M123 38.5c-28 33 -42.001 76.833 -42.001 131.5v367c0 8 4.33301 12 13 12h65c8.66699 0 13 -4 13 -12v-352c0 -36 8.33301 -63.667 25 -83s41.667 -29 75 -29c29.333 0 56.5 9.66699 81.5 29s43.833 45 56.5 77v358c0 8 4.33301 12 13 12h65c8.66699 0 13 -4 13 -12
v-525c0 -8 -4 -12 -12 -12h-64c-8 0 -12 4 -12 12v72c-19.333 -28 -43.666 -50.833 -72.999 -68.5s-62 -26.5 -98 -26.5c-51.333 0 -91 16.5 -119 49.5zM213.999 620.5c-22 21.667 -33 47.5 -33 77.5s11 55.833 33 77.5s48 32.5 78 32.5s56 -10.833 78 -32.5
s33 -47.5 33 -77.5s-11 -55.833 -33 -77.5s-48 -32.5 -78 -32.5s-56 10.833 -78 32.5zM334.999 655c12 12 18 26.333 18 43s-6 31 -18 43s-26.333 18 -43 18s-31 -6 -43 -18s-18 -26.333 -18 -43s6 -31 18 -43s26.333 -18 43 -18s31 6 43 18z" />
    <glyph glyph-name="Uhungarumlaut" unicode="&#x170;" horiz-adv-x="691" 
d="M596 729c2 -2 2.99902 -5.33301 2.99902 -10v-480c0 -78 -22.5 -139.167 -67.5 -183.5s-107.167 -66.5 -186.5 -66.5c-78.667 0 -140.5 21.833 -185.5 65.5s-67.5 105.167 -67.5 184.5v480c0 8.66699 4.33301 13 13 13h68c4.66699 0 8 -1 10 -3s3 -5.33301 3 -10v-475
c0 -55.333 13.833 -97 41.5 -125s66.834 -42 117.501 -42s90 14 118 42s42 69.667 42 125v475c0 4.66699 1 8 3 10s5.33301 3 10 3h68c4.66699 0 8 -1 10 -3zM379.999 805c-2 -2 -3 -4.33301 -3 -7c0 -5.33301 3.33301 -8 10 -8h46c4 0 7 0.5 9 1.5s4.66699 3.5 8 7.5
l99 122c1.33301 1.33301 2 3.33301 2 6c0 4.66699 -3 7 -9 7h-63c-6 0 -10.667 -3 -14 -9zM231.999 805c-2 -2 -3 -4.33301 -3 -7c0 -5.33301 3.33301 -8 10 -8h46c4 0 7 0.5 9 1.5s4.66699 3.5 8 7.5l99 122c1.33301 1.33301 2 3.33301 2 6c0 4.66699 -3 7 -9 7h-63
c-6 0 -10.667 -3 -14 -9z" />
    </font>
</defs>
</svg>
