<?xml version="1.0" standalone="no"?>
<!DOCTYPE svg PUBLIC "-//W3C//DTD SVG 1.1//EN" "http://www.w3.org/Graphics/SVG/1.1/DTD/svg11.dtd" >
<svg>
<metadata>
Created by FontForge 20090914 at Tue Jun 21 12:41:50 2016
 By www-data
Copyright (c) 2015 by Newlyn Works Limited. All rights reserved.
</metadata>
<defs>
<font id="TPFrank-LightItalic" horiz-adv-x="567" >
  <font-face 
    font-family="TP Frank Light"
    font-weight="300"
    font-style="italic"
    font-stretch="normal"
    units-per-em="1000"
    panose-1="0 0 4 0 0 0 0 0 0 0"
    ascent="800"
    descent="-200"
    x-height="547"
    cap-height="732"
    bbox="-192 -242.822 1044 976"
    underline-thickness="50"
    underline-position="-50"
    slope="-9"
    unicode-range="U+000D-U+FB02"
  />
<missing-glyph horiz-adv-x="600" 
 />
    <glyph glyph-name="fi" unicode="fi" horiz-adv-x="581" 
d="M377 746l-3.99805 -28c-0.666992 -8 -5 -12 -13 -12h-31c-29.333 0 -52.333 -7 -69 -21s-27.334 -36.667 -32.001 -68l-12 -73h117c7.33301 0 10.666 -3.66699 9.99902 -11l-4 -27c-0.666992 -8 -5 -12 -13 -12h-118l-76 -484c-0.666992 -2.66699 -2 -5 -4 -7
s-4.66699 -3 -8 -3h-36c-8 -0 -11.333 3.33301 -10 10l77 484h-76c-3.33301 0 -5.83301 1 -7.5 3s-2.16699 4.66699 -1.5 8l4 28c1.33301 7.33301 5.33301 11 12 11h77l11 72c14.667 94 68 141 160 141h38c7.33301 0 10.333 -3.66699 9 -11zM558.002 745l-16.001 -97
c-1.33301 -7.33301 -5.66602 -11 -12.999 -11h-35c-3.33301 0 -5.83301 1 -7.5 3s-2.16699 4.66699 -1.5 8l15 97c2 8 6.66699 12 14 12h34c8 0 11.333 -4 10 -12zM525.001 537l-84 -527c-1.33301 -6.66699 -5.33301 -10 -12 -10h-36c-7.33301 -0 -10.333 3.33301 -9 10
l84 527c1.33301 6.66699 5.33301 10 12 10h36c7.33301 0 10.333 -3.33301 9 -10z" />
    <glyph glyph-name="fl" unicode="fl" horiz-adv-x="581" 
d="M377 746l-3.99805 -28c-0.666992 -8 -5 -12 -13 -12h-31c-29.333 0 -52.333 -7 -69 -21s-27.334 -36.667 -32.001 -68l-12 -73h117c7.33301 0 10.666 -3.66699 9.99902 -11l-4 -27c-0.666992 -8 -5 -12 -13 -12h-118l-76 -484c-0.666992 -2.66699 -2 -5 -4 -7
s-4.66699 -3 -8 -3h-36c-8 -0 -11.333 3.33301 -10 10l77 484h-76c-3.33301 0 -5.83301 1 -7.5 3s-2.16699 4.66699 -1.5 8l4 28c1.33301 7.33301 5.33301 11 12 11h77l11 72c14.667 94 68 141 160 141h38c7.33301 0 10.333 -3.66699 9 -11zM558.002 747l-117 -737
c-1.33301 -6.66699 -5.33301 -10 -12 -10h-36c-7.33301 -0 -10.333 3.33301 -9 10l117 737c1.33301 6.66699 5.33301 10 12 10h36c7.33301 0 10.333 -3.33301 9 -10z" />
    <glyph glyph-name=".notdef" horiz-adv-x="600" 
 />
    <glyph glyph-name="nonmarkingreturn" unicode="&#xd;" horiz-adv-x="600" 
 />
    <glyph glyph-name="space" unicode=" " horiz-adv-x="286" 
 />
    <glyph glyph-name="exclam" unicode="!" horiz-adv-x="248" 
d="M219 720l-43.498 -249.001c-18.333 -102 -30.5 -165.667 -36.5 -191c-0.666992 -6.66699 -4.33398 -10 -11.001 -10h-22c-6.66699 0 -9.66699 3.33301 -9 10c2.66699 25.333 11.667 94.333 27 207s26.333 190.334 33 233.001c1.33301 8 5.66602 12 12.999 12h40
c7.33301 0 10.333 -4 9 -12zM130.002 168.999l-24 -158c-2 -7.33301 -6.33301 -11 -13 -11h-37c-7.33301 0 -10.333 3.66699 -9 11l24 157c2 7.33301 6.33301 11 13 11h37c7.33301 0 10.333 -3.33301 9 -10z" />
    <glyph glyph-name="quotedbl" unicode="&#x22;" horiz-adv-x="372" 
d="M206 720l-46 -254c-0.666992 -8 -4.66699 -12 -12 -12h-24c-6.66699 0 -9.66699 4 -9 12l33 254c1.33301 8 5.66602 12 12.999 12h34c8.66699 0 12.334 -4 11.001 -12zM349 720l-46 -254c-0.666992 -8 -4.66699 -12 -12 -12h-24c-6.66699 0 -9.66699 4 -9 12l33 254
c1.33301 8 5.66602 12 12.999 12h34c8.66699 0 12.334 -4 11.001 -12z" />
    <glyph glyph-name="numbersign" unicode="#" horiz-adv-x="651" 
d="M620 520l-5.00195 -29c-1.33301 -6.66699 -5.66602 -10 -12.999 -10h-110l-66 -230h114c8 0 11 -3.66699 9 -11l-4 -29c-1.33301 -6.66699 -5.66602 -10 -12.999 -10h-120l-55 -192c-2 -6 -6.66699 -9 -14 -9h-29c-7.33301 -0 -10 4.33301 -8 13l54 188h-150l-55 -192
c-2 -6 -6.33301 -9 -13 -9h-29c-7.33301 0 -10 4 -8 12l54 189h-104c-7.33301 0 -10.333 3.66699 -9 11l4 29c2 6.66699 6.66699 10 14 10h110l65 230h-113c-7.33301 0 -10.666 3.66699 -9.99902 11l5 29c1.33301 6.66699 5.66602 10 12.999 10h120l55 192
c2 6 6.33301 9 13 9h29c7.33301 0 10 -3.66699 8 -11l-54 -190h150l55 192c2 6 6.33301 9 13 9h29c3.33301 0 5.83301 -1 7.5 -3s2.16699 -4.66699 1.5 -8l-55 -190h104c8 0 11.333 -3.66699 10 -11zM440.998 481h-151l-65 -230h150z" />
    <glyph glyph-name="dollar" unicode="$" 
d="M534 580c0 -2.66699 -0.669922 -4.66992 -2.00293 -6.00293s-3.66602 -2.66602 -6.99902 -3.99902l-30 -12c-1.33301 -0.666992 -3.33301 -1 -6 -1c-4 0 -6.66699 3 -8 9c-16 62 -55 97 -117 105l-44 -276c60 -31.333 101.833 -61 125.5 -89s35.5 -61.333 35.5 -100
c0 -37.333 -9.16699 -71 -27.5 -101s-44 -53.667 -77 -71s-70.833 -27 -113.5 -29l-11 -74c-0.666992 -2.66699 -2 -5 -4 -7s-4.66699 -3 -8 -3h-32c-7.33301 0 -10.333 3.33301 -9 10l12 76c-49.333 5.33301 -89.166 21.333 -119.499 48s-48.166 61.334 -53.499 104.001
l-1 5c0 4.66699 3.33301 8 10 10l29 10l6 1c5.33301 0 8.33301 -3 9 -9c4 -34 17.333 -61 40 -81s53.667 -32 93 -36l47 295c-55.333 28 -95.333 56.667 -120 86s-37 62.333 -37 99c0 34 9 64.833 27 92.5s43 49.834 75 66.501s68.333 26 109 28l11 69
c1.33301 6.66699 5.33301 10 12 10h32c3.33301 0 5.83301 -1 7.5 -3s2.16699 -4.33301 1.5 -7l-12 -71c42.667 -5.33301 77.5 -20 104.5 -44s44.5 -56.333 52.5 -97v-3zM195.497 477.497c15.667 -18.333 44.168 -38.833 85.501 -61.5l41 256
c-44.667 -3.33301 -80.834 -16.833 -108.501 -40.5s-41.5 -53.5 -41.5 -89.5c0 -24.667 7.83301 -46.167 23.5 -64.5zM398.998 270.497c-16 19 -45.666 39.833 -88.999 62.5l-43 -275c47.333 3.33301 85.166 18 113.499 44s42.5 59.333 42.5 100c0 26.667 -8 49.5 -24 68.5z
" />
    <glyph glyph-name="percent" unicode="%" horiz-adv-x="780" 
d="M333.5 715c20.333 -18 30.5 -43 30.5 -75c0 -5.33301 -0.666992 -14 -2 -26l-20 -125c-6 -42 -22 -73.833 -48 -95.5s-58 -32.5 -96 -32.5c-33.333 0 -60.166 9 -80.499 27s-30.5 43 -30.5 75c0 5.33301 0.666992 14 2 26l20 125c6 42 22 73.833 48 95.5s58 32.5 96 32.5
c33.333 0 60.166 -9 80.499 -27zM665.5 728c1.66699 -2.66699 1.16699 -5.66699 -1.5 -9l-485 -709c-4.66699 -6.66699 -9.66699 -10 -15 -10h-26c-3.33301 -0 -5.83301 1.33301 -7.5 4s-1.16699 5.66699 1.5 9l485 709c4.66699 6.66699 9.66699 10 15 10h26
c3.33301 0 5.83301 -1.33301 7.5 -4zM153 611l-19 -117.999c-1.33301 -10.667 -2 -18.334 -2 -23.001c0 -43.333 23.333 -65 70 -65c54.667 0 86.667 29 96 87l19 118c1.33301 12 2 20 2 24c0 42.667 -23.333 64 -70 64c-54.667 0 -86.667 -29 -96 -87zM677.5 344.001
c20.333 -18 30.5 -43 30.5 -75c0 -5.33301 -0.666992 -14 -2 -26l-20 -125c-6 -42 -22 -73.833 -48 -95.5s-58 -32.5 -96 -32.5c-33.333 0 -60.166 9 -80.499 27s-30.5 43 -30.5 75c0 5.33301 0.666992 14 2 26l20 125c6 42 22 73.833 48 95.5s58 32.5 96 32.5
c33.333 0 60.166 -9 80.499 -27zM497 240.001l-19 -117.999c-1.33301 -10.667 -2 -18.334 -2 -23.001c0 -43.333 23.333 -65 70 -65c54.667 0 86.667 29 96 87l19 118c1.33301 12 2 20 2 24c0 42.667 -23.333 64 -70 64c-54.667 0 -86.667 -29 -96 -87z" />
    <glyph glyph-name="ampersand" unicode="&#x26;" horiz-adv-x="649" 
d="M599 362c-12 -44 -29.168 -87.667 -51.501 -131s-46.5 -80 -72.5 -110l73 -108l2 -5c0 -5.33301 -3 -8 -9 -8h-42c-7.33301 0 -12.666 3 -15.999 9l-49 72c-30.667 -29.333 -63.667 -51.833 -99 -67.5s-71.333 -23.5 -108 -23.5c-52 0 -94.167 15.333 -126.5 46
s-48.5 71 -48.5 121c0 100.667 60 176 180 226l-6 8c-21.333 32 -36.666 60.333 -45.999 85s-14 49 -14 73c0 35.333 8.66699 67.833 26 97.5s40.833 53.167 70.5 70.5s62.5 26 98.5 26c46.667 0 83.667 -12 111 -36s41 -56.667 41 -98c0 -48 -18.167 -93.667 -54.5 -137
s-86.166 -79 -149.499 -107l136 -200c22 26.667 42.167 58.167 60.5 94.5s32.166 74.5 41.499 114.5c1.33301 4.66699 3.16602 8 5.49902 10s5.83301 2.66699 10.5 2l29 -8c6.66699 -2 9 -7.33301 7 -16zM234.999 489.5c8 -21 21.001 -44.833 39.001 -71.5l9 -13
c53.333 21.333 95.333 49.5 126 84.5s46 72.167 46 111.5c0 30 -8.33301 52.833 -25 68.5s-40.667 23.5 -72 23.5c-38.667 0 -70.834 -13.667 -96.501 -41s-38.5 -61 -38.5 -101c0 -20 4 -40.5 12 -61.5zM405 125l-147 218c-98.667 -41.333 -148 -100 -148 -176
c0 -37.333 11.333 -67.5 34 -90.5s52.334 -34.5 89.001 -34.5c61.333 0 118.666 27.667 171.999 83z" />
    <glyph glyph-name="quotesingle" unicode="'" horiz-adv-x="230" 
d="M206 720l-46 -254c-0.666992 -8 -4.66699 -12 -12 -12h-24c-6.66699 0 -9.66699 4 -9 12l33 254c1.33301 8 5.66602 12 12.999 12h34c8.66699 0 12.334 -4 11.001 -12z" />
    <glyph glyph-name="parenleft" unicode="(" horiz-adv-x="301" 
d="M293 762l20.002 -19c2.66699 -2 4 -4.66699 4 -8c0 -2 -1 -4.66699 -3 -8c-135.333 -182.667 -203 -388 -203 -616c0 -103.333 19.667 -199.333 59 -288l2 -5c0 -4 -2.33301 -7.33301 -7 -10l-26 -14c-6 -3.33301 -10 -5 -12 -5c-2.66699 0 -5.33398 3 -8.00098 9
c-21.333 44 -37.833 93.167 -49.5 147.5s-17.5 110.5 -17.5 168.5c0 120.667 19.167 236.667 57.5 348s92.166 210.333 161.499 297c4 6 8 9 12 9c2.66699 0 6 -2 10 -6z" />
    <glyph glyph-name="parenright" unicode=")" horiz-adv-x="302" 
d="M-4 -207l-20.002 19.001c-2.66699 2 -4 4.33301 -4 7c0 3.33301 1.33301 6.33301 4 9c134.667 183.333 202 388.666 202 615.999c0 103.333 -19.667 199.333 -59 288l-2 5c0 4 2.33301 7.33301 7 10l26 14c6 3.33301 10 5 12 5c2.66699 0 5.33398 -3 8.00098 -9
c21.333 -44 37.833 -93.167 49.5 -147.5s17.5 -110.5 17.5 -168.5c0 -120.667 -19.167 -236.667 -57.5 -348s-92.166 -210.333 -161.499 -297c-4 -6 -7.66699 -9 -11 -9s-7 2 -11 6z" />
    <glyph glyph-name="asterisk" unicode="*" horiz-adv-x="450" 
d="M422 605c0 -6 -3.33496 -10.001 -10.002 -12.001l-117 -29l57 -101c1.33301 -2.66699 2 -4.66699 2 -6c0 -3.33301 -2.66699 -6.66602 -8 -9.99902l-19 -12c-2 -1.33301 -4.66699 -2 -8 -2s-6 1.66699 -8 5l-49 109l-84 -107c-6 -6 -11.667 -7 -17 -3l-18 14
c-2.66699 2.66699 -4 5.66699 -4 9s1.33301 6.33301 4 9l86 95l-108 31c-7.33301 2.66699 -9.33301 7.66699 -6 15l9 21c2 5.33301 5 8 9 8c2 0 5 -0.666992 9 -2l106 -39l15 121c0.666992 4.66699 1.83398 8 3.50098 10s4.83398 3 9.50098 3h23c4.66699 0 7.66699 -1 9 -3
s1.66602 -5.33301 0.999023 -10l-22 -120l116 38c4 1.33301 6.66699 2 8 2c4.66699 0 7.33398 -3 8.00098 -9l3 -22v-3z" />
    <glyph glyph-name="plus" unicode="+" 
d="M526.5 331.5c1.66699 -1.66699 2.50098 -4.83398 2.50098 -9.50098v-34c0 -7.33301 -3.66699 -11 -11 -11h-206v-213c0 -3.33301 -0.666992 -5.83301 -2 -7.5s-4.33301 -2.5 -9 -2.5h-36c-4.66699 0 -7.83398 0.666992 -9.50098 2s-2.5 4 -2.5 8v213h-207
c-3.33301 0 -5.83301 0.833008 -7.5 2.5s-2.5 4.5 -2.5 8.5v34c0 4.66699 0.666992 7.83398 2 9.50098s4 2.5 8 2.5h207v212c0 6.66699 4 10 12 10h36c7.33301 0 11 -3.33301 11 -10v-212h206c4 0 6.83301 -0.833008 8.5 -2.5z" />
    <glyph glyph-name="comma" unicode="," horiz-adv-x="237" 
d="M121 127c-10 -64 -21.6689 -113.167 -35.002 -147.5s-33.333 -68.833 -60 -103.5c-5.33301 -7.33301 -11.666 -9 -18.999 -5l-19 10c-4.66699 2 -7 5 -7 9c0 0.666992 1.33301 3.66699 4 9c16.667 25.333 29.167 46.666 37.5 63.999s15.333 37.833 21 61.5
s11.834 57.834 18.501 102.501c2 7.33301 6.66699 11 14 11h35c8 0 11.333 -3.66699 10 -11z" />
    <glyph glyph-name="hyphen" unicode="-" horiz-adv-x="477" 
d="M389 322l-5.00098 -33c-0.666992 -8 -4.66699 -12 -12 -12h-280c-4 0 -6.66699 0.833008 -8 2.5s-1.66602 4.5 -0.999023 8.5l5 33c1.33301 8 5.33301 12 12 12h281c7.33301 0 10 -3.66699 8 -11z" />
    <glyph glyph-name="period" unicode="." horiz-adv-x="237" 
d="M125 168l-25 -157c-1.33301 -7.33301 -5.66602 -11 -12.999 -11h-36c-8 0 -11.333 3.66699 -10 11l25 157c1.33301 7.33301 5.66602 11 12.999 11h36c8 0 11.333 -3.66699 10 -11z" />
    <glyph glyph-name="slash" unicode="/" horiz-adv-x="393" 
d="M370 732l37 0.000976562c3.33301 0 5.5 -1 6.5 -3s0.833008 -4.66699 -0.5 -8l-393 -911c-2.66699 -6.66699 -7 -10 -13 -10h-36c-3.33301 0 -5.66602 1.16699 -6.99902 3.5s-1.33301 5.16602 0 8.49902l393 911c3.33301 6 7.66602 9 12.999 9z" />
    <glyph glyph-name="zero" unicode="0" 
d="M478.5 696.5c33 -30.333 49.5 -72.834 49.5 -127.501c0 -12.667 -1.66699 -28 -5 -46l-50 -314c-10.667 -69.333 -36.667 -123.166 -78 -161.499s-93.333 -57.5 -156 -57.5c-56 0 -100.5 15.167 -133.5 45.5s-49.5 72.833 -49.5 127.5c0 14.667 1 30 3 46l50 314
c11.333 70 38 124 80 162s94.333 57 157 57c55.333 0 99.5 -15.167 132.5 -45.5zM229.5 645.499c-31 -26.333 -51.167 -68.168 -60.5 -125.501l-49 -308c-2.66699 -20 -4 -33.667 -4 -41c0 -40.667 11.167 -71.5 33.5 -92.5s53.5 -31.5 93.5 -31.5
c45.333 0 83 13.833 113 41.5s49 68.834 57 123.501l49 308c3.33301 16.667 5 31 5 43c0 40.667 -11.167 71.167 -33.5 91.5s-52.833 30.5 -91.5 30.5c-44 0 -81.5 -13.167 -112.5 -39.5z" />
    <glyph glyph-name="one" unicode="1" 
d="M469 46l-6 -34c-0.666992 -8 -4.66699 -12 -12 -12h-380c-7.33301 0 -10.333 3.66699 -9 11l6 34c0.666992 8 4.66699 12 12 12h165l96 607l-182 -73c-2.66699 -1.33301 -5 -2 -7 -2c-4 0 -7 2.66699 -9 8l-10 28c-0.666992 1.33301 -1 3 -1 5c0 6 2.66699 10 8 12
l213 85c8 3.33301 14.667 5 20 5h27c7.33301 0 10.333 -3.33301 9 -10l-105 -665h156c6.66699 0 9.66699 -3.66699 9 -11z" />
    <glyph glyph-name="two" unicode="2" 
d="M459 46l-6.00195 -34c-0.666992 -8 -4.66699 -12 -12 -12h-399c-8 0 -12.333 3.66699 -13 11l-2 30c0 5.33301 0.5 9.5 1.5 12.5s2.83301 5.83301 5.5 8.5l232 219c54 50.667 94.667 91.667 122 123s46.333 59.666 57 84.999s16 53 16 83c0 35.333 -10.333 63 -31 83
s-50 30 -88 30c-39.333 0 -72.833 -9.83301 -100.5 -29.5s-51.5 -50.167 -71.5 -91.5c-2.66699 -6 -8 -8 -16 -6l-33 10c-6.66699 2 -8 7 -4 15c24.667 54 55.834 94 93.501 120s83.167 39 136.5 39c54 0 96.667 -14.667 128 -44s47 -69 47 -119
c0 -33.333 -5.5 -64.333 -16.5 -93s-31.667 -61.667 -62 -99s-75.166 -83.666 -134.499 -138.999l-204 -191h345c6.66699 0 9.66699 -3.66699 9 -11z" />
    <glyph glyph-name="three" unicode="3" 
d="M465 438.5c-26 -29.667 -56.3369 -49.8311 -91.0039 -60.498c30.667 -8.66699 55.334 -26.167 74.001 -52.5s28 -56.833 28 -91.5c0 -10 -2 -26.667 -6 -50c-10 -61.333 -35.5 -109 -76.5 -143s-93.167 -51 -156.5 -51c-53.333 0 -97.666 14.167 -132.999 42.5
s-56 66.5 -62 114.5v6c0 3.33301 0.666992 6 2 8s3.66602 3.33301 6.99902 4l32 9l5 1c4.66699 0 7.66699 -3.33301 9 -10c5.33301 -38 20.5 -67.333 45.5 -88s56.833 -31 95.5 -31c48 0 87 12.5 117 37.5s48.667 60.833 56 107.5c2.66699 20.667 4 34.667 4 42
c0 37.333 -12.167 66 -36.5 86s-58.833 30 -103.5 30h-36c-6.66699 0 -9.66699 4 -9 12l5 32c0.666992 8.66699 5 13 13 13h35c44.667 0 82.667 12.167 114 36.5s50 56.5 56 96.5c4 21.333 6 36.666 6 45.999c0 32.667 -10.667 57.667 -32 75s-51.666 26 -90.999 26
c-71.333 0 -125.666 -36.667 -162.999 -110c-4 -6.66699 -9.33301 -9 -16 -7l-30 14c-6 2.66699 -7.66699 7.66699 -5 15c22 46.667 51.833 82.334 89.5 107.001s80.834 37 129.501 37c55.333 0 98.833 -13.5 130.5 -40.5s47.5 -63.833 47.5 -110.5
c0 -10.667 -2 -28.334 -6 -53.001c-6 -36.667 -22 -69.834 -48 -99.501z" />
    <glyph glyph-name="four" unicode="4" 
d="M502 192l-5.00098 -34c-1.33301 -6.66699 -5.33301 -10 -12 -10h-92l-22 -138c-1.33301 -6.66699 -5.33301 -10 -12 -10h-36c-3.33301 0 -5.83301 1 -7.5 3s-2.16699 4.33301 -1.5 7l22 138h-295c-8 0 -12.333 3.66699 -13 11l-3 26v4c0 4.66699 2.33301 10.667 7 18
l327 517c2.66699 5.33301 7.33398 8 14.001 8h40c4.66699 0 7.5 -1.5 8.5 -4.5s0.166992 -6.16699 -2.5 -9.5l-326 -515h252l34 213c0.666992 6.66699 4.66699 10 12 10h36c6.66699 0 9.66699 -3.33301 9 -10l-34 -213h91c8 0 11 -3.66699 9 -11z" />
    <glyph glyph-name="five" unicode="5" 
d="M521.5 729c1.66699 -2 2.16699 -4.66699 1.5 -8l-6 -33c-0.666992 -8 -4.33398 -12 -11.001 -12h-298l-44 -275l3 -1c42 47.333 95.333 71 160 71c50 0 89.5 -15.167 118.5 -45.5s43.5 -71.166 43.5 -122.499c0 -16.667 -4 -49 -12 -97c-10.667 -68 -37 -121 -79 -159
s-95.333 -57 -160 -57c-51.333 0 -93.5 13.333 -126.5 40s-53.833 64 -62.5 112v4c0 3.33301 0.5 5.83301 1.5 7.5s3.16699 3.16699 6.5 4.5l33 9l6 1c4 0 6.66699 -2.66699 8 -8c6.66699 -37.333 21.5 -65.666 44.5 -84.999s53.833 -29 92.5 -29
c48.667 0 88.334 14 119.001 42s50 68 58 120c7.33301 45.333 11 74.333 11 87c0 38 -10 67.667 -30 89s-48 32 -84 32c-62 0 -114 -27 -156 -81c-3.33301 -4.66699 -6.33301 -7.5 -9 -8.5s-6 -0.5 -10 1.5l-29 14c-3.33301 1.33301 -5.5 3.16602 -6.5 5.49902
s-1.16699 6.16602 -0.5 11.499l56 363c1.33301 6.66699 6 10 14 10h340c3.33301 0 5.83301 -1 7.5 -3z" />
    <glyph glyph-name="six" unicode="6" 
d="M530 644c0 -3.33301 -2.33398 -7.33008 -7.00098 -11.9971l-22 -18c-2.66699 -2 -5.66699 -3 -9 -3c-4.66699 0 -8 2.33301 -10 7c-11.333 22 -27.833 38.833 -49.5 50.5s-47.5 17.5 -77.5 17.5c-50 0 -91 -14.333 -123 -43s-52.333 -70.334 -61 -125.001l-22 -138
c18.667 28 44 50.333 76 67s66 25 102 25c52 0 93 -15.167 123 -45.5s45 -71.5 45 -123.5c0 -18.667 -4 -52.334 -12 -101.001c-10 -67.333 -36.667 -119.5 -80 -156.5s-96.333 -55.5 -159 -55.5c-58 0 -103.333 15.5 -136 46.5s-49 73.5 -49 127.5
c0 16.667 1.33301 32 4 46l49 311c11.333 70.667 38.333 125.167 81 163.5s97.334 57.5 164.001 57.5c40 0 74.833 -7.83301 104.5 -23.5s52.167 -38.834 67.5 -69.501c0.666992 -1.33301 1 -3 1 -5zM195.999 372.003c-34 -30 -56.332 -70.332 -66.999 -120.999l-6 -39
c-2.66699 -20 -4 -33.667 -4 -41c0 -40.667 11 -71.667 33 -93s53.667 -32 95 -32c49.333 0.666992 89.166 15.167 119.499 43.5s49.833 68.5 58.5 120.5c7.33301 44.667 11 73.667 11 87c0 39.333 -10 69.166 -30 89.499s-49.333 30.5 -88 30.5c-47.333 0 -88 -15 -122 -45
z" />
    <glyph glyph-name="seven" unicode="7" 
d="M566 691c0 -4 -1.16992 -8.00098 -3.50293 -12.001s-3.83301 -6.66699 -4.5 -8l-412 -662c-2 -3.33301 -4 -5.66602 -6 -6.99902s-4.66699 -2 -8 -2h-43c-4 -0 -6.66699 1.33301 -8 4s-1 6 1 10l417 661h-366c-4 0 -6.66699 0.833008 -8 2.5s-1.66602 4.5 -0.999023 8.5
l6 34c1.33301 8 5 12 11 12h411c4.66699 0 7.83398 -0.833008 9.50098 -2.5s2.83398 -4.5 3.50098 -8.5l1 -27v-3z" />
    <glyph glyph-name="eight" unicode="8" 
d="M472.5 438.5c-27.667 -30.333 -60.5 -49.833 -98.5 -58.5c34 -10 60.667 -27.833 80 -53.5s29 -55.834 29 -90.501c0 -10.667 -1.66699 -28 -5 -52c-10 -60 -36.667 -107.333 -80 -142s-97.666 -52 -162.999 -52c-59.333 0 -105.833 14.5 -139.5 43.5
s-50.5 68.5 -50.5 118.5c0 12 2.33301 32 7 60c6.66699 41.333 24.5 77.666 53.5 108.999s64.5 52 106.5 62c-30 8.66699 -53.833 25.667 -71.5 51s-26.5 54.333 -26.5 87c0 14 1.33301 28.333 4 43c8.66699 54.667 33.667 98 75 130s92.666 48 153.999 48
c55.333 0 99.333 -14 132 -42s49 -65 49 -111c0 -11.333 -1.66699 -26.666 -5 -45.999c-6 -39.333 -22.833 -74.166 -50.5 -104.499zM409 450.5c30 24.333 48.001 55.499 54.001 93.499c2.66699 12.667 4 25.334 4 38.001c0 33.333 -10.833 59.333 -32.5 78
s-51.834 28 -90.501 28c-44 0 -81.333 -12 -112 -36s-49 -55.667 -55 -95c-2.66699 -16.667 -4 -28.667 -4 -36c0 -31.333 10.833 -57 32.5 -77s52.167 -32 91.5 -36c44.667 4 82 18.167 112 42.5zM389.001 313.999c-22.667 20 -55.667 32.333 -99 37
c-50 -4 -90.667 -18.5 -122 -43.5s-50.333 -57.833 -57 -98.5c-4 -22.667 -6 -39 -6 -49c0 -36 11.667 -64.167 35 -84.5s56 -30.5 98 -30.5c48.667 0 89 12.833 121 38.5s51.667 61.167 59 106.5c3.33301 20 5 34.667 5 44c0 33.333 -11.333 60 -34 80z" />
    <glyph glyph-name="nine" unicode="9" 
d="M476.5 696c31.667 -30.667 47.5 -72.6689 47.5 -126.002c0 -16 -1.33301 -31.667 -4 -47l-50 -312c-10.667 -70.667 -37 -125.167 -79 -163.5s-95.667 -57.5 -161 -57.5c-43.333 0 -80.833 8.83301 -112.5 26.5s-55.5 42.834 -71.5 75.501
c-0.666992 1.33301 -1 3.33301 -1 6c0 4.66699 2.33301 8.33398 7 11.001l26 17c3.33301 2 6 3 8 3c4.66699 0 8 -2.66699 10 -8c24 -50 69 -75 135 -75c49.333 0 89.666 14.333 120.999 43s51.333 69.667 60 123l22 139c-18 -27.333 -42.833 -49.166 -74.5 -65.499
s-65.5 -24.5 -101.5 -24.5c-50.667 0 -91 15.167 -121 45.5s-45 71.166 -45 122.499c0 16.667 3.66699 50 11 100c10.667 68 37 120.5 79 157.5s96 55.5 162 55.5c56.667 0 100.834 -15.333 132.501 -46zM465 564.998c0 39.333 -10.834 69.335 -32.501 90.002
s-53.167 31 -94.5 31c-48 0 -87.5 -14.167 -118.5 -42.5s-50.5 -68.5 -58.5 -120.5c-6.66699 -46.667 -10 -76.334 -10 -89.001c0 -38 10.167 -67.333 30.5 -88s49.5 -31 87.5 -31c44 0 82.333 13.667 115 41s55.334 64.333 68.001 111l9 55
c2.66699 13.333 4 27.666 4 42.999z" />
    <glyph glyph-name="colon" unicode=":" horiz-adv-x="237" 
d="M182 536l-25 -157c-1.33301 -7.33301 -5.66602 -11 -12.999 -11h-36c-8 0 -11.333 3.66699 -10 11l25 157c1.33301 7.33301 5.66602 11 12.999 11h36c8 0 11.333 -3.66699 10 -11zM125 168l-25 -157c-1.33301 -7.33301 -5.66602 -11 -12.999 -11h-36
c-8 0 -11.333 3.66699 -10 11l25 157c1.33301 7.33301 5.66602 11 12.999 11h36c8 0 11.333 -3.66699 10 -11z" />
    <glyph glyph-name="semicolon" unicode=";" horiz-adv-x="259" 
d="M133 127c-10 -64 -21.6689 -113.167 -35.002 -147.5s-33.333 -68.833 -60 -103.5c-5.33301 -7.33301 -11.666 -9 -18.999 -5l-19 10c-4.66699 2 -7 5 -7 9c0 0.666992 1.33301 3.66699 4 9c16.667 25.333 29.167 46.666 37.5 63.999s15.333 37.833 21 61.5
s11.834 57.834 18.501 102.501c2 7.33301 6.66699 11 14 11h35c8 0 11.333 -3.66699 10 -11zM195.998 536l-25 -157c-1.33301 -7.33301 -5.66602 -11 -12.999 -11h-36c-8 0 -11.333 3.66699 -10 11l25 157c1.33301 7.33301 5.66602 11 12.999 11h36
c8 0 11.333 -3.66699 10 -11z" />
    <glyph glyph-name="less" unicode="&#x3c;" 
d="M484.5 507.5c-1.66699 -2.33301 -4.50098 -4.16602 -8.50098 -5.49902l-357 -142l358 -143c4 -1.33301 6.66699 -3.16602 8 -5.49902s2 -5.83301 2 -10.5v-36c0 -4 -1.16699 -7 -3.5 -9s-5.16602 -2.33301 -8.49902 -1l-409 168c-4 1.33301 -6.66699 3.16602 -8 5.49902
s-2 5.83301 -2 10.5v41c0 4.66699 0.666992 8.16699 2 10.5s4 4.16602 8 5.49902l408 168l4 1c6 0 9 -3.66699 9 -11v-36c0 -4.66699 -0.833008 -8.16699 -2.5 -10.5z" />
    <glyph glyph-name="equal" unicode="=" 
d="M507 412v-31c0 -7.33301 -3.33301 -11 -10 -11h-429c-7.33301 0 -11 3.66699 -11 11v31c0 8 3.66699 12 11 12h429c6.66699 0 10 -4 10 -12zM507 249v-30.001c0 -8 -3.33301 -12 -10 -12h-429c-4 0 -6.83301 0.833008 -8.5 2.5s-2.5 4.83398 -2.5 9.50098v30
c0 8 3.66699 12 11 12h429c6.66699 0 10 -4 10 -12z" />
    <glyph glyph-name="greater" unicode="&#x3e;" 
d="M515 390.5c1.33301 -2.33301 2 -5.83301 2 -10.5v-41c0 -4.66699 -0.666992 -8.16699 -2 -10.5s-4 -4.16602 -8 -5.49902l-409 -168l-3 -1c-6 0 -9 3.66699 -9 11v36c0 4.66699 0.666992 8.16699 2 10.5s4 4.16602 8 5.49902l359 142l-358 143
c-4 1.33301 -6.83301 3.16602 -8.5 5.49902s-2.5 5.83301 -2.5 10.5v36c0 4 1.16699 6.83301 3.5 8.5s5.5 2.16699 9.5 1.5l408 -168c4 -1.33301 6.66699 -3.16602 8 -5.49902z" />
    <glyph glyph-name="question" unicode="?" horiz-adv-x="446" 
d="M394 709c24.667 -22 36.999 -51.667 36.999 -89c0 -34.667 -10.167 -69.834 -30.5 -105.501s-52.166 -82.834 -95.499 -141.501l-67 -92c-3.33301 -4 -6.33301 -6.83301 -9 -8.5s-6.33398 -2.5 -11.001 -2.5h-28c-2.66699 0 -4.66699 0.833008 -6 2.5s-2 3.5 -2 5.5
c0 3.33301 0.666992 6 2 8c22 34.667 49 73.334 81 116.001c37.333 50.667 64.5 91 81.5 121s25.5 59.333 25.5 88c0 52 -29.333 78 -88 78c-66 0 -112 -32.333 -138 -97c-4 -8.66699 -9.66699 -12 -17 -10l-29 10c-2.66699 0.666992 -4.5 2.33398 -5.5 5.00098
s-0.833008 5.66699 0.5 9c36.667 90.667 102.334 136 197.001 136c43.333 0 77.333 -11 102 -33zM222.999 169l-24 -158c-2 -7.33301 -6.33301 -11 -13 -11h-37c-7.33301 0 -10.333 3.66699 -9 11l24 157c2 7.33301 6.33301 11 13 11h37c7.33301 0 10.333 -3.33301 9 -10z
" />
    <glyph glyph-name="at" unicode="@" horiz-adv-x="828" 
d="M672.5 556c55 -40.667 82.5039 -100.668 82.5039 -180.001c0 -16.667 -1.66699 -36.667 -5 -60l-17 -107c-7.33301 -46.667 -25.333 -84.667 -54 -114s-63.334 -44 -104.001 -44c-27.333 0 -50 7.16699 -68 21.5s-28.667 32.166 -32 53.499
c-14.667 -22 -33.834 -40.5 -57.501 -55.5s-48.167 -22.5 -73.5 -22.5c-28.667 0 -51.334 9.5 -68.001 28.5s-25 44.833 -25 77.5c0 10 1 21 3 33l18 110c6.66699 42.667 22.5 75.834 47.5 99.501s58.5 35.5 100.5 35.5c22.667 0 46.667 -3.16699 72 -9.5
s45.333 -13.833 60 -22.5c2.66699 -2 4.5 -4 5.5 -6s1.16699 -5 0.5 -9l-33 -212c-1.33301 -10.667 -2 -18 -2 -22c0 -36.667 18 -55 54 -55c28 0 51.333 10.667 70 32s31 51.666 37 90.999l18 111c2.66699 15.333 4 31.333 4 48c0 60 -21 106.833 -63 140.5
s-104 50.5 -186 50.5c-97.333 0 -173.833 -22.833 -229.5 -68.5s-89.834 -109.5 -102.501 -191.5l-20 -124c-3.33301 -23.333 -5 -43.666 -5 -60.999c0 -65.333 20.5 -116.166 61.5 -152.499s105.167 -54.5 192.5 -54.5c39.333 0 73.5 3.5 102.5 10.5s61.167 17.5 96.5 31.5
c1.33301 0.666992 3.33301 1 6 1c4.66699 0 7.33398 -2.66699 8.00098 -8l5 -24l1 -4c0 -4.66699 -2.66699 -8 -8 -10c-74 -30.667 -148.333 -46 -223 -46c-100 0 -173.833 23.5 -221.5 70.5s-71.5 107.833 -71.5 182.5c0 18 1.66699 38.667 5 62l20 128
c16 100 57.667 176 125 228s152.666 78 255.999 78c90 0 162.5 -20.333 217.5 -61zM505.004 368.999c-30 12.667 -57.333 19 -82 19c-28.667 0 -51.5 -8.33301 -68.5 -25s-28.167 -40.667 -33.5 -72l-14 -97c-2 -12 -3 -23.333 -3 -34c0 -44.667 18.333 -67 55 -67
c21.333 0 42 7.66699 62 23s38.333 37.333 55 66z" />
    <glyph glyph-name="A" unicode="A" horiz-adv-x="608" 
d="M520 9c0 -6 -3 -8.99902 -9 -8.99902h-40c-6.66699 0 -10.334 3 -11.001 9l-33 218h-273l-102 -218c-2.66699 -6 -7.66699 -9 -15 -9h-39c-3.33301 0 -5.66602 1.16699 -6.99902 3.5s-1.33301 5.16602 0 8.49902l335 710c4 6.66699 9 10 15 10h57
c7.33301 0 11.333 -3 12 -9l110 -711v-3zM419 283.001l-27 177.999l-9 58l-9.5 65c-3.66699 24.667 -7.5 52.334 -11.5 83.001h-3l-70 -153l-26 -55l-83 -176h239z" />
    <glyph glyph-name="B" unicode="B" horiz-adv-x="604" 
d="M511.5 694c27.667 -25.333 41.502 -60.002 41.502 -104.002c0 -10.667 -1 -22.667 -3 -36l-3 -23c-6 -38 -20.167 -70.833 -42.5 -98.5s-49.5 -46.167 -81.5 -55.5c27.333 -7.33301 49.833 -23.166 67.5 -47.499s26.5 -53.833 26.5 -88.5c0 -8 -1 -20.667 -3 -38l-3 -17
c-9.33301 -59.333 -34 -105.166 -74 -137.499s-90.333 -48.5 -151 -48.5h-220c-8.66699 0 -12.334 3.66699 -11.001 11l113 711c1.33301 6.66699 5.66602 10 12.999 10h212c51.333 0 90.833 -12.667 118.5 -38zM492.002 579.998c0 64 -38 96 -114 96h-157l-43 -272h151
c48.667 0 85.667 11.667 111 35s41 53.333 47 90l2 16c2 12 3 23.667 3 35zM328.002 346.998h-159.001l-46 -291h155c46.667 0 85.334 10.833 116.001 32.5s49.667 55.167 57 100.5l3 18c2 12 3 23 3 33c0 71.333 -43 107 -129 107z" />
    <glyph glyph-name="C" unicode="C" horiz-adv-x="584" 
d="M567 584l1.00098 -5.00098c0 -5.33301 -3.66699 -9 -11 -11l-32 -9c-1.33301 -0.666992 -3.33301 -1 -6 -1c-4.66699 0 -7.33398 2.66699 -8.00098 8c-8 40.667 -22.667 70.667 -44 90s-52.666 29 -93.999 29c-50.667 0 -94 -15.5 -130 -46.5s-59.333 -79.167 -70 -144.5
l-41 -258c-2.66699 -22.667 -4 -39 -4 -49c0 -46 12.5 -80.833 37.5 -104.5s59.5 -35.5 103.5 -35.5c40 0 75.5 11.333 106.5 34s56.5 54.334 76.5 95.001c2.66699 5.33301 5.66699 8 9 8s6 -0.666992 8 -2l32 -11c4 -2 6 -4.66699 6 -8c0 -2.66699 -1 -5.66699 -3 -9
c-25.333 -52 -58.333 -92.333 -99 -121s-88.334 -43 -143.001 -43c-59.333 0 -106.833 16.5 -142.5 49.5s-53.5 79.833 -53.5 140.5c0 14.667 1.66699 32 5 52l43 269c12.667 78.667 42.667 138.5 90 179.5s105 61.5 173 61.5c108 0 171.333 -52.667 190 -158z" />
    <glyph glyph-name="D" unicode="D" horiz-adv-x="646" 
d="M536 685c38.667 -31.333 58.001 -78 58.001 -140c0 -18 -1.33301 -35.333 -4 -52l-41 -255c-12 -79.333 -42.667 -138.833 -92 -178.5s-113.666 -59.5 -192.999 -59.5h-198c-8.66699 0 -12.334 3.66699 -11.001 11l113 711c1.33301 6.66699 5.66602 10 12.999 10h193
c69.333 0 123.333 -15.667 162 -47zM533.001 534c0 49.333 -14.5 85.167 -43.5 107.5s-70.5 33.5 -124.5 33.5h-145l-97 -618h140c131.333 0 207.333 64.667 228 194l37 230c3.33301 22 5 39.667 5 53z" />
    <glyph glyph-name="E" unicode="E" horiz-adv-x="549" 
d="M538 721l-4.99707 -34c-1.33301 -7.33301 -5.33301 -11 -12 -11h-301l-43 -275h274c7.33301 0 10.333 -3.66699 9 -11l-6 -33c-0.666992 -8 -4.33398 -12 -11.001 -12h-275l-45 -289h301c7.33301 0 10 -3.66699 8 -11l-5 -33c-0.666992 -8 -4.66699 -12 -12 -12h-349
c-8.66699 0 -12.334 3.66699 -11.001 11l113 711c1.33301 6.66699 5.66602 10 12.999 10h348c8 0 11 -3.66699 9 -11z" />
    <glyph glyph-name="F" unicode="F" horiz-adv-x="522" 
d="M531 721l-5 -34c-1.33301 -4 -2.66602 -6.83301 -3.99902 -8.5s-4 -2.5 -8 -2.5h-294l-45 -290h264c7.33301 0 10.333 -3.66699 9 -11l-6 -33c-0.666992 -8 -4.66699 -12 -12 -12h-264l-51 -320c-1.33301 -6.66699 -5.33301 -10 -12 -10h-39
c-7.33301 -0 -10.333 3.33301 -9 10l113 712c1.33301 6.66699 5.66602 10 12.999 10h341c7.33301 0 10.333 -3.66699 9 -11z" />
    <glyph glyph-name="G" unicode="G" horiz-adv-x="635" 
d="M590 580c0 -6 -3.00098 -10 -9.00098 -12l-32 -9c-1.33301 -0.666992 -3.33301 -1 -6 -1c-5.33301 0 -8.33301 2.33301 -9 7c-9.33301 41.333 -25.5 71.666 -48.5 90.999s-56.5 29 -100.5 29c-54.667 0 -101.167 -15.667 -139.5 -47s-62.833 -79.333 -73.5 -144l-40 -253
c-3.33301 -21.333 -5 -39 -5 -53c0 -94 51.333 -141 154 -141c52.667 0 97.167 13.5 133.5 40.5s58.5 67.5 66.5 121.5l18 110h-151c-7.33301 0 -10.333 3.66699 -9 11l5 33c1.33301 8 5.66602 12 12.999 12h198c8 0 11.333 -3.66699 10 -11l-26 -162
c-10.667 -66 -39.667 -117.833 -87 -155.5s-105.666 -56.5 -174.999 -56.5c-66 0 -117.667 16 -155 48s-56 79 -56 141c0 18.667 1.33301 36.334 4 53.001l43 269c12.667 78.667 43.834 138.5 93.501 179.5s110.167 61.5 181.5 61.5c56 0 101.167 -13.167 135.5 -39.5
s56.5 -65.833 66.5 -118.5v-4z" />
    <glyph glyph-name="H" unicode="H" horiz-adv-x="672" 
d="M633 722l-113 -712c-1.33301 -6.66699 -5.33301 -10 -12 -10h-39c-7.33301 -0 -10.333 3.33301 -9 10l53 332h-345l-53 -332c-1.33301 -6.66699 -5.33301 -10 -12 -10h-39c-7.33301 -0 -10.333 3.33301 -9 10l113 712c1.33301 6.66699 5.33301 10 12 10h39
c7.33301 0 10.333 -3.33301 9 -10l-51 -322h345l51 322c1.33301 6.66699 5.33301 10 12 10h39c7.33301 0 10.333 -3.33301 9 -10z" />
    <glyph glyph-name="I" unicode="I" horiz-adv-x="267" 
d="M228 722l-113 -712c-1.33301 -6.66699 -5.33301 -10 -12 -10h-39c-7.33301 -0 -10.333 3.33301 -9 10l113 712c1.33301 6.66699 5.33301 10 12 10h39c7.33301 0 10.333 -3.33301 9 -10z" />
    <glyph glyph-name="J" unicode="J" horiz-adv-x="455" 
d="M419 722l-85.9971 -537.001c-10 -65.333 -31.833 -114.166 -65.5 -146.499s-75.5 -48.5 -125.5 -48.5c-32 0 -60.667 6.66699 -86 20s-46 30.666 -62 51.999c-3.33301 5.33301 -5 9.33301 -5 12s2 6 6 10l24 22c4.66699 2.66699 8 4 10 4c2.66699 0 6 -2.66699 10 -8
c12.667 -16 27.167 -29.167 43.5 -39.5s36.5 -15.5 60.5 -15.5c35.333 0 64.166 11.833 86.499 35.5s37.166 58.834 44.499 105.501l84 534c1.33301 6.66699 5.66602 10 12.999 10h38c8 0 11.333 -3.33301 10 -10z" />
    <glyph glyph-name="K" unicode="K" horiz-adv-x="587" 
d="M603.5 730c1.66699 -1.33301 2.5 -2.99805 2.5 -4.99805c0 -2.66699 -1.33301 -5.33398 -4 -8.00098l-278 -293l173 -409c0.666992 -1.33301 1 -3.33301 1 -6c0 -6 -3 -9 -9 -9h-41c-4.66699 0 -7.83398 0.666992 -9.50098 2s-3.5 3.66602 -5.5 6.99902l-154 368
l-127 -133l-37 -234c-1.33301 -6.66699 -5.33301 -10 -12 -10h-39c-7.33301 -0 -10.333 3.33301 -9 10l113 712c1.33301 6.66699 5.33301 10 12 10h39c7.33301 0 10.333 -3.33301 9 -10l-60 -382l364 384c5.33301 5.33301 11 8 17 8h48
c2.66699 0 4.83398 -0.666992 6.50098 -2z" />
    <glyph glyph-name="L" unicode="L" horiz-adv-x="497" 
d="M228 722l-104.999 -665h300c6.66699 0 9.66699 -3.66699 9 -11l-6 -34c-0.666992 -8 -5 -12 -13 -12h-347c-8.66699 0 -12.334 3.66699 -11.001 11l113 711c1.33301 6.66699 5.33301 10 12 10h39c7.33301 0 10.333 -3.33301 9 -10z" />
    <glyph glyph-name="M" unicode="M" horiz-adv-x="798" 
d="M756 727.5c2.66699 -3 3.66797 -6.50195 3.00098 -10.502l-114 -707c-1.33301 -6.66699 -5.33301 -10 -12 -10h-35c-3.33301 0 -5.83301 0.833008 -7.5 2.5s-1.83398 4.16699 -0.500977 7.5l79 504c1.33301 9.33301 2.66602 16.333 3.99902 21l22 133h-2l-308 -657
c-2 -4 -4.16699 -6.83301 -6.5 -8.5s-5.5 -2.5 -9.5 -2.5h-36c-8.66699 0 -13.667 3.66699 -15 11l-102 660h-2c-7.33301 -58.667 -15 -111 -23 -157l-80 -504c-1.33301 -6.66699 -5.33301 -10 -12 -10h-35c-7.33301 0 -10.333 3.33301 -9 10l113 707c1.33301 10 7 15 17 15
h64c9.33301 0 14.333 -4.33301 15 -13l61 -402c1.33301 -7.33301 2.5 -15.166 3.5 -23.499s2.5 -17.166 4.5 -26.499c13.333 -87.333 22.333 -152 27 -194h1l111 246l189 400c4 8.66699 10 13 18 13h66c4.66699 0 8.33398 -1.5 11.001 -4.5z" />
    <glyph glyph-name="N" unicode="N" horiz-adv-x="682" 
d="M641 729c1.33301 -2 1.66895 -4.33203 1.00195 -6.99902l-112 -710c-0.666992 -8 -5.66699 -12 -15 -12h-53c-8 0 -13.333 3.33301 -16 10l-165 461l-35 106l-30 90h-1c-8 -61.333 -16.667 -123 -26 -185l-75 -472c-0.666992 -2.66699 -2 -5 -4 -7s-4.66699 -3 -8 -3h-38
c-7.33301 0 -10.333 3.33301 -9 10l112 710c1.33301 8 6.33301 12 15 12h57c8 0 13.333 -3.33301 16 -10l164 -460c13.333 -37.333 34.666 -101.333 63.999 -192h2c6.66699 61.333 15 123.666 25 186.999l74 465c1.33301 6.66699 5.33301 10 12 10h38
c3.33301 0 5.66602 -1 6.99902 -3z" />
    <glyph glyph-name="O" unicode="O" horiz-adv-x="652" 
d="M544.5 693c38.333 -32.667 57.501 -80 57.501 -142c0 -14.667 -1.66699 -32 -5 -52l-42 -267c-12 -79.333 -42.333 -139.5 -91 -180.5s-110.334 -61.5 -185.001 -61.5c-66 0 -118 16 -156 48s-57 78.667 -57 140c0 14.667 1.66699 32.667 5 54l42 267
c13.333 80 44 140.5 92 181.5s109 61.5 183 61.5c66 0 118.167 -16.333 156.5 -49zM243.001 638c-36.667 -31.333 -60 -79.333 -70 -144l-42 -267c-3.33301 -18 -5 -33.333 -5 -46c0 -45.333 13.5 -79 40.5 -101s65.167 -33 114.5 -33c58.667 0 106.667 15.667 144 47
s61 79 71 143l42 267c2.66699 18.667 4 33.667 4 45c0 45.333 -13.667 79.333 -41 102s-65.666 34 -114.999 34c-58.667 0 -106.334 -15.667 -143.001 -47z" />
    <glyph glyph-name="P" unicode="P" horiz-adv-x="565" 
d="M494.5 687c31.667 -30 47.501 -69.667 47.501 -119c0 -18 -1.33301 -34.667 -4 -50l-7 -44c-10.667 -66 -35.667 -116.333 -75 -151s-96 -52 -170 -52h-129l-42 -261c-1.33301 -6.66699 -5.33301 -10 -12 -10h-39c-7.33301 -0 -10.333 3.33301 -9 10l113 712
c1.33301 6.66699 5.66602 10 12.999 10h170c64 0 111.833 -15 143.5 -45zM481.001 561c0 76.667 -45.333 115.001 -136 115.001h-125l-55 -349h121c57.333 0 100.5 12.167 129.5 36.5s47.5 61.166 55.5 110.499l6 42c2.66699 15.333 4 30.333 4 45z" />
    <glyph glyph-name="Q" unicode="Q" horiz-adv-x="652" 
d="M544.5 693c38.333 -32.667 57.502 -80.001 57.502 -142.001c0 -14.667 -1.66699 -32 -5 -52l-42 -267c-10 -68 -33.833 -122 -71.5 -162s-85.834 -65 -144.501 -75l86 -141c3.33301 -5.33301 5 -8.66602 5 -9.99902c0 -2.66699 -2.66699 -5.66699 -8 -9l-32 -16
c-4 -1.33301 -6.33301 -2 -7 -2c-2.66699 0 -5.33398 2 -8.00098 6l-102 167c-64 0.666992 -114.5 17 -151.5 49s-55.5 78.333 -55.5 139c0 14.667 1.66699 32.667 5 54l42 267c13.333 80 44 140.5 92 181.5s109 61.5 183 61.5c66 0 118.167 -16.333 156.5 -49z
M542.002 548.999c0 45.333 -13.667 79.333 -41 102s-65.666 34 -114.999 34c-58.667 0 -106.334 -15.667 -143.001 -47s-60 -79.333 -70 -144l-42 -267c-3.33301 -18 -5 -33.333 -5 -46c0 -45.333 13.5 -79 40.5 -101s65.167 -33 114.5 -33c58.667 0 106.667 15.667 144 47
s61 79 71 143l42 267c2.66699 18.667 4 33.667 4 45z" />
    <glyph glyph-name="R" unicode="R" horiz-adv-x="595" 
d="M514 690.5c31.333 -27.667 47.002 -65.499 47.002 -113.499c0 -14 -1.33301 -28 -4 -42l-4 -23c-18 -116.667 -81.667 -183 -191 -199l122 -292c3.33301 -6.66699 5 -11 5 -13s-1.16699 -3.83301 -3.5 -5.5s-4.83301 -2.5 -7.5 -2.5h-40
c-3.33301 0 -5.83301 0.666992 -7.5 2s-3.83398 3.66602 -6.50098 6.99902l-122 301h-139l-48 -300c-1.33301 -6.66699 -5.33301 -10 -12 -10h-39c-7.33301 -0 -10.333 3.33301 -9 10l113 712c1.33301 6.66699 5.66602 10 12.999 10h190c64 0 111.667 -13.833 143 -41.5z
M500.002 570.001c0 35.333 -10.668 61.833 -32.001 79.5s-56 26.5 -104 26.5h-144l-49 -311h139c56.667 0 99.334 12.333 128.001 37s47 62 55 112l3 15c2.66699 21.333 4 35 4 41z" />
    <glyph glyph-name="S" unicode="S" horiz-adv-x="565" 
d="M466 704.5c32.667 -25 54.6699 -61.8359 66.0029 -110.503v-4c0 -4.66699 -2.66699 -8 -8 -10l-32 -12c-1.33301 -0.666992 -3.33301 -1 -6 -1c-4.66699 0 -7.66699 3 -9 9c-16 73.333 -62.667 110 -140 110c-47.333 0 -86.166 -12.833 -116.499 -38.5
s-45.5 -58.167 -45.5 -97.5c0 -28.667 10 -53.667 30 -75s57.333 -47 112 -77c60.667 -33.333 102.834 -64.5 126.501 -93.5s35.5 -63.833 35.5 -104.5s-9.83301 -77 -29.5 -109s-47 -56.833 -82 -74.5s-75.167 -26.5 -120.5 -26.5c-59.333 0 -107.333 14.167 -144 42.5
s-58.334 67.833 -65.001 118.5v3c0 6 3 10.333 9 13l31 9c1.33301 0.666992 3.33301 1 6 1c5.33301 0 8.33301 -3 9 -9c3.33301 -39.333 18.666 -69.5 45.999 -90.5s64.333 -31.5 111 -31.5c50.667 0 91.5 13.833 122.5 41.5s46.5 63.834 46.5 108.501
c0 21.333 -4.16699 39.833 -12.5 55.5s-22.5 31 -42.5 46s-48.333 32.5 -85 52.5c-58.667 31.333 -100.834 62.333 -126.501 93s-38.5 65.334 -38.5 104.001c0 37.333 9.66699 70.833 29 100.5s46.166 52.834 80.499 69.501s73.166 25 116.499 25
c51.333 0 93.333 -12.5 126 -37.5z" />
    <glyph glyph-name="T" unicode="T" horiz-adv-x="538" 
d="M573 721l-5.99902 -34c-0.666992 -8 -4.33398 -12 -11.001 -12h-202l-105 -665c-1.33301 -6.66699 -5.33301 -10 -12 -10h-39c-7.33301 -0 -10.333 3.33301 -9 10l105 665h-199c-7.33301 0 -10 3.66699 -8 11l5 34c1.33301 8 5.33301 12 12 12h460
c7.33301 0 10.333 -3.66699 9 -11z" />
    <glyph glyph-name="U" unicode="U" horiz-adv-x="662" 
d="M627 722l-78.9971 -497.001c-12 -78 -41.333 -136.667 -88 -176s-105.334 -59 -176.001 -59c-61.333 0 -110.5 16.167 -147.5 48.5s-55.5 78.5 -55.5 138.5c0 18.667 1.33301 36.334 4 53.001l78 492c1.33301 6.66699 5.33301 10 12 10h39
c7.33301 0 10.333 -3.33301 9 -10l-78 -490c-2.66699 -16 -4 -32.333 -4 -49c0 -46.667 13.167 -81 39.5 -103s62.166 -33 107.499 -33c53.333 0 97.666 15 132.999 45s58 76.667 68 140l78 490c1.33301 6.66699 5.33301 10 12 10h39c7.33301 0 10.333 -3.33301 9 -10z" />
    <glyph glyph-name="V" unicode="V" horiz-adv-x="597" 
d="M620.5 728.5c1 -2.33301 0.832031 -5.16699 -0.500977 -8.5l-328 -710c-2.66699 -6.66699 -7.66699 -10 -15 -10h-56c-6.66699 0 -10.667 3 -12 9l-106 711v2c0 2.66699 0.833008 5 2.5 7s3.83398 3 6.50098 3h40c7.33301 0 11.333 -3 12 -9l65 -452l11 -81
c8 -56 13.667 -97.667 17 -125h2l93 208l207 450c2 6 6.66699 9 14 9h41c3.33301 0 5.5 -1.16699 6.5 -3.5z" />
    <glyph glyph-name="W" unicode="W" horiz-adv-x="858" 
d="M870 728.5c1.33301 -2.33301 1.33301 -5.16699 0 -8.5l-257 -709c-2.66699 -7.33301 -7.66699 -11 -15 -11h-53c-8 -0 -12 3.33301 -12 10l-36 472l-3 48l-9 126h-2l-67 -173l-186 -472c-2.66699 -7.33301 -7.66699 -11 -15 -11h-53c-8.66699 0 -13 3.66699 -13 11
l-32 709v2c0 2.66699 0.833008 5 2.5 7s3.83398 3 6.50098 3h39c7.33301 0 11 -3 11 -9l18 -477l5 -178h3l68 179l184 474c2.66699 7.33301 7.66699 11 15 11h50c4 0 7 -0.833008 9 -2.5s3.33301 -4.5 4 -8.5l35 -477l11 -176h3l61 176l168 479c2 6 6.66699 9 14 9h39
c3.33301 0 5.66602 -1.16699 6.99902 -3.5z" />
    <glyph glyph-name="X" unicode="X" horiz-adv-x="586" 
d="M602 725c0 -2 -0.998047 -4.66797 -2.99805 -8.00098l-262 -349l155 -353c0.666992 -1.33301 1 -3 1 -5c0 -6.66699 -3.66699 -10 -11 -10h-42c-4 0 -6.83301 0.666992 -8.5 2s-3.16699 4 -4.5 8l-131 306l-229 -306c-4.66699 -6.66699 -10.334 -10 -17.001 -10h-45
c-5.33301 0 -8 2.33301 -8 7c0 2.66699 1 5.33398 3 8.00098l267 356l-153 346l-2 5c0 2.66699 1.16699 5 3.5 7s5.16602 3 8.49902 3h42c4 0 6.83301 -0.666992 8.5 -2s3.16699 -4 4.5 -8l130 -300l222 300c6 6.66699 11.667 10 17 10h46c5.33301 0 8 -2.33301 8 -7z" />
    <glyph glyph-name="Y" unicode="Y" horiz-adv-x="576" 
d="M604 727.5c1.33301 -3 0.667969 -6.5 -1.99902 -10.5l-285 -409l-47 -298c-1.33301 -6.66699 -5.33301 -10 -12 -10h-39c-7.33301 -0 -10.333 3.33301 -9 10l46 299l-156 408c-0.666992 1.33301 -1 3 -1 5c0 6.66699 3 10 9 10h42c4 0 6.66699 -0.666992 8 -2
s2.66602 -4 3.99902 -8l132 -352l243 352c4 6.66699 9 10 15 10h44c4 0 6.66699 -1.5 8 -4.5z" />
    <glyph glyph-name="Z" unicode="Z" horiz-adv-x="549" 
d="M550 729.5c1.33301 -1.66699 2.33398 -4.49902 3.00098 -8.49902l1 -25v-3c0 -3.33301 -1.16699 -7 -3.5 -11s-3.83301 -6.33301 -4.5 -7l-460 -618h358c4 0 6.66699 -0.833008 8 -2.5s1.66602 -4.5 0.999023 -8.5l-5 -34
c-1.33301 -4.66699 -2.66602 -7.83398 -3.99902 -9.50098s-4 -2.5 -8 -2.5h-417c-4 -0 -6.83301 0.833008 -8.5 2.5s-2.83398 4.5 -3.50098 8.5v25v3c0 3.33301 1.16699 7 3.5 11s3.83301 6.33301 4.5 7l459 618h-349c-7.33301 0 -10 3.66699 -8 11l5 34
c1.33301 8 5.33301 12 12 12h407c4.66699 0 7.66699 -0.833008 9 -2.5z" />
    <glyph glyph-name="bracketleft" unicode="[" horiz-adv-x="331" 
d="M358 746l-5.00195 -32.999c-1.33301 -4.66699 -2.66602 -7.83398 -3.99902 -9.50098s-4 -2.5 -8 -2.5h-128l-135 -845h129c7.33301 0 10 -3.66699 8 -11l-5 -33c-0.666992 -8 -4.66699 -12 -12 -12h-176c-7.33301 0 -10.666 4 -9.99902 12l148 933c2 8 6.66699 12 14 12
h175c7.33301 0 10.333 -3.66699 9 -11z" />
    <glyph glyph-name="backslash" unicode="\" horiz-adv-x="385" 
d="M209 -190l-103 910v3c0 6 3 9 9 9h32c6 0 9.66699 -3.33301 11 -10l104 -910v-3c0 -6 -3 -9 -9 -9h-32c-6.66699 0 -10.667 3.33301 -12 10z" />
    <glyph glyph-name="bracketright" unicode="]" horiz-adv-x="330" 
d="M-40 -191l5.99902 33c0.666992 8 4.33398 12 11.001 12h128l135 845h-128c-7.33301 0 -10.333 3.66699 -9 11l5 33c1.33301 8 5.33301 12 12 12h176c8 0 11.333 -4 10 -12l-148 -933c-0.666992 -8 -5 -12 -13 -12h-176c-7.33301 0 -10.333 3.66699 -9 11z" />
    <glyph glyph-name="asciicircum" unicode="^" 
d="M533 323c0 -2.66699 -0.831055 -4.83301 -2.49805 -6.5s-3.83398 -2.5 -6.50098 -2.5h-42c-4.66699 0 -8 1.66699 -10 5l-183 355l-183 -355c-2 -3.33301 -5 -5 -9 -5h-42c-3.33301 0 -6 1.5 -8 4.5s-2 6.16699 0 9.5l206 394c2.66699 6.66699 8 10 16 10h41
c4 0 7.16699 -0.666992 9.5 -2s4.16602 -4 5.49902 -8l207 -394c0.666992 -1.33301 1 -3 1 -5z" />
    <glyph glyph-name="underscore" unicode="_" horiz-adv-x="400" 
d="M343 -29.5c1.33301 -1.66699 1.66699 -4.5 1 -8.5l-5 -34c-1.33301 -4.66699 -2.66602 -7.83398 -3.99902 -9.50098s-4 -2.5 -8 -2.5h-380c-7.33301 0 -10 3.66699 -8 11l5 34c1.33301 4.66699 2.66602 7.83398 3.99902 9.50098s4 2.5 8 2.5h379
c4 0 6.66699 -0.833008 8 -2.5z" />
    <glyph glyph-name="grave" unicode="`" horiz-adv-x="561" 
d="M301 757l-41.002 0.000976562c-3.33301 0 -5.66602 -1.33301 -6.99902 -4s-1.33301 -5.33398 0 -8.00098l88 -124c2.66699 -2.66699 5 -4.66699 7 -6s5 -2 9 -2h29c3.33301 0 5.83301 1.16699 7.5 3.5s1.83398 4.83301 0.500977 7.5l-80 125c-4 5.33301 -8.33301 8 -13 8
z" />
    <glyph glyph-name="a" unicode="a" horiz-adv-x="563" 
d="M500.5 497.5c1 -2.33301 0.832031 -6.16602 -0.500977 -11.499l-75 -476c-0.666992 -2.66699 -2 -5 -4 -7s-4.66699 -3 -8 -3h-36c-7.33301 0 -10.333 3.33301 -9 10l16 103c-22.667 -34.667 -51 -63.834 -85 -87.501s-69.667 -35.5 -107 -35.5
c-43.333 0 -77 13.5 -101 40.5s-36 63.833 -36 110.5c0 18.667 1.33301 36 4 52l27 163c9.33301 60 32.333 107.5 69 142.5s84.334 52.5 143.001 52.5c32.667 0 64.667 -3.83301 96 -11.5s64 -19.167 98 -34.5c4.66699 -2.66699 7.5 -5.16699 8.5 -7.5zM439.999 468
c-51.333 20.667 -98.002 31 -140.002 31c-43.333 0 -78.666 -13 -105.999 -39s-44.666 -62.667 -51.999 -110l-24 -151c-3.33301 -20 -5 -36.333 -5 -49c0 -71.333 31 -107 93 -107c33.333 0 66.833 13 100.5 39s63.5 63.667 89.5 113z" />
    <glyph glyph-name="b" unicode="b" horiz-adv-x="565" 
d="M461 516c24.667 -27.333 36.999 -65.001 36.999 -113.001c0 -17.333 -1.33301 -33.666 -4 -48.999l-26 -161c-10.667 -63.333 -36.167 -113 -76.5 -149s-93.166 -54 -158.499 -54c-55.333 0 -97.5 13.667 -126.5 41s-43.5 66 -43.5 116c0 16 1.33301 31 4 45l88 555
c0.666992 2.66699 2 5 4 7s4.66699 3 8 3h37c7.33301 0 10.333 -3.33301 9 -10l-50 -311c24 34.667 53 63.5 87 86.5s70 34.5 108 34.5c44 0 78.333 -13.667 103 -41zM439.999 394.999c0 72 -31.668 107.999 -95.001 107.999c-33.333 0 -67.666 -12.833 -102.999 -38.5
s-66 -62.5 -92 -110.5l-25 -157c-2.66699 -14 -4 -28.667 -4 -44c0 -73.333 39 -110 117 -110c46 0 84.5 13 115.5 39s50.5 64.333 58.5 115l23 151c3.33301 18.667 5 34.334 5 47.001z" />
    <glyph glyph-name="c" unicode="c" horiz-adv-x="507" 
d="M410.5 523.5c25.667 -22.333 43.832 -52.835 54.499 -91.502c0.666992 -2 1 -4.66699 1 -8c0 -5.33301 -2.66699 -8.66602 -8 -9.99902l-33 -11l-4 -1c-4 0 -7 2.66699 -9 8c-7.33301 30 -19.666 53 -36.999 69s-42.666 24 -75.999 24
c-43.333 0 -78.833 -13.167 -106.5 -39.5s-45.834 -66.166 -54.501 -119.499l-22 -146c-2.66699 -13.333 -4 -26.666 -4 -39.999c0 -38 9.83301 -66.667 29.5 -86s47.5 -29 83.5 -29c35.333 0 64.833 8 88.5 24s42.834 39.667 57.501 71c4 7.33301 9 9.66602 15 6.99902
l31 -13c7.33301 -2.66699 8.66602 -7.66699 3.99902 -15c-18.667 -40 -44.667 -71.167 -78 -93.5s-74 -33.5 -122 -33.5c-53.333 0 -94.666 14.167 -123.999 42.5s-44 67.833 -44 118.5c0 16 1.33301 30.667 4 44l25 156c10 63.333 33.667 113.5 71 150.5
s85.666 55.5 144.999 55.5c49.333 0 86.833 -11.167 112.5 -33.5z" />
    <glyph glyph-name="d" unicode="d" horiz-adv-x="572" 
d="M549 747l-117.002 -736.999c-1.33301 -6.66699 -5.33301 -10 -12 -10h-36c-3.33301 0 -5.66602 1 -6.99902 3s-1.66602 4.33301 -0.999023 7l16 103c-24 -34.667 -53.333 -63.834 -88 -87.501s-71 -35.5 -109 -35.5c-44.667 0 -79.334 13.667 -104.001 41s-37 65 -37 113
c0 16.667 1.33301 32.667 4 48l26 161c9.33301 62 32.5 110.5 69.5 145.5s84.833 52.5 143.5 52.5c56.667 0 108.334 -17.333 155.001 -52l40 248c1.33301 6.66699 5.33301 10 12 10h36c7.33301 0 10.333 -3.33301 9 -10zM443.998 447.001
c-44 34.667 -92 51.999 -144 51.999c-43.333 0 -78.833 -13.167 -106.5 -39.5s-45.167 -62.833 -52.5 -109.5l-23 -151c-2.66699 -15.333 -4 -30.666 -4 -45.999c0 -73.333 31.333 -110 94 -110c34 0 68.5 13 103.5 39s65.5 62.667 91.5 110z" />
    <glyph glyph-name="e" unicode="e" horiz-adv-x="540" 
d="M434 514c31.333 -28.667 47 -66.999 47 -114.999c0 -12 -2 -30 -6 -54l-11 -69c-2 -15.333 -11.333 -23 -28 -23h-313l-9 -55c-2.66699 -18.667 -4 -32.334 -4 -41.001c0 -38 10.5 -66.833 31.5 -86.5s50.833 -29.5 89.5 -29.5s70 7.16699 94 21.5
s44.333 35.166 61 62.499c4.66699 8 10.334 9.66699 17.001 5l25 -14c4 -2.66699 6 -5.66699 6 -9c0 -2.66699 -1 -5.66699 -3 -9c-20 -33.333 -47.167 -59.666 -81.5 -78.999s-74.5 -29 -120.5 -29c-56.667 0 -100.167 14.333 -130.5 43s-45.5 68 -45.5 118
c0 8.66699 1.33301 23 4 43l26 164c9.33301 60 34 108.167 74 144.5s90 54.5 150 54.5c53.333 0 95.666 -14.333 126.999 -43zM425 392.001c0 36.667 -10.5 64.666 -31.5 83.999s-50.5 29 -88.5 29c-44 0 -80.667 -13.167 -110 -39.5s-48 -64.166 -56 -113.499l-9 -53h281
l9 50c3.33301 16.667 5 31 5 43z" />
    <glyph glyph-name="f" unicode="f" horiz-adv-x="341" 
d="M377 746l-3.99805 -28c-0.666992 -8 -5 -12 -13 -12h-31c-29.333 0 -52.333 -7 -69 -21s-27.334 -36.667 -32.001 -68l-12 -73h117c7.33301 0 10.666 -3.66699 9.99902 -11l-4 -27c-0.666992 -8 -5 -12 -13 -12h-118l-76 -484c-0.666992 -2.66699 -2 -5 -4 -7
s-4.66699 -3 -8 -3h-36c-8 -0 -11.333 3.33301 -10 10l77 484h-76c-3.33301 0 -5.83301 1 -7.5 3s-2.16699 4.66699 -1.5 8l4 28c1.33301 7.33301 5.33301 11 12 11h77l11 72c14.667 94 68 141 160 141h38c7.33301 0 10.333 -3.66699 9 -11z" />
    <glyph glyph-name="g" unicode="g" 
d="M505.5 497.5c1 -2.33301 0.833008 -6.16992 -0.5 -11.5029l-75 -472c-12 -74 -39.167 -129.833 -81.5 -167.5s-94.166 -56.5 -155.499 -56.5c-37.333 0 -70.833 6.66699 -100.5 20s-54.167 31 -73.5 53c-2.66699 2.66699 -4 5.33398 -4 8.00098c0 1.33301 1.33301 4 4 8
l19 23c2.66699 2.66699 5.66699 4 9 4s6 -1.33301 8 -4c15.333 -17.333 34.5 -31.666 57.5 -42.999s49.167 -17 78.5 -17c47.333 0 87 14 119 42s53 73 63 135l15 98c-22.667 -35.333 -51.167 -64.666 -85.5 -87.999s-70.5 -35 -108.5 -35c-44 0 -78.167 13.5 -102.5 40.5
s-36.5 64.167 -36.5 111.5c0 17.333 1.33301 34 4 50l25 157c10 62 33.5 110.5 70.5 145.5s85.833 52.5 146.5 52.5c63.333 0 128.666 -15.333 195.999 -46c4.66699 -2.66699 7.5 -5.16699 8.5 -7.5zM444 467.996c-49.333 20.667 -96.6689 30.999 -142.002 30.999
s-81.666 -12.833 -108.999 -38.5s-44.666 -62.5 -51.999 -110.5l-24 -148c-2.66699 -16 -4 -32 -4 -48c0 -35.333 8 -62 24 -80s39.667 -27 71 -27c34 0 68.333 12.833 103 38.5s64.667 62.834 90 111.501z" />
    <glyph glyph-name="h" unicode="h" horiz-adv-x="558" 
d="M449.5 519.5c23 -25 34.502 -58.499 34.502 -100.499c0 -15.333 -1.33301 -29.333 -4 -42l-58 -367c-0.666992 -6.66699 -4.66699 -10 -12 -10h-35c-4 0 -6.83301 1 -8.5 3s-2.16699 4.33301 -1.5 7l56 356c2.66699 13.333 4 27.666 4 42.999c0 62.667 -30.667 94 -92 94
c-30.667 0 -62.334 -12 -95.001 -36s-59.334 -55 -80.001 -93l-58 -364c-1.33301 -6.66699 -5.33301 -10 -12 -10h-36c-7.33301 -0 -10.333 3.33301 -9 10l117 737c1.33301 6.66699 5.33301 10 12 10h36c7.33301 0 10.333 -3.33301 9 -10l-46 -293
c22.667 30.667 49.667 55.5 81 74.5s64.333 28.5 99 28.5c42.667 0 75.5 -12.5 98.5 -37.5z" />
    <glyph glyph-name="i" unicode="i" horiz-adv-x="240" 
d="M217 745l-16.001 -97c-1.33301 -7.33301 -5.66602 -11 -12.999 -11h-35c-3.33301 0 -5.83301 1 -7.5 3s-2.16699 4.66699 -1.5 8l15 97c2 8 6.66699 12 14 12h34c8 0 11.333 -4 10 -12zM183.999 537l-84 -527c-1.33301 -6.66699 -5.33301 -10 -12 -10h-36
c-7.33301 -0 -10.333 3.33301 -9 10l84 527c1.33301 6.66699 5.33301 10 12 10h36c7.33301 0 10.333 -3.33301 9 -10z" />
    <glyph glyph-name="j" unicode="j" horiz-adv-x="240" 
d="M217 745l-16 -97c-1.33301 -7.33301 -6 -11 -14 -11h-32c-9.33301 0 -13 3.66699 -11 11l15 97c1.33301 4 3 7 5 9s5.33301 3 10 3h33c8 0 11.333 -4 10 -12zM181.5 544c1.66699 -2 2.16602 -4.33301 1.49902 -7l-79 -506
c-9.33301 -59.333 -25.166 -106.166 -47.499 -140.499s-53.833 -66.833 -94.5 -97.5c-2.66699 -2.66699 -5.66699 -4 -9 -4s-6.33301 1.66699 -9 5l-19 21c-2.66699 4 -4 6.33301 -4 7c0 2.66699 2 5.66699 6 9c26 21.333 45.833 39.333 59.5 54s25.667 33.667 36 57
s18.5 53.666 24.5 90.999l79 504c1.33301 6.66699 5.33301 10 12 10h36c3.33301 0 5.83301 -1 7.5 -3z" />
    <glyph glyph-name="k" unicode="k" horiz-adv-x="500" 
d="M492 541c0 -3.33301 -1.33301 -6.33301 -4 -9l-204 -205l134 -311c0.666992 -1.33301 1 -3.33301 1 -6s-1 -5 -3 -7s-4.33301 -3 -7 -3h-36c-4 0 -7 0.666992 -9 2s-3.66699 4 -5 8l-117 275l-116 -116l-26 -159c-1.33301 -6.66699 -5.33301 -10 -12 -10h-36
c-7.33301 -0 -10.333 3.33301 -9 10l117 737c1.33301 6.66699 5.33301 10 12 10h36c7.33301 0 10.333 -3.33301 9 -10l-78 -493l281 283c4 3.33301 7.33301 5.83301 10 7.5s6 2.5 10 2.5h45c4.66699 0 7 -2 7 -6z" />
    <glyph glyph-name="l" unicode="l" horiz-adv-x="240" 
d="M217 747l-117 -737c-1.33301 -6.66699 -5.33301 -10 -12 -10h-36c-7.33301 -0 -10.333 3.33301 -9 10l117 737c1.33301 6.66699 5.33301 10 12 10h36c7.33301 0 10.333 -3.33301 9 -10z" />
    <glyph glyph-name="m" unicode="m" horiz-adv-x="805" 
d="M701 523.5c21.333 -22.333 31.998 -52.167 31.998 -89.5c0 -13.333 -1.33301 -28 -4 -44l-60 -380c-0.666992 -6.66699 -4.66699 -10 -12 -10h-35c-4 0 -6.83301 1 -8.5 3s-2.16699 4.33301 -1.5 7l59 376c2.66699 17.333 4 29.333 4 36c0 26 -6.33301 46 -19 60
s-30.667 21 -54 21c-28 0 -55.667 -10.167 -83 -30.5s-52.333 -49.833 -75 -88.5l-59 -374c-0.666992 -6.66699 -4.66699 -10 -12 -10h-35c-4 0 -6.83301 1 -8.5 3s-2.16699 4.33301 -1.5 7l59 376c2 13.333 3 24.666 3 33.999c0 26.667 -6.16699 47.167 -18.5 61.5
s-30.166 21.5 -53.499 21.5c-30.667 0 -60 -12 -88 -36s-51.667 -54.333 -71 -91l-59 -366c-0.666992 -6.66699 -4.66699 -10 -12 -10h-35c-8 0 -11.333 3.33301 -10 10l84 527c1.33301 6.66699 5.33301 10 12 10h35c7.33301 0 10.333 -3.33301 9 -10l-13 -82
c20 28.667 44.167 52.834 72.5 72.501s58.833 29.5 91.5 29.5c31.333 0 57 -9.33301 77 -28s32 -43.667 36 -75c22.667 31.333 48.834 56.333 78.501 75s60.167 28 91.5 28c34.667 0 62.667 -11.167 84 -33.5z" />
    <glyph glyph-name="n" unicode="n" horiz-adv-x="558" 
d="M449.5 519.5c23 -25 34.5 -58.499 34.5 -100.499c0 -15.333 -1.33301 -29.333 -4 -42l-58 -367c-0.666992 -6.66699 -4.66699 -10 -12 -10h-35c-4 0 -6.83301 1 -8.5 3s-2.16699 4.33301 -1.5 7l56 356c2.66699 13.333 4 27.666 4 42.999c0 62.667 -30.667 94 -92 94
c-30.667 0 -62.334 -12 -95.001 -36s-59.334 -55 -80.001 -93l-58 -364c-0.666992 -6.66699 -4.66699 -10 -12 -10h-35c-8 -0 -11.333 3.33301 -10 10l84 527c1.33301 6.66699 5.33301 10 12 10h35c7.33301 0 10.333 -3.33301 9 -10l-13 -84
c22.667 31.333 49.834 56.5 81.501 75.5s64.834 28.5 99.501 28.5c42.667 0 75.5 -12.5 98.5 -37.5z" />
    <glyph glyph-name="o" unicode="o" horiz-adv-x="561" 
d="M446.5 512.5c32.333 -29.667 48.499 -69.167 48.499 -118.5c0 -12.667 -1.33301 -27.667 -4 -45l-25 -158c-10 -64 -35 -113.5 -75 -148.5s-92.333 -52.5 -157 -52.5c-56.667 0 -101 14.5 -133 43.5s-48 68.167 -48 117.5c0 10 1.33301 25 4 45l26 160
c9.33301 64 33.833 113.5 73.5 148.5s91.834 52.5 156.501 52.5c56.667 0 101.167 -14.833 133.5 -44.5zM195.499 463.5c-30.333 -26.333 -49.5 -65.167 -57.5 -116.5l-23 -149c-2.66699 -16 -4 -29.333 -4 -40c0 -37.333 11.167 -65.833 33.5 -85.5
s53.166 -29.5 92.499 -29.5c46 0 84.167 13 114.5 39s49.5 64.333 57.5 115l23 144c3.33301 16.667 5 32 5 46c0 37.333 -11.167 66 -33.5 86s-53.166 30 -92.499 30c-46.667 0 -85.167 -13.167 -115.5 -39.5z" />
    <glyph glyph-name="p" unicode="p" 
d="M464 516c24 -27.333 35.998 -64.667 35.998 -112c0 -18 -1.33301 -34.667 -4 -50l-26 -160c-9.33301 -62 -32.833 -110.667 -70.5 -146s-85.5 -53 -143.5 -53c-54 0 -104 16.333 -150 49l-37 -234c-1.33301 -6.66699 -5.33301 -10 -12 -10h-37
c-3.33301 0 -5.66602 1 -6.99902 3s-1.66602 4.33301 -0.999023 7l115 727c1.33301 6.66699 5.33301 10 12 10h35c7.33301 0 10.333 -3.33301 9 -10l-16 -104c24 36 52.833 65.667 86.5 89s70.5 35 110.5 35c42.667 0 76 -13.667 100 -41zM440.998 395.999
c0 35.333 -7.83496 62 -23.502 80s-38.5 27 -68.5 27c-35.333 0 -70 -13 -104 -39s-64 -63.333 -90 -112l-40 -256c42.667 -32 88.334 -48 137.001 -48c44.667 0 80.834 12.833 108.501 38.5s45.167 62.5 52.5 110.5l25 151c2 18 3 34 3 48z" />
    <glyph glyph-name="q" unicode="q" 
d="M505.5 497.5c1 -2.33301 0.833984 -6.16699 -0.499023 -11.5l-107 -676c-0.666992 -2.66699 -2 -5 -4 -7s-4.66699 -3 -8 -3h-37c-7.33301 0 -10.333 3.33301 -9 10l48 301c-24 -34.667 -53 -63.5 -87 -86.5s-71 -34.5 -111 -34.5c-42.667 0 -75.834 13.5 -99.501 40.5
s-35.5 64.5 -35.5 112.5c0 15.333 1 32 3 50l26 160c10 62 33.667 110.5 71 145.5s87.333 52.5 150 52.5c56.667 0 120.667 -15.333 192 -46c4.66699 -2.66699 7.5 -5.16699 8.5 -7.5zM309.501 82.499c34.333 26.333 64.833 63.833 91.5 112.5l43 273
c-52 20.667 -97.667 31 -137 31c-46.667 0 -84.167 -12.833 -112.5 -38.5s-46.166 -62.5 -53.499 -110.5l-24 -151c-2.66699 -15.333 -4 -31 -4 -47c0 -36.667 8 -64 24 -82s38.667 -27 68 -27c35.333 0 70.166 13.167 104.499 39.5z" />
    <glyph glyph-name="r" unicode="r" horiz-adv-x="356" 
d="M361 543l-5 -34c-0.666992 -8 -5 -12 -13 -12h-6c-36 0 -69.5 -10.5 -100.5 -31.5s-56.5 -48.5 -76.5 -82.5l-60 -373c-0.666992 -6.66699 -4.66699 -10 -12 -10h-35c-8 -0 -11.333 3.33301 -10 10l84 527c1.33301 6.66699 5.33301 10 12 10h35
c7.33301 0 10.333 -3.33301 9 -10l-13 -84c20 30.667 45.333 55.167 76 73.5s65 27.5 103 27.5c10 0 14 -3.66699 12 -11z" />
    <glyph glyph-name="s" unicode="s" horiz-adv-x="488" 
d="M382.5 523.5c29 -21.667 46.166 -50.833 51.499 -87.5v-5c0 -4.66699 -3.33301 -8 -10 -10l-26 -8c-1.33301 -0.666992 -3.33301 -1 -6 -1c-4.66699 0 -7.66699 2.33301 -9 7c-8.66699 58 -45.334 87 -110.001 87c-46 0 -79.667 -10.333 -101 -31s-32 -43.667 -32 -69
c0 -23.333 9.16699 -41.5 27.5 -54.5s48.166 -27.833 89.499 -44.5c48 -19.333 84.167 -39.833 108.5 -61.5s36.5 -51.167 36.5 -88.5c0 -27.333 -6.83301 -53.833 -20.5 -79.5s-35.167 -46.834 -64.5 -63.501s-66 -25 -110 -25c-49.333 0 -90.166 11.5 -122.499 34.5
s-51.166 53.5 -56.499 91.5l-1 6c0 4.66699 3 8 9 10l28 9c2 0.666992 4.33301 1 7 1c4.66699 0 7.33398 -2.66699 8.00098 -8c3.33301 -29.333 16.5 -52.166 39.5 -68.499s52.5 -24.5 88.5 -24.5c46 0 80.5 11.333 103.5 34s34.5 48.667 34.5 78c0 18 -4.83301 33 -14.5 45
s-22.5 22.167 -38.5 30.5s-39.333 18.833 -70 31.5c-47.333 20 -82.333 40.167 -105 60.5s-34 48.5 -34 84.5c0 24.667 6.66699 48.667 20 72s34 42.5 62 57.5s63 22.5 105 22.5c46 0 83.5 -10.833 112.5 -32.5z" />
    <glyph glyph-name="t" unicode="t" horiz-adv-x="344" 
d="M342 533l-3.99707 -27.001c-0.666992 -8 -4.66699 -12 -12 -12h-120l-54 -344c-2.66699 -15.333 -4 -27.666 -4 -36.999c0 -40 23 -60 69 -60h38c4 0 6.66699 -0.833008 8 -2.5s1.66602 -4.5 0.999023 -8.5l-5 -30c-0.666992 -4 -1.83398 -7 -3.50098 -9s-4.5 -3 -8.5 -3
h-41c-36.667 0 -65.334 8.66699 -86.001 26s-31 42.333 -31 75c0 12.667 1.66699 28 5 46l55 347h-76c-8 0 -11.333 3.66699 -10 11l4 28c1.33301 7.33301 5.33301 11 12 11h78l21 138c1.33301 3.33301 2.83301 5.83301 4.5 7.5s4.5 2.5 8.5 2.5h35
c8 0 11.333 -3.33301 10 -10l-22 -138h119c6.66699 0 9.66699 -3.66699 9 -11z" />
    <glyph glyph-name="u" unicode="u" horiz-adv-x="557" 
d="M502 537l-84 -527.001c-1.33301 -6.66699 -5.33301 -10 -12 -10h-35c-7.33301 0 -10.333 3.33301 -9 10l13 85c-22.667 -31.333 -49.834 -56.666 -81.501 -75.999s-64.834 -29 -99.501 -29c-42.667 0 -75.5 12.5 -98.5 37.5s-34.5 58.5 -34.5 100.5
c0 13.333 1 27.333 3 42l58 367c2 6.66699 6.33301 10 13 10h34c8.66699 0 12.334 -3.33301 11.001 -10l-57 -356c-2 -14.667 -3 -29 -3 -43c0 -62.667 30.333 -94 91 -94c31.333 0 63.5 12 96.5 36s59.5 55.333 79.5 94l57 363c0.666992 2.66699 2 5 4 7s4.66699 3 8 3h35
c8.66699 0 12.334 -3.33301 11.001 -10z" />
    <glyph glyph-name="v" unicode="v" horiz-adv-x="506" 
d="M500 543.5c1.33301 -2.33301 1.33398 -5.16699 0.000976562 -8.5l-258 -525c-3.33301 -6.66699 -9 -10 -17 -10h-44c-4.66699 0 -8 0.666992 -10 2s-3.33301 4 -4 8l-92 524v2c0 3.33301 1 6 3 8s4.33301 3 7 3h37c7.33301 0 11.333 -3.33301 12 -10l51 -298l27 -179h2
l82 179l145 298c2.66699 6.66699 7.66699 10 15 10h37c3.33301 0 5.66602 -1.16699 6.99902 -3.5z" />
    <glyph glyph-name="w" unicode="w" horiz-adv-x="720" 
d="M707 543.5c1.33301 -2.33301 1.33496 -5.5 0.00195312 -9.5l-207 -524c-2.66699 -6.66699 -8.33398 -10 -17.001 -10h-43c-8.66699 -0 -13.334 3.33301 -14.001 10l-23 259l-4 46c-6.66699 66.667 -11 116.667 -13 150h-1l-80 -197l-108 -258
c-2.66699 -6.66699 -8 -10 -16 -10h-45c-8.66699 -0 -13.334 3.33301 -14.001 10l-38 524v3c0 6.66699 3 10 9 10h37c7.33301 0 11.333 -3.66699 12 -11l18 -284c2.66699 -46 5.33398 -109.667 8.00098 -191h2c31.333 82 56.666 145.667 75.999 191l118 284
c2.66699 7.33301 7.33398 11 14.001 11h41c6.66699 0 10.667 -3.66699 12 -11l25 -285l14 -189h2c6.66699 16.667 12.334 32 17.001 46s9 26.333 13 37l40 108l108 283c2 7.33301 7 11 15 11h35c3.33301 0 5.66602 -1.16699 6.99902 -3.5z" />
    <glyph glyph-name="x" unicode="x" horiz-adv-x="489" 
d="M479.5 542.5c1 -3 0.499023 -6.16602 -1.50098 -9.49902l-208 -261l126 -257c0.666992 -1.33301 1 -3.33301 1 -6c0 -6 -3.33301 -9 -10 -9h-39c-3.33301 0 -6 0.666992 -8 2s-4 3.66602 -6 6.99902l-102 219l-172 -220c-4.66699 -5.33301 -9.66699 -8 -15 -8h-41
c-4 0 -6.5 1.5 -7.5 4.5s-0.5 5.83301 1.5 8.5l209 262l-126 257c-0.666992 1.33301 -1 3.33301 -1 6c0 6 3.33301 9 10 9h39c6.66699 0 11.334 -3 14.001 -9l103 -218l170 219c4.66699 5.33301 9.66699 8 15 8h41c4 0 6.5 -1.5 7.5 -4.5z" />
    <glyph glyph-name="y" unicode="y" horiz-adv-x="507" 
d="M502 543.5c1.33301 -2.33301 1.33203 -5.16504 -0.000976562 -8.49805l-285 -560c-43.333 -87.333 -97.333 -148.333 -162 -183c-3.33301 -2.66699 -7 -4 -11 -4c-3.33301 0 -6 1.66699 -8 5l-19 28c-1.33301 2 -2 4.66699 -2 8c0 4 2 7 6 9
c35.333 18.667 64.666 41.5 87.999 68.5s46.333 65.833 69 116.5l-105 511v3c0 2.66699 0.833008 5 2.5 7s3.83398 3 6.50098 3h39c6.66699 0 10.334 -3.33301 11.001 -10l56 -289l4 -20c14.667 -80.667 23 -128.334 25 -143.001h2c24 53.333 50 107.666 78 162.999l145 289
c2.66699 6.66699 7.66699 10 15 10h37c4 0 6.66699 -1.16699 8 -3.5z" />
    <glyph glyph-name="z" unicode="z" horiz-adv-x="470" 
d="M446 536l1.00098 -24c0 -6.66699 -2.66699 -13 -8 -19l-357 -440h281c8 0 11.333 -3.66699 10 -11l-4 -30c-0.666992 -8 -5 -12 -13 -12h-338c-6.66699 0 -10.667 3.66699 -12 11l-1 23c0 7.33301 2.66699 14 8 20l357 440h-270c-8 0 -11.333 3.66699 -10 11l4 30
c1.33301 8 5.66602 12 12.999 12h327c6.66699 0 10.667 -3.66699 12 -11z" />
    <glyph glyph-name="braceleft" unicode="{" horiz-adv-x="348" 
d="M372 745l-5 -31.998c-0.666992 -4.66699 -2 -7.83398 -4 -9.50098s-4.66699 -2.5 -8 -2.5h-27c-21.333 0 -39.833 -6.5 -55.5 -19.5s-25.5 -33.167 -29.5 -60.5l-34 -215c-5.33301 -32 -15.333 -59.5 -30 -82.5s-35.334 -37.5 -62.001 -43.5v-2
c18 -4.66699 31.833 -15.5 41.5 -32.5s14.5 -36.5 14.5 -58.5c0 -10.667 -1.33301 -24 -4 -40l-33 -206c-1.33301 -14.667 -2 -24.334 -2 -29.001c0 -18.667 4.83301 -32.667 14.5 -42s22.834 -14 39.501 -14h33c7.33301 0 10 -4 8 -12l-4 -32c-2 -8 -6 -12 -12 -12h-33
c-34.667 0 -61 9.33301 -79 28s-27 44 -27 76c0 15.333 1 29 3 41l32 203c2.66699 18.667 4 31.334 4 38.001c0 20.667 -5.66699 36.334 -17 47.001s-31 16 -59 16c-4.66699 0 -8 1.16699 -10 3.5s-2.33301 5.16602 -1 8.49902l5 36c0.666992 7.33301 6 11 16 11
c58.667 0 93 33 103 99l35 218c6 41.333 20.833 73.666 44.5 96.999s55.167 35 94.5 35h40c7.33301 0 10 -4 8 -12z" />
    <glyph glyph-name="bar" unicode="|" horiz-adv-x="239" 
d="M209.5 729c1.66699 -2 2.16504 -4.33301 1.49805 -7l-145 -912c-1.33301 -6.66699 -5.33301 -10 -12 -10h-33c-3.33301 0 -5.66602 1 -6.99902 3s-1.66602 4.33301 -0.999023 7l144 912c0.666992 2.66699 2 5 4 7s4.66699 3 8 3h33c3.33301 0 5.83301 -1 7.5 -3z" />
    <glyph glyph-name="braceright" unicode="}" horiz-adv-x="347" 
d="M-37 -190l5.00195 32.001c2 8 6 12 12 12h28c21.333 0 39.666 6.66699 54.999 20s25 33.333 29 60l34 215c5.33301 32 15.333 59.5 30 82.5s35.334 37.5 62.001 43.5v2c-18 4.66699 -31.667 15.5 -41 32.5s-14 36.5 -14 58.5c0 14.667 1 28 3 40l33 206
c2 11.333 3 21 3 29c0 18.667 -5 32.667 -15 42s-23.333 14 -40 14h-33c-7.33301 0 -10 4 -8 12l4 32c2 8 6.33301 12 13 12h33c34 0 60.167 -9.33301 78.5 -28s27.5 -44 27.5 -76c0 -11.333 -1.33301 -25 -4 -41l-32 -203c-2.66699 -18.667 -4 -31.334 -4 -38.001
c0 -20.667 5.66699 -36.334 17 -47.001s31 -16 59 -16c9.33301 0 13.333 -4 12 -12l-5 -36c-0.666992 -7.33301 -6.33398 -11 -17.001 -11c-57.333 0 -91.666 -33 -102.999 -99l-34 -218c-6.66699 -41.333 -21.834 -73.666 -45.501 -96.999s-54.834 -35 -93.501 -35h-41
c-7.33301 0 -10 4 -8 12z" />
    <glyph glyph-name="asciitilde" unicode="~" 
d="M448 313c12.667 11.333 24.6709 27.999 36.0039 49.999c4 7.33301 10 9.33301 18 6l24 -11c6.66699 -3.33301 8.66699 -8.33301 6 -15c-12 -32.667 -29 -58.167 -51 -76.5s-49 -27.5 -81 -27.5c-18 0 -36.833 3.83301 -56.5 11.5s-45.834 19.5 -78.501 35.5
c-24.667 12.667 -44.5 22 -59.5 28s-28.167 9 -39.5 9c-20 0 -36.5 -5.66699 -49.5 -17s-25.167 -28 -36.5 -50c-2.66699 -4.66699 -6 -7 -10 -7c-3.33301 0 -6 0.666992 -8 2l-26 13c-2 1.33301 -3.33301 3.33301 -4 6s-0.666992 5.33398 0 8.00098
c12 32.667 29.167 58.167 51.5 76.5s49.166 27.5 80.499 27.5c17.333 0 35.5 -3.83301 54.5 -11.5s43.5 -19.167 73.5 -34.5c29.333 -14.667 51.166 -25 65.499 -31s28.166 -9 41.499 -9c20 0 36.333 5.66699 49 17z" />
    <glyph glyph-name="uni00A0" unicode="&#xa0;" horiz-adv-x="286" 
 />
    <glyph glyph-name="exclamdown" unicode="&#xa1;" horiz-adv-x="238" 
d="M100.5 372c-1.66699 2 -2.16699 4.66699 -1.5 8l25 158c0.666992 6.66699 5 10 13 10h37c6.66699 0 9.66699 -3.66699 9 -11l-25 -157c-1.33301 -7.33301 -5.33301 -11 -12 -11h-38c-3.33301 0 -5.83301 1 -7.5 3zM10 -172c6 38.667 18.167 108.333 36.5 209
s32.833 177.667 43.5 231c2 6.66699 5.66699 10 11 10h23c6 0 8.66699 -3.33301 8 -10c-2.66699 -26 -11.5 -95.667 -26.5 -209s-25.833 -190.333 -32.5 -231c-0.666992 -8 -5.33398 -12 -14.001 -12h-39c-7.33301 0 -10.666 4 -9.99902 12z" />
    <glyph glyph-name="cent" unicode="&#xa2;" 
d="M503 482c0 -5.33301 -2.66699 -8.33203 -8 -8.99902l-30 -10l-5 -1c-3.33301 0 -6 2.66699 -8 8c-8 27.333 -19.5 48.833 -34.5 64.5s-36.5 24.834 -64.5 27.501l-68 -423c63.333 6 107.333 37.667 132 95c1.33301 4 3 6.5 5 7.5s5 0.833008 9 -0.5l29 -12
c6.66699 -3.33301 8.33398 -8.33301 5.00098 -15c-38 -77.333 -99 -119.333 -183 -126l-11 -67c-0.666992 -6.66699 -5 -10 -13 -10h-31c-7.33301 0 -10.666 3.33301 -9.99902 10l11 68c-45.333 5.33301 -80.166 22.166 -104.499 50.499s-36.5 64.833 -36.5 109.5
c0 16 1.33301 30.667 4 44l19 116c10 59.333 32.167 107.166 66.5 143.499s79.166 56.833 134.499 61.5l12 75c2 7.33301 6.66699 11 14 11h30c8 0 11.333 -3.66699 10 -11l-12 -77c39.333 -4.66699 69.666 -17.5 90.999 -38.5s36.666 -48.833 45.999 -83.5
c0.666992 -2 1 -4.66699 1 -8zM168 174.501c17.333 -19.667 41.666 -31.167 72.999 -34.5l68 422c-39.333 -4 -71.166 -19.333 -95.499 -46s-40.833 -64.667 -49.5 -114l-18 -106c-2.66699 -13.333 -4 -26.666 -4 -39.999c0 -34.667 8.66699 -61.834 26 -81.501z" />
    <glyph glyph-name="sterling" unicode="&#xa3;" 
d="M565 616c0 -5.33301 -2.33203 -8.66699 -6.99902 -10l-29 -11l-5 -1c-4 0 -7.33301 2.33301 -10 7c-6.66699 30.667 -18.834 53.167 -36.501 67.5s-42.5 21.5 -74.5 21.5c-45.333 0 -82 -12.667 -110 -38s-46 -62.333 -54 -111l-29 -185h211
c7.33301 0 10.333 -3.66699 9 -11l-6 -32c-0.666992 -7.33301 -4.33398 -11 -11.001 -11h-212l-39 -246h294c7.33301 0 10.333 -3.66699 9 -11l-5 -33c-0.666992 -8 -4.66699 -12 -12 -12h-436c-7.33301 0 -10.333 3.66699 -9 11l5 33c1.33301 8 5.33301 12 12 12h83l39 246
h-82c-4 0 -6.66699 0.833008 -8 2.5s-1.66602 4.5 -0.999023 8.5l5 31c0.666992 8 4.66699 12 12 12h82l30 184c10 64.667 34.667 114.5 74 149.5s90 52.5 152 52.5c44.667 0 80.5 -10.5 107.5 -31.5s44.167 -51.167 51.5 -90.5v-4z" />
    <glyph glyph-name="currency" unicode="&#xa4;" 
d="M524 483c0 -2 -1.66602 -4.66699 -4.99902 -8l-66 -58c16 -26 24 -56 24 -90c0 -24 -5.5 -50.333 -16.5 -79s-26.833 -54.667 -47.5 -78l47 -56c2 -2.66699 3 -5.33398 3 -8.00098c0 -2 -1.66699 -4.66699 -5 -8l-23 -19c-2.66699 -2.66699 -5.66699 -4 -9 -4
c-2.66699 0 -5 1.33301 -7 4l-45 55c-36 -26 -76.667 -39 -122 -39c-44 0 -81.667 14 -113 42l-64 -58c-2.66699 -2 -5.33398 -3 -8.00098 -3s-5.33398 1.33301 -8.00098 4l-19 22c-2 3.33301 -3 5.66602 -3 6.99902c0 2.66699 1.66699 5.66699 5 9l66 57
c-16 28 -24 58 -24 90c0 24.667 5.5 51.334 16.5 80.001s26.833 54.334 47.5 77.001l-47 57c-2 2 -3 4 -3 6c0 2.66699 1.66699 5.66699 5 9l23 20c3.33301 2 6 3 8 3c3.33301 0 6 -1.33301 8 -4l45 -55c36.667 25.333 77.334 38 122.001 38c44 0 81.333 -13.667 112 -41
l65 58c4 2.66699 6.66699 4 8 4c2 0 4.66699 -1.66699 8 -5l19 -22c2 -2 3 -4.33301 3 -7zM337.001 171.5c26 16.333 46.833 37.999 62.5 64.999s23.5 56.167 23.5 87.5c0 34.667 -10.833 63.334 -32.5 86.001s-49.5 34 -83.5 34c-28.667 0 -56 -8 -82 -24
s-47 -37.333 -63 -64s-24 -55.334 -24 -86.001c0 -35.333 11 -64.666 33 -87.999s50 -35 84 -35c28.667 0 56 8.16699 82 24.5z" />
    <glyph glyph-name="yen" unicode="&#xa5;" 
d="M310 309l-3.99902 -23h131c7.33301 0 10.333 -3.66699 9 -11l-6 -34c-0.666992 -7.33301 -4.33398 -11 -11.001 -11h-131l-35 -220c-1.33301 -6.66699 -5.33301 -10 -12 -10h-39c-7.33301 -0 -10.333 3.33301 -9 10l34 220h-133c-4 0 -6.66699 0.833008 -8 2.5
s-1.66602 4.5 -0.999023 8.5l5 33c2 8 6 12 12 12h134l4 22l-150 409c-0.666992 1.33301 -1 3 -1 5c0 6.66699 3 10 9 10h42c4 0 6.66699 -0.666992 8 -2s2.66602 -4 3.99902 -8l126 -352l233 352c2.66699 4 5 6.66699 7 8s5 2 9 2h44c5.33301 0 8 -2.33301 8 -7
c0 -2 -1 -4.66699 -3 -8z" />
    <glyph glyph-name="brokenbar" unicode="&#xa6;" horiz-adv-x="244" 
d="M197.5 640c1.66699 -2 2.16699 -4.66699 1.5 -8l-65 -409v-0.5c0 -0.333008 -0.333008 -0.5 -1 -0.5l-50 -322c-2 -6.66699 -6.33301 -10 -13 -10h-32c-7.33301 0 -10.333 3.33301 -9 10l65 409v1l51 322c1.33301 7.33301 5.33301 11 12 11h33
c3.33301 0 5.83301 -1 7.5 -3z" />
    <glyph glyph-name="section" unicode="&#xa7;" horiz-adv-x="566" 
d="M529 599c0 -4 -2.66602 -7.33203 -7.99902 -9.99902l-30 -11c-1.33301 -0.666992 -3.33301 -1 -6 -1c-4.66699 0 -7.33398 2.33301 -8.00098 7c-16 70 -60.333 105 -133 105c-44 0 -80.333 -12.167 -109 -36.5s-43 -55.166 -43 -92.499c0 -26 9.5 -49.167 28.5 -69.5
s54.167 -44.166 105.5 -71.499c40 -21.333 70.833 -40.166 92.5 -56.499s37.334 -33.833 47.001 -52.5s14.5 -41.334 14.5 -68.001c0 -32.667 -8 -62 -24 -88s-38.667 -47.667 -68 -65c13.333 -15.333 22.833 -31.333 28.5 -48s8.5 -35.334 8.5 -56.001
c0 -38 -9.33301 -72 -28 -102s-44.5 -53.5 -77.5 -70.5s-70.833 -25.5 -113.5 -25.5c-56 0 -101.333 13.333 -136 40s-55.334 64 -62.001 112l-1 4c0 5.33301 3.33301 9 10 11l29 9c1.33301 0.666992 3.33301 1 6 1c4.66699 0 7.33398 -3 8.00098 -9
c3.33301 -36.667 17.833 -65 43.5 -85s60.5 -30 104.5 -30c48 0 86.5 13 115.5 39s43.5 60.333 43.5 103c0 28.667 -9.33301 53.167 -28 73.5s-53.334 43.5 -104.001 69.5c-57.333 29.333 -97.5 56.666 -120.5 81.999s-34.5 57 -34.5 95c0 31.333 8.5 60 25.5 86
s40.833 47 71.5 63c-28.667 31.333 -43 66.666 -43 105.999c0 35.333 9.16699 67 27.5 95s43.666 50 75.999 66s68.833 24 109.5 24c49.333 0 89.833 -11.833 121.5 -35.5s51.834 -58.5 60.501 -104.5v-3zM410.001 286.001c-8 14 -21.166 27.332 -39.499 39.999
s-45.5 28.334 -81.5 47.001c-28.667 14.667 -53.667 29.667 -75 45c-23.333 -12 -41.833 -27.833 -55.5 -47.5s-20.5 -40.834 -20.5 -63.501c0 -19.333 4 -35.666 12 -48.999s21.167 -26.333 39.5 -39s45.833 -28.667 82.5 -48c31.333 -15.333 57.666 -31.333 78.999 -48
c22.667 12 40.167 27.5 52.5 46.5s18.5 40.5 18.5 64.5c0 20.667 -4 38 -12 52z" />
    <glyph glyph-name="dieresis" unicode="&#xa8;" horiz-adv-x="561" 
d="M284 725l-12.999 -82c-0.666992 -7.33301 -5 -11 -13 -11h-31c-8 0 -11 3.66699 -9 11l13 82c1.33301 7.33301 5.66602 11 12.999 11h31c7.33301 0 10.333 -3.66699 9 -11zM452.501 733c1.66699 -2 2.16602 -4.66699 1.49902 -8l-13 -82
c-0.666992 -7.33301 -5 -11 -13 -11h-30c-7.33301 0 -10.666 3.66699 -9.99902 11l13 82c1.33301 7.33301 6 11 14 11h30c3.33301 0 5.83301 -1 7.5 -3z" />
    <glyph glyph-name="copyright" unicode="&#xa9;" horiz-adv-x="906" 
d="M269 39.5c-58 33 -103.667 78.165 -137 135.498s-50 121 -50 191c0 69.333 16.667 132.833 50 190.5s79 103 137 136s122 49.5 192 49.5s133.833 -16.667 191.5 -50s103.167 -78.666 136.5 -135.999s50 -120.666 50 -189.999c0 -70 -16.667 -133.667 -50 -191
s-78.833 -102.5 -136.5 -135.5s-121.5 -49.5 -191.5 -49.5s-134 16.5 -192 49.5zM629.5 77.498c51 29 91.167 68.833 120.5 119.5s44 107 44 169c0 61.333 -14.667 117.333 -44 168s-69.5 90.667 -120.5 120s-107.167 44 -168.5 44c-62 0 -118.5 -14.667 -169.5 -44
s-91.167 -69.333 -120.5 -120s-44 -106.667 -44 -168c0 -62 14.667 -118.333 44 -169s69.5 -90.5 120.5 -119.5s107.5 -43.5 169.5 -43.5c61.333 0 117.5 14.5 168.5 43.5zM611 484.998l-0.000976562 -2.00195c0 -4 -2 -6.66699 -6 -8l-31 -10h-3
c-4 0 -6.33301 1.66699 -7 5c-9.33301 24 -21.666 42.167 -36.999 54.5s-37 18.5 -65 18.5c-34 0 -60.833 -10.333 -80.5 -31s-29.5 -50.667 -29.5 -90v-112c0 -38.667 9.83301 -68.167 29.5 -88.5s46.5 -30.833 80.5 -31.5c28.667 0 51 5.83301 67 17.5
s27.667 30.5 35 56.5c0.666992 2.66699 2.16699 4.66699 4.5 6s4.5 1.33301 6.5 0l31 -11c5.33301 -1.33301 7.33301 -4.33301 6 -9c-20.667 -72 -71 -108 -151 -108c-50.667 0.666992 -90.167 15.834 -118.5 45.501s-42.5 69.834 -42.5 120.501v116
c0 50.667 14.333 91 43 121s68 45 118 45c76.667 0 126.667 -35 150 -105z" />
    <glyph glyph-name="ordfeminine" unicode="&#xaa;" horiz-adv-x="398" 
d="M388 804l-44.999 -280.001c0 -4.66699 -2.33301 -7 -7 -7h-27c-4.66699 0 -6.66699 2.33301 -6 7l9 51c-14 -18.667 -30.833 -34 -50.5 -46s-39.834 -18 -60.501 -18c-25.333 0 -45.166 8 -59.499 24s-21.5 38.333 -21.5 67c0 12.667 0.666992 22.334 2 29.001l15 95
c6 36.667 19.833 65.167 41.5 85.5s50.5 30.5 86.5 30.5c37.333 0 76.666 -9 117.999 -27c4 -2 5.66699 -5.66699 5 -11zM344.001 789.999c-27.333 10.667 -53.001 16 -77.001 16c-24.667 0 -44.5 -7.16699 -59.5 -21.5s-24.833 -35.166 -29.5 -62.499l-14 -85
c-1.33301 -14.667 -2 -24.334 -2 -29.001c0 -19.333 4.5 -34.166 13.5 -44.499s21.833 -15.5 38.5 -15.5c18.667 0 37.334 7.16699 56.001 21.5s35 35.166 49 62.499z" />
    <glyph glyph-name="guillemotleft" unicode="&#xab;" horiz-adv-x="480" 
d="M248 461l-129 -183l68 -180l1 -4c0 -3.33301 -1.66699 -6 -5 -8l-39 -18c-1.33301 -0.666992 -3 -1 -5 -1c-2.66699 0 -5 2 -7 6l-78 204c-2 3.33301 -1.66699 6.66602 1 9.99902l145 207c4 5.33301 8.33301 6 13 2l34 -22c4.66699 -3.33301 5 -7.66602 1 -12.999z
M430 461l-129 -183l68 -180l1 -4c0 -3.33301 -1.66699 -6 -5 -8l-39 -18c-1.33301 -0.666992 -3 -1 -5 -1c-2.66699 0 -5 2 -7 6l-78 204c-2 3.33301 -1.66699 6.66602 1 9.99902l145 207c4 5.33301 8.33301 6 13 2l34 -22c4.66699 -3.33301 5 -7.66602 1 -12.999z" />
    <glyph glyph-name="logicalnot" unicode="&#xac;" 
d="M59 277c-3.33301 0 -5.83301 0.833008 -7.5 2.5s-2.5 4.5 -2.5 8.5v34c0 4.66699 0.833008 7.66699 2.5 9s4.16699 2 7.5 2h433c4 0 6.66699 -0.666992 8 -2s2 -4.33301 2 -9v-182c0 -6.66699 -4 -10 -12 -10h-31c-8 0 -12 3.33301 -12 10v137h-388z" />
    <glyph glyph-name="uni00AD" unicode="&#xad;" horiz-adv-x="477" 
d="M389 322l-5.00098 -33c-0.666992 -8 -4.66699 -12 -12 -12h-280c-4 0 -6.66699 0.833008 -8 2.5s-1.66602 4.5 -0.999023 8.5l5 33c1.33301 8 5.33301 12 12 12h281c7.33301 0 10 -3.66699 8 -11z" />
    <glyph glyph-name="registered" unicode="&#xae;" horiz-adv-x="602" 
d="M446 711.5c35.333 -20.333 63.168 -48.166 83.501 -83.499s30.5 -73.666 30.5 -114.999s-10.167 -79.5 -30.5 -114.5s-48 -62.667 -83 -83s-73.5 -30.5 -115.5 -30.5c-41.333 0 -79.5 10.167 -114.5 30.5s-62.833 48 -83.5 83s-31 73.167 -31 114.5
s10.333 79.666 31 114.999s48.5 63.166 83.5 83.499s73.167 30.5 114.5 30.5s79.666 -10.167 114.999 -30.5zM430.502 342.5c30.333 17.667 54.333 41.5 72 71.5s26.5 63 26.5 99s-8.83301 69.167 -26.5 99.5s-41.667 54.333 -72 72s-63.5 26.5 -99.5 26.5
s-69.167 -8.83301 -99.5 -26.5s-54.333 -41.667 -72 -72s-26.5 -63.5 -26.5 -99.5s8.83301 -69 26.5 -99s41.667 -53.833 72 -71.5s63.5 -26.5 99.5 -26.5s69.167 8.83301 99.5 26.5zM431.002 387c1.33301 -2.66699 2 -4.66797 2 -6.00098c0 -4 -2 -6 -6 -6h-24
c-4 0 -6.33301 1.33301 -7 4l-62 108h-48v-105c0 -4.66699 -2.33301 -7 -7 -7h-21c-4.66699 0 -7 2.33301 -7 7v268c0 4.66699 2.33301 7 7 7h78c30 0 52.167 -7 66.5 -21s21.5 -33.333 21.5 -58v-11c0 -18 -4.5 -33.667 -13.5 -47s-22.167 -22.666 -39.5 -27.999z
M286.002 519.999l48 0.000976562c20 0 34.333 4.16699 43 12.5s13 21.166 13 38.499v4c0 16.667 -4.33301 29.167 -13 37.5s-23 12.5 -43 12.5h-48v-105z" />
    <glyph glyph-name="macron" unicode="&#xaf;" horiz-adv-x="561" 
d="M462 685l-5 -27c-0.666992 -8 -4.33398 -12 -11.001 -12h-232c-4 0 -6.66699 0.833008 -8 2.5s-1.66602 4.5 -0.999023 8.5l4 28c1.33301 7.33301 5.33301 11 12 11h232c6.66699 0 9.66699 -3.66699 9 -11z" />
    <glyph glyph-name="degree" unicode="&#xb0;" horiz-adv-x="407" 
d="M353 708.5c22.667 -22.333 34 -50.5 34 -84.5c0 -27.333 -7.33301 -53 -22 -77s-34 -43 -58 -57s-49.333 -21 -76 -21c-35.333 0 -64.666 11 -87.999 33s-35 49.667 -35 83c0 28 7.33301 54.167 22 78.5s34.167 43.5 58.5 57.5s50.166 21 77.499 21
c35.333 0 64.333 -11.167 87 -33.5zM207 681c-16.667 -10.667 -29.5 -24.667 -38.5 -42s-13.5 -35 -13.5 -53c0 -21.333 7.16699 -38.833 21.5 -52.5s32.833 -20.5 55.5 -20.5c21.333 0 40.333 5.33301 57 16s29.5 24.5 38.5 41.5s13.5 34.5 13.5 52.5
c0 21.333 -7 39 -21 53s-32.333 21 -55 21c-22 0 -41.333 -5.33301 -58 -16z" />
    <glyph glyph-name="plusminus" unicode="&#xb1;" 
d="M38 373c-6.66699 0 -9.99902 4 -9.99902 12v34c0 8 3.33301 12 10 12h206v212c0 6.66699 4 10 12 10h36c8 0 12 -3.33301 12 -10v-212h206c6.66699 0 10 -4 10 -12v-34c0 -8 -3.33301 -12 -10 -12h-206v-212c0 -4 -0.833008 -6.66699 -2.5 -8s-4.83398 -2 -9.50098 -2
h-36c-8 0 -12 3.33301 -12 10v212h-206zM523.001 51.5c1.33301 -1.66699 2 -4.83398 2 -9.50098v-30c0 -8 -3.33301 -12 -10 -12h-473c-6.66699 0 -10 4 -10 12v30c0 4.66699 0.666992 7.83398 2 9.50098s4 2.5 8 2.5h473c4 0 6.66699 -0.833008 8 -2.5z" />
    <glyph glyph-name="uni00B2" unicode="&#xb2;" horiz-adv-x="325" 
d="M308 473l-3.99902 -25.001c-1.33301 -6 -4.66602 -9 -9.99902 -9h-217c-7.33301 0 -11 3.33301 -11 10l-1 20c0 5.33301 2.33301 10.333 7 15l123 114c41.333 38 68.666 67 81.999 87s20 41.333 20 64c0 18 -5.16699 32 -15.5 42s-24.833 15 -43.5 15
c-19.333 0 -35.833 -5 -49.5 -15s-25.834 -25.667 -36.501 -47c-3.33301 -6 -7.33301 -8 -12 -6l-23 8c-6 2 -7.33301 6 -4 12c25.333 59.333 68.333 89 129 89c31.333 0 56 -8.16699 74 -24.5s27 -38.833 27 -67.5c0 -28 -7.83301 -54.667 -23.5 -80
s-46.5 -58.666 -92.5 -99.999l-103 -94h177c6 0 8.33301 -2.66699 7 -8z" />
    <glyph glyph-name="uni00B3" unicode="&#xb3;" horiz-adv-x="326" 
d="M311 679.5c-14 -15.667 -30.6689 -26.501 -50.002 -32.501c16.667 -5.33301 30 -15.166 40 -29.499s15 -30.833 15 -49.5c0 -6 -1 -15 -3 -27c-5.33301 -33.333 -19.5 -59.666 -42.5 -78.999s-51.833 -29 -86.5 -29c-30 0 -55.167 8.33301 -75.5 25
s-31.833 38.334 -34.5 65.001v2c0 3.33301 2.66699 6.66602 8 9.99902l19 5c1.33301 0.666992 3.33301 1 6 1c3.33301 0 5.33301 -2 6 -6c3.33301 -20 11.166 -35.167 23.499 -45.5s28.5 -15.5 48.5 -15.5c23.333 0 42.5 6.16699 57.5 18.5s24.5 30.166 28.5 53.499l2 22
c0 18.667 -6 33 -18 43s-29.333 15 -52 15h-18c-7.33301 0 -10.333 3 -9 9l4 23c1.33301 6 4.33301 9 9 9h19c22.667 0 41.834 6 57.501 18s24.834 28 27.501 48c2 13.333 3 21 3 23c0 16.667 -5.33301 29.334 -16 38.001s-26 13 -46 13
c-35.333 0 -62.666 -18.333 -81.999 -55c-2.66699 -4.66699 -6.66699 -6 -12 -4l-20 10c-4.66699 2 -6 5.66699 -4 11c12 25.333 28.5 44.666 49.5 57.999s45.5 20 73.5 20c31.333 0 56 -7.5 74 -22.5s27 -35.5 27 -61.5c0 -2.66699 -1.33301 -12.667 -4 -30
c-2.66699 -20 -11 -37.833 -25 -53.5z" />
    <glyph glyph-name="acute" unicode="&#xb4;" horiz-adv-x="561" 
d="M270 625c-1.33301 -1.33301 -2.00098 -3.33398 -2.00098 -6.00098c0 -1.33301 0.666992 -2.66602 2 -3.99902s3 -2 5 -2h29c4 0 7.16699 0.666992 9.5 2s4.83301 3 7.5 5l106 125l2 5c0 4.66699 -2.33301 7 -7 7h-41c-5.33301 0 -9.66602 -2.66699 -12.999 -8z" />
    <glyph glyph-name="uni00B5" unicode="&#xb5;" horiz-adv-x="559" 
d="M504 537l-83.9961 -527c-1.33301 -6.66699 -5.33301 -10 -12 -10h-35c-7.33301 -0 -10.333 3.33301 -9 10l13 84c-22.667 -31.333 -49.834 -56.5 -81.501 -75.5s-64.834 -28.5 -99.501 -28.5c-39.333 0 -71 12 -95 36l-34 -216c-1.33301 -6.66699 -5.33301 -10 -12 -10
h-36c-7.33301 0 -10.333 3.33301 -9 10l115 727c1.33301 6.66699 5.33301 10 12 10h37c3.33301 0 5.66602 -1 6.99902 -3s1.66602 -4.33301 0.999023 -7l-56 -359c-2.66699 -14.667 -4 -28 -4 -40c0 -62.667 30.667 -94 92 -94c30.667 0 62.5 12 95.5 36s59.5 55 79.5 93
l58 364c1.33301 6.66699 5.33301 10 12 10h35c8 0 11.333 -3.33301 10 -10z" />
    <glyph glyph-name="paragraph" unicode="&#xb6;" horiz-adv-x="515" 
d="M300.5 729c1.66699 -2 2.16504 -4.33203 1.49805 -6.99902l-61 -382c-1.33301 -6.66699 -5.33301 -10 -12 -10c-30 1.33301 -56.667 10.166 -80 26.499s-41.666 37.5 -54.999 63.5s-20 54.667 -20 86c0 23.333 4 47.333 12 72s20.333 48 37 70
c20.667 26.667 45.834 47.167 75.501 61.5s61.167 21.833 94.5 22.5c3.33301 0 5.83301 -1 7.5 -3zM521.998 721.001l-5 -32c-1.33301 -8 -5 -12 -11 -12h-70l-137 -867c-0.666992 -2.66699 -2 -5 -4 -7s-4.66699 -3 -8 -3h-36c-3.33301 0 -5.83301 1 -7.5 3
s-2.16699 4.33301 -1.5 7l145 912c1.33301 6.66699 5.33301 10 12 10h115c7.33301 0 10 -3.66699 8 -11z" />
    <glyph glyph-name="periodcentered" unicode="&#xb7;" horiz-adv-x="237" 
d="M164 420l-25 -157c-1.33301 -7.33301 -5.66602 -11 -12.999 -11h-36c-8 0 -11.333 3.66699 -10 11l25 157c1.33301 7.33301 5.66602 11 12.999 11h36c8 0 11.333 -3.66699 10 -11z" />
    <glyph glyph-name="cedilla" unicode="&#xb8;" horiz-adv-x="561" 
d="M272 -73.5c12 -13 18.0029 -28.834 18.0029 -47.501c0 -26.667 -10 -49 -30 -67s-45 -27 -75 -27c-11.333 0 -22.5 1.16699 -33.5 3.5s-19.5 5.5 -25.5 9.5c-2.66699 1.33301 -4.33398 2.83301 -5.00098 4.5s-0.333984 4.16699 0.999023 7.5l8 24
c2 6.66699 6.66699 8.33398 14 5.00098c13.333 -6 27 -9 41 -9c16 0 29.333 4.83301 40 14.5s16 21.5 16 35.5c0 12 -4.83301 21.5 -14.5 28.5s-22.5 10.5 -38.5 10.5c-3.33301 0 -5.83301 1.16699 -7.5 3.5s-1.83398 4.83301 -0.500977 7.5l31 92l35 -5l-23 -64
c20.667 -4.66699 37 -13.5 49 -26.5z" />
    <glyph glyph-name="uni00B9" unicode="&#xb9;" horiz-adv-x="223" 
d="M240 839.5c1.33301 -1.66699 1.66699 -3.50098 1 -5.50098l-61 -386c-0.666992 -6 -4 -9 -10 -9h-26c-2.66699 0 -4.66699 0.833008 -6 2.5s-1.66602 3.83398 -0.999023 6.50098l54 344l-72 -29c-1.33301 -0.666992 -3.33301 -1 -6 -1
c-4.66699 0 -7.33398 2.33301 -8.00098 7l-6 17l-1 3c0 4 3 7.33301 9 10l92 38c5.33301 3.33301 11.333 5 18 5h17c2.66699 0 4.66699 -0.833008 6 -2.5z" />
    <glyph glyph-name="ordmasculine" unicode="&#xba;" horiz-adv-x="391" 
d="M354 819.5c19.333 -17.667 28.999 -41.166 28.999 -70.499c0 -8 -0.666992 -16.667 -2 -26l-14 -92c-6 -38.667 -20.833 -68.334 -44.5 -89.001s-55.167 -31 -94.5 -31c-34 0 -60.667 8.66699 -80 26s-29 41 -29 71c0 5.33301 0.666992 14 2 26l15 92
c6 38 20.833 67.5 44.5 88.5s54.834 31.5 93.501 31.5c34 0 60.667 -8.83301 80 -26.5zM208.999 787.001c-16.667 -14.667 -27.334 -36.333 -32.001 -65l-14 -86c-1.33301 -9.33301 -2 -17 -2 -23c0 -20.667 6 -36.667 18 -48s29 -17 51 -17c25.333 0 46.5 7.33301 63.5 22
s27.833 36 32.5 64l13 83c1.33301 12 2 21 2 27c0 20.667 -6.16699 36.667 -18.5 48s-29.166 17 -50.499 17c-25.333 0 -46.333 -7.33301 -63 -22z" />
    <glyph glyph-name="guillemotright" unicode="&#xbb;" horiz-adv-x="479" 
d="M232 278l-145 -207c-4 -5.33301 -8.33301 -6 -13 -2l-34 22c-4.66699 3.33301 -5 7.66602 -1 12.999l129 183l-68 180l-1 4c0 3.33301 1.66699 6 5 8l39 18c1.33301 0.666992 3 1 5 1c2.66699 0 5 -2 7 -6l78 -204c2 -3.33301 1.66699 -6.66602 -1 -9.99902zM414 278
l-145 -207c-4 -5.33301 -8.33301 -6 -13 -2l-34 22c-4.66699 3.33301 -5 7.66602 -1 12.999l129 183l-68 180l-1 4c0 3.33301 1.66699 6 5 8l39 18c1.33301 0.666992 3 1 5 1c2.66699 0 5 -2 7 -6l78 -204c2 -3.33301 1.66699 -6.66602 -1 -9.99902z" />
    <glyph glyph-name="onequarter" unicode="&#xbc;" horiz-adv-x="710" 
d="M245 729.5c1.33301 -1.66699 1.66699 -3.50098 1 -5.50098l-61 -386c-0.666992 -6 -4 -9 -10 -9h-26c-2.66699 0 -4.66699 0.833008 -6 2.5s-1.66602 3.83398 -0.999023 6.50098l54 344l-72 -29c-1.33301 -0.666992 -3.33301 -1 -6 -1
c-4.66699 0 -7.33398 2.33301 -8.00098 7l-6 17l-1 3c0 4 3 7.33301 9 10l92 38c5.33301 3.33301 11.333 5 18 5h17c2.66699 0 4.66699 -0.833008 6 -2.5zM95.001 -0.000976562h-26.001c-4 0 -6.66699 1.33301 -8 4s-0.666016 5.66699 2.00098 9l477 709
c4.66699 6.66699 9.66699 10 15 10h26c3.33301 0 5.83301 -1.33301 7.5 -4s1.16699 -5.66699 -1.5 -9l-477 -709c-4.66699 -6.66699 -9.66699 -10 -15 -10zM631 119.499c1.33301 -1.66699 1.66699 -3.50098 1 -5.50098l-4 -24c-1.33301 -5.33301 -4.33301 -8 -9 -8h-44
l-11 -69c-0.666992 -6 -4 -9 -10 -9h-25c-2.66699 0 -4.66699 0.833008 -6 2.5s-1.66602 3.83398 -0.999023 6.50098l11 69h-152c-4.66699 0 -7.66699 3 -9 9l-3 18l-1 5c0 4 1.33301 7.66699 4 11l172 276c2 4 5.33301 6 10 6h26c5.33301 0 8 -2.33301 8 -7
c0 -2 -1 -4.66699 -3 -8l-168 -270h122l17 109c1.33301 5.33301 4.66602 8 9.99902 8h26c2 0 3.83301 -0.666992 5.5 -2s2.16699 -3.33301 1.5 -6l-17 -109h43c2.66699 0 4.66699 -0.833008 6 -2.5z" />
    <glyph glyph-name="onehalf" unicode="&#xbd;" horiz-adv-x="732" 
d="M245 729.5c1.33301 -1.66699 1.66699 -3.50098 1 -5.50098l-61 -386c-0.666992 -6 -4 -9 -10 -9h-26c-2.66699 0 -4.66699 0.833008 -6 2.5s-1.66602 3.83398 -0.999023 6.50098l54 344l-72 -29c-1.33301 -0.666992 -3.33301 -1 -6 -1
c-4.66699 0 -7.33398 2.33301 -8.00098 7l-6 17l-1 3c0 4 3 7.33301 9 10l92 38c5.33301 3.33301 11.333 5 18 5h17c2.66699 0 4.66699 -0.833008 6 -2.5zM95.001 -0.000976562h-26.001c-4 0 -6.66699 1.33301 -8 4s-0.666016 5.66699 2.00098 9l477 709
c4.66699 6.66699 9.66699 10 15 10h26c3.33301 0 5.83301 -1.33301 7.5 -4s1.16699 -5.66699 -1.5 -9l-477 -709c-4.66699 -6.66699 -9.66699 -10 -15 -10zM630 39.499c1.33301 -1.66699 1.66797 -3.5 1.00098 -5.5l-4 -26c-1.33301 -5.33301 -4.33301 -8 -9 -8h-218
c-6.66699 0 -10 3 -10 9l-1 21c0 6 2 10.667 6 14l124 115c40.667 38 67.667 66.833 81 86.5s20 40.834 20 63.501c0 18.667 -5.16699 33 -15.5 43s-24.833 15 -43.5 15c-19.333 0 -35.833 -5 -49.5 -15s-25.834 -25.667 -36.501 -47c-2 -6 -6 -8 -12 -6l-22 8
c-6 2 -7.66699 6 -5 12c26 59.333 69.333 89 130 89c30.667 0 55 -8.33301 73 -25s27 -39.334 27 -68.001c0 -28 -7.83301 -54.333 -23.5 -79s-46.5 -58 -92.5 -100l-103 -94h177c2.66699 0 4.66699 -0.833008 6 -2.5z" />
    <glyph glyph-name="threequarters" unicode="&#xbe;" horiz-adv-x="812" 
d="M314 569.5c-14 -15.667 -30.6689 -26.501 -50.002 -32.501c16.667 -5.33301 30 -15.166 40 -29.499s15 -30.833 15 -49.5c0 -6 -1 -15 -3 -27c-5.33301 -33.333 -19.5 -59.666 -42.5 -78.999s-51.833 -29 -86.5 -29c-30 0 -55.167 8.33301 -75.5 25
s-31.833 38.334 -34.5 65.001v2c0 3.33301 2.66699 6.66602 8 9.99902l19 5c1.33301 0.666992 3.33301 1 6 1c3.33301 0 5.33301 -2 6 -6c3.33301 -20 11.166 -35.167 23.499 -45.5s28.5 -15.5 48.5 -15.5c23.333 0 42.5 6.16699 57.5 18.5s24.5 30.166 28.5 53.499l2 22
c0 18.667 -6 33 -18 43s-29.333 15 -52 15h-18c-7.33301 0 -10.333 3 -9 9l4 23c1.33301 6 4.33301 9 9 9h19c22.667 0 41.834 6 57.501 18s24.834 28 27.501 48c2 13.333 3 21 3 23c0 16.667 -5.33301 29.334 -16 38.001s-26 13 -46 13
c-35.333 0 -62.666 -18.333 -81.999 -55c-2.66699 -4.66699 -6.66699 -6 -12 -4l-20 10c-4.66699 2 -6 5.66699 -4 11c12 25.333 28.5 44.666 49.5 57.999s45.5 20 73.5 20c31.333 0 56 -7.5 74 -22.5s27 -35.5 27 -61.5c0 -2.66699 -1.33301 -12.667 -4 -30
c-2.66699 -20 -11 -37.833 -25 -53.5zM196.998 -0.000976562h-26.001c-4 0 -6.66699 1.33301 -8 4s-0.666016 5.66699 2.00098 9l477 709c4.66699 6.66699 9.66699 10 15 10h26c3.33301 0 5.83301 -1.33301 7.5 -4s1.16699 -5.66699 -1.5 -9l-477 -709
c-4.66699 -6.66699 -9.66699 -10 -15 -10zM732.997 119.499c1.33301 -1.66699 1.66699 -3.50098 1 -5.50098l-4 -24c-1.33301 -5.33301 -4.33301 -8 -9 -8h-44l-11 -69c-0.666992 -6 -4 -9 -10 -9h-25c-2.66699 0 -4.66699 0.833008 -6 2.5
s-1.66602 3.83398 -0.999023 6.50098l11 69h-152c-4.66699 0 -7.66699 3 -9 9l-3 18l-1 5c0 4 1.33301 7.66699 4 11l172 276c2 4 5.33301 6 10 6h26c5.33301 0 8 -2.33301 8 -7c0 -2 -1 -4.66699 -3 -8l-168 -270h122l17 109c1.33301 5.33301 4.66602 8 9.99902 8h26
c2 0 3.83301 -0.666992 5.5 -2s2.16699 -3.33301 1.5 -6l-17 -109h43c2.66699 0 4.66699 -0.833008 6 -2.5z" />
    <glyph glyph-name="questiondown" unicode="&#xbf;" horiz-adv-x="434" 
d="M202 380l24 158c2 6.66699 6.33301 10 13 10h37c6.66699 0 9.66699 -3.66699 9 -11l-24 -157c-2 -7.33301 -6.33301 -11 -13 -11h-37c-7.33301 0 -10.333 3.66699 -9 11zM31.5 -160.5c-25 22.333 -37.499 52.167 -37.499 89.5c0 34.667 10.167 69.667 30.5 105
s52.166 82 95.499 140l67 93c2.66699 4.66699 5.33398 7.66699 8.00098 9s6.66699 2 12 2h28c5.33301 0 8 -2.66699 8 -8c0 -3.33301 -0.666992 -6 -2 -8c-26.667 -40 -53.334 -77.667 -80.001 -113c-38 -52 -65.5 -93.167 -82.5 -123.5s-25.5 -59.833 -25.5 -88.5
c0 -52 29.333 -78 88 -78c66 0 112 32.333 138 97c4 8.66699 9.66699 12 17 10l29 -9c3.33301 -0.666992 5.33301 -2.5 6 -5.5s0.333984 -6.16699 -0.999023 -9.5c-36.667 -90.667 -102.334 -136 -197.001 -136c-42.667 0 -76.5 11.167 -101.5 33.5z" />
    <glyph glyph-name="Agrave" unicode="&#xc0;" horiz-adv-x="608" 
d="M520 9c0 -6 -3 -8.99902 -9 -8.99902h-40c-6.66699 0 -10.334 3 -11.001 9l-33 218h-273l-102 -218c-2.66699 -6 -7.66699 -9 -15 -9h-39c-3.33301 0 -5.66602 1.16699 -6.99902 3.5s-1.33301 5.16602 0 8.49902l335 710c4 6.66699 9 10 15 10h57
c7.33301 0 11.333 -3 12 -9l110 -711v-3zM419 283.001l-27 177.999l-9 58l-9.5 65c-3.66699 24.667 -7.5 52.334 -11.5 83.001h-3l-70 -153l-26 -55l-83 -176h239zM336 942l-41.001 0.000976562c-3.33301 0 -5.5 -1.33301 -6.5 -4s-0.833008 -5.33398 0.5 -8.00098l88 -124
c2.66699 -3.33301 5 -5.5 7 -6.5s5 -1.5 9 -1.5h29c3.33301 0 5.83301 1.16699 7.5 3.5s1.5 4.83301 -0.5 7.5l-80 125c-3.33301 5.33301 -7.66602 8 -12.999 8z" />
    <glyph glyph-name="Aacute" unicode="&#xc1;" horiz-adv-x="608" 
d="M520 9c0 -6 -3 -8.99902 -9 -8.99902h-40c-6.66699 0 -10.334 3 -11.001 9l-33 218h-273l-102 -218c-2.66699 -6 -7.66699 -9 -15 -9h-39c-3.33301 0 -5.66602 1.16699 -6.99902 3.5s-1.33301 5.16602 0 8.49902l335 710c4 6.66699 9 10 15 10h57
c7.33301 0 11.333 -3 12 -9l110 -711v-3zM419 283.001l-27 177.999l-9 58l-9.5 65c-3.66699 24.667 -7.5 52.334 -11.5 83.001h-3l-70 -153l-26 -55l-83 -176h239zM335 802c-1.33301 2.66699 -0.666992 5.33398 2 8.00098l98 124c3.33301 5.33301 7.66602 8 12.999 8h41
c3.33301 0 5.5 -1.33301 6.5 -4s0.5 -5.33398 -1.5 -8.00098l-106 -125c-2.66699 -2 -5.16699 -3.66699 -7.5 -5s-5.5 -2 -9.5 -2h-29c-3.33301 0 -5.66602 1.33301 -6.99902 4z" />
    <glyph glyph-name="Acircumflex" unicode="&#xc2;" horiz-adv-x="608" 
d="M520 9c0 -6 -3 -8.99902 -9 -8.99902h-40c-6.66699 0 -10.334 3 -11.001 9l-33 218h-273l-102 -218c-2.66699 -6 -7.66699 -9 -15 -9h-39c-3.33301 0 -5.66602 1.16699 -6.99902 3.5s-1.33301 5.16602 0 8.49902l335 710c4 6.66699 9 10 15 10h57
c7.33301 0 11.333 -3 12 -9l110 -711v-3zM419 283.001l-27 177.999l-9 58l-9.5 65c-3.66699 24.667 -7.5 52.334 -11.5 83.001h-3l-70 -153l-26 -55l-83 -176h239zM509.5 809.5c1 -1.66699 1.5 -3.16699 1.5 -4.5c0 -2 -0.833008 -3.66699 -2.5 -5s-3.83398 -2 -6.50098 -2
h-32c-5.33301 0 -9.66602 2.66699 -12.999 8l-65 100l-79 -100c-4.66699 -5.33301 -9.66699 -8 -15 -8h-31c-6 0 -9 2.33301 -9 7c0 2.66699 1.33301 5.66699 4 9l100 120c3.33301 5.33301 8 8 14 8h36c3.33301 0 5.83301 -0.5 7.5 -1.5s3.5 -3.16699 5.5 -6.5l82 -120
c0.666992 -1.33301 1.5 -2.83301 2.5 -4.5z" />
    <glyph glyph-name="Atilde" unicode="&#xc3;" horiz-adv-x="608" 
d="M520 9c0 -6 -3 -8.99902 -9 -8.99902h-40c-6.66699 0 -10.334 3 -11.001 9l-33 218h-273l-102 -218c-2.66699 -6 -7.66699 -9 -15 -9h-39c-3.33301 0 -5.66602 1.16699 -6.99902 3.5s-1.33301 5.16602 0 8.49902l335 710c4 6.66699 9 10 15 10h57
c7.33301 0 11.333 -3 12 -9l110 -711v-3zM419 283.001l-27 177.999l-9 58l-9.5 65c-3.66699 24.667 -7.5 52.334 -11.5 83.001h-3l-70 -153l-26 -55l-83 -176h239zM361 899c10 -4.66699 20.9951 -11.334 32.9951 -20.001c1.33301 -1.33301 5.33301 -4 12 -8
s12.834 -7 18.501 -9s10.834 -3 15.501 -3c18 0 34.667 11.667 50 35c2 5.33301 5.66699 6.33301 11 3l21 -14c4.66699 -2 5.33398 -6 2.00098 -12c-8 -16.667 -19.5 -30.5 -34.5 -41.5s-32.167 -16.5 -51.5 -16.5c-12 0 -22.833 2.33301 -32.5 7s-20.5 11.334 -32.5 20.001
l-12.5 8c-6.33301 4 -12.166 7 -17.499 9s-10.333 3 -15 3c-18 0 -34.333 -11.667 -49 -35c-4 -4.66699 -8.33301 -5.66699 -13 -3l-20 14c-4 3.33301 -4.66699 7.33301 -2 12c8.66699 16.667 20.334 30.5 35.001 41.5s30.667 16.5 48 16.5c12.667 0 24 -2.33301 34 -7z" />
    <glyph glyph-name="Adieresis" unicode="&#xc4;" horiz-adv-x="608" 
d="M520 9c0 -6 -3 -8.99902 -9 -8.99902h-40c-6.66699 0 -10.334 3 -11.001 9l-33 218h-273l-102 -218c-2.66699 -6 -7.66699 -9 -15 -9h-39c-3.33301 0 -5.66602 1.16699 -6.99902 3.5s-1.33301 5.16602 0 8.49902l335 710c4 6.66699 9 10 15 10h57
c7.33301 0 11.333 -3 12 -9l110 -711v-3zM419 283.001l-27 177.999l-9 58l-9.5 65c-3.66699 24.667 -7.5 52.334 -11.5 83.001h-3l-70 -153l-26 -55l-83 -176h239zM340 910l-13 -82c-2 -7.33301 -6.66699 -11 -14 -11h-30c-7.33301 0 -10.666 3.66699 -9.99902 11l14 82
c1.33301 7.33301 5.66602 11 12.999 11h30c8 0 11.333 -3.66699 10 -11zM510 910l-12.999 -82c-0.666992 -7.33301 -5 -11 -13 -11h-31c-6.66699 0 -9.66699 3.66699 -9 11l13 82c1.33301 7.33301 5.66602 11 12.999 11h31c7.33301 0 10.333 -3.66699 9 -11z" />
    <glyph glyph-name="Aring" unicode="&#xc5;" horiz-adv-x="608" 
d="M520 9c0 -6 -3 -8.99902 -9 -8.99902h-40c-6.66699 0 -10.334 3 -11.001 9l-33 218h-273l-102 -218c-2.66699 -6 -7.66699 -9 -15 -9h-39c-3.33301 0 -5.66602 1.16699 -6.99902 3.5s-1.33301 5.16602 0 8.49902l335 710c4 6.66699 9 10 15 10h57
c7.33301 0 11.333 -3 12 -9l110 -711v-3zM419 283.001l-27 177.999l-9 58l-9.5 65c-3.66699 24.667 -7.5 52.334 -11.5 83.001h-3l-70 -153l-26 -55l-83 -176h239zM320 801c-18 17.333 -27 38.667 -27 64c0 30 10.667 56 32 78s47 33 77 33c26 0 48 -9 66 -27
s27 -39.667 27 -65c0 -29.333 -10.667 -54.833 -32 -76.5s-47 -32.5 -77 -32.5c-26 0 -48 8.66699 -66 26zM435 834.501c12.667 13 18.999 29.168 18.999 48.501c0 15.333 -5 28 -15 38s-23 15 -39 15c-19.333 0 -35.166 -6.5 -47.499 -19.5s-18.5 -29.833 -18.5 -50.5
c0 -14.667 5 -26.834 15 -36.501s22.667 -14.5 38 -14.5c19.333 0 35.333 6.5 48 19.5z" />
    <glyph glyph-name="AE" unicode="&#xc6;" horiz-adv-x="862" 
d="M852 721l-5.99902 -34c-1.33301 -7.33301 -5.33301 -11 -12 -11h-300l-44 -275h274c7.33301 0 10.333 -3.66699 9 -11l-6 -33c-0.666992 -8 -4.33398 -12 -11.001 -12h-275l-45 -289h301c6.66699 0 9.66699 -3.66699 9 -11l-6 -33c-0.666992 -8 -4.66699 -12 -12 -12
h-349c-8.66699 0 -12.334 3.66699 -11.001 11l34 216h-226l-143 -218c-4 -6 -9 -9 -15 -9h-43c-3.33301 -0 -5.66602 1.33301 -6.99902 4s-1 5.66699 1 9l468 709c2.66699 4 5 6.66699 7 8s5 2 9 2h389c8 0 11.333 -3.66699 10 -11zM411.001 283l63 393h-3l-258 -393h198z
" />
    <glyph glyph-name="Ccedilla" unicode="&#xc7;" horiz-adv-x="584" 
d="M568 579c0 -5.33301 -3.66309 -9.00098 -10.9961 -11.001l-32 -9c-1.33301 -0.666992 -3.33301 -1 -6 -1c-4.66699 0 -7.33398 2.66699 -8.00098 8c-8 40.667 -22.667 70.667 -44 90s-52.666 29 -93.999 29c-50.667 0 -94 -15.5 -130 -46.5s-59.333 -79.167 -70 -144.5
l-41 -258c-2.66699 -22.667 -4 -39 -4 -49c0 -46 12.5 -80.833 37.5 -104.5s59.5 -35.5 103.5 -35.5c40 0 75.5 11.333 106.5 34s56.5 54.334 76.5 95.001c2.66699 5.33301 5.66699 8 9 8s6 -0.666992 8 -2l32 -11c4 -2 6 -4.66699 6 -8c0 -2.66699 -1 -5.66699 -3 -9
c-24.667 -50.667 -56.834 -90.334 -96.501 -119.001s-85.5 -43.667 -137.5 -45l-13 -36c20.667 -4.66699 37 -13.667 49 -27s18 -29.333 18 -48c0 -26.667 -10 -49 -30 -67s-45 -27 -75 -27c-11.333 0 -22.5 1.16699 -33.5 3.5s-19.5 5.5 -25.5 9.5
c-2.66699 1.33301 -4.33398 2.83301 -5.00098 4.5s-0.333984 4.16699 0.999023 7.5l8 24c2 6.66699 6.66699 8.33398 14 5.00098c13.333 -6 27 -9 41 -9c16 0 29.333 4.83301 40 14.5s16 21.5 16 35.5c0 12 -4.83301 21.5 -14.5 28.5s-22.5 10.5 -38.5 10.5
c-3.33301 0 -5.83301 1.16699 -7.5 3.5s-1.83398 4.83301 -0.500977 7.5l21 61c-51.333 5.33301 -92.333 24.333 -123 57s-46 76.667 -46 132c0 14.667 1.66699 32 5 52l43 269c12.667 78.667 42.667 138.5 90 179.5s105 61.5 173 61.5c108 0 171.333 -52.667 190 -158z" />
    <glyph glyph-name="Egrave" unicode="&#xc8;" horiz-adv-x="549" 
d="M538 721l-4.99707 -34c-1.33301 -7.33301 -5.33301 -11 -12 -11h-301l-43 -275h274c7.33301 0 10.333 -3.66699 9 -11l-6 -33c-0.666992 -8 -4.33398 -12 -11.001 -12h-275l-45 -289h301c7.33301 0 10 -3.66699 8 -11l-5 -33c-0.666992 -8 -4.66699 -12 -12 -12h-349
c-8.66699 0 -12.334 3.66699 -11.001 11l113 711c1.33301 6.66699 5.66602 10 12.999 10h348c8 0 11 -3.66699 9 -11zM311.003 942l-41.001 0.000976562c-3.33301 0 -5.5 -1.33301 -6.5 -4s-0.833008 -5.33398 0.5 -8.00098l88 -124c2.66699 -3.33301 5 -5.5 7 -6.5
s5 -1.5 9 -1.5h29c3.33301 0 5.83301 1.16699 7.5 3.5s1.5 4.83301 -0.5 7.5l-80 125c-3.33301 5.33301 -7.66602 8 -12.999 8z" />
    <glyph glyph-name="Eacute" unicode="&#xc9;" horiz-adv-x="549" 
d="M538 721l-4.99707 -34c-1.33301 -7.33301 -5.33301 -11 -12 -11h-301l-43 -275h274c7.33301 0 10.333 -3.66699 9 -11l-6 -33c-0.666992 -8 -4.33398 -12 -11.001 -12h-275l-45 -289h301c7.33301 0 10 -3.66699 8 -11l-5 -33c-0.666992 -8 -4.66699 -12 -12 -12h-349
c-8.66699 0 -12.334 3.66699 -11.001 11l113 711c1.33301 6.66699 5.66602 10 12.999 10h348c8 0 11 -3.66699 9 -11zM311.003 802c-1.33301 2.66699 -0.666992 5.33398 2 8.00098l98 124c3.33301 5.33301 7.66602 8 12.999 8h41c3.33301 0 5.5 -1.33301 6.5 -4
s0.5 -5.33398 -1.5 -8.00098l-106 -125c-2.66699 -2 -5.16699 -3.66699 -7.5 -5s-5.5 -2 -9.5 -2h-29c-3.33301 0 -5.66602 1.33301 -6.99902 4z" />
    <glyph glyph-name="Ecircumflex" unicode="&#xca;" horiz-adv-x="549" 
d="M538 721l-4.99707 -34c-1.33301 -7.33301 -5.33301 -11 -12 -11h-301l-43 -275h274c7.33301 0 10.333 -3.66699 9 -11l-6 -33c-0.666992 -8 -4.33398 -12 -11.001 -12h-275l-45 -289h301c7.33301 0 10 -3.66699 8 -11l-5 -33c-0.666992 -8 -4.66699 -12 -12 -12h-349
c-8.66699 0 -12.334 3.66699 -11.001 11l113 711c1.33301 6.66699 5.66602 10 12.999 10h348c8 0 11 -3.66699 9 -11zM484.503 809.5c1 -1.66699 1.5 -3.16699 1.5 -4.5c0 -2 -0.833008 -3.66699 -2.5 -5s-3.83398 -2 -6.50098 -2h-32
c-5.33301 0 -9.66602 2.66699 -12.999 8l-65 100l-79 -100c-4.66699 -5.33301 -9.66699 -8 -15 -8h-31c-6 0 -9 2.33301 -9 7c0 2.66699 1.33301 5.66699 4 9l100 120c3.33301 5.33301 8 8 14 8h36c3.33301 0 5.83301 -0.5 7.5 -1.5s3.5 -3.16699 5.5 -6.5l82 -120
c0.666992 -1.33301 1.5 -2.83301 2.5 -4.5z" />
    <glyph glyph-name="Edieresis" unicode="&#xcb;" horiz-adv-x="549" 
d="M538 721l-4.99707 -34c-1.33301 -7.33301 -5.33301 -11 -12 -11h-301l-43 -275h274c7.33301 0 10.333 -3.66699 9 -11l-6 -33c-0.666992 -8 -4.33398 -12 -11.001 -12h-275l-45 -289h301c7.33301 0 10 -3.66699 8 -11l-5 -33c-0.666992 -8 -4.66699 -12 -12 -12h-349
c-8.66699 0 -12.334 3.66699 -11.001 11l113 711c1.33301 6.66699 5.66602 10 12.999 10h348c8 0 11 -3.66699 9 -11zM315.003 910l-13 -82c-2 -7.33301 -6.66699 -11 -14 -11h-30c-7.33301 0 -10.666 3.66699 -9.99902 11l14 82c1.33301 7.33301 5.66602 11 12.999 11h30
c8 0 11.333 -3.66699 10 -11zM485.003 910l-12.999 -82c-0.666992 -7.33301 -5 -11 -13 -11h-31c-6.66699 0 -9.66699 3.66699 -9 11l13 82c1.33301 7.33301 5.66602 11 12.999 11h31c7.33301 0 10.333 -3.66699 9 -11z" />
    <glyph glyph-name="Igrave" unicode="&#xcc;" horiz-adv-x="267" 
d="M228 722l-113 -712c-1.33301 -6.66699 -5.33301 -10 -12 -10h-39c-7.33301 -0 -10.333 3.33301 -9 10l113 712c1.33301 6.66699 5.33301 10 12 10h39c7.33301 0 10.333 -3.33301 9 -10zM164 942l-41.001 0.000976562c-3.33301 0 -5.5 -1.33301 -6.5 -4
s-0.833008 -5.33398 0.5 -8.00098l88 -124c2.66699 -3.33301 5 -5.5 7 -6.5s5 -1.5 9 -1.5h29c3.33301 0 5.83301 1.16699 7.5 3.5s1.5 4.83301 -0.5 7.5l-80 125c-3.33301 5.33301 -7.66602 8 -12.999 8z" />
    <glyph glyph-name="Iacute" unicode="&#xcd;" horiz-adv-x="267" 
d="M228 722l-113 -712c-1.33301 -6.66699 -5.33301 -10 -12 -10h-39c-7.33301 -0 -10.333 3.33301 -9 10l113 712c1.33301 6.66699 5.33301 10 12 10h39c7.33301 0 10.333 -3.33301 9 -10zM163 802c-1.33301 2.66699 -0.666992 5.33398 2 8.00098l98 124
c3.33301 5.33301 7.66602 8 12.999 8h41c3.33301 0 5.5 -1.33301 6.5 -4s0.5 -5.33398 -1.5 -8.00098l-106 -125c-2.66699 -2 -5.16699 -3.66699 -7.5 -5s-5.5 -2 -9.5 -2h-29c-3.33301 0 -5.66602 1.33301 -6.99902 4z" />
    <glyph glyph-name="Icircumflex" unicode="&#xce;" horiz-adv-x="267" 
d="M228 722l-113 -712c-1.33301 -6.66699 -5.33301 -10 -12 -10h-39c-7.33301 -0 -10.333 3.33301 -9 10l113 712c1.33301 6.66699 5.33301 10 12 10h39c7.33301 0 10.333 -3.33301 9 -10zM337.5 809.5c1 -1.66699 1.5 -3.16699 1.5 -4.5c0 -2 -0.833008 -3.66699 -2.5 -5
s-3.83398 -2 -6.50098 -2h-32c-5.33301 0 -9.66602 2.66699 -12.999 8l-65 100l-79 -100c-4.66699 -5.33301 -9.66699 -8 -15 -8h-31c-6 0 -9 2.33301 -9 7c0 2.66699 1.33301 5.66699 4 9l100 120c3.33301 5.33301 8 8 14 8h36c3.33301 0 5.83301 -0.5 7.5 -1.5
s3.5 -3.16699 5.5 -6.5l82 -120c0.666992 -1.33301 1.5 -2.83301 2.5 -4.5z" />
    <glyph glyph-name="Idieresis" unicode="&#xcf;" horiz-adv-x="267" 
d="M228 722l-113 -712c-1.33301 -6.66699 -5.33301 -10 -12 -10h-39c-7.33301 -0 -10.333 3.33301 -9 10l113 712c1.33301 6.66699 5.33301 10 12 10h39c7.33301 0 10.333 -3.33301 9 -10zM168 910l-13 -82c-2 -7.33301 -6.66699 -11 -14 -11h-30
c-7.33301 0 -10.666 3.66699 -9.99902 11l14 82c1.33301 7.33301 5.66602 11 12.999 11h30c8 0 11.333 -3.66699 10 -11zM338 910l-12.999 -82c-0.666992 -7.33301 -5 -11 -13 -11h-31c-6.66699 0 -9.66699 3.66699 -9 11l13 82c1.33301 7.33301 5.66602 11 12.999 11h31
c7.33301 0 10.333 -3.66699 9 -11z" />
    <glyph glyph-name="Eth" unicode="&#xd0;" horiz-adv-x="674" 
d="M564 685c38.667 -31.333 58.001 -78.001 58.001 -140.001c0 -18 -1.33301 -35.333 -4 -52l-41 -255c-12 -79.333 -42.667 -138.833 -92 -178.5s-113.666 -59.5 -192.999 -59.5h-198c-8.66699 0 -12.334 3.66699 -11.001 11l52 327h-93c-4 0 -6.66699 0.833008 -8 2.5
s-1.66602 4.5 -0.999023 8.5l5 33c1.33301 4.66699 2.66602 7.83398 3.99902 9.50098s4 2.5 8 2.5h94l52 328c1.33301 6.66699 5.66602 10 12.999 10h193c69.333 0 123.333 -15.667 162 -47zM561.001 533.999c0 49.333 -14.499 85.167 -43.499 107.5s-70.5 33.5 -124.5 33.5
h-144l-45 -281h140c6.66699 0 9.66699 -3.66699 9 -11l-6 -33c-0.666992 -8 -4.33398 -12 -11.001 -12h-140l-45 -281h140c131.333 0 207.333 64.667 228 194l37 230c3.33301 22 5 39.667 5 53z" />
    <glyph glyph-name="Ntilde" unicode="&#xd1;" horiz-adv-x="682" 
d="M641 729c1.33301 -2 1.66895 -4.33203 1.00195 -6.99902l-112 -710c-0.666992 -8 -5.66699 -12 -15 -12h-53c-8 0 -13.333 3.33301 -16 10l-165 461l-35 106l-30 90h-1c-8 -61.333 -16.667 -123 -26 -185l-75 -472c-0.666992 -2.66699 -2 -5 -4 -7s-4.66699 -3 -8 -3h-38
c-7.33301 0 -10.333 3.33301 -9 10l112 710c1.33301 8 6.33301 12 15 12h57c8 0 13.333 -3.33301 16 -10l164 -460c13.333 -37.333 34.666 -101.333 63.999 -192h2c6.66699 61.333 15 123.666 25 186.999l74 465c1.33301 6.66699 5.33301 10 12 10h38
c3.33301 0 5.66602 -1 6.99902 -3zM389.003 899.001c10 -4.66699 20.9951 -11.334 32.9951 -20.001c1.33301 -1.33301 5.33301 -4 12 -8s12.834 -7 18.501 -9s10.834 -3 15.501 -3c18 0 34.667 11.667 50 35c2 5.33301 5.66699 6.33301 11 3l21 -14
c4.66699 -2 5.33398 -6 2.00098 -12c-8 -16.667 -19.5 -30.5 -34.5 -41.5s-32.167 -16.5 -51.5 -16.5c-12 0 -22.833 2.33301 -32.5 7s-20.5 11.334 -32.5 20.001l-12.5 8c-6.33301 4 -12.166 7 -17.499 9s-10.333 3 -15 3c-18 0 -34.333 -11.667 -49 -35
c-4 -4.66699 -8.33301 -5.66699 -13 -3l-20 14c-4 3.33301 -4.66699 7.33301 -2 12c8.66699 16.667 20.334 30.5 35.001 41.5s30.667 16.5 48 16.5c12.667 0 24 -2.33301 34 -7z" />
    <glyph glyph-name="Ograve" unicode="&#xd2;" horiz-adv-x="652" 
d="M544.5 693c38.333 -32.667 57.501 -80 57.501 -142c0 -14.667 -1.66699 -32 -5 -52l-42 -267c-12 -79.333 -42.333 -139.5 -91 -180.5s-110.334 -61.5 -185.001 -61.5c-66 0 -118 16 -156 48s-57 78.667 -57 140c0 14.667 1.66699 32.667 5 54l42 267
c13.333 80 44 140.5 92 181.5s109 61.5 183 61.5c66 0 118.167 -16.333 156.5 -49zM243.001 638c-36.667 -31.333 -60 -79.333 -70 -144l-42 -267c-3.33301 -18 -5 -33.333 -5 -46c0 -45.333 13.5 -79 40.5 -101s65.167 -33 114.5 -33c58.667 0 106.667 15.667 144 47
s61 79 71 143l42 267c2.66699 18.667 4 33.667 4 45c0 45.333 -13.667 79.333 -41 102s-65.666 34 -114.999 34c-58.667 0 -106.334 -15.667 -143.001 -47zM351.001 942l-41.001 0.000976562c-3.33301 0 -5.5 -1.33301 -6.5 -4s-0.833008 -5.33398 0.5 -8.00098l88 -124
c2.66699 -3.33301 5 -5.5 7 -6.5s5 -1.5 9 -1.5h29c3.33301 0 5.83301 1.16699 7.5 3.5s1.5 4.83301 -0.5 7.5l-80 125c-3.33301 5.33301 -7.66602 8 -12.999 8z" />
    <glyph glyph-name="Oacute" unicode="&#xd3;" horiz-adv-x="652" 
d="M544.5 693c38.333 -32.667 57.501 -80 57.501 -142c0 -14.667 -1.66699 -32 -5 -52l-42 -267c-12 -79.333 -42.333 -139.5 -91 -180.5s-110.334 -61.5 -185.001 -61.5c-66 0 -118 16 -156 48s-57 78.667 -57 140c0 14.667 1.66699 32.667 5 54l42 267
c13.333 80 44 140.5 92 181.5s109 61.5 183 61.5c66 0 118.167 -16.333 156.5 -49zM243.001 638c-36.667 -31.333 -60 -79.333 -70 -144l-42 -267c-3.33301 -18 -5 -33.333 -5 -46c0 -45.333 13.5 -79 40.5 -101s65.167 -33 114.5 -33c58.667 0 106.667 15.667 144 47
s61 79 71 143l42 267c2.66699 18.667 4 33.667 4 45c0 45.333 -13.667 79.333 -41 102s-65.666 34 -114.999 34c-58.667 0 -106.334 -15.667 -143.001 -47zM350.001 802c-1.33301 2.66699 -0.666992 5.33398 2 8.00098l98 124c3.33301 5.33301 7.66602 8 12.999 8h41
c3.33301 0 5.5 -1.33301 6.5 -4s0.5 -5.33398 -1.5 -8.00098l-106 -125c-2.66699 -2 -5.16699 -3.66699 -7.5 -5s-5.5 -2 -9.5 -2h-29c-3.33301 0 -5.66602 1.33301 -6.99902 4z" />
    <glyph glyph-name="Ocircumflex" unicode="&#xd4;" horiz-adv-x="652" 
d="M544.5 693c38.333 -32.667 57.501 -80 57.501 -142c0 -14.667 -1.66699 -32 -5 -52l-42 -267c-12 -79.333 -42.333 -139.5 -91 -180.5s-110.334 -61.5 -185.001 -61.5c-66 0 -118 16 -156 48s-57 78.667 -57 140c0 14.667 1.66699 32.667 5 54l42 267
c13.333 80 44 140.5 92 181.5s109 61.5 183 61.5c66 0 118.167 -16.333 156.5 -49zM243.001 638c-36.667 -31.333 -60 -79.333 -70 -144l-42 -267c-3.33301 -18 -5 -33.333 -5 -46c0 -45.333 13.5 -79 40.5 -101s65.167 -33 114.5 -33c58.667 0 106.667 15.667 144 47
s61 79 71 143l42 267c2.66699 18.667 4 33.667 4 45c0 45.333 -13.667 79.333 -41 102s-65.666 34 -114.999 34c-58.667 0 -106.334 -15.667 -143.001 -47zM524.501 809.5c1 -1.66699 1.5 -3.16699 1.5 -4.5c0 -2 -0.833008 -3.66699 -2.5 -5s-3.83398 -2 -6.50098 -2h-32
c-5.33301 0 -9.66602 2.66699 -12.999 8l-65 100l-79 -100c-4.66699 -5.33301 -9.66699 -8 -15 -8h-31c-6 0 -9 2.33301 -9 7c0 2.66699 1.33301 5.66699 4 9l100 120c3.33301 5.33301 8 8 14 8h36c3.33301 0 5.83301 -0.5 7.5 -1.5s3.5 -3.16699 5.5 -6.5l82 -120
c0.666992 -1.33301 1.5 -2.83301 2.5 -4.5z" />
    <glyph glyph-name="Otilde" unicode="&#xd5;" horiz-adv-x="652" 
d="M544.5 693c38.333 -32.667 57.501 -80 57.501 -142c0 -14.667 -1.66699 -32 -5 -52l-42 -267c-12 -79.333 -42.333 -139.5 -91 -180.5s-110.334 -61.5 -185.001 -61.5c-66 0 -118 16 -156 48s-57 78.667 -57 140c0 14.667 1.66699 32.667 5 54l42 267
c13.333 80 44 140.5 92 181.5s109 61.5 183 61.5c66 0 118.167 -16.333 156.5 -49zM243.001 638c-36.667 -31.333 -60 -79.333 -70 -144l-42 -267c-3.33301 -18 -5 -33.333 -5 -46c0 -45.333 13.5 -79 40.5 -101s65.167 -33 114.5 -33c58.667 0 106.667 15.667 144 47
s61 79 71 143l42 267c2.66699 18.667 4 33.667 4 45c0 45.333 -13.667 79.333 -41 102s-65.666 34 -114.999 34c-58.667 0 -106.334 -15.667 -143.001 -47zM376.001 899c10 -4.66699 20.9951 -11.334 32.9951 -20.001c1.33301 -1.33301 5.33301 -4 12 -8
s12.834 -7 18.501 -9s10.834 -3 15.501 -3c18 0 34.667 11.667 50 35c2 5.33301 5.66699 6.33301 11 3l21 -14c4.66699 -2 5.33398 -6 2.00098 -12c-8 -16.667 -19.5 -30.5 -34.5 -41.5s-32.167 -16.5 -51.5 -16.5c-12 0 -22.833 2.33301 -32.5 7s-20.5 11.334 -32.5 20.001
l-12.5 8c-6.33301 4 -12.166 7 -17.499 9s-10.333 3 -15 3c-18 0 -34.333 -11.667 -49 -35c-4 -4.66699 -8.33301 -5.66699 -13 -3l-20 14c-4 3.33301 -4.66699 7.33301 -2 12c8.66699 16.667 20.334 30.5 35.001 41.5s30.667 16.5 48 16.5c12.667 0 24 -2.33301 34 -7z" />
    <glyph glyph-name="Odieresis" unicode="&#xd6;" horiz-adv-x="652" 
d="M544.5 693c38.333 -32.667 57.501 -80 57.501 -142c0 -14.667 -1.66699 -32 -5 -52l-42 -267c-12 -79.333 -42.333 -139.5 -91 -180.5s-110.334 -61.5 -185.001 -61.5c-66 0 -118 16 -156 48s-57 78.667 -57 140c0 14.667 1.66699 32.667 5 54l42 267
c13.333 80 44 140.5 92 181.5s109 61.5 183 61.5c66 0 118.167 -16.333 156.5 -49zM243.001 638c-36.667 -31.333 -60 -79.333 -70 -144l-42 -267c-3.33301 -18 -5 -33.333 -5 -46c0 -45.333 13.5 -79 40.5 -101s65.167 -33 114.5 -33c58.667 0 106.667 15.667 144 47
s61 79 71 143l42 267c2.66699 18.667 4 33.667 4 45c0 45.333 -13.667 79.333 -41 102s-65.666 34 -114.999 34c-58.667 0 -106.334 -15.667 -143.001 -47zM355.001 910l-13 -82c-2 -7.33301 -6.66699 -11 -14 -11h-30c-7.33301 0 -10.666 3.66699 -9.99902 11l14 82
c1.33301 7.33301 5.66602 11 12.999 11h30c8 0 11.333 -3.66699 10 -11zM525.001 910l-12.999 -82c-0.666992 -7.33301 -5 -11 -13 -11h-31c-6.66699 0 -9.66699 3.66699 -9 11l13 82c1.33301 7.33301 5.66602 11 12.999 11h31c7.33301 0 10.333 -3.66699 9 -11z" />
    <glyph glyph-name="multiply" unicode="&#xd7;" 
d="M495 131c2 -2 3.00195 -3.99805 3.00195 -5.99805c0 -2.66699 -1.33301 -5.66699 -4 -9l-25 -24c-2.66699 -3.33301 -5.33398 -5 -8.00098 -5s-5 1 -7 3l-174 174l-174 -174c-2 -2 -4.33301 -3 -7 -3s-5.66699 1.66699 -9 5l-24 24c-6 6 -6.66699 11.333 -2 16l175 174
l-175 175c-2 2 -3 4 -3 6c0 2.66699 1.66699 5.66699 5 9l24 24c6 6 11 6.33301 15 1l175 -174l174 174c2 2 4 3 6 3c3.33301 0 6.66602 -1.66699 9.99902 -5l25 -24c2.66699 -2.66699 4 -5.33398 4 -8.00098s-1.33301 -5.33398 -4 -8.00098l-174 -174z" />
    <glyph glyph-name="Oslash" unicode="&#xd8;" horiz-adv-x="652" 
d="M644 785c1.33301 -2.66699 0.667969 -5.33301 -1.99902 -8l-74 -109c22.667 -30.667 34 -69.667 34 -117c0 -14.667 -1.66699 -32 -5 -52l-42 -267c-12 -79.333 -42.333 -139.5 -91 -180.5s-110.334 -61.5 -185.001 -61.5c-62 0 -111 13.667 -147 41l-47 -69
c-2.66699 -4 -5 -6.5 -7 -7.5s-4.66699 -1.5 -8 -1.5h-30c-3.33301 0 -5.66602 1.16699 -6.99902 3.5s-1 5.16602 1 8.49902l66 97c-22.667 30.667 -34 69.334 -34 116.001c0 14.667 1.66699 32.667 5 54l42 267c13.333 80 44 140.5 92 181.5s109 61.5 183 61.5
c62 0 111.333 -14 148 -42l55 80c2.66699 4 5 6.5 7 7.5s4.66699 1.5 8 1.5h31c3.33301 0 5.66602 -1.33301 6.99902 -4zM138.002 118.001l364.002 532c-26 23.333 -64.667 35 -116 35c-58.667 0 -106.334 -15.667 -143.001 -47s-60.334 -79.333 -71.001 -144l-42 -267
c-2.66699 -14 -4 -29.333 -4 -46c0 -24.667 4 -45.667 12 -63zM530.004 613.001l-364.001 -533c26 -22 64.333 -33 115 -33c58.667 0 106.834 15.833 144.501 47.5s61.167 79.167 70.5 142.5l42 267c2.66699 18.667 4 33.667 4 45c0 24.667 -4 46 -12 64z" />
    <glyph glyph-name="Ugrave" unicode="&#xd9;" horiz-adv-x="662" 
d="M627 722l-78.9971 -497.001c-12 -78 -41.333 -136.667 -88 -176s-105.334 -59 -176.001 -59c-61.333 0 -110.5 16.167 -147.5 48.5s-55.5 78.5 -55.5 138.5c0 18.667 1.33301 36.334 4 53.001l78 492c1.33301 6.66699 5.33301 10 12 10h39
c7.33301 0 10.333 -3.33301 9 -10l-78 -490c-2.66699 -16 -4 -32.333 -4 -49c0 -46.667 13.167 -81 39.5 -103s62.166 -33 107.499 -33c53.333 0 97.666 15 132.999 45s58 76.667 68 140l78 490c1.33301 6.66699 5.33301 10 12 10h39c7.33301 0 10.333 -3.33301 9 -10z
M362.003 938.999l-41.001 0.000976562c-3.33301 0 -5.5 -1.33301 -6.5 -4s-0.833008 -5.33398 0.5 -8.00098l88 -124c2.66699 -3.33301 5 -5.5 7 -6.5s5 -1.5 9 -1.5h29c3.33301 0 5.83301 1.16699 7.5 3.5s1.5 4.83301 -0.5 7.5l-80 125
c-3.33301 5.33301 -7.66602 8 -12.999 8z" />
    <glyph glyph-name="Uacute" unicode="&#xda;" horiz-adv-x="662" 
d="M627 722l-78.9971 -497.001c-12 -78 -41.333 -136.667 -88 -176s-105.334 -59 -176.001 -59c-61.333 0 -110.5 16.167 -147.5 48.5s-55.5 78.5 -55.5 138.5c0 18.667 1.33301 36.334 4 53.001l78 492c1.33301 6.66699 5.33301 10 12 10h39
c7.33301 0 10.333 -3.33301 9 -10l-78 -490c-2.66699 -16 -4 -32.333 -4 -49c0 -46.667 13.167 -81 39.5 -103s62.166 -33 107.499 -33c53.333 0 97.666 15 132.999 45s58 76.667 68 140l78 490c1.33301 6.66699 5.33301 10 12 10h39c7.33301 0 10.333 -3.33301 9 -10z
M362.003 798.999c-1.33301 2.66699 -0.666992 5.33398 2 8.00098l98 124c3.33301 5.33301 7.66602 8 12.999 8h41c3.33301 0 5.5 -1.33301 6.5 -4s0.5 -5.33398 -1.5 -8.00098l-106 -125c-2.66699 -2 -5.16699 -3.66699 -7.5 -5s-5.5 -2 -9.5 -2h-29
c-3.33301 0 -5.66602 1.33301 -6.99902 4z" />
    <glyph glyph-name="Ucircumflex" unicode="&#xdb;" horiz-adv-x="662" 
d="M627 722l-78.9971 -497.001c-12 -78 -41.333 -136.667 -88 -176s-105.334 -59 -176.001 -59c-61.333 0 -110.5 16.167 -147.5 48.5s-55.5 78.5 -55.5 138.5c0 18.667 1.33301 36.334 4 53.001l78 492c1.33301 6.66699 5.33301 10 12 10h39
c7.33301 0 10.333 -3.33301 9 -10l-78 -490c-2.66699 -16 -4 -32.333 -4 -49c0 -46.667 13.167 -81 39.5 -103s62.166 -33 107.499 -33c53.333 0 97.666 15 132.999 45s58 76.667 68 140l78 490c1.33301 6.66699 5.33301 10 12 10h39c7.33301 0 10.333 -3.33301 9 -10z
M535.503 806.499c1 -1.66699 1.5 -3.16699 1.5 -4.5c0 -2 -0.833008 -3.66699 -2.5 -5s-3.83398 -2 -6.50098 -2h-32c-5.33301 0 -9.66602 2.66699 -12.999 8l-65 100l-79 -100c-4.66699 -5.33301 -9.66699 -8 -15 -8h-31c-6 0 -9 2.33301 -9 7
c0 2.66699 1.33301 5.66699 4 9l100 120c3.33301 5.33301 8 8 14 8h36c3.33301 0 5.83301 -0.5 7.5 -1.5s3.5 -3.16699 5.5 -6.5l82 -120c0.666992 -1.33301 1.5 -2.83301 2.5 -4.5z" />
    <glyph glyph-name="Udieresis" unicode="&#xdc;" horiz-adv-x="662" 
d="M627 722l-78.9971 -497.001c-12 -78 -41.333 -136.667 -88 -176s-105.334 -59 -176.001 -59c-61.333 0 -110.5 16.167 -147.5 48.5s-55.5 78.5 -55.5 138.5c0 18.667 1.33301 36.334 4 53.001l78 492c1.33301 6.66699 5.33301 10 12 10h39
c7.33301 0 10.333 -3.33301 9 -10l-78 -490c-2.66699 -16 -4 -32.333 -4 -49c0 -46.667 13.167 -81 39.5 -103s62.166 -33 107.499 -33c53.333 0 97.666 15 132.999 45s58 76.667 68 140l78 490c1.33301 6.66699 5.33301 10 12 10h39c7.33301 0 10.333 -3.33301 9 -10z
M366.003 906.999l-13 -82c-2 -7.33301 -6.66699 -11 -14 -11h-30c-7.33301 0 -10.666 3.66699 -9.99902 11l14 82c1.33301 7.33301 5.66602 11 12.999 11h30c8 0 11.333 -3.66699 10 -11zM536.003 906.999l-12.999 -82c-0.666992 -7.33301 -5 -11 -13 -11h-31
c-6.66699 0 -9.66699 3.66699 -9 11l13 82c1.33301 7.33301 5.66602 11 12.999 11h31c7.33301 0 10.333 -3.66699 9 -11z" />
    <glyph glyph-name="Yacute" unicode="&#xdd;" horiz-adv-x="576" 
d="M604 727.5c1.33301 -3 0.667969 -6.5 -1.99902 -10.5l-285 -409l-47 -298c-1.33301 -6.66699 -5.33301 -10 -12 -10h-39c-7.33301 -0 -10.333 3.33301 -9 10l46 299l-156 408c-0.666992 1.33301 -1 3 -1 5c0 6.66699 3 10 9 10h42c4 0 6.66699 -0.666992 8 -2
s2.66602 -4 3.99902 -8l132 -352l243 352c4 6.66699 9 10 15 10h44c4 0 6.66699 -1.5 8 -4.5zM312.002 799c-1.33301 2.66699 -0.666992 5.33398 2 8.00098l98 124c3.33301 5.33301 7.66602 8 12.999 8h41c3.33301 0 5.5 -1.33301 6.5 -4s0.5 -5.33398 -1.5 -8.00098
l-106 -125c-2.66699 -2 -5.16699 -3.66699 -7.5 -5s-5.5 -2 -9.5 -2h-29c-3.33301 0 -5.66602 1.33301 -6.99902 4z" />
    <glyph glyph-name="Thorn" unicode="&#xde;" horiz-adv-x="568" 
d="M473.5 552c31.667 -30 47.5 -70.001 47.5 -120.001c0 -17.333 -1.33301 -33.666 -4 -48.999l-7 -45c-10.667 -66 -35.667 -116.167 -75 -150.5s-96 -51.5 -170 -51.5h-130l-20 -126c-1.33301 -6.66699 -5.33301 -10 -12 -10h-39c-7.33301 -0 -10.333 3.33301 -9 10
l113 712c1.33301 6.66699 5.33301 10 12 10h39c7.33301 0 10.333 -3.33301 9 -10l-20 -125h122c64 0 111.833 -15 143.5 -45zM460 424.999c0 76.667 -45.333 115 -136 115h-125l-55 -348h121c57.333 0 100.5 12.167 129.5 36.5s47.5 60.833 55.5 109.5l6 43
c2.66699 15.333 4 30 4 44z" />
    <glyph glyph-name="germandbls" unicode="&#xdf;" horiz-adv-x="583" 
d="M444 736.5c26 -13.667 45.834 -31.832 59.501 -54.499s20.5 -48 20.5 -76c0 -12 -0.666992 -21.333 -2 -28l-4 -29c-6.66699 -38.667 -21.667 -71.5 -45 -98.5s-51.666 -45.833 -84.999 -56.5c35.333 -9.33301 63.5 -26.833 84.5 -52.5s31.5 -57.834 31.5 -96.501
c0 -10.667 -1 -22 -3 -34l-4 -26c-8.66699 -58 -34.667 -105 -78 -141s-99 -54 -167 -54c-24 0 -46.667 3 -68 9c-4.66699 2 -6 6 -4 12l11 32c1.33301 4.66699 5 7 11 7c13.333 -4.66699 31.333 -7 54 -7c51.333 0 93.166 13.333 125.499 40s52.166 63.667 59.499 111l3 19
c2 12 3 23 3 33c0 36.667 -12.333 65 -37 85s-60 31 -106 33c-6 0 -8.66699 2.66699 -8 8l6 40c0.666992 5.33301 5 8 13 8c16.667 0 35 4.16699 55 12.5s38.5 22.166 55.5 41.499s28.167 44.333 33.5 75l4 26c1.33301 10.667 2 18 2 22c0 32 -10.5 57.833 -31.5 77.5
s-49.833 29.5 -86.5 29.5c-41.333 0 -76.5 -12.167 -105.5 -36.5s-46.167 -55.166 -51.5 -92.499l-90 -565c-1.33301 -6.66699 -5.33301 -10 -12 -10h-36c-7.33301 -0 -10.333 3.33301 -9 10l90 569c8 51.333 31.333 93.833 70 127.5s88 50.5 148 50.5
c36 0 67 -6.83301 93 -20.5z" />
    <glyph glyph-name="agrave" unicode="&#xe0;" horiz-adv-x="563" 
d="M500.5 497.5c1 -2.33301 0.832031 -6.16602 -0.500977 -11.499l-75 -476c-0.666992 -2.66699 -2 -5 -4 -7s-4.66699 -3 -8 -3h-36c-7.33301 0 -10.333 3.33301 -9 10l16 103c-22.667 -34.667 -51 -63.834 -85 -87.501s-69.667 -35.5 -107 -35.5
c-43.333 0 -77 13.5 -101 40.5s-36 63.833 -36 110.5c0 18.667 1.33301 36 4 52l27 163c9.33301 60 32.333 107.5 69 142.5s84.334 52.5 143.001 52.5c32.667 0 64.667 -3.83301 96 -11.5s64 -19.167 98 -34.5c4.66699 -2.66699 7.5 -5.16699 8.5 -7.5zM439.999 468
c-51.333 20.667 -98.002 31 -140.002 31c-43.333 0 -78.666 -13 -105.999 -39s-44.666 -62.667 -51.999 -110l-24 -151c-3.33301 -20 -5 -36.333 -5 -49c0 -71.333 31 -107 93 -107c33.333 0 66.833 13 100.5 39s63.5 63.667 89.5 113zM280.997 757l-41.001 0.000976562
c-3.33301 0 -5.5 -1.33301 -6.5 -4s-0.833008 -5.33398 0.5 -8.00098l88 -124c2.66699 -3.33301 5 -5.5 7 -6.5s5 -1.5 9 -1.5h29c3.33301 0 5.83301 1.16699 7.5 3.5s1.5 4.83301 -0.5 7.5l-80 125c-3.33301 5.33301 -7.66602 8 -12.999 8z" />
    <glyph glyph-name="aacute" unicode="&#xe1;" horiz-adv-x="563" 
d="M500.5 497.5c1 -2.33301 0.832031 -6.16602 -0.500977 -11.499l-75 -476c-0.666992 -2.66699 -2 -5 -4 -7s-4.66699 -3 -8 -3h-36c-7.33301 0 -10.333 3.33301 -9 10l16 103c-22.667 -34.667 -51 -63.834 -85 -87.501s-69.667 -35.5 -107 -35.5
c-43.333 0 -77 13.5 -101 40.5s-36 63.833 -36 110.5c0 18.667 1.33301 36 4 52l27 163c9.33301 60 32.333 107.5 69 142.5s84.334 52.5 143.001 52.5c32.667 0 64.667 -3.83301 96 -11.5s64 -19.167 98 -34.5c4.66699 -2.66699 7.5 -5.16699 8.5 -7.5zM439.999 468
c-51.333 20.667 -98.002 31 -140.002 31c-43.333 0 -78.666 -13 -105.999 -39s-44.666 -62.667 -51.999 -110l-24 -151c-3.33301 -20 -5 -36.333 -5 -49c0 -71.333 31 -107 93 -107c33.333 0 66.833 13 100.5 39s63.5 63.667 89.5 113zM279.997 617
c-1.33301 2.66699 -0.666992 5.33398 2 8.00098l98 124c3.33301 5.33301 7.66602 8 12.999 8h41c3.33301 0 5.5 -1.33301 6.5 -4s0.5 -5.33398 -1.5 -8.00098l-106 -125c-2.66699 -2 -5.16699 -3.66699 -7.5 -5s-5.5 -2 -9.5 -2h-29c-3.33301 0 -5.66602 1.33301 -6.99902 4
z" />
    <glyph glyph-name="acircumflex" unicode="&#xe2;" horiz-adv-x="563" 
d="M500.5 497.5c1 -2.33301 0.832031 -6.16602 -0.500977 -11.499l-75 -476c-0.666992 -2.66699 -2 -5 -4 -7s-4.66699 -3 -8 -3h-36c-7.33301 0 -10.333 3.33301 -9 10l16 103c-22.667 -34.667 -51 -63.834 -85 -87.501s-69.667 -35.5 -107 -35.5
c-43.333 0 -77 13.5 -101 40.5s-36 63.833 -36 110.5c0 18.667 1.33301 36 4 52l27 163c9.33301 60 32.333 107.5 69 142.5s84.334 52.5 143.001 52.5c32.667 0 64.667 -3.83301 96 -11.5s64 -19.167 98 -34.5c4.66699 -2.66699 7.5 -5.16699 8.5 -7.5zM439.999 468
c-51.333 20.667 -98.002 31 -140.002 31c-43.333 0 -78.666 -13 -105.999 -39s-44.666 -62.667 -51.999 -110l-24 -151c-3.33301 -20 -5 -36.333 -5 -49c0 -71.333 31 -107 93 -107c33.333 0 66.833 13 100.5 39s63.5 63.667 89.5 113zM454.497 624.5
c1 -1.66699 1.5 -3.16699 1.5 -4.5c0 -2 -0.833008 -3.66699 -2.5 -5s-3.83398 -2 -6.50098 -2h-32c-5.33301 0 -9.66602 2.66699 -12.999 8l-65 100l-79 -100c-4.66699 -5.33301 -9.66699 -8 -15 -8h-31c-6 0 -9 2.33301 -9 7c0 2.66699 1.33301 5.66699 4 9l100 120
c3.33301 5.33301 8 8 14 8h36c3.33301 0 5.83301 -0.5 7.5 -1.5s3.5 -3.16699 5.5 -6.5l82 -120c0.666992 -1.33301 1.5 -2.83301 2.5 -4.5z" />
    <glyph glyph-name="atilde" unicode="&#xe3;" horiz-adv-x="563" 
d="M500.5 497.5c1 -2.33301 0.832031 -6.16602 -0.500977 -11.499l-75 -476c-0.666992 -2.66699 -2 -5 -4 -7s-4.66699 -3 -8 -3h-36c-7.33301 0 -10.333 3.33301 -9 10l16 103c-22.667 -34.667 -51 -63.834 -85 -87.501s-69.667 -35.5 -107 -35.5
c-43.333 0 -77 13.5 -101 40.5s-36 63.833 -36 110.5c0 18.667 1.33301 36 4 52l27 163c9.33301 60 32.333 107.5 69 142.5s84.334 52.5 143.001 52.5c32.667 0 64.667 -3.83301 96 -11.5s64 -19.167 98 -34.5c4.66699 -2.66699 7.5 -5.16699 8.5 -7.5zM439.999 468
c-51.333 20.667 -98.002 31 -140.002 31c-43.333 0 -78.666 -13 -105.999 -39s-44.666 -62.667 -51.999 -110l-24 -151c-3.33301 -20 -5 -36.333 -5 -49c0 -71.333 31 -107 93 -107c33.333 0 66.833 13 100.5 39s63.5 63.667 89.5 113zM305.997 714
c10 -4.66699 20.9951 -11.334 32.9951 -20.001c1.33301 -1.33301 5.33301 -4 12 -8s12.834 -7 18.501 -9s10.834 -3 15.501 -3c18 0 34.667 11.667 50 35c2 5.33301 5.66699 6.33301 11 3l21 -14c4.66699 -2 5.33398 -6 2.00098 -12c-8 -16.667 -19.5 -30.5 -34.5 -41.5
s-32.167 -16.5 -51.5 -16.5c-12 0 -22.833 2.33301 -32.5 7s-20.5 11.334 -32.5 20.001l-12.5 8c-6.33301 4 -12.166 7 -17.499 9s-10.333 3 -15 3c-18 0 -34.333 -11.667 -49 -35c-4 -4.66699 -8.33301 -5.66699 -13 -3l-20 14c-4 3.33301 -4.66699 7.33301 -2 12
c8.66699 16.667 20.334 30.5 35.001 41.5s30.667 16.5 48 16.5c12.667 0 24 -2.33301 34 -7z" />
    <glyph glyph-name="adieresis" unicode="&#xe4;" horiz-adv-x="563" 
d="M500.5 497.5c1 -2.33301 0.832031 -6.16602 -0.500977 -11.499l-75 -476c-0.666992 -2.66699 -2 -5 -4 -7s-4.66699 -3 -8 -3h-36c-7.33301 0 -10.333 3.33301 -9 10l16 103c-22.667 -34.667 -51 -63.834 -85 -87.501s-69.667 -35.5 -107 -35.5
c-43.333 0 -77 13.5 -101 40.5s-36 63.833 -36 110.5c0 18.667 1.33301 36 4 52l27 163c9.33301 60 32.333 107.5 69 142.5s84.334 52.5 143.001 52.5c32.667 0 64.667 -3.83301 96 -11.5s64 -19.167 98 -34.5c4.66699 -2.66699 7.5 -5.16699 8.5 -7.5zM439.999 468
c-51.333 20.667 -98.002 31 -140.002 31c-43.333 0 -78.666 -13 -105.999 -39s-44.666 -62.667 -51.999 -110l-24 -151c-3.33301 -20 -5 -36.333 -5 -49c0 -71.333 31 -107 93 -107c33.333 0 66.833 13 100.5 39s63.5 63.667 89.5 113zM284.997 725l-13 -82
c-2 -7.33301 -6.66699 -11 -14 -11h-30c-7.33301 0 -10.666 3.66699 -9.99902 11l14 82c1.33301 7.33301 5.66602 11 12.999 11h30c8 0 11.333 -3.66699 10 -11zM454.997 725l-12.999 -82c-0.666992 -7.33301 -5 -11 -13 -11h-31c-6.66699 0 -9.66699 3.66699 -9 11l13 82
c1.33301 7.33301 5.66602 11 12.999 11h31c7.33301 0 10.333 -3.66699 9 -11z" />
    <glyph glyph-name="aring" unicode="&#xe5;" horiz-adv-x="563" 
d="M500.5 497.5c1 -2.33301 0.832031 -6.16602 -0.500977 -11.499l-75 -476c-0.666992 -2.66699 -2 -5 -4 -7s-4.66699 -3 -8 -3h-36c-7.33301 0 -10.333 3.33301 -9 10l16 103c-22.667 -34.667 -51 -63.834 -85 -87.501s-69.667 -35.5 -107 -35.5
c-43.333 0 -77 13.5 -101 40.5s-36 63.833 -36 110.5c0 18.667 1.33301 36 4 52l27 163c9.33301 60 32.333 107.5 69 142.5s84.334 52.5 143.001 52.5c32.667 0 64.667 -3.83301 96 -11.5s64 -19.167 98 -34.5c4.66699 -2.66699 7.5 -5.16699 8.5 -7.5zM439.999 468
c-51.333 20.667 -98.002 31 -140.002 31c-43.333 0 -78.666 -13 -105.999 -39s-44.666 -62.667 -51.999 -110l-24 -151c-3.33301 -20 -5 -36.333 -5 -49c0 -71.333 31 -107 93 -107c33.333 0 66.833 13 100.5 39s63.5 63.667 89.5 113zM264.997 616
c-18 17.333 -27 38.667 -27 64c0 30 10.667 56 32 78s47 33 77 33c26 0 48 -9 66 -27s27 -39.667 27 -65c0 -29.333 -10.667 -54.833 -32 -76.5s-47 -32.5 -77 -32.5c-26 0 -48 8.66699 -66 26zM379.997 649.501c12.667 13 18.999 29.168 18.999 48.501
c0 15.333 -5 28 -15 38s-23 15 -39 15c-19.333 0 -35.166 -6.5 -47.499 -19.5s-18.5 -29.833 -18.5 -50.5c0 -14.667 5 -26.834 15 -36.501s22.667 -14.5 38 -14.5c19.333 0 35.333 6.5 48 19.5z" />
    <glyph glyph-name="ae" unicode="&#xe6;" horiz-adv-x="874" 
d="M767.5 514c31 -28.667 46.5 -67 46.5 -115c0 -16 -1.66699 -34 -5 -54l-11 -69c-2 -15.333 -11.333 -23 -28 -23h-313l-9 -55c-2.66699 -18.667 -4 -32.334 -4 -41.001c0 -38 10.5 -66.833 31.5 -86.5s50.833 -29.5 89.5 -29.5s70 7.16699 94 21.5
s44.333 35.166 61 62.499c4 7.33301 9.66699 9 17 5l25 -14c4 -2.66699 6 -5.66699 6 -9c0 -2.66699 -1 -5.66699 -3 -9c-20 -33.333 -47.167 -59.666 -81.5 -78.999s-74.5 -29 -120.5 -29c-50 0 -89.833 11.333 -119.5 34s-47.5 54.334 -53.5 95.001
c-22 -36 -50.5 -66.5 -85.5 -91.5s-72.5 -37.5 -112.5 -37.5c-43.333 0 -77 13.5 -101 40.5s-36 63.833 -36 110.5c0 18.667 1.33301 36 4 52l27 163c9.33301 60 32.333 107.5 69 142.5s84 52.5 142 52.5c60.667 0 121 -20.667 181 -62c20 22 43.833 38.833 71.5 50.5
s58.167 17.5 91.5 17.5c53.333 0 95.5 -14.333 126.5 -43zM759 392c0 36.667 -10.501 64.666 -31.501 83.999s-50.5 29 -88.5 29c-43.333 0 -79.666 -13.167 -108.999 -39.5s-48.333 -64.166 -57 -113.499l-8 -53h280l9 50c3.33301 16.667 5 31 5 43zM446.999 446.999
c-45.333 34.667 -94.3359 51.999 -147.003 51.999c-43.333 0 -78.666 -13 -105.999 -39s-44.666 -62.667 -51.999 -110l-24 -151c-3.33301 -20 -5 -36.667 -5 -50c0 -34.667 7.83301 -61 23.5 -79s38.834 -27 69.501 -27c32.667 0 65.167 12.333 97.5 37
s61.5 60.334 87.5 107.001v7l26 164c6 33.333 16 63 30 89z" />
    <glyph glyph-name="ccedilla" unicode="&#xe7;" horiz-adv-x="507" 
d="M466 424c0 -5.33301 -2.66602 -8.66895 -7.99902 -10.002l-33 -11l-4 -1c-4 0 -7 2.66699 -9 8c-7.33301 30 -19.666 53 -36.999 69s-42.666 24 -75.999 24c-43.333 0 -78.833 -13.167 -106.5 -39.5s-45.834 -66.166 -54.501 -119.499l-22 -146
c-2.66699 -13.333 -4 -26.666 -4 -39.999c0 -38 9.83301 -66.667 29.5 -86s47.5 -29 83.5 -29c35.333 0 64.833 8 88.5 24s42.834 39.667 57.501 71c4 7.33301 9 9.66602 15 6.99902l31 -13c7.33301 -2.66699 8.66602 -7.66699 3.99902 -15
c-18.667 -40 -44.667 -71.167 -78 -93.5s-74 -33.5 -122 -33.5h-1l-12 -37c20.667 -4.66699 36.834 -13.5 48.501 -26.5s17.5 -28.833 17.5 -47.5c0 -26.667 -10 -49 -30 -67s-45 -27 -75 -27c-11.333 0 -22.333 1.16699 -33 3.5s-19.334 5.5 -26.001 9.5
c-4.66699 2.66699 -6 6.66699 -4 12l9 24c2 6 6.33301 7.66699 13 5c13.333 -6 27.333 -9 42 -9c16 0 29.333 4.83301 40 14.5s16 21.5 16 35.5c0 12 -4.83301 21.5 -14.5 28.5s-22.834 10.5 -39.501 10.5c-2.66699 0 -5 1.16699 -7 3.5s-2.33301 4.83301 -1 7.5l21 62
c-42.667 6.66699 -75.334 23.834 -98.001 51.501s-34 63.5 -34 107.5c0 16 1.33301 30.667 4 44l25 156c10 63.333 33.667 113.5 71 150.5s85.666 55.5 144.999 55.5c49.333 0 86.833 -11.167 112.5 -33.5s43.834 -52.833 54.501 -91.5c0.666992 -2 1 -4.66699 1 -8z" />
    <glyph glyph-name="egrave" unicode="&#xe8;" horiz-adv-x="540" 
d="M434 514c31.333 -28.667 47 -66.999 47 -114.999c0 -12 -2 -30 -6 -54l-11 -69c-2 -15.333 -11.333 -23 -28 -23h-313l-9 -55c-2.66699 -18.667 -4 -32.334 -4 -41.001c0 -38 10.5 -66.833 31.5 -86.5s50.833 -29.5 89.5 -29.5s70 7.16699 94 21.5
s44.333 35.166 61 62.499c4.66699 8 10.334 9.66699 17.001 5l25 -14c4 -2.66699 6 -5.66699 6 -9c0 -2.66699 -1 -5.66699 -3 -9c-20 -33.333 -47.167 -59.666 -81.5 -78.999s-74.5 -29 -120.5 -29c-56.667 0 -100.167 14.333 -130.5 43s-45.5 68 -45.5 118
c0 8.66699 1.33301 23 4 43l26 164c9.33301 60 34 108.167 74 144.5s90 54.5 150 54.5c53.333 0 95.666 -14.333 126.999 -43zM425 392.001c0 36.667 -10.5 64.666 -31.5 83.999s-50.5 29 -88.5 29c-44 0 -80.667 -13.167 -110 -39.5s-48 -64.166 -56 -113.499l-9 -53h281
l9 50c3.33301 16.667 5 31 5 43zM265 756l-41.001 0.000976562c-3.33301 0 -5.5 -1.33301 -6.5 -4s-0.833008 -5.33398 0.5 -8.00098l88 -124c2.66699 -3.33301 5 -5.5 7 -6.5s5 -1.5 9 -1.5h29c3.33301 0 5.83301 1.16699 7.5 3.5s1.5 4.83301 -0.5 7.5l-80 125
c-3.33301 5.33301 -7.66602 8 -12.999 8z" />
    <glyph glyph-name="eacute" unicode="&#xe9;" horiz-adv-x="540" 
d="M434 514c31.333 -28.667 47 -66.999 47 -114.999c0 -12 -2 -30 -6 -54l-11 -69c-2 -15.333 -11.333 -23 -28 -23h-313l-9 -55c-2.66699 -18.667 -4 -32.334 -4 -41.001c0 -38 10.5 -66.833 31.5 -86.5s50.833 -29.5 89.5 -29.5s70 7.16699 94 21.5
s44.333 35.166 61 62.499c4.66699 8 10.334 9.66699 17.001 5l25 -14c4 -2.66699 6 -5.66699 6 -9c0 -2.66699 -1 -5.66699 -3 -9c-20 -33.333 -47.167 -59.666 -81.5 -78.999s-74.5 -29 -120.5 -29c-56.667 0 -100.167 14.333 -130.5 43s-45.5 68 -45.5 118
c0 8.66699 1.33301 23 4 43l26 164c9.33301 60 34 108.167 74 144.5s90 54.5 150 54.5c53.333 0 95.666 -14.333 126.999 -43zM425 392.001c0 36.667 -10.5 64.666 -31.5 83.999s-50.5 29 -88.5 29c-44 0 -80.667 -13.167 -110 -39.5s-48 -64.166 -56 -113.499l-9 -53h281
l9 50c3.33301 16.667 5 31 5 43zM265 616c-1.33301 2.66699 -0.666992 5.33398 2 8.00098l98 124c3.33301 5.33301 7.66602 8 12.999 8h41c3.33301 0 5.5 -1.33301 6.5 -4s0.5 -5.33398 -1.5 -8.00098l-106 -125c-2.66699 -2 -5.16699 -3.66699 -7.5 -5s-5.5 -2 -9.5 -2h-29
c-3.33301 0 -5.66602 1.33301 -6.99902 4z" />
    <glyph glyph-name="ecircumflex" unicode="&#xea;" horiz-adv-x="540" 
d="M434 514c31.333 -28.667 47 -66.999 47 -114.999c0 -12 -2 -30 -6 -54l-11 -69c-2 -15.333 -11.333 -23 -28 -23h-313l-9 -55c-2.66699 -18.667 -4 -32.334 -4 -41.001c0 -38 10.5 -66.833 31.5 -86.5s50.833 -29.5 89.5 -29.5s70 7.16699 94 21.5
s44.333 35.166 61 62.499c4.66699 8 10.334 9.66699 17.001 5l25 -14c4 -2.66699 6 -5.66699 6 -9c0 -2.66699 -1 -5.66699 -3 -9c-20 -33.333 -47.167 -59.666 -81.5 -78.999s-74.5 -29 -120.5 -29c-56.667 0 -100.167 14.333 -130.5 43s-45.5 68 -45.5 118
c0 8.66699 1.33301 23 4 43l26 164c9.33301 60 34 108.167 74 144.5s90 54.5 150 54.5c53.333 0 95.666 -14.333 126.999 -43zM425 392.001c0 36.667 -10.5 64.666 -31.5 83.999s-50.5 29 -88.5 29c-44 0 -80.667 -13.167 -110 -39.5s-48 -64.166 -56 -113.499l-9 -53h281
l9 50c3.33301 16.667 5 31 5 43zM438.5 623.5c1 -1.66699 1.5 -3.16699 1.5 -4.5c0 -2 -0.833008 -3.66699 -2.5 -5s-3.83398 -2 -6.50098 -2h-32c-5.33301 0 -9.66602 2.66699 -12.999 8l-65 100l-79 -100c-4.66699 -5.33301 -9.66699 -8 -15 -8h-31c-6 0 -9 2.33301 -9 7
c0 2.66699 1.33301 5.66699 4 9l100 120c3.33301 5.33301 8 8 14 8h36c3.33301 0 5.83301 -0.5 7.5 -1.5s3.5 -3.16699 5.5 -6.5l82 -120c0.666992 -1.33301 1.5 -2.83301 2.5 -4.5z" />
    <glyph glyph-name="edieresis" unicode="&#xeb;" horiz-adv-x="540" 
d="M434 514c31.333 -28.667 47 -66.999 47 -114.999c0 -12 -2 -30 -6 -54l-11 -69c-2 -15.333 -11.333 -23 -28 -23h-313l-9 -55c-2.66699 -18.667 -4 -32.334 -4 -41.001c0 -38 10.5 -66.833 31.5 -86.5s50.833 -29.5 89.5 -29.5s70 7.16699 94 21.5
s44.333 35.166 61 62.499c4.66699 8 10.334 9.66699 17.001 5l25 -14c4 -2.66699 6 -5.66699 6 -9c0 -2.66699 -1 -5.66699 -3 -9c-20 -33.333 -47.167 -59.666 -81.5 -78.999s-74.5 -29 -120.5 -29c-56.667 0 -100.167 14.333 -130.5 43s-45.5 68 -45.5 118
c0 8.66699 1.33301 23 4 43l26 164c9.33301 60 34 108.167 74 144.5s90 54.5 150 54.5c53.333 0 95.666 -14.333 126.999 -43zM425 392.001c0 36.667 -10.5 64.666 -31.5 83.999s-50.5 29 -88.5 29c-44 0 -80.667 -13.167 -110 -39.5s-48 -64.166 -56 -113.499l-9 -53h281
l9 50c3.33301 16.667 5 31 5 43zM269 724l-13 -82c-2 -7.33301 -6.66699 -11 -14 -11h-30c-7.33301 0 -10.666 3.66699 -9.99902 11l14 82c1.33301 7.33301 5.66602 11 12.999 11h30c8 0 11.333 -3.66699 10 -11zM439 724l-12.999 -82c-0.666992 -7.33301 -5 -11 -13 -11
h-31c-6.66699 0 -9.66699 3.66699 -9 11l13 82c1.33301 7.33301 5.66602 11 12.999 11h31c7.33301 0 10.333 -3.66699 9 -11z" />
    <glyph glyph-name="igrave" unicode="&#xec;" horiz-adv-x="240" 
d="M184 537l-84 -527c-1.33301 -6.66699 -5.33301 -10 -12 -10h-36c-7.33301 -0 -10.333 3.33301 -9 10l84 527c1.33301 6.66699 5.33301 10 12 10h36c7.33301 0 10.333 -3.33301 9 -10zM124 757l-41.002 0.000976562c-3.33301 0 -5.66602 -1.33301 -6.99902 -4
s-1.33301 -5.33398 0 -8.00098l88 -124c2.66699 -2.66699 5 -4.66699 7 -6s5 -2 9 -2h29c3.33301 0 5.83301 1.16699 7.5 3.5s1.83398 4.83301 0.500977 7.5l-80 125c-4 5.33301 -8.33301 8 -13 8z" />
    <glyph glyph-name="iacute" unicode="&#xed;" horiz-adv-x="240" 
d="M184 537l-84 -527c-1.33301 -6.66699 -5.33301 -10 -12 -10h-36c-7.33301 -0 -10.333 3.33301 -9 10l84 527c1.33301 6.66699 5.33301 10 12 10h36c7.33301 0 10.333 -3.33301 9 -10zM125 625c-1.33301 -1.33301 -2.00098 -3.33398 -2.00098 -6.00098
c0 -1.33301 0.666992 -2.66602 2 -3.99902s3 -2 5 -2h29c4 0 7.16699 0.666992 9.5 2s4.83301 3 7.5 5l106 125l2 5c0 4.66699 -2.33301 7 -7 7h-41c-5.33301 0 -9.66602 -2.66699 -12.999 -8z" />
    <glyph glyph-name="icircumflex" unicode="&#xee;" horiz-adv-x="241" 
d="M184 537l-84 -527c-1.33301 -6.66699 -5.33301 -10 -12 -10h-36c-7.33301 -0 -10.333 3.33301 -9 10l84 527c1.33301 6.66699 5.33301 10 12 10h36c7.33301 0 10.333 -3.33301 9 -10zM299 620c0 -2 -0.832031 -3.66699 -2.49902 -5s-3.83398 -2 -6.50098 -2h-32
c-5.33301 0 -9.66602 2.66699 -12.999 8l-65 100l-79 -100c-4.66699 -5.33301 -9.33398 -8 -14.001 -8h-32c-6 0 -9 2.33301 -9 7c0 2.66699 1.33301 5.66699 4 9l100 120c3.33301 5.33301 8 8 14 8h36c3.33301 0 5.83301 -0.5 7.5 -1.5s3.5 -3.16699 5.5 -6.5l82 -120
c2.66699 -3.33301 4 -6.33301 4 -9z" />
    <glyph glyph-name="idieresis" unicode="&#xef;" horiz-adv-x="240" 
d="M184 537l-84 -527c-1.33301 -6.66699 -5.33301 -10 -12 -10h-36c-7.33301 -0 -10.333 3.33301 -9 10l84 527c1.33301 6.66699 5.33301 10 12 10h36c7.33301 0 10.333 -3.33301 9 -10zM127 725l-12.999 -82c-0.666992 -7.33301 -5 -11 -13 -11h-31c-8 0 -11 3.66699 -9 11
l13 82c1.33301 7.33301 5.66602 11 12.999 11h31c7.33301 0 10.333 -3.66699 9 -11zM295.501 733c1.66699 -2 2.16602 -4.66699 1.49902 -8l-13 -82c-0.666992 -7.33301 -5 -11 -13 -11h-30c-7.33301 0 -10.666 3.66699 -9.99902 11l13 82c1.33301 7.33301 6 11 14 11h30
c3.33301 0 5.83301 -1 7.5 -3z" />
    <glyph glyph-name="eth" unicode="&#xf0;" horiz-adv-x="522" 
d="M452 349c0 -13.333 -1.00098 -27 -3.00098 -41l-20 -130c-9.33301 -57.333 -32 -103 -68 -137s-84 -51 -144 -51c-53.333 0 -94.333 13.333 -123 40s-43 63 -43 109c0 13.333 1 26.333 3 39l21 133c8.66699 56 30.834 100.667 66.501 134s78.5 50 128.5 50
c36 0 66.667 -9 92 -27l-50 139h-107c-7.33301 0 -10.666 3.66699 -9.99902 11l4 26c1.33301 7.33301 5.33301 11 12 11h84l-29 80l-1 4c0 4 2.33301 7 7 9l34 11c1.33301 0.666992 3.33301 1 6 1c3.33301 0 6 -2.33301 8 -7l35 -98h85
c7.33301 0 10.666 -3.66699 9.99902 -11l-4 -25c-0.666992 -8 -4.66699 -12 -12 -12h-62l67 -186c8.66699 -21.333 13 -45.333 13 -72zM393.999 342c0 68 -36.002 102 -108.002 102c-41.333 0 -75.5 -11.5 -102.5 -34.5s-44.167 -57.5 -51.5 -103.5l-19 -124
c-2 -14 -3 -26 -3 -36c0 -33.333 9.33301 -58.666 28 -75.999s46 -26 82 -26c40.667 0 74.334 11.667 101.001 35s43.334 57.666 50.001 102.999l21 124c1.33301 8.66699 2 20.667 2 36z" />
    <glyph glyph-name="ntilde" unicode="&#xf1;" horiz-adv-x="558" 
d="M449.5 519.5c23 -25 34.5 -58.499 34.5 -100.499c0 -15.333 -1.33301 -29.333 -4 -42l-58 -367c-0.666992 -6.66699 -4.66699 -10 -12 -10h-35c-4 0 -6.83301 1 -8.5 3s-2.16699 4.33301 -1.5 7l56 356c2.66699 13.333 4 27.666 4 42.999c0 62.667 -30.667 94 -92 94
c-30.667 0 -62.334 -12 -95.001 -36s-59.334 -55 -80.001 -93l-58 -364c-0.666992 -6.66699 -4.66699 -10 -12 -10h-35c-8 -0 -11.333 3.33301 -10 10l84 527c1.33301 6.66699 5.33301 10 12 10h35c7.33301 0 10.333 -3.33301 9 -10l-13 -84
c22.667 31.333 49.834 56.5 81.501 75.5s64.834 28.5 99.501 28.5c42.667 0 75.5 -12.5 98.5 -37.5zM306 714.001c10 -4.66699 20.9951 -11.334 32.9951 -20.001c1.33301 -1.33301 5.33301 -4 12 -8s12.834 -7 18.501 -9s10.834 -3 15.501 -3c18 0 34.667 11.667 50 35
c2 5.33301 5.66699 6.33301 11 3l21 -14c4.66699 -2 5.33398 -6 2.00098 -12c-8 -16.667 -19.5 -30.5 -34.5 -41.5s-32.167 -16.5 -51.5 -16.5c-12 0 -22.833 2.33301 -32.5 7s-20.5 11.334 -32.5 20.001l-12.5 8c-6.33301 4 -12.166 7 -17.499 9s-10.333 3 -15 3
c-18 0 -34.333 -11.667 -49 -35c-4 -4.66699 -8.33301 -5.66699 -13 -3l-20 14c-4 3.33301 -4.66699 7.33301 -2 12c8.66699 16.667 20.334 30.5 35.001 41.5s30.667 16.5 48 16.5c12.667 0 24 -2.33301 34 -7z" />
    <glyph glyph-name="ograve" unicode="&#xf2;" horiz-adv-x="561" 
d="M446.5 512.5c32.333 -29.667 48.499 -69.167 48.499 -118.5c0 -12.667 -1.33301 -27.667 -4 -45l-25 -158c-10 -64 -35 -113.5 -75 -148.5s-92.333 -52.5 -157 -52.5c-56.667 0 -101 14.5 -133 43.5s-48 68.167 -48 117.5c0 10 1.33301 25 4 45l26 160
c9.33301 64 33.833 113.5 73.5 148.5s91.834 52.5 156.501 52.5c56.667 0 101.167 -14.833 133.5 -44.5zM195.499 463.5c-30.333 -26.333 -49.5 -65.167 -57.5 -116.5l-23 -149c-2.66699 -16 -4 -29.333 -4 -40c0 -37.333 11.167 -65.833 33.5 -85.5
s53.166 -29.5 92.499 -29.5c46 0 84.167 13 114.5 39s49.5 64.333 57.5 115l23 144c3.33301 16.667 5 32 5 46c0 37.333 -11.167 66 -33.5 86s-53.166 30 -92.499 30c-46.667 0 -85.167 -13.167 -115.5 -39.5zM279.999 756.999l-41.001 0.000976562
c-3.33301 0 -5.5 -1.33301 -6.5 -4s-0.833008 -5.33398 0.5 -8.00098l88 -124c2.66699 -3.33301 5 -5.5 7 -6.5s5 -1.5 9 -1.5h29c3.33301 0 5.83301 1.16699 7.5 3.5s1.5 4.83301 -0.5 7.5l-80 125c-3.33301 5.33301 -7.66602 8 -12.999 8z" />
    <glyph glyph-name="oacute" unicode="&#xf3;" horiz-adv-x="561" 
d="M446.5 512.5c32.333 -29.667 48.499 -69.167 48.499 -118.5c0 -12.667 -1.33301 -27.667 -4 -45l-25 -158c-10 -64 -35 -113.5 -75 -148.5s-92.333 -52.5 -157 -52.5c-56.667 0 -101 14.5 -133 43.5s-48 68.167 -48 117.5c0 10 1.33301 25 4 45l26 160
c9.33301 64 33.833 113.5 73.5 148.5s91.834 52.5 156.501 52.5c56.667 0 101.167 -14.833 133.5 -44.5zM195.499 463.5c-30.333 -26.333 -49.5 -65.167 -57.5 -116.5l-23 -149c-2.66699 -16 -4 -29.333 -4 -40c0 -37.333 11.167 -65.833 33.5 -85.5
s53.166 -29.5 92.499 -29.5c46 0 84.167 13 114.5 39s49.5 64.333 57.5 115l23 144c3.33301 16.667 5 32 5 46c0 37.333 -11.167 66 -33.5 86s-53.166 30 -92.499 30c-46.667 0 -85.167 -13.167 -115.5 -39.5zM279.999 616.999
c-1.33301 2.66699 -0.666992 5.33398 2 8.00098l98 124c3.33301 5.33301 7.66602 8 12.999 8h41c3.33301 0 5.5 -1.33301 6.5 -4s0.5 -5.33398 -1.5 -8.00098l-106 -125c-2.66699 -2 -5.16699 -3.66699 -7.5 -5s-5.5 -2 -9.5 -2h-29c-3.33301 0 -5.66602 1.33301 -6.99902 4
z" />
    <glyph glyph-name="ocircumflex" unicode="&#xf4;" horiz-adv-x="561" 
d="M446.5 512.5c32.333 -29.667 48.499 -69.167 48.499 -118.5c0 -12.667 -1.33301 -27.667 -4 -45l-25 -158c-10 -64 -35 -113.5 -75 -148.5s-92.333 -52.5 -157 -52.5c-56.667 0 -101 14.5 -133 43.5s-48 68.167 -48 117.5c0 10 1.33301 25 4 45l26 160
c9.33301 64 33.833 113.5 73.5 148.5s91.834 52.5 156.501 52.5c56.667 0 101.167 -14.833 133.5 -44.5zM195.499 463.5c-30.333 -26.333 -49.5 -65.167 -57.5 -116.5l-23 -149c-2.66699 -16 -4 -29.333 -4 -40c0 -37.333 11.167 -65.833 33.5 -85.5
s53.166 -29.5 92.499 -29.5c46 0 84.167 13 114.5 39s49.5 64.333 57.5 115l23 144c3.33301 16.667 5 32 5 46c0 37.333 -11.167 66 -33.5 86s-53.166 30 -92.499 30c-46.667 0 -85.167 -13.167 -115.5 -39.5zM453.499 624.499c1 -1.66699 1.5 -3.16699 1.5 -4.5
c0 -2 -0.833008 -3.66699 -2.5 -5s-3.83398 -2 -6.50098 -2h-32c-5.33301 0 -9.66602 2.66699 -12.999 8l-65 100l-79 -100c-4.66699 -5.33301 -9.66699 -8 -15 -8h-31c-6 0 -9 2.33301 -9 7c0 2.66699 1.33301 5.66699 4 9l100 120c3.33301 5.33301 8 8 14 8h36
c3.33301 0 5.83301 -0.5 7.5 -1.5s3.5 -3.16699 5.5 -6.5l82 -120c0.666992 -1.33301 1.5 -2.83301 2.5 -4.5z" />
    <glyph glyph-name="otilde" unicode="&#xf5;" horiz-adv-x="561" 
d="M446.5 512.5c32.333 -29.667 48.499 -69.167 48.499 -118.5c0 -12.667 -1.33301 -27.667 -4 -45l-25 -158c-10 -64 -35 -113.5 -75 -148.5s-92.333 -52.5 -157 -52.5c-56.667 0 -101 14.5 -133 43.5s-48 68.167 -48 117.5c0 10 1.33301 25 4 45l26 160
c9.33301 64 33.833 113.5 73.5 148.5s91.834 52.5 156.501 52.5c56.667 0 101.167 -14.833 133.5 -44.5zM195.499 463.5c-30.333 -26.333 -49.5 -65.167 -57.5 -116.5l-23 -149c-2.66699 -16 -4 -29.333 -4 -40c0 -37.333 11.167 -65.833 33.5 -85.5
s53.166 -29.5 92.499 -29.5c46 0 84.167 13 114.5 39s49.5 64.333 57.5 115l23 144c3.33301 16.667 5 32 5 46c0 37.333 -11.167 66 -33.5 86s-53.166 30 -92.499 30c-46.667 0 -85.167 -13.167 -115.5 -39.5zM304.999 713.999c10 -4.66699 20.9951 -11.334 32.9951 -20.001
c1.33301 -1.33301 5.33301 -4 12 -8s12.834 -7 18.501 -9s10.834 -3 15.501 -3c18 0 34.667 11.667 50 35c2 5.33301 5.66699 6.33301 11 3l21 -14c4.66699 -2 5.33398 -6 2.00098 -12c-8 -16.667 -19.5 -30.5 -34.5 -41.5s-32.167 -16.5 -51.5 -16.5
c-12 0 -22.833 2.33301 -32.5 7s-20.5 11.334 -32.5 20.001l-12.5 8c-6.33301 4 -12.166 7 -17.499 9s-10.333 3 -15 3c-18 0 -34.333 -11.667 -49 -35c-4 -4.66699 -8.33301 -5.66699 -13 -3l-20 14c-4 3.33301 -4.66699 7.33301 -2 12
c8.66699 16.667 20.334 30.5 35.001 41.5s30.667 16.5 48 16.5c12.667 0 24 -2.33301 34 -7z" />
    <glyph glyph-name="odieresis" unicode="&#xf6;" horiz-adv-x="561" 
d="M446.5 512.5c32.333 -29.667 48.499 -69.167 48.499 -118.5c0 -12.667 -1.33301 -27.667 -4 -45l-25 -158c-10 -64 -35 -113.5 -75 -148.5s-92.333 -52.5 -157 -52.5c-56.667 0 -101 14.5 -133 43.5s-48 68.167 -48 117.5c0 10 1.33301 25 4 45l26 160
c9.33301 64 33.833 113.5 73.5 148.5s91.834 52.5 156.501 52.5c56.667 0 101.167 -14.833 133.5 -44.5zM195.499 463.5c-30.333 -26.333 -49.5 -65.167 -57.5 -116.5l-23 -149c-2.66699 -16 -4 -29.333 -4 -40c0 -37.333 11.167 -65.833 33.5 -85.5
s53.166 -29.5 92.499 -29.5c46 0 84.167 13 114.5 39s49.5 64.333 57.5 115l23 144c3.33301 16.667 5 32 5 46c0 37.333 -11.167 66 -33.5 86s-53.166 30 -92.499 30c-46.667 0 -85.167 -13.167 -115.5 -39.5zM283.999 724.999l-13 -82c-2 -7.33301 -6.66699 -11 -14 -11
h-30c-7.33301 0 -10.666 3.66699 -9.99902 11l14 82c1.33301 7.33301 5.66602 11 12.999 11h30c8 0 11.333 -3.66699 10 -11zM453.999 724.999l-12.999 -82c-0.666992 -7.33301 -5 -11 -13 -11h-31c-6.66699 0 -9.66699 3.66699 -9 11l13 82
c1.33301 7.33301 5.66602 11 12.999 11h31c7.33301 0 10.333 -3.66699 9 -11z" />
    <glyph glyph-name="divide" unicode="&#xf7;" 
d="M312 555v-122c0 -9.33301 -4.33301 -14 -13 -14h-34c-8 0 -12 4.33301 -12 13v123c0 9.33301 4 14 12 14h34c8.66699 0 13 -4.66699 13 -14zM516 331.5c1.33301 -1.66699 2 -4.83398 2 -9.50098v-34c0 -4 -0.666992 -6.83301 -2 -8.5s-4 -2.5 -8 -2.5h-453
c-3.33301 0 -5.83301 0.833008 -7.5 2.5s-2.5 4.5 -2.5 8.5v34c0 4.66699 0.666992 7.83398 2 9.50098s4 2.5 8 2.5h453c4 0 6.66699 -0.833008 8 -2.5zM312 177v-122c0 -9.33301 -4.33301 -14 -13 -14h-34c-8 0 -12 4.33301 -12 13v123c0 9.33301 4 14 12 14h34
c8.66699 0 13 -4.66699 13 -14z" />
    <glyph glyph-name="oslash" unicode="&#xf8;" horiz-adv-x="561" 
d="M533.5 593c1 -2.66699 0.499023 -5.33398 -1.50098 -8.00098l-68 -92c20.667 -26.667 31 -59.667 31 -99c0 -12.667 -1.33301 -27.667 -4 -45l-25 -158c-10 -64 -35 -113.5 -75 -148.5s-92.333 -52.5 -157 -52.5c-50 0 -90.333 11.333 -121 34l-43 -57
c-2.66699 -3.33301 -5 -5.66602 -7 -6.99902s-4.66699 -2 -8 -2h-29c-3.33301 0 -5.33301 1.33301 -6 4s0 5.66699 2 9l61 82c-20 27.333 -30 60 -30 98c0 10 1.33301 25 4 45l26 160c9.33301 64 33.833 113.5 73.5 148.5s91.834 52.5 156.501 52.5
c48.667 0 89 -11.667 121 -35l49 66c2.66699 4 5 6.5 7 7.5s4.66699 1.5 8 1.5h29c3.33301 0 5.5 -1.33301 6.5 -4zM109.999 158c0 -22 4.00098 -41 12.001 -57l279 376c-22.667 18.667 -52.667 28 -90 28c-46.667 0 -85.334 -13.333 -116.001 -40s-50 -66 -58 -118
l-23 -149c-2.66699 -16 -4 -29.333 -4 -40zM438 387c0 22.667 -3.99902 42 -11.999 58l-280 -375c21.333 -18.667 51.666 -28 90.999 -28c46.667 0 85.167 13.167 115.5 39.5s49.5 64.833 57.5 115.5l23 144c3.33301 16.667 5 32 5 46z" />
    <glyph glyph-name="ugrave" unicode="&#xf9;" horiz-adv-x="557" 
d="M502 537l-84 -527.001c-1.33301 -6.66699 -5.33301 -10 -12 -10h-35c-7.33301 0 -10.333 3.33301 -9 10l13 85c-22.667 -31.333 -49.834 -56.666 -81.501 -75.999s-64.834 -29 -99.501 -29c-42.667 0 -75.5 12.5 -98.5 37.5s-34.5 58.5 -34.5 100.5
c0 13.333 1 27.333 3 42l58 367c2 6.66699 6.33301 10 13 10h34c8.66699 0 12.334 -3.33301 11.001 -10l-57 -356c-2 -14.667 -3 -29 -3 -43c0 -62.667 30.333 -94 91 -94c31.333 0 63.5 12 96.5 36s59.5 55.333 79.5 94l57 363c0.666992 2.66699 2 5 4 7s4.66699 3 8 3h35
c8.66699 0 12.334 -3.33301 11.001 -10zM254 755.999l-41.001 0.000976562c-3.33301 0 -5.5 -1.33301 -6.5 -4s-0.833008 -5.33398 0.5 -8.00098l88 -124c2.66699 -3.33301 5 -5.5 7 -6.5s5 -1.5 9 -1.5h29c3.33301 0 5.83301 1.16699 7.5 3.5s1.5 4.83301 -0.5 7.5l-80 125
c-3.33301 5.33301 -7.66602 8 -12.999 8z" />
    <glyph glyph-name="uacute" unicode="&#xfa;" horiz-adv-x="557" 
d="M502 537l-84 -527.001c-1.33301 -6.66699 -5.33301 -10 -12 -10h-35c-7.33301 0 -10.333 3.33301 -9 10l13 85c-22.667 -31.333 -49.834 -56.666 -81.501 -75.999s-64.834 -29 -99.501 -29c-42.667 0 -75.5 12.5 -98.5 37.5s-34.5 58.5 -34.5 100.5
c0 13.333 1 27.333 3 42l58 367c2 6.66699 6.33301 10 13 10h34c8.66699 0 12.334 -3.33301 11.001 -10l-57 -356c-2 -14.667 -3 -29 -3 -43c0 -62.667 30.333 -94 91 -94c31.333 0 63.5 12 96.5 36s59.5 55.333 79.5 94l57 363c0.666992 2.66699 2 5 4 7s4.66699 3 8 3h35
c8.66699 0 12.334 -3.33301 11.001 -10zM254 615.999c-1.33301 2.66699 -0.666992 5.33398 2 8.00098l98 124c3.33301 5.33301 7.66602 8 12.999 8h41c3.33301 0 5.5 -1.33301 6.5 -4s0.5 -5.33398 -1.5 -8.00098l-106 -125c-2.66699 -2 -5.16699 -3.66699 -7.5 -5
s-5.5 -2 -9.5 -2h-29c-3.33301 0 -5.66602 1.33301 -6.99902 4z" />
    <glyph glyph-name="ucircumflex" unicode="&#xfb;" horiz-adv-x="557" 
d="M502 537l-84 -527.001c-1.33301 -6.66699 -5.33301 -10 -12 -10h-35c-7.33301 0 -10.333 3.33301 -9 10l13 85c-22.667 -31.333 -49.834 -56.666 -81.501 -75.999s-64.834 -29 -99.501 -29c-42.667 0 -75.5 12.5 -98.5 37.5s-34.5 58.5 -34.5 100.5
c0 13.333 1 27.333 3 42l58 367c2 6.66699 6.33301 10 13 10h34c8.66699 0 12.334 -3.33301 11.001 -10l-57 -356c-2 -14.667 -3 -29 -3 -43c0 -62.667 30.333 -94 91 -94c31.333 0 63.5 12 96.5 36s59.5 55.333 79.5 94l57 363c0.666992 2.66699 2 5 4 7s4.66699 3 8 3h35
c8.66699 0 12.334 -3.33301 11.001 -10zM427.5 623.499c1 -1.66699 1.5 -3.16699 1.5 -4.5c0 -2 -0.833008 -3.66699 -2.5 -5s-3.83398 -2 -6.50098 -2h-32c-5.33301 0 -9.66602 2.66699 -12.999 8l-65 100l-79 -100c-4.66699 -5.33301 -9.66699 -8 -15 -8h-31
c-6 0 -9 2.33301 -9 7c0 2.66699 1.33301 5.66699 4 9l100 120c3.33301 5.33301 8 8 14 8h36c3.33301 0 5.83301 -0.5 7.5 -1.5s3.5 -3.16699 5.5 -6.5l82 -120c0.666992 -1.33301 1.5 -2.83301 2.5 -4.5z" />
    <glyph glyph-name="udieresis" unicode="&#xfc;" horiz-adv-x="557" 
d="M502 537l-84 -527.001c-1.33301 -6.66699 -5.33301 -10 -12 -10h-35c-7.33301 0 -10.333 3.33301 -9 10l13 85c-22.667 -31.333 -49.834 -56.666 -81.501 -75.999s-64.834 -29 -99.501 -29c-42.667 0 -75.5 12.5 -98.5 37.5s-34.5 58.5 -34.5 100.5
c0 13.333 1 27.333 3 42l58 367c2 6.66699 6.33301 10 13 10h34c8.66699 0 12.334 -3.33301 11.001 -10l-57 -356c-2 -14.667 -3 -29 -3 -43c0 -62.667 30.333 -94 91 -94c31.333 0 63.5 12 96.5 36s59.5 55.333 79.5 94l57 363c0.666992 2.66699 2 5 4 7s4.66699 3 8 3h35
c8.66699 0 12.334 -3.33301 11.001 -10zM258 723.999l-13 -82c-2 -7.33301 -6.66699 -11 -14 -11h-30c-7.33301 0 -10.666 3.66699 -9.99902 11l14 82c1.33301 7.33301 5.66602 11 12.999 11h30c8 0 11.333 -3.66699 10 -11zM428 723.999l-12.999 -82
c-0.666992 -7.33301 -5 -11 -13 -11h-31c-6.66699 0 -9.66699 3.66699 -9 11l13 82c1.33301 7.33301 5.66602 11 12.999 11h31c7.33301 0 10.333 -3.66699 9 -11z" />
    <glyph glyph-name="yacute" unicode="&#xfd;" horiz-adv-x="507" 
d="M502 543.5c1.33301 -2.33301 1.33203 -5.16504 -0.000976562 -8.49805l-285 -560c-43.333 -87.333 -97.333 -148.333 -162 -183c-3.33301 -2.66699 -7 -4 -11 -4c-3.33301 0 -6 1.66699 -8 5l-19 28c-1.33301 2 -2 4.66699 -2 8c0 4 2 7 6 9
c35.333 18.667 64.666 41.5 87.999 68.5s46.333 65.833 69 116.5l-105 511v3c0 2.66699 0.833008 5 2.5 7s3.83398 3 6.50098 3h39c6.66699 0 10.334 -3.33301 11.001 -10l56 -289l4 -20c14.667 -80.667 23 -128.334 25 -143.001h2c24 53.333 50 107.666 78 162.999l145 289
c2.66699 6.66699 7.66699 10 15 10h37c4 0 6.66699 -1.16699 8 -3.5zM246.999 617.001c-1.33301 2.66699 -0.666992 5.33398 2 8.00098l98 124c3.33301 5.33301 7.66602 8 12.999 8h41c3.33301 0 5.5 -1.33301 6.5 -4s0.5 -5.33398 -1.5 -8.00098l-106 -125
c-2.66699 -2 -5.16699 -3.66699 -7.5 -5s-5.5 -2 -9.5 -2h-29c-3.33301 0 -5.66602 1.33301 -6.99902 4z" />
    <glyph glyph-name="thorn" unicode="&#xfe;" horiz-adv-x="566" 
d="M463 516c24 -27.333 36 -64.667 36 -112c0 -18 -1.33301 -34.667 -4 -50l-25 -160c-10 -62 -33.833 -110.667 -71.5 -146s-85.5 -53 -143.5 -53c-53.333 0 -103 16.333 -149 49l-38 -234c-1.33301 -6.66699 -5.33301 -10 -12 -10h-36c-7.33301 0 -10.333 3.33301 -9 10
l149 937c1.33301 6.66699 5.33301 10 12 10h36c7.33301 0 10.333 -3.33301 9 -10l-49 -311c23.333 34.667 51.833 63.5 85.5 86.5s70.5 34.5 110.5 34.5c42 0 75 -13.667 99 -41zM441 395.999c0 35.333 -7.83105 62.001 -23.498 80.001s-38.5 27 -68.5 27
c-36 0 -70.833 -12.833 -104.5 -38.5s-63.5 -62.834 -89.5 -111.501l-41 -257c44 -32 89.667 -48 137 -48c45.333 0 81.666 12.833 108.999 38.5s44.666 62.5 51.999 110.5l25 151c2.66699 16 4 32 4 48z" />
    <glyph glyph-name="ydieresis" unicode="&#xff;" horiz-adv-x="507" 
d="M502 543.5c1.33301 -2.33301 1.33203 -5.16504 -0.000976562 -8.49805l-285 -560c-43.333 -87.333 -97.333 -148.333 -162 -183c-3.33301 -2.66699 -7 -4 -11 -4c-3.33301 0 -6 1.66699 -8 5l-19 28c-1.33301 2 -2 4.66699 -2 8c0 4 2 7 6 9
c35.333 18.667 64.666 41.5 87.999 68.5s46.333 65.833 69 116.5l-105 511v3c0 2.66699 0.833008 5 2.5 7s3.83398 3 6.50098 3h39c6.66699 0 10.334 -3.33301 11.001 -10l56 -289l4 -20c14.667 -80.667 23 -128.334 25 -143.001h2c24 53.333 50 107.666 78 162.999l145 289
c2.66699 6.66699 7.66699 10 15 10h37c4 0 6.66699 -1.16699 8 -3.5zM251.999 725.001l-13 -82c-2 -7.33301 -6.66699 -11 -14 -11h-30c-7.33301 0 -10.666 3.66699 -9.99902 11l14 82c1.33301 7.33301 5.66602 11 12.999 11h30c8 0 11.333 -3.66699 10 -11z
M421.999 725.001l-12.999 -82c-0.666992 -7.33301 -5 -11 -13 -11h-31c-6.66699 0 -9.66699 3.66699 -9 11l13 82c1.33301 7.33301 5.66602 11 12.999 11h31c7.33301 0 10.333 -3.66699 9 -11z" />
    <glyph glyph-name="Amacron" unicode="&#x100;" horiz-adv-x="608" 
d="M520 9c0 -6 -3 -8.99902 -9 -8.99902h-40c-6.66699 0 -10.334 3 -11.001 9l-33 218h-273l-102 -218c-2.66699 -6 -7.66699 -9 -15 -9h-39c-3.33301 0 -5.66602 1.16699 -6.99902 3.5s-1.33301 5.16602 0 8.49902l335 710c4 6.66699 9 10 15 10h57
c7.33301 0 11.333 -3 12 -9l110 -711v-3zM419 283.001l-27 177.999l-9 58l-9.5 65c-3.66699 24.667 -7.5 52.334 -11.5 83.001h-3l-70 -153l-26 -55l-83 -176h239zM519 870l-4 -27c-0.666992 -8 -4.66699 -12 -12 -12h-232c-6.66699 0 -9.66699 3.66699 -9 11l5 28
c1.33301 7.33301 5 11 11 11h233c7.33301 0 10 -3.66699 8 -11z" />
    <glyph glyph-name="amacron" unicode="&#x101;" horiz-adv-x="563" 
d="M500.5 497.5c1 -2.33301 0.832031 -6.16602 -0.500977 -11.499l-75 -476c-0.666992 -2.66699 -2 -5 -4 -7s-4.66699 -3 -8 -3h-36c-7.33301 0 -10.333 3.33301 -9 10l16 103c-22.667 -34.667 -51 -63.834 -85 -87.501s-69.667 -35.5 -107 -35.5
c-43.333 0 -77 13.5 -101 40.5s-36 63.833 -36 110.5c0 18.667 1.33301 36 4 52l27 163c9.33301 60 32.333 107.5 69 142.5s84.334 52.5 143.001 52.5c32.667 0 64.667 -3.83301 96 -11.5s64 -19.167 98 -34.5c4.66699 -2.66699 7.5 -5.16699 8.5 -7.5zM439.999 468
c-51.333 20.667 -98.002 31 -140.002 31c-43.333 0 -78.666 -13 -105.999 -39s-44.666 -62.667 -51.999 -110l-24 -151c-3.33301 -20 -5 -36.333 -5 -49c0 -71.333 31 -107 93 -107c33.333 0 66.833 13 100.5 39s63.5 63.667 89.5 113zM463.997 685l-4 -27
c-0.666992 -8 -4.66699 -12 -12 -12h-232c-6.66699 0 -9.66699 3.66699 -9 11l5 28c1.33301 7.33301 5 11 11 11h233c7.33301 0 10 -3.66699 8 -11z" />
    <glyph glyph-name="Abreve" unicode="&#x102;" horiz-adv-x="608" 
d="M520 9c0 -6 -3 -8.99902 -9 -8.99902h-40c-6.66699 0 -10.334 3 -11.001 9l-33 218h-273l-102 -218c-2.66699 -6 -7.66699 -9 -15 -9h-39c-3.33301 0 -5.66602 1.16699 -6.99902 3.5s-1.33301 5.16602 0 8.49902l335 710c4 6.66699 9 10 15 10h57
c7.33301 0 11.333 -3 12 -9l110 -711v-3zM419 283.001l-27 177.999l-9 58l-9.5 65c-3.66699 24.667 -7.5 52.334 -11.5 83.001h-3l-70 -153l-26 -55l-83 -176h239zM506 910c-2 -31.333 -14.167 -58.167 -36.5 -80.5s-51.166 -33.5 -86.499 -33.5
c-34 0 -60.833 10.833 -80.5 32.5s-29.5 46.834 -29.5 75.501c0 10 3 15 9 15h28c2.66699 0 4.5 -1 5.5 -3s1.5 -5.66699 1.5 -11c0 -16.667 5.83301 -31.834 17.5 -45.501s27.834 -20.5 48.501 -20.5c23.333 0 42.166 6.83301 56.499 20.5s22.166 30.5 23.499 50.5
c0 6 2.66699 9 8 9h27c5.33301 0 8 -3 8 -9z" />
    <glyph glyph-name="abreve" unicode="&#x103;" horiz-adv-x="563" 
d="M500.5 497.5c1 -2.33301 0.832031 -6.16602 -0.500977 -11.499l-75 -476c-0.666992 -2.66699 -2 -5 -4 -7s-4.66699 -3 -8 -3h-36c-7.33301 0 -10.333 3.33301 -9 10l16 103c-22.667 -34.667 -51 -63.834 -85 -87.501s-69.667 -35.5 -107 -35.5
c-43.333 0 -77 13.5 -101 40.5s-36 63.833 -36 110.5c0 18.667 1.33301 36 4 52l27 163c9.33301 60 32.333 107.5 69 142.5s84.334 52.5 143.001 52.5c32.667 0 64.667 -3.83301 96 -11.5s64 -19.167 98 -34.5c4.66699 -2.66699 7.5 -5.16699 8.5 -7.5zM439.999 468
c-51.333 20.667 -98.002 31 -140.002 31c-43.333 0 -78.666 -13 -105.999 -39s-44.666 -62.667 -51.999 -110l-24 -151c-3.33301 -20 -5 -36.333 -5 -49c0 -71.333 31 -107 93 -107c33.333 0 66.833 13 100.5 39s63.5 63.667 89.5 113zM450.997 725
c-2 -31.333 -14.167 -58.167 -36.5 -80.5s-51.166 -33.5 -86.499 -33.5c-34 0 -60.833 10.833 -80.5 32.5s-29.5 46.834 -29.5 75.501c0 10 3 15 9 15h28c2.66699 0 4.5 -1 5.5 -3s1.5 -5.66699 1.5 -11c0 -16.667 5.83301 -31.834 17.5 -45.501s27.834 -20.5 48.501 -20.5
c23.333 0 42.166 6.83301 56.499 20.5s22.166 30.5 23.499 50.5c0 6 2.66699 9 8 9h27c5.33301 0 8 -3 8 -9z" />
    <glyph glyph-name="Aogonek" unicode="&#x104;" horiz-adv-x="608" 
d="M520 9c0 -6 -3.00098 -8.99902 -9.00098 -8.99902c-28 -10 -52.667 -25.5 -74 -46.5s-32 -43.833 -32 -68.5c0 -15.333 4.5 -27.833 13.5 -37.5s21.167 -14.5 36.5 -14.5c8.66699 0 18 1.66699 28 5l4 1c3.33301 0 5.66602 -1.66699 6.99902 -5l6 -25v-2
c0 -4 -1.66699 -7 -5 -9c-12 -7.33301 -27.333 -11 -46 -11c-28 0 -50.667 8.66699 -68 26s-24.666 40 -21.999 68c1.33301 27.333 11 52 29 74s42 40.667 72 56l-33 216h-273l-102 -218c-2.66699 -6 -7.66699 -9 -15 -9h-39c-3.33301 0 -5.66602 1.16699 -6.99902 3.5
s-1.33301 5.16602 0 8.49902l335 710c4 6.66699 9 10 15 10h57c7.33301 0 11.333 -3 12 -9l110 -711v-3zM418.999 283.001l-27 177.999l-9 58l-9.5 65c-3.66699 24.667 -7.5 52.334 -11.5 83.001h-3l-70 -153l-26 -55l-83 -176h239z" />
    <glyph glyph-name="aogonek" unicode="&#x105;" horiz-adv-x="563" 
d="M500.5 497.5c1 -2.33301 0.834961 -6.16699 -0.498047 -11.5l-75 -476c-0.666992 -5.33301 -4.33398 -8.66602 -11.001 -9.99902c-28 -10 -52.667 -25.5 -74 -46.5s-32 -43.833 -32 -68.5c0 -15.333 4.5 -27.833 13.5 -37.5s21.167 -14.5 36.5 -14.5
c8.66699 0 18 1.66699 28 5l4 1c3.33301 0 5.66602 -1.66699 6.99902 -5l6 -25v-2c0 -4 -1.66699 -7 -5 -9c-12 -7.33301 -27.333 -11 -46 -11c-28 0 -50.667 8.66699 -68 26s-24.666 40 -21.999 68c1.33301 28 11.666 53.333 30.999 76s44.666 42 75.999 58l15 98
c-22.667 -34.667 -51 -63.834 -85 -87.501s-69.667 -35.5 -107 -35.5c-43.333 0 -77 13.5 -101 40.5s-36 63.833 -36 110.5c0 18.667 1.33301 36 4 52l27 163c9.33301 60 32.333 107.5 69 142.5s84.334 52.5 143.001 52.5c32.667 0 64.667 -3.83301 96 -11.5
s64 -19.167 98 -34.5c4.66699 -2.66699 7.5 -5.16699 8.5 -7.5zM440.002 467.999c-51.333 20.667 -98.002 31 -140.002 31c-43.333 0 -78.666 -13 -105.999 -39s-44.666 -62.667 -51.999 -110l-24 -151c-3.33301 -20 -5 -36.333 -5 -49c0 -71.333 31 -107 93 -107
c33.333 0 66.833 13 100.5 39s63.5 63.667 89.5 113z" />
    <glyph glyph-name="Cacute" unicode="&#x106;" horiz-adv-x="584" 
d="M567 584l1.00098 -5.00098c0 -5.33301 -3.66699 -9 -11 -11l-32 -9c-1.33301 -0.666992 -3.33301 -1 -6 -1c-4.66699 0 -7.33398 2.66699 -8.00098 8c-8 40.667 -22.667 70.667 -44 90s-52.666 29 -93.999 29c-50.667 0 -94 -15.5 -130 -46.5s-59.333 -79.167 -70 -144.5
l-41 -258c-2.66699 -22.667 -4 -39 -4 -49c0 -46 12.5 -80.833 37.5 -104.5s59.5 -35.5 103.5 -35.5c40 0 75.5 11.333 106.5 34s56.5 54.334 76.5 95.001c2.66699 5.33301 5.66699 8 9 8s6 -0.666992 8 -2l32 -11c4 -2 6 -4.66699 6 -8c0 -2.66699 -1 -5.66699 -3 -9
c-25.333 -52 -58.333 -92.333 -99 -121s-88.334 -43 -143.001 -43c-59.333 0 -106.833 16.5 -142.5 49.5s-53.5 79.833 -53.5 140.5c0 14.667 1.66699 32 5 52l43 269c12.667 78.667 42.667 138.5 90 179.5s105 61.5 173 61.5c108 0 171.333 -52.667 190 -158z
M333.001 801.999c-1.33301 2.66699 -0.666992 5.33398 2 8.00098l98 124c3.33301 5.33301 7.66602 8 12.999 8h41c3.33301 0 5.5 -1.33301 6.5 -4s0.5 -5.33398 -1.5 -8.00098l-106 -125c-2.66699 -2 -5.16699 -3.66699 -7.5 -5s-5.5 -2 -9.5 -2h-29
c-3.33301 0 -5.66602 1.33301 -6.99902 4z" />
    <glyph glyph-name="cacute" unicode="&#x107;" horiz-adv-x="507" 
d="M410.5 523.5c25.667 -22.333 43.832 -52.835 54.499 -91.502c0.666992 -2 1 -4.66699 1 -8c0 -5.33301 -2.66699 -8.66602 -8 -9.99902l-33 -11l-4 -1c-4 0 -7 2.66699 -9 8c-7.33301 30 -19.666 53 -36.999 69s-42.666 24 -75.999 24
c-43.333 0 -78.833 -13.167 -106.5 -39.5s-45.834 -66.166 -54.501 -119.499l-22 -146c-2.66699 -13.333 -4 -26.666 -4 -39.999c0 -38 9.83301 -66.667 29.5 -86s47.5 -29 83.5 -29c35.333 0 64.833 8 88.5 24s42.834 39.667 57.501 71c4 7.33301 9 9.66602 15 6.99902
l31 -13c7.33301 -2.66699 8.66602 -7.66699 3.99902 -15c-18.667 -40 -44.667 -71.167 -78 -93.5s-74 -33.5 -122 -33.5c-53.333 0 -94.666 14.167 -123.999 42.5s-44 67.833 -44 118.5c0 16 1.33301 30.667 4 44l25 156c10 63.333 33.667 113.5 71 150.5
s85.666 55.5 144.999 55.5c49.333 0 86.833 -11.167 112.5 -33.5zM259.998 614.998c-1.33301 2.66699 -0.666992 5.33398 2 8.00098l98 124c3.33301 5.33301 7.66602 8 12.999 8h41c3.33301 0 5.5 -1.33301 6.5 -4s0.5 -5.33398 -1.5 -8.00098l-106 -125
c-2.66699 -2 -5.16699 -3.66699 -7.5 -5s-5.5 -2 -9.5 -2h-29c-3.33301 0 -5.66602 1.33301 -6.99902 4z" />
    <glyph glyph-name="Cdotaccent" unicode="&#x10a;" horiz-adv-x="584" 
d="M567 584l1.00098 -5.00098c0 -5.33301 -3.66699 -9 -11 -11l-32 -9c-1.33301 -0.666992 -3.33301 -1 -6 -1c-4.66699 0 -7.33398 2.66699 -8.00098 8c-8 40.667 -22.667 70.667 -44 90s-52.666 29 -93.999 29c-50.667 0 -94 -15.5 -130 -46.5s-59.333 -79.167 -70 -144.5
l-41 -258c-2.66699 -22.667 -4 -39 -4 -49c0 -46 12.5 -80.833 37.5 -104.5s59.5 -35.5 103.5 -35.5c40 0 75.5 11.333 106.5 34s56.5 54.334 76.5 95.001c2.66699 5.33301 5.66699 8 9 8s6 -0.666992 8 -2l32 -11c4 -2 6 -4.66699 6 -8c0 -2.66699 -1 -5.66699 -3 -9
c-25.333 -52 -58.333 -92.333 -99 -121s-88.334 -43 -143.001 -43c-59.333 0 -106.833 16.5 -142.5 49.5s-53.5 79.833 -53.5 140.5c0 14.667 1.66699 32 5 52l43 269c12.667 78.667 42.667 138.5 90 179.5s105 61.5 173 61.5c108 0 171.333 -52.667 190 -158z
M420.501 917.999c1.66699 -2 2.16602 -4.66699 1.49902 -8l-13 -82c-0.666992 -7.33301 -5 -11 -13 -11h-30c-7.33301 0 -10.666 3.66699 -9.99902 11l13 82c1.33301 7.33301 6 11 14 11h30c3.33301 0 5.83301 -1 7.5 -3z" />
    <glyph glyph-name="cdotaccent" unicode="&#x10b;" horiz-adv-x="507" 
d="M410.5 523.5c25.667 -22.333 43.832 -52.835 54.499 -91.502c0.666992 -2 1 -4.66699 1 -8c0 -5.33301 -2.66699 -8.66602 -8 -9.99902l-33 -11l-4 -1c-4 0 -7 2.66699 -9 8c-7.33301 30 -19.666 53 -36.999 69s-42.666 24 -75.999 24
c-43.333 0 -78.833 -13.167 -106.5 -39.5s-45.834 -66.166 -54.501 -119.499l-22 -146c-2.66699 -13.333 -4 -26.666 -4 -39.999c0 -38 9.83301 -66.667 29.5 -86s47.5 -29 83.5 -29c35.333 0 64.833 8 88.5 24s42.834 39.667 57.501 71c4 7.33301 9 9.66602 15 6.99902
l31 -13c7.33301 -2.66699 8.66602 -7.66699 3.99902 -15c-18.667 -40 -44.667 -71.167 -78 -93.5s-74 -33.5 -122 -33.5c-53.333 0 -94.666 14.167 -123.999 42.5s-44 67.833 -44 118.5c0 16 1.33301 30.667 4 44l25 156c10 63.333 33.667 113.5 71 150.5
s85.666 55.5 144.999 55.5c49.333 0 86.833 -11.167 112.5 -33.5zM347.498 730.998c1.66699 -2 2.16602 -4.66699 1.49902 -8l-13 -82c-0.666992 -7.33301 -5 -11 -13 -11h-30c-7.33301 0 -10.666 3.66699 -9.99902 11l13 82c1.33301 7.33301 6 11 14 11h30
c3.33301 0 5.83301 -1 7.5 -3z" />
    <glyph glyph-name="Ccaron" unicode="&#x10c;" horiz-adv-x="584" 
d="M567 584l1.00098 -5.00098c0 -5.33301 -3.66699 -9 -11 -11l-32 -9c-1.33301 -0.666992 -3.33301 -1 -6 -1c-4.66699 0 -7.33398 2.66699 -8.00098 8c-8 40.667 -22.667 70.667 -44 90s-52.666 29 -93.999 29c-50.667 0 -94 -15.5 -130 -46.5s-59.333 -79.167 -70 -144.5
l-41 -258c-2.66699 -22.667 -4 -39 -4 -49c0 -46 12.5 -80.833 37.5 -104.5s59.5 -35.5 103.5 -35.5c40 0 75.5 11.333 106.5 34s56.5 54.334 76.5 95.001c2.66699 5.33301 5.66699 8 9 8s6 -0.666992 8 -2l32 -11c4 -2 6 -4.66699 6 -8c0 -2.66699 -1 -5.66699 -3 -9
c-25.333 -52 -58.333 -92.333 -99 -121s-88.334 -43 -143.001 -43c-59.333 0 -106.833 16.5 -142.5 49.5s-53.5 79.833 -53.5 140.5c0 14.667 1.66699 32 5 52l43 269c12.667 78.667 42.667 138.5 90 179.5s105 61.5 173 61.5c108 0 171.333 -52.667 190 -158z
M517.001 933.999c0 -2.66699 -1.33203 -5.66699 -3.99902 -9l-99 -120c-2 -2.66699 -4 -4.66699 -6 -6s-4.66699 -2 -8 -2h-37c-3.33301 0 -5.83301 0.5 -7.5 1.5s-3.5 3.16699 -5.5 6.5l-81 120c-2.66699 3.33301 -4 6.33301 -4 9c0 4.66699 3 7 9 7h31
c5.33301 0 9.66602 -2.66699 12.999 -8l66 -100l78 100c4.66699 5.33301 9.66699 8 15 8h32c5.33301 0 8 -2.33301 8 -7z" />
    <glyph glyph-name="ccaron" unicode="&#x10d;" horiz-adv-x="507" 
d="M410.5 523.5c25.667 -22.333 43.832 -52.835 54.499 -91.502c0.666992 -2 1 -4.66699 1 -8c0 -5.33301 -2.66699 -8.66602 -8 -9.99902l-33 -11l-4 -1c-4 0 -7 2.66699 -9 8c-7.33301 30 -19.666 53 -36.999 69s-42.666 24 -75.999 24
c-43.333 0 -78.833 -13.167 -106.5 -39.5s-45.834 -66.166 -54.501 -119.499l-22 -146c-2.66699 -13.333 -4 -26.666 -4 -39.999c0 -38 9.83301 -66.667 29.5 -86s47.5 -29 83.5 -29c35.333 0 64.833 8 88.5 24s42.834 39.667 57.501 71c4 7.33301 9 9.66602 15 6.99902
l31 -13c7.33301 -2.66699 8.66602 -7.66699 3.99902 -15c-18.667 -40 -44.667 -71.167 -78 -93.5s-74 -33.5 -122 -33.5c-53.333 0 -94.666 14.167 -123.999 42.5s-44 67.833 -44 118.5c0 16 1.33301 30.667 4 44l25 156c10 63.333 33.667 113.5 71 150.5
s85.666 55.5 144.999 55.5c49.333 0 86.833 -11.167 112.5 -33.5zM443.998 746.998c0 -2.66699 -1.33203 -5.66699 -3.99902 -9l-99 -120c-2 -2.66699 -4 -4.66699 -6 -6s-4.66699 -2 -8 -2h-37c-3.33301 0 -5.83301 0.5 -7.5 1.5s-3.5 3.16699 -5.5 6.5l-81 120
c-2.66699 3.33301 -4 6.33301 -4 9c0 4.66699 3 7 9 7h31c5.33301 0 9.66602 -2.66699 12.999 -8l66 -100l78 100c4.66699 5.33301 9.66699 8 15 8h32c5.33301 0 8 -2.33301 8 -7z" />
    <glyph glyph-name="Dcaron" unicode="&#x10e;" horiz-adv-x="646" 
d="M536 685c38.667 -31.333 58.001 -78 58.001 -140c0 -18 -1.33301 -35.333 -4 -52l-41 -255c-12 -79.333 -42.667 -138.833 -92 -178.5s-113.666 -59.5 -192.999 -59.5h-198c-8.66699 0 -12.334 3.66699 -11.001 11l113 711c1.33301 6.66699 5.66602 10 12.999 10h193
c69.333 0 123.333 -15.667 162 -47zM533.001 534c0 49.333 -14.5 85.167 -43.5 107.5s-70.5 33.5 -124.5 33.5h-145l-97 -618h140c131.333 0 207.333 64.667 228 194l37 230c3.33301 22 5 39.667 5 53zM516.001 934.001c0 -2.66699 -1.33203 -5.66699 -3.99902 -9l-99 -120
c-2 -2.66699 -4 -4.66699 -6 -6s-4.66699 -2 -8 -2h-37c-3.33301 0 -5.83301 0.5 -7.5 1.5s-3.5 3.16699 -5.5 6.5l-81 120c-2.66699 3.33301 -4 6.33301 -4 9c0 4.66699 3 7 9 7h31c5.33301 0 9.66602 -2.66699 12.999 -8l66 -100l78 100c4.66699 5.33301 9.66699 8 15 8
h32c5.33301 0 8 -2.33301 8 -7z" />
    <glyph glyph-name="dcaron" unicode="&#x10f;" horiz-adv-x="586" 
d="M585 592c10.667 22 18.998 45.334 24.998 70.001s10 53 12 85c0 2.66699 0.833008 5 2.5 7s3.83398 3 6.50098 3h34c2.66699 0 4.83398 -0.833008 6.50098 -2.5s2.5 -3.83398 2.5 -6.50098c-0.666992 -26 -4.83398 -55.333 -12.501 -88s-19.5 -61.667 -35.5 -87
c-1.33301 -2.66699 -3.16602 -4.5 -5.49902 -5.5s-4.83301 -0.833008 -7.5 0.5l-25 11c-5.33301 2 -6.33301 6.33301 -3 13zM548.998 747.001l-117.002 -736.999c-1.33301 -6.66699 -5.33301 -10 -12 -10h-36c-3.33301 0 -5.66602 1 -6.99902 3
s-1.66602 4.33301 -0.999023 7l16 103c-24 -34.667 -53.333 -63.834 -88 -87.501s-71 -35.5 -109 -35.5c-44.667 0 -79.334 13.667 -104.001 41s-37 65 -37 113c0 16.667 1.33301 32.667 4 48l26 161c9.33301 62 32.5 110.5 69.5 145.5s84.833 52.5 143.5 52.5
c56.667 0 108.334 -17.333 155.001 -52l40 248c1.33301 6.66699 5.33301 10 12 10h36c7.33301 0 10.333 -3.33301 9 -10zM443.996 447.002c-44 34.667 -92 51.999 -144 51.999c-43.333 0 -78.833 -13.167 -106.5 -39.5s-45.167 -62.833 -52.5 -109.5l-23 -151
c-2.66699 -15.333 -4 -30.666 -4 -45.999c0 -73.333 31.333 -110 94 -110c34 0 68.5 13 103.5 39s65.5 62.667 91.5 110z" />
    <glyph glyph-name="Dcroat" unicode="&#x110;" horiz-adv-x="674" 
d="M564 685c38.667 -31.333 58.001 -78.001 58.001 -140.001c0 -18 -1.33301 -35.333 -4 -52l-41 -255c-12 -79.333 -42.667 -138.833 -92 -178.5s-113.666 -59.5 -192.999 -59.5h-198c-8.66699 0 -12.334 3.66699 -11.001 11l52 327h-93c-4 0 -6.66699 0.833008 -8 2.5
s-1.66602 4.5 -0.999023 8.5l5 33c1.33301 4.66699 2.66602 7.83398 3.99902 9.50098s4 2.5 8 2.5h94l52 328c1.33301 6.66699 5.66602 10 12.999 10h193c69.333 0 123.333 -15.667 162 -47zM561.001 533.999c0 49.333 -14.499 85.167 -43.499 107.5s-70.5 33.5 -124.5 33.5
h-144l-45 -281h140c6.66699 0 9.66699 -3.66699 9 -11l-6 -33c-0.666992 -8 -4.33398 -12 -11.001 -12h-140l-45 -281h140c131.333 0 207.333 64.667 228 194l37 230c3.33301 22 5 39.667 5 53z" />
    <glyph glyph-name="dcroat" unicode="&#x111;" horiz-adv-x="572" 
d="M594 651l-4.00098 -25c-0.666992 -8 -4.66699 -12 -12 -12h-50l-96 -604c-1.33301 -6.66699 -5.33301 -10 -12 -10h-36c-3.33301 0 -5.66602 1 -6.99902 3s-1.66602 4.33301 -0.999023 7l16 103c-24 -34.667 -53.333 -63.834 -88 -87.501s-71 -35.5 -109 -35.5
c-44.667 0 -79.334 13.667 -104.001 41s-37 65 -37 113c0 16.667 1.33301 32.667 4 48l26 161c9.33301 62 32.5 110.5 69.5 145.5s84.833 52.5 143.5 52.5c56.667 0 108.334 -17.333 155.001 -52l19 115h-137c-8 0 -11 3.66699 -9 11l3 25
c1.33301 4.66699 2.83301 7.83398 4.5 9.50098s4.5 2.5 8.5 2.5h137l14 85c1.33301 6.66699 5.33301 10 12 10h36c7.33301 0 10.333 -3.33301 9 -10l-13 -85h48c7.33301 0 10.666 -3.66699 9.99902 -11zM443.999 447c-44 34.667 -92 51.999 -144 51.999
c-43.333 0 -78.833 -13.167 -106.5 -39.5s-45.167 -62.833 -52.5 -109.5l-23 -151c-2.66699 -15.333 -4 -30.666 -4 -45.999c0 -73.333 31.333 -110 94 -110c34 0 68.5 13 103.5 39s65.5 62.667 91.5 110z" />
    <glyph glyph-name="Emacron" unicode="&#x112;" horiz-adv-x="549" 
d="M538 721l-4.99707 -34c-1.33301 -7.33301 -5.33301 -11 -12 -11h-301l-43 -275h274c7.33301 0 10.333 -3.66699 9 -11l-6 -33c-0.666992 -8 -4.33398 -12 -11.001 -12h-275l-45 -289h301c7.33301 0 10 -3.66699 8 -11l-5 -33c-0.666992 -8 -4.66699 -12 -12 -12h-349
c-8.66699 0 -12.334 3.66699 -11.001 11l113 711c1.33301 6.66699 5.66602 10 12.999 10h348c8 0 11 -3.66699 9 -11zM494.003 870l-4 -27c-0.666992 -8 -4.66699 -12 -12 -12h-232c-6.66699 0 -9.66699 3.66699 -9 11l5 28c1.33301 7.33301 5 11 11 11h233
c7.33301 0 10 -3.66699 8 -11z" />
    <glyph glyph-name="emacron" unicode="&#x113;" horiz-adv-x="540" 
d="M434 514c31.333 -28.667 47 -66.999 47 -114.999c0 -12 -2 -30 -6 -54l-11 -69c-2 -15.333 -11.333 -23 -28 -23h-313l-9 -55c-2.66699 -18.667 -4 -32.334 -4 -41.001c0 -38 10.5 -66.833 31.5 -86.5s50.833 -29.5 89.5 -29.5s70 7.16699 94 21.5
s44.333 35.166 61 62.499c4.66699 8 10.334 9.66699 17.001 5l25 -14c4 -2.66699 6 -5.66699 6 -9c0 -2.66699 -1 -5.66699 -3 -9c-20 -33.333 -47.167 -59.666 -81.5 -78.999s-74.5 -29 -120.5 -29c-56.667 0 -100.167 14.333 -130.5 43s-45.5 68 -45.5 118
c0 8.66699 1.33301 23 4 43l26 164c9.33301 60 34 108.167 74 144.5s90 54.5 150 54.5c53.333 0 95.666 -14.333 126.999 -43zM425 392.001c0 36.667 -10.5 64.666 -31.5 83.999s-50.5 29 -88.5 29c-44 0 -80.667 -13.167 -110 -39.5s-48 -64.166 -56 -113.499l-9 -53h281
l9 50c3.33301 16.667 5 31 5 43zM448 684l-4 -27c-0.666992 -8 -4.66699 -12 -12 -12h-232c-6.66699 0 -9.66699 3.66699 -9 11l5 28c1.33301 7.33301 5 11 11 11h233c7.33301 0 10 -3.66699 8 -11z" />
    <glyph glyph-name="Edotaccent" unicode="&#x116;" horiz-adv-x="549" 
d="M538 721l-4.99707 -34c-1.33301 -7.33301 -5.33301 -11 -12 -11h-301l-43 -275h274c7.33301 0 10.333 -3.66699 9 -11l-6 -33c-0.666992 -8 -4.33398 -12 -11.001 -12h-275l-45 -289h301c7.33301 0 10 -3.66699 8 -11l-5 -33c-0.666992 -8 -4.66699 -12 -12 -12h-349
c-8.66699 0 -12.334 3.66699 -11.001 11l113 711c1.33301 6.66699 5.66602 10 12.999 10h348c8 0 11 -3.66699 9 -11zM398.503 918c1.66699 -2 2.16602 -4.66699 1.49902 -8l-13 -82c-0.666992 -7.33301 -5 -11 -13 -11h-30c-7.33301 0 -10.666 3.66699 -9.99902 11l13 82
c1.33301 7.33301 6 11 14 11h30c3.33301 0 5.83301 -1 7.5 -3z" />
    <glyph glyph-name="edotaccent" unicode="&#x117;" horiz-adv-x="540" 
d="M434 514c31.333 -28.667 47 -66.999 47 -114.999c0 -12 -2 -30 -6 -54l-11 -69c-2 -15.333 -11.333 -23 -28 -23h-313l-9 -55c-2.66699 -18.667 -4 -32.334 -4 -41.001c0 -38 10.5 -66.833 31.5 -86.5s50.833 -29.5 89.5 -29.5s70 7.16699 94 21.5
s44.333 35.166 61 62.499c4.66699 8 10.334 9.66699 17.001 5l25 -14c4 -2.66699 6 -5.66699 6 -9c0 -2.66699 -1 -5.66699 -3 -9c-20 -33.333 -47.167 -59.666 -81.5 -78.999s-74.5 -29 -120.5 -29c-56.667 0 -100.167 14.333 -130.5 43s-45.5 68 -45.5 118
c0 8.66699 1.33301 23 4 43l26 164c9.33301 60 34 108.167 74 144.5s90 54.5 150 54.5c53.333 0 95.666 -14.333 126.999 -43zM425 392.001c0 36.667 -10.5 64.666 -31.5 83.999s-50.5 29 -88.5 29c-44 0 -80.667 -13.167 -110 -39.5s-48 -64.166 -56 -113.499l-9 -53h281
l9 50c3.33301 16.667 5 31 5 43zM352.5 732c1.66699 -2 2.16602 -4.66699 1.49902 -8l-13 -82c-0.666992 -7.33301 -5 -11 -13 -11h-30c-7.33301 0 -10.666 3.66699 -9.99902 11l13 82c1.33301 7.33301 6 11 14 11h30c3.33301 0 5.83301 -1 7.5 -3z" />
    <glyph glyph-name="Eogonek" unicode="&#x118;" horiz-adv-x="549" 
d="M538 721l-4.99609 -34c-1.33301 -7.33301 -5.33301 -11 -12 -11h-301l-43 -275h274c7.33301 0 10.333 -3.66699 9 -11l-6 -33c-0.666992 -8 -4.33398 -12 -11.001 -12h-275l-45 -289h301c7.33301 0 10 -3.66699 8 -11l-5 -33c-0.666992 -8 -4.66699 -12 -12 -12
c-28 -10 -52.667 -25.5 -74 -46.5s-32 -43.833 -32 -68.5c0 -15.333 4.5 -27.833 13.5 -37.5s21.5 -14.5 37.5 -14.5c8 0 17 1.66699 27 5c1.33301 0.666992 3 1 5 1c3.33301 0 5.66602 -1.66699 6.99902 -5l5 -25v-2c0 -4 -1.66699 -7 -5 -9
c-4.66699 -3.33301 -11.167 -6 -19.5 -8s-17.166 -3 -26.499 -3c-26 0 -47.5 7.83301 -64.5 23.5s-25.5 36.167 -25.5 61.5c0 26 7.16699 49.833 21.5 71.5s34.166 40.5 59.499 56.5h-278c-8.66699 0 -12.334 3.66699 -11.001 11l113 711
c1.33301 6.66699 5.66602 10 12.999 10h348c8 0 11 -3.66699 9 -11z" />
    <glyph glyph-name="eogonek" unicode="&#x119;" horiz-adv-x="540" 
d="M434 514c31.333 -28.667 47 -66.9971 47 -114.997c0 -12 -2 -30 -6 -54l-11 -69c-2 -15.333 -11.333 -23 -28 -23h-313l-9 -55c-2.66699 -18.667 -4 -32.334 -4 -41.001c0 -38 10.5 -66.833 31.5 -86.5s50.833 -29.5 89.5 -29.5s70 7.16699 94 21.5
s44.333 35.166 61 62.499c4.66699 8 10.334 9.66699 17.001 5l25 -14c4 -2.66699 6 -5.66699 6 -9c0 -2.66699 -1 -5.66699 -3 -9c-28 -49.333 -71 -82.333 -129 -99c-28 -10 -52.333 -25.333 -73 -46s-31 -43.334 -31 -68.001c0 -15.333 4.5 -27.833 13.5 -37.5
s21.167 -14.5 36.5 -14.5c9.33301 0 18.333 1.66699 27 5c1.33301 0.666992 3 1 5 1c3.33301 0 5.66602 -1.66699 6.99902 -5l6 -25v-2c0 -4 -2 -7 -6 -9c-4.66699 -3.33301 -11.167 -6 -19.5 -8s-16.833 -3 -25.5 -3c-26.667 0 -48.5 7.83301 -65.5 23.5
s-25.5 36.5 -25.5 62.5c0 44.667 22.333 83.667 67 117c-53.333 2 -94.166 17.333 -122.499 46s-42.5 67 -42.5 115c0 8.66699 1.33301 23 4 43l26 164c9.33301 60 34 108.167 74 144.5s90 54.5 150 54.5c53.333 0 95.666 -14.333 126.999 -43zM425 392.003
c0 36.667 -10.5 64.666 -31.5 83.999s-50.5 29 -88.5 29c-44 0 -80.667 -13.167 -110 -39.5s-48 -64.166 -56 -113.499l-9 -53h281l9 50c3.33301 16.667 5 31 5 43z" />
    <glyph glyph-name="Ecaron" unicode="&#x11a;" horiz-adv-x="549" 
d="M538 721l-4.99707 -34c-1.33301 -7.33301 -5.33301 -11 -12 -11h-301l-43 -275h274c7.33301 0 10.333 -3.66699 9 -11l-6 -33c-0.666992 -8 -4.33398 -12 -11.001 -12h-275l-45 -289h301c7.33301 0 10 -3.66699 8 -11l-5 -33c-0.666992 -8 -4.66699 -12 -12 -12h-349
c-8.66699 0 -12.334 3.66699 -11.001 11l113 711c1.33301 6.66699 5.66602 10 12.999 10h348c8 0 11 -3.66699 9 -11zM495.003 934c0 -2.66699 -1.33203 -5.66699 -3.99902 -9l-99 -120c-2 -2.66699 -4 -4.66699 -6 -6s-4.66699 -2 -8 -2h-37
c-3.33301 0 -5.83301 0.5 -7.5 1.5s-3.5 3.16699 -5.5 6.5l-81 120c-2.66699 3.33301 -4 6.33301 -4 9c0 4.66699 3 7 9 7h31c5.33301 0 9.66602 -2.66699 12.999 -8l66 -100l78 100c4.66699 5.33301 9.66699 8 15 8h32c5.33301 0 8 -2.33301 8 -7z" />
    <glyph glyph-name="ecaron" unicode="&#x11b;" horiz-adv-x="540" 
d="M434 514c31.333 -28.667 47 -66.999 47 -114.999c0 -12 -2 -30 -6 -54l-11 -69c-2 -15.333 -11.333 -23 -28 -23h-313l-9 -55c-2.66699 -18.667 -4 -32.334 -4 -41.001c0 -38 10.5 -66.833 31.5 -86.5s50.833 -29.5 89.5 -29.5s70 7.16699 94 21.5
s44.333 35.166 61 62.499c4.66699 8 10.334 9.66699 17.001 5l25 -14c4 -2.66699 6 -5.66699 6 -9c0 -2.66699 -1 -5.66699 -3 -9c-20 -33.333 -47.167 -59.666 -81.5 -78.999s-74.5 -29 -120.5 -29c-56.667 0 -100.167 14.333 -130.5 43s-45.5 68 -45.5 118
c0 8.66699 1.33301 23 4 43l26 164c9.33301 60 34 108.167 74 144.5s90 54.5 150 54.5c53.333 0 95.666 -14.333 126.999 -43zM425 392.001c0 36.667 -10.5 64.666 -31.5 83.999s-50.5 29 -88.5 29c-44 0 -80.667 -13.167 -110 -39.5s-48 -64.166 -56 -113.499l-9 -53h281
l9 50c3.33301 16.667 5 31 5 43zM449 748c0 -2.66699 -1.33203 -5.66699 -3.99902 -9l-99 -120c-2 -2.66699 -4 -4.66699 -6 -6s-4.66699 -2 -8 -2h-37c-3.33301 0 -5.83301 0.5 -7.5 1.5s-3.5 3.16699 -5.5 6.5l-81 120c-2.66699 3.33301 -4 6.33301 -4 9
c0 4.66699 3 7 9 7h31c5.33301 0 9.66602 -2.66699 12.999 -8l66 -100l78 100c4.66699 5.33301 9.66699 8 15 8h32c5.33301 0 8 -2.33301 8 -7z" />
    <glyph glyph-name="Gbreve" unicode="&#x11e;" horiz-adv-x="635" 
d="M590 580c0 -6 -3.00098 -10 -9.00098 -12l-32 -9c-1.33301 -0.666992 -3.33301 -1 -6 -1c-5.33301 0 -8.33301 2.33301 -9 7c-9.33301 41.333 -25.5 71.666 -48.5 90.999s-56.5 29 -100.5 29c-54.667 0 -101.167 -15.667 -139.5 -47s-62.833 -79.333 -73.5 -144l-40 -253
c-3.33301 -21.333 -5 -39 -5 -53c0 -94 51.333 -141 154 -141c52.667 0 97.167 13.5 133.5 40.5s58.5 67.5 66.5 121.5l18 110h-151c-7.33301 0 -10.333 3.66699 -9 11l5 33c1.33301 8 5.66602 12 12.999 12h198c8 0 11.333 -3.66699 10 -11l-26 -162
c-10.667 -66 -39.667 -117.833 -87 -155.5s-105.666 -56.5 -174.999 -56.5c-66 0 -117.667 16 -155 48s-56 79 -56 141c0 18.667 1.33301 36.334 4 53.001l43 269c12.667 78.667 43.834 138.5 93.501 179.5s110.167 61.5 181.5 61.5c56 0 101.167 -13.167 135.5 -39.5
s56.5 -65.833 66.5 -118.5v-4zM509.999 910c-2 -31.333 -14.167 -58.167 -36.5 -80.5s-51.166 -33.5 -86.499 -33.5c-34 0 -60.833 10.833 -80.5 32.5s-29.5 46.834 -29.5 75.501c0 10 3 15 9 15h28c2.66699 0 4.5 -1 5.5 -3s1.5 -5.66699 1.5 -11
c0 -16.667 5.83301 -31.834 17.5 -45.501s27.834 -20.5 48.501 -20.5c23.333 0 42.166 6.83301 56.499 20.5s22.166 30.5 23.499 50.5c0 6 2.66699 9 8 9h27c5.33301 0 8 -3 8 -9z" />
    <glyph glyph-name="gbreve" unicode="&#x11f;" 
d="M505.5 497.5c1 -2.33301 0.833008 -6.16992 -0.5 -11.5029l-75 -472c-12 -74 -39.167 -129.833 -81.5 -167.5s-94.166 -56.5 -155.499 -56.5c-37.333 0 -70.833 6.66699 -100.5 20s-54.167 31 -73.5 53c-2.66699 2.66699 -4 5.33398 -4 8.00098c0 1.33301 1.33301 4 4 8
l19 23c2.66699 2.66699 5.66699 4 9 4s6 -1.33301 8 -4c15.333 -17.333 34.5 -31.666 57.5 -42.999s49.167 -17 78.5 -17c47.333 0 87 14 119 42s53 73 63 135l15 98c-22.667 -35.333 -51.167 -64.666 -85.5 -87.999s-70.5 -35 -108.5 -35c-44 0 -78.167 13.5 -102.5 40.5
s-36.5 64.167 -36.5 111.5c0 17.333 1.33301 34 4 50l25 157c10 62 33.5 110.5 70.5 145.5s85.833 52.5 146.5 52.5c63.333 0 128.666 -15.333 195.999 -46c4.66699 -2.66699 7.5 -5.16699 8.5 -7.5zM444 467.996c-49.333 20.667 -96.6689 30.999 -142.002 30.999
s-81.666 -12.833 -108.999 -38.5s-44.666 -62.5 -51.999 -110.5l-24 -148c-2.66699 -16 -4 -32 -4 -48c0 -35.333 8 -62 24 -80s39.667 -27 71 -27c34 0 68.333 12.833 103 38.5s64.667 62.834 90 111.501zM436.997 724.995c-2 -31.333 -14.167 -58.167 -36.5 -80.5
s-51.166 -33.5 -86.499 -33.5c-34 0 -60.833 10.833 -80.5 32.5s-29.5 46.834 -29.5 75.501c0 10 3 15 9 15h28c2.66699 0 4.5 -1 5.5 -3s1.5 -5.66699 1.5 -11c0 -16.667 5.83301 -31.834 17.5 -45.501s27.834 -20.5 48.501 -20.5c23.333 0 42.166 6.83301 56.499 20.5
s22.166 30.5 23.499 50.5c0 6 2.66699 9 8 9h27c5.33301 0 8 -3 8 -9z" />
    <glyph glyph-name="Gdotaccent" unicode="&#x120;" horiz-adv-x="635" 
d="M590 580c0 -6 -3.00098 -10 -9.00098 -12l-32 -9c-1.33301 -0.666992 -3.33301 -1 -6 -1c-5.33301 0 -8.33301 2.33301 -9 7c-9.33301 41.333 -25.5 71.666 -48.5 90.999s-56.5 29 -100.5 29c-54.667 0 -101.167 -15.667 -139.5 -47s-62.833 -79.333 -73.5 -144l-40 -253
c-3.33301 -21.333 -5 -39 -5 -53c0 -94 51.333 -141 154 -141c52.667 0 97.167 13.5 133.5 40.5s58.5 67.5 66.5 121.5l18 110h-151c-7.33301 0 -10.333 3.66699 -9 11l5 33c1.33301 8 5.66602 12 12.999 12h198c8 0 11.333 -3.66699 10 -11l-26 -162
c-10.667 -66 -39.667 -117.833 -87 -155.5s-105.666 -56.5 -174.999 -56.5c-66 0 -117.667 16 -155 48s-56 79 -56 141c0 18.667 1.33301 36.334 4 53.001l43 269c12.667 78.667 43.834 138.5 93.501 179.5s110.167 61.5 181.5 61.5c56 0 101.167 -13.167 135.5 -39.5
s56.5 -65.833 66.5 -118.5v-4zM427.499 918c1.66699 -2 2.16602 -4.66699 1.49902 -8l-13 -82c-0.666992 -7.33301 -5 -11 -13 -11h-30c-7.33301 0 -10.666 3.66699 -9.99902 11l13 82c1.33301 7.33301 6 11 14 11h30c3.33301 0 5.83301 -1 7.5 -3z" />
    <glyph glyph-name="gdotaccent" unicode="&#x121;" 
d="M505.5 497.5c1 -2.33301 0.833008 -6.16992 -0.5 -11.5029l-75 -472c-12 -74 -39.167 -129.833 -81.5 -167.5s-94.166 -56.5 -155.499 -56.5c-37.333 0 -70.833 6.66699 -100.5 20s-54.167 31 -73.5 53c-2.66699 2.66699 -4 5.33398 -4 8.00098c0 1.33301 1.33301 4 4 8
l19 23c2.66699 2.66699 5.66699 4 9 4s6 -1.33301 8 -4c15.333 -17.333 34.5 -31.666 57.5 -42.999s49.167 -17 78.5 -17c47.333 0 87 14 119 42s53 73 63 135l15 98c-22.667 -35.333 -51.167 -64.666 -85.5 -87.999s-70.5 -35 -108.5 -35c-44 0 -78.167 13.5 -102.5 40.5
s-36.5 64.167 -36.5 111.5c0 17.333 1.33301 34 4 50l25 157c10 62 33.5 110.5 70.5 145.5s85.833 52.5 146.5 52.5c63.333 0 128.666 -15.333 195.999 -46c4.66699 -2.66699 7.5 -5.16699 8.5 -7.5zM444 467.996c-49.333 20.667 -96.6689 30.999 -142.002 30.999
s-81.666 -12.833 -108.999 -38.5s-44.666 -62.5 -51.999 -110.5l-24 -148c-2.66699 -16 -4 -32 -4 -48c0 -35.333 8 -62 24 -80s39.667 -27 71 -27c34 0 68.333 12.833 103 38.5s64.667 62.834 90 111.501zM354.497 732.995c1.66699 -2 2.16602 -4.66699 1.49902 -8l-13 -82
c-0.666992 -7.33301 -5 -11 -13 -11h-30c-7.33301 0 -10.666 3.66699 -9.99902 11l13 82c1.33301 7.33301 6 11 14 11h30c3.33301 0 5.83301 -1 7.5 -3z" />
    <glyph glyph-name="uni0122" unicode="&#x122;" horiz-adv-x="635" 
d="M590 580c0 -6 -3.00098 -10 -9.00098 -12l-32 -9c-1.33301 -0.666992 -3.33301 -1 -6 -1c-5.33301 0 -8.33301 2.33301 -9 7c-9.33301 41.333 -25.5 71.666 -48.5 90.999s-56.5 29 -100.5 29c-54.667 0 -101.167 -15.667 -139.5 -47s-62.833 -79.333 -73.5 -144l-40 -253
c-3.33301 -21.333 -5 -39 -5 -53c0 -94 51.333 -141 154 -141c52.667 0 97.167 13.5 133.5 40.5s58.5 67.5 66.5 121.5l18 110h-151c-7.33301 0 -10.333 3.66699 -9 11l5 33c1.33301 8 5.66602 12 12.999 12h198c8 0 11.333 -3.66699 10 -11l-26 -162
c-10.667 -66 -39.667 -117.833 -87 -155.5s-105.666 -56.5 -174.999 -56.5c-66 0 -117.667 16 -155 48s-56 79 -56 141c0 18.667 1.33301 36.334 4 53.001l43 269c12.667 78.667 43.834 138.5 93.501 179.5s110.167 61.5 181.5 61.5c56 0 101.167 -13.167 135.5 -39.5
s56.5 -65.833 66.5 -118.5v-4zM290.999 -73c-0.666992 -24.667 -4.83301 -52.168 -12.5 -82.501s-18.834 -57.5 -33.501 -81.5c-3.33301 -5.33301 -7.33301 -7 -12 -5l-24 13c-4.66699 2 -6 5.66699 -4 11c11.333 19.333 19.833 40.5 25.5 63.5s9.5 50.167 11.5 81.5
c0 2.66699 0.833008 4.83398 2.5 6.50098s3.83398 2.5 6.50098 2.5h31c6 0 9 -3 9 -9z" />
    <glyph glyph-name="uni0123" unicode="&#x123;" 
d="M282 620c0.666992 25.333 4.66699 53.0039 12 83.0039s18.666 57 33.999 81c0.666992 2.66699 2.16699 4.5 4.5 5.5s4.83301 0.833008 7.5 -0.5l24 -13c4.66699 -2.66699 5.66699 -6.33398 3 -11.001c-11.333 -18.667 -19.666 -39.334 -24.999 -62.001
s-9.33301 -50.334 -12 -83.001c0 -2.66699 -0.833008 -4.83398 -2.5 -6.50098s-3.5 -2.5 -5.5 -2.5h-31c-6 0 -9 3 -9 9zM505.5 497.504c1 -2.33301 0.833008 -6.16992 -0.5 -11.5029l-75 -472c-12 -74 -39.167 -129.833 -81.5 -167.5s-94.166 -56.5 -155.499 -56.5
c-37.333 0 -70.833 6.66699 -100.5 20s-54.167 31 -73.5 53c-2.66699 2.66699 -4 5.33398 -4 8.00098c0 1.33301 1.33301 4 4 8l19 23c2.66699 2.66699 5.66699 4 9 4s6 -1.33301 8 -4c15.333 -17.333 34.5 -31.666 57.5 -42.999s49.167 -17 78.5 -17c47.333 0 87 14 119 42
s53 73 63 135l15 98c-22.667 -35.333 -51.167 -64.666 -85.5 -87.999s-70.5 -35 -108.5 -35c-44 0 -78.167 13.5 -102.5 40.5s-36.5 64.167 -36.5 111.5c0 17.333 1.33301 34 4 50l25 157c10 62 33.5 110.5 70.5 145.5s85.833 52.5 146.5 52.5
c63.333 0 128.666 -15.333 195.999 -46c4.66699 -2.66699 7.5 -5.16699 8.5 -7.5zM444 468c-49.333 20.667 -96.6689 30.999 -142.002 30.999s-81.666 -12.833 -108.999 -38.5s-44.666 -62.5 -51.999 -110.5l-24 -148c-2.66699 -16 -4 -32 -4 -48c0 -35.333 8 -62 24 -80
s39.667 -27 71 -27c34 0 68.333 12.833 103 38.5s64.667 62.834 90 111.501z" />
    <glyph glyph-name="Hbar" unicode="&#x126;" horiz-adv-x="692" 
d="M704 569l-5 -26c-0.666992 -8 -4.66699 -12 -12 -12h-74l-83 -521c-1.33301 -6.66699 -5.33301 -10 -12 -10h-39c-7.33301 -0 -10.333 3.33301 -9 10l52 332h-344l-53 -332c-1.33301 -6.66699 -5.33301 -10 -12 -10h-39c-7.33301 -0 -10.333 3.33301 -9 10l82 521h-73
c-8 0 -11.333 3.66699 -10 11l5 26c1.33301 8 5.33301 12 12 12h74l22 142c2 6.66699 6.33301 10 13 10h39c7.33301 0 10.333 -3.33301 9 -10l-23 -142h345l22 142c2 6.66699 6.33301 10 13 10h39c7.33301 0 10.333 -3.33301 9 -10l-23 -142h74c8 0 11.333 -3.66699 10 -11z
M552 531h-344l-21 -131h344z" />
    <glyph glyph-name="hbar" unicode="&#x127;" horiz-adv-x="559" 
d="M450 519.5c23.333 -25 35 -58.5 35 -100.5c0 -15.333 -1.33301 -29.333 -4 -42l-58 -367c-0.666992 -6.66699 -4.66699 -10 -12 -10h-35c-8.66699 -0 -12.334 3.33301 -11.001 10l57 356c2.66699 13.333 4 27.666 4 42.999c0 62.667 -30.667 94 -92 94
c-31.333 0 -63.166 -12 -95.499 -36s-58.833 -55 -79.5 -93l-58 -364c-1.33301 -6.66699 -5.33301 -10 -12 -10h-37c-3.33301 0 -5.66602 1 -6.99902 3s-1.66602 4.33301 -0.999023 7l95 604h-47c-8 0 -11 3.66699 -9 11l3 25c1.33301 4.66699 2.83301 7.83398 4.5 9.50098
s4.5 2.5 8.5 2.5h48l13 85c2 6.66699 6.33301 10 13 10h36c7.33301 0 10.333 -3.33301 9 -10l-13 -85h137c7.33301 0 10.666 -3.66699 9.99902 -11l-4 -25c-0.666992 -8 -4.66699 -12 -12 -12h-139l-26 -160c23.333 30.667 50.666 55.5 81.999 74.5s64.333 28.5 99 28.5
c42 0 74.667 -12.5 98 -37.5z" />
    <glyph glyph-name="Imacron" unicode="&#x12a;" horiz-adv-x="267" 
d="M228 722l-113 -712c-1.33301 -6.66699 -5.33301 -10 -12 -10h-39c-7.33301 -0 -10.333 3.33301 -9 10l113 712c1.33301 6.66699 5.33301 10 12 10h39c7.33301 0 10.333 -3.33301 9 -10zM347 870l-4 -27c-0.666992 -8 -4.66699 -12 -12 -12h-232
c-6.66699 0 -9.66699 3.66699 -9 11l5 28c1.33301 7.33301 5 11 11 11h233c7.33301 0 10 -3.66699 8 -11z" />
    <glyph glyph-name="imacron" unicode="&#x12b;" horiz-adv-x="241" 
d="M184 537l-84 -527c-1.33301 -6.66699 -5.33301 -10 -12 -10h-36c-7.33301 -0 -10.333 3.33301 -9 10l84 527c1.33301 6.66699 5.33301 10 12 10h36c7.33301 0 10.333 -3.33301 9 -10zM306 685l-5 -27c-0.666992 -8 -4.33398 -12 -11.001 -12h-232
c-4 0 -6.66699 0.833008 -8 2.5s-1.66602 4.5 -0.999023 8.5l4 28c1.33301 7.33301 5.33301 11 12 11h232c6.66699 0 9.66699 -3.66699 9 -11z" />
    <glyph glyph-name="Iogonek" unicode="&#x12e;" horiz-adv-x="268" 
d="M229 722l-113 -712c-1.33301 -6.66699 -5.33301 -10 -12 -10c-28.667 -10 -53.5 -25.5 -74.5 -46.5s-31.5 -43.833 -31.5 -68.5c0 -15.333 4.5 -27.833 13.5 -37.5s21.167 -14.5 36.5 -14.5c8.66699 0 18 1.66699 28 5l4 1c3.33301 0 5.66602 -1.66699 6.99902 -5l6 -25
v-2c0 -4 -1.66699 -7 -5 -9c-12 -7.33301 -27.333 -11 -46 -11c-28 0 -50.667 8.66699 -68 26s-24.666 40 -21.999 68c1.33301 27.333 11.5 52.333 30.5 75s43.833 42 74.5 58l112 708c1.33301 6.66699 5.33301 10 12 10h39c7.33301 0 10.333 -3.33301 9 -10z" />
    <glyph glyph-name="iogonek" unicode="&#x12f;" horiz-adv-x="241" 
d="M218 745l-16.001 -97c-1.33301 -7.33301 -5.66602 -11 -12.999 -11h-35c-8 0 -11.333 3.66699 -10 11l16 97c1.33301 8 6 12 14 12h34c8 0 11.333 -4 10 -12zM184.999 537l-84 -527c-1.33301 -6 -4.66602 -9.33301 -9.99902 -10c-28.667 -10 -53.5 -25.5 -74.5 -46.5
s-31.5 -43.833 -31.5 -68.5c0 -15.333 4.5 -27.833 13.5 -37.5s21.167 -14.5 36.5 -14.5c8.66699 0 18 1.66699 28 5l4 1c3.33301 0 5.66602 -1.66699 6.99902 -5l6 -25v-2c0 -4 -1.66699 -7 -5 -9c-12 -7.33301 -27.333 -11 -46 -11c-26.667 0 -48.5 7.83301 -65.5 23.5
s-25.5 36.5 -25.5 62.5c0 30 9.5 57 28.5 81s45.167 44 78.5 60l82 523c2 6.66699 6.33301 10 13 10h36c7.33301 0 10.333 -3.33301 9 -10z" />
    <glyph glyph-name="Idotaccent" unicode="&#x130;" horiz-adv-x="267" 
d="M228 722l-113 -712c-1.33301 -6.66699 -5.33301 -10 -12 -10h-39c-7.33301 -0 -10.333 3.33301 -9 10l113 712c1.33301 6.66699 5.33301 10 12 10h39c7.33301 0 10.333 -3.33301 9 -10zM251.5 918c1.66699 -2 2.16602 -4.66699 1.49902 -8l-13 -82
c-0.666992 -7.33301 -5 -11 -13 -11h-30c-7.33301 0 -10.666 3.66699 -9.99902 11l13 82c1.33301 7.33301 6 11 14 11h30c3.33301 0 5.83301 -1 7.5 -3z" />
    <glyph glyph-name="dotlessi" unicode="&#x131;" horiz-adv-x="240" 
d="M184 537l-84 -527c-1.33301 -6.66699 -5.33301 -10 -12 -10h-36c-7.33301 -0 -10.333 3.33301 -9 10l84 527c1.33301 6.66699 5.33301 10 12 10h36c7.33301 0 10.333 -3.33301 9 -10z" />
    <glyph glyph-name="IJ" unicode="&#x132;" horiz-adv-x="663" 
d="M137.5 38.5c-37 32.333 -55.4971 78.5 -55.4971 138.5c0 19.333 1.33301 37.333 4 54l7 45c1.33301 6.66699 5.33301 10 12 10h39c7.33301 0 10.333 -3.33301 9 -10l-7 -44c-2.66699 -16 -4 -32.333 -4 -49c0 -46.667 13.167 -81 39.5 -103s62.166 -33 107.499 -33
c53.333 0 97.666 15 132.999 45s58 76.667 68 140l78 490c1.33301 6.66699 5.33301 10 12 10h39c7.33301 0 10.333 -3.33301 9 -10l-79 -497c-12 -78 -41.333 -136.667 -88 -176s-105.334 -59 -176.001 -59c-61.333 0 -110.5 16.167 -147.5 48.5zM111.003 388l53 334
c1.33301 6.66699 5.33301 10 12 10h39c7.33301 0 10.333 -3.33301 9 -10l-53 -334c-0.666992 -6.66699 -4.66699 -10 -12 -10h-40c-7.33301 0 -10 3.33301 -8 10z" />
    <glyph glyph-name="ij" unicode="&#x133;" horiz-adv-x="479" 
d="M217 745l-16.001 -97c-1.33301 -7.33301 -5.66602 -11 -12.999 -11h-35c-3.33301 0 -5.83301 1 -7.5 3s-2.16699 4.66699 -1.5 8l15 97c2 8 6.66699 12 14 12h34c8 0 11.333 -4 10 -12zM183.999 537l-84 -527c-1.33301 -6.66699 -5.33301 -10 -12 -10h-36
c-7.33301 -0 -10.333 3.33301 -9 10l84 527c1.33301 6.66699 5.33301 10 12 10h36c7.33301 0 10.333 -3.33301 9 -10zM456.999 745l-16 -97c-1.33301 -7.33301 -6 -11 -14 -11h-32c-9.33301 0 -13 3.66699 -11 11l15 97c1.33301 4 3 7 5 9s5.33301 3 10 3h33
c8 0 11.333 -4 10 -12zM421.499 544c1.66699 -2 2.16602 -4.33301 1.49902 -7l-79 -506c-9.33301 -59.333 -25.166 -106.166 -47.499 -140.499s-53.833 -66.833 -94.5 -97.5c-2.66699 -2.66699 -5.66699 -4 -9 -4s-6.33301 1.66699 -9 5l-19 21c-2.66699 4 -4 6.33301 -4 7
c0 2.66699 2 5.66699 6 9c26 21.333 45.833 39.333 59.5 54s25.667 33.667 36 57s18.5 53.666 24.5 90.999l79 504c1.33301 6.66699 5.33301 10 12 10h36c3.33301 0 5.83301 -1 7.5 -3z" />
    <glyph glyph-name="uni0136" unicode="&#x136;" horiz-adv-x="587" 
d="M603.5 730c1.66699 -1.33301 2.5 -2.99805 2.5 -4.99805c0 -2.66699 -1.33301 -5.33398 -4 -8.00098l-278 -293l173 -409c0.666992 -1.33301 1 -3.33301 1 -6c0 -6 -3 -9 -9 -9h-41c-4.66699 0 -7.83398 0.666992 -9.50098 2s-3.5 3.66602 -5.5 6.99902l-154 368
l-127 -133l-37 -234c-1.33301 -6.66699 -5.33301 -10 -12 -10h-39c-7.33301 -0 -10.333 3.33301 -9 10l113 712c1.33301 6.66699 5.33301 10 12 10h39c7.33301 0 10.333 -3.33301 9 -10l-60 -382l364 384c5.33301 5.33301 11 8 17 8h48
c2.66699 0 4.83398 -0.666992 6.50098 -2zM264 -72.998c-0.666992 -24.667 -4.83301 -52.168 -12.5 -82.501s-18.834 -57.5 -33.501 -81.5c-3.33301 -5.33301 -7.33301 -7 -12 -5l-24 13c-4.66699 2 -6 5.66699 -4 11c11.333 19.333 19.833 40.5 25.5 63.5
s9.5 50.167 11.5 81.5c0 2.66699 0.833008 4.83398 2.5 6.50098s3.83398 2.5 6.50098 2.5h31c6 0 9 -3 9 -9z" />
    <glyph glyph-name="uni0137" unicode="&#x137;" horiz-adv-x="500" 
d="M492 541c0 -3.33301 -1.33301 -6.33301 -4 -9l-204 -205l134 -311c0.666992 -1.33301 1 -3.33301 1 -6s-1 -5 -3 -7s-4.33301 -3 -7 -3h-36c-4 0 -7 0.666992 -9 2s-3.66699 4 -5 8l-117 275l-116 -116l-26 -159c-1.33301 -6.66699 -5.33301 -10 -12 -10h-36
c-7.33301 -0 -10.333 3.33301 -9 10l117 737c1.33301 6.66699 5.33301 10 12 10h36c7.33301 0 10.333 -3.33301 9 -10l-78 -493l281 283c4 3.33301 7.33301 5.83301 10 7.5s6 2.5 10 2.5h45c4.66699 0 7 -2 7 -6zM226 -73c-0.666992 -24.667 -4.83301 -52.168 -12.5 -82.501
s-18.834 -57.5 -33.501 -81.5c-3.33301 -5.33301 -7.33301 -7 -12 -5l-24 13c-4.66699 2 -6 5.66699 -4 11c11.333 19.333 19.833 40.5 25.5 63.5s9.5 50.167 11.5 81.5c0 2.66699 0.833008 4.83398 2.5 6.50098s3.83398 2.5 6.50098 2.5h31c6 0 9 -3 9 -9z" />
    <glyph glyph-name="Lacute" unicode="&#x139;" horiz-adv-x="497" 
d="M228 722l-104.999 -665h300c6.66699 0 9.66699 -3.66699 9 -11l-6 -34c-0.666992 -8 -5 -12 -13 -12h-347c-8.66699 0 -12.334 3.66699 -11.001 11l113 711c1.33301 6.66699 5.33301 10 12 10h39c7.33301 0 10.333 -3.33301 9 -10zM167.001 802
c-1.33301 2.66699 -0.666992 5.33398 2 8.00098l98 124c3.33301 5.33301 7.66602 8 12.999 8h41c3.33301 0 5.5 -1.33301 6.5 -4s0.5 -5.33398 -1.5 -8.00098l-106 -125c-2.66699 -2 -5.16699 -3.66699 -7.5 -5s-5.5 -2 -9.5 -2h-29c-3.33301 0 -5.66602 1.33301 -6.99902 4
z" />
    <glyph glyph-name="lacute" unicode="&#x13a;" horiz-adv-x="240" 
d="M217 747l-117 -737c-1.33301 -6.66699 -5.33301 -10 -12 -10h-36c-7.33301 -0 -10.333 3.33301 -9 10l117 737c1.33301 6.66699 5.33301 10 12 10h36c7.33301 0 10.333 -3.33301 9 -10zM154 798c-1.33301 2.66699 -0.666992 5.33398 2 8.00098l98 124
c3.33301 5.33301 7.66602 8 12.999 8h41c3.33301 0 5.5 -1.33301 6.5 -4s0.5 -5.33398 -1.5 -8.00098l-106 -125c-2.66699 -2 -5.16699 -3.66699 -7.5 -5s-5.5 -2 -9.5 -2h-29c-3.33301 0 -5.66602 1.33301 -6.99902 4z" />
    <glyph glyph-name="uni013B" unicode="&#x13b;" horiz-adv-x="497" 
d="M228 722l-104.999 -665h300c6.66699 0 9.66699 -3.66699 9 -11l-6 -34c-0.666992 -8 -5 -12 -13 -12h-347c-8.66699 0 -12.334 3.66699 -11.001 11l113 711c1.33301 6.66699 5.33301 10 12 10h39c7.33301 0 10.333 -3.33301 9 -10zM234.001 -73
c-0.666992 -24.667 -4.83301 -52.168 -12.5 -82.501s-18.834 -57.5 -33.501 -81.5c-3.33301 -5.33301 -7.33301 -7 -12 -5l-24 13c-4.66699 2 -6 5.66699 -4 11c11.333 19.333 19.833 40.5 25.5 63.5s9.5 50.167 11.5 81.5c0 2.66699 0.833008 4.83398 2.5 6.50098
s3.83398 2.5 6.50098 2.5h31c6 0 9 -3 9 -9z" />
    <glyph glyph-name="uni013C" unicode="&#x13c;" horiz-adv-x="240" 
d="M217 747l-117 -737c-1.33301 -6.66699 -5.33301 -10 -12 -10h-36c-7.33301 -0 -10.333 3.33301 -9 10l117 737c1.33301 6.66699 5.33301 10 12 10h36c7.33301 0 10.333 -3.33301 9 -10zM88 -73c-0.666992 -24.667 -4.83301 -52.168 -12.5 -82.501
s-18.834 -57.5 -33.501 -81.5c-3.33301 -5.33301 -7.33301 -7 -12 -5l-24 13c-4.66699 2 -6 5.66699 -4 11c11.333 19.333 19.833 40.5 25.5 63.5s9.5 50.167 11.5 81.5c0 2.66699 0.833008 4.83398 2.5 6.50098s3.83398 2.5 6.50098 2.5h31c6 0 9 -3 9 -9z" />
    <glyph glyph-name="Lcaron" unicode="&#x13d;" horiz-adv-x="499" 
d="M228 722l-104.999 -665h300c6.66699 0 9.66699 -3.66699 9 -11l-6 -34c-0.666992 -8 -5 -12 -13 -12h-347c-8.66699 0 -12.334 3.66699 -11.001 11l113 711c1.33301 6.66699 5.33301 10 12 10h39c7.33301 0 10.333 -3.33301 9 -10zM344.001 567
c10.667 22 18.998 45.334 24.998 70.001s10 53 12 85c0 2.66699 0.833008 5 2.5 7s3.83398 3 6.50098 3h34c2.66699 0 4.83398 -0.833008 6.50098 -2.5s2.5 -3.83398 2.5 -6.50098c-0.666992 -26 -4.83398 -55.333 -12.501 -88s-19.5 -61.667 -35.5 -87
c-1.33301 -2.66699 -3.16602 -4.5 -5.49902 -5.5s-4.83301 -0.833008 -7.5 0.5l-25 11c-5.33301 2 -6.33301 6.33301 -3 13z" />
    <glyph glyph-name="lcaron" unicode="&#x13e;" horiz-adv-x="256" 
d="M217 747l-117 -737c-1.33301 -6.66699 -5.33301 -10 -12 -10h-36c-7.33301 -0 -10.333 3.33301 -9 10l117 737c1.33301 6.66699 5.33301 10 12 10h36c7.33301 0 10.333 -3.33301 9 -10zM254 592c10.667 22 18.998 45.334 24.998 70.001s10 53 12 85
c0 2.66699 0.833008 5 2.5 7s3.83398 3 6.50098 3h34c2.66699 0 4.83398 -0.833008 6.50098 -2.5s2.5 -3.83398 2.5 -6.50098c-0.666992 -26 -4.83398 -55.333 -12.501 -88s-19.5 -61.667 -35.5 -87c-1.33301 -2.66699 -3.16602 -4.5 -5.49902 -5.5
s-4.83301 -0.833008 -7.5 0.5l-25 11c-5.33301 2 -6.33301 6.33301 -3 13z" />
    <glyph glyph-name="Ldot" unicode="&#x13f;" horiz-adv-x="498" 
d="M228 722l-104.999 -665h300c6.66699 0 9.66699 -3.66699 9 -11l-6 -34c-0.666992 -8 -5 -12 -13 -12h-347c-8.66699 0 -12.334 3.66699 -11.001 11l113 711c1.33301 6.66699 5.33301 10 12 10h39c7.33301 0 10.333 -3.33301 9 -10zM411.001 482l-25 -157
c-1.33301 -7.33301 -5.66602 -11 -12.999 -11h-36c-8 0 -11.333 3.66699 -10 11l25 157c1.33301 7.33301 5.66602 11 12.999 11h36c8 0 11.333 -3.66699 10 -11z" />
    <glyph glyph-name="ldot" unicode="&#x140;" horiz-adv-x="309" 
d="M217 747l-117 -737c-1.33301 -6.66699 -5.33301 -10 -12 -10h-36c-7.33301 -0 -10.333 3.33301 -9 10l117 737c1.33301 6.66699 5.33301 10 12 10h36c7.33301 0 10.333 -3.33301 9 -10zM326 463l-25 -157c-1.33301 -7.33301 -5.66602 -11 -12.999 -11h-36
c-8 0 -11.333 3.66699 -10 11l25 157c1.33301 7.33301 5.66602 11 12.999 11h36c8 0 11.333 -3.66699 10 -11z" />
    <glyph glyph-name="Lslash" unicode="&#x141;" horiz-adv-x="505" 
d="M439 46l-5.99902 -34c-0.666992 -8 -4.66699 -12 -12 -12h-348c-3.33301 0 -6.16602 1 -8.49902 3s-3.16602 4.66699 -2.49902 8l50 315l-68 -36c-1.33301 -0.666992 -3 -1 -5 -1c-3.33301 0 -5.83301 1 -7.5 3s-2.16699 4.33301 -1.5 7l5 32
c0.666992 3.33301 1.66699 6 3 8s3.66602 4 6.99902 6l77 41l53 336c0.666992 2.66699 2 5 4 7s4.66699 3 8 3h40c3.33301 0 5.66602 -1 6.99902 -3s1.66602 -4.33301 0.999023 -7l-48 -305l107 56c1.33301 0.666992 3 1 5 1c2.66699 0 5 -1 7 -3s2.66699 -4.33301 2 -7
l-5 -31c-0.666992 -4 -1.66699 -7 -3 -9s-4 -4 -8 -6l-115 -61l-47 -300h300c6.66699 0 9.66699 -3.66699 9 -11z" />
    <glyph glyph-name="lslash" unicode="&#x142;" horiz-adv-x="299" 
d="M279 468c2.66699 0 4.83301 -0.999023 6.5 -2.99902s2.16699 -4.33301 1.5 -7l-5 -31c-0.666992 -6.66699 -3.66699 -11.334 -9 -14.001l-87 -47l-57 -356c-0.666992 -2.66699 -2 -5 -4 -7s-4.66699 -3 -8 -3h-37c-7.33301 -0 -10.333 3.33301 -9 10l52 326l-78 -41
c-1.33301 -0.666992 -3.33301 -1 -6 -1c-3.33301 0 -5.83301 1 -7.5 3s-2.16699 4.33301 -1.5 7l5 31c0.666992 6 3.66699 10.667 9 14l88 47l56 351c1.33301 6.66699 5.33301 10 12 10h37c3.33301 0 5.83301 -1 7.5 -3s2.16699 -4.33301 1.5 -7l-51 -321l78 41
c1.33301 0.666992 3.33301 1 6 1z" />
    <glyph glyph-name="Nacute" unicode="&#x143;" horiz-adv-x="682" 
d="M641 729c1.33301 -2 1.66895 -4.33203 1.00195 -6.99902l-112 -710c-0.666992 -8 -5.66699 -12 -15 -12h-53c-8 0 -13.333 3.33301 -16 10l-165 461l-35 106l-30 90h-1c-8 -61.333 -16.667 -123 -26 -185l-75 -472c-0.666992 -2.66699 -2 -5 -4 -7s-4.66699 -3 -8 -3h-38
c-7.33301 0 -10.333 3.33301 -9 10l112 710c1.33301 8 6.33301 12 15 12h57c8 0 13.333 -3.33301 16 -10l164 -460c13.333 -37.333 34.666 -101.333 63.999 -192h2c6.66699 61.333 15 123.666 25 186.999l74 465c1.33301 6.66699 5.33301 10 12 10h38
c3.33301 0 5.66602 -1 6.99902 -3zM364.003 802.001c-1.33301 2.66699 -0.666992 5.33398 2 8.00098l98 124c3.33301 5.33301 7.66602 8 12.999 8h41c3.33301 0 5.5 -1.33301 6.5 -4s0.5 -5.33398 -1.5 -8.00098l-106 -125c-2.66699 -2 -5.16699 -3.66699 -7.5 -5
s-5.5 -2 -9.5 -2h-29c-3.33301 0 -5.66602 1.33301 -6.99902 4z" />
    <glyph glyph-name="nacute" unicode="&#x144;" horiz-adv-x="558" 
d="M449.5 519.5c23 -25 34.5 -58.499 34.5 -100.499c0 -15.333 -1.33301 -29.333 -4 -42l-58 -367c-0.666992 -6.66699 -4.66699 -10 -12 -10h-35c-4 0 -6.83301 1 -8.5 3s-2.16699 4.33301 -1.5 7l56 356c2.66699 13.333 4 27.666 4 42.999c0 62.667 -30.667 94 -92 94
c-30.667 0 -62.334 -12 -95.001 -36s-59.334 -55 -80.001 -93l-58 -364c-0.666992 -6.66699 -4.66699 -10 -12 -10h-35c-8 -0 -11.333 3.33301 -10 10l84 527c1.33301 6.66699 5.33301 10 12 10h35c7.33301 0 10.333 -3.33301 9 -10l-13 -84
c22.667 31.333 49.834 56.5 81.501 75.5s64.834 28.5 99.501 28.5c42.667 0 75.5 -12.5 98.5 -37.5zM281 617.001c-1.33301 2.66699 -0.666992 5.33398 2 8.00098l98 124c3.33301 5.33301 7.66602 8 12.999 8h41c3.33301 0 5.5 -1.33301 6.5 -4s0.5 -5.33398 -1.5 -8.00098
l-106 -125c-2.66699 -2 -5.16699 -3.66699 -7.5 -5s-5.5 -2 -9.5 -2h-29c-3.33301 0 -5.66602 1.33301 -6.99902 4z" />
    <glyph glyph-name="uni0145" unicode="&#x145;" horiz-adv-x="682" 
d="M641 729c1.33301 -2 1.66895 -4.33203 1.00195 -6.99902l-112 -710c-0.666992 -8 -5.66699 -12 -15 -12h-53c-8 0 -13.333 3.33301 -16 10l-165 461l-35 106l-30 90h-1c-8 -61.333 -16.667 -123 -26 -185l-75 -472c-0.666992 -2.66699 -2 -5 -4 -7s-4.66699 -3 -8 -3h-38
c-7.33301 0 -10.333 3.33301 -9 10l112 710c1.33301 8 6.33301 12 15 12h57c8 0 13.333 -3.33301 16 -10l164 -460c13.333 -37.333 34.666 -101.333 63.999 -192h2c6.66699 61.333 15 123.666 25 186.999l74 465c1.33301 6.66699 5.33301 10 12 10h38
c3.33301 0 5.66602 -1 6.99902 -3zM305.003 -72.999c-0.666992 -24.667 -4.83301 -52.168 -12.5 -82.501s-18.834 -57.5 -33.501 -81.5c-3.33301 -5.33301 -7.33301 -7 -12 -5l-24 13c-4.66699 2 -6 5.66699 -4 11c11.333 19.333 19.833 40.5 25.5 63.5
s9.5 50.167 11.5 81.5c0 2.66699 0.833008 4.83398 2.5 6.50098s3.83398 2.5 6.50098 2.5h31c6 0 9 -3 9 -9z" />
    <glyph glyph-name="uni0146" unicode="&#x146;" horiz-adv-x="558" 
d="M449.5 519.5c23 -25 34.5 -58.499 34.5 -100.499c0 -15.333 -1.33301 -29.333 -4 -42l-58 -367c-0.666992 -6.66699 -4.66699 -10 -12 -10h-35c-4 0 -6.83301 1 -8.5 3s-2.16699 4.33301 -1.5 7l56 356c2.66699 13.333 4 27.666 4 42.999c0 62.667 -30.667 94 -92 94
c-30.667 0 -62.334 -12 -95.001 -36s-59.334 -55 -80.001 -93l-58 -364c-0.666992 -6.66699 -4.66699 -10 -12 -10h-35c-8 -0 -11.333 3.33301 -10 10l84 527c1.33301 6.66699 5.33301 10 12 10h35c7.33301 0 10.333 -3.33301 9 -10l-13 -84
c22.667 31.333 49.834 56.5 81.501 75.5s64.834 28.5 99.501 28.5c42.667 0 75.5 -12.5 98.5 -37.5zM250 -72.999c-0.666992 -24.667 -4.83301 -52.168 -12.5 -82.501s-18.834 -57.5 -33.501 -81.5c-3.33301 -5.33301 -7.33301 -7 -12 -5l-24 13
c-4.66699 2 -6 5.66699 -4 11c11.333 19.333 19.833 40.5 25.5 63.5s9.5 50.167 11.5 81.5c0 2.66699 0.833008 4.83398 2.5 6.50098s3.83398 2.5 6.50098 2.5h31c6 0 9 -3 9 -9z" />
    <glyph glyph-name="Ncaron" unicode="&#x147;" horiz-adv-x="682" 
d="M641 729c1.33301 -2 1.66895 -4.33203 1.00195 -6.99902l-112 -710c-0.666992 -8 -5.66699 -12 -15 -12h-53c-8 0 -13.333 3.33301 -16 10l-165 461l-35 106l-30 90h-1c-8 -61.333 -16.667 -123 -26 -185l-75 -472c-0.666992 -2.66699 -2 -5 -4 -7s-4.66699 -3 -8 -3h-38
c-7.33301 0 -10.333 3.33301 -9 10l112 710c1.33301 8 6.33301 12 15 12h57c8 0 13.333 -3.33301 16 -10l164 -460c13.333 -37.333 34.666 -101.333 63.999 -192h2c6.66699 61.333 15 123.666 25 186.999l74 465c1.33301 6.66699 5.33301 10 12 10h38
c3.33301 0 5.66602 -1 6.99902 -3zM548.003 934.001c0 -2.66699 -1.33203 -5.66699 -3.99902 -9l-99 -120c-2 -2.66699 -4 -4.66699 -6 -6s-4.66699 -2 -8 -2h-37c-3.33301 0 -5.83301 0.5 -7.5 1.5s-3.5 3.16699 -5.5 6.5l-81 120c-2.66699 3.33301 -4 6.33301 -4 9
c0 4.66699 3 7 9 7h31c5.33301 0 9.66602 -2.66699 12.999 -8l66 -100l78 100c4.66699 5.33301 9.66699 8 15 8h32c5.33301 0 8 -2.33301 8 -7z" />
    <glyph glyph-name="ncaron" unicode="&#x148;" horiz-adv-x="558" 
d="M449.5 519.5c23 -25 34.5 -58.499 34.5 -100.499c0 -15.333 -1.33301 -29.333 -4 -42l-58 -367c-0.666992 -6.66699 -4.66699 -10 -12 -10h-35c-4 0 -6.83301 1 -8.5 3s-2.16699 4.33301 -1.5 7l56 356c2.66699 13.333 4 27.666 4 42.999c0 62.667 -30.667 94 -92 94
c-30.667 0 -62.334 -12 -95.001 -36s-59.334 -55 -80.001 -93l-58 -364c-0.666992 -6.66699 -4.66699 -10 -12 -10h-35c-8 -0 -11.333 3.33301 -10 10l84 527c1.33301 6.66699 5.33301 10 12 10h35c7.33301 0 10.333 -3.33301 9 -10l-13 -84
c22.667 31.333 49.834 56.5 81.501 75.5s64.834 28.5 99.501 28.5c42.667 0 75.5 -12.5 98.5 -37.5zM465 749.001c0 -2.66699 -1.33203 -5.66699 -3.99902 -9l-99 -120c-2 -2.66699 -4 -4.66699 -6 -6s-4.66699 -2 -8 -2h-37c-3.33301 0 -5.83301 0.5 -7.5 1.5
s-3.5 3.16699 -5.5 6.5l-81 120c-2.66699 3.33301 -4 6.33301 -4 9c0 4.66699 3 7 9 7h31c5.33301 0 9.66602 -2.66699 12.999 -8l66 -100l78 100c4.66699 5.33301 9.66699 8 15 8h32c5.33301 0 8 -2.33301 8 -7z" />
    <glyph glyph-name="Eng" unicode="&#x14a;" horiz-adv-x="682" 
d="M641 729c1.33301 -2 1.66992 -4.33301 1.00293 -7l-116 -734c-10.667 -66 -32.667 -115.5 -66 -148.5s-75 -49.5 -125 -49.5c-32.667 0 -61.667 6.83301 -87 20.5s-45.666 30.834 -60.999 51.501c-3.33301 5.33301 -5 9.66602 -5 12.999c0 2.66699 2 5.66699 6 9l24 22
c4.66699 2.66699 8 4 10 4c3.33301 0 6.66602 -2.66699 9.99902 -8c28 -36.667 62.667 -55 104 -55c33.333 0 60.666 10.333 81.999 31s36.333 52 45 94l-181 503c-8.66699 22 -22.334 61.333 -41.001 118c-10.667 33.333 -19 58.333 -25 75h-1
c-8 -64.667 -16.667 -126.667 -26 -186l-75 -472c-0.666992 -2.66699 -2 -5 -4 -7s-4.66699 -3 -8 -3h-38c-7.33301 -0 -10.333 3.33301 -9 10l112 710c1.33301 8 6.33301 12 15 12h57c8 0 13.333 -3.33301 16 -10l165 -456l51 -152c2 -8 4.16699 -15.333 6.5 -22l6.5 -18h1
c6 51.333 14.333 112.333 25 183l74 465c1.33301 6.66699 5.33301 10 12 10h38c3.33301 0 5.66602 -1 6.99902 -3z" />
    <glyph glyph-name="eng" unicode="&#x14b;" horiz-adv-x="558" 
d="M449.5 519.5c23 -25 34.499 -58.499 34.499 -100.499c0 -15.333 -1.33301 -29.333 -4 -42l-54 -346c-9.33301 -59.333 -25.166 -106.166 -47.499 -140.499s-53.833 -66.833 -94.5 -97.5c-2.66699 -2.66699 -5.66699 -4 -9 -4s-6.33301 1.66699 -9 5l-19 21
c-2.66699 4 -4 6.66699 -4 8c0 2 1.66699 4.66699 5 8c26 21.333 46 39.333 60 54s26 33.667 36 57s18 53.666 24 90.999l53 333c2.66699 13.333 4 27.666 4 42.999c0 62.667 -30.667 94 -92 94c-30.667 0 -62.334 -12 -95.001 -36s-59.334 -55 -80.001 -93l-58 -364
c-0.666992 -6.66699 -4.66699 -10 -12 -10h-35c-8 -0 -11.333 3.33301 -10 10l84 527c1.33301 6.66699 5.33301 10 12 10h35c7.33301 0 10.333 -3.33301 9 -10l-13 -84c22.667 31.333 49.834 56.5 81.501 75.5s64.834 28.5 99.501 28.5c42.667 0 75.5 -12.5 98.5 -37.5z" />
    <glyph glyph-name="Omacron" unicode="&#x14c;" horiz-adv-x="652" 
d="M544.5 693c38.333 -32.667 57.501 -80 57.501 -142c0 -14.667 -1.66699 -32 -5 -52l-42 -267c-12 -79.333 -42.333 -139.5 -91 -180.5s-110.334 -61.5 -185.001 -61.5c-66 0 -118 16 -156 48s-57 78.667 -57 140c0 14.667 1.66699 32.667 5 54l42 267
c13.333 80 44 140.5 92 181.5s109 61.5 183 61.5c66 0 118.167 -16.333 156.5 -49zM243.001 638c-36.667 -31.333 -60 -79.333 -70 -144l-42 -267c-3.33301 -18 -5 -33.333 -5 -46c0 -45.333 13.5 -79 40.5 -101s65.167 -33 114.5 -33c58.667 0 106.667 15.667 144 47
s61 79 71 143l42 267c2.66699 18.667 4 33.667 4 45c0 45.333 -13.667 79.333 -41 102s-65.666 34 -114.999 34c-58.667 0 -106.334 -15.667 -143.001 -47zM534.001 870l-4 -27c-0.666992 -8 -4.66699 -12 -12 -12h-232c-6.66699 0 -9.66699 3.66699 -9 11l5 28
c1.33301 7.33301 5 11 11 11h233c7.33301 0 10 -3.66699 8 -11z" />
    <glyph glyph-name="omacron" unicode="&#x14d;" horiz-adv-x="561" 
d="M446.5 512.5c32.333 -29.667 48.499 -69.167 48.499 -118.5c0 -12.667 -1.33301 -27.667 -4 -45l-25 -158c-10 -64 -35 -113.5 -75 -148.5s-92.333 -52.5 -157 -52.5c-56.667 0 -101 14.5 -133 43.5s-48 68.167 -48 117.5c0 10 1.33301 25 4 45l26 160
c9.33301 64 33.833 113.5 73.5 148.5s91.834 52.5 156.501 52.5c56.667 0 101.167 -14.833 133.5 -44.5zM195.499 463.5c-30.333 -26.333 -49.5 -65.167 -57.5 -116.5l-23 -149c-2.66699 -16 -4 -29.333 -4 -40c0 -37.333 11.167 -65.833 33.5 -85.5
s53.166 -29.5 92.499 -29.5c46 0 84.167 13 114.5 39s49.5 64.333 57.5 115l23 144c3.33301 16.667 5 32 5 46c0 37.333 -11.167 66 -33.5 86s-53.166 30 -92.499 30c-46.667 0 -85.167 -13.167 -115.5 -39.5zM462.999 684.999l-4 -27c-0.666992 -8 -4.66699 -12 -12 -12
h-232c-6.66699 0 -9.66699 3.66699 -9 11l5 28c1.33301 7.33301 5 11 11 11h233c7.33301 0 10 -3.66699 8 -11z" />
    <glyph glyph-name="Ohungarumlaut" unicode="&#x150;" horiz-adv-x="652" 
d="M544.5 693c38.333 -32.667 57.501 -80 57.501 -142c0 -14.667 -1.66699 -32 -5 -52l-42 -267c-12 -79.333 -42.333 -139.5 -91 -180.5s-110.334 -61.5 -185.001 -61.5c-66 0 -118 16 -156 48s-57 78.667 -57 140c0 14.667 1.66699 32.667 5 54l42 267
c13.333 80 44 140.5 92 181.5s109 61.5 183 61.5c66 0 118.167 -16.333 156.5 -49zM243.001 638c-36.667 -31.333 -60 -79.333 -70 -144l-42 -267c-3.33301 -18 -5 -33.333 -5 -46c0 -45.333 13.5 -79 40.5 -101s65.167 -33 114.5 -33c58.667 0 106.667 15.667 144 47
s61 79 71 143l42 267c2.66699 18.667 4 33.667 4 45c0 45.333 -13.667 79.333 -41 102s-65.666 34 -114.999 34c-58.667 0 -106.334 -15.667 -143.001 -47zM427.001 810c-1.33301 -1.33301 -2.00098 -3.33398 -2.00098 -6.00098c0 -1.33301 0.666992 -2.66602 2 -3.99902
s3 -2 5 -2h29c4 0 7.16699 0.666992 9.5 2s4.83301 3 7.5 5l106 125l2 5c0 4.66699 -2.33301 7 -7 7h-41c-5.33301 0 -9.66602 -2.66699 -12.999 -8zM294 809.999c-1.33301 -1.33301 -2.00098 -3.33398 -2.00098 -6.00098c0 -1.33301 0.666992 -2.66602 2 -3.99902
s3 -2 5 -2h29c4 0 7.16699 0.666992 9.5 2s4.83301 3 7.5 5l106 125l2 5c0 4.66699 -2.33301 7 -7 7h-41c-5.33301 0 -9.66602 -2.66699 -12.999 -8z" />
    <glyph glyph-name="ohungarumlaut" unicode="&#x151;" horiz-adv-x="561" 
d="M446.5 512.5c32.333 -29.667 48.499 -69.167 48.499 -118.5c0 -12.667 -1.33301 -27.667 -4 -45l-25 -158c-10 -64 -35 -113.5 -75 -148.5s-92.333 -52.5 -157 -52.5c-56.667 0 -101 14.5 -133 43.5s-48 68.167 -48 117.5c0 10 1.33301 25 4 45l26 160
c9.33301 64 33.833 113.5 73.5 148.5s91.834 52.5 156.501 52.5c56.667 0 101.167 -14.833 133.5 -44.5zM195.499 463.5c-30.333 -26.333 -49.5 -65.167 -57.5 -116.5l-23 -149c-2.66699 -16 -4 -29.333 -4 -40c0 -37.333 11.167 -65.833 33.5 -85.5
s53.166 -29.5 92.499 -29.5c46 0 84.167 13 114.5 39s49.5 64.333 57.5 115l23 144c3.33301 16.667 5 32 5 46c0 37.333 -11.167 66 -33.5 86s-53.166 30 -92.499 30c-46.667 0 -85.167 -13.167 -115.5 -39.5zM356.999 624.999
c-1.33301 -1.33301 -2.00098 -3.33398 -2.00098 -6.00098c0 -1.33301 0.666992 -2.66602 2 -3.99902s3 -2 5 -2h29c4 0 7.16699 0.666992 9.5 2s4.83301 3 7.5 5l106 125l2 5c0 4.66699 -2.33301 7 -7 7h-41c-5.33301 0 -9.66602 -2.66699 -12.999 -8zM223.998 624.998
c-1.33301 -1.33301 -2.00098 -3.33398 -2.00098 -6.00098c0 -1.33301 0.666992 -2.66602 2 -3.99902s3 -2 5 -2h29c4 0 7.16699 0.666992 9.5 2s4.83301 3 7.5 5l106 125l2 5c0 4.66699 -2.33301 7 -7 7h-41c-5.33301 0 -9.66602 -2.66699 -12.999 -8z" />
    <glyph glyph-name="OE" unicode="&#x152;" horiz-adv-x="950" 
d="M940 721l-5.99805 -34c-1.33301 -7.33301 -5.33301 -11 -12 -11h-300l-44 -275h274c7.33301 0 10.333 -3.66699 9 -11l-6 -33c-0.666992 -8 -4.33398 -12 -11.001 -12h-275l-45 -289h301c6.66699 0 9.66699 -3.66699 9 -11l-6 -33c-0.666992 -8 -4.66699 -12 -12 -12
h-346c-3.33301 0 -6 1 -8 3s-2.66699 4.66699 -2 8l10 63c-23.333 -28 -51.833 -49 -85.5 -63s-70.834 -21 -111.501 -21c-63.333 0 -113.666 16 -150.999 48s-56 78.667 -56 140c0 14.667 1.66699 32.667 5 54l42 267c12.667 79.333 43.167 139.666 91.5 180.999
s108.5 62 180.5 62c40 0 75.167 -6.66699 105.5 -20s54.5 -33.666 72.5 -60.999l9 61c1.33301 6.66699 5.66602 10 12.999 10h345c8 0 11.333 -3.66699 10 -11zM421.002 90c36.667 28.667 60.668 73 72.001 133l45 282c2.66699 21.333 4 36 4 44
c0 45.333 -13.833 79.333 -41.5 102s-65.834 34 -114.501 34c-58.667 0 -106.334 -15.667 -143.001 -47s-60 -79.333 -70 -144l-42 -267c-3.33301 -18 -5 -33.333 -5 -46c0 -45.333 13.5 -79 40.5 -101s65.167 -33 114.5 -33c56.667 0 103.334 14.333 140.001 43z" />
    <glyph glyph-name="oe" unicode="&#x153;" horiz-adv-x="892" 
d="M786.5 514c31 -28.667 46.499 -66.998 46.499 -114.998c0 -12 -2 -30 -6 -54l-10 -69c-3.33301 -15.333 -12.666 -23 -27.999 -23h-314l-9 -55c-2.66699 -18.667 -4 -32.334 -4 -41.001c0 -38 10.5 -66.833 31.5 -86.5s50.833 -29.5 89.5 -29.5s70 7.16699 94 21.5
s44.333 35.166 61 62.499c4.66699 8 10.334 9.66699 17.001 5l25 -14c4 -2.66699 6 -5.66699 6 -9c0 -2.66699 -1 -5.66699 -3 -9c-19.333 -33.333 -46.333 -59.666 -81 -78.999s-74.667 -29 -120 -29c-40.667 0 -74.667 8 -102 24s-46.666 39 -57.999 69
c-20 -30.667 -46 -53.834 -78 -69.501s-68.667 -23.5 -110 -23.5c-56.667 0 -101 14.5 -133 43.5s-48 68.167 -48 117.5c0 10 1.33301 25 4 45l26 160c9.33301 64 33.833 113.5 73.5 148.5s91.834 52.5 156.501 52.5c41.333 0 76.166 -8.66699 104.499 -26
s48.5 -41.666 60.5 -72.999c19.333 31.333 44.666 55.666 75.999 72.999s66.666 26 105.999 26c53.333 0 95.5 -14.333 126.5 -43zM776.999 392.002c0 36.667 -10.5 64.666 -31.5 83.999s-50.5 29 -88.5 29c-44 0 -80.667 -13.167 -110 -39.5s-48 -64.166 -56 -113.499
l-9 -53h281l9 50c3.33301 16.667 5 31 5 43zM351.499 82.001c30.333 26 49.5 64.332 57.5 114.999l23 144c3.33301 16.667 5 32 5 46c0 37.333 -11.167 66 -33.5 86s-53.166 30 -92.499 30c-46.667 0 -85.167 -13.167 -115.5 -39.5s-49.5 -65.166 -57.5 -116.499l-23 -149
c-2.66699 -16 -4 -29.333 -4 -40c0 -37.333 11.167 -65.833 33.5 -85.5s53.166 -29.5 92.499 -29.5c46 0 84.167 13 114.5 39z" />
    </font>
</defs>
</svg>
