<?xml version="1.0" standalone="no"?>
<!DOCTYPE svg PUBLIC "-//W3C//DTD SVG 1.1//EN" "http://www.w3.org/Graphics/SVG/1.1/DTD/svg11.dtd" >
<svg>
<metadata>
Created by FontForge 20090914 at Tue Jun 21 12:40:33 2016
 By www-data
Copyright (c) 2015 by Newlyn Works Limited. All rights reserved.
</metadata>
<defs>
<font id="TPFrank-Bold" horiz-adv-x="625" >
  <font-face 
    font-family="TP Frank Bold"
    font-weight="700"
    font-stretch="normal"
    units-per-em="1000"
    panose-1="0 0 8 0 0 0 0 0 0 0"
    ascent="800"
    descent="-200"
    x-height="554"
    cap-height="732"
    bbox="-182.999 -260.337 1140 1021"
    underline-thickness="50"
    underline-position="-50"
    unicode-range="U+000D-U+FB02"
  />
<missing-glyph horiz-adv-x="600" 
 />
    <glyph glyph-name="fi" unicode="fi" horiz-adv-x="702" 
d="M385 759.5c2.66699 -3 4 -6.16797 4 -9.50098v-93c0 -3.33301 -1.16699 -6.5 -3.5 -9.5s-5.5 -4.5 -9.5 -4.5h-54c-20.667 0 -35.167 -3.83301 -43.5 -11.5s-12.5 -19.167 -12.5 -34.5v-48h111c4 0 7 -1.33301 9 -4s3 -5.66699 3 -9v-95c0 -4 -1.5 -7.33301 -4.5 -10
s-6.5 -4 -10.5 -4h-108v-412c0 -10 -4.66699 -15 -14 -15h-121c-4.66699 0 -8.5 1.33301 -11.5 4s-4.5 6.33398 -4.5 11.001v412h-73c-4 0 -7.33301 1.5 -10 4.5s-4 6.16699 -4 9.5v95c0 3.33301 1.33301 6.33301 4 9s6 4 10 4h73v42c0 54.667 15.167 97 45.5 127
s74.833 45.333 133.5 46h78c6 0 10.333 -1.5 13 -4.5zM628.5 758.499c3.66699 -3.66699 5.5 -8.83398 5.5 -15.501v-94c0 -6.66699 -1.83301 -11.834 -5.5 -15.501s-8.83398 -5.5 -15.501 -5.5h-110c-6.66699 0 -11.834 1.83301 -15.501 5.5s-5.5 8.83398 -5.5 15.501v94
c0 6.66699 1.83301 11.834 5.5 15.501s8.83398 5.5 15.501 5.5h110c6.66699 0 11.834 -1.83301 15.501 -5.5zM630 549.999c2.66699 -2.66699 4 -6.33398 4 -11.001v-524c0 -4.66699 -1.33301 -8.33398 -4 -11.001s-6.33398 -4 -11.001 -4h-121
c-4.66699 0 -8.5 1.33301 -11.5 4s-4.5 6.33398 -4.5 11.001v524c0 4.66699 1.5 8.33398 4.5 11.001s6.83301 4 11.5 4h121c4.66699 0 8.33398 -1.33301 11.001 -4z" />
    <glyph glyph-name="fl" unicode="fl" horiz-adv-x="702" 
d="M385 759.5c2.66699 -3 4 -6.16797 4 -9.50098v-93c0 -3.33301 -1.16699 -6.5 -3.5 -9.5s-5.5 -4.5 -9.5 -4.5h-54c-20.667 0 -35.167 -3.83301 -43.5 -11.5s-12.5 -19.167 -12.5 -34.5v-48h111c4 0 7 -1.33301 9 -4s3 -5.66699 3 -9v-95c0 -4 -1.5 -7.33301 -4.5 -10
s-6.5 -4 -10.5 -4h-108v-412c0 -10 -4.66699 -15 -14 -15h-121c-4.66699 0 -8.5 1.33301 -11.5 4s-4.5 6.33398 -4.5 11.001v412h-73c-4 0 -7.33301 1.5 -10 4.5s-4 6.16699 -4 9.5v95c0 3.33301 1.33301 6.33301 4 9s6 4 10 4h73v42c0 54.667 15.167 97 45.5 127
s74.833 45.333 133.5 46h78c6 0 10.333 -1.5 13 -4.5zM630 760.999c2.66699 -2.66699 4 -6.33398 4 -11.001v-735c0 -4.66699 -1.33301 -8.33398 -4 -11.001s-6.33398 -4 -11.001 -4h-121c-4.66699 0 -8.5 1.33301 -11.5 4s-4.5 6.33398 -4.5 11.001v735
c0 4.66699 1.5 8.33398 4.5 11.001s6.83301 4 11.5 4h121c4.66699 0 8.33398 -1.33301 11.001 -4z" />
    <glyph glyph-name=".notdef" horiz-adv-x="600" 
 />
    <glyph glyph-name="nonmarkingreturn" unicode="&#xd;" horiz-adv-x="600" 
 />
    <glyph glyph-name="space" unicode=" " horiz-adv-x="251" 
 />
    <glyph glyph-name="exclam" unicode="!" horiz-adv-x="291" 
d="M217.5 727c3.66699 -3.33301 5.5 -8.33398 5.5 -15.001c0 -48 -3.5 -119.667 -10.5 -215s-13.167 -166.333 -18.5 -213c-1.33301 -11.333 -7.33301 -17 -18 -17h-61c-10 0 -16 5.66699 -18 17c-5.33301 40.667 -11.5 109.834 -18.5 207.501s-10.5 171.167 -10.5 220.5
c0 6.66699 1.33301 11.667 4 15s7 5 13 5h118c6 0 10.833 -1.66699 14.5 -5zM212.5 175.499c3.66699 -3.66699 5.5 -8.16797 5.5 -13.501v-144c0 -5.33301 -1.83301 -9.66602 -5.5 -12.999s-8.16699 -5 -13.5 -5h-109c-4.66699 0 -8.66699 1.66699 -12 5s-5 8 -5 14v143
c0 5.33301 1.5 9.83301 4.5 13.5s7.16699 5.5 12.5 5.5h109c5.33301 0 9.83301 -1.83301 13.5 -5.5z" />
    <glyph glyph-name="quotedbl" unicode="&#x22;" horiz-adv-x="476" 
d="M201 727c3.33301 -3.33301 5 -7.66797 5 -13.001l-15 -253c0 -5.33301 -1.66699 -9.66602 -5 -12.999s-7.66602 -5 -12.999 -5h-80c-4.66699 0 -8.66699 1.66699 -12 5s-5 8 -5 14l-14 251c0 5.33301 1.33301 9.83301 4 13.5s6.66699 5.5 12 5.5h110
c5.33301 0 9.66602 -1.66699 12.999 -5zM409 726.998c3.33301 -3.33301 5 -7.66797 5 -13.001l-15 -253c0 -5.33301 -1.66699 -9.66602 -5 -12.999s-7.66602 -5 -12.999 -5h-80c-4.66699 0 -8.66699 1.66699 -12 5s-5 8 -5 14l-14 251c0 5.33301 1.33301 9.83301 4 13.5
s6.66699 5.5 12 5.5h110c5.33301 0 9.66602 -1.66699 12.999 -5z" />
    <glyph glyph-name="numbersign" unicode="#" horiz-adv-x="700" 
d="M660 531l-0.000976562 -77c0 -10 -5 -15 -15 -15h-116l-31 -146h92c10.667 0 16 -5 16 -15v-77c0 -10.667 -5.33301 -16 -16 -16h-116l-37 -170c-2 -10 -7.66699 -15 -17 -15h-81c-11.333 -0 -16 5.33301 -14 16l37 169h-101l-37 -170c-2 -10 -7.66699 -15 -17 -15h-80
c-12 -0 -17 5.33301 -15 16l37 169h-94c-10 0 -15 5.33301 -15 16v77c0 10 5 15 15 15h117l32 146h-94c-10 0 -15 5 -15 15v77c0 4.66699 1.33301 8.5 4 11.5s6.33398 4.5 11.001 4.5h117l37 170c2 10 8 15 18 15h80c12 0 17 -5 15 -15l-37 -170h100l37 170c2 10 8 15 18 15
h80c11.333 0 16 -5.33301 14 -16l-36 -169h92c10 0 15 -5.33301 15 -16zM416.999 439h-101l-31 -146h100z" />
    <glyph glyph-name="dollar" unicode="$" 
d="M515 84c-32 -36 -75.335 -60 -130.002 -72v-70c0 -10.667 -5.33301 -16 -16 -16h-103c-10 0 -15 5.33301 -15 16v66c-51.333 7.33301 -93.666 25 -126.999 53s-56.666 65.667 -69.999 113c-0.666992 1.33301 -1 3.33301 -1 6c0 7.33301 3.66699 12 11 14l97 31l9 2
c6.66699 0 11 -4.33301 13 -13c12 -49.333 43.333 -77.333 94 -84v178c-74 27.333 -126.5 57.5 -157.5 90.5s-46.5 75.833 -46.5 128.5c0 50 15.833 92 47.5 126s75.167 56.333 130.5 67v83c0 10 5 15 15 15h103c10.667 0 16 -5 16 -15v-82
c41.333 -8 76.666 -24.333 105.999 -49s51.333 -56.667 66 -96c1.33301 -4 2 -6.33301 2 -7c0 -6.66699 -4.33301 -11.667 -13 -15l-92 -32c-4 -1.33301 -7 -2 -9 -2c-6 0 -10.667 3.66699 -14 11c-8 18.667 -17.667 33.5 -29 44.5s-25.333 18.833 -42 23.5v-170l20 -7
c64.667 -23.333 111.334 -51.333 140.001 -84s43 -74 43 -124c0 -50.667 -16 -94 -48 -130zM226.498 495c9 -10.667 25.833 -21.667 50.5 -33v137c-20 -5.33301 -35.667 -13.666 -47 -24.999s-17 -25 -17 -41c0 -14.667 4.5 -27.334 13.5 -38.001zM406.498 161
c11 12 16.499 26.333 16.499 43c0 15.333 -4.66699 28.333 -14 39s-25.666 21.667 -48.999 33v-141c20 5.33301 35.5 14 46.5 26z" />
    <glyph glyph-name="percent" unicode="%" horiz-adv-x="806" 
d="M301.5 705.5c26.333 -25.667 39.5 -59.834 39.5 -102.501v-98c0 -42.667 -13.167 -76.834 -39.5 -102.501s-63.166 -38.5 -110.499 -38.5s-84 12.833 -110 38.5s-39 59.834 -39 102.501v98c0 42.667 13 76.834 39 102.501s62.667 38.5 110 38.5
s84.166 -12.833 110.499 -38.5zM655 722c0 -3.33301 -0.666992 -6 -2 -8l-416 -702c-4.66699 -8 -11 -12 -19 -12h-53c-8.66699 -0 -13 3.33301 -13 10c0 3.33301 0.666992 6 2 8l416 702c4.66699 8 11 12 19 12h54c8 0 12 -3.33301 12 -10zM148.5 643.5
c-10.333 -9.66699 -15.5 -24.167 -15.5 -43.5v-91c0 -19.333 5.16699 -34 15.5 -44s24.5 -15 42.5 -15c18.667 0 33.167 5 43.5 15s15.5 24.667 15.5 44v91c0 19.333 -5.16699 33.833 -15.5 43.5s-24.833 14.5 -43.5 14.5c-18 0 -32.167 -4.83301 -42.5 -14.5zM725 329.5
c26 -25.667 39 -59.8359 39 -102.503v-98c0 -43.333 -13 -77.666 -39 -102.999s-63 -38 -111 -38c-47.333 0 -84 12.833 -110 38.5s-39 59.834 -39 102.501v98c0 42.667 13 76.834 39 102.501s62.667 38.5 110 38.5c48 0 85 -12.833 111 -38.5zM571.5 266.998
c-10.333 -10 -15.5 -24.667 -15.5 -44v-91c0 -19.333 5.16699 -33.833 15.5 -43.5s24.5 -14.5 42.5 -14.5c18.667 0 33.167 4.83301 43.5 14.5s15.5 24.167 15.5 43.5v91c0 19.333 -5.16699 34 -15.5 44s-24.833 15 -43.5 15c-18 0 -32.167 -5 -42.5 -15z" />
    <glyph glyph-name="ampersand" unicode="&#x26;" horiz-adv-x="713" 
d="M689 9c0 -6 -3.00293 -9.00391 -9.00293 -9.00391h-146c-7.33301 0 -14.666 4 -21.999 12l-39 46c-56.667 -46.667 -119.667 -70 -189 -70c-44 0 -83.167 8.33301 -117.5 25s-61.166 40.334 -80.499 71.001s-29 66.334 -29 107.001c0 46.667 13 86 39 118s61 58 105 78
l-15 18c-46 56 -69 108 -69 156c0 34.667 8.66699 66 26 94s42.333 50 75 66s71 24 115 24c42.667 0 79.834 -7.66699 111.501 -23s56.167 -36.5 73.5 -63.5s26 -57.5 26 -91.5c0 -42 -12.333 -79 -37 -111s-60.667 -63 -108 -93l95 -114
c13.333 19.333 23.833 38.833 31.5 58.5s14.5 41.167 20.5 64.5c2 6.66699 4.66699 11 8 13s8.33301 2.33301 15 1l91 -28c8.66699 -3.33301 13 -9.33301 13 -18c0 -3.33301 -0.333008 -6 -1 -8c-8.66699 -31.333 -21 -63.166 -37 -95.499s-35 -62.166 -57 -89.499l108 -130
c2 -2 3 -4.66699 3 -8zM279.997 613.996c-13.333 -11.333 -20.001 -28 -20.001 -50c0 -16 4.33301 -30.833 13 -44.5s23.667 -33.5 45 -59.5l10 -12c47.333 34 71 72.667 71 116c0 21.333 -6 37.833 -18 49.5s-28.333 17.5 -49 17.5c-21.333 0 -38.666 -5.66699 -51.999 -17
zM395.996 150.996l-124 151c-41.333 -24 -62 -56 -62 -96c0 -26.667 8.83301 -48.667 26.5 -66s40.5 -26 68.5 -26c30.667 0 61 12.333 91 37z" />
    <glyph glyph-name="quotesingle" unicode="'" horiz-adv-x="267" 
d="M201 727c3.33301 -3.33301 5 -7.66797 5 -13.001l-15 -253c0 -5.33301 -1.66699 -9.66602 -5 -12.999s-7.66602 -5 -12.999 -5h-80c-4.66699 0 -8.66699 1.66699 -12 5s-5 8 -5 14l-14 251c0 5.33301 1.33301 9.83301 4 13.5s6.66699 5.5 12 5.5h110
c5.33301 0 9.66602 -1.66699 12.999 -5z" />
    <glyph glyph-name="parenleft" unicode="(" horiz-adv-x="367" 
d="M256 767l72 -55.0039c6.66699 -5.33301 10 -10.666 10 -15.999c0 -3.33301 -2 -7.66602 -6 -12.999c-36 -46.667 -66.167 -104.834 -90.5 -174.501s-36.5 -145.167 -36.5 -226.5s12.167 -156.833 36.5 -226.5s54.5 -127.834 90.5 -174.501
c4 -5.33301 6 -9.66602 6 -12.999c0 -5.33301 -3.33301 -10.666 -10 -15.999l-72 -55c-8 -4.66699 -14 -7 -18 -7c-3.33301 0 -6.16602 0.666992 -8.49902 2s-5.5 4 -9.5 8c-48 50.667 -88.5 116.834 -121.5 198.501s-49.5 176.167 -49.5 283.5s16.5 201.833 49.5 283.5
s73.5 147.834 121.5 198.501c4 4 7.16699 6.66699 9.5 8s5.16602 2 8.49902 2c4 0 10 -2.33301 18 -7z" />
    <glyph glyph-name="parenright" unicode=")" horiz-adv-x="367" 
d="M269 567c32.667 -81.333 49 -175 49 -281c0 -108.667 -16.333 -204.167 -49 -286.5s-73.334 -148.833 -122.001 -199.5c-4 -4 -7.16699 -6.66699 -9.5 -8s-5.16602 -2 -8.49902 -2c-4.66699 0 -10.334 2.33301 -17.001 7l-72 55c-6.66699 4.66699 -10 10 -10 16
c0 4 1.66699 8.33301 5 13c36 46 66.167 103.833 90.5 173.5s36.5 145.5 36.5 227.5c0 81.333 -12.167 157 -36.5 227s-54.5 128 -90.5 174c-3.33301 4.66699 -5 9 -5 13c0 6 3.33301 11.333 10 16l72 55c6.66699 4.66699 12.334 7 17.001 7
c3.33301 0 6.16602 -0.666992 8.49902 -2s5.5 -4 9.5 -8c48.667 -50 89.334 -115.667 122.001 -197z" />
    <glyph glyph-name="asterisk" unicode="*" horiz-adv-x="497" 
d="M451 558c0 -6 -3.66895 -10.002 -11.002 -12.002l-121 -32l78 -97c2.66699 -3.33301 4 -6.66602 4 -9.99902c0 -4.66699 -2.66699 -9 -8 -13l-51 -38c-5.33301 -2.66699 -9 -4 -11 -4c-4 0 -7.66699 2.66699 -11 8l-72 109l-71 -109c-4 -5.33301 -8 -8 -12 -8
c-2.66699 0 -6 1.33301 -10 4l-51 38c-6 4 -9 8 -9 12c0 2.66699 1.66699 6.33398 5 11.001l78 97l-121 32c-7.33301 2 -11 6.33301 -11 13c0 3.33301 0.333008 6 1 8l20 59c2.66699 8 6.33398 12 11.001 12l9 -2l119 -44l-5 125c0 5.33301 1.16699 9.16602 3.5 11.499
s6.5 3.5 12.5 3.5h64c6 0 10 -1.16699 12 -3.5s3 -6.16602 3 -11.499l-5 -125l119 44c4 1.33301 7 2 9 2c4.66699 0 8.33398 -4 11.001 -12l19 -59c1.33301 -4 2 -7 2 -9z" />
    <glyph glyph-name="plus" unicode="+" 
d="M575 367v-103c0 -10 -5 -15 -15 -15h-175v-185c0 -10 -5.33301 -15 -16 -15h-113c-10.667 0 -16 5 -16 15v185h-175c-10 0 -15 5 -15 15v103c0 10 5 15 15 15h175v184c0 10 5.33301 15 16 15h113c10.667 0 16 -5 16 -15v-184h175c10 0 15 -5 15 -15z" />
    <glyph glyph-name="comma" unicode="," horiz-adv-x="281" 
d="M194.5 -21c-13.667 -42.667 -33.833 -81.3311 -60.5 -115.998c-5.33301 -8 -11 -12 -17 -12c-4 0 -8 1 -12 3l-62 28c-8.66699 3.33301 -13 8.66602 -13 15.999c0 4 1 8 3 12c12 26 20.667 49 26 69s8.5 41 9.5 63s1.5 56.667 1.5 104c0 14 7 21 21 21h103
c14 0 21 -7 21 -21c0 -68.667 -6.83301 -124.334 -20.5 -167.001z" />
    <glyph glyph-name="hyphen" unicode="-" horiz-adv-x="441" 
d="M368 383.5c2.66699 -3 3.99902 -6.83301 3.99902 -11.5v-108c0 -10 -5 -15 -15 -15h-273c-10 0 -15 5 -15 15v108c0 10.667 5 16 15 16h273c4.66699 0 8.33398 -1.5 11.001 -4.5z" />
    <glyph glyph-name="period" unicode="." horiz-adv-x="280" 
d="M207 175.5c3.33301 -3.66699 5 -8.16797 5 -13.501v-144c0 -5.33301 -1.66699 -9.66602 -5 -12.999s-7.66602 -5 -12.999 -5h-110c-4.66699 0 -8.5 1.66699 -11.5 5s-4.5 8 -4.5 14v143c0 5.33301 1.33301 9.83301 4 13.5s6.66699 5.5 12 5.5h110
c5.33301 0 9.66602 -1.83301 12.999 -5.5z" />
    <glyph glyph-name="slash" unicode="/" horiz-adv-x="449" 
d="M306 732h100c6 0 10.167 -1.5 12.5 -4.5s2.5 -7.5 0.5 -13.5l-256 -898c-3.33301 -10.667 -10 -16 -20 -16h-100c-6 0 -10.167 1.5 -12.5 4.5s-2.5 7.5 -0.5 13.5l256 898c3.33301 10.667 10 16 20 16z" />
    <glyph glyph-name="zero" unicode="0" 
d="M124 55.5c-45.333 45 -68.001 106.167 -68.001 183.5v254c0 77.333 22.667 138.5 68 183.5s108.333 67.5 189 67.5c53.333 0 99.333 -10.667 138 -32s68 -51 88 -89s30 -81.333 30 -130v-254c0 -48.667 -10 -92 -30 -130s-49.5 -67.667 -88.5 -89s-85.5 -32 -139.5 -32
c-79.333 0 -141.666 22.5 -186.999 67.5zM387.499 159.5c17 18.333 25.5 46.166 25.5 83.499v246c0 36.667 -8.66699 64.334 -26 83.001s-42 28 -74 28c-32.667 0 -57.667 -9.16699 -75 -27.5s-26 -46.166 -26 -83.499v-246c0 -36.667 8.66699 -64.334 26 -83.001
s42.333 -28 75 -28s57.5 9.16699 74.5 27.5z" />
    <glyph glyph-name="one" unicode="1" 
d="M575 139.5c2.66699 -3 4.00098 -6.16699 4.00098 -9.5v-115c0 -4 -1.33301 -7.5 -4 -10.5s-6 -4.5 -10 -4.5h-448c-4 0 -7.33301 1.5 -10 4.5s-4 6.5 -4 10.5v115c0 3.33301 1.33301 6.5 4 9.5s6 4.5 10 4.5h153v411l-148 -58c-1.33301 -0.666992 -3.33301 -1 -6 -1
c-7.33301 0 -12 3.66699 -14 11l-41 104c-0.666992 1.33301 -1 3.66602 -1 6.99902c0 6.66699 3.33301 11.334 10 14.001l219 90c2.66699 1.33301 7.66699 3.33301 15 6s14.666 4 21.999 4h80c10 0 15 -5 15 -15v-573h144c4 0 7.33301 -1.5 10 -4.5z" />
    <glyph glyph-name="two" unicode="2" 
d="M441.5 715c37.667 -19.333 66.333 -46.332 86 -80.999s29.5 -74.667 29.5 -120c0 -52.667 -13.333 -98.834 -40 -138.501s-68.667 -82.834 -126 -129.501l-125 -102h282c10.667 0 16 -5 16 -15v-114c0 -10 -5.33301 -15 -16 -15h-454c-10.667 0 -17 4.66699 -19 14
l-19 99l-1 8c0 5.33301 2.33301 12 7 20l202 179c36.667 32 64.334 58 83.001 78s32 38.167 40 54.5s12 33.5 12 51.5c0 30 -8.5 53.5 -25.5 70.5s-40.5 25.5 -70.5 25.5c-28.667 0 -51 -8 -67 -24s-28 -38 -36 -66c-2 -9.33301 -7.33301 -14 -16 -14
c-3.33301 0 -6 0.333008 -8 1l-106 31c-5.33301 1.33301 -9 4.33301 -11 9s-2.33301 10.334 -1 17.001c14.667 58 42.167 104.167 82.5 138.5s96.166 51.5 167.499 51.5c51.333 0 95.833 -9.66699 133.5 -29z" />
    <glyph glyph-name="three" unicode="3" 
d="M441.5 718.5c36.333 -17 63.668 -40.3291 82.001 -69.9961s27.5 -63.5 27.5 -101.5v-11c0 -36.667 -9.66699 -68.667 -29 -96s-46.666 -47 -81.999 -59c38 -8.66699 68.5 -27.834 91.5 -57.501s34.5 -65.167 34.5 -106.5v-12c0 -44 -11 -82.333 -33 -115
s-52.667 -57.834 -92 -75.501s-85 -26.5 -137 -26.5c-70.667 0 -127.667 17 -171 51s-72.333 77.333 -87 130c-0.666992 2 -1 4.33301 -1 7c0 8 4.33301 14 13 18l100 35c5.33301 1.33301 8.66602 2 9.99902 2c7.33301 0 13 -4.66699 17 -14
c11.333 -30 26.833 -52.667 46.5 -68s44.834 -23 75.501 -23c32 0 57.167 8 75.5 24s27.5 36.667 27.5 62v10c0 29.333 -8.83301 51.166 -26.5 65.499s-45.834 21.5 -84.501 21.5h-62c-10.667 0 -16 5 -16 15v102c0 10.667 5.33301 16 16 16h61c32 0 56.667 6.83301 74 20.5
s26 33.167 26 58.5v8c0 25.333 -8.83301 44.666 -26.5 57.999s-41.834 20 -72.501 20c-26.667 0 -48.5 -5.83301 -65.5 -17.5s-30.833 -30.167 -41.5 -55.5c-2.66699 -8 -7 -12 -13 -12c-2 0 -5.66699 1.33301 -11 4l-97 50c-5.33301 3.33301 -8 8 -8 14c0 2 0.666992 5 2 9
c20 46.667 49.667 82.5 89 107.5s91 37.5 155 37.5c52 0 96.167 -8.5 132.5 -25.5z" />
    <glyph glyph-name="four" unicode="4" 
d="M582.5 250c2.33301 -2.66699 3.5 -6.00195 3.5 -10.002v-110c0 -4 -1.33301 -7.33301 -4 -10s-6 -4 -10 -4h-79v-102c0 -4 -1.16699 -7.33301 -3.5 -10s-5.83301 -4 -10.5 -4h-118c-4.66699 0 -8.16699 1.33301 -10.5 4s-3.5 6 -3.5 10v102h-268
c-6.66699 0 -11.667 1.33301 -15 4s-6 7.33398 -8 14.001l-23 94c-0.666992 2.66699 -1 6.33398 -1 11.001c0 7.33301 2 15 6 23l220 457c4.66699 8.66699 12.667 13 24 13h120c9.33301 0 14 -4 14 -12c0 -3.33301 -1 -7 -3 -11l-227 -455h161v164
c0 4 1.33301 7.16699 4 9.5s6 3.5 10 3.5h118c9.33301 0 14 -4.33301 14 -13v-164h79c4.66699 0 8.16699 -1.33301 10.5 -4z" />
    <glyph glyph-name="five" unicode="5" 
d="M529.5 728c2.33301 -2.66699 3.50391 -6.00195 3.50391 -10.002v-108c0 -10 -4.33301 -15 -13 -15h-300v-165l4 -1c16 14 34 25.5 54 34.5s46.667 13.5 80 13.5c40 0 75.833 -9 107.5 -27s56.667 -43.667 75 -77s27.5 -72 27.5 -116v-37
c0 -44.667 -9.83301 -84.5 -29.5 -119.5s-49 -62.5 -88 -82.5s-85.833 -30 -140.5 -30c-70.667 0 -126.334 15.167 -167.001 45.5s-68.334 67.833 -83.001 112.5c-0.666992 2 -1 4.66699 -1 8c0 8 4.66699 13 14 15l97 35c2.66699 1.33301 6 2 10 2c6 0 11.333 -4 16 -12
c10.667 -24.667 25.334 -42.167 44.001 -52.5s42.667 -15.5 72 -15.5c33.333 0 59 8.83301 77 26.5s27 42.834 27 75.501v21c0 31.333 -9 55.333 -27 72s-42.667 25 -74 25c-20.667 0 -38.334 -3.66699 -53.001 -11s-28.334 -18.666 -41.001 -33.999
c-4.66699 -6.66699 -9.33398 -10 -14.001 -10c-1.33301 0 -5.33301 1.33301 -12 4l-92 41c-6.66699 2.66699 -11.167 5.5 -13.5 8.5s-3.5 8.16699 -3.5 15.5v356v2c0 9.33301 5.66699 14 17 14h417c4 0 7.16699 -1.33301 9.5 -4z" />
    <glyph glyph-name="six" unicode="6" 
d="M448 724.5c34.667 -13 66.333 -34.498 95 -64.498c4.66699 -4 7 -8.66699 7 -14c0 -4 -2 -8.66699 -6 -14l-63 -72c-4 -4.66699 -8.33301 -7 -13 -7s-9.33398 2.33301 -14.001 7c-14.667 14.667 -31 25.667 -49 33s-39.333 11 -64 11c-46 0 -78.167 -11 -96.5 -33
s-27.5 -49.667 -27.5 -83v-71h1c14 19.333 33 34.666 57 45.999s51 17 81 17c42 0 79.167 -9 111.5 -27s57.333 -43.333 75 -76s26.5 -71 26.5 -115v-40c0 -69.333 -21.667 -125 -65 -167s-105 -63 -185 -63c-56 0 -103 11.167 -141 33.5s-66.167 52.666 -84.5 90.999
s-27.5 81.5 -27.5 129.5v220c0.666992 84.667 22.834 152.167 66.501 202.5s110.5 75.5 200.5 75.5c42 0 80.333 -6.5 115 -19.5zM244.499 325.502c-18.333 -17 -27.501 -42.4971 -27.501 -76.4971v-14c0 -34.667 9 -60.834 27 -78.501s42.667 -26.5 74 -26.5
c67.333 1.33301 101 34.666 101 99.999v21c0 65.333 -33.333 98.666 -100 99.999c-31.333 0 -56.166 -8.5 -74.499 -25.5z" />
    <glyph glyph-name="seven" unicode="7" 
d="M558 718l18.001 -99c0.666992 -2 1 -4.33301 1 -7c0 -6 -2 -13 -6 -21l-287 -576c-2.66699 -6 -5.83398 -10 -9.50098 -12s-8.5 -3 -14.5 -3h-127c-10 0 -15 4 -15 12c0 3.33301 1 6.33301 3 9l292 567h-335c-10.667 0 -16 5 -16 15v114c0 10 5.33301 15 16 15h460
c11.333 0 18 -4.66699 20 -14z" />
    <glyph glyph-name="eight" unicode="8" 
d="M178.5 14c-39 17.333 -69.334 41.832 -91.001 73.499s-32.5 68.5 -32.5 110.5v14c0 43.333 10.833 79 32.5 107s49.167 47.667 82.5 59c-30.667 13.333 -55.667 33.333 -75 60s-29 58.667 -29 96v12c0 37.333 9.33301 71 28 101s46.5 53.667 83.5 71s81.833 26 134.5 26
s97.5 -8.66699 134.5 -26s65 -41 84 -71s28.5 -64 28.5 -102v-14c0 -35.333 -9.83301 -66.333 -29.5 -93s-45.167 -46.667 -76.5 -60c34.667 -11.333 62.834 -30.666 84.501 -57.999s32.5 -63.333 32.5 -108v-14c0 -42 -10.833 -78.833 -32.5 -110.5s-52 -56.167 -91 -73.5
s-83.833 -26 -134.5 -26c-50 0 -94.5 8.66699 -133.5 26zM380.499 468.499c15.667 15.667 23.5 34.167 23.5 55.5v12c0 22.667 -7.83301 41.5 -23.5 56.5s-38.5 22.5 -68.5 22.5c-29.333 0 -51.833 -7.5 -67.5 -22.5s-23.5 -33.833 -23.5 -56.5v-12
c0 -21.333 7.83301 -39.833 23.5 -55.5s38.167 -25.167 67.5 -28.5c30 3.33301 52.833 12.833 68.5 28.5zM386.999 146.499c18 16.333 27 37.166 27 62.499v16c0 24 -9 44.5 -27 61.5s-43 27.5 -75 31.5c-31.333 -4 -56 -14.5 -74 -31.5s-27 -37.5 -27 -61.5v-16
c0 -25.333 9 -46.166 27 -62.499s42.667 -24.5 74 -24.5c32 0 57 8.16699 75 24.5z" />
    <glyph glyph-name="nine" unicode="9" 
d="M73 97c-4 5.33301 -5.99805 9.66504 -5.99805 12.998c0 5.33301 3 10.333 9 15l73 62c4.66699 3.33301 8.33398 5 11.001 5c4.66699 0 10 -3 16 -9c15.333 -18 31.166 -31 47.499 -39s37.166 -12 62.499 -12c45.333 0 77.166 10.833 95.499 32.5s27.5 49.167 27.5 82.5
v72h-1c-14 -19.333 -32.833 -34.666 -56.5 -45.999s-50.5 -17 -80.5 -17c-42 0 -79 8.83301 -111 26.5s-56.833 42.834 -74.5 75.501s-26.5 71 -26.5 115v41c0 69.333 21.5 125 64.5 167s104.167 63 183.5 63c56.667 0 103.834 -11.333 141.501 -34s65.667 -53.167 84 -91.5
s27.5 -81.5 27.5 -129.5v-219c0 -84.667 -21.833 -152.167 -65.5 -202.5s-110.5 -75.5 -200.5 -75.5c-92.667 0 -166.334 35 -221.001 105zM382.002 410.499c18 17 27 42.498 27 76.498v14c0 34.667 -9 60.834 -27 78.501s-42.333 26.5 -73 26.5
c-66.667 -1.33301 -100 -35 -100 -101v-20c0 -65.333 33 -98.666 99 -99.999c31.333 0 56 8.5 74 25.5z" />
    <glyph glyph-name="colon" unicode=":" horiz-adv-x="283" 
d="M208 541.5c3.33301 -3.66699 5 -8.16797 5 -13.501v-144c0 -5.33301 -1.66699 -9.66602 -5 -12.999s-7.66602 -5 -12.999 -5h-110c-4.66699 0 -8.5 1.66699 -11.5 5s-4.5 8 -4.5 14v143c0 5.33301 1.33301 9.83301 4 13.5s6.66699 5.5 12 5.5h110
c5.33301 0 9.66602 -1.83301 12.999 -5.5zM208 175.499c3.33301 -3.66699 5 -8.16797 5 -13.501v-144c0 -5.33301 -1.66699 -9.66602 -5 -12.999s-7.66602 -5 -12.999 -5h-110c-4.66699 0 -8.5 1.66699 -11.5 5s-4.5 8 -4.5 14v143c0 5.33301 1.33301 9.83301 4 13.5
s6.66699 5.5 12 5.5h110c5.33301 0 9.66602 -1.83301 12.999 -5.5z" />
    <glyph glyph-name="semicolon" unicode=";" horiz-adv-x="304" 
d="M219 541.5c3.33301 -3.66699 5 -8.16797 5 -13.501v-144c0 -5.33301 -1.66699 -9.66602 -5 -12.999s-7.66602 -5 -12.999 -5h-110c-4.66699 0 -8.5 1.66699 -11.5 5s-4.5 8 -4.5 14v143c0 5.33301 1.33301 9.83301 4 13.5s6.66699 5.5 12 5.5h110
c5.33301 0 9.66602 -1.83301 12.999 -5.5zM208.5 -21.001c-13.667 -42.667 -33.833 -81.3311 -60.5 -115.998c-5.33301 -8 -11 -12 -17 -12c-4 0 -8 1 -12 3l-62 28c-8.66699 3.33301 -13 8.66602 -13 15.999c0 4 1 8 3 12c12 26 20.667 49 26 69s8.5 41 9.5 63
s1.5 56.667 1.5 104c0 14 7 21 21 21h103c14 0 21 -7 21 -21c0 -68.667 -6.83301 -124.334 -20.5 -167.001z" />
    <glyph glyph-name="less" unicode="&#x3c;" 
d="M538 228l-0.000976562 -120c0 -5.33301 -2 -9.33301 -6 -12s-8.66699 -3.33398 -14 -2.00098l-439 175c-10 3.33301 -15 9.66602 -15 18.999v125c0 4.66699 1.33301 8.83398 4 12.501s6.33398 6.16699 11.001 7.5l438 174c1.33301 0.666992 3.33301 1 6 1
c4 0 7.33301 -1.33301 10 -4s4 -6 4 -10v-121c0 -9.33301 -4.33301 -15.333 -13 -18l-311 -104l311 -104c9.33301 -3.33301 14 -9.66602 14 -18.999z" />
    <glyph glyph-name="equal" unicode="=" 
d="M553 459v-88c0 -10.667 -5 -16 -15 -16h-451c-10 0 -15 5.33301 -15 16v88c0 10.667 5 16 15 16h451c10 0 15 -5.33301 15 -16zM553 254v-89c0 -10 -5 -15 -15 -15h-451c-10 0 -15 5 -15 15v89c0 10.667 5 16 15 16h451c10 0 15 -5.33301 15 -16z" />
    <glyph glyph-name="greater" unicode="&#x3e;" 
d="M557 425.5c2.66699 -3.66699 3.99902 -7.83398 3.99902 -12.501v-125c0 -9.33301 -5 -15.666 -15 -18.999l-439 -175c-1.33301 -0.666992 -3 -1 -5 -1c-4 0 -7.5 1.33301 -10.5 4s-4.5 6.33398 -4.5 11.001v120c0 9.33301 4.66699 15.666 14 18.999l310 104l-310 104
c-8.66699 2.66699 -13 8.66699 -13 18v121c0 5.33301 2 9.33301 6 12s8.33301 3 13 1l439 -174c4.66699 -1.33301 8.33398 -3.83301 11.001 -7.5z" />
    <glyph glyph-name="question" unicode="?" horiz-adv-x="502" 
d="M183 283c0 2.66699 0.666016 6.66699 1.99902 12c11.333 30 33 68 65 114c21.333 31.333 37.166 57 47.499 77s15.5 39.667 15.5 59c0 20.667 -6.66699 37 -20 49s-31.666 18 -54.999 18c-44 0 -72.667 -20 -86 -60c-2 -6 -4.16699 -10.167 -6.5 -12.5
s-5.83301 -3.5 -10.5 -3.5c-2 0 -5.66699 0.666992 -11 2l-77 24c-10 4 -15 9.33301 -15 16c0 2 0.666992 5.66699 2 11c11.333 46.667 37 84.167 77 112.5s87.667 42.5 143 42.5c62.667 0 112.834 -16 150.501 -48s56.5 -74 56.5 -126c0 -30 -8 -60.833 -24 -92.5
s-38.667 -68.834 -68 -111.501l-22.5 -33c-12.333 -18 -21.5 -34 -27.5 -48c-4 -7.33301 -8.33301 -12.166 -13 -14.499s-11 -3.5 -19 -3.5h-87c-11.333 0 -17 5.33301 -17 16zM178.499 5.5c-3 3.66699 -4.5 8.16602 -4.5 13.499v143c0 5.33301 1.5 9.83301 4.5 13.5
s6.83301 5.5 11.5 5.5h110c5.33301 0 9.66602 -1.83301 12.999 -5.5s5 -8.16699 5 -13.5v-144c0 -5.33301 -1.66699 -9.66602 -5 -12.999s-7.66602 -5 -12.999 -5h-110c-4.66699 -0 -8.5 1.83301 -11.5 5.5z" />
    <glyph glyph-name="at" unicode="@" horiz-adv-x="872" 
d="M641 613c55.333 -26.667 97.501 -65.1689 126.501 -115.502s43.5 -110.5 43.5 -180.5v-94c0 -53.333 -15.167 -96.333 -45.5 -129s-71.5 -49 -123.5 -49c-27.333 0 -51.333 5.16699 -72 15.5s-37 25.166 -49 44.499c-14.667 -22.667 -31 -38.834 -49 -48.501
s-41.333 -14.5 -70 -14.5c-38 0 -69.167 13.333 -93.5 40s-36.5 61 -36.5 103v115c0 41.333 11.833 75.5 35.5 102.5s53.167 40.5 88.5 40.5c44.667 0 79.334 -14.667 104.001 -44v23c0 2.66699 1.16699 4.83398 3.5 6.50098s5.16602 2.5 8.49902 2.5h81
c4.66699 0 7.83398 -0.666992 9.50098 -2s2.5 -3.66602 2.5 -6.99902v-236c0 -13.333 3.66699 -24 11 -32s17.333 -12 30 -12c17.333 0 30.666 7.16699 39.999 21.5s14 35.166 14 62.499v85c0 156 -86.333 234 -259 234c-87.333 0 -154 -19.667 -200 -59
s-69 -97.666 -69 -174.999v-125c0 -76 21.667 -134.167 65 -174.5s105.666 -60.5 186.999 -60.5s149.333 9.33301 204 28c2 0.666992 4.66699 1 8 1c6.66699 0 11 -3.66699 13 -11l17 -71l1 -6c0 -8 -3.33301 -13 -10 -15c-68 -22.667 -146 -34 -234 -34
c-73.333 0 -137.5 13.833 -192.5 41.5s-97.5 66.834 -127.5 117.501s-45 110.334 -45 179.001v135c0 69.333 15.833 129.333 47.5 180s76.334 89.5 134.001 116.5s125.167 40.5 202.5 40.5s143.666 -13.333 198.999 -40zM494.001 290.998
c0 15.333 -5.16699 28.167 -15.5 38.5s-23.833 15.5 -40.5 15.5c-17.333 0 -30.166 -5.16699 -38.499 -15.5s-12.5 -24.833 -12.5 -43.5v-87c0 -18.667 4.16699 -33.167 12.5 -43.5s21.166 -15.5 38.499 -15.5c16.667 0 30.167 5.16699 40.5 15.5s15.5 23.5 15.5 39.5v96z
" />
    <glyph glyph-name="A" unicode="A" horiz-adv-x="672" 
d="M656 12c0 -3.33301 -1.16797 -6.16602 -3.50098 -8.49902s-5.16602 -3.5 -8.49902 -3.5h-129c-5.33301 0 -9.33301 1.16699 -12 3.5s-5 6.16602 -7 11.499l-46 150h-232l-46 -150c-2.66699 -10 -10 -15 -22 -15h-119c-4.66699 0 -8 1.66699 -10 5s-2.33301 7.33301 -1 12
l216 700c3.33301 10 10 15 20 15h156c11.333 0 19 -5 23 -15l220 -700c0.666992 -1.33301 1 -3 1 -5zM407.999 306l-15 49c-28 95.333 -46.667 168.333 -56 219h-4c-12 -62 -31.333 -135.667 -58 -221l-14 -47h147z" />
    <glyph glyph-name="B" unicode="B" horiz-adv-x="666" 
d="M535.5 682c37 -33.333 55.499 -79.335 55.499 -138.002v-10c0 -36 -8.83301 -67.167 -26.5 -93.5s-42.5 -45.833 -74.5 -58.5c38 -7.33301 68.167 -25.833 90.5 -55.5s33.5 -66.5 33.5 -110.5v-11c0 -63.333 -19.667 -113.333 -59 -150s-97.666 -55 -174.999 -55h-281
c-4.66699 0 -8.5 1.33301 -11.5 4s-4.5 6.33398 -4.5 11.001v702c0 4.66699 1.5 8.33398 4.5 11.001s6.83301 4 11.5 4h276c70 0 123.5 -16.667 160.5 -50zM238.999 596.998v-154h113c29.333 0 51.166 7 65.499 21s21.5 31.667 21.5 53v7
c0 21.333 -7.16699 38.833 -21.5 52.5s-36.166 20.5 -65.499 20.5h-113zM238.999 306.998v-172h123c29.333 0 52.666 6.66699 69.999 20s26 33 26 59v12c0 26 -8.66699 46 -26 60s-40.666 21 -69.999 21h-123z" />
    <glyph glyph-name="C" unicode="C" horiz-adv-x="635" 
d="M510 692.5c42 -34.333 70.666 -80.5029 85.999 -138.503c0.666992 -2 1 -4.66699 1 -8c0 -10 -4.66699 -16 -14 -18l-106 -31c-2 -0.666992 -4.66699 -1 -8 -1c-7.33301 0 -12.666 4.66699 -15.999 14c-8.66699 28.667 -21.5 50.834 -38.5 66.501s-42.5 23.5 -76.5 23.5
c-80 0 -120 -47 -120 -141v-186c0 -43.333 9.66699 -77.666 29 -102.999s49.666 -38 90.999 -38c36 0 63.333 8.83301 82 26.5s31.334 41.834 38.001 72.501c2 10 7 15 15 15c2 0 5 -0.666992 9 -2l106 -34c12 -4 16.333 -12.667 13 -26
c-13.333 -58.667 -41.833 -106 -85.5 -142s-103.5 -54 -179.5 -54c-59.333 0 -109.5 11.833 -150.5 35.5s-71.833 56.667 -92.5 99s-31 90.833 -31 145.5v196c0 54.667 10.5 103.167 31.5 145.5s52 75.333 93 99s90.833 35.5 149.5 35.5c74 0 132 -17.167 174 -51.5z" />
    <glyph glyph-name="D" unicode="D" horiz-adv-x="697" 
d="M504 695c44.667 -24.667 77.835 -58.001 99.502 -100.001s32.5 -89.667 32.5 -143v-169c0 -54 -10.833 -102.333 -32.5 -145s-54.834 -76.334 -99.501 -101.001s-100.334 -37 -167.001 -37h-239c-4.66699 0 -8.33398 1.33301 -11.001 4s-4 6.33398 -4 11.001v702
c0 4.66699 1.5 8.33398 4.5 11.001s6.83301 4 11.5 4h238c66.667 0 122.334 -12.333 167.001 -37zM239.001 587.999v-444h97c96 0 144 46.667 144 140v164c0 93.333 -48 140 -144 140h-97z" />
    <glyph glyph-name="E" unicode="E" horiz-adv-x="594" 
d="M529 728c2.66699 -2.66699 3.99805 -6.33496 3.99805 -11.002v-109c0 -10.667 -5 -16 -15 -16h-279v-152h250c4.66699 0 8.33398 -1.5 11.001 -4.5s4 -6.83301 4 -11.5v-103c0 -10.667 -5 -16 -15 -16h-250v-165h280c10.667 0 16 -5.33301 16 -16v-109
c0 -10 -5.33301 -15 -16 -15h-420c-4.66699 0 -8.5 1.33301 -11.5 4s-4.5 6.33398 -4.5 11.001v702c0 4.66699 1.5 8.33398 4.5 11.001s6.83301 4 11.5 4h419c4.66699 0 8.33398 -1.33301 11.001 -4z" />
    <glyph glyph-name="F" unicode="F" horiz-adv-x="565" 
d="M519 728c2.66699 -2.66699 4 -6.33496 4 -11.002v-109c0 -10.667 -5 -16 -15 -16h-269v-181h238c10 0 15 -5 15 -15v-103c0 -10.667 -5 -16 -15 -16h-238v-262c0 -10 -5 -15 -15 -15h-126c-4.66699 0 -8.33398 1.33301 -11.001 4s-4 6.33398 -4 11.001v702
c0 4.66699 1.5 8.33398 4.5 11.001s6.83301 4 11.5 4h409c4.66699 0 8.33398 -1.33301 11.001 -4z" />
    <glyph glyph-name="G" unicode="G" horiz-adv-x="685" 
d="M528.5 692c42.333 -34.667 71.832 -78.668 88.499 -132.001c0.666992 -2 1 -5 1 -9c0 -8 -4.33301 -13.667 -13 -17l-108 -32c-2 -0.666992 -5 -1 -9 -1c-7.33301 0 -12.333 4.66699 -15 14c-8.66699 28 -22.667 49.167 -42 63.5s-45 21.5 -77 21.5
c-90.667 0 -136 -47 -136 -141v-186c0 -94 45.333 -141 136 -141c85.333 0 128 41.333 128 124v24h-112c-10 0 -15 5.33301 -15 16v103c0 4.66699 1.33301 8.5 4 11.5s6.33398 4.5 11.001 4.5h244c10.667 0 16 -5 16 -15v-154c0 -48.667 -11.333 -92.667 -34 -132
s-55 -70.166 -97 -92.499s-90.333 -33.5 -145 -33.5c-96 0 -168.667 25.5 -218 76.5s-74 118.833 -74 203.5v196c0 84.667 24.667 152.5 74 203.5s122 76.5 218 76.5c74 0 132.167 -17.333 174.5 -52z" />
    <glyph glyph-name="H" unicode="H" horiz-adv-x="730" 
d="M647 717l0.000976562 -702.004c0 -10 -5 -15 -15 -15h-125c-4.66699 0 -8.5 1.33301 -11.5 4s-4.5 6.33398 -4.5 11.001v279h-252v-279c0 -10 -5 -15 -15 -15h-126c-4.66699 0 -8.33398 1.33301 -11.001 4s-4 6.33398 -4 11.001v702c0 4.66699 1.5 8.33398 4.5 11.001
s6.83301 4 11.5 4h125c10 0 15 -5 15 -15v-279h252v279c0 4.66699 1.5 8.33398 4.5 11.001s6.83301 4 11.5 4h125c10 0 15 -5 15 -15z" />
    <glyph glyph-name="I" unicode="I" horiz-adv-x="322" 
d="M239 717v-702.002c0 -10 -5 -15 -15 -15h-125c-4.66699 0 -8.5 1.33301 -11.5 4s-4.5 6.33398 -4.5 11.001v702c0 4.66699 1.5 8.33398 4.5 11.001s6.83301 4 11.5 4h125c10 0 15 -5 15 -15z" />
    <glyph glyph-name="J" unicode="J" horiz-adv-x="515" 
d="M436 717l-0.00195312 -504.001c0 -70 -19.667 -125 -59 -165s-93.666 -60 -162.999 -60c-76 0 -141 26.667 -195 80c-4.66699 4.66699 -7 9.66699 -7 15c0 4 1.66699 8.33301 5 13l69 79c4.66699 6 9.66699 9 15 9c4.66699 0 9.66699 -2.66699 15 -8
c13.333 -13.333 27.333 -23.833 42 -31.5s31.334 -11.5 50.001 -11.5c22 0 39.5 6.83301 52.5 20.5s19.5 32.5 19.5 56.5v507c0 4.66699 1.5 8.33398 4.5 11.001s6.83301 4 11.5 4h125c10 0 15 -5 15 -15z" />
    <glyph glyph-name="K" unicode="K" horiz-adv-x="672" 
d="M648 14c0 -4 -1.33203 -7.33496 -3.99902 -10.002s-6.33398 -4 -11.001 -4h-137c-6.66699 0 -12 3.66699 -16 11l-154 306l-87 -109v-193c0 -10 -5 -15 -15 -15h-125c-4.66699 0 -8.5 1.33301 -11.5 4s-4.5 6.33398 -4.5 11.001v702c0 4.66699 1.5 8.33398 4.5 11.001
s6.83301 4 11.5 4h125c10 0 15 -5 15 -15v-304l233 307c6.66699 8 14.667 12 24 12h131c4.66699 0 8.16699 -1.16699 10.5 -3.5s3.5 -5.5 3.5 -9.5c0 -2.66699 -1 -5.66699 -3 -9l-213 -268l221 -420c1.33301 -2 2 -4.66699 2 -8z" />
    <glyph glyph-name="L" unicode="L" horiz-adv-x="552" 
d="M239 717l0.000976562 -573.002h275c9.33301 0 14 -5.66699 14 -17v-113c0 -4 -1.16699 -7.33301 -3.5 -10s-5.5 -4 -9.5 -4h-417c-4.66699 0 -8.33398 1.33301 -11.001 4s-4 6.33398 -4 11.001v702c0 4.66699 1.5 8.33398 4.5 11.001s6.83301 4 11.5 4h125
c10 0 15 -5 15 -15z" />
    <glyph glyph-name="M" unicode="M" horiz-adv-x="869" 
d="M780 726.5c4 -3.66699 5.99902 -8.83691 5.99902 -15.5039v-696c0 -10 -5.33301 -15 -16 -15h-111c-4.66699 0 -8.33398 1.33301 -11.001 4s-4 6.33398 -4 11.001v353c0 28.667 1 64.167 3 106.5s4.33301 78.5 7 108.5h-4l-138 -562c-2.66699 -14 -11 -21 -25 -21h-106
c-13.333 0 -21.666 7 -24.999 21l-140 561h-4c8 -91.333 12 -162.666 12 -213.999v-353c0 -10 -5.33301 -15 -16 -15h-110c-4.66699 0 -8.33398 1.33301 -11.001 4s-4 6.33398 -4 11.001v696c0 6.66699 1.83301 11.834 5.5 15.501s8.83398 5.5 15.501 5.5h180
c14 0 22.333 -7 25 -21l86 -342c11.333 -48 19.833 -85.667 25.5 -113s10.5 -57.333 14.5 -90h3c4.66699 34.667 9.83398 66.5 15.501 95.5s13.834 65.167 24.501 108.5l85 341c3.33301 14 11.666 21 24.999 21h176c6.66699 0 12 -1.83301 16 -5.5z" />
    <glyph glyph-name="N" unicode="N" horiz-adv-x="743" 
d="M660 717v-696.001c0 -14 -7 -21 -21 -21h-158c-12.667 0 -22 7 -28 21l-149 330c-28.667 63.333 -55 135.666 -79 216.999h-3c6.66699 -70 10 -137 10 -201v-352c0 -10 -5.33301 -15 -16 -15h-117c-4.66699 0 -8.5 1.33301 -11.5 4s-4.5 6.33398 -4.5 11.001v696
c0 14 7 21 21 21h170c6.66699 0 11.834 -1.66699 15.501 -5s7.16699 -8.66602 10.5 -15.999l143 -330c21.333 -50.667 46.666 -122 75.999 -214h3c-7.33301 66 -11 132.333 -11 199v351c0 10 5.33301 15 16 15h118c10 0 15 -5 15 -15z" />
    <glyph glyph-name="O" unicode="O" horiz-adv-x="707" 
d="M515 707c44 -24.667 76.667 -58.167 98 -100.5s32 -89.833 32 -142.5v-192c0 -54 -10.667 -102.5 -32 -145.5s-53.833 -76.833 -97.5 -101.5s-97.834 -37 -162.501 -37c-95.333 0 -167.666 25.5 -216.999 76.5s-74 118.833 -74 203.5v192c0 86.667 24.5 155.667 73.5 207
s121.5 77 217.5 77c64 0 118 -12.333 162 -37zM218 460v-188c0 -93.333 45 -140 135 -140c48 0 82.667 12.5 104 37.5s32 59.167 32 102.5v188c0 43.333 -10.667 77.5 -32 102.5s-56 37.5 -104 37.5c-90 0 -135 -46.667 -135 -140z" />
    <glyph glyph-name="P" unicode="P" horiz-adv-x="626" 
d="M519.5 668.5c43 -42.333 64.5 -98.834 64.5 -169.501v-50c0 -72.667 -21.333 -129.667 -64 -171s-103.667 -62 -183 -62h-98v-201c0 -10 -5 -15 -15 -15h-125c-4.66699 0 -8.5 1.33301 -11.5 4s-4.5 6.33398 -4.5 11.001v702c0 4 1.5 7.5 4.5 10.5s6.5 4.5 10.5 4.5h239
c78.667 0 139.5 -21.167 182.5 -63.5zM239 591.999v-236h86c37.333 0 63.833 8.33301 79.5 25s23.5 42.667 23.5 78v29c0 34.667 -7.83301 60.667 -23.5 78s-42.167 26 -79.5 26h-86z" />
    <glyph glyph-name="Q" unicode="Q" horiz-adv-x="707" 
d="M603 109.5c-28 -46.333 -69.333 -79.833 -124 -100.5l101 -134c3.33301 -4.66699 5 -8.66699 5 -12c0 -6 -3.66699 -11 -11 -15l-92 -47c-3.33301 -2.66699 -7.33301 -4 -12 -4c-6 0 -11.333 3 -16 9l-139 184c-83.333 6.66699 -146.333 35 -189 85s-64 114.333 -64 193
v192c0 86.667 24.5 155.667 73.5 207s121.5 77 217.5 77c64 0 118 -12.333 162 -37s76.667 -58.167 98 -100.5s32 -89.833 32 -142.5v-192c0 -62 -14 -116.167 -42 -162.5zM489 460c0 43.333 -10.667 77.5 -32 102.5s-56 37.5 -104 37.5c-90 0 -135 -46.667 -135 -140v-188
c0 -93.333 45 -140 135 -140c48 0 82.667 12.5 104 37.5s32 59.167 32 102.5v188z" />
    <glyph glyph-name="R" unicode="R" horiz-adv-x="660" 
d="M624 11c0 -7.33301 -4.33301 -11.0029 -13 -11.0029h-137c-6 0 -10.5 1.16699 -13.5 3.5s-6.16699 6.16602 -9.5 11.499l-127 244h-85v-244c0 -10 -5 -15 -15 -15h-125c-4.66699 0 -8.5 1.33301 -11.5 4s-4.5 6.33398 -4.5 11.001v702c0 4.66699 1.5 8.33398 4.5 11.001
s6.83301 4 11.5 4h258c76.667 0 135.834 -20.167 177.501 -60.5s62.5 -93.833 62.5 -160.5v-30c0 -45.333 -10.333 -85.166 -31 -119.499s-50.334 -60.166 -89.001 -77.499l145 -265c1.33301 -1.33301 2 -4 2 -8zM239 392.997h106.001c64 0 96 30 96 90v20
c0 28.667 -7.83301 50.667 -23.5 66s-39.834 23 -72.501 23h-106v-199z" />
    <glyph glyph-name="S" unicode="S" horiz-adv-x="615" 
d="M471 703c42.667 -27.333 72.665 -66.668 89.998 -118.001c0.666992 -2 1 -4.33301 1 -7c0 -7.33301 -5 -12.666 -15 -15.999l-97 -35c-4 -1.33301 -7 -2 -9 -2c-6.66699 0 -12 4.33301 -16 13c-10 23.333 -23.833 40.5 -41.5 51.5s-40.5 16.5 -68.5 16.5
c-29.333 0 -53 -6.5 -71 -19.5s-27 -30.167 -27 -51.5c0 -14.667 4.33301 -27 13 -37s24.334 -20.333 47.001 -31s57.334 -24 104.001 -40c65.333 -23.333 112.833 -52 142.5 -86s44.5 -77.333 44.5 -130c0 -42 -11.167 -79.833 -33.5 -113.5
s-53.666 -60.334 -93.999 -80.001s-86.166 -29.5 -137.499 -29.5c-70.667 0 -128.167 15.167 -172.5 45.5s-74.5 74.5 -90.5 132.5c-0.666992 1.33301 -1 3.66602 -1 6.99902c0 7.33301 4 12.333 12 15l104 34c5.33301 1.33301 8.66602 2 9.99902 2c7.33301 0 12 -5 14 -15
c12.667 -55.333 53.667 -83 123 -83c32.667 0 58.834 6.83301 78.501 20.5s29.5 31.834 29.5 54.501c0 14 -3.83301 26 -11.5 36s-20.834 19.5 -39.501 28.5s-46.667 20.167 -84 33.5c-52.667 18.667 -94.5 38.667 -125.5 60s-53.667 45.833 -68 73.5
s-21.5 60.834 -21.5 99.501c0 38 10.667 73.333 32 106s51.166 58.5 89.499 77.5s81.833 28.5 130.5 28.5c63.333 0 116.333 -13.667 159 -41z" />
    <glyph glyph-name="T" unicode="T" horiz-adv-x="609" 
d="M578.5 727.5c2.33301 -3 3.5 -6.5 3.5 -10.5v-115c0 -3.33301 -1.16699 -6.5 -3.5 -9.5s-5.5 -4.5 -9.5 -4.5h-186v-573c0 -4 -1.5 -7.5 -4.5 -10.5s-6.5 -4.5 -10.5 -4.5h-128c-4 0 -7.16699 1.5 -9.5 4.5s-3.5 6.5 -3.5 10.5v573h-187c-4 0 -7.16699 1.5 -9.5 4.5
s-3.5 6.16699 -3.5 9.5v115c0 4 1.16699 7.5 3.5 10.5s5.5 4.5 9.5 4.5h529c4 0 7.16699 -1.5 9.5 -4.5z" />
    <glyph glyph-name="U" unicode="U" horiz-adv-x="712" 
d="M635 717v-457.003c0 -51.333 -10.333 -97.5 -31 -138.5s-51.834 -73.5 -93.501 -97.5s-93.167 -36 -154.5 -36c-91.333 0 -160.666 24.833 -207.999 74.5s-71 115.834 -71 198.501v456c0 4.66699 1.5 8.33398 4.5 11.001s6.83301 4 11.5 4h125c10 0 15 -5 15 -15v-451
c0 -89.333 41 -134 123 -134s123 44.667 123 134v451c0 4.66699 1.5 8.33398 4.5 11.001s6.83301 4 11.5 4h125c10 0 15 -5 15 -15z" />
    <glyph glyph-name="V" unicode="V" horiz-adv-x="657" 
d="M238 3.5c-3.33301 2.33301 -5.99805 6.16602 -7.99805 11.499l-209 700c-0.666992 1.33301 -1 3.33301 -1 6c0 3.33301 1.16699 6 3.5 8s4.83301 3 7.5 3h129c6 0 10.333 -1.16699 13 -3.5s5 -6.16602 7 -11.499l96 -340c28 -102 45.333 -175 52 -219h4
c8.66699 48 27 121.667 55 221l95 338c3.33301 10 10.666 15 21.999 15h119c5.33301 0 9 -1.66699 11 -5s2.33301 -7.33301 1 -12l-206 -700c-2.66699 -10 -9.33398 -15 -20.001 -15h-156c-6.66699 0 -11.667 1.16699 -15 3.5z" />
    <glyph glyph-name="W" unicode="W" horiz-adv-x="945" 
d="M903 727c2 -3.33301 2.33008 -7.33301 0.99707 -12l-130 -694c-2.66699 -14 -10.667 -21 -24 -21h-145c-14 0 -22 7 -24 21l-72 332c-8 37.333 -15.667 79 -23 125l-9 49h-2c-10.667 -66 -22 -123.667 -34 -173l-73 -333c-2.66699 -14 -11 -21 -25 -21h-144
c-13.333 0 -21.666 7 -24.999 21l-136 694v2c0 4 1.33301 7.5 4 10.5s6 4.5 10 4.5h124c4.66699 0 8.33398 -1.16699 11.001 -3.5s5 -6.16602 7 -11.499l59 -362c4.66699 -26.667 9.33398 -59.334 14.001 -98.001s8.66699 -73.667 12 -105h3
c13.333 90.667 24.666 158.667 33.999 204l76 355c3.33301 14 11.666 21 24.999 21h122c14 0 22.333 -7 25 -21l74 -357c7.33301 -30.667 18.666 -98 33.999 -202h3c0.666992 4.66699 1.33398 10.167 2.00098 16.5s1.33398 13.833 2.00098 22.5
c8.66699 74 15.334 128.333 20.001 163l59 363c1.33301 10 8 15 20 15h115c4.66699 0 8 -1.66699 10 -5z" />
    <glyph glyph-name="X" unicode="X" horiz-adv-x="668" 
d="M643 12c0 -8 -5.00098 -11.999 -15.001 -11.999h-139c-5.33301 0 -9.66602 0.833008 -12.999 2.5s-6.33301 5.16699 -9 10.5l-134 238l-141 -238c-2.66699 -5.33301 -5.66699 -8.83301 -9 -10.5s-7.66602 -2.5 -12.999 -2.5h-131c-4.66699 0 -8.16699 1 -10.5 3
s-3.5 4.66699 -3.5 8c0 4 1 7.33301 3 10l214 348l-209 342c-2 3.33301 -3 6.66602 -3 9.99902s1.16699 6 3.5 8s5.83301 3 10.5 3h139c5.33301 0 9.5 -0.833008 12.5 -2.5s5.83301 -5.16699 8.5 -10.5l133 -229l137 229c2.66699 5.33301 5.66699 8.83301 9 10.5
s7.66602 2.5 12.999 2.5h130c10 0 15 -4 15 -12c0 -2.66699 -1 -5.66699 -3 -9l-213 -341l215 -349c2 -2.66699 3 -5.66699 3 -9z" />
    <glyph glyph-name="Y" unicode="Y" horiz-adv-x="648" 
d="M636 720c0 -2.66699 -1 -5.66699 -3 -9l-231 -409v-287c0 -10 -5.33301 -15 -16 -15h-126c-9.33301 0 -14 5 -14 15v285l-232 411c-2 3.33301 -3 6.33301 -3 9c0 8 4.66699 12 14 12h136c6 0 10.667 -0.833008 14 -2.5s6.33301 -5.16699 9 -10.5l143 -276l143 276
c2.66699 5.33301 5.66699 8.83301 9 10.5s8 2.5 14 2.5h129c9.33301 0 14 -4 14 -12z" />
    <glyph glyph-name="Z" unicode="Z" horiz-adv-x="610" 
d="M553 718l8.99902 -89v-8c0 -8 -2 -14.667 -6 -20l-321 -457h306c10 0 15 -5 15 -15v-114c0 -10 -5 -15 -15 -15h-468c-12 0 -18.333 4.66699 -19 14l-10 89v7c0 7.33301 2 14.333 6 21l322 457h-299c-10 0 -15 5 -15 15v114c0 10 5 15 15 15h460
c12.667 0 19.334 -4.66699 20.001 -14z" />
    <glyph glyph-name="bracketleft" unicode="[" horiz-adv-x="376" 
d="M337 748v-104c0 -10 -5.33301 -15 -16 -15h-96v-694h96c10.667 0 16 -5 16 -15v-105c0 -10 -5.33301 -15 -16 -15h-232c-10 0 -15 5 -15 15v933c0 10.667 5 16 15 16h232c10.667 0 16 -5.33301 16 -16z" />
    <glyph glyph-name="backslash" unicode="\" horiz-adv-x="449" 
d="M419 -182c0.666992 -2 1 -4.33301 1 -7c0 -7.33301 -4.66699 -11 -14 -11h-100c-10 0 -16.667 5.33301 -20 16l-256 898c-0.666992 2 -1 4.33301 -1 7c0 7.33301 4.66699 11 14 11h100c10 0 16.667 -5.33301 20 -16z" />
    <glyph glyph-name="bracketright" unicode="]" horiz-adv-x="376" 
d="M287 764c4.66699 0 8.33398 -1.49902 11.001 -4.49902s4 -6.83301 4 -11.5v-933c0 -4.66699 -1.33301 -8.33398 -4 -11.001s-6.33398 -4 -11.001 -4h-232c-10.667 0 -16 5 -16 15v105c0 10 5.33301 15 16 15h96v694h-96c-10.667 0 -16 5 -16 15v104
c0 10.667 5.33301 16 16 16h232z" />
    <glyph glyph-name="asciicircum" unicode="^" 
d="M584 295c0 -4.66699 -1.66699 -8.50098 -5 -11.501s-7.33301 -4.5 -12 -4.5h-120c-6.66699 0 -11 2.66699 -13 8l-122 299l-122 -299c-2 -5.33301 -6 -8 -12 -8h-120c-5.33301 0 -9.5 1.33301 -12.5 4s-4.5 6.33398 -4.5 11.001c0 2 0.666992 5 2 9l187 415
c4 9.33301 10.333 14 19 14h126c8.66699 0 15 -4.66699 19 -14l188 -415c1.33301 -4 2 -6.66699 2 -8z" />
    <glyph glyph-name="underscore" unicode="_" horiz-adv-x="468" 
d="M468 -29v-114.002c0 -10 -5 -15 -15 -15h-438c-4.66699 0 -8.33398 1.33301 -11.001 4s-4 6.33398 -4 11.001v114c0 4.66699 1.33301 8.33398 4 11.001s6.33398 4 11.001 4h438c10 0 15 -5 15 -15z" />
    <glyph glyph-name="grave" unicode="`" horiz-adv-x="592" 
d="M191 757c-8 0 -12.001 -3.00098 -12.001 -9.00098c0 -2 1 -4.66699 3 -8l98 -117c3.33301 -4 6.33301 -6.66699 9 -8s6.33398 -2 11.001 -2h77c8.66699 0 13 3.33301 13 10c0 2.66699 -1 5.33398 -3 8.00098l-77 115c-2.66699 4 -5.16699 6.83301 -7.5 8.5
s-5.5 2.5 -9.5 2.5h-102z" />
    <glyph glyph-name="a" unicode="a" horiz-adv-x="569" 
d="M448 517.5c37.333 -32.333 56.001 -79.501 56.001 -141.501v-361c0 -4.66699 -1.33301 -8.33398 -4 -11.001s-6.33398 -4 -11.001 -4h-110c-4.66699 0 -8.5 1.33301 -11.5 4s-4.5 6.33398 -4.5 11.001v59c-16.667 -26.667 -38 -47.5 -64 -62.5s-55.333 -22.5 -88 -22.5
c-52 0 -93.5 15.5 -124.5 46.5s-46.5 72.167 -46.5 123.5s17.333 91.333 52 120s89.667 45.667 165 51c12 1.33301 30.333 2 55 2c20 0 35 -0.333008 45 -1v40c0 26 -6.5 45 -19.5 57s-31.833 18 -56.5 18c-22.667 0 -39.167 -4 -49.5 -12s-19.166 -21 -26.499 -39
c-2.66699 -6 -5.33398 -9.66699 -8.00098 -11s-6.66699 -1.33301 -12 0l-110 28c-8.66699 2.66699 -12 8.33398 -10 17.001c8 41.333 31 74.5 69 99.5s89 37.5 153 37.5c70 0 123.667 -16.167 161 -48.5zM316.501 128.999c18.333 13.333 31.833 32.665 40.5 57.998v52
c-40 0 -69.333 -1 -88 -3c-29.333 -3.33301 -51 -10.166 -65 -20.499s-21 -25.833 -21 -46.5c0 -19.333 6 -34.166 18 -44.499s29 -15.5 51 -15.5c24.667 0 46.167 6.66699 64.5 20z" />
    <glyph glyph-name="b" unicode="b" horiz-adv-x="615" 
d="M217 760c2.66699 -2.66699 3.99902 -6.00098 3.99902 -10.001v-264c11.333 20.667 30.5 38.834 57.5 54.501s58.5 23.5 94.5 23.5c37.333 0 70.166 -9.16699 98.499 -27.5s50.333 -44 66 -77s23.5 -70.5 23.5 -112.5v-144c0 -64.667 -17.5 -116.667 -52.5 -156
s-82.167 -59 -141.5 -59c-34.667 0 -65.5 7.66699 -92.5 23s-46.833 33.333 -59.5 54v-51c0 -4 -1.16699 -7.33301 -3.5 -10s-5.83301 -4 -10.5 -4h-117c-10 0 -15 4.66699 -15 14v736c0 4 1.33301 7.33301 4 10s6.33398 4 11.001 4h122
c4.66699 0 8.33398 -1.33301 11.001 -4zM247.999 402.499c-18 -19.667 -27 -46.166 -27 -79.499v-97c0 -32.667 9 -58.334 27 -77.001s41 -28 69 -28c61.333 0 92 34.667 92 104v98c0 34 -7.5 60.667 -22.5 80s-38.167 29 -69.5 29c-28 0 -51 -9.83301 -69 -29.5z" />
    <glyph glyph-name="c" unicode="c" horiz-adv-x="548" 
d="M438 520.5c41.333 -30.333 65.334 -72.167 72.001 -125.5v-4c0 -7.33301 -5 -12.333 -15 -15l-94 -26l-12 -2c-4 0 -6.83301 1 -8.5 3s-3.16699 5.33301 -4.5 10c-0.666992 2 -3.16699 10 -7.5 24s-13.166 25.5 -26.499 34.5s-30.666 13.5 -51.999 13.5
c-28.667 0 -50.167 -9.16699 -64.5 -27.5s-21.5 -43.5 -21.5 -75.5v-109c0 -66.667 28.667 -100 86 -100c28 0 48 5.5 60 16.5s21.667 27.833 29 50.5c2.66699 9.33301 6.66699 14 12 14c3.33301 0 7.33301 -1 12 -3l96 -33c6.66699 -2 10.667 -4.83301 12 -8.5
s1.33301 -8.5 0 -14.5c-4.66699 -27.333 -16.834 -52.833 -36.501 -76.5s-46 -42.667 -79 -57s-71.5 -21.5 -115.5 -21.5c-46.667 0 -87.334 9.66699 -122.001 29s-61 46 -79 80s-27 72.667 -27 116v124c0 43.333 9.16699 82.333 27.5 117s44.666 62 78.999 82
s74.833 30 121.5 30c64 0 116.667 -15.167 158 -45.5z" />
    <glyph glyph-name="d" unicode="d" horiz-adv-x="615" 
d="M106.5 47c-35 39.333 -52.501 91.334 -52.501 156.001v144c0 42 7.83301 79.5 23.5 112.5s37.667 58.667 66 77s61.166 27.5 98.499 27.5c36 0 67.5 -7.83301 94.5 -23.5s46.167 -33.834 57.5 -54.501v264c0 4 1.33301 7.33301 4 10s6.33398 4 11.001 4h122
c4.66699 0 8.33398 -1.33301 11.001 -4s4 -6 4 -10v-736c0 -9.33301 -5 -14 -15 -14h-117c-4.66699 -0 -8.16699 1.33301 -10.5 4s-3.5 6 -3.5 10v51c-12.667 -20.667 -32.5 -38.667 -59.5 -54s-57.833 -23 -92.5 -23c-59.333 0 -106.5 19.667 -141.5 59zM366.999 149.001
c18 18.667 26.999 44.333 26.999 77v97c0 33.333 -9 59.833 -27 79.5s-41 29.5 -69 29.5c-31.333 0 -54.666 -9.66699 -69.999 -29s-23 -46 -23 -80v-98c0 -69.333 31 -104 93 -104c28 0 51 9.33301 69 28z" />
    <glyph glyph-name="e" unicode="e" horiz-adv-x="576" 
d="M196 231l0.00195312 -20.999c0 -30.667 8.33301 -54.834 25 -72.501s42 -26.5 76 -26.5c31.333 0 54.166 4.83301 68.499 14.5s26.833 24.5 37.5 44.5c3.33301 5.33301 6 9 8 11s4.66699 3 8 3s7.66602 -1.33301 12.999 -4l79 -40
c9.33301 -4.66699 14 -10.334 14 -17.001c0 -4 -1.33301 -8.66699 -4 -14c-16.667 -38 -45 -67.667 -85 -89s-86.667 -32 -140 -32c-52 0 -96.333 9.5 -133 28.5s-64.334 45.5 -83.001 79.5s-28 73 -28 117v128c0 43.333 9 81.833 27 115.5s45.333 60.334 82 80.001
s81.334 29.5 134.001 29.5c50 0 92.5 -9.66699 127.5 -29s61.167 -45.833 78.5 -79.5s26 -71.5 26 -113.5v-88c0 -8 -1.83301 -14.167 -5.5 -18.5s-10.5 -6.5 -20.5 -6.5h-305zM220.502 417.501c-16.333 -17.667 -24.501 -40.834 -24.501 -69.501v-19h193v19
c0 28.667 -8.16699 51.834 -24.5 69.501s-40.166 26.5 -71.499 26.5c-32 0 -56.167 -8.83301 -72.5 -26.5z" />
    <glyph glyph-name="f" unicode="f" horiz-adv-x="413" 
d="M385 759.5c2.66699 -3 4 -6.16797 4 -9.50098v-93c0 -3.33301 -1.16699 -6.5 -3.5 -9.5s-5.5 -4.5 -9.5 -4.5h-54c-20.667 0 -35.167 -3.83301 -43.5 -11.5s-12.5 -19.167 -12.5 -34.5v-48h111c4 0 7 -1.33301 9 -4s3 -5.66699 3 -9v-95c0 -4 -1.5 -7.33301 -4.5 -10
s-6.5 -4 -10.5 -4h-108v-412c0 -10 -4.66699 -15 -14 -15h-121c-4.66699 0 -8.5 1.33301 -11.5 4s-4.5 6.33398 -4.5 11.001v412h-73c-4 0 -7.33301 1.5 -10 4.5s-4 6.16699 -4 9.5v95c0 3.33301 1.33301 6.33301 4 9s6 4 10 4h73v42c0 54.667 15.167 97 45.5 127
s74.833 45.333 133.5 46h78c6 0 10.333 -1.5 13 -4.5z" />
    <glyph glyph-name="g" unicode="g" horiz-adv-x="570" 
d="M497.5 78.5c31 -27 46.5029 -63.8369 46.5029 -110.504c0 -52.667 -21.833 -95.5 -65.5 -128.5s-111.834 -49.5 -204.501 -49.5c-161.333 0 -242 49 -242 147c0 24 7.5 45.833 22.5 65.5s36.833 35.167 65.5 46.5c-13.333 10.667 -23.333 22.834 -30 36.501
s-10 26.834 -10 39.501c0 18 4.66699 34.167 14 48.5s23 25.833 41 34.5c-28.667 16 -50.334 37.333 -65.001 64s-22 56.334 -22 89.001c0 58 18.667 104.667 56 140s93 53 167 53h254c3.33301 0 6.16602 -1.5 8.49902 -4.5s3.5 -6.16699 3.5 -9.5v-88
c0 -4 -1.66699 -7.33301 -5 -10s-7 -4 -11 -4h-78c12.667 -12 22.667 -26.667 30 -44s11 -35.666 11 -54.999c0 -47.333 -17.667 -86.5 -53 -117.5s-87.333 -46.833 -156 -47.5h-29c-26.667 0 -40 -9 -40 -27c0 -8 3.33301 -14.333 10 -19s16.667 -7 30 -7l110 -1
c63.333 -0.666992 110.5 -14.5 141.5 -41.5zM205.003 421.496c-14.667 -14.333 -21.999 -34.501 -21.999 -60.501s7.5 -46.5 22.5 -61.5s36.833 -22.5 65.5 -22.5c27.333 0 48.333 7.33301 63 22s22 35.334 22 62.001c0 25.333 -7.33301 45.333 -22 60s-36 22 -64 22
c-28.667 0 -50.334 -7.16699 -65.001 -21.5zM371.004 -93.5049c19.333 11.667 29 27.166 29 46.499c0 14.667 -5.16699 26.834 -15.5 36.501s-27.166 14.5 -50.499 14.5h-101c-21.333 0 -37.333 -5 -48 -15s-16 -22.333 -16 -37c0 -42 38 -63 114 -63
c39.333 0 68.666 5.83301 87.999 17.5z" />
    <glyph glyph-name="h" unicode="h" horiz-adv-x="607" 
d="M217 760c2.66699 -2.66699 4.00098 -6.33203 4.00098 -10.999v-273c17.333 26 39.333 47.167 66 63.5s57.667 24.5 93 24.5c51.333 0 91.166 -17.5 119.499 -52.5s42.5 -81.833 42.5 -140.5l-1 -356c0 -10 -4.66699 -15 -14 -15h-121c-10 0 -15 5 -15 15l-1 330
c0 25.333 -5.83301 45.166 -17.5 59.499s-28.834 21.5 -51.501 21.5c-23.333 0 -43.833 -7.83301 -61.5 -23.5s-30.5 -36.834 -38.5 -63.501v-324c0 -4.66699 -1.5 -8.33398 -4.5 -11.001s-6.5 -4 -10.5 -4h-121c-4.66699 0 -8.5 1.33301 -11.5 4s-4.5 6.33398 -4.5 11.001
v734c0 4.66699 1.5 8.33398 4.5 11.001s6.83301 4 11.5 4h121c4.66699 0 8.33398 -1.33301 11.001 -4z" />
    <glyph glyph-name="i" unicode="i" horiz-adv-x="290" 
d="M215.5 758.5c3.66699 -3.66699 5.5 -8.83398 5.5 -15.501v-94c0 -6.66699 -1.83301 -11.834 -5.5 -15.501s-8.83398 -5.5 -15.501 -5.5h-110c-6.66699 0 -11.834 1.83301 -15.501 5.5s-5.5 8.83398 -5.5 15.501v94c0 6.66699 1.83301 11.834 5.5 15.501
s8.83398 5.5 15.501 5.5h110c6.66699 0 11.834 -1.83301 15.501 -5.5zM217 550c2.66699 -2.66699 4 -6.33398 4 -11.001v-524c0 -4.66699 -1.33301 -8.33398 -4 -11.001s-6.33398 -4 -11.001 -4h-121c-4.66699 0 -8.5 1.33301 -11.5 4s-4.5 6.33398 -4.5 11.001v524
c0 4.66699 1.5 8.33398 4.5 11.001s6.83301 4 11.5 4h121c4.66699 0 8.33398 -1.33301 11.001 -4z" />
    <glyph glyph-name="j" unicode="j" horiz-adv-x="291" 
d="M221 743v-94.002c0 -14 -6.66699 -21 -20 -21h-110c-6.66699 0 -11.834 1.83301 -15.501 5.5s-5.5 8.83398 -5.5 15.501v94c0 6.66699 1.83301 11.834 5.5 15.501s8.83398 5.5 15.501 5.5h110c13.333 0 20 -7 20 -21zM221 538.998l0.00195312 -464.001
c0 -62 -10.667 -117 -32 -165s-48 -87 -80 -117c-4.66699 -4.66699 -9.33398 -7 -14.001 -7c-4 0 -9 2 -15 6l-84 66c-4 4 -6 8 -6 12c0 4.66699 2.33301 9.66699 7 15l25 26c13.333 14 24.666 34 33.999 60s14 57 14 93v475c0 4.66699 1.5 8.33398 4.5 11.001
s6.83301 4 11.5 4h121c9.33301 0 14 -5 14 -15z" />
    <glyph glyph-name="k" unicode="k" horiz-adv-x="577" 
d="M558 13c0 -3.33301 -1.33105 -6.33301 -3.99805 -9s-6 -4 -10 -4h-131c-8.66699 -0 -15.334 4.33301 -20.001 13l-107 210l-65 -77v-131c0 -4.66699 -1.33301 -8.33398 -4 -11.001s-6.33398 -4 -11.001 -4h-122c-4.66699 0 -8.33398 1.33301 -11.001 4
s-4 6.33398 -4 11.001v735c0 4.66699 1.33301 8.33398 4 11.001s6.33398 4 11.001 4h122c4.66699 0 8.33398 -1.33301 11.001 -4s4 -6.33398 4 -11.001v-421l163 210c5.33301 5.33301 10.166 9.16602 14.499 11.499s9.83301 3.5 16.5 3.5h125c4 0 7.33301 -1.16699 10 -3.5
s4 -5.16602 4 -8.49902s-1 -6 -3 -8l-165 -193l170 -320c1.33301 -4 2 -6.66699 2 -8z" />
    <glyph glyph-name="l" unicode="l" horiz-adv-x="290" 
d="M217 761c2.66699 -2.66699 4 -6.33398 4 -11.001v-735c0 -4.66699 -1.33301 -8.33398 -4 -11.001s-6.33398 -4 -11.001 -4h-121c-4.66699 0 -8.5 1.33301 -11.5 4s-4.5 6.33398 -4.5 11.001v735c0 4.66699 1.5 8.33398 4.5 11.001s6.83301 4 11.5 4h121
c4.66699 0 8.33398 -1.33301 11.001 -4z" />
    <glyph glyph-name="m" unicode="m" horiz-adv-x="883" 
d="M367 566c34 0 62.6641 -8.99707 85.9971 -26.9971s40.333 -42.333 51 -73c22 32 46 56.667 72 74s55.667 26 89 26c48 0 85.333 -17.333 112 -52s40 -81.334 40 -140.001v-359c0 -4.66699 -1.66699 -8.33398 -5 -11.001s-7.66602 -4 -12.999 -4h-115
c-5.33301 0 -9.66602 1.33301 -12.999 4s-5 6.33398 -5 11.001v333c0 25.333 -5.33301 45 -16 59s-25.667 21 -45 21c-20 0 -37.333 -7.66699 -52 -23s-26 -36.333 -34 -63v-327c0 -4.66699 -1.33301 -8.33398 -4 -11.001s-6 -4 -10 -4h-124c-8.66699 0 -13 5 -13 15v333
c0 25.333 -5.33301 45 -16 59s-25.667 21 -45 21c-20.667 0 -38.334 -7.83301 -53.001 -23.5s-25.667 -36.834 -33 -63.501v-326c0 -10 -5 -15 -15 -15h-122c-10 0 -15 5 -15 15v525c0 4 1.33301 7.33301 4 10s6.33398 4 11.001 4h117c4.66699 0 8.33398 -1.33301 11.001 -4
s4 -6 4 -10v-63c42.667 59.333 93 89 151 89z" />
    <glyph glyph-name="n" unicode="n" horiz-adv-x="607" 
d="M258.5 404.5c-17.667 -15.667 -30.168 -36.832 -37.501 -63.499v-326c0 -4.66699 -1.33301 -8.33398 -4 -11.001s-6.33398 -4 -11.001 -4h-121c-4.66699 -0 -8.5 1.33301 -11.5 4s-4.5 6.33398 -4.5 11.001v525c0 4 1.33301 7.33301 4 10s6.33398 4 11.001 4h117
c4.66699 0 8.33398 -1.33301 11.001 -4s4 -6 4 -10v-63c18.667 26 41.834 47.333 69.501 64s59.167 25 94.5 25c51.333 0 91.166 -17.5 119.499 -52.5s42.5 -82.167 42.5 -141.5v-357c0 -10 -5 -15 -15 -15h-121c-10 0 -15 5 -15 15v332
c0 25.333 -6.16699 45.166 -18.5 59.499s-29.833 21.5 -52.5 21.5c-23.333 0 -43.833 -7.83301 -61.5 -23.5z" />
    <glyph glyph-name="o" unicode="o" horiz-adv-x="592" 
d="M478.5 503c41 -42 61.5 -97.333 61.5 -166v-120c0 -70 -20.333 -125.667 -61 -167s-101.667 -62 -183 -62c-80.667 0 -141.5 20.5 -182.5 61.5s-61.5 95.5 -61.5 163.5v120c0 70.667 20.5 127.167 61.5 169.5s101.833 63.5 182.5 63.5s141.5 -21 182.5 -63zM227 405.5
c-15.333 -18.333 -23.001 -43.5 -23.001 -75.5v-109c0 -32 7.5 -56.667 22.5 -74s38.167 -26 69.5 -26c62 0 93 33.333 93 100v109c0 32 -7.66699 57.167 -23 75.5s-38.666 27.5 -69.999 27.5c-30.667 0 -53.667 -9.16699 -69 -27.5z" />
    <glyph glyph-name="p" unicode="p" horiz-adv-x="615" 
d="M84 -200c-10 0 -15.0029 4.66504 -15.0029 13.998v726c0 9.33301 5 14 15 14h118c4.66699 0 8.16699 -1.33301 10.5 -4s3.5 -6 3.5 -10v-51c12.667 20 32.334 37.833 59.001 53.5s57.334 23.5 92.001 23.5c59.333 0 106.5 -19.667 141.5 -59s52.5 -91.666 52.5 -156.999
v-144c0 -42.667 -7.83301 -80.5 -23.5 -113.5s-37.667 -58.667 -66 -77s-61.166 -27.5 -98.499 -27.5c-36 0 -67.5 7.83301 -94.5 23.5s-46.167 33.834 -57.5 54.501v-252c0 -9.33301 -5 -14 -15 -14h-122zM386.497 149.498c15 19 22.5 45.834 22.5 80.501v98
c0 70 -30.667 105 -92 105c-28 0 -51 -9.33301 -69 -28s-27 -44.334 -27 -77.001v-98c0 -34 9 -60.667 27 -80s41 -29 69 -29c31.333 0 54.5 9.5 69.5 28.5z" />
    <glyph glyph-name="q" unicode="q" horiz-adv-x="615" 
d="M394 -186l-0.00292969 252.002c-11.333 -20.667 -30.5 -38.834 -57.5 -54.501s-58.5 -23.5 -94.5 -23.5c-37.333 0 -70.166 9.16699 -98.499 27.5s-50.333 44 -66 77s-23.5 70.833 -23.5 113.5v144c0 65.333 17.5 117.666 52.5 156.999s82.167 59 141.5 59
c34.667 0 65.334 -7.83301 92.001 -23.5s46.334 -33.5 59.001 -53.5v51c0 4 1.16699 7.33301 3.5 10s5.83301 4 10.5 4h118c10 0 15 -4.66699 15 -14v-726c0 -9.33301 -5 -14 -15 -14h-122c-10 0 -15 4.66699 -15 14zM366.997 150.002
c18 19.333 27.001 45.999 27.001 79.999v98c0 32.667 -9 58.334 -27 77.001s-41 28 -69 28c-62 0 -93 -35 -93 -105v-98c0 -34.667 7.66699 -61.5 23 -80.5s38.666 -28.5 69.999 -28.5c28 0 51 9.66699 69 29z" />
    <glyph glyph-name="r" unicode="r" horiz-adv-x="420" 
d="M393.5 558c3 -2 4.5 -6.66504 4.5 -13.998v-107c0 -6.66699 -1.33301 -11.334 -4 -14.001s-7.33398 -4 -14.001 -4h-16c-39.333 0 -71 -8.33301 -95 -25s-40 -40.334 -48 -71.001v-308c0 -4.66699 -1.33301 -8.33398 -4 -11.001s-5.66699 -4 -9 -4h-126
c-3.33301 0 -6.33301 1.33301 -9 4s-4 6.33398 -4 11.001v525c0 9.33301 5 14 15 14h114c10 0 15 -5.33301 15 -16v-74c14.667 28 35.334 51.167 62.001 69.5s59.667 27.5 99 27.5c10 0 16.5 -1 19.5 -3z" />
    <glyph glyph-name="s" unicode="s" horiz-adv-x="538" 
d="M408.5 530.5c39 -23.667 66.167 -56.8301 81.5 -99.4971c0.666992 -1.33301 1 -3.33301 1 -6c0 -7.33301 -4.33301 -12 -13 -14l-92 -33c-4 -1.33301 -6.33301 -2 -7 -2c-5.33301 0 -9.66602 4.33301 -12.999 13c-7.33301 19.333 -19 34.166 -35 44.499
s-36 15.5 -60 15.5c-23.333 0 -41.666 -4.16699 -54.999 -12.5s-20 -19.5 -20 -33.5c0 -10 3.16699 -18 9.5 -24s18.166 -12 35.499 -18s44.333 -14 81 -24c61.333 -16.667 105.833 -38.667 133.5 -66s41.5 -63.333 41.5 -108c0 -53.333 -20.333 -96 -61 -128
s-95 -48 -163 -48c-61.333 0 -112.833 11.667 -154.5 35s-69.5 56 -83.5 98c-0.666992 2 -1 4.66699 -1 8s1.16699 6.16602 3.5 8.49902s6.16602 4.83301 11.499 7.5l81 40c4 2 7.33301 3 10 3c6 0 11 -5 15 -15c7.33301 -21.333 20.833 -38 40.5 -50s43.5 -18 71.5 -18
s49.333 4.16699 64 12.5s22 20.166 22 35.499c0 14.667 -9.16699 27 -27.5 37s-52.5 21.667 -102.5 35c-60.667 16 -104.5 37.167 -131.5 63.5s-40.5 61.166 -40.5 104.499c0 52.667 19.667 94.834 59 126.501s91.333 47.5 156 47.5c56 0 103.5 -11.833 142.5 -35.5z" />
    <glyph glyph-name="t" unicode="t" horiz-adv-x="414" 
d="M255 671v-122h103c10.667 0 16 -5.33301 16 -16v-90c0 -10.667 -5.33301 -16 -16 -16h-103v-245c0 -33.333 19.333 -50 58 -50h45c10.667 0 16 -5 16 -15v-102c0 -10 -5.33301 -15 -16 -15h-69c-60 0 -105.333 14.5 -136 43.5s-46 68.5 -46 118.5v265h-64
c-10.667 0 -16 5.33301 -16 16v90c0 10.667 5.33301 16 16 16h66v122c0 10 5 15 15 15h117c9.33301 0 14 -5 14 -15z" />
    <glyph glyph-name="u" unicode="u" horiz-adv-x="607" 
d="M108 41c-28.667 35.333 -43.001 82.3301 -43.001 140.997v357c0 4.66699 1.5 8.33398 4.5 11.001s6.83301 4 11.5 4h120c4.66699 0 8.5 -1.33301 11.5 -4s4.5 -6.33398 4.5 -11.001v-332c0 -25.333 6 -45.166 18 -59.499s29.667 -21.5 53 -21.5
c22.667 0 42.834 7.83301 60.501 23.5s30.5 36.834 38.5 63.501v326c0 4.66699 1.33301 8.33398 4 11.001s6.33398 4 11.001 4h121c10 0 15 -5 15 -15v-525c0 -4 -1.16699 -7.33301 -3.5 -10s-5.83301 -4 -10.5 -4h-118c-4.66699 -0 -8.33398 1.33301 -11.001 4s-4 6 -4 10
v63c-18 -26 -40.833 -47.333 -68.5 -64s-59.167 -25 -94.5 -25c-51.333 0 -91.333 17.667 -120 53z" />
    <glyph glyph-name="v" unicode="v" horiz-adv-x="564" 
d="M543 548c2.66699 -4 3 -8.66699 1 -14l-169 -520c-3.33301 -9.33301 -10 -14 -20 -14h-145c-10.667 0 -17.667 4.66699 -21 14l-167 520c-0.666992 1.33301 -1 3.33301 -1 6c0 4 1.33301 7.33301 4 10s5.66699 4 9 4h127c9.33301 0 15.666 -4.66699 18.999 -14l57 -203
c22 -78 38 -149.333 48 -214h2c2.66699 25.333 8.33398 57.5 17.001 96.5s18.667 78.167 30 117.5l58 203c3.33301 9.33301 9.33301 14 18 14h121c5.33301 0 9.33301 -2 12 -6z" />
    <glyph glyph-name="w" unicode="w" horiz-adv-x="792" 
d="M768 537l-130.001 -523c-1.33301 -4.66699 -3.33301 -8.16699 -6 -10.5s-7 -3.5 -13 -3.5h-137c-8.66699 0 -14.334 4.66699 -17.001 14l-32 135c-21.333 87.333 -34.333 158.666 -39 213.999h-2c-4 -35.333 -14.333 -94 -31 -176l-8 -37l-28 -136
c-2 -9.33301 -8 -14 -18 -14h-135c-10 0 -16 5 -18 15l-130 523l-1 6c0 6.66699 4 10 12 10h122c5.33301 0 9.5 -1.16699 12.5 -3.5s4.83301 -6.16602 5.5 -11.499l43 -225c12 -63.333 21 -127.666 27 -192.999h2c6.66699 76.667 16.334 141 29.001 193l55 226
c2.66699 9.33301 8.33398 14 17.001 14h108c9.33301 0 15 -5 17 -15l52 -226c12 -53.333 21.333 -117.333 28 -192h2c6 65.333 15.333 129.666 28 192.999l46 225c2 10 7.66699 15 17 15h110c10.667 0 14.667 -5.66699 12 -17z" />
    <glyph glyph-name="x" unicode="x" horiz-adv-x="559" 
d="M537 13c0 -8.66699 -4.66113 -12.998 -13.9941 -12.998h-129c-6.66699 0 -11.834 1 -15.501 3s-6.83398 5 -9.50098 9l-92 155l-91 -155c-2.66699 -4 -5.83398 -7 -9.50098 -9s-8.83398 -3 -15.501 -3h-122c-4 0 -7.33301 1.16699 -10 3.5s-4 5.16602 -4 8.49902
c0 4 1.33301 7.66699 4 11l167 255l-168 253c-2.66699 3.33301 -4 7 -4 11c0 3.33301 1.33301 6.16602 4 8.49902s6 3.5 10 3.5h130c6.66699 0 11.667 -1 15 -3s6.66602 -5.33301 9.99902 -10l90 -148l87 149c2.66699 4 5.66699 7 9 9s8.66602 3 15.999 3h122
c8.66699 0 13 -4.33301 13 -13c0 -2.66699 -1 -6 -3 -10l-164 -251l171 -257c2 -4 3 -7.33301 3 -10z" />
    <glyph glyph-name="y" unicode="y" horiz-adv-x="564" 
d="M546.5 548c3 -4 3.50098 -9 1.50098 -15l-181 -490c-22 -59.333 -47 -110 -75 -152s-61 -75.667 -99 -101c-7.33301 -4.66699 -13.333 -7 -18 -7s-9.33398 2.33301 -14.001 7l-71 71c-4 4 -6 8.33301 -6 13c0 6 3 11.333 9 16c34 25.333 60 48.333 78 69s32 47.667 42 81
l-198 494c-0.666992 1.33301 -1 3.33301 -1 6c0 4 1.33301 7.33301 4 10s6.33398 4 11.001 4h129c10 0 16.333 -5 19 -15l49 -142c16.667 -47.333 29.667 -87.333 39 -120s17 -64.667 23 -96h3c6.66699 32 13.5 60.5 20.5 85.5s16.5 56.5 28.5 94.5l11 36l45 143
c3.33301 9.33301 9.66602 14 18.999 14h119c5.33301 0 9.5 -2 12.5 -6z" />
    <glyph glyph-name="z" unicode="z" horiz-adv-x="522" 
d="M469 540l6.99902 -69.001v-7c0 -9.33301 -2 -16.333 -6 -21l-235 -315h226c4 0 7.33301 -1.16699 10 -3.5s4 -5.16602 4 -8.49902v-102c0 -4 -1.5 -7.33301 -4.5 -10s-6.5 -4 -10.5 -4h-392c-11.333 -0 -17.333 4.33301 -18 13l-7 70v9c0 8 2 14.333 6 19l235 315h-219
c-3.33301 0 -6.66602 1.5 -9.99902 4.5s-5 6.16699 -5 9.5v101c0 3.33301 1 6.33301 3 9s5 4 9 4h388c12 0 18.333 -4.66699 19 -14z" />
    <glyph glyph-name="braceleft" unicode="{" horiz-adv-x="427" 
d="M388 748v-103.999c0 -10 -5 -15 -15 -15h-47c-34.667 0 -52 -17.333 -52 -52l1 -168c0 -35.333 -10 -63.333 -30 -84s-44.333 -34.667 -73 -42v-2c28.667 -8 53 -22.167 73 -42.5s30 -48.166 30 -83.499l-1 -168c0 -34.667 17.333 -52 52 -52h47c10 0 15 -5 15 -15v-104
c0 -10.667 -5 -16 -15 -16h-87c-34.667 0 -64.334 7.83301 -89.001 23.5s-43.334 35.667 -56.001 60s-19 49.166 -19 74.499l2 182c0 21.333 -6.5 38.166 -19.5 50.499s-33.833 18.5 -62.5 18.5c-10 0 -15 5.33301 -15 16v114c0 10.667 5 16 15 16
c28.667 0 49.5 6.33301 62.5 19s19.5 29.667 19.5 51l-2 182c0 24.667 6.33301 49.167 19 73.5s31.334 44.333 56.001 60s54.334 23.5 89.001 23.5h87c10 0 15 -5.33301 15 -16z" />
    <glyph glyph-name="bar" unicode="|" horiz-adv-x="281" 
d="M208 717v-905c0 -10 -5.33301 -15 -16 -15h-103c-10 0 -15 5 -15 15v905c0 10 5 15 15 15h103c10.667 0 16 -5 16 -15z" />
    <glyph glyph-name="braceright" unicode="}" horiz-adv-x="427" 
d="M141 764c34.667 0 64.498 -7.83398 89.498 -23.501s43.667 -35.5 56 -59.5s18.5 -48.667 18.5 -74l-2 -182c0 -21.333 6.5 -38.333 19.5 -51s33.833 -19 62.5 -19c10 0 15 -5.33301 15 -16v-114c0 -10.667 -5 -16 -15 -16c-28.667 0 -49.5 -6.16699 -62.5 -18.5
s-19.5 -29.166 -19.5 -50.499l2 -182c0 -25.333 -6.16699 -50.166 -18.5 -74.499s-31 -44.333 -56 -60s-54.833 -23.5 -89.5 -23.5h-87c-10 0 -15 5.33301 -15 16v104c0 10 5 15 15 15h47c16.667 0 29.667 4.33301 39 13s14 21.667 14 39l-1 168
c0 35.333 9.83301 63.166 29.5 83.499s43.834 34.5 72.501 42.5v2c-28 7.33301 -52 21.333 -72 42s-30 48.667 -30 84l1 168c0 17.333 -4.66699 30.333 -14 39s-22.333 13 -39 13h-47c-10 0 -15 5 -15 15v104c0 4.66699 1.33301 8.5 4 11.5s6.33398 4.5 11.001 4.5h87z" />
    <glyph glyph-name="asciitilde" unicode="~" 
d="M456.5 371.5c9.66699 8.33301 18.8311 22.833 27.498 43.5c1.33301 4 4 6.83301 8 8.5s8.33301 1.5 13 -0.5l83 -37c3.33301 -1.33301 5.66602 -3.83301 6.99902 -7.5s1.33301 -7.16699 0 -10.5c-14 -47.333 -34.833 -83.833 -62.5 -109.5s-64.167 -38.5 -109.5 -38.5
c-22 0 -42.167 3.33301 -60.5 10s-40.833 16.334 -67.5 29.001c-18 9.33301 -33 16.333 -45 21s-23.667 7 -35 7c-18 0 -32.167 -4.33301 -42.5 -13s-19.5 -23 -27.5 -43c-1.33301 -3.33301 -4.16602 -5.83301 -8.49902 -7.5s-8.16602 -1.83398 -11.499 -0.500977l-85 38
c-3.33301 1.33301 -5.66602 3.83301 -6.99902 7.5s-1.33301 7.5 0 11.5c30.667 98 88 147 172 147c22.667 0 43.5 -3.5 62.5 -10.5s41.167 -16.833 66.5 -29.5c19.333 -10 35 -17.167 47 -21.5s23.667 -6.5 35 -6.5c17.333 0 30.833 4.16699 40.5 12.5z" />
    <glyph glyph-name="uni00A0" unicode="&#xa0;" horiz-adv-x="251" 
 />
    <glyph glyph-name="exclamdown" unicode="&#xa1;" horiz-adv-x="283" 
d="M86 366c-5.33301 0 -9.5 1.83203 -12.5 5.49902s-4.5 8.16699 -4.5 13.5v143c0 6 1.66699 10.667 5 14s7.33301 5 12 5h109c5.33301 0 9.83301 -1.66699 13.5 -5s5.5 -7.66602 5.5 -12.999v-144c0 -5.33301 -1.83301 -9.83301 -5.5 -13.5s-8.16699 -5.5 -13.5 -5.5h-109z
M81 -185.001c-6 0 -10.333 1.66602 -13 4.99902s-4 8.33301 -4 15c0 49.333 3.5 122.833 10.5 220.5s13.167 166.834 18.5 207.501c2 11.333 8 17 18 17h61c10.667 0 16.667 -5.66699 18 -17c5.33301 -46.667 11.5 -117.667 18.5 -213s10.5 -167 10.5 -215
c0 -6.66699 -1.83301 -11.667 -5.5 -15s-8.5 -5 -14.5 -5h-118z" />
    <glyph glyph-name="cent" unicode="&#xa2;" 
d="M548 233c0 -3.33301 -0.333008 -5.99902 -1 -7.99902c-7.33301 -32.667 -24.5 -62 -51.5 -88s-61.5 -44 -103.5 -54v-67c0 -10.667 -5.33301 -16 -16 -16h-102c-10.667 0 -16 5.33301 -16 16v64c-54.667 11.333 -97.167 36.333 -127.5 75s-45.5 86 -45.5 142v88
c0 56.667 15.167 104.667 45.5 144s72.833 64.666 127.5 75.999v83c0 10.667 5.33301 16 16 16h102c10.667 0 16 -5.33301 16 -16v-85c42.667 -10 77.5 -28.5 104.5 -55.5s43.5 -60.833 49.5 -101.5v-4c0 -6.66699 -4.33301 -11.334 -13 -14.001l-77 -23
c-3.33301 -1.33301 -7.33301 -2 -12 -2c-5.33301 0 -9.33301 3.66699 -12 11c-6 16.667 -13.5 31.334 -22.5 44.001s-23.167 22 -42.5 28v-286c18.667 4.66699 33 12.5 43 23.5s18.333 25.5 25 43.5c2.66699 8.66699 7 13 13 13c4 0 7.33301 -0.666992 10 -2l78 -30
c8 -3.33301 12 -8.33301 12 -15zM231 236.501c12 -17.667 29.667 -29.501 53 -35.501v284c-23.333 -6.66699 -41 -19.167 -53 -37.5s-18 -41.166 -18 -68.499v-75c0 -27.333 6 -49.833 18 -67.5z" />
    <glyph glyph-name="sterling" unicode="&#xa3;" 
d="M587 603c0 -8 -3.66699 -13.002 -11 -15.002l-86 -34c-5.33301 -1.33301 -8.66602 -2 -9.99902 -2c-6 0 -11.667 3.66699 -17 11c-10 18.667 -21.5 32.167 -34.5 40.5s-29.5 12.5 -49.5 12.5c-29.333 0 -52.166 -8.33301 -68.499 -25s-24.5 -39.667 -24.5 -69v-111h182
c10 0 15 -5.33301 15 -16v-98c0 -10 -5 -15 -15 -15h-182v-147h267c10 0 15 -5 15 -15v-105c0 -10 -5 -15 -15 -15h-489c-4.66699 0 -8.33398 1.33301 -11.001 4s-4 6.33398 -4 11.001v105c0 10 5 15 15 15h71v147h-71c-10 0 -15 5 -15 15v98c0 10.667 5 16 15 16h71v100
c0 47.333 10.167 88.5 30.5 123.5s48.666 61.833 84.999 80.5s77.833 28 124.5 28c54.667 0 100.167 -12.167 136.5 -36.5s60.833 -55.166 73.5 -92.499c1.33301 -5.33301 2 -9 2 -11z" />
    <glyph glyph-name="currency" unicode="&#xa4;" 
d="M577 132c0 -3.33301 -2 -7.00195 -6 -11.002l-73 -73c-3.33301 -3.33301 -6.66602 -5 -9.99902 -5c-2.66699 0 -6.33398 1.66699 -11.001 5l-57 57c-32.667 -17.333 -68.334 -26 -107.001 -26c-37.333 0 -72.333 9 -105 27l-58 -58c-4 -4 -7.66699 -6 -11 -6s-7 2 -11 6
l-73 73c-3.33301 4.66699 -5 8.33398 -5 11.001c0 4 1.66699 7.66699 5 11l58 58c-17.333 31.333 -26 66.333 -26 105c0 38 9 74 27 108l-58 58c-3.33301 4.66699 -5 8.33398 -5 11.001c0 4 1.66699 7.66699 5 11l73 73c3.33301 3.33301 7 5 11 5
c4.66699 0 8.33398 -1.66699 11.001 -5l59 -60c32 16.667 66.333 25 103 25c35.333 0 69.666 -8 102.999 -24l60 59c2.66699 3.33301 6 5 10 5c4.66699 0 8.33398 -1.66699 11.001 -5l73 -73c4 -2.66699 6 -6 6 -10c0 -3.33301 -2 -7 -6 -11l-58 -59
c18.667 -33.333 28 -69.333 28 -108c0 -39.333 -8.33301 -75 -25 -107l56 -57c4 -4 6 -7.33301 6 -10zM241.5 233.498c19.667 -19.667 43.834 -29.5 72.501 -29.5s52.667 9.83301 72 29.5s28.666 43.834 27.999 72.501c0.666992 28.667 -8.66602 53 -27.999 73
s-43.333 30 -72 30s-52.834 -10 -72.501 -30s-29.5 -44.333 -29.5 -73s9.83301 -52.834 29.5 -72.501z" />
    <glyph glyph-name="yen" unicode="&#xa5;" 
d="M607 720c0 -2 -0.665039 -5.00098 -1.99805 -9.00098l-218 -408h141c10 0 15 -5.33301 15 -16v-108c0 -10 -5 -15 -15 -15h-138v-149c0 -10 -4.66699 -15 -14 -15h-126c-4.66699 0 -8.5 1.33301 -11.5 4s-4.5 6.33398 -4.5 11.001v149h-137c-10 0 -15 5 -15 15v108
c0 10.667 5 16 15 16h139l-216 408c-2 3.33301 -3 6.33301 -3 9c0 8 5 12 15 12h136c5.33301 0 9.66602 -0.833008 12.999 -2.5s6.33301 -5.16699 9 -10.5l125 -265l126 265c2.66699 5.33301 5.66699 8.83301 9 10.5s7.66602 2.5 12.999 2.5h130c9.33301 0 14 -4 14 -12z
" />
    <glyph glyph-name="brokenbar" unicode="&#xa6;" horiz-adv-x="289" 
d="M212 717v-374c0 -10 -5.33301 -15 -16 -15h-103c-10 0 -15 5 -15 15v374c0 10 5 15 15 15h103c10.667 0 16 -5 16 -15zM212 194v-382c0 -10 -5.33301 -15 -16 -15h-103c-10 0 -15 5 -15 15v382c0 10.667 5 16 15 16h103c10.667 0 16 -5.33301 16 -16z" />
    <glyph glyph-name="section" unicode="&#xa7;" horiz-adv-x="606" 
d="M92.5 478.5c-7.66699 20.333 -11.498 44.5029 -11.498 72.5029c0 38 9.66699 71.667 29 101s46.833 52 82.5 68s76.834 24 123.501 24c62.667 0 112.167 -13.833 148.5 -41.5s61.833 -63.167 76.5 -106.5c0.666992 -1.33301 1 -3.66602 1 -6.99902
c0 -6.66699 -4 -11.667 -12 -15l-92 -32c-2.66699 -1.33301 -6 -2 -10 -2c-5.33301 0 -10 3.66699 -14 11c-9.33301 22 -22 37.833 -38 47.5s-36 14.5 -60 14.5c-28 0 -49.833 -6 -65.5 -18s-23.5 -26.667 -23.5 -44c0 -14.667 4.66699 -27.167 14 -37.5s24 -20 44 -29
s51.333 -21.5 94 -37.5c60 -22.667 103.833 -50 131.5 -82s41.5 -73.333 41.5 -124c0 -27.333 -6 -53.5 -18 -78.5s-28.667 -45.5 -50 -61.5c18 -16 30.833 -33.833 38.5 -53.5s11.5 -42.834 11.5 -69.501c0 -38.667 -9.66699 -73.334 -29 -104.001
s-47.333 -54.834 -84 -72.501s-80 -26.5 -130 -26.5c-72.667 0 -128.167 15.5 -166.5 46.5s-63.5 70.5 -75.5 118.5l-1 6c0 7.33301 4 12.666 12 15.999l96 31c5.33301 1.33301 8.66602 2 9.99902 2c6 0 10.667 -4.66699 14 -14c6.66699 -26 19.167 -45.167 37.5 -57.5
s42.833 -18.5 73.5 -18.5c30 0 53.667 6.33301 71 19s26 29 26 49c0 20.667 -9 37 -27 49s-50.667 27 -98 45c-71.333 26 -122.5 55.167 -153.5 87.5s-46.5 76.5 -46.5 132.5c0 28 6.16699 54 18.5 78s29.166 43.667 50.499 59c-18.667 16 -31.834 34.167 -39.501 54.5z
M220.002 320.503c-7.33301 -9.66699 -11 -20.8311 -11 -33.498c0 -14 4 -25.833 12 -35.5s21.167 -18.834 39.5 -27.501s44.833 -19.334 79.5 -32.001l26 -12c13.333 6 23.333 13.833 30 23.5s10 20.5 10 32.5c0 20.667 -8.83301 37.167 -26.5 49.5s-50.167 27.5 -97.5 45.5
c-14 5.33301 -23.667 9.33301 -29 12c-14.667 -5.33301 -25.667 -12.833 -33 -22.5z" />
    <glyph glyph-name="dieresis" unicode="&#xa8;" horiz-adv-x="592" 
d="M259 734v-92c0 -14 -7 -21 -21 -21h-84c-14 0 -21 7 -21 21v92c0 13.333 7 20 21 20h84c14 0 21 -6.66699 21 -20zM460 734l0.000976562 -92.001c0 -14 -7 -21 -21 -21h-84c-6.66699 0 -11.834 1.83301 -15.501 5.5s-5.5 8.83398 -5.5 15.501v92c0 13.333 7 20 21 20h84
c14 0 21 -6.66699 21 -20z" />
    <glyph glyph-name="copyright" unicode="&#xa9;" horiz-adv-x="863" 
d="M240 38.5c-58 33.667 -103.833 79.5 -137.5 137.5s-50.5 121.333 -50.5 190c0 69.333 16.833 132.833 50.5 190.5s79.5 103.334 137.5 137.001s121.667 50.5 191 50.5s133.166 -17 191.499 -51s104.333 -79.833 138 -137.5s50.5 -120.834 50.5 -189.501
s-16.833 -132 -50.5 -190s-79.667 -103.833 -138 -137.5s-122.166 -50.5 -191.499 -50.5s-133 16.833 -191 50.5zM585 102.5c46.667 27 83.5 63.835 110.5 110.502s40.5 97.667 40.5 153s-13.5 106.166 -40.5 152.499s-63.833 83.166 -110.5 110.499s-98 41 -154 41
c-55.333 0 -106.333 -13.5 -153 -40.5s-83.667 -63.833 -111 -110.5s-41 -97.667 -41 -153s13.667 -106.333 41 -153s64.333 -83.5 111 -110.5s97.667 -40.5 153 -40.5c56 0 107.333 13.5 154 40.5zM599 457.002l0.000976562 -2.99902
c0 -4.66699 -3.33301 -8.33398 -10 -11.001l-66 -18l-7 -1c-6 0 -10 3.33301 -12 10c-5.33301 19.333 -13 33.5 -23 42.5s-25 13.5 -45 13.5c-22.667 0 -39.5 -7.16699 -50.5 -21.5s-16.5 -33.5 -16.5 -57.5v-93c0 -50.667 22.333 -76 67 -76c20 0 35 4.33301 45 13
s17.667 22.667 23 42c1.33301 5.33301 3.5 8.5 6.5 9.5s7.16699 0.833008 12.5 -0.5l66 -19c8 -2.66699 11.333 -7 10 -13c-16.667 -80.667 -72.334 -121 -167.001 -121c-53.333 0 -95.166 15 -125.499 45s-45.5 69.333 -45.5 118v98c0 48 15.167 87.667 45.5 119
s71.166 47 122.499 47c96 0 152.667 -41 170 -123z" />
    <glyph glyph-name="ordfeminine" unicode="&#xaa;" horiz-adv-x="384" 
d="M287.5 817c21.667 -19.333 32.4961 -47 32.4961 -83v-208c0 -6 -2.66699 -9 -8 -9h-69c-6 0 -9 3 -9 9v33c-10 -15.333 -22.333 -27.166 -37 -35.499s-31.334 -12.5 -50.001 -12.5c-29.333 0 -53.166 9 -71.499 27s-27.5 41 -27.5 69c0 32.667 10.333 57.5 31 74.5
s53 26.833 97 29.5c6 0.666992 15 1 27 1c11.333 0 20 -0.333008 26 -1v21c0 14 -3.33301 24 -10 30s-16.667 9 -30 9c-20.667 0 -34 -8.66699 -40 -26c-1.33301 -3.33301 -2.66602 -5.5 -3.99902 -6.5s-3.66602 -1.16699 -6.99902 -0.5l-69 17
c-6 1.33301 -8 4.66602 -6 9.99902c7.33301 26 21.333 46 42 60s50.334 21 89.001 21c40.667 0 71.834 -9.66699 93.501 -29zM207.496 596c9.66699 7.33301 16.8311 18 21.498 32v25c-21.333 0 -36.666 -0.666992 -45.999 -2c-16.667 -1.33301 -28.5 -4.83301 -35.5 -10.5
s-10.5 -13.5 -10.5 -23.5s3.16699 -17.833 9.5 -23.5s15.5 -8.5 27.5 -8.5c12.667 0 23.834 3.66699 33.501 11z" />
    <glyph glyph-name="guillemotleft" unicode="&#xab;" horiz-adv-x="636" 
d="M307 109c0 -5.33301 -2.33398 -9.00098 -7.00098 -11.001l-114 -56c-2.66699 -1.33301 -5 -2 -7 -2c-5.33301 0 -9.66602 2.66699 -12.999 8l-125 221c-1.33301 2 -1.83301 4.33301 -1.5 7s0.833008 4.66699 1.5 6l125 222c2.66699 4.66699 6.66699 7 12 7
c1.33301 0 4 -0.666992 8 -2l114 -55c4.66699 -2 7 -5.66699 7 -11c0 -3.33301 -1 -6.66602 -3 -9.99902l-87 -157l87 -157c2 -2.66699 3 -6 3 -10zM583.999 108.999c0 -5.33301 -2.33398 -9.00098 -7.00098 -11.001l-114 -56c-2.66699 -1.33301 -5 -2 -7 -2
c-5.33301 0 -9.66602 2.66699 -12.999 8l-125 221c-1.33301 2 -1.83301 4.33301 -1.5 7s0.833008 4.66699 1.5 6l125 222c2.66699 4.66699 6.66699 7 12 7c1.33301 0 4 -0.666992 8 -2l114 -55c4.66699 -2 7 -5.66699 7 -11c0 -3.33301 -1 -6.66602 -3 -9.99902l-87 -157
l87 -157c2 -2.66699 3 -6 3 -10z" />
    <glyph glyph-name="logicalnot" unicode="&#xac;" 
d="M77 249c-10 0 -15 5 -15 15v103c0 10 5 15 15 15h464c10 0 15 -5 15 -15v-255c0 -10 -5 -15 -15 -15h-102c-10.667 0 -16 5 -16 15v137h-346z" />
    <glyph glyph-name="uni00AD" unicode="&#xad;" horiz-adv-x="441" 
d="M368 383.5c2.66699 -3 3.99902 -6.83301 3.99902 -11.5v-108c0 -10 -5 -15 -15 -15h-273c-10 0 -15 5 -15 15v108c0 10.667 5 16 15 16h273c4.66699 0 8.33398 -1.5 11.001 -4.5z" />
    <glyph glyph-name="registered" unicode="&#xae;" horiz-adv-x="593" 
d="M416 712c36.667 -21.333 65.666 -50.3311 86.999 -86.998s32 -76.667 32 -120c0 -44 -10.667 -84.167 -32 -120.5s-50.166 -65 -86.499 -86s-76.5 -31.5 -120.5 -31.5c-43.333 0 -83.166 10.667 -119.499 32s-65.166 50.166 -86.499 86.499s-32 76.166 -32 119.499
s10.667 83.333 32 120s50.166 65.667 86.499 87s76.166 32 119.499 32s83.333 -10.667 120 -32zM395.499 335.002c30.333 17.333 54.167 41 71.5 71s26 63 26 99s-8.83301 69 -26.5 99s-41.5 53.667 -71.5 71s-63 26 -99 26s-69 -8.66699 -99 -26s-53.667 -41 -71 -71
s-26 -63 -26 -99s8.66699 -69 26 -99s41 -53.667 71 -71s63 -26 99 -26s69.167 8.66699 99.5 26zM411 382.002c1.33301 -2.66699 1.66797 -5.16797 1.00098 -7.50098s-2.33398 -3.5 -5.00098 -3.5h-58c-4.66699 0 -8 2.33301 -10 7l-45 84h-26v-83c0 -5.33301 -3 -8 -9 -8
h-50c-4.66699 0 -7 2.66699 -7 8v263c0 5.33301 2.33301 8 7 8h103c30 0 53.333 -8 70 -24s25 -37 25 -63v-13c0 -17.333 -4 -32.666 -12 -45.999s-19.333 -23.333 -34 -30zM268.002 518.001h37c24 0 36 11.667 36 35v6c0 22.667 -12 34 -36 34h-37v-75z" />
    <glyph glyph-name="macron" unicode="&#xaf;" horiz-adv-x="592" 
d="M450 712v-74c0 -10.667 -5 -16 -15 -16h-278c-10.667 0 -16 5.33301 -16 16v74c0 10.667 5.33301 16 16 16h278c10 0 15 -5.33301 15 -16z" />
    <glyph glyph-name="degree" unicode="&#xb0;" horiz-adv-x="403" 
d="M279.5 722.5c24.333 -14.333 43.667 -33.5 58 -57.5s21.5 -50 21.5 -78c0 -27.333 -7.5 -53 -22.5 -77s-34.667 -43.167 -59 -57.5s-49.833 -21.5 -76.5 -21.5c-28 0 -54 7 -78 21s-43.167 33 -57.5 57s-21.5 50 -21.5 78s7.16699 54 21.5 78s33.5 43.167 57.5 57.5
s50 21.5 78 21.5s54.167 -7.16699 78.5 -21.5zM150.001 639c-14 -14 -21 -31.333 -21 -52c0 -20 7 -37 21 -51s31 -21 51 -21c20.667 0 38 7 52 21s21 31 21 51c0 20.667 -7 38 -21 52s-31.333 21 -52 21c-20 0 -37 -7 -51 -21z" />
    <glyph glyph-name="plusminus" unicode="&#xb1;" 
d="M50 390v103c0 10 5 15 15 15h175v184c0 10 5.33301 15 16 15h113c10.667 0 16 -5 16 -15v-184h175c10 0 15 -5 15 -15v-103c0 -10 -5 -15 -15 -15h-175v-185c0 -10 -5.33301 -15 -16 -15h-113c-10.667 0 -16 5 -16 15v185h-175c-10 0 -15 5 -15 15zM575 100v-85
c0 -10 -5 -15 -15 -15h-495c-10 0 -15 5 -15 15v85c0 10.667 5 16 15 16h495c10 0 15 -5.33301 15 -16z" />
    <glyph glyph-name="uni00B2" unicode="&#xb2;" horiz-adv-x="363" 
d="M317.5 527c2.33301 -2.66699 3.49805 -5.99902 3.49805 -9.99902v-64c0 -4 -1.16699 -7.33301 -3.5 -10s-5.83301 -4 -10.5 -4h-248c-3.33301 0 -6.16602 1.16699 -8.49902 3.5s-3.83301 4.83301 -4.5 7.5l-12 67v3c0 4 1.66699 7 5 9l110 92c28 24 47 42.167 57 54.5
s14.667 25.166 14 38.499c0 14 -4 24.833 -12 32.5s-19 11.5 -33 11.5c-24 0 -40 -13.333 -48 -40c-0.666992 -4.66699 -2.83398 -8.16699 -6.50098 -10.5s-7.83398 -2.83301 -12.501 -1.5l-61 17c-8 2 -12 7 -12 15c0 4 0.333008 7 1 9c8.66699 30 24.334 54.667 47.001 74
s54.334 29 95.001 29c44 0 78.833 -12 104.5 -36s38.5 -55 38.5 -93c0.666992 -30.667 -6.66602 -57.5 -21.999 -80.5s-38 -45.167 -68 -66.5l-63 -43h139c4.66699 0 8.16699 -1.33301 10.5 -4z" />
    <glyph glyph-name="uni00B3" unicode="&#xb3;" horiz-adv-x="362" 
d="M305.5 617c12.333 -16 18.5059 -35.332 18.5059 -57.999v-5c0 -38 -13.833 -67.833 -41.5 -89.5s-63.834 -32.5 -108.501 -32.5c-38.667 0 -70.667 9.33301 -96 28s-42 43.667 -50 75l-1 4c0 6.66699 3.33301 11 10 13l62 21l5 1c5.33301 0 9.66602 -3.33301 12.999 -10
c7.33301 -15.333 15.666 -26.5 24.999 -33.5s20.666 -10.5 33.999 -10.5c14.667 0 26.5 3.66699 35.5 11s13.5 16.333 13.5 27v5c0 14 -4 24 -12 30s-22 9 -42 9h-25c-4 0 -7.33301 1.33301 -10 4s-4 6 -4 10v58c0 4 1.33301 7.33301 4 10s6 4 10 4h25
c31.333 0 47 11.667 47 35v3c0 11.333 -4.33301 20.166 -13 26.499s-20 9.5 -34 9.5c-22 0 -38.667 -10.667 -50 -32c-2 -4 -4.83301 -6.66699 -8.5 -8s-7.83398 -1 -12.501 1l-54 30c-6.66699 4 -9.66699 7.33301 -9 10c8 24 23.167 44.5 45.5 61.5
s54.166 25.5 95.499 25.5c44 0 78 -10.5 102 -31.5s36 -47.833 36 -80.5v-5c0 -19.333 -5 -36.5 -15 -51.5s-24.667 -25.833 -44 -32.5c20 -5.33301 36.167 -16 48.5 -32z" />
    <glyph glyph-name="acute" unicode="&#xb4;" horiz-adv-x="592" 
d="M206 631c-2 -2.66699 -3 -5.33496 -3 -8.00195c0 -6.66699 4 -10 12 -10h78c4.66699 0 8.16699 0.666992 10.5 2s5.16602 4 8.49902 8l98 117c2.66699 2.66699 4 5.33398 4 8.00098s-1.16699 4.83398 -3.5 6.50098s-5.16602 2.5 -8.49902 2.5h-102
c-4.66699 0 -8.16699 -0.833008 -10.5 -2.5s-4.83301 -4.5 -7.5 -8.5z" />
    <glyph glyph-name="uni00B5" unicode="&#xb5;" horiz-adv-x="618" 
d="M545 532l-0.000976562 -518c0 -4 -1.16699 -7.33301 -3.5 -10s-5.83301 -4 -10.5 -4h-118c-4.66699 -0 -8.16699 1.33301 -10.5 4s-3.5 6 -3.5 10v62c-18.667 -25.333 -41.334 -46.333 -68.001 -63s-55 -25 -85 -25c-13.333 0 -26.333 2.66699 -39 8v-184
c0 -10 -5.33301 -15 -16 -15h-103c-10 0 -15 5 -15 15v720c0 10 5 15 15 15h120c4.66699 0 8.5 -1.33301 11.5 -4s4.5 -6.33398 4.5 -11.001v-326c0 -25.333 6 -45 18 -59s29.667 -21 53 -21c22.667 0 42.834 7.66699 60.501 23s30.5 36 38.5 62v321
c0 4.66699 1.33301 8.33398 4 11.001s6.33398 4 11.001 4h121c10 0 15 -5 15 -15z" />
    <glyph glyph-name="paragraph" unicode="&#xb6;" horiz-adv-x="636" 
d="M254 734c3.33301 0 6.33301 -1.50195 9 -4.50195s4 -6.16699 4 -9.5v-443c0 -4 -1.5 -7.5 -4.5 -10.5s-6.5 -4.16699 -10.5 -3.5c-40.667 2.66699 -77.834 14.834 -111.501 36.501s-60.334 50 -80.001 85s-29.5 72.833 -29.5 113.5c0 41.333 9.83301 79.5 29.5 114.5
s46.334 63.333 80.001 85s70.834 33.834 111.501 36.501h2zM599 716.998v-100c0 -10 -5 -15 -15 -15h-86v-790c0 -10 -5 -15 -15 -15h-104c-10 0 -15 5 -15 15v906c0 4 1.16699 7.33301 3.5 10s5.83301 4 10.5 4h206c10 0 15 -5 15 -15z" />
    <glyph glyph-name="periodcentered" unicode="&#xb7;" horiz-adv-x="284" 
d="M209 427c3.33301 -3.33301 5 -7.66797 5 -13.001v-145c0 -5.33301 -1.66699 -9.66602 -5 -12.999s-7.66602 -5 -12.999 -5h-110c-4.66699 0 -8.5 1.83301 -11.5 5.5s-4.5 8.16699 -4.5 13.5v143c0 5.33301 1.33301 9.83301 4 13.5s6.66699 5.5 12 5.5h110
c5.33301 0 9.66602 -1.66699 12.999 -5z" />
    <glyph glyph-name="cedilla" unicode="&#xb8;" horiz-adv-x="592" 
d="M378 -62.5c17.333 -15 26 -35.1631 26 -60.4961c0 -30.667 -12.5 -55.834 -37.5 -75.501s-59.5 -29.5 -103.5 -29.5c-28 0 -51 3.33301 -69 10c-4 1.33301 -7 3.66602 -9 6.99902s-2.33301 6.66602 -1 9.99902l13 57c2 7.33301 7 11 15 11c3.33301 0 10.333 -1 21 -3
s19.667 -3 27 -3c24.667 0 37 7.33301 37 22c0 8 -5 14 -15 18s-23.667 7 -41 9c-9.33301 1.33301 -13 5.66602 -11 12.999l26 109l66 -8l-13 -57c28.667 -4.66699 51.667 -14.5 69 -29.5z" />
    <glyph glyph-name="uni00B9" unicode="&#xb9;" horiz-adv-x="265" 
d="M208 839c2.66699 -2.66699 4 -6 4 -10v-375c0 -4 -1.33301 -7.33301 -4 -10s-6.33398 -4 -11.001 -4h-69c-4 0 -7.33301 1.33301 -10 4s-4 6 -4 10v274l-57 -22l-4 -1c-7.33301 0 -12 3.66699 -14 11l-22 58c-0.666992 1.33301 -1 3.33301 -1 6c0 6 3 10.333 9 13l116 49
c0.666992 0.666992 1.66699 1 3 1h53c4.66699 0 8.33398 -1.33301 11.001 -4z" />
    <glyph glyph-name="ordmasculine" unicode="&#xba;" horiz-adv-x="386" 
d="M300 810c24 -24.667 36 -57 36 -97v-68c0 -40.667 -12 -73.167 -36 -97.5s-59.667 -36.5 -107 -36.5s-83 12 -107 36s-36 56 -36 96v68c0 40.667 12 73.5 36 98.5s59.667 37.5 107 37.5s83 -12.333 107 -37zM156 749.5c-8 -10.333 -12 -24.166 -12 -41.499v-61
c0 -36 16.333 -54 49 -54s49 18 49 54v61c0 17.333 -4 31.166 -12 41.499s-20.333 15.5 -37 15.5s-29 -5.16699 -37 -15.5z" />
    <glyph glyph-name="guillemotright" unicode="&#xbb;" horiz-adv-x="636" 
d="M318 282c1.33301 -1.33301 2 -3.33105 2 -5.99805s-0.666992 -5 -2 -7l-125 -221c-2 -4 -4.83301 -6.33301 -8.5 -7s-7.5 -0.333984 -11.5 0.999023l-114 56c-4.66699 2 -7 5.66699 -7 11c0 4 1 7.33301 3 10l87 157l-87 157c-2 3.33301 -3 6.66602 -3 9.99902
c0 5.33301 2.33301 9 7 11l114 55c4 1.33301 6.66699 2 8 2c5.33301 0 9.33301 -2.33301 12 -7zM597 276.002c0 -2.66699 -0.666992 -4.99805 -2 -6.99805l-125 -221c-2 -4 -4.83301 -6.33301 -8.5 -7s-7.5 -0.333984 -11.5 0.999023l-114 56c-4.66699 2 -7 5.66699 -7 11
c0 4 1 7.33301 3 10l87 157l-87 157c-2 3.33301 -3 6.66602 -3 9.99902c0 5.33301 2.33301 9 7 11l114 55c4 1.33301 6.66699 2 8 2c5.33301 0 9.33301 -2.33301 12 -7l125 -222c1.33301 -1.33301 2 -3.33301 2 -6z" />
    <glyph glyph-name="onequarter" unicode="&#xbc;" horiz-adv-x="813" 
d="M224 728c2.66699 -2.66699 4 -6 4 -10v-375c0 -4 -1.33301 -7.33301 -4 -10s-6.33398 -4 -11.001 -4h-69c-4 0 -7.33301 1.33301 -10 4s-4 6 -4 10v274l-57 -22l-4 -1c-7.33301 0 -12 3.66699 -14 11l-22 58c-0.666992 1.33301 -1 3.33301 -1 6c0 6 3 10.333 9 13l116 49
c0.666992 0.666992 1.66699 1 3 1h53c4.66699 0 8.33398 -1.33301 11.001 -4zM220 3.5c-2.66699 -2.33301 -6.66602 -3.5 -11.999 -3.5h-52c-10 0 -15 4 -15 12c0 3.33301 1 7.33301 3 12l368 692c3.33301 6 6.33301 10.167 9 12.5s6.66699 3.5 12 3.5h51c10 0 15 -4 15 -12
c0 -2.66699 -1 -6.66699 -3 -12l-368 -692c-2.66699 -6 -5.33398 -10.167 -8.00098 -12.5zM774.501 145c2.33301 -2.66699 3.5 -5.99902 3.5 -9.99902v-61c0 -9.33301 -4.66699 -14 -14 -14h-34v-45c0 -4 -1.33301 -7.33301 -4 -10s-6 -4 -10 -4h-66
c-4.66699 0 -8.16699 1.33301 -10.5 4s-3.5 6 -3.5 10v45h-150c-6.66699 0 -11 3 -13 9l-18 67c-0.666992 1.33301 -0.333984 4.33301 0.999023 9l130 249c2.66699 4.66699 6.33398 7 11.001 7h68c5.33301 0 9.5 -1.5 12.5 -4.5s4.5 -7.16699 4.5 -12.5
c0 -2 -0.666992 -5 -2 -9l-121 -227h77v78c0 10 4.66699 15 14 15h66c4 0 7.33301 -1.33301 10 -4s4 -6.33398 4 -11.001v-77h34c4.66699 0 8.16699 -1.33301 10.5 -4z" />
    <glyph glyph-name="onehalf" unicode="&#xbd;" horiz-adv-x="832" 
d="M224 728c2.66699 -2.66699 4 -6 4 -10v-375c0 -4 -1.33301 -7.33301 -4 -10s-6.33398 -4 -11.001 -4h-69c-4 0 -7.33301 1.33301 -10 4s-4 6 -4 10v274l-57 -22l-4 -1c-7.33301 0 -12 3.66699 -14 11l-22 58c-0.666992 1.33301 -1 3.33301 -1 6c0 6 3 10.333 9 13l116 49
c0.666992 0.666992 1.66699 1 3 1h53c4.66699 0 8.33398 -1.33301 11.001 -4zM220 3.5c-2.66699 -2.33301 -6.66602 -3.5 -11.999 -3.5h-52c-10 0 -15 4 -15 12c0 3.33301 1 7.33301 3 12l368 692c3.33301 6 6.33301 10.167 9 12.5s6.66699 3.5 12 3.5h51c10 0 15 -4 15 -12
c0 -2.66699 -1 -6.66699 -3 -12l-368 -692c-2.66699 -6 -5.33398 -10.167 -8.00098 -12.5zM779.501 88c2.33301 -2.66699 3.49805 -5.99902 3.49805 -9.99902v-64c0 -4 -1.16699 -7.33301 -3.5 -10s-5.83301 -4 -10.5 -4h-248c-3.33301 0 -6.16602 1.16699 -8.49902 3.5
s-3.83301 4.83301 -4.5 7.5l-12 67v3c0 4 1.66699 7 5 9l110 92c28 24 47 42.167 57 54.5s14.667 25.166 14 38.499c0 14 -4 24.833 -12 32.5s-19 11.5 -33 11.5c-24 0 -40 -13.333 -48 -40c-0.666992 -4.66699 -2.83398 -8.16699 -6.50098 -10.5
s-7.83398 -2.83301 -12.501 -1.5l-61 17c-8 2 -12 7 -12 15c0 4 0.333008 7 1 9c8.66699 30 24.334 54.667 47.001 74s54.334 29 95.001 29c44 0 78.833 -12 104.5 -36s38.5 -55 38.5 -93c0.666992 -30.667 -6.66602 -57.5 -21.999 -80.5s-38 -45.167 -68 -66.5l-63 -43h139
c4.66699 0 8.16699 -1.33301 10.5 -4z" />
    <glyph glyph-name="threequarters" unicode="&#xbe;" horiz-adv-x="904" 
d="M317.5 507c12.333 -16 18.5059 -35.332 18.5059 -57.999v-5c0 -38 -13.833 -67.833 -41.5 -89.5s-63.834 -32.5 -108.501 -32.5c-38.667 0 -70.667 9.33301 -96 28s-42 43.667 -50 75l-1 4c0 6.66699 3.33301 11 10 13l62 21l5 1c5.33301 0 9.66602 -3.33301 12.999 -10
c7.33301 -15.333 15.666 -26.5 24.999 -33.5s20.666 -10.5 33.999 -10.5c14.667 0 26.5 3.66699 35.5 11s13.5 16.333 13.5 27v5c0 14 -4 24 -12 30s-22 9 -42 9h-25c-4 0 -7.33301 1.33301 -10 4s-4 6 -4 10v58c0 4 1.33301 7.33301 4 10s6 4 10 4h25
c31.333 0 47 11.667 47 35v3c0 11.333 -4.33301 20.166 -13 26.499s-20 9.5 -34 9.5c-22 0 -38.667 -10.667 -50 -32c-2 -4 -4.83301 -6.66699 -8.5 -8s-7.83398 -1 -12.501 1l-54 30c-6.66699 4 -9.66699 7.33301 -9 10c8 24 23.167 44.5 45.5 61.5
s54.166 25.5 95.499 25.5c44 0 78 -10.5 102 -31.5s36 -47.833 36 -80.5v-5c0 -19.333 -5 -36.5 -15 -51.5s-24.667 -25.833 -44 -32.5c20 -5.33301 36.167 -16 48.5 -32zM313.006 3.50098c-2.66699 -2.33301 -6.66602 -3.5 -11.999 -3.5h-52c-10 0 -15 4 -15 12
c0 3.33301 1 7.33301 3 12l368 692c3.33301 6 6.33301 10.167 9 12.5s6.66699 3.5 12 3.5h51c10 0 15 -4 15 -12c0 -2.66699 -1 -6.66699 -3 -12l-368 -692c-2.66699 -6 -5.33398 -10.167 -8.00098 -12.5zM867.507 145.001c2.33301 -2.66699 3.5 -5.99902 3.5 -9.99902v-61
c0 -9.33301 -4.66699 -14 -14 -14h-34v-45c0 -4 -1.33301 -7.33301 -4 -10s-6 -4 -10 -4h-66c-4.66699 0 -8.16699 1.33301 -10.5 4s-3.5 6 -3.5 10v45h-150c-6.66699 0 -11 3 -13 9l-18 67c-0.666992 1.33301 -0.333984 4.33301 0.999023 9l130 249
c2.66699 4.66699 6.33398 7 11.001 7h68c5.33301 0 9.5 -1.5 12.5 -4.5s4.5 -7.16699 4.5 -12.5c0 -2 -0.666992 -5 -2 -9l-121 -227h77v78c0 10 4.66699 15 14 15h66c4 0 7.33301 -1.33301 10 -4s4 -6.33398 4 -11.001v-77h34c4.66699 0 8.16699 -1.33301 10.5 -4z" />
    <glyph glyph-name="questiondown" unicode="&#xbf;" horiz-adv-x="494" 
d="M318 541.5c3.33301 -3.66699 5 -8.16602 5 -13.499v-143c0 -5.33301 -1.66699 -9.83301 -5 -13.5s-7.33301 -5.5 -12 -5.5h-109c-5.33301 0 -9.83301 1.83301 -13.5 5.5s-5.5 8.16699 -5.5 13.5v144c0 5.33301 1.83301 9.66602 5.5 12.999s8.16699 5 13.5 5h109
c4.66699 0 8.66699 -1.83301 12 -5.5zM313 264.001c0 -5.33301 -0.668945 -9.33301 -2.00195 -12c-11.333 -30 -33 -68 -65 -114c-21.333 -31.333 -37.166 -57 -47.499 -77s-15.5 -39.667 -15.5 -59c0 -20.667 6.83301 -37 20.5 -49s32.167 -18 55.5 -18
c43.333 0 71.666 20 84.999 60c2 6 4.33301 10.167 7 12.5s6 3.5 10 3.5c2 0 5.66699 -0.666992 11 -2l77 -24c10 -4 15 -9.33301 15 -16c0 -2 -0.666992 -5.66699 -2 -11c-10.667 -46.667 -36.167 -84.167 -76.5 -112.5s-88.166 -42.5 -143.499 -42.5
c-40.667 0 -76.667 7.33301 -108 22s-55.666 35.167 -72.999 61.5s-26 56.5 -26 90.5c0 30 8 60.833 24 92.5s38.667 68.834 68 111.501c22.667 31.333 39.667 58.333 51 81c3.33301 7.33301 7.33301 12.166 12 14.499s11 3.5 19 3.5h87c11.333 0 17 -5.33301 17 -16z" />
    <glyph glyph-name="Agrave" unicode="&#xc0;" horiz-adv-x="672" 
d="M656 12c0 -3.33301 -1.16797 -6.16602 -3.50098 -8.49902s-5.16602 -3.5 -8.49902 -3.5h-129c-5.33301 0 -9.33301 1.16699 -12 3.5s-5 6.16602 -7 11.499l-46 150h-232l-46 -150c-2.66699 -10 -10 -15 -22 -15h-119c-4.66699 0 -8 1.66699 -10 5s-2.33301 7.33301 -1 12
l216 700c3.33301 10 10 15 20 15h156c11.333 0 19 -5 23 -15l220 -700c0.666992 -1.33301 1 -3 1 -5zM407.999 306l-15 49c-28 95.333 -46.667 168.333 -56 219h-4c-12 -62 -31.333 -135.667 -58 -221l-14 -47h147zM195.999 942
c-3.33301 0 -6.16699 -0.832031 -8.5 -2.49902s-3.5 -3.83398 -3.5 -6.50098s1.33301 -5.33398 4 -8.00098l98 -117c4 -4 7 -6.66699 9 -8s5.33301 -2 10 -2h78c8 0 12 3.33301 12 10c0 2.66699 -1 5.33398 -3 8.00098l-77 115c-2 4 -4.16699 6.83301 -6.5 8.5
s-5.83301 2.5 -10.5 2.5h-102z" />
    <glyph glyph-name="Aacute" unicode="&#xc1;" horiz-adv-x="672" 
d="M656 12c0 -3.33301 -1.16797 -6.16602 -3.50098 -8.49902s-5.16602 -3.5 -8.49902 -3.5h-129c-5.33301 0 -9.33301 1.16699 -12 3.5s-5 6.16602 -7 11.499l-46 150h-232l-46 -150c-2.66699 -10 -10 -15 -22 -15h-119c-4.66699 0 -8 1.66699 -10 5s-2.33301 7.33301 -1 12
l216 700c3.33301 10 10 15 20 15h156c11.333 0 19 -5 23 -15l220 -700c0.666992 -1.33301 1 -3 1 -5zM407.999 306l-15 49c-28 95.333 -46.667 168.333 -56 219h-4c-12 -62 -31.333 -135.667 -58 -221l-14 -47h147zM272.999 816c-2 -2.66699 -3.00098 -5.33301 -3.00098 -8
c0 -6.66699 4.33301 -10 13 -10h77c4.66699 0 8.33398 0.666992 11.001 2s5.66699 4 9 8l98 117c2 3.33301 3 6 3 8c0 6 -4 9 -12 9h-102c-4 0 -7.16699 -0.833008 -9.5 -2.5s-4.83301 -4.5 -7.5 -8.5z" />
    <glyph glyph-name="Acircumflex" unicode="&#xc2;" horiz-adv-x="672" 
d="M656 12c0 -3.33301 -1.16797 -6.16602 -3.50098 -8.49902s-5.16602 -3.5 -8.49902 -3.5h-129c-5.33301 0 -9.33301 1.16699 -12 3.5s-5 6.16602 -7 11.499l-46 150h-232l-46 -150c-2.66699 -10 -10 -15 -22 -15h-119c-4.66699 0 -8 1.66699 -10 5s-2.33301 7.33301 -1 12
l216 700c3.33301 10 10 15 20 15h156c11.333 0 19 -5 23 -15l220 -700c0.666992 -1.33301 1 -3 1 -5zM407.999 306l-15 49c-28 95.333 -46.667 168.333 -56 219h-4c-12 -62 -31.333 -135.667 -58 -221l-14 -47h147zM492.999 809c0 -7.33301 -4 -11 -12 -11h-85
c-6 0 -11 3 -15 9l-46 63l-45 -63c-4 -6 -9 -9 -15 -9h-85c-8 0 -12 3.66699 -12 11c0 2.66699 1.66699 6.33398 5 11.001l87 113c4 6 9.33301 9 16 9h98c6 0 11.333 -3 16 -9l88 -113c3.33301 -4.66699 5 -8.33398 5 -11.001z" />
    <glyph glyph-name="Atilde" unicode="&#xc3;" horiz-adv-x="672" 
d="M656 12c0 -3.33301 -1.16797 -6.16602 -3.50098 -8.49902s-5.16602 -3.5 -8.49902 -3.5h-129c-5.33301 0 -9.33301 1.16699 -12 3.5s-5 6.16602 -7 11.499l-46 150h-232l-46 -150c-2.66699 -10 -10 -15 -22 -15h-119c-4.66699 0 -8 1.66699 -10 5s-2.33301 7.33301 -1 12
l216 700c3.33301 10 10 15 20 15h156c11.333 0 19 -5 23 -15l220 -700c0.666992 -1.33301 1 -3 1 -5zM407.999 306l-15 49c-28 95.333 -46.667 168.333 -56 219h-4c-12 -62 -31.333 -135.667 -58 -221l-14 -47h147zM314.499 925c11 -4 22.501 -9.66504 34.501 -16.998
l11.5 -6c6.33301 -3.33301 12.166 -5.83301 17.499 -7.5s10.333 -2.5 15 -2.5c17.333 0 32.333 8.33301 45 25c4 4 7.66699 6 11 6s6.33301 -1 9 -3l40 -35c4 -2.66699 6 -6.33398 6 -11.001c0 -2 -1.33301 -5.66699 -4 -11c-8.66699 -16.667 -22.5 -31.334 -41.5 -44.001
s-39.833 -19 -62.5 -19c-14.667 0 -27.5 2 -38.5 6s-22.833 9.66699 -35.5 17l-11.5 6c-6.33301 3.33301 -12.166 5.83301 -17.499 7.5s-10.333 2.5 -15 2.5c-16 0 -31 -8.33301 -45 -25c-2.66699 -4.66699 -6.33398 -7 -11.001 -7c-3.33301 0 -6.33301 1.33301 -9 4l-40 35
c-4 3.33301 -6 7 -6 11c0 2.66699 1.33301 6 4 10c10.667 18 25 33.167 43 45.5s38.667 18.5 62 18.5c14.667 0 27.5 -2 38.5 -6z" />
    <glyph glyph-name="Adieresis" unicode="&#xc4;" horiz-adv-x="672" 
d="M656 12c0 -3.33301 -1.16797 -6.16602 -3.50098 -8.49902s-5.16602 -3.5 -8.49902 -3.5h-129c-5.33301 0 -9.33301 1.16699 -12 3.5s-5 6.16602 -7 11.499l-46 150h-232l-46 -150c-2.66699 -10 -10 -15 -22 -15h-119c-4.66699 0 -8 1.66699 -10 5s-2.33301 7.33301 -1 12
l216 700c3.33301 10 10 15 20 15h156c11.333 0 19 -5 23 -15l220 -700c0.666992 -1.33301 1 -3 1 -5zM407.999 306l-15 49c-28 95.333 -46.667 168.333 -56 219h-4c-12 -62 -31.333 -135.667 -58 -221l-14 -47h147zM297.999 919l0.00195312 -92
c0 -6.66699 -1.83301 -11.834 -5.5 -15.501s-8.83398 -5.5 -15.501 -5.5h-85c-6.66699 0 -11.834 1.83301 -15.501 5.5s-5.5 8.83398 -5.5 15.501v92c0 13.333 7 20 21 20h85c14 0 21 -6.66699 21 -20zM499.001 919l0.000976562 -91.999
c0 -6.66699 -1.83301 -11.834 -5.5 -15.501s-8.83398 -5.5 -15.501 -5.5h-85c-13.333 0 -20 7 -20 21v92c0 13.333 6.66699 20 20 20h85c14 0 21 -6.66699 21 -20z" />
    <glyph glyph-name="Aring" unicode="&#xc5;" horiz-adv-x="672" 
d="M656 12c0 -3.33301 -1.16797 -6.16602 -3.50098 -8.49902s-5.16602 -3.5 -8.49902 -3.5h-129c-5.33301 0 -9.33301 1.16699 -12 3.5s-5 6.16602 -7 11.499l-46 150h-232l-46 -150c-2.66699 -10 -10 -15 -22 -15h-119c-4.66699 0 -8 1.66699 -10 5s-2.33301 7.33301 -1 12
l216 700c3.33301 10 10 15 20 15h156c11.333 0 19 -5 23 -15l220 -700c0.666992 -1.33301 1 -3 1 -5zM407.999 306l-15 49c-28 95.333 -46.667 168.333 -56 219h-4c-12 -62 -31.333 -135.667 -58 -221l-14 -47h147zM270.999 782.5c-20 11.667 -35.833 27.334 -47.5 47.001
s-17.5 40.834 -17.5 63.501s5.83301 43.834 17.5 63.501s27.5 35.334 47.5 47.001s41.333 17.5 64 17.5s44 -5.83301 64 -17.5s35.833 -27.334 47.5 -47.001s17.5 -40.834 17.5 -63.501s-6.16699 -43.834 -18.5 -63.501s-28.333 -35.334 -48 -47.001
s-40.5 -17.5 -62.5 -17.5c-22.667 0 -44 5.83301 -64 17.5zM379.499 849c12.333 12.667 18.5 27.334 18.5 44.001c0 17.333 -6.16699 32.166 -18.5 44.499s-27.166 18.5 -44.499 18.5s-32.166 -6.16699 -44.499 -18.5s-18.5 -27.166 -18.5 -44.499
c0 -16.667 6.16699 -31.334 18.5 -44.001s27.166 -19 44.499 -19s32.166 6.33301 44.499 19z" />
    <glyph glyph-name="AE" unicode="&#xc6;" horiz-adv-x="949" 
d="M886 135.5c2.66699 -3 3.99805 -6.83398 3.99805 -11.501v-109c0 -10 -5 -15 -15 -15h-421c-4.66699 0 -8.5 1.33301 -11.5 4s-4.5 6.33398 -4.5 11.001v150h-202l-70 -150c-2.66699 -5.33301 -5.66699 -9.16602 -9 -11.499s-7.66602 -3.5 -12.999 -3.5h-124
c-6.66699 0 -11.334 2.33301 -14.001 7s-2.66699 9.66699 0 15l330 694c2.66699 5.33301 5.66699 9.33301 9 12s8 4 14 4h514c4.66699 0 8.33398 -1.33301 11.001 -4s4 -6.33398 4 -11.001v-109c0 -10.667 -5 -16 -15 -16h-279v-152h250c10 0 15 -5.33301 15 -16v-103
c0 -10.667 -5 -16 -15 -16h-250v-165h281c4.66699 0 8.33398 -1.5 11.001 -4.5zM437.998 305.999v286h-4l-133 -286h137z" />
    <glyph glyph-name="Ccedilla" unicode="&#xc7;" horiz-adv-x="635" 
d="M602 184c-13.333 -55.333 -39.6689 -100.666 -79.002 -135.999s-93 -55 -161 -59l-5 -22c28.667 -4.66699 51.834 -14.5 69.501 -29.5s26.5 -35.167 26.5 -60.5c0 -30.667 -12.5 -55.834 -37.5 -75.501s-59.5 -29.5 -103.5 -29.5c-28 0 -51 3.33301 -69 10
c-4 1.33301 -7 3.66602 -9 6.99902s-2.33301 6.66602 -1 9.99902l13 57c2 7.33301 7 11 15 11c3.33301 0 10.333 -1 21 -3s19.667 -3 27 -3c24.667 0 37 7.33301 37 22c0 8 -5 14 -15 18s-23.667 7 -41 9c-9.33301 1.33301 -13 5.66602 -11 12.999l16 67
c-74.667 8 -132 37.167 -172 87.5s-60 113.833 -60 190.5v196c0 54.667 10.5 103.167 31.5 145.5s52 75.333 93 99s90.833 35.5 149.5 35.5c74 0 131.833 -17.167 173.5 -51.5s70.167 -80.5 85.5 -138.5c1.33301 -4 2 -7 2 -9c0 -9.33301 -4.66699 -15 -14 -17l-106 -31
c-2 -0.666992 -4.66699 -1 -8 -1c-7.33301 0 -12.666 4.66699 -15.999 14c-8.66699 28.667 -21.5 50.834 -38.5 66.501s-42.5 23.5 -76.5 23.5c-80 0 -120 -47 -120 -141v-186c0 -43.333 9.66699 -77.666 29 -102.999s49.666 -38 90.999 -38c36 0 63.333 8.83301 82 26.5
s31.334 41.834 38.001 72.501c2 10 7 15 15 15c2 0 5 -0.666992 9 -2l106 -34c12 -4 16.333 -12.667 13 -26z" />
    <glyph glyph-name="Egrave" unicode="&#xc8;" horiz-adv-x="594" 
d="M529 728c2.66699 -2.66699 3.99805 -6.33496 3.99805 -11.002v-109c0 -10.667 -5 -16 -15 -16h-279v-152h250c4.66699 0 8.33398 -1.5 11.001 -4.5s4 -6.83301 4 -11.5v-103c0 -10.667 -5 -16 -15 -16h-250v-165h280c10.667 0 16 -5.33301 16 -16v-109
c0 -10 -5.33301 -15 -16 -15h-420c-4.66699 0 -8.5 1.33301 -11.5 4s-4.5 6.33398 -4.5 11.001v702c0 4.66699 1.5 8.33398 4.5 11.001s6.83301 4 11.5 4h419c4.66699 0 8.33398 -1.33301 11.001 -4zM166.998 941.999c-3.33301 0 -6.16699 -0.832031 -8.5 -2.49902
s-3.5 -3.83398 -3.5 -6.50098s1.33301 -5.33398 4 -8.00098l98 -117c4 -4 7 -6.66699 9 -8s5.33301 -2 10 -2h78c8 0 12 3.33301 12 10c0 2.66699 -1 5.33398 -3 8.00098l-77 115c-2 4 -4.16699 6.83301 -6.5 8.5s-5.83301 2.5 -10.5 2.5h-102z" />
    <glyph glyph-name="Eacute" unicode="&#xc9;" horiz-adv-x="594" 
d="M529 728c2.66699 -2.66699 3.99805 -6.33496 3.99805 -11.002v-109c0 -10.667 -5 -16 -15 -16h-279v-152h250c4.66699 0 8.33398 -1.5 11.001 -4.5s4 -6.83301 4 -11.5v-103c0 -10.667 -5 -16 -15 -16h-250v-165h280c10.667 0 16 -5.33301 16 -16v-109
c0 -10 -5.33301 -15 -16 -15h-420c-4.66699 0 -8.5 1.33301 -11.5 4s-4.5 6.33398 -4.5 11.001v702c0 4.66699 1.5 8.33398 4.5 11.001s6.83301 4 11.5 4h419c4.66699 0 8.33398 -1.33301 11.001 -4zM242.998 815.999c-2 -2.66699 -3.00098 -5.33301 -3.00098 -8
c0 -6.66699 4.33301 -10 13 -10h77c4.66699 0 8.33398 0.666992 11.001 2s5.66699 4 9 8l98 117c2 3.33301 3 6 3 8c0 6 -4 9 -12 9h-102c-4 0 -7.16699 -0.833008 -9.5 -2.5s-4.83301 -4.5 -7.5 -8.5z" />
    <glyph glyph-name="Ecircumflex" unicode="&#xca;" horiz-adv-x="594" 
d="M529 728c2.66699 -2.66699 3.99805 -6.33496 3.99805 -11.002v-109c0 -10.667 -5 -16 -15 -16h-279v-152h250c4.66699 0 8.33398 -1.5 11.001 -4.5s4 -6.83301 4 -11.5v-103c0 -10.667 -5 -16 -15 -16h-250v-165h280c10.667 0 16 -5.33301 16 -16v-109
c0 -10 -5.33301 -15 -16 -15h-420c-4.66699 0 -8.5 1.33301 -11.5 4s-4.5 6.33398 -4.5 11.001v702c0 4.66699 1.5 8.33398 4.5 11.001s6.83301 4 11.5 4h419c4.66699 0 8.33398 -1.33301 11.001 -4zM462.998 808.999c0 -7.33301 -4 -11 -12 -11h-85c-6 0 -11 3 -15 9
l-46 63l-45 -63c-4 -6 -9 -9 -15 -9h-85c-8 0 -12 3.66699 -12 11c0 2.66699 1.66699 6.33398 5 11.001l87 113c4 6 9.33301 9 16 9h98c6 0 11.333 -3 16 -9l88 -113c3.33301 -4.66699 5 -8.33398 5 -11.001z" />
    <glyph glyph-name="Edieresis" unicode="&#xcb;" horiz-adv-x="594" 
d="M529 728c2.66699 -2.66699 3.99805 -6.33496 3.99805 -11.002v-109c0 -10.667 -5 -16 -15 -16h-279v-152h250c4.66699 0 8.33398 -1.5 11.001 -4.5s4 -6.83301 4 -11.5v-103c0 -10.667 -5 -16 -15 -16h-250v-165h280c10.667 0 16 -5.33301 16 -16v-109
c0 -10 -5.33301 -15 -16 -15h-420c-4.66699 0 -8.5 1.33301 -11.5 4s-4.5 6.33398 -4.5 11.001v702c0 4.66699 1.5 8.33398 4.5 11.001s6.83301 4 11.5 4h419c4.66699 0 8.33398 -1.33301 11.001 -4zM267.998 918.999l0.00195312 -92
c0 -6.66699 -1.83301 -11.834 -5.5 -15.501s-8.83398 -5.5 -15.501 -5.5h-85c-6.66699 0 -11.834 1.83301 -15.501 5.5s-5.5 8.83398 -5.5 15.501v92c0 13.333 7 20 21 20h85c14 0 21 -6.66699 21 -20zM469 918.999l0.000976562 -91.999
c0 -6.66699 -1.83301 -11.834 -5.5 -15.501s-8.83398 -5.5 -15.501 -5.5h-85c-13.333 0 -20 7 -20 21v92c0 13.333 6.66699 20 20 20h85c14 0 21 -6.66699 21 -20z" />
    <glyph glyph-name="Igrave" unicode="&#xcc;" horiz-adv-x="322" 
d="M239 717v-702.002c0 -10 -5 -15 -15 -15h-125c-4.66699 0 -8.5 1.33301 -11.5 4s-4.5 6.33398 -4.5 11.001v702c0 4.66699 1.5 8.33398 4.5 11.001s6.83301 4 11.5 4h125c10 0 15 -5 15 -15zM23 941.998c-3.33301 0 -6.16699 -0.832031 -8.5 -2.49902
s-3.5 -3.83398 -3.5 -6.50098s1.33301 -5.33398 4 -8.00098l98 -117c4 -4 7 -6.66699 9 -8s5.33301 -2 10 -2h78c8 0 12 3.33301 12 10c0 2.66699 -1 5.33398 -3 8.00098l-77 115c-2 4 -4.16699 6.83301 -6.5 8.5s-5.83301 2.5 -10.5 2.5h-102z" />
    <glyph glyph-name="Iacute" unicode="&#xcd;" horiz-adv-x="322" 
d="M239 717v-702.002c0 -10 -5 -15 -15 -15h-125c-4.66699 0 -8.5 1.33301 -11.5 4s-4.5 6.33398 -4.5 11.001v702c0 4.66699 1.5 8.33398 4.5 11.001s6.83301 4 11.5 4h125c10 0 15 -5 15 -15zM99 815.998c-2 -2.66699 -3.00098 -5.33301 -3.00098 -8
c0 -6.66699 4.33301 -10 13 -10h77c4.66699 0 8.33398 0.666992 11.001 2s5.66699 4 9 8l98 117c2 3.33301 3 6 3 8c0 6 -4 9 -12 9h-102c-4 0 -7.16699 -0.833008 -9.5 -2.5s-4.83301 -4.5 -7.5 -8.5z" />
    <glyph glyph-name="Icircumflex" unicode="&#xce;" horiz-adv-x="322" 
d="M239 717v-702.002c0 -10 -5 -15 -15 -15h-125c-4.66699 0 -8.5 1.33301 -11.5 4s-4.5 6.33398 -4.5 11.001v702c0 4.66699 1.5 8.33398 4.5 11.001s6.83301 4 11.5 4h125c10 0 15 -5 15 -15zM319 808.998c0 -7.33301 -4 -11 -12 -11h-85c-6 0 -11 3 -15 9l-46 63l-45 -63
c-4 -6 -9 -9 -15 -9h-85c-8 0 -12 3.66699 -12 11c0 2.66699 1.66699 6.33398 5 11.001l87 113c4 6 9.33301 9 16 9h98c6 0 11.333 -3 16 -9l88 -113c3.33301 -4.66699 5 -8.33398 5 -11.001z" />
    <glyph glyph-name="Idieresis" unicode="&#xcf;" horiz-adv-x="322" 
d="M239 717v-702.002c0 -10 -5 -15 -15 -15h-125c-4.66699 0 -8.5 1.33301 -11.5 4s-4.5 6.33398 -4.5 11.001v702c0 4.66699 1.5 8.33398 4.5 11.001s6.83301 4 11.5 4h125c10 0 15 -5 15 -15zM124 918.998l0.00195312 -92c0 -6.66699 -1.83301 -11.834 -5.5 -15.501
s-8.83398 -5.5 -15.501 -5.5h-85c-6.66699 0 -11.834 1.83301 -15.501 5.5s-5.5 8.83398 -5.5 15.501v92c0 13.333 7 20 21 20h85c14 0 21 -6.66699 21 -20zM325.002 918.998l0.000976562 -91.999c0 -6.66699 -1.83301 -11.834 -5.5 -15.501s-8.83398 -5.5 -15.501 -5.5h-85
c-13.333 0 -20 7 -20 21v92c0 13.333 6.66699 20 20 20h85c14 0 21 -6.66699 21 -20z" />
    <glyph glyph-name="Eth" unicode="&#xd0;" horiz-adv-x="720" 
d="M526.5 695c45 -24.667 78.333 -57.999 100 -99.999s32.5 -89.667 32.5 -143v-169c0 -54 -10.833 -102.333 -32.5 -145s-55 -76.334 -100 -101.001s-100.833 -37 -167.5 -37h-238c-10 0 -15 5 -15 15v284h-66c-10 0 -15 5.33301 -15 16v102c0 10.667 5 16 15 16h66v284
c0 10 5 15 15 15h238c66.667 0 122.5 -12.333 167.5 -37zM503 448.001c0 93.333 -48 140 -144 140h-97v-155h94c10 0 15 -5.33301 15 -16v-102c0 -10.667 -5 -16 -15 -16h-94v-155h97c96 0 144 46.667 144 140v164z" />
    <glyph glyph-name="Ntilde" unicode="&#xd1;" horiz-adv-x="743" 
d="M660 717v-696.001c0 -14 -7 -21 -21 -21h-158c-12.667 0 -22 7 -28 21l-149 330c-28.667 63.333 -55 135.666 -79 216.999h-3c6.66699 -70 10 -137 10 -201v-352c0 -10 -5.33301 -15 -16 -15h-117c-4.66699 0 -8.5 1.33301 -11.5 4s-4.5 6.33398 -4.5 11.001v696
c0 14 7 21 21 21h170c6.66699 0 11.834 -1.66699 15.501 -5s7.16699 -8.66602 10.5 -15.999l143 -330c21.333 -50.667 46.666 -122 75.999 -214h3c-7.33301 66 -11 132.333 -11 199v351c0 10 5.33301 15 16 15h118c10 0 15 -5 15 -15zM358.5 924.999
c11 -4 22.501 -9.66504 34.501 -16.998l11.5 -6c6.33301 -3.33301 12.166 -5.83301 17.499 -7.5s10.333 -2.5 15 -2.5c17.333 0 32.333 8.33301 45 25c4 4 7.66699 6 11 6s6.33301 -1 9 -3l40 -35c4 -2.66699 6 -6.33398 6 -11.001c0 -2 -1.33301 -5.66699 -4 -11
c-8.66699 -16.667 -22.5 -31.334 -41.5 -44.001s-39.833 -19 -62.5 -19c-14.667 0 -27.5 2 -38.5 6s-22.833 9.66699 -35.5 17l-11.5 6c-6.33301 3.33301 -12.166 5.83301 -17.499 7.5s-10.333 2.5 -15 2.5c-16 0 -31 -8.33301 -45 -25
c-2.66699 -4.66699 -6.33398 -7 -11.001 -7c-3.33301 0 -6.33301 1.33301 -9 4l-40 35c-4 3.33301 -6 7 -6 11c0 2.66699 1.33301 6 4 10c10.667 18 25 33.167 43 45.5s38.667 18.5 62 18.5c14.667 0 27.5 -2 38.5 -6z" />
    <glyph glyph-name="Ograve" unicode="&#xd2;" horiz-adv-x="707" 
d="M515 707c44 -24.667 76.667 -58.167 98 -100.5s32 -89.833 32 -142.5v-192c0 -54 -10.667 -102.5 -32 -145.5s-53.833 -76.833 -97.5 -101.5s-97.834 -37 -162.501 -37c-95.333 0 -167.666 25.5 -216.999 76.5s-74 118.833 -74 203.5v192c0 86.667 24.5 155.667 73.5 207
s121.5 77 217.5 77c64 0 118 -12.333 162 -37zM218 460v-188c0 -93.333 45 -140 135 -140c48 0 82.667 12.5 104 37.5s32 59.167 32 102.5v188c0 43.333 -10.667 77.5 -32 102.5s-56 37.5 -104 37.5c-90 0 -135 -46.667 -135 -140zM215 942
c-3.33301 0 -6.16699 -0.832031 -8.5 -2.49902s-3.5 -3.83398 -3.5 -6.50098s1.33301 -5.33398 4 -8.00098l98 -117c4 -4 7 -6.66699 9 -8s5.33301 -2 10 -2h78c8 0 12 3.33301 12 10c0 2.66699 -1 5.33398 -3 8.00098l-77 115c-2 4 -4.16699 6.83301 -6.5 8.5
s-5.83301 2.5 -10.5 2.5h-102z" />
    <glyph glyph-name="Oacute" unicode="&#xd3;" horiz-adv-x="707" 
d="M515 707c44 -24.667 76.667 -58.167 98 -100.5s32 -89.833 32 -142.5v-192c0 -54 -10.667 -102.5 -32 -145.5s-53.833 -76.833 -97.5 -101.5s-97.834 -37 -162.501 -37c-95.333 0 -167.666 25.5 -216.999 76.5s-74 118.833 -74 203.5v192c0 86.667 24.5 155.667 73.5 207
s121.5 77 217.5 77c64 0 118 -12.333 162 -37zM218 460v-188c0 -93.333 45 -140 135 -140c48 0 82.667 12.5 104 37.5s32 59.167 32 102.5v188c0 43.333 -10.667 77.5 -32 102.5s-56 37.5 -104 37.5c-90 0 -135 -46.667 -135 -140zM291 816
c-2 -2.66699 -3.00098 -5.33301 -3.00098 -8c0 -6.66699 4.33301 -10 13 -10h77c4.66699 0 8.33398 0.666992 11.001 2s5.66699 4 9 8l98 117c2 3.33301 3 6 3 8c0 6 -4 9 -12 9h-102c-4 0 -7.16699 -0.833008 -9.5 -2.5s-4.83301 -4.5 -7.5 -8.5z" />
    <glyph glyph-name="Ocircumflex" unicode="&#xd4;" horiz-adv-x="707" 
d="M515 707c44 -24.667 76.667 -58.167 98 -100.5s32 -89.833 32 -142.5v-192c0 -54 -10.667 -102.5 -32 -145.5s-53.833 -76.833 -97.5 -101.5s-97.834 -37 -162.501 -37c-95.333 0 -167.666 25.5 -216.999 76.5s-74 118.833 -74 203.5v192c0 86.667 24.5 155.667 73.5 207
s121.5 77 217.5 77c64 0 118 -12.333 162 -37zM218 460v-188c0 -93.333 45 -140 135 -140c48 0 82.667 12.5 104 37.5s32 59.167 32 102.5v188c0 43.333 -10.667 77.5 -32 102.5s-56 37.5 -104 37.5c-90 0 -135 -46.667 -135 -140zM511 809c0 -7.33301 -4 -11 -12 -11h-85
c-6 0 -11 3 -15 9l-46 63l-45 -63c-4 -6 -9 -9 -15 -9h-85c-8 0 -12 3.66699 -12 11c0 2.66699 1.66699 6.33398 5 11.001l87 113c4 6 9.33301 9 16 9h98c6 0 11.333 -3 16 -9l88 -113c3.33301 -4.66699 5 -8.33398 5 -11.001z" />
    <glyph glyph-name="Otilde" unicode="&#xd5;" horiz-adv-x="707" 
d="M515 707c44 -24.667 76.667 -58.167 98 -100.5s32 -89.833 32 -142.5v-192c0 -54 -10.667 -102.5 -32 -145.5s-53.833 -76.833 -97.5 -101.5s-97.834 -37 -162.501 -37c-95.333 0 -167.666 25.5 -216.999 76.5s-74 118.833 -74 203.5v192c0 86.667 24.5 155.667 73.5 207
s121.5 77 217.5 77c64 0 118 -12.333 162 -37zM218 460v-188c0 -93.333 45 -140 135 -140c48 0 82.667 12.5 104 37.5s32 59.167 32 102.5v188c0 43.333 -10.667 77.5 -32 102.5s-56 37.5 -104 37.5c-90 0 -135 -46.667 -135 -140zM332.5 925
c11 -4 22.501 -9.66504 34.501 -16.998l11.5 -6c6.33301 -3.33301 12.166 -5.83301 17.499 -7.5s10.333 -2.5 15 -2.5c17.333 0 32.333 8.33301 45 25c4 4 7.66699 6 11 6s6.33301 -1 9 -3l40 -35c4 -2.66699 6 -6.33398 6 -11.001c0 -2 -1.33301 -5.66699 -4 -11
c-8.66699 -16.667 -22.5 -31.334 -41.5 -44.001s-39.833 -19 -62.5 -19c-14.667 0 -27.5 2 -38.5 6s-22.833 9.66699 -35.5 17l-11.5 6c-6.33301 3.33301 -12.166 5.83301 -17.499 7.5s-10.333 2.5 -15 2.5c-16 0 -31 -8.33301 -45 -25
c-2.66699 -4.66699 -6.33398 -7 -11.001 -7c-3.33301 0 -6.33301 1.33301 -9 4l-40 35c-4 3.33301 -6 7 -6 11c0 2.66699 1.33301 6 4 10c10.667 18 25 33.167 43 45.5s38.667 18.5 62 18.5c14.667 0 27.5 -2 38.5 -6z" />
    <glyph glyph-name="Odieresis" unicode="&#xd6;" horiz-adv-x="707" 
d="M515 707c44 -24.667 76.667 -58.167 98 -100.5s32 -89.833 32 -142.5v-192c0 -54 -10.667 -102.5 -32 -145.5s-53.833 -76.833 -97.5 -101.5s-97.834 -37 -162.501 -37c-95.333 0 -167.666 25.5 -216.999 76.5s-74 118.833 -74 203.5v192c0 86.667 24.5 155.667 73.5 207
s121.5 77 217.5 77c64 0 118 -12.333 162 -37zM218 460v-188c0 -93.333 45 -140 135 -140c48 0 82.667 12.5 104 37.5s32 59.167 32 102.5v188c0 43.333 -10.667 77.5 -32 102.5s-56 37.5 -104 37.5c-90 0 -135 -46.667 -135 -140zM316 919l0.00195312 -92
c0 -6.66699 -1.83301 -11.834 -5.5 -15.501s-8.83398 -5.5 -15.501 -5.5h-85c-6.66699 0 -11.834 1.83301 -15.501 5.5s-5.5 8.83398 -5.5 15.501v92c0 13.333 7 20 21 20h85c14 0 21 -6.66699 21 -20zM517.002 919l0.000976562 -91.999
c0 -6.66699 -1.83301 -11.834 -5.5 -15.501s-8.83398 -5.5 -15.501 -5.5h-85c-13.333 0 -20 7 -20 21v92c0 13.333 6.66699 20 20 20h85c14 0 21 -6.66699 21 -20z" />
    <glyph glyph-name="multiply" unicode="&#xd7;" 
d="M562 155c0 -4 -2.00195 -7.66504 -6.00195 -10.998l-74 -73c-4 -4 -7.66699 -6 -11 -6s-7 2 -11 6l-148 147l-147 -147c-4 -4 -7.66699 -6 -11 -6s-7 2 -11 6l-74 73c-4 4 -6 7.66699 -6 11c0 4 1.66699 7.66699 5 11l149 148l-148 148
c-3.33301 3.33301 -5 6.66602 -5 9.99902c0 4 2 8 6 12l74 73c3.33301 3.33301 7 5 11 5c4.66699 0 8.33398 -1.66699 11.001 -5l146 -147l147 147c3.33301 3.33301 7 5 11 5c4.66699 0 8.33398 -1.66699 11.001 -5l75 -73c3.33301 -4.66699 5 -8.33398 5 -11.001
c0 -3.33301 -1.66699 -7.33301 -5 -12l-148 -147l148 -148c4 -4 6 -7.66699 6 -11z" />
    <glyph glyph-name="Oslash" unicode="&#xd8;" horiz-adv-x="707" 
d="M627.5 572.5c11.667 -33.667 17.5029 -69.834 17.5029 -108.501v-192c0 -54 -10.667 -102.5 -32 -145.5s-53.833 -76.833 -97.5 -101.5s-97.834 -37 -162.501 -37c-60 0 -112 11 -156 33l-33 -57c-6 -8.66699 -14.667 -13 -26 -13h-48c-4.66699 0 -8.5 1.33301 -11.5 4
s-4.5 6.33398 -4.5 11.001c0 4 1 8 3 12l54 92c-22.667 24 -39.834 52.833 -51.501 86.5s-17.5 70.834 -17.5 111.501v192c0 86.667 24.5 155.667 73.5 207s121.5 77 217.5 77c59.333 0 111.666 -11.333 156.999 -34l39 67c6 8.66699 14.667 13 26 13h47
c11.333 0 17 -5 17 -15c0 -2.66699 -1 -6.66699 -3 -12l-61 -103c23.333 -24.667 40.833 -53.834 52.5 -87.501zM221.003 221l214 363c-20 12 -47.333 18 -82 18c-92 0 -138 -47 -138 -141v-190c0 -18 2 -34.667 6 -50zM492.003 461c0 18 -2 34.334 -6 49.001l-214 -362
c21.333 -12 48.333 -18 81 -18c48.667 0 84 12.667 106 38s33 59.666 33 102.999v190z" />
    <glyph glyph-name="Ugrave" unicode="&#xd9;" horiz-adv-x="712" 
d="M635 717v-457.003c0 -51.333 -10.333 -97.5 -31 -138.5s-51.834 -73.5 -93.501 -97.5s-93.167 -36 -154.5 -36c-91.333 0 -160.666 24.833 -207.999 74.5s-71 115.834 -71 198.501v456c0 4.66699 1.5 8.33398 4.5 11.001s6.83301 4 11.5 4h125c10 0 15 -5 15 -15v-451
c0 -89.333 41 -134 123 -134s123 44.667 123 134v451c0 4.66699 1.5 8.33398 4.5 11.001s6.83301 4 11.5 4h125c10 0 15 -5 15 -15zM221 923.997c-3.33301 0 -6.16699 -0.832031 -8.5 -2.49902s-3.5 -3.83398 -3.5 -6.50098s1.33301 -5.33398 4 -8.00098l98 -117
c4 -4 7 -6.66699 9 -8s5.33301 -2 10 -2h78c8 0 12 3.33301 12 10c0 2.66699 -1 5.33398 -3 8.00098l-77 115c-2 4 -4.16699 6.83301 -6.5 8.5s-5.83301 2.5 -10.5 2.5h-102z" />
    <glyph glyph-name="Uacute" unicode="&#xda;" horiz-adv-x="712" 
d="M635 717v-457.003c0 -51.333 -10.333 -97.5 -31 -138.5s-51.834 -73.5 -93.501 -97.5s-93.167 -36 -154.5 -36c-91.333 0 -160.666 24.833 -207.999 74.5s-71 115.834 -71 198.501v456c0 4.66699 1.5 8.33398 4.5 11.001s6.83301 4 11.5 4h125c10 0 15 -5 15 -15v-451
c0 -89.333 41 -134 123 -134s123 44.667 123 134v451c0 4.66699 1.5 8.33398 4.5 11.001s6.83301 4 11.5 4h125c10 0 15 -5 15 -15zM298 797.997c-2 -2.66699 -3.00098 -5.33301 -3.00098 -8c0 -6.66699 4.33301 -10 13 -10h77c4.66699 0 8.33398 0.666992 11.001 2
s5.66699 4 9 8l98 117c2 3.33301 3 6 3 8c0 6 -4 9 -12 9h-102c-4 0 -7.16699 -0.833008 -9.5 -2.5s-4.83301 -4.5 -7.5 -8.5z" />
    <glyph glyph-name="Ucircumflex" unicode="&#xdb;" horiz-adv-x="712" 
d="M635 717v-457.003c0 -51.333 -10.333 -97.5 -31 -138.5s-51.834 -73.5 -93.501 -97.5s-93.167 -36 -154.5 -36c-91.333 0 -160.666 24.833 -207.999 74.5s-71 115.834 -71 198.501v456c0 4.66699 1.5 8.33398 4.5 11.001s6.83301 4 11.5 4h125c10 0 15 -5 15 -15v-451
c0 -89.333 41 -134 123 -134s123 44.667 123 134v451c0 4.66699 1.5 8.33398 4.5 11.001s6.83301 4 11.5 4h125c10 0 15 -5 15 -15zM518 790.997c0 -7.33301 -4 -11 -12 -11h-85c-6 0 -11 3 -15 9l-46 63l-45 -63c-4 -6 -9 -9 -15 -9h-85c-8 0 -12 3.66699 -12 11
c0 2.66699 1.66699 6.33398 5 11.001l87 113c4 6 9.33301 9 16 9h98c6 0 11.333 -3 16 -9l88 -113c3.33301 -4.66699 5 -8.33398 5 -11.001z" />
    <glyph glyph-name="Udieresis" unicode="&#xdc;" horiz-adv-x="712" 
d="M635 717v-457.003c0 -51.333 -10.333 -97.5 -31 -138.5s-51.834 -73.5 -93.501 -97.5s-93.167 -36 -154.5 -36c-91.333 0 -160.666 24.833 -207.999 74.5s-71 115.834 -71 198.501v456c0 4.66699 1.5 8.33398 4.5 11.001s6.83301 4 11.5 4h125c10 0 15 -5 15 -15v-451
c0 -89.333 41 -134 123 -134s123 44.667 123 134v451c0 4.66699 1.5 8.33398 4.5 11.001s6.83301 4 11.5 4h125c10 0 15 -5 15 -15zM323 900.997l0.00195312 -92c0 -6.66699 -1.83301 -11.834 -5.5 -15.501s-8.83398 -5.5 -15.501 -5.5h-85
c-6.66699 0 -11.834 1.83301 -15.501 5.5s-5.5 8.83398 -5.5 15.501v92c0 13.333 7 20 21 20h85c14 0 21 -6.66699 21 -20zM524.002 900.997l0.000976562 -91.999c0 -6.66699 -1.83301 -11.834 -5.5 -15.501s-8.83398 -5.5 -15.501 -5.5h-85c-13.333 0 -20 7 -20 21v92
c0 13.333 6.66699 20 20 20h85c14 0 21 -6.66699 21 -20z" />
    <glyph glyph-name="Yacute" unicode="&#xdd;" horiz-adv-x="648" 
d="M636 720c0 -2.66699 -1 -5.66699 -3 -9l-231 -409v-287c0 -10 -5.33301 -15 -16 -15h-126c-9.33301 0 -14 5 -14 15v285l-232 411c-2 3.33301 -3 6.33301 -3 9c0 8 4.66699 12 14 12h136c6 0 10.667 -0.833008 14 -2.5s6.33301 -5.16699 9 -10.5l143 -276l143 276
c2.66699 5.33301 5.66699 8.83301 9 10.5s8 2.5 14 2.5h129c9.33301 0 14 -4 14 -12zM270 798c-2 -2.66699 -3.00098 -5.33301 -3.00098 -8c0 -6.66699 4.33301 -10 13 -10h77c4.66699 0 8.33398 0.666992 11.001 2s5.66699 4 9 8l98 117c2 3.33301 3 6 3 8c0 6 -4 9 -12 9
h-102c-4 0 -7.16699 -0.833008 -9.5 -2.5s-4.83301 -4.5 -7.5 -8.5z" />
    <glyph glyph-name="Thorn" unicode="&#xde;" horiz-adv-x="628" 
d="M519.5 562.5c43 -42.333 64.5 -98.834 64.5 -169.501v-50c0 -72 -21.333 -128.833 -64 -170.5s-103.667 -62.5 -183 -62.5h-98v-95c0 -10 -5 -15 -15 -15h-125c-4.66699 0 -8.5 1.33301 -11.5 4s-4.5 6.33398 -4.5 11.001v702c0 10 5.33301 15 16 15h125
c10 0 15 -5 15 -15v-91h98c78.667 0 139.5 -21.167 182.5 -63.5zM404.5 459.999c-15.667 17.333 -42.167 26 -79.5 26h-86v-236h86c37.333 0 63.833 8.33301 79.5 25s23.5 42.667 23.5 78v29c0 34.667 -7.83301 60.667 -23.5 78z" />
    <glyph glyph-name="germandbls" unicode="&#xdf;" horiz-adv-x="649" 
d="M566.5 336.5c25 -30.333 37.5 -68.834 37.5 -115.501v-18c0 -43.333 -10.667 -81 -32 -113s-50.666 -56.667 -87.999 -74s-79 -26 -125 -26c-11.333 0 -24 0.833008 -38 2.5s-25.333 3.5 -34 5.5c-9.33301 2.66699 -13.333 8.66699 -12 18l15 95
c0.666992 4.66699 2.83398 8.16699 6.50098 10.5s7.83398 3.5 12.501 3.5c2.66699 -0.666992 7.66699 -1.66699 15 -3s15.333 -2 24 -2c30.667 0 55.667 8.66699 75 26s29 40.666 29 69.999v17c0 27.333 -6.5 48 -19.5 62s-27 23.333 -42 28s-33.833 8.66699 -56.5 12
c-5.33301 1.33301 -9 2.83301 -11 4.5s-3 4.83398 -3 9.50098v93c0 8 4.66699 12.667 14 14c53.333 10 80 38.333 80 85v10c0 24.667 -8.66699 45 -26 61s-41.333 24 -72 24s-54.167 -9.33301 -70.5 -28s-24.5 -43 -24.5 -73v-520c0 -4.66699 -1.33301 -8.33398 -4 -11.001
s-6.33398 -4 -11.001 -4h-122c-4.66699 0 -8.33398 1.33301 -11.001 4s-4 6.33398 -4 11.001v518c0 44.667 9.5 84.334 28.5 119.001s47.167 62 84.5 82s82.666 30 135.999 30c50.667 0 94.5 -9 131.5 -27s65.167 -41.833 84.5 -71.5s29 -62.167 29 -97.5v-22
c0 -32 -9 -60.833 -27 -86.5s-42 -45.167 -72 -58.5c43.333 -12.667 77.5 -34.167 102.5 -64.5z" />
    <glyph glyph-name="agrave" unicode="&#xe0;" horiz-adv-x="569" 
d="M448 517.5c37.333 -32.333 56.001 -79.501 56.001 -141.501v-361c0 -4.66699 -1.33301 -8.33398 -4 -11.001s-6.33398 -4 -11.001 -4h-110c-4.66699 0 -8.5 1.33301 -11.5 4s-4.5 6.33398 -4.5 11.001v59c-16.667 -26.667 -38 -47.5 -64 -62.5s-55.333 -22.5 -88 -22.5
c-52 0 -93.5 15.5 -124.5 46.5s-46.5 72.167 -46.5 123.5s17.333 91.333 52 120s89.667 45.667 165 51c12 1.33301 30.333 2 55 2c20 0 35 -0.333008 45 -1v40c0 26 -6.5 45 -19.5 57s-31.833 18 -56.5 18c-22.667 0 -39.167 -4 -49.5 -12s-19.166 -21 -26.499 -39
c-2.66699 -6 -5.33398 -9.66699 -8.00098 -11s-6.66699 -1.33301 -12 0l-110 28c-8.66699 2.66699 -12 8.33398 -10 17.001c8 41.333 31 74.5 69 99.5s89 37.5 153 37.5c70 0 123.667 -16.167 161 -48.5zM316.501 128.999c18.333 13.333 31.833 32.665 40.5 57.998v52
c-40 0 -69.333 -1 -88 -3c-29.333 -3.33301 -51 -10.166 -65 -20.499s-21 -25.833 -21 -46.5c0 -19.333 6 -34.166 18 -44.499s29 -15.5 51 -15.5c24.667 0 46.167 6.66699 64.5 20zM151.001 763.998c-3.33301 0 -6.16699 -0.832031 -8.5 -2.49902
s-3.5 -3.83398 -3.5 -6.50098s1.33301 -5.33398 4 -8.00098l98 -117c4 -4 7 -6.66699 9 -8s5.33301 -2 10 -2h78c8 0 12 3.33301 12 10c0 2.66699 -1 5.33398 -3 8.00098l-77 115c-2 4 -4.16699 6.83301 -6.5 8.5s-5.83301 2.5 -10.5 2.5h-102z" />
    <glyph glyph-name="aacute" unicode="&#xe1;" horiz-adv-x="569" 
d="M448 517.5c37.333 -32.333 56.001 -79.501 56.001 -141.501v-361c0 -4.66699 -1.33301 -8.33398 -4 -11.001s-6.33398 -4 -11.001 -4h-110c-4.66699 0 -8.5 1.33301 -11.5 4s-4.5 6.33398 -4.5 11.001v59c-16.667 -26.667 -38 -47.5 -64 -62.5s-55.333 -22.5 -88 -22.5
c-52 0 -93.5 15.5 -124.5 46.5s-46.5 72.167 -46.5 123.5s17.333 91.333 52 120s89.667 45.667 165 51c12 1.33301 30.333 2 55 2c20 0 35 -0.333008 45 -1v40c0 26 -6.5 45 -19.5 57s-31.833 18 -56.5 18c-22.667 0 -39.167 -4 -49.5 -12s-19.166 -21 -26.499 -39
c-2.66699 -6 -5.33398 -9.66699 -8.00098 -11s-6.66699 -1.33301 -12 0l-110 28c-8.66699 2.66699 -12 8.33398 -10 17.001c8 41.333 31 74.5 69 99.5s89 37.5 153 37.5c70 0 123.667 -16.167 161 -48.5zM316.501 128.999c18.333 13.333 31.833 32.665 40.5 57.998v52
c-40 0 -69.333 -1 -88 -3c-29.333 -3.33301 -51 -10.166 -65 -20.499s-21 -25.833 -21 -46.5c0 -19.333 6 -34.166 18 -44.499s29 -15.5 51 -15.5c24.667 0 46.167 6.66699 64.5 20zM228.001 637.998c-2 -2.66699 -3.00098 -5.33301 -3.00098 -8
c0 -6.66699 4.33301 -10 13 -10h77c4.66699 0 8.33398 0.666992 11.001 2s5.66699 4 9 8l98 117c2 3.33301 3 6 3 8c0 6 -4 9 -12 9h-102c-4 0 -7.16699 -0.833008 -9.5 -2.5s-4.83301 -4.5 -7.5 -8.5z" />
    <glyph glyph-name="acircumflex" unicode="&#xe2;" horiz-adv-x="569" 
d="M448 517.5c37.333 -32.333 56.001 -79.501 56.001 -141.501v-361c0 -4.66699 -1.33301 -8.33398 -4 -11.001s-6.33398 -4 -11.001 -4h-110c-4.66699 0 -8.5 1.33301 -11.5 4s-4.5 6.33398 -4.5 11.001v59c-16.667 -26.667 -38 -47.5 -64 -62.5s-55.333 -22.5 -88 -22.5
c-52 0 -93.5 15.5 -124.5 46.5s-46.5 72.167 -46.5 123.5s17.333 91.333 52 120s89.667 45.667 165 51c12 1.33301 30.333 2 55 2c20 0 35 -0.333008 45 -1v40c0 26 -6.5 45 -19.5 57s-31.833 18 -56.5 18c-22.667 0 -39.167 -4 -49.5 -12s-19.166 -21 -26.499 -39
c-2.66699 -6 -5.33398 -9.66699 -8.00098 -11s-6.66699 -1.33301 -12 0l-110 28c-8.66699 2.66699 -12 8.33398 -10 17.001c8 41.333 31 74.5 69 99.5s89 37.5 153 37.5c70 0 123.667 -16.167 161 -48.5zM316.501 128.999c18.333 13.333 31.833 32.665 40.5 57.998v52
c-40 0 -69.333 -1 -88 -3c-29.333 -3.33301 -51 -10.166 -65 -20.499s-21 -25.833 -21 -46.5c0 -19.333 6 -34.166 18 -44.499s29 -15.5 51 -15.5c24.667 0 46.167 6.66699 64.5 20zM448.001 630.998c0 -7.33301 -4 -11 -12 -11h-85c-6 0 -11 3 -15 9l-46 63l-45 -63
c-4 -6 -9 -9 -15 -9h-85c-8 0 -12 3.66699 -12 11c0 2.66699 1.66699 6.33398 5 11.001l87 113c4 6 9.33301 9 16 9h98c6 0 11.333 -3 16 -9l88 -113c3.33301 -4.66699 5 -8.33398 5 -11.001z" />
    <glyph glyph-name="atilde" unicode="&#xe3;" horiz-adv-x="569" 
d="M448 517.5c37.333 -32.333 56.001 -79.501 56.001 -141.501v-361c0 -4.66699 -1.33301 -8.33398 -4 -11.001s-6.33398 -4 -11.001 -4h-110c-4.66699 0 -8.5 1.33301 -11.5 4s-4.5 6.33398 -4.5 11.001v59c-16.667 -26.667 -38 -47.5 -64 -62.5s-55.333 -22.5 -88 -22.5
c-52 0 -93.5 15.5 -124.5 46.5s-46.5 72.167 -46.5 123.5s17.333 91.333 52 120s89.667 45.667 165 51c12 1.33301 30.333 2 55 2c20 0 35 -0.333008 45 -1v40c0 26 -6.5 45 -19.5 57s-31.833 18 -56.5 18c-22.667 0 -39.167 -4 -49.5 -12s-19.166 -21 -26.499 -39
c-2.66699 -6 -5.33398 -9.66699 -8.00098 -11s-6.66699 -1.33301 -12 0l-110 28c-8.66699 2.66699 -12 8.33398 -10 17.001c8 41.333 31 74.5 69 99.5s89 37.5 153 37.5c70 0 123.667 -16.167 161 -48.5zM316.501 128.999c18.333 13.333 31.833 32.665 40.5 57.998v52
c-40 0 -69.333 -1 -88 -3c-29.333 -3.33301 -51 -10.166 -65 -20.499s-21 -25.833 -21 -46.5c0 -19.333 6 -34.166 18 -44.499s29 -15.5 51 -15.5c24.667 0 46.167 6.66699 64.5 20zM269.501 746.998c11 -4 22.501 -9.66504 34.501 -16.998l11.5 -6
c6.33301 -3.33301 12.166 -5.83301 17.499 -7.5s10.333 -2.5 15 -2.5c17.333 0 32.333 8.33301 45 25c4 4 7.66699 6 11 6s6.33301 -1 9 -3l40 -35c4 -2.66699 6 -6.33398 6 -11.001c0 -2 -1.33301 -5.66699 -4 -11c-8.66699 -16.667 -22.5 -31.334 -41.5 -44.001
s-39.833 -19 -62.5 -19c-14.667 0 -27.5 2 -38.5 6s-22.833 9.66699 -35.5 17l-11.5 6c-6.33301 3.33301 -12.166 5.83301 -17.499 7.5s-10.333 2.5 -15 2.5c-16 0 -31 -8.33301 -45 -25c-2.66699 -4.66699 -6.33398 -7 -11.001 -7c-3.33301 0 -6.33301 1.33301 -9 4l-40 35
c-4 3.33301 -6 7 -6 11c0 2.66699 1.33301 6 4 10c10.667 18 25 33.167 43 45.5s38.667 18.5 62 18.5c14.667 0 27.5 -2 38.5 -6z" />
    <glyph glyph-name="adieresis" unicode="&#xe4;" horiz-adv-x="569" 
d="M448 517.5c37.333 -32.333 56.001 -79.501 56.001 -141.501v-361c0 -4.66699 -1.33301 -8.33398 -4 -11.001s-6.33398 -4 -11.001 -4h-110c-4.66699 0 -8.5 1.33301 -11.5 4s-4.5 6.33398 -4.5 11.001v59c-16.667 -26.667 -38 -47.5 -64 -62.5s-55.333 -22.5 -88 -22.5
c-52 0 -93.5 15.5 -124.5 46.5s-46.5 72.167 -46.5 123.5s17.333 91.333 52 120s89.667 45.667 165 51c12 1.33301 30.333 2 55 2c20 0 35 -0.333008 45 -1v40c0 26 -6.5 45 -19.5 57s-31.833 18 -56.5 18c-22.667 0 -39.167 -4 -49.5 -12s-19.166 -21 -26.499 -39
c-2.66699 -6 -5.33398 -9.66699 -8.00098 -11s-6.66699 -1.33301 -12 0l-110 28c-8.66699 2.66699 -12 8.33398 -10 17.001c8 41.333 31 74.5 69 99.5s89 37.5 153 37.5c70 0 123.667 -16.167 161 -48.5zM316.501 128.999c18.333 13.333 31.833 32.665 40.5 57.998v52
c-40 0 -69.333 -1 -88 -3c-29.333 -3.33301 -51 -10.166 -65 -20.499s-21 -25.833 -21 -46.5c0 -19.333 6 -34.166 18 -44.499s29 -15.5 51 -15.5c24.667 0 46.167 6.66699 64.5 20zM253.001 740.998l0.00195312 -92c0 -6.66699 -1.83301 -11.834 -5.5 -15.501
s-8.83398 -5.5 -15.501 -5.5h-85c-6.66699 0 -11.834 1.83301 -15.501 5.5s-5.5 8.83398 -5.5 15.501v92c0 13.333 7 20 21 20h85c14 0 21 -6.66699 21 -20zM454.003 740.998l0.000976562 -91.999c0 -6.66699 -1.83301 -11.834 -5.5 -15.501s-8.83398 -5.5 -15.501 -5.5h-85
c-13.333 0 -20 7 -20 21v92c0 13.333 6.66699 20 20 20h85c14 0 21 -6.66699 21 -20z" />
    <glyph glyph-name="aring" unicode="&#xe5;" horiz-adv-x="569" 
d="M448 517.5c37.333 -32.333 56.001 -79.501 56.001 -141.501v-361c0 -4.66699 -1.33301 -8.33398 -4 -11.001s-6.33398 -4 -11.001 -4h-110c-4.66699 0 -8.5 1.33301 -11.5 4s-4.5 6.33398 -4.5 11.001v59c-16.667 -26.667 -38 -47.5 -64 -62.5s-55.333 -22.5 -88 -22.5
c-52 0 -93.5 15.5 -124.5 46.5s-46.5 72.167 -46.5 123.5s17.333 91.333 52 120s89.667 45.667 165 51c12 1.33301 30.333 2 55 2c20 0 35 -0.333008 45 -1v40c0 26 -6.5 45 -19.5 57s-31.833 18 -56.5 18c-22.667 0 -39.167 -4 -49.5 -12s-19.166 -21 -26.499 -39
c-2.66699 -6 -5.33398 -9.66699 -8.00098 -11s-6.66699 -1.33301 -12 0l-110 28c-8.66699 2.66699 -12 8.33398 -10 17.001c8 41.333 31 74.5 69 99.5s89 37.5 153 37.5c70 0 123.667 -16.167 161 -48.5zM316.501 128.999c18.333 13.333 31.833 32.665 40.5 57.998v52
c-40 0 -69.333 -1 -88 -3c-29.333 -3.33301 -51 -10.166 -65 -20.499s-21 -25.833 -21 -46.5c0 -19.333 6 -34.166 18 -44.499s29 -15.5 51 -15.5c24.667 0 46.167 6.66699 64.5 20zM226.001 604.498c-20 11.667 -35.833 27.334 -47.5 47.001s-17.5 40.834 -17.5 63.501
s5.83301 43.834 17.5 63.501s27.5 35.334 47.5 47.001s41.333 17.5 64 17.5s44 -5.83301 64 -17.5s35.833 -27.334 47.5 -47.001s17.5 -40.834 17.5 -63.501s-6.16699 -43.834 -18.5 -63.501s-28.333 -35.334 -48 -47.001s-40.5 -17.5 -62.5 -17.5
c-22.667 0 -44 5.83301 -64 17.5zM334.501 670.998c12.333 12.667 18.5 27.334 18.5 44.001c0 17.333 -6.16699 32.166 -18.5 44.499s-27.166 18.5 -44.499 18.5s-32.166 -6.16699 -44.499 -18.5s-18.5 -27.166 -18.5 -44.499c0 -16.667 6.16699 -31.334 18.5 -44.001
s27.166 -19 44.499 -19s32.166 6.33301 44.499 19z" />
    <glyph glyph-name="ae" unicode="&#xe6;" horiz-adv-x="887" 
d="M507 232l-0.00195312 -8c0 -36.667 7.5 -64.667 22.5 -84s42.167 -29 81.5 -29c30 0 52.333 5.16699 67 15.5s26.667 24.833 36 43.5c2 4 4.33301 7.33301 7 10s5.66699 4 9 4s7.66602 -1.33301 12.999 -4l79 -40c8.66699 -4 13 -9.66699 13 -17c0 -4 -1 -8.66699 -3 -14
c-17.333 -38.667 -45.166 -68.5 -83.499 -89.5s-84.166 -31.5 -137.499 -31.5c-52 0 -95.5 9.5 -130.5 28.5s-62.5 44.167 -82.5 75.5c-18 -32 -42.833 -57.167 -74.5 -75.5s-67.5 -27.5 -107.5 -27.5c-53.333 0 -96 15.333 -128 46s-48 72 -48 124
c0 51.333 17.667 91.333 53 120s92.333 45.334 171 50.001c12 1.33301 30.333 2 55 2c19.333 0 34 -0.333008 44 -1v38c0 52 -26.667 78 -80 78c-22.667 0 -39.667 -4.33301 -51 -13s-20.333 -21.334 -27 -38.001c-2.66699 -6 -5.33398 -9.66699 -8.00098 -11
s-6.66699 -1.33301 -12 0l-110 28c-8.66699 2.66699 -12 8.33398 -10 17.001c8.66699 39.333 30.834 72 66.501 98s81.834 39 138.501 39c42 0 77.667 -7.5 107 -22.5s51.666 -35.833 66.999 -62.5c17.333 26.667 41.333 47.5 72 62.5s65.334 22.5 104.001 22.5
c44 0 82.5 -9.83301 115.5 -29.5s58.333 -46.334 76 -80.001s26.5 -71.167 26.5 -112.5v-88c0 -8 -2 -14 -6 -18s-10.667 -6 -20 -6h-305zM528.998 413c-14.667 -20.667 -21.999 -47.001 -21.999 -79.001v-4h193v18c0 28.667 -8 51.834 -24 69.501s-40.333 26.5 -73 26.5
c-34.667 0 -59.334 -10.333 -74.001 -31zM320.999 128.999c19.333 13.333 33.332 32.3311 41.999 56.998v52c-32.667 1.33301 -63 0.333008 -91 -3c-30.667 -3.33301 -53.167 -10.166 -67.5 -20.499s-21.5 -25.5 -21.5 -45.5c0 -19.333 6.33301 -34.166 19 -44.499
s30.334 -15.5 53.001 -15.5c24.667 0 46.667 6.66699 66 20z" />
    <glyph glyph-name="ccedilla" unicode="&#xe7;" horiz-adv-x="548" 
d="M511 157.5c1.33301 -3.66699 1.33203 -8.49707 -0.000976562 -14.4971c-6.66699 -40 -28.334 -74.667 -65.001 -104s-83.667 -46 -141 -50l-6 -22c28.667 -4.66699 51.834 -14.5 69.501 -29.5s26.5 -35.167 26.5 -60.5c0 -30.667 -12.5 -55.834 -37.5 -75.501
s-59.5 -29.5 -103.5 -29.5c-28 0 -51 3.33301 -69 10c-4 1.33301 -7 3.66602 -9 6.99902s-2.33301 6.66602 -1 9.99902l13 57c2 7.33301 7 11 15 11c3.33301 0 10.333 -1 21 -3s19.667 -3 27 -3c24 0 36 7.33301 36 22c0 8 -4.83301 14 -14.5 18s-23.167 7 -40.5 9
c-9.33301 1.33301 -13 5.66602 -11 12.999l16 68c-58 8.66699 -103.333 33 -136 73s-49 89.667 -49 149v124c0 43.333 9.16699 82.333 27.5 117s44.666 62 78.999 82s74.833 30 121.5 30c64 0 116.667 -15.167 158 -45.5s65.333 -72.166 72 -125.499v-4
c0 -7.33301 -5 -12.333 -15 -15l-94 -26l-12 -2c-4 0 -6.83301 1 -8.5 3s-3.16699 5.33301 -4.5 10c-0.666992 2 -3.16699 10 -7.5 24s-13.166 25.5 -26.499 34.5s-30.666 13.5 -51.999 13.5c-28.667 0 -50.167 -9.16699 -64.5 -27.5s-21.5 -43.5 -21.5 -75.5v-109
c0 -66.667 28.667 -100 86 -100c28 0 48 5.5 60 16.5s21.667 27.833 29 50.5c2.66699 9.33301 6.66699 14 12 14c3.33301 0 7.33301 -1 12 -3l96 -33c6.66699 -2 10.667 -4.83301 12 -8.5z" />
    <glyph glyph-name="egrave" unicode="&#xe8;" horiz-adv-x="576" 
d="M196 231l0.00195312 -20.999c0 -30.667 8.33301 -54.834 25 -72.501s42 -26.5 76 -26.5c31.333 0 54.166 4.83301 68.499 14.5s26.833 24.5 37.5 44.5c3.33301 5.33301 6 9 8 11s4.66699 3 8 3s7.66602 -1.33301 12.999 -4l79 -40
c9.33301 -4.66699 14 -10.334 14 -17.001c0 -4 -1.33301 -8.66699 -4 -14c-16.667 -38 -45 -67.667 -85 -89s-86.667 -32 -140 -32c-52 0 -96.333 9.5 -133 28.5s-64.334 45.5 -83.001 79.5s-28 73 -28 117v128c0 43.333 9 81.833 27 115.5s45.333 60.334 82 80.001
s81.334 29.5 134.001 29.5c50 0 92.5 -9.66699 127.5 -29s61.167 -45.833 78.5 -79.5s26 -71.5 26 -113.5v-88c0 -8 -1.83301 -14.167 -5.5 -18.5s-10.5 -6.5 -20.5 -6.5h-305zM220.502 417.501c-16.333 -17.667 -24.501 -40.834 -24.501 -69.501v-19h193v19
c0 28.667 -8.16699 51.834 -24.5 69.501s-40.166 26.5 -71.499 26.5c-32 0 -56.167 -8.83301 -72.5 -26.5zM152.001 764.001c-3.33301 0 -6.16699 -0.832031 -8.5 -2.49902s-3.5 -3.83398 -3.5 -6.50098s1.33301 -5.33398 4 -8.00098l98 -117c4 -4 7 -6.66699 9 -8
s5.33301 -2 10 -2h78c8 0 12 3.33301 12 10c0 2.66699 -1 5.33398 -3 8.00098l-77 115c-2 4 -4.16699 6.83301 -6.5 8.5s-5.83301 2.5 -10.5 2.5h-102z" />
    <glyph glyph-name="eacute" unicode="&#xe9;" horiz-adv-x="576" 
d="M196 231l0.00195312 -20.999c0 -30.667 8.33301 -54.834 25 -72.501s42 -26.5 76 -26.5c31.333 0 54.166 4.83301 68.499 14.5s26.833 24.5 37.5 44.5c3.33301 5.33301 6 9 8 11s4.66699 3 8 3s7.66602 -1.33301 12.999 -4l79 -40
c9.33301 -4.66699 14 -10.334 14 -17.001c0 -4 -1.33301 -8.66699 -4 -14c-16.667 -38 -45 -67.667 -85 -89s-86.667 -32 -140 -32c-52 0 -96.333 9.5 -133 28.5s-64.334 45.5 -83.001 79.5s-28 73 -28 117v128c0 43.333 9 81.833 27 115.5s45.333 60.334 82 80.001
s81.334 29.5 134.001 29.5c50 0 92.5 -9.66699 127.5 -29s61.167 -45.833 78.5 -79.5s26 -71.5 26 -113.5v-88c0 -8 -1.83301 -14.167 -5.5 -18.5s-10.5 -6.5 -20.5 -6.5h-305zM220.502 417.501c-16.333 -17.667 -24.501 -40.834 -24.501 -69.501v-19h193v19
c0 28.667 -8.16699 51.834 -24.5 69.501s-40.166 26.5 -71.499 26.5c-32 0 -56.167 -8.83301 -72.5 -26.5zM228.001 638.001c-2 -2.66699 -3.00098 -5.33301 -3.00098 -8c0 -6.66699 4.33301 -10 13 -10h77c4.66699 0 8.33398 0.666992 11.001 2s5.66699 4 9 8l98 117
c2 3.33301 3 6 3 8c0 6 -4 9 -12 9h-102c-4 0 -7.16699 -0.833008 -9.5 -2.5s-4.83301 -4.5 -7.5 -8.5z" />
    <glyph glyph-name="ecircumflex" unicode="&#xea;" horiz-adv-x="576" 
d="M196 231l0.00195312 -20.999c0 -30.667 8.33301 -54.834 25 -72.501s42 -26.5 76 -26.5c31.333 0 54.166 4.83301 68.499 14.5s26.833 24.5 37.5 44.5c3.33301 5.33301 6 9 8 11s4.66699 3 8 3s7.66602 -1.33301 12.999 -4l79 -40
c9.33301 -4.66699 14 -10.334 14 -17.001c0 -4 -1.33301 -8.66699 -4 -14c-16.667 -38 -45 -67.667 -85 -89s-86.667 -32 -140 -32c-52 0 -96.333 9.5 -133 28.5s-64.334 45.5 -83.001 79.5s-28 73 -28 117v128c0 43.333 9 81.833 27 115.5s45.333 60.334 82 80.001
s81.334 29.5 134.001 29.5c50 0 92.5 -9.66699 127.5 -29s61.167 -45.833 78.5 -79.5s26 -71.5 26 -113.5v-88c0 -8 -1.83301 -14.167 -5.5 -18.5s-10.5 -6.5 -20.5 -6.5h-305zM220.502 417.501c-16.333 -17.667 -24.501 -40.834 -24.501 -69.501v-19h193v19
c0 28.667 -8.16699 51.834 -24.5 69.501s-40.166 26.5 -71.499 26.5c-32 0 -56.167 -8.83301 -72.5 -26.5zM448.001 631.001c0 -7.33301 -4 -11 -12 -11h-85c-6 0 -11 3 -15 9l-46 63l-45 -63c-4 -6 -9 -9 -15 -9h-85c-8 0 -12 3.66699 -12 11
c0 2.66699 1.66699 6.33398 5 11.001l87 113c4 6 9.33301 9 16 9h98c6 0 11.333 -3 16 -9l88 -113c3.33301 -4.66699 5 -8.33398 5 -11.001z" />
    <glyph glyph-name="edieresis" unicode="&#xeb;" horiz-adv-x="576" 
d="M196 231l0.00195312 -20.999c0 -30.667 8.33301 -54.834 25 -72.501s42 -26.5 76 -26.5c31.333 0 54.166 4.83301 68.499 14.5s26.833 24.5 37.5 44.5c3.33301 5.33301 6 9 8 11s4.66699 3 8 3s7.66602 -1.33301 12.999 -4l79 -40
c9.33301 -4.66699 14 -10.334 14 -17.001c0 -4 -1.33301 -8.66699 -4 -14c-16.667 -38 -45 -67.667 -85 -89s-86.667 -32 -140 -32c-52 0 -96.333 9.5 -133 28.5s-64.334 45.5 -83.001 79.5s-28 73 -28 117v128c0 43.333 9 81.833 27 115.5s45.333 60.334 82 80.001
s81.334 29.5 134.001 29.5c50 0 92.5 -9.66699 127.5 -29s61.167 -45.833 78.5 -79.5s26 -71.5 26 -113.5v-88c0 -8 -1.83301 -14.167 -5.5 -18.5s-10.5 -6.5 -20.5 -6.5h-305zM220.502 417.501c-16.333 -17.667 -24.501 -40.834 -24.501 -69.501v-19h193v19
c0 28.667 -8.16699 51.834 -24.5 69.501s-40.166 26.5 -71.499 26.5c-32 0 -56.167 -8.83301 -72.5 -26.5zM253.001 741.001l0.00195312 -92c0 -6.66699 -1.83301 -11.834 -5.5 -15.501s-8.83398 -5.5 -15.501 -5.5h-85c-6.66699 0 -11.834 1.83301 -15.501 5.5
s-5.5 8.83398 -5.5 15.501v92c0 13.333 7 20 21 20h85c14 0 21 -6.66699 21 -20zM454.003 741.001l0.000976562 -91.999c0 -6.66699 -1.83301 -11.834 -5.5 -15.501s-8.83398 -5.5 -15.501 -5.5h-85c-13.333 0 -20 7 -20 21v92c0 13.333 6.66699 20 20 20h85
c14 0 21 -6.66699 21 -20z" />
    <glyph glyph-name="igrave" unicode="&#xec;" horiz-adv-x="290" 
d="M217 550c2.66699 -2.66699 4 -6.33398 4 -11.001v-524c0 -4.66699 -1.33301 -8.33398 -4 -11.001s-6.33398 -4 -11.001 -4h-121c-4.66699 0 -8.5 1.33301 -11.5 4s-4.5 6.33398 -4.5 11.001v524c0 4.66699 1.5 8.33398 4.5 11.001s6.83301 4 11.5 4h121
c4.66699 0 8.33398 -1.33301 11.001 -4zM6 757c-8 0 -12.001 -3.00098 -12.001 -9.00098c0 -2 1 -4.66699 3 -8l98 -117c3.33301 -4 6.33301 -6.66699 9 -8s6.33398 -2 11.001 -2h77c8.66699 0 13 3.33301 13 10c0 2.66699 -1 5.33398 -3 8.00098l-77 115
c-2.66699 4 -5.16699 6.83301 -7.5 8.5s-5.5 2.5 -9.5 2.5h-102z" />
    <glyph glyph-name="iacute" unicode="&#xed;" horiz-adv-x="290" 
d="M217 550c2.66699 -2.66699 4 -6.33398 4 -11.001v-524c0 -4.66699 -1.33301 -8.33398 -4 -11.001s-6.33398 -4 -11.001 -4h-121c-4.66699 0 -8.5 1.33301 -11.5 4s-4.5 6.33398 -4.5 11.001v524c0 4.66699 1.5 8.33398 4.5 11.001s6.83301 4 11.5 4h121
c4.66699 0 8.33398 -1.33301 11.001 -4zM83 631c-2 -2.66699 -3 -5.33496 -3 -8.00195c0 -6.66699 4 -10 12 -10h78c4.66699 0 8.16699 0.666992 10.5 2s5.16602 4 8.49902 8l98 117c2.66699 2.66699 4 5.33398 4 8.00098s-1.16699 4.83398 -3.5 6.50098
s-5.16602 2.5 -8.49902 2.5h-102c-4.66699 0 -8.16699 -0.833008 -10.5 -2.5s-4.83301 -4.5 -7.5 -8.5z" />
    <glyph glyph-name="icircumflex" unicode="&#xee;" horiz-adv-x="290" 
d="M217 550c2.66699 -2.66699 4 -6.33398 4 -11.001v-524c0 -4.66699 -1.33301 -8.33398 -4 -11.001s-6.33398 -4 -11.001 -4h-121c-4.66699 0 -8.5 1.33301 -11.5 4s-4.5 6.33398 -4.5 11.001v524c0 4.66699 1.5 8.33398 4.5 11.001s6.83301 4 11.5 4h121
c4.66699 0 8.33398 -1.33301 11.001 -4zM303 624c0 -7.33301 -3.99902 -10.999 -11.999 -10.999h-85c-6.66699 0 -11.667 3 -15 9l-46 63l-45 -63c-4 -6 -9.33301 -9 -16 -9h-85c-3.33301 0 -6 1 -8 3s-3 4.66699 -3 8c0 2.66699 1.66699 6.33398 5 11.001l87 113
c4 6 9.33301 9 16 9h98c3.33301 0 6.16602 -0.833008 8.49902 -2.5s4.5 -3.83398 6.5 -6.50098l89 -113c3.33301 -4.66699 5 -8.33398 5 -11.001z" />
    <glyph glyph-name="idieresis" unicode="&#xef;" horiz-adv-x="290" 
d="M111 734l0.000976562 -92.001c0 -14 -6.66699 -21 -20 -21h-85c-6.66699 0 -11.834 1.83301 -15.501 5.5s-5.5 8.83398 -5.5 15.501v92c0 13.333 7 20 21 20h85c13.333 0 20 -6.66699 20 -20zM305.001 733.999l0.00195312 -92c0 -6.66699 -1.83301 -11.834 -5.5 -15.501
s-8.83398 -5.5 -15.501 -5.5h-85c-6.66699 0 -11.834 1.83301 -15.501 5.5s-5.5 8.83398 -5.5 15.501v92c0 13.333 7 20 21 20h85c14 0 21 -6.66699 21 -20zM217.003 549.999c2.66699 -2.66699 4 -6.33398 4 -11.001v-524c0 -4.66699 -1.33301 -8.33398 -4 -11.001
s-6.33398 -4 -11.001 -4h-121c-4.66699 0 -8.5 1.33301 -11.5 4s-4.5 6.33398 -4.5 11.001v524c0 4.66699 1.5 8.33398 4.5 11.001s6.83301 4 11.5 4h121c4.66699 0 8.33398 -1.33301 11.001 -4z" />
    <glyph glyph-name="eth" unicode="&#xf0;" horiz-adv-x="565" 
d="M514 299l0.000976562 -95.002c0 -66.667 -19.333 -119.5 -58 -158.5s-96.667 -58.5 -174 -58.5c-76.667 0.666992 -134.334 20.334 -173.001 59.001s-58 90.334 -58 155.001v93c0 57.333 14.167 105.666 42.5 144.999s68.166 59 119.499 59
c22.667 0 47.667 -3.66699 75 -11l-36 70h-121c-10 0 -15 5.33301 -15 16v81c0 10.667 5 16 15 16h62l-21 42c-1.33301 2 -2 4.33301 -2 7c0 4 3 8 9 12l100 54c4 1.33301 6.33301 2 7 2c6 0 10.333 -3 13 -9l56 -108h98c4.66699 0 8.33398 -1.5 11.001 -4.5
s4 -6.83301 4 -11.5v-81c0 -10.667 -5 -16 -15 -16h-40l76 -146c16.667 -31.333 25 -68.666 25 -111.999zM363.001 292.998c0 27.333 -6.66699 49 -20 65s-33.333 24 -60 24s-46.667 -8 -60 -24s-20 -37.667 -20 -65v-86c0 -27.333 6.5 -48.666 19.5 -63.999
s33.167 -23 60.5 -23s47.5 7.66699 60.5 23s19.5 36.666 19.5 63.999v86z" />
    <glyph glyph-name="ntilde" unicode="&#xf1;" horiz-adv-x="607" 
d="M258.5 404.5c-17.667 -15.667 -30.168 -36.832 -37.501 -63.499v-326c0 -4.66699 -1.33301 -8.33398 -4 -11.001s-6.33398 -4 -11.001 -4h-121c-4.66699 -0 -8.5 1.33301 -11.5 4s-4.5 6.33398 -4.5 11.001v525c0 4 1.33301 7.33301 4 10s6.33398 4 11.001 4h117
c4.66699 0 8.33398 -1.33301 11.001 -4s4 -6 4 -10v-63c18.667 26 41.834 47.333 69.501 64s59.167 25 94.5 25c51.333 0 91.166 -17.5 119.499 -52.5s42.5 -82.167 42.5 -141.5v-357c0 -10 -5 -15 -15 -15h-121c-10 0 -15 5 -15 15v332
c0 25.333 -6.16699 45.166 -18.5 59.499s-29.833 21.5 -52.5 21.5c-23.333 0 -43.833 -7.83301 -61.5 -23.5zM285.499 747.002c11 -4 22.501 -9.66504 34.501 -16.998l11.5 -6c6.33301 -3.33301 12.166 -5.83301 17.499 -7.5s10.333 -2.5 15 -2.5
c17.333 0 32.333 8.33301 45 25c4 4 7.66699 6 11 6s6.33301 -1 9 -3l40 -35c4 -2.66699 6 -6.33398 6 -11.001c0 -2 -1.33301 -5.66699 -4 -11c-8.66699 -16.667 -22.5 -31.334 -41.5 -44.001s-39.833 -19 -62.5 -19c-14.667 0 -27.5 2 -38.5 6s-22.833 9.66699 -35.5 17
l-11.5 6c-6.33301 3.33301 -12.166 5.83301 -17.499 7.5s-10.333 2.5 -15 2.5c-16 0 -31 -8.33301 -45 -25c-2.66699 -4.66699 -6.33398 -7 -11.001 -7c-3.33301 0 -6.33301 1.33301 -9 4l-40 35c-4 3.33301 -6 7 -6 11c0 2.66699 1.33301 6 4 10
c10.667 18 25 33.167 43 45.5s38.667 18.5 62 18.5c14.667 0 27.5 -2 38.5 -6z" />
    <glyph glyph-name="ograve" unicode="&#xf2;" horiz-adv-x="592" 
d="M478.5 503c41 -42 61.5 -97.333 61.5 -166v-120c0 -70 -20.333 -125.667 -61 -167s-101.667 -62 -183 -62c-80.667 0 -141.5 20.5 -182.5 61.5s-61.5 95.5 -61.5 163.5v120c0 70.667 20.5 127.167 61.5 169.5s101.833 63.5 182.5 63.5s141.5 -21 182.5 -63zM227 405.5
c-15.333 -18.333 -23.001 -43.5 -23.001 -75.5v-109c0 -32 7.5 -56.667 22.5 -74s38.167 -26 69.5 -26c62 0 93 33.333 93 100v109c0 32 -7.66699 57.167 -23 75.5s-38.666 27.5 -69.999 27.5c-30.667 0 -53.667 -9.16699 -69 -27.5zM157.999 764
c-3.33301 0 -6.16699 -0.832031 -8.5 -2.49902s-3.5 -3.83398 -3.5 -6.50098s1.33301 -5.33398 4 -8.00098l98 -117c4 -4 7 -6.66699 9 -8s5.33301 -2 10 -2h78c8 0 12 3.33301 12 10c0 2.66699 -1 5.33398 -3 8.00098l-77 115c-2 4 -4.16699 6.83301 -6.5 8.5
s-5.83301 2.5 -10.5 2.5h-102z" />
    <glyph glyph-name="oacute" unicode="&#xf3;" horiz-adv-x="592" 
d="M478.5 503c41 -42 61.5 -97.333 61.5 -166v-120c0 -70 -20.333 -125.667 -61 -167s-101.667 -62 -183 -62c-80.667 0 -141.5 20.5 -182.5 61.5s-61.5 95.5 -61.5 163.5v120c0 70.667 20.5 127.167 61.5 169.5s101.833 63.5 182.5 63.5s141.5 -21 182.5 -63zM227 405.5
c-15.333 -18.333 -23.001 -43.5 -23.001 -75.5v-109c0 -32 7.5 -56.667 22.5 -74s38.167 -26 69.5 -26c62 0 93 33.333 93 100v109c0 32 -7.66699 57.167 -23 75.5s-38.666 27.5 -69.999 27.5c-30.667 0 -53.667 -9.16699 -69 -27.5zM234.999 638
c-2 -2.66699 -3.00098 -5.33301 -3.00098 -8c0 -6.66699 4.33301 -10 13 -10h77c4.66699 0 8.33398 0.666992 11.001 2s5.66699 4 9 8l98 117c2 3.33301 3 6 3 8c0 6 -4 9 -12 9h-102c-4 0 -7.16699 -0.833008 -9.5 -2.5s-4.83301 -4.5 -7.5 -8.5z" />
    <glyph glyph-name="ocircumflex" unicode="&#xf4;" horiz-adv-x="592" 
d="M478.5 503c41 -42 61.5 -97.333 61.5 -166v-120c0 -70 -20.333 -125.667 -61 -167s-101.667 -62 -183 -62c-80.667 0 -141.5 20.5 -182.5 61.5s-61.5 95.5 -61.5 163.5v120c0 70.667 20.5 127.167 61.5 169.5s101.833 63.5 182.5 63.5s141.5 -21 182.5 -63zM227 405.5
c-15.333 -18.333 -23.001 -43.5 -23.001 -75.5v-109c0 -32 7.5 -56.667 22.5 -74s38.167 -26 69.5 -26c62 0 93 33.333 93 100v109c0 32 -7.66699 57.167 -23 75.5s-38.666 27.5 -69.999 27.5c-30.667 0 -53.667 -9.16699 -69 -27.5zM454.999 631c0 -7.33301 -4 -11 -12 -11
h-85c-6 0 -11 3 -15 9l-46 63l-45 -63c-4 -6 -9 -9 -15 -9h-85c-8 0 -12 3.66699 -12 11c0 2.66699 1.66699 6.33398 5 11.001l87 113c4 6 9.33301 9 16 9h98c6 0 11.333 -3 16 -9l88 -113c3.33301 -4.66699 5 -8.33398 5 -11.001z" />
    <glyph glyph-name="otilde" unicode="&#xf5;" horiz-adv-x="592" 
d="M478.5 503c41 -42 61.5 -97.333 61.5 -166v-120c0 -70 -20.333 -125.667 -61 -167s-101.667 -62 -183 -62c-80.667 0 -141.5 20.5 -182.5 61.5s-61.5 95.5 -61.5 163.5v120c0 70.667 20.5 127.167 61.5 169.5s101.833 63.5 182.5 63.5s141.5 -21 182.5 -63zM227 405.5
c-15.333 -18.333 -23.001 -43.5 -23.001 -75.5v-109c0 -32 7.5 -56.667 22.5 -74s38.167 -26 69.5 -26c62 0 93 33.333 93 100v109c0 32 -7.66699 57.167 -23 75.5s-38.666 27.5 -69.999 27.5c-30.667 0 -53.667 -9.16699 -69 -27.5zM276.499 747
c11 -4 22.501 -9.66504 34.501 -16.998l11.5 -6c6.33301 -3.33301 12.166 -5.83301 17.499 -7.5s10.333 -2.5 15 -2.5c17.333 0 32.333 8.33301 45 25c4 4 7.66699 6 11 6s6.33301 -1 9 -3l40 -35c4 -2.66699 6 -6.33398 6 -11.001c0 -2 -1.33301 -5.66699 -4 -11
c-8.66699 -16.667 -22.5 -31.334 -41.5 -44.001s-39.833 -19 -62.5 -19c-14.667 0 -27.5 2 -38.5 6s-22.833 9.66699 -35.5 17l-11.5 6c-6.33301 3.33301 -12.166 5.83301 -17.499 7.5s-10.333 2.5 -15 2.5c-16 0 -31 -8.33301 -45 -25
c-2.66699 -4.66699 -6.33398 -7 -11.001 -7c-3.33301 0 -6.33301 1.33301 -9 4l-40 35c-4 3.33301 -6 7 -6 11c0 2.66699 1.33301 6 4 10c10.667 18 25 33.167 43 45.5s38.667 18.5 62 18.5c14.667 0 27.5 -2 38.5 -6z" />
    <glyph glyph-name="odieresis" unicode="&#xf6;" horiz-adv-x="592" 
d="M478.5 503c41 -42 61.5 -97.333 61.5 -166v-120c0 -70 -20.333 -125.667 -61 -167s-101.667 -62 -183 -62c-80.667 0 -141.5 20.5 -182.5 61.5s-61.5 95.5 -61.5 163.5v120c0 70.667 20.5 127.167 61.5 169.5s101.833 63.5 182.5 63.5s141.5 -21 182.5 -63zM227 405.5
c-15.333 -18.333 -23.001 -43.5 -23.001 -75.5v-109c0 -32 7.5 -56.667 22.5 -74s38.167 -26 69.5 -26c62 0 93 33.333 93 100v109c0 32 -7.66699 57.167 -23 75.5s-38.666 27.5 -69.999 27.5c-30.667 0 -53.667 -9.16699 -69 -27.5zM259.999 741l0.00195312 -92
c0 -6.66699 -1.83301 -11.834 -5.5 -15.501s-8.83398 -5.5 -15.501 -5.5h-85c-6.66699 0 -11.834 1.83301 -15.501 5.5s-5.5 8.83398 -5.5 15.501v92c0 13.333 7 20 21 20h85c14 0 21 -6.66699 21 -20zM461.001 741l0.000976562 -91.999
c0 -6.66699 -1.83301 -11.834 -5.5 -15.501s-8.83398 -5.5 -15.501 -5.5h-85c-13.333 0 -20 7 -20 21v92c0 13.333 6.66699 20 20 20h85c14 0 21 -6.66699 21 -20z" />
    <glyph glyph-name="divide" unicode="&#xf7;" 
d="M377 593c3.33301 -3.33301 5 -7.66797 5 -13.001v-118c0 -5.33301 -1.66699 -9.66602 -5 -12.999s-7.66602 -5 -12.999 -5h-104c-4 0 -7.66699 1.66699 -11 5s-5 8 -5 14v116c0 5.33301 1.33301 9.83301 4 13.5s6.66699 5.5 12 5.5h104
c5.33301 0 9.66602 -1.66699 12.999 -5zM567 366.998v-103c0 -10 -5 -15 -15 -15h-479c-10 0 -15 5 -15 15v103c0 10 5 15 15 15h479c10 0 15 -5 15 -15zM377 180.498c3.33301 -3.66699 5 -8.16699 5 -13.5v-117c0 -5.33301 -1.66699 -9.83301 -5 -13.5
s-7.66602 -5.5 -12.999 -5.5h-104c-4 0 -7.66699 1.83301 -11 5.5s-5 8.5 -5 14.5v116c0 5.33301 1.33301 9.83301 4 13.5s6.66699 5.5 12 5.5h104c5.33301 0 9.66602 -1.83301 12.999 -5.5z" />
    <glyph glyph-name="oslash" unicode="&#xf8;" horiz-adv-x="592" 
d="M540 337l0.000976562 -121.001c0 -69.333 -20.5 -124.666 -61.5 -165.999s-101.833 -62 -182.5 -62c-45.333 0 -84.333 6.66699 -117 20l-26 -43c-4.66699 -8.66699 -13 -13 -25 -13h-48c-4.66699 0 -8.5 1.33301 -11.5 4s-4.5 6 -4.5 10s1 8 3 12l44 74
c-39.333 39.333 -59 93 -59 161v120c0 70 20.5 126.167 61.5 168.5s101.833 63.5 182.5 63.5c45.333 0 84.666 -7 117.999 -21l31 54c6 8.66699 14.667 13 26 13h47c5.33301 0 9.5 -1.33301 12.5 -4s4.5 -6 4.5 -10s-1 -8 -3 -12l-51 -85c39.333 -40 59 -94.333 59 -163z
M195.001 215.999c0 -15.333 1.33301 -28.333 4 -39l149 254c-14.667 7.33301 -32 11 -52 11c-34 0 -59.333 -9.83301 -76 -29.5s-25 -46.5 -25 -80.5v-116zM398.001 331.999c0 14 -1.66797 27.667 -5.00098 41l-148 -252c14 -6 31 -9 51 -9
c34.667 0 60.334 9.16699 77.001 27.5s25 43.833 25 76.5v116z" />
    <glyph glyph-name="ugrave" unicode="&#xf9;" horiz-adv-x="607" 
d="M108 41c-28.667 35.333 -43.001 82.3301 -43.001 140.997v357c0 4.66699 1.5 8.33398 4.5 11.001s6.83301 4 11.5 4h120c4.66699 0 8.5 -1.33301 11.5 -4s4.5 -6.33398 4.5 -11.001v-332c0 -25.333 6 -45.166 18 -59.499s29.667 -21.5 53 -21.5
c22.667 0 42.834 7.83301 60.501 23.5s30.5 36.834 38.5 63.501v326c0 4.66699 1.33301 8.33398 4 11.001s6.33398 4 11.001 4h121c10 0 15 -5 15 -15v-525c0 -4 -1.16699 -7.33301 -3.5 -10s-5.83301 -4 -10.5 -4h-118c-4.66699 -0 -8.33398 1.33301 -11.001 4s-4 6 -4 10
v63c-18 -26 -40.833 -47.333 -68.5 -64s-59.167 -25 -94.5 -25c-51.333 0 -91.333 17.667 -120 53zM162.999 763.997c-3.33301 0 -6.16699 -0.832031 -8.5 -2.49902s-3.5 -3.83398 -3.5 -6.50098s1.33301 -5.33398 4 -8.00098l98 -117c4 -4 7 -6.66699 9 -8
s5.33301 -2 10 -2h78c8 0 12 3.33301 12 10c0 2.66699 -1 5.33398 -3 8.00098l-77 115c-2 4 -4.16699 6.83301 -6.5 8.5s-5.83301 2.5 -10.5 2.5h-102z" />
    <glyph glyph-name="uacute" unicode="&#xfa;" horiz-adv-x="607" 
d="M108 41c-28.667 35.333 -43.001 82.3301 -43.001 140.997v357c0 4.66699 1.5 8.33398 4.5 11.001s6.83301 4 11.5 4h120c4.66699 0 8.5 -1.33301 11.5 -4s4.5 -6.33398 4.5 -11.001v-332c0 -25.333 6 -45.166 18 -59.499s29.667 -21.5 53 -21.5
c22.667 0 42.834 7.83301 60.501 23.5s30.5 36.834 38.5 63.501v326c0 4.66699 1.33301 8.33398 4 11.001s6.33398 4 11.001 4h121c10 0 15 -5 15 -15v-525c0 -4 -1.16699 -7.33301 -3.5 -10s-5.83301 -4 -10.5 -4h-118c-4.66699 -0 -8.33398 1.33301 -11.001 4s-4 6 -4 10
v63c-18 -26 -40.833 -47.333 -68.5 -64s-59.167 -25 -94.5 -25c-51.333 0 -91.333 17.667 -120 53zM239.999 637.997c-2 -2.66699 -3.00098 -5.33301 -3.00098 -8c0 -6.66699 4.33301 -10 13 -10h77c4.66699 0 8.33398 0.666992 11.001 2s5.66699 4 9 8l98 117
c2 3.33301 3 6 3 8c0 6 -4 9 -12 9h-102c-4 0 -7.16699 -0.833008 -9.5 -2.5s-4.83301 -4.5 -7.5 -8.5z" />
    <glyph glyph-name="ucircumflex" unicode="&#xfb;" horiz-adv-x="607" 
d="M108 41c-28.667 35.333 -43.001 82.3301 -43.001 140.997v357c0 4.66699 1.5 8.33398 4.5 11.001s6.83301 4 11.5 4h120c4.66699 0 8.5 -1.33301 11.5 -4s4.5 -6.33398 4.5 -11.001v-332c0 -25.333 6 -45.166 18 -59.499s29.667 -21.5 53 -21.5
c22.667 0 42.834 7.83301 60.501 23.5s30.5 36.834 38.5 63.501v326c0 4.66699 1.33301 8.33398 4 11.001s6.33398 4 11.001 4h121c10 0 15 -5 15 -15v-525c0 -4 -1.16699 -7.33301 -3.5 -10s-5.83301 -4 -10.5 -4h-118c-4.66699 -0 -8.33398 1.33301 -11.001 4s-4 6 -4 10
v63c-18 -26 -40.833 -47.333 -68.5 -64s-59.167 -25 -94.5 -25c-51.333 0 -91.333 17.667 -120 53zM459.999 630.997c0 -7.33301 -4 -11 -12 -11h-85c-6 0 -11 3 -15 9l-46 63l-45 -63c-4 -6 -9 -9 -15 -9h-85c-8 0 -12 3.66699 -12 11c0 2.66699 1.66699 6.33398 5 11.001
l87 113c4 6 9.33301 9 16 9h98c6 0 11.333 -3 16 -9l88 -113c3.33301 -4.66699 5 -8.33398 5 -11.001z" />
    <glyph glyph-name="udieresis" unicode="&#xfc;" horiz-adv-x="607" 
d="M108 41c-28.667 35.333 -43.001 82.3301 -43.001 140.997v357c0 4.66699 1.5 8.33398 4.5 11.001s6.83301 4 11.5 4h120c4.66699 0 8.5 -1.33301 11.5 -4s4.5 -6.33398 4.5 -11.001v-332c0 -25.333 6 -45.166 18 -59.499s29.667 -21.5 53 -21.5
c22.667 0 42.834 7.83301 60.501 23.5s30.5 36.834 38.5 63.501v326c0 4.66699 1.33301 8.33398 4 11.001s6.33398 4 11.001 4h121c10 0 15 -5 15 -15v-525c0 -4 -1.16699 -7.33301 -3.5 -10s-5.83301 -4 -10.5 -4h-118c-4.66699 -0 -8.33398 1.33301 -11.001 4s-4 6 -4 10
v63c-18 -26 -40.833 -47.333 -68.5 -64s-59.167 -25 -94.5 -25c-51.333 0 -91.333 17.667 -120 53zM264.999 740.997l0.00195312 -92c0 -6.66699 -1.83301 -11.834 -5.5 -15.501s-8.83398 -5.5 -15.501 -5.5h-85c-6.66699 0 -11.834 1.83301 -15.501 5.5
s-5.5 8.83398 -5.5 15.501v92c0 13.333 7 20 21 20h85c14 0 21 -6.66699 21 -20zM466.001 740.997l0.000976562 -91.999c0 -6.66699 -1.83301 -11.834 -5.5 -15.501s-8.83398 -5.5 -15.501 -5.5h-85c-13.333 0 -20 7 -20 21v92c0 13.333 6.66699 20 20 20h85
c14 0 21 -6.66699 21 -20z" />
    <glyph glyph-name="yacute" unicode="&#xfd;" horiz-adv-x="564" 
d="M546.5 548c3 -4 3.50098 -9 1.50098 -15l-181 -490c-22 -59.333 -47 -110 -75 -152s-61 -75.667 -99 -101c-7.33301 -4.66699 -13.333 -7 -18 -7s-9.33398 2.33301 -14.001 7l-71 71c-4 4 -6 8.33301 -6 13c0 6 3 11.333 9 16c34 25.333 60 48.333 78 69s32 47.667 42 81
l-198 494c-0.666992 1.33301 -1 3.33301 -1 6c0 4 1.33301 7.33301 4 10s6.33398 4 11.001 4h129c10 0 16.333 -5 19 -15l49 -142c16.667 -47.333 29.667 -87.333 39 -120s17 -64.667 23 -96h3c6.66699 32 13.5 60.5 20.5 85.5s16.5 56.5 28.5 94.5l11 36l45 143
c3.33301 9.33301 9.66602 14 18.999 14h119c5.33301 0 9.5 -2 12.5 -6zM227.001 638c-2 -2.66699 -3.00098 -5.33301 -3.00098 -8c0 -6.66699 4.33301 -10 13 -10h77c4.66699 0 8.33398 0.666992 11.001 2s5.66699 4 9 8l98 117c2 3.33301 3 6 3 8c0 6 -4 9 -12 9h-102
c-4 0 -7.16699 -0.833008 -9.5 -2.5s-4.83301 -4.5 -7.5 -8.5z" />
    <glyph glyph-name="thorn" unicode="&#xfe;" horiz-adv-x="615" 
d="M216 487c12.667 20 32.3301 37.832 58.9971 53.499s57.334 23.5 92.001 23.5c59.333 0 106.5 -19.5 141.5 -58.5s52.5 -90.833 52.5 -155.5v-145c0 -42 -7.83301 -79.5 -23.5 -112.5s-37.667 -58.667 -66 -77s-61.166 -27.5 -98.499 -27.5
c-36 0 -67.5 7.83301 -94.5 23.5s-46.167 33.834 -57.5 54.501v-252c0 -9.33301 -5 -14 -15 -14h-122c-10 0 -15 4.66699 -15 14v936c0 4 1.33301 7.33301 4 10s6.33398 4 11.001 4h118c4 0 7.33301 -1.33301 10 -4s4 -6 4 -10v-263zM247.996 403.999
c-18 -18.667 -27 -44.334 -27 -77.001v-98c0 -33.333 9 -59.666 27 -78.999s41 -29 69 -29c31.333 0 54.5 9.5 69.5 28.5s22.5 45.5 22.5 79.5v98c0 70 -30.667 105 -92 105c-28 0 -51 -9.33301 -69 -28z" />
    <glyph glyph-name="ydieresis" unicode="&#xff;" horiz-adv-x="564" 
d="M546.5 548c3 -4 3.50098 -9 1.50098 -15l-181 -490c-22 -59.333 -47 -110 -75 -152s-61 -75.667 -99 -101c-7.33301 -4.66699 -13.333 -7 -18 -7s-9.33398 2.33301 -14.001 7l-71 71c-4 4 -6 8.33301 -6 13c0 6 3 11.333 9 16c34 25.333 60 48.333 78 69s32 47.667 42 81
l-198 494c-0.666992 1.33301 -1 3.33301 -1 6c0 4 1.33301 7.33301 4 10s6.33398 4 11.001 4h129c10 0 16.333 -5 19 -15l49 -142c16.667 -47.333 29.667 -87.333 39 -120s17 -64.667 23 -96h3c6.66699 32 13.5 60.5 20.5 85.5s16.5 56.5 28.5 94.5l11 36l45 143
c3.33301 9.33301 9.66602 14 18.999 14h119c5.33301 0 9.5 -2 12.5 -6zM252.001 741l0.00195312 -92c0 -6.66699 -1.83301 -11.834 -5.5 -15.501s-8.83398 -5.5 -15.501 -5.5h-85c-6.66699 0 -11.834 1.83301 -15.501 5.5s-5.5 8.83398 -5.5 15.501v92c0 13.333 7 20 21 20
h85c14 0 21 -6.66699 21 -20zM453.003 741l0.000976562 -91.999c0 -6.66699 -1.83301 -11.834 -5.5 -15.501s-8.83398 -5.5 -15.501 -5.5h-85c-13.333 0 -20 7 -20 21v92c0 13.333 6.66699 20 20 20h85c14 0 21 -6.66699 21 -20z" />
    <glyph glyph-name="Amacron" unicode="&#x100;" horiz-adv-x="672" 
d="M656 12c0 -3.33301 -1.16797 -6.16602 -3.50098 -8.49902s-5.16602 -3.5 -8.49902 -3.5h-129c-5.33301 0 -9.33301 1.16699 -12 3.5s-5 6.16602 -7 11.499l-46 150h-232l-46 -150c-2.66699 -10 -10 -15 -22 -15h-119c-4.66699 0 -8 1.66699 -10 5s-2.33301 7.33301 -1 12
l216 700c3.33301 10 10 15 20 15h156c11.333 0 19 -5 23 -15l220 -700c0.666992 -1.33301 1 -3 1 -5zM407.999 306l-15 49c-28 95.333 -46.667 168.333 -56 219h-4c-12 -62 -31.333 -135.667 -58 -221l-14 -47h147zM488.999 897v-74c0 -10.667 -5 -16 -15 -16h-278
c-10 0 -15 5.33301 -15 16v74c0 10.667 5 16 15 16h278c10 0 15 -5.33301 15 -16z" />
    <glyph glyph-name="amacron" unicode="&#x101;" horiz-adv-x="569" 
d="M448 517.5c37.333 -32.333 56.001 -79.501 56.001 -141.501v-361c0 -4.66699 -1.33301 -8.33398 -4 -11.001s-6.33398 -4 -11.001 -4h-110c-4.66699 0 -8.5 1.33301 -11.5 4s-4.5 6.33398 -4.5 11.001v59c-16.667 -26.667 -38 -47.5 -64 -62.5s-55.333 -22.5 -88 -22.5
c-52 0 -93.5 15.5 -124.5 46.5s-46.5 72.167 -46.5 123.5s17.333 91.333 52 120s89.667 45.667 165 51c12 1.33301 30.333 2 55 2c20 0 35 -0.333008 45 -1v40c0 26 -6.5 45 -19.5 57s-31.833 18 -56.5 18c-22.667 0 -39.167 -4 -49.5 -12s-19.166 -21 -26.499 -39
c-2.66699 -6 -5.33398 -9.66699 -8.00098 -11s-6.66699 -1.33301 -12 0l-110 28c-8.66699 2.66699 -12 8.33398 -10 17.001c8 41.333 31 74.5 69 99.5s89 37.5 153 37.5c70 0 123.667 -16.167 161 -48.5zM316.501 128.999c18.333 13.333 31.833 32.665 40.5 57.998v52
c-40 0 -69.333 -1 -88 -3c-29.333 -3.33301 -51 -10.166 -65 -20.499s-21 -25.833 -21 -46.5c0 -19.333 6 -34.166 18 -44.499s29 -15.5 51 -15.5c24.667 0 46.167 6.66699 64.5 20zM444.001 718.998v-74c0 -10.667 -5 -16 -15 -16h-278c-10 0 -15 5.33301 -15 16v74
c0 10.667 5 16 15 16h278c10 0 15 -5.33301 15 -16z" />
    <glyph glyph-name="Abreve" unicode="&#x102;" horiz-adv-x="672" 
d="M656 12c0 -3.33301 -1.16797 -6.16602 -3.50098 -8.49902s-5.16602 -3.5 -8.49902 -3.5h-129c-5.33301 0 -9.33301 1.16699 -12 3.5s-5 6.16602 -7 11.499l-46 150h-232l-46 -150c-2.66699 -10 -10 -15 -22 -15h-119c-4.66699 0 -8 1.66699 -10 5s-2.33301 7.33301 -1 12
l216 700c3.33301 10 10 15 20 15h156c11.333 0 19 -5 23 -15l220 -700c0.666992 -1.33301 1 -3 1 -5zM407.999 306l-15 49c-28 95.333 -46.667 168.333 -56 219h-4c-12 -62 -31.333 -135.667 -58 -221l-14 -47h147zM468.499 925.5
c2.33301 -2.33301 3.50098 -5.83398 3.50098 -10.501c0 -22 -6 -42.833 -18 -62.5s-28.333 -35.5 -49 -47.5s-44 -18 -70 -18s-49.5 5.66699 -70.5 17s-37.333 26.833 -49 46.5s-17.5 40.834 -17.5 63.501c0 4.66699 1.33301 8.33398 4 11.001s6 4 10 4h60
c3.33301 0 6.16602 -1.16699 8.49902 -3.5s3.5 -5.16602 3.5 -8.49902c0 -12.667 4.5 -23.834 13.5 -33.501s21.5 -14.5 37.5 -14.5s28.5 5 37.5 15s13.5 21 13.5 33c0 3.33301 1.16699 6.16602 3.5 8.49902s5.5 3.5 9.5 3.5h60c4 0 7.16699 -1.16699 9.5 -3.5z" />
    <glyph glyph-name="abreve" unicode="&#x103;" horiz-adv-x="569" 
d="M448 517.5c37.333 -32.333 56.001 -79.501 56.001 -141.501v-361c0 -4.66699 -1.33301 -8.33398 -4 -11.001s-6.33398 -4 -11.001 -4h-110c-4.66699 0 -8.5 1.33301 -11.5 4s-4.5 6.33398 -4.5 11.001v59c-16.667 -26.667 -38 -47.5 -64 -62.5s-55.333 -22.5 -88 -22.5
c-52 0 -93.5 15.5 -124.5 46.5s-46.5 72.167 -46.5 123.5s17.333 91.333 52 120s89.667 45.667 165 51c12 1.33301 30.333 2 55 2c20 0 35 -0.333008 45 -1v40c0 26 -6.5 45 -19.5 57s-31.833 18 -56.5 18c-22.667 0 -39.167 -4 -49.5 -12s-19.166 -21 -26.499 -39
c-2.66699 -6 -5.33398 -9.66699 -8.00098 -11s-6.66699 -1.33301 -12 0l-110 28c-8.66699 2.66699 -12 8.33398 -10 17.001c8 41.333 31 74.5 69 99.5s89 37.5 153 37.5c70 0 123.667 -16.167 161 -48.5zM316.501 128.999c18.333 13.333 31.833 32.665 40.5 57.998v52
c-40 0 -69.333 -1 -88 -3c-29.333 -3.33301 -51 -10.166 -65 -20.499s-21 -25.833 -21 -46.5c0 -19.333 6 -34.166 18 -44.499s29 -15.5 51 -15.5c24.667 0 46.167 6.66699 64.5 20zM423.501 747.498c2.33301 -2.33301 3.50098 -5.83398 3.50098 -10.501
c0 -22 -6 -42.833 -18 -62.5s-28.333 -35.5 -49 -47.5s-44 -18 -70 -18s-49.5 5.66699 -70.5 17s-37.333 26.833 -49 46.5s-17.5 40.834 -17.5 63.501c0 4.66699 1.33301 8.33398 4 11.001s6 4 10 4h60c3.33301 0 6.16602 -1.16699 8.49902 -3.5s3.5 -5.16602 3.5 -8.49902
c0 -12.667 4.5 -23.834 13.5 -33.501s21.5 -14.5 37.5 -14.5s28.5 5 37.5 15s13.5 21 13.5 33c0 3.33301 1.16699 6.16602 3.5 8.49902s5.5 3.5 9.5 3.5h60c4 0 7.16699 -1.16699 9.5 -3.5z" />
    <glyph glyph-name="Aogonek" unicode="&#x104;" horiz-adv-x="672" 
d="M569.5 -28c-13.667 -13.333 -20.501 -28.002 -20.501 -44.002c0 -14 3.83301 -24.833 11.5 -32.5s17.834 -11.5 30.501 -11.5c3.33301 0 11 1.33301 23 4c1.33301 0.666992 3.33301 1 6 1s5.16699 -0.833008 7.5 -2.5s3.83301 -3.83398 4.5 -6.50098l18 -73l1 -5
c0 -6 -4 -11 -12 -15s-17.667 -7.16699 -29 -9.5s-22.333 -3.5 -33 -3.5c-35.333 0 -66 10.167 -92 30.5s-39 48.833 -39 85.5c0 46.667 18.667 84.667 56 114c-1.33301 0.666992 -3.33301 4.33398 -6 11.001l-46 150h-232l-46 -150c-2.66699 -10 -10 -15 -22 -15h-119
c-4.66699 0 -8 1.66699 -10 5s-2.33301 7.33301 -1 12l216 700c3.33301 10 10 15 20 15h156c11.333 0 19 -5 23 -15l220 -700c0.666992 -1.33301 1 -3 1 -5c0 -3.33301 -1.16699 -6.16602 -3.5 -8.49902s-5.16602 -3.5 -8.49902 -3.5h-14
c-26.667 -5.33301 -46.834 -14.666 -60.501 -27.999zM407.999 305.998l-15 49c-28 95.333 -46.667 168.333 -56 219h-4c-12 -62 -31.333 -135.667 -58 -221l-14 -47h147z" />
    <glyph glyph-name="aogonek" unicode="&#x105;" horiz-adv-x="569" 
d="M509 -196c0 -6.66699 -3.66602 -12.335 -10.999 -17.002c-20 -8.66699 -41 -13 -63 -13c-35.333 0 -66 10.167 -92 30.5s-39 48.833 -39 85.5c0 48 20.333 87 61 117c-1.33301 2.66699 -2 5.33398 -2 8.00098v59c-16.667 -26.667 -38 -47.5 -64 -62.5
s-55.333 -22.5 -88 -22.5c-52 0 -93.5 15.5 -124.5 46.5s-46.5 72.167 -46.5 123.5s17.333 91.333 52 120s89.667 45.667 165 51c12 1.33301 30.333 2 55 2c20 0 35 -0.333008 45 -1v40c0 26 -6.5 45 -19.5 57s-31.833 18 -56.5 18c-22.667 0 -39.167 -4 -49.5 -12
s-19.166 -21 -26.499 -39c-2.66699 -6 -5.33398 -9.66699 -8.00098 -11s-6.66699 -1.33301 -12 0l-110 28c-8.66699 2.66699 -12 8.33398 -10 17.001c8 41.333 31 74.5 69 99.5s89 37.5 153 37.5c70 0 123.667 -16.167 161 -48.5s56 -79.5 56 -141.5v-361
c0 -4.66699 -1.33301 -8.33398 -4 -11.001s-6.33398 -4 -11.001 -4c-26.667 -6 -47 -15.667 -61 -29s-21 -27.666 -21 -42.999c0 -14 4 -24.833 12 -32.5s18.333 -11.5 31 -11.5c4 0 11.333 1.33301 22 4c1.33301 0.666992 3.33301 1 6 1c7.33301 0 11.333 -3 12 -9l19 -73
v-3zM316.501 128.999c18.333 13.333 31.833 32.665 40.5 57.998v52c-40 0 -69.333 -1 -88 -3c-29.333 -3.33301 -51 -10.166 -65 -20.499s-21 -25.833 -21 -46.5c0 -19.333 6 -34.166 18 -44.499s29 -15.5 51 -15.5c24.667 0 46.167 6.66699 64.5 20z" />
    <glyph glyph-name="Cacute" unicode="&#x106;" horiz-adv-x="635" 
d="M510 692.5c42 -34.333 70.666 -80.5029 85.999 -138.503c0.666992 -2 1 -4.66699 1 -8c0 -10 -4.66699 -16 -14 -18l-106 -31c-2 -0.666992 -4.66699 -1 -8 -1c-7.33301 0 -12.666 4.66699 -15.999 14c-8.66699 28.667 -21.5 50.834 -38.5 66.501s-42.5 23.5 -76.5 23.5
c-80 0 -120 -47 -120 -141v-186c0 -43.333 9.66699 -77.666 29 -102.999s49.666 -38 90.999 -38c36 0 63.333 8.83301 82 26.5s31.334 41.834 38.001 72.501c2 10 7 15 15 15c2 0 5 -0.666992 9 -2l106 -34c12 -4 16.333 -12.667 13 -26
c-13.333 -58.667 -41.833 -106 -85.5 -142s-103.5 -54 -179.5 -54c-59.333 0 -109.5 11.833 -150.5 35.5s-71.833 56.667 -92.5 99s-31 90.833 -31 145.5v196c0 54.667 10.5 103.167 31.5 145.5s52 75.333 93 99s90.833 35.5 149.5 35.5c74 0 132 -17.167 174 -51.5z
M269.999 815.997c-2 -2.66699 -3.00098 -5.33301 -3.00098 -8c0 -6.66699 4.33301 -10 13 -10h77c4.66699 0 8.33398 0.666992 11.001 2s5.66699 4 9 8l98 117c2 3.33301 3 6 3 8c0 6 -4 9 -12 9h-102c-4 0 -7.16699 -0.833008 -9.5 -2.5s-4.83301 -4.5 -7.5 -8.5z" />
    <glyph glyph-name="cacute" unicode="&#x107;" horiz-adv-x="548" 
d="M438 520.5c41.333 -30.333 65.334 -72.167 72.001 -125.5v-4c0 -7.33301 -5 -12.333 -15 -15l-94 -26l-12 -2c-4 0 -6.83301 1 -8.5 3s-3.16699 5.33301 -4.5 10c-0.666992 2 -3.16699 10 -7.5 24s-13.166 25.5 -26.499 34.5s-30.666 13.5 -51.999 13.5
c-28.667 0 -50.167 -9.16699 -64.5 -27.5s-21.5 -43.5 -21.5 -75.5v-109c0 -66.667 28.667 -100 86 -100c28 0 48 5.5 60 16.5s21.667 27.833 29 50.5c2.66699 9.33301 6.66699 14 12 14c3.33301 0 7.33301 -1 12 -3l96 -33c6.66699 -2 10.667 -4.83301 12 -8.5
s1.33301 -8.5 0 -14.5c-4.66699 -27.333 -16.834 -52.833 -36.501 -76.5s-46 -42.667 -79 -57s-71.5 -21.5 -115.5 -21.5c-46.667 0 -87.334 9.66699 -122.001 29s-61 46 -79 80s-27 72.667 -27 116v124c0 43.333 9.16699 82.333 27.5 117s44.666 62 78.999 82
s74.833 30 121.5 30c64 0 116.667 -15.167 158 -45.5zM219.001 637.999c-2 -2.66699 -3.00098 -5.33301 -3.00098 -8c0 -6.66699 4.33301 -10 13 -10h77c4.66699 0 8.33398 0.666992 11.001 2s5.66699 4 9 8l98 117c2 3.33301 3 6 3 8c0 6 -4 9 -12 9h-102
c-4 0 -7.16699 -0.833008 -9.5 -2.5s-4.83301 -4.5 -7.5 -8.5z" />
    <glyph glyph-name="Cdotaccent" unicode="&#x10a;" horiz-adv-x="635" 
d="M510 692.5c42 -34.333 70.666 -80.5029 85.999 -138.503c0.666992 -2 1 -4.66699 1 -8c0 -10 -4.66699 -16 -14 -18l-106 -31c-2 -0.666992 -4.66699 -1 -8 -1c-7.33301 0 -12.666 4.66699 -15.999 14c-8.66699 28.667 -21.5 50.834 -38.5 66.501s-42.5 23.5 -76.5 23.5
c-80 0 -120 -47 -120 -141v-186c0 -43.333 9.66699 -77.666 29 -102.999s49.666 -38 90.999 -38c36 0 63.333 8.83301 82 26.5s31.334 41.834 38.001 72.501c2 10 7 15 15 15c2 0 5 -0.666992 9 -2l106 -34c12 -4 16.333 -12.667 13 -26
c-13.333 -58.667 -41.833 -106 -85.5 -142s-103.5 -54 -179.5 -54c-59.333 0 -109.5 11.833 -150.5 35.5s-71.833 56.667 -92.5 99s-31 90.833 -31 145.5v196c0 54.667 10.5 103.167 31.5 145.5s52 75.333 93 99s90.833 35.5 149.5 35.5c74 0 132 -17.167 174 -51.5z
M394.999 918.997v-92c0 -14 -7 -21 -21 -21h-84c-14 0 -21 7 -21 21v92c0 13.333 7 20 21 20h84c14 0 21 -6.66699 21 -20z" />
    <glyph glyph-name="cdotaccent" unicode="&#x10b;" horiz-adv-x="548" 
d="M438 520.5c41.333 -30.333 65.334 -72.167 72.001 -125.5v-4c0 -7.33301 -5 -12.333 -15 -15l-94 -26l-12 -2c-4 0 -6.83301 1 -8.5 3s-3.16699 5.33301 -4.5 10c-0.666992 2 -3.16699 10 -7.5 24s-13.166 25.5 -26.499 34.5s-30.666 13.5 -51.999 13.5
c-28.667 0 -50.167 -9.16699 -64.5 -27.5s-21.5 -43.5 -21.5 -75.5v-109c0 -66.667 28.667 -100 86 -100c28 0 48 5.5 60 16.5s21.667 27.833 29 50.5c2.66699 9.33301 6.66699 14 12 14c3.33301 0 7.33301 -1 12 -3l96 -33c6.66699 -2 10.667 -4.83301 12 -8.5
s1.33301 -8.5 0 -14.5c-4.66699 -27.333 -16.834 -52.833 -36.501 -76.5s-46 -42.667 -79 -57s-71.5 -21.5 -115.5 -21.5c-46.667 0 -87.334 9.66699 -122.001 29s-61 46 -79 80s-27 72.667 -27 116v124c0 43.333 9.16699 82.333 27.5 117s44.666 62 78.999 82
s74.833 30 121.5 30c64 0 116.667 -15.167 158 -45.5zM344.001 740.999v-92c0 -14 -7 -21 -21 -21h-84c-14 0 -21 7 -21 21v92c0 13.333 7 20 21 20h84c14 0 21 -6.66699 21 -20z" />
    <glyph glyph-name="Ccaron" unicode="&#x10c;" horiz-adv-x="635" 
d="M510 692.5c42 -34.333 70.666 -80.5029 85.999 -138.503c0.666992 -2 1 -4.66699 1 -8c0 -10 -4.66699 -16 -14 -18l-106 -31c-2 -0.666992 -4.66699 -1 -8 -1c-7.33301 0 -12.666 4.66699 -15.999 14c-8.66699 28.667 -21.5 50.834 -38.5 66.501s-42.5 23.5 -76.5 23.5
c-80 0 -120 -47 -120 -141v-186c0 -43.333 9.66699 -77.666 29 -102.999s49.666 -38 90.999 -38c36 0 63.333 8.83301 82 26.5s31.334 41.834 38.001 72.501c2 10 7 15 15 15c2 0 5 -0.666992 9 -2l106 -34c12 -4 16.333 -12.667 13 -26
c-13.333 -58.667 -41.833 -106 -85.5 -142s-103.5 -54 -179.5 -54c-59.333 0 -109.5 11.833 -150.5 35.5s-71.833 56.667 -92.5 99s-31 90.833 -31 145.5v196c0 54.667 10.5 103.167 31.5 145.5s52 75.333 93 99s90.833 35.5 149.5 35.5c74 0 132 -17.167 174 -51.5z
M490.999 930.997c0 -2.66699 -1.66699 -6.33398 -5 -11.001l-89 -113c-4 -6 -9 -9 -15 -9h-98c-6.66699 0 -12 3 -16 9l-87 113c-3.33301 4.66699 -5 8.33398 -5 11.001c0 7.33301 4 11 12 11h84c6.66699 0 12 -3 16 -9l45 -63l46 63c4 6 9 9 15 9h85
c8 0 12 -3.66699 12 -11z" />
    <glyph glyph-name="ccaron" unicode="&#x10d;" horiz-adv-x="548" 
d="M438 520.5c41.333 -30.333 65.334 -72.167 72.001 -125.5v-4c0 -7.33301 -5 -12.333 -15 -15l-94 -26l-12 -2c-4 0 -6.83301 1 -8.5 3s-3.16699 5.33301 -4.5 10c-0.666992 2 -3.16699 10 -7.5 24s-13.166 25.5 -26.499 34.5s-30.666 13.5 -51.999 13.5
c-28.667 0 -50.167 -9.16699 -64.5 -27.5s-21.5 -43.5 -21.5 -75.5v-109c0 -66.667 28.667 -100 86 -100c28 0 48 5.5 60 16.5s21.667 27.833 29 50.5c2.66699 9.33301 6.66699 14 12 14c3.33301 0 7.33301 -1 12 -3l96 -33c6.66699 -2 10.667 -4.83301 12 -8.5
s1.33301 -8.5 0 -14.5c-4.66699 -27.333 -16.834 -52.833 -36.501 -76.5s-46 -42.667 -79 -57s-71.5 -21.5 -115.5 -21.5c-46.667 0 -87.334 9.66699 -122.001 29s-61 46 -79 80s-27 72.667 -27 116v124c0 43.333 9.16699 82.333 27.5 117s44.666 62 78.999 82
s74.833 30 121.5 30c64 0 116.667 -15.167 158 -45.5zM440.001 752.999c0 -2.66699 -1.66699 -6.33398 -5 -11.001l-89 -113c-4 -6 -9 -9 -15 -9h-98c-6.66699 0 -12 3 -16 9l-87 113c-3.33301 4.66699 -5 8.33398 -5 11.001c0 7.33301 4 11 12 11h84c6.66699 0 12 -3 16 -9
l45 -63l46 63c4 6 9 9 15 9h85c8 0 12 -3.66699 12 -11z" />
    <glyph glyph-name="Dcaron" unicode="&#x10e;" horiz-adv-x="697" 
d="M504 695c44.667 -24.667 77.835 -58.001 99.502 -100.001s32.5 -89.667 32.5 -143v-169c0 -54 -10.833 -102.333 -32.5 -145s-54.834 -76.334 -99.501 -101.001s-100.334 -37 -167.001 -37h-239c-4.66699 0 -8.33398 1.33301 -11.001 4s-4 6.33398 -4 11.001v702
c0 4.66699 1.5 8.33398 4.5 11.001s6.83301 4 11.5 4h238c66.667 0 122.334 -12.333 167.001 -37zM239.001 587.999v-444h97c96 0 144 46.667 144 140v164c0 93.333 -48 140 -144 140h-97zM490.001 930.999c0 -2.66699 -1.66699 -6.33398 -5 -11.001l-89 -113
c-4 -6 -9 -9 -15 -9h-98c-6.66699 0 -12 3 -16 9l-87 113c-3.33301 4.66699 -5 8.33398 -5 11.001c0 7.33301 4 11 12 11h84c6.66699 0 12 -3 16 -9l45 -63l46 63c4 6 9 9 15 9h85c8 0 12 -3.66699 12 -11z" />
    <glyph glyph-name="dcaron" unicode="&#x10f;" horiz-adv-x="686" 
d="M106.5 47c-35 39.333 -52.501 91.334 -52.501 156.001v144c0 42 7.83301 79.5 23.5 112.5s37.667 58.667 66 77s61.166 27.5 98.499 27.5c36 0 67.5 -7.83301 94.5 -23.5s46.167 -33.834 57.5 -54.501v264c0 4 1.33301 7.33301 4 10s6.33398 4 11.001 4h122
c4.66699 0 8.33398 -1.33301 11.001 -4s4 -6 4 -10v-736c0 -9.33301 -5 -14 -15 -14h-117c-4.66699 -0 -8.16699 1.33301 -10.5 4s-3.5 6 -3.5 10v51c-12.667 -20.667 -32.5 -38.667 -59.5 -54s-57.833 -23 -92.5 -23c-59.333 0 -106.5 19.667 -141.5 59zM366.999 149.001
c18 18.667 26.999 44.333 26.999 77v97c0 33.333 -9 59.833 -27 79.5s-41 29.5 -69 29.5c-31.333 0 -54.666 -9.66699 -69.999 -29s-23 -46 -23 -80v-98c0 -69.333 31 -104 93 -104c28 0 51 9.33301 69 28zM600.998 593c14 35.333 21.667 85.333 23 150
c0 4 1.5 7.5 4.5 10.5s6.5 4.5 10.5 4.5h84c4.66699 0 8.5 -1.5 11.5 -4.5s4.5 -6.83301 4.5 -11.5c-1.33301 -36 -5.83301 -70.333 -13.5 -103s-18.834 -60 -33.501 -82c-4 -6 -9.33301 -8 -16 -6l-65 21c-9.33301 2.66699 -12.666 9.66699 -9.99902 21z" />
    <glyph glyph-name="Dcroat" unicode="&#x110;" horiz-adv-x="720" 
d="M526.5 695c45 -24.667 78.333 -57.999 100 -99.999s32.5 -89.667 32.5 -143v-169c0 -54 -10.833 -102.333 -32.5 -145s-55 -76.334 -100 -101.001s-100.833 -37 -167.5 -37h-238c-10 0 -15 5 -15 15v284h-66c-10 0 -15 5.33301 -15 16v102c0 10.667 5 16 15 16h66v284
c0 10 5 15 15 15h238c66.667 0 122.5 -12.333 167.5 -37zM503 448.001c0 93.333 -48 140 -144 140h-97v-155h94c10 0 15 -5.33301 15 -16v-102c0 -10.667 -5 -16 -15 -16h-94v-155h97c96 0 144 46.667 144 140v164z" />
    <glyph glyph-name="dcroat" unicode="&#x111;" horiz-adv-x="615" 
d="M605 692l-0.00195312 -80.999c0 -10 -5 -15 -15 -15h-44v-582c0 -9.33301 -5 -14 -15 -14h-117c-4.66699 0 -8.16699 1.33301 -10.5 4s-3.5 6 -3.5 10v51c-12.667 -20.667 -32.5 -38.667 -59.5 -54s-57.833 -23 -92.5 -23c-59.333 0 -106.5 19.667 -141.5 59
s-52.5 91.333 -52.5 156v144c0 42 7.83301 79.5 23.5 112.5s37.667 58.667 66 77s61.166 27.5 98.499 27.5c36 0 67.5 -7.83301 94.5 -23.5s46.167 -33.834 57.5 -54.501v110h-120c-10 0 -15 5 -15 15v81c0 4.66699 1.33301 8.5 4 11.5s6.33398 4.5 11.001 4.5h120v42
c0 4 1.33301 7.33301 4 10s6.33398 4 11.001 4h122c4.66699 0 8.33398 -1.33301 11.001 -4s4 -6 4 -10v-42h44c10 0 15 -5.33301 15 -16zM393.998 323.001c0 33.333 -9.00098 59.832 -27.001 79.499s-41 29.5 -69 29.5c-31.333 0 -54.666 -9.66699 -69.999 -29
s-23 -46 -23 -80v-98c0 -69.333 31 -104 93 -104c28 0 51 9.33301 69 28s27 44.334 27 77.001v97z" />
    <glyph glyph-name="Emacron" unicode="&#x112;" horiz-adv-x="594" 
d="M529 728c2.66699 -2.66699 3.99805 -6.33496 3.99805 -11.002v-109c0 -10.667 -5 -16 -15 -16h-279v-152h250c4.66699 0 8.33398 -1.5 11.001 -4.5s4 -6.83301 4 -11.5v-103c0 -10.667 -5 -16 -15 -16h-250v-165h280c10.667 0 16 -5.33301 16 -16v-109
c0 -10 -5.33301 -15 -16 -15h-420c-4.66699 0 -8.5 1.33301 -11.5 4s-4.5 6.33398 -4.5 11.001v702c0 4.66699 1.5 8.33398 4.5 11.001s6.83301 4 11.5 4h419c4.66699 0 8.33398 -1.33301 11.001 -4zM458.998 896.999v-74c0 -10.667 -5 -16 -15 -16h-278
c-10 0 -15 5.33301 -15 16v74c0 10.667 5 16 15 16h278c10 0 15 -5.33301 15 -16z" />
    <glyph glyph-name="emacron" unicode="&#x113;" horiz-adv-x="576" 
d="M196 231l0.00195312 -20.999c0 -30.667 8.33301 -54.834 25 -72.501s42 -26.5 76 -26.5c31.333 0 54.166 4.83301 68.499 14.5s26.833 24.5 37.5 44.5c3.33301 5.33301 6 9 8 11s4.66699 3 8 3s7.66602 -1.33301 12.999 -4l79 -40
c9.33301 -4.66699 14 -10.334 14 -17.001c0 -4 -1.33301 -8.66699 -4 -14c-16.667 -38 -45 -67.667 -85 -89s-86.667 -32 -140 -32c-52 0 -96.333 9.5 -133 28.5s-64.334 45.5 -83.001 79.5s-28 73 -28 117v128c0 43.333 9 81.833 27 115.5s45.333 60.334 82 80.001
s81.334 29.5 134.001 29.5c50 0 92.5 -9.66699 127.5 -29s61.167 -45.833 78.5 -79.5s26 -71.5 26 -113.5v-88c0 -8 -1.83301 -14.167 -5.5 -18.5s-10.5 -6.5 -20.5 -6.5h-305zM220.502 417.501c-16.333 -17.667 -24.501 -40.834 -24.501 -69.501v-19h193v19
c0 28.667 -8.16699 51.834 -24.5 69.501s-40.166 26.5 -71.499 26.5c-32 0 -56.167 -8.83301 -72.5 -26.5zM444.001 719.001v-74c0 -10.667 -5 -16 -15 -16h-278c-10 0 -15 5.33301 -15 16v74c0 10.667 5 16 15 16h278c10 0 15 -5.33301 15 -16z" />
    <glyph glyph-name="Edotaccent" unicode="&#x116;" horiz-adv-x="594" 
d="M529 728c2.66699 -2.66699 3.99805 -6.33496 3.99805 -11.002v-109c0 -10.667 -5 -16 -15 -16h-279v-152h250c4.66699 0 8.33398 -1.5 11.001 -4.5s4 -6.83301 4 -11.5v-103c0 -10.667 -5 -16 -15 -16h-250v-165h280c10.667 0 16 -5.33301 16 -16v-109
c0 -10 -5.33301 -15 -16 -15h-420c-4.66699 0 -8.5 1.33301 -11.5 4s-4.5 6.33398 -4.5 11.001v702c0 4.66699 1.5 8.33398 4.5 11.001s6.83301 4 11.5 4h419c4.66699 0 8.33398 -1.33301 11.001 -4zM367.998 918.999v-92c0 -14 -7 -21 -21 -21h-84c-14 0 -21 7 -21 21v92
c0 13.333 7 20 21 20h84c14 0 21 -6.66699 21 -20z" />
    <glyph glyph-name="edotaccent" unicode="&#x117;" horiz-adv-x="576" 
d="M196 231l0.00195312 -20.999c0 -30.667 8.33301 -54.834 25 -72.501s42 -26.5 76 -26.5c31.333 0 54.166 4.83301 68.499 14.5s26.833 24.5 37.5 44.5c3.33301 5.33301 6 9 8 11s4.66699 3 8 3s7.66602 -1.33301 12.999 -4l79 -40
c9.33301 -4.66699 14 -10.334 14 -17.001c0 -4 -1.33301 -8.66699 -4 -14c-16.667 -38 -45 -67.667 -85 -89s-86.667 -32 -140 -32c-52 0 -96.333 9.5 -133 28.5s-64.334 45.5 -83.001 79.5s-28 73 -28 117v128c0 43.333 9 81.833 27 115.5s45.333 60.334 82 80.001
s81.334 29.5 134.001 29.5c50 0 92.5 -9.66699 127.5 -29s61.167 -45.833 78.5 -79.5s26 -71.5 26 -113.5v-88c0 -8 -1.83301 -14.167 -5.5 -18.5s-10.5 -6.5 -20.5 -6.5h-305zM220.502 417.501c-16.333 -17.667 -24.501 -40.834 -24.501 -69.501v-19h193v19
c0 28.667 -8.16699 51.834 -24.5 69.501s-40.166 26.5 -71.499 26.5c-32 0 -56.167 -8.83301 -72.5 -26.5zM353.001 741.001v-92c0 -14 -7 -21 -21 -21h-84c-14 0 -21 7 -21 21v92c0 13.333 7 20 21 20h84c14 0 21 -6.66699 21 -20z" />
    <glyph glyph-name="Eogonek" unicode="&#x118;" horiz-adv-x="594" 
d="M541 -197c0 -6 -4.00195 -11.335 -12.002 -16.002c-8 -4 -17.667 -7.16699 -29 -9.5s-22.333 -3.5 -33 -3.5c-36 0 -67 10.167 -93 30.5s-39 48.833 -39 85.5c0 44 17.333 80.667 52 110h-288c-4.66699 0 -8.5 1.33301 -11.5 4s-4.5 6.33398 -4.5 11.001v702
c0 4.66699 1.5 8.33398 4.5 11.001s6.83301 4 11.5 4h419c4.66699 0 8.33398 -1.33301 11.001 -4s4 -6.33398 4 -11.001v-109c0 -10.667 -5 -16 -15 -16h-279v-152h250c4.66699 0 8.33398 -1.5 11.001 -4.5s4 -6.83301 4 -11.5v-103c0 -10.667 -5 -16 -15 -16h-250v-165h280
c10.667 0 16 -5.33301 16 -16v-109c0 -10 -5 -15 -15 -15c-26.667 -5.33301 -46.834 -14.666 -60.501 -27.999s-20.5 -28 -20.5 -44c0 -14 3.83301 -24.833 11.5 -32.5s17.834 -11.5 30.501 -11.5c4 0 11.333 1.33301 22 4c1.33301 0.666992 3.33301 1 6 1
c7.33301 0 11.333 -3 12 -9l19 -73z" />
    <glyph glyph-name="eogonek" unicode="&#x119;" horiz-adv-x="576" 
d="M196 231l-0.000976562 -20.999c0 -30.667 8.33301 -54.834 25 -72.501s42 -26.5 76 -26.5c31.333 0 54.166 4.83301 68.499 14.5s26.833 24.5 37.5 44.5c3.33301 5.33301 6 9 8 11s4.66699 3 8 3s7.66602 -1.33301 12.999 -4l79 -40
c9.33301 -4.66699 14 -10.334 14 -17.001c0 -4 -1.33301 -8.66699 -4 -14c-12.667 -28.667 -32.167 -52.834 -58.5 -72.501s-57.5 -33.167 -93.5 -40.5c-22 -6.66699 -38.333 -16.167 -49 -28.5s-16 -25.5 -16 -39.5s3.83301 -24.833 11.5 -32.5s17.834 -11.5 30.501 -11.5
c4 0 11.333 1.33301 22 4c1.33301 0.666992 3.33301 1 6 1c7.33301 0 11.333 -3 12 -9l19 -73l1 -4c0 -6 -4 -11.333 -12 -16c-8 -4 -17.667 -7.16699 -29 -9.5s-22.666 -3.5 -33.999 -3.5c-35.333 0 -66 10.167 -92 30.5s-39 48.833 -39 85.5
c0 40.667 14.333 74.667 43 102c-61.333 9.33301 -108.5 33.833 -141.5 73.5s-49.5 88.834 -49.5 147.501v128c0 43.333 9 81.833 27 115.5s45.333 60.334 82 80.001s81.334 29.5 134.001 29.5c50 0 92.5 -9.66699 127.5 -29s61.167 -45.833 78.5 -79.5s26 -71.5 26 -113.5
v-88c0 -8 -1.83301 -14.167 -5.5 -18.5s-10.5 -6.5 -20.5 -6.5h-305zM220.499 417.501c-16.333 -17.667 -24.501 -40.834 -24.501 -69.501v-19h193v19c0 28.667 -8.16699 51.834 -24.5 69.501s-40.166 26.5 -71.499 26.5c-32 0 -56.167 -8.83301 -72.5 -26.5z" />
    <glyph glyph-name="Ecaron" unicode="&#x11a;" horiz-adv-x="594" 
d="M529 728c2.66699 -2.66699 3.99805 -6.33496 3.99805 -11.002v-109c0 -10.667 -5 -16 -15 -16h-279v-152h250c4.66699 0 8.33398 -1.5 11.001 -4.5s4 -6.83301 4 -11.5v-103c0 -10.667 -5 -16 -15 -16h-250v-165h280c10.667 0 16 -5.33301 16 -16v-109
c0 -10 -5.33301 -15 -16 -15h-420c-4.66699 0 -8.5 1.33301 -11.5 4s-4.5 6.33398 -4.5 11.001v702c0 4.66699 1.5 8.33398 4.5 11.001s6.83301 4 11.5 4h419c4.66699 0 8.33398 -1.33301 11.001 -4zM463.998 930.999c0 -2.66699 -1.66699 -6.33398 -5 -11.001l-89 -113
c-4 -6 -9 -9 -15 -9h-98c-6.66699 0 -12 3 -16 9l-87 113c-3.33301 4.66699 -5 8.33398 -5 11.001c0 7.33301 4 11 12 11h84c6.66699 0 12 -3 16 -9l45 -63l46 63c4 6 9 9 15 9h85c8 0 12 -3.66699 12 -11z" />
    <glyph glyph-name="ecaron" unicode="&#x11b;" horiz-adv-x="576" 
d="M196 231l0.00195312 -20.999c0 -30.667 8.33301 -54.834 25 -72.501s42 -26.5 76 -26.5c31.333 0 54.166 4.83301 68.499 14.5s26.833 24.5 37.5 44.5c3.33301 5.33301 6 9 8 11s4.66699 3 8 3s7.66602 -1.33301 12.999 -4l79 -40
c9.33301 -4.66699 14 -10.334 14 -17.001c0 -4 -1.33301 -8.66699 -4 -14c-16.667 -38 -45 -67.667 -85 -89s-86.667 -32 -140 -32c-52 0 -96.333 9.5 -133 28.5s-64.334 45.5 -83.001 79.5s-28 73 -28 117v128c0 43.333 9 81.833 27 115.5s45.333 60.334 82 80.001
s81.334 29.5 134.001 29.5c50 0 92.5 -9.66699 127.5 -29s61.167 -45.833 78.5 -79.5s26 -71.5 26 -113.5v-88c0 -8 -1.83301 -14.167 -5.5 -18.5s-10.5 -6.5 -20.5 -6.5h-305zM220.502 417.501c-16.333 -17.667 -24.501 -40.834 -24.501 -69.501v-19h193v19
c0 28.667 -8.16699 51.834 -24.5 69.501s-40.166 26.5 -71.499 26.5c-32 0 -56.167 -8.83301 -72.5 -26.5zM449.001 753.001c0 -2.66699 -1.66699 -6.33398 -5 -11.001l-89 -113c-4 -6 -9 -9 -15 -9h-98c-6.66699 0 -12 3 -16 9l-87 113
c-3.33301 4.66699 -5 8.33398 -5 11.001c0 7.33301 4 11 12 11h84c6.66699 0 12 -3 16 -9l45 -63l46 63c4 6 9 9 15 9h85c8 0 12 -3.66699 12 -11z" />
    <glyph glyph-name="Gbreve" unicode="&#x11e;" horiz-adv-x="685" 
d="M528.5 692c42.333 -34.667 71.832 -78.668 88.499 -132.001c0.666992 -2 1 -5 1 -9c0 -8 -4.33301 -13.667 -13 -17l-108 -32c-2 -0.666992 -5 -1 -9 -1c-7.33301 0 -12.333 4.66699 -15 14c-8.66699 28 -22.667 49.167 -42 63.5s-45 21.5 -77 21.5
c-90.667 0 -136 -47 -136 -141v-186c0 -94 45.333 -141 136 -141c85.333 0 128 41.333 128 124v24h-112c-10 0 -15 5.33301 -15 16v103c0 4.66699 1.33301 8.5 4 11.5s6.33398 4.5 11.001 4.5h244c10.667 0 16 -5 16 -15v-154c0 -48.667 -11.333 -92.667 -34 -132
s-55 -70.166 -97 -92.499s-90.333 -33.5 -145 -33.5c-96 0 -168.667 25.5 -218 76.5s-74 118.833 -74 203.5v196c0 84.667 24.667 152.5 74 203.5s122 76.5 218 76.5c74 0 132.167 -17.333 174.5 -52zM486.499 925.499c2.33301 -2.33301 3.50098 -5.83398 3.50098 -10.501
c0 -22 -6 -42.833 -18 -62.5s-28.333 -35.5 -49 -47.5s-44 -18 -70 -18s-49.5 5.66699 -70.5 17s-37.333 26.833 -49 46.5s-17.5 40.834 -17.5 63.501c0 4.66699 1.33301 8.33398 4 11.001s6 4 10 4h60c3.33301 0 6.16602 -1.16699 8.49902 -3.5s3.5 -5.16602 3.5 -8.49902
c0 -12.667 4.5 -23.834 13.5 -33.501s21.5 -14.5 37.5 -14.5s28.5 5 37.5 15s13.5 21 13.5 33c0 3.33301 1.16699 6.16602 3.5 8.49902s5.5 3.5 9.5 3.5h60c4 0 7.16699 -1.16699 9.5 -3.5z" />
    <glyph glyph-name="gbreve" unicode="&#x11f;" horiz-adv-x="570" 
d="M497.5 78.5c31 -27 46.5029 -63.8369 46.5029 -110.504c0 -52.667 -21.833 -95.5 -65.5 -128.5s-111.834 -49.5 -204.501 -49.5c-161.333 0 -242 49 -242 147c0 24 7.5 45.833 22.5 65.5s36.833 35.167 65.5 46.5c-13.333 10.667 -23.333 22.834 -30 36.501
s-10 26.834 -10 39.501c0 18 4.66699 34.167 14 48.5s23 25.833 41 34.5c-28.667 16 -50.334 37.333 -65.001 64s-22 56.334 -22 89.001c0 58 18.667 104.667 56 140s93 53 167 53h254c3.33301 0 6.16602 -1.5 8.49902 -4.5s3.5 -6.16699 3.5 -9.5v-88
c0 -4 -1.66699 -7.33301 -5 -10s-7 -4 -11 -4h-78c12.667 -12 22.667 -26.667 30 -44s11 -35.666 11 -54.999c0 -47.333 -17.667 -86.5 -53 -117.5s-87.333 -46.833 -156 -47.5h-29c-26.667 0 -40 -9 -40 -27c0 -8 3.33301 -14.333 10 -19s16.667 -7 30 -7l110 -1
c63.333 -0.666992 110.5 -14.5 141.5 -41.5zM205.003 421.496c-14.667 -14.333 -21.999 -34.501 -21.999 -60.501s7.5 -46.5 22.5 -61.5s36.833 -22.5 65.5 -22.5c27.333 0 48.333 7.33301 63 22s22 35.334 22 62.001c0 25.333 -7.33301 45.333 -22 60s-36 22 -64 22
c-28.667 0 -50.334 -7.16699 -65.001 -21.5zM371.004 -93.5049c19.333 11.667 29 27.166 29 46.499c0 14.667 -5.16699 26.834 -15.5 36.501s-27.166 14.5 -50.499 14.5h-101c-21.333 0 -37.333 -5 -48 -15s-16 -22.333 -16 -37c0 -42 38 -63 114 -63
c39.333 0 68.666 5.83301 87.999 17.5zM416.504 747.494c2.33301 -2.33301 3.50098 -5.83398 3.50098 -10.501c0 -22 -6 -42.833 -18 -62.5s-28.333 -35.5 -49 -47.5s-44 -18 -70 -18s-49.5 5.66699 -70.5 17s-37.333 26.833 -49 46.5s-17.5 40.834 -17.5 63.501
c0 4.66699 1.33301 8.33398 4 11.001s6 4 10 4h60c3.33301 0 6.16602 -1.16699 8.49902 -3.5s3.5 -5.16602 3.5 -8.49902c0 -12.667 4.5 -23.834 13.5 -33.501s21.5 -14.5 37.5 -14.5s28.5 5 37.5 15s13.5 21 13.5 33c0 3.33301 1.16699 6.16602 3.5 8.49902
s5.5 3.5 9.5 3.5h60c4 0 7.16699 -1.16699 9.5 -3.5z" />
    <glyph glyph-name="Gdotaccent" unicode="&#x120;" horiz-adv-x="685" 
d="M528.5 692c42.333 -34.667 71.832 -78.668 88.499 -132.001c0.666992 -2 1 -5 1 -9c0 -8 -4.33301 -13.667 -13 -17l-108 -32c-2 -0.666992 -5 -1 -9 -1c-7.33301 0 -12.333 4.66699 -15 14c-8.66699 28 -22.667 49.167 -42 63.5s-45 21.5 -77 21.5
c-90.667 0 -136 -47 -136 -141v-186c0 -94 45.333 -141 136 -141c85.333 0 128 41.333 128 124v24h-112c-10 0 -15 5.33301 -15 16v103c0 4.66699 1.33301 8.5 4 11.5s6.33398 4.5 11.001 4.5h244c10.667 0 16 -5 16 -15v-154c0 -48.667 -11.333 -92.667 -34 -132
s-55 -70.166 -97 -92.499s-90.333 -33.5 -145 -33.5c-96 0 -168.667 25.5 -218 76.5s-74 118.833 -74 203.5v196c0 84.667 24.667 152.5 74 203.5s122 76.5 218 76.5c74 0 132.167 -17.333 174.5 -52zM415.999 918.999v-92c0 -14 -7 -21 -21 -21h-84c-14 0 -21 7 -21 21v92
c0 13.333 7 20 21 20h84c14 0 21 -6.66699 21 -20z" />
    <glyph glyph-name="gdotaccent" unicode="&#x121;" horiz-adv-x="570" 
d="M497.5 78.5c31 -27 46.5029 -63.8369 46.5029 -110.504c0 -52.667 -21.833 -95.5 -65.5 -128.5s-111.834 -49.5 -204.501 -49.5c-161.333 0 -242 49 -242 147c0 24 7.5 45.833 22.5 65.5s36.833 35.167 65.5 46.5c-13.333 10.667 -23.333 22.834 -30 36.501
s-10 26.834 -10 39.501c0 18 4.66699 34.167 14 48.5s23 25.833 41 34.5c-28.667 16 -50.334 37.333 -65.001 64s-22 56.334 -22 89.001c0 58 18.667 104.667 56 140s93 53 167 53h254c3.33301 0 6.16602 -1.5 8.49902 -4.5s3.5 -6.16699 3.5 -9.5v-88
c0 -4 -1.66699 -7.33301 -5 -10s-7 -4 -11 -4h-78c12.667 -12 22.667 -26.667 30 -44s11 -35.666 11 -54.999c0 -47.333 -17.667 -86.5 -53 -117.5s-87.333 -46.833 -156 -47.5h-29c-26.667 0 -40 -9 -40 -27c0 -8 3.33301 -14.333 10 -19s16.667 -7 30 -7l110 -1
c63.333 -0.666992 110.5 -14.5 141.5 -41.5zM205.003 421.496c-14.667 -14.333 -21.999 -34.501 -21.999 -60.501s7.5 -46.5 22.5 -61.5s36.833 -22.5 65.5 -22.5c27.333 0 48.333 7.33301 63 22s22 35.334 22 62.001c0 25.333 -7.33301 45.333 -22 60s-36 22 -64 22
c-28.667 0 -50.334 -7.16699 -65.001 -21.5zM371.004 -93.5049c19.333 11.667 29 27.166 29 46.499c0 14.667 -5.16699 26.834 -15.5 36.501s-27.166 14.5 -50.499 14.5h-101c-21.333 0 -37.333 -5 -48 -15s-16 -22.333 -16 -37c0 -42 38 -63 114 -63
c39.333 0 68.666 5.83301 87.999 17.5zM346.004 740.994v-92c0 -14 -7 -21 -21 -21h-84c-14 0 -21 7 -21 21v92c0 13.333 7 20 21 20h84c14 0 21 -6.66699 21 -20z" />
    <glyph glyph-name="uni0122" unicode="&#x122;" horiz-adv-x="685" 
d="M528.5 692c42.333 -34.667 71.832 -78.668 88.499 -132.001c0.666992 -2 1 -5 1 -9c0 -8 -4.33301 -13.667 -13 -17l-108 -32c-2 -0.666992 -5 -1 -9 -1c-7.33301 0 -12.333 4.66699 -15 14c-8.66699 28 -22.667 49.167 -42 63.5s-45 21.5 -77 21.5
c-90.667 0 -136 -47 -136 -141v-186c0 -94 45.333 -141 136 -141c85.333 0 128 41.333 128 124v24h-112c-10 0 -15 5.33301 -15 16v103c0 4.66699 1.33301 8.5 4 11.5s6.33398 4.5 11.001 4.5h244c10.667 0 16 -5 16 -15v-154c0 -48.667 -11.333 -92.667 -34 -132
s-55 -70.166 -97 -92.499s-90.333 -33.5 -145 -33.5c-96 0 -168.667 25.5 -218 76.5s-74 118.833 -74 203.5v196c0 84.667 24.667 152.5 74 203.5s122 76.5 218 76.5c74 0 132.167 -17.333 174.5 -52zM401.499 -66.501c3 -3 4.5 -6.83105 4.5 -11.498
c-1.33301 -36.667 -5.5 -70.834 -12.5 -102.501s-17.167 -56.5 -30.5 -74.5c-2 -2.66699 -4.5 -4.33398 -7.5 -5.00098s-5.83301 -0.333984 -8.5 0.999023l-65 27c-8 4 -11 11 -9 21c12 30.667 18.667 75.334 20 134.001c0 4 1.5 7.5 4.5 10.5s6.5 4.5 10.5 4.5h82
c4.66699 0 8.5 -1.5 11.5 -4.5z" />
    <glyph glyph-name="uni0123" unicode="&#x123;" horiz-adv-x="570" 
d="M229.5 620.5c-3 3 -4.49902 6.83301 -4.49902 11.5c1.33301 36.667 5.5 70.834 12.5 102.501s17.167 56.5 30.5 74.5c4 4 9.33301 5.33301 16 4l65 -27c4 -2 6.66699 -5 8 -9s1.33301 -8 0 -12c-12 -32.667 -18.667 -77.334 -20 -134.001c0 -4 -1.33301 -7.5 -4 -10.5
s-6.33398 -4.5 -11.001 -4.5h-81c-4.66699 0 -8.5 1.5 -11.5 4.5zM497.501 78.5c31 -27 46.5029 -63.8369 46.5029 -110.504c0 -52.667 -21.833 -95.5 -65.5 -128.5s-111.834 -49.5 -204.501 -49.5c-161.333 0 -242 49 -242 147c0 24 7.5 45.833 22.5 65.5
s36.833 35.167 65.5 46.5c-13.333 10.667 -23.333 22.834 -30 36.501s-10 26.834 -10 39.501c0 18 4.66699 34.167 14 48.5s23 25.833 41 34.5c-28.667 16 -50.334 37.333 -65.001 64s-22 56.334 -22 89.001c0 58 18.667 104.667 56 140s93 53 167 53h254
c3.33301 0 6.16602 -1.5 8.49902 -4.5s3.5 -6.16699 3.5 -9.5v-88c0 -4 -1.66699 -7.33301 -5 -10s-7 -4 -11 -4h-78c12.667 -12 22.667 -26.667 30 -44s11 -35.666 11 -54.999c0 -47.333 -17.667 -86.5 -53 -117.5s-87.333 -46.833 -156 -47.5h-29
c-26.667 0 -40 -9 -40 -27c0 -8 3.33301 -14.333 10 -19s16.667 -7 30 -7l110 -1c63.333 -0.666992 110.5 -14.5 141.5 -41.5zM205.004 421.496c-14.667 -14.333 -21.999 -34.501 -21.999 -60.501s7.5 -46.5 22.5 -61.5s36.833 -22.5 65.5 -22.5
c27.333 0 48.333 7.33301 63 22s22 35.334 22 62.001c0 25.333 -7.33301 45.333 -22 60s-36 22 -64 22c-28.667 0 -50.334 -7.16699 -65.001 -21.5zM371.005 -93.5049c19.333 11.667 29 27.166 29 46.499c0 14.667 -5.16699 26.834 -15.5 36.501s-27.166 14.5 -50.499 14.5
h-101c-21.333 0 -37.333 -5 -48 -15s-16 -22.333 -16 -37c0 -42 38 -63 114 -63c39.333 0 68.666 5.83301 87.999 17.5z" />
    <glyph glyph-name="Hbar" unicode="&#x126;" horiz-adv-x="753" 
d="M721.5 627c3 -2.66699 4.5 -6.33594 4.5 -11.0029v-82c0 -10 -5.33301 -15 -16 -15h-51v-504c0 -10 -5.33301 -15 -16 -15h-125c-10 0 -15 5 -15 15v279h-253v-279c0 -10 -5 -15 -15 -15h-125c-4.66699 0 -8.5 1.33301 -11.5 4s-4.5 6.33398 -4.5 11.001v504h-51
c-10.667 0 -16 5 -16 15v82c0 4.66699 1.5 8.33398 4.5 11.001s6.83301 4 11.5 4h51v86c0 4.66699 1.5 8.33398 4.5 11.001s6.83301 4 11.5 4h125c10 0 15 -5 15 -15v-86h253v86c0 10 5 15 15 15h125c10.667 0 16 -5 16 -15v-86h51c4.66699 0 8.5 -1.33301 11.5 -4z
M503 518.998h-253v-81h253v81z" />
    <glyph glyph-name="hbar" unicode="&#x127;" horiz-adv-x="607" 
d="M499.5 511.5c28.333 -35 42.5 -81.8311 42.5 -140.498l-1 -356c0 -10 -4.66699 -15 -14 -15h-121c-10 0 -15 5 -15 15l-1 330c0 25.333 -5.83301 45.166 -17.5 59.499s-28.834 21.5 -51.501 21.5c-23.333 0 -43.833 -7.83301 -61.5 -23.5s-30.5 -36.834 -38.5 -63.501
v-324c0 -4.66699 -1.5 -8.33398 -4.5 -11.001s-6.5 -4 -10.5 -4h-121c-4.66699 0 -8.5 1.33301 -11.5 4s-4.5 6.33398 -4.5 11.001v581h-44c-10 0 -15 5 -15 15v81c0 10.667 5 16 15 16h44v41c0 4.66699 1.5 8.33398 4.5 11.001s6.83301 4 11.5 4h121
c4.66699 0 8.33398 -1.33301 11.001 -4s4 -6.33398 4 -11.001v-41h120c4.66699 0 8.33398 -1.5 11.001 -4.5s4 -6.83301 4 -11.5v-81c0 -10 -5 -15 -15 -15h-120v-120c17.333 26 39.333 47.167 66 63.5s57.667 24.5 93 24.5c51.333 0 91.166 -17.5 119.499 -52.5z" />
    <glyph glyph-name="Imacron" unicode="&#x12a;" horiz-adv-x="322" 
d="M239 717v-702.002c0 -10 -5 -15 -15 -15h-125c-4.66699 0 -8.5 1.33301 -11.5 4s-4.5 6.33398 -4.5 11.001v702c0 4.66699 1.5 8.33398 4.5 11.001s6.83301 4 11.5 4h125c10 0 15 -5 15 -15zM315 896.998v-74c0 -10.667 -5 -16 -15 -16h-278c-10 0 -15 5.33301 -15 16v74
c0 10.667 5 16 15 16h278c10 0 15 -5.33301 15 -16z" />
    <glyph glyph-name="imacron" unicode="&#x12b;" horiz-adv-x="290" 
d="M217 550c2.66699 -2.66699 4 -6.33398 4 -11.001v-524c0 -4.66699 -1.33301 -8.33398 -4 -11.001s-6.33398 -4 -11.001 -4h-121c-4.66699 0 -8.5 1.33301 -11.5 4s-4.5 6.33398 -4.5 11.001v524c0 4.66699 1.5 8.33398 4.5 11.001s6.83301 4 11.5 4h121
c4.66699 0 8.33398 -1.33301 11.001 -4zM299 712v-74c0 -10.667 -5 -16 -15 -16h-278c-10.667 0 -16 5.33301 -16 16v74c0 10.667 5.33301 16 16 16h278c10 0 15 -5.33301 15 -16z" />
    <glyph glyph-name="Iogonek" unicode="&#x12e;" horiz-adv-x="322" 
d="M244 -196c0 -7.33301 -4 -13.002 -12 -17.002c-18.667 -8.66699 -39.334 -13 -62.001 -13c-35.333 0 -66 10.167 -92 30.5s-39 48.833 -39 85.5c0 44 17.667 81 53 111c-6 2 -9 6.66699 -9 14v702c0 4.66699 1.5 8.33398 4.5 11.001s6.83301 4 11.5 4h125
c10 0 15 -5 15 -15v-702c0 -10 -5 -15 -15 -15c-27.333 -5.33301 -47.833 -14.666 -61.5 -27.999s-20.5 -28 -20.5 -44c0 -14 4 -24.833 12 -32.5s18 -11.5 30 -11.5c4.66699 0 12.334 1.33301 23.001 4c1.33301 0.666992 3.33301 1 6 1c7.33301 0 11.333 -3 12 -9l19 -73
v-3z" />
    <glyph glyph-name="iogonek" unicode="&#x12f;" horiz-adv-x="290" 
d="M74.5 627.5c-3.66699 3.66699 -5.49805 8.83398 -5.49805 15.501v92c0 13.333 7 20 21 20h110c14 0 21 -6.66699 21 -20v-92c0 -6.66699 -1.83301 -11.834 -5.5 -15.501s-8.83398 -5.5 -15.501 -5.5h-110c-6.66699 0 -11.834 1.83301 -15.501 5.5zM233.002 -197
c0 -6 -4.00098 -11.3301 -12.001 -15.9971c-18.667 -8.66699 -39.667 -13 -63 -13c-38.667 0 -70.167 10.833 -94.5 32.5s-36.5 49.834 -36.5 84.501c0 43.333 18.667 79.666 56 108.999c-9.33301 1.33301 -14 6.33301 -14 15v524c0 4.66699 1.5 8.33398 4.5 11.001
s6.83301 4 11.5 4h121c4.66699 0 8.33398 -1.33301 11.001 -4s4 -6.33398 4 -11.001v-524c0 -4.66699 -1.33301 -8.33398 -4 -11.001s-6 -4 -10 -4c-22.667 -5.33301 -41 -14.833 -55 -28.5s-21 -28.834 -21 -45.501c0 -12.667 4 -22.834 12 -30.501s18 -11.5 30 -11.5
c4 0 11.333 1.33301 22 4c1.33301 0.666992 3.33301 1 6 1c7.33301 0 11.333 -3 12 -9l19 -73z" />
    <glyph glyph-name="Idotaccent" unicode="&#x130;" horiz-adv-x="322" 
d="M239 717v-702.002c0 -10 -5 -15 -15 -15h-125c-4.66699 0 -8.5 1.33301 -11.5 4s-4.5 6.33398 -4.5 11.001v702c0 4.66699 1.5 8.33398 4.5 11.001s6.83301 4 11.5 4h125c10 0 15 -5 15 -15zM224 918.998v-92c0 -14 -7 -21 -21 -21h-84c-14 0 -21 7 -21 21v92
c0 13.333 7 20 21 20h84c14 0 21 -6.66699 21 -20z" />
    <glyph glyph-name="dotlessi" unicode="&#x131;" horiz-adv-x="290" 
d="M217 550c2.66699 -2.66699 4 -6.33398 4 -11.001v-524c0 -4.66699 -1.33301 -8.33398 -4 -11.001s-6.33398 -4 -11.001 -4h-121c-4.66699 0 -8.5 1.33301 -11.5 4s-4.5 6.33398 -4.5 11.001v524c0 4.66699 1.5 8.33398 4.5 11.001s6.83301 4 11.5 4h121
c4.66699 0 8.33398 -1.33301 11.001 -4z" />
    <glyph glyph-name="IJ" unicode="&#x132;" horiz-adv-x="720" 
d="M229 317c2.66699 -2.66699 4.00098 -6.33496 4.00098 -11.002v-40c0 -89.333 42 -134 126 -134c44.667 0 77.167 12 97.5 36s30.5 56.667 30.5 98v451c0 10 5 15 15 15h125c10.667 0 16 -5 16 -15v-457c0 -51.333 -10.5 -97.5 -31.5 -138.5s-52.833 -73.5 -95.5 -97.5
s-95 -36 -157 -36c-92.667 0 -162.834 24.833 -210.501 74.5s-71.5 115.834 -71.5 198.501v45c0 4.66699 1.33301 8.33398 4 11.001s6 4 10 4h128c4 0 7.33301 -1.33301 10 -4zM81.001 403.499c-2.66699 3 -4 6.49902 -4 10.499v303c0 4.66699 1.5 8.33398 4.5 11.001
s6.83301 4 11.5 4h125c10 0 15 -5 15 -15v-303c0 -4 -1.33301 -7.5 -4 -10.5s-6 -4.5 -10 -4.5h-128c-4 0 -7.33301 1.5 -10 4.5z" />
    <glyph glyph-name="ij" unicode="&#x133;" horiz-adv-x="580" 
d="M215.5 758.5c3.66699 -3.66699 5.5 -8.83398 5.5 -15.501v-94c0 -6.66699 -1.83301 -11.834 -5.5 -15.501s-8.83398 -5.5 -15.501 -5.5h-110c-6.66699 0 -11.834 1.83301 -15.501 5.5s-5.5 8.83398 -5.5 15.501v94c0 6.66699 1.83301 11.834 5.5 15.501
s8.83398 5.5 15.501 5.5h110c6.66699 0 11.834 -1.83301 15.501 -5.5zM217 550c2.66699 -2.66699 4 -6.33398 4 -11.001v-524c0 -4.66699 -1.33301 -8.33398 -4 -11.001s-6.33398 -4 -11.001 -4h-121c-4.66699 0 -8.5 1.33301 -11.5 4s-4.5 6.33398 -4.5 11.001v524
c0 4.66699 1.5 8.33398 4.5 11.001s6.83301 4 11.5 4h121c4.66699 0 8.33398 -1.33301 11.001 -4zM511 743v-94.002c0 -14 -6.66699 -21 -20 -21h-110c-6.66699 0 -11.834 1.83301 -15.501 5.5s-5.5 8.83398 -5.5 15.501v94c0 6.66699 1.83301 11.834 5.5 15.501
s8.83398 5.5 15.501 5.5h110c13.333 0 20 -7 20 -21zM511 538.998l0.00195312 -464.001c0 -62 -10.667 -117 -32 -165s-48 -87 -80 -117c-4.66699 -4.66699 -9.33398 -7 -14.001 -7c-4 0 -9 2 -15 6l-84 66c-4 4 -6 8 -6 12c0 4.66699 2.33301 9.66699 7 15l25 26
c13.333 14 24.666 34 33.999 60s14 57 14 93v475c0 4.66699 1.5 8.33398 4.5 11.001s6.83301 4 11.5 4h121c9.33301 0 14 -5 14 -15z" />
    <glyph glyph-name="uni0136" unicode="&#x136;" horiz-adv-x="672" 
d="M648 14c0 -4 -1.33203 -7.33496 -3.99902 -10.002s-6.33398 -4 -11.001 -4h-137c-6.66699 0 -12 3.66699 -16 11l-154 306l-87 -109v-193c0 -10 -5 -15 -15 -15h-125c-4.66699 0 -8.5 1.33301 -11.5 4s-4.5 6.33398 -4.5 11.001v702c0 4.66699 1.5 8.33398 4.5 11.001
s6.83301 4 11.5 4h125c10 0 15 -5 15 -15v-304l233 307c6.66699 8 14.667 12 24 12h131c4.66699 0 8.16699 -1.16699 10.5 -3.5s3.5 -5.5 3.5 -9.5c0 -2.66699 -1 -5.66699 -3 -9l-213 -268l221 -420c1.33301 -2 2 -4.66699 2 -8zM394.501 -66.502
c3 -3 4.5 -6.83105 4.5 -11.498c-1.33301 -36.667 -5.5 -70.834 -12.5 -102.501s-17.167 -56.5 -30.5 -74.5c-2 -2.66699 -4.5 -4.33398 -7.5 -5.00098s-5.83301 -0.333984 -8.5 0.999023l-65 27c-8 4 -11 11 -9 21c12 30.667 18.667 75.334 20 134.001
c0 4 1.5 7.5 4.5 10.5s6.5 4.5 10.5 4.5h82c4.66699 0 8.5 -1.5 11.5 -4.5z" />
    <glyph glyph-name="uni0137" unicode="&#x137;" horiz-adv-x="577" 
d="M558 13c0 -3.33301 -1.33105 -6.33301 -3.99805 -9s-6 -4 -10 -4h-131c-8.66699 -0 -15.334 4.33301 -20.001 13l-107 210l-65 -77v-131c0 -4.66699 -1.33301 -8.33398 -4 -11.001s-6.33398 -4 -11.001 -4h-122c-4.66699 0 -8.33398 1.33301 -11.001 4
s-4 6.33398 -4 11.001v735c0 4.66699 1.33301 8.33398 4 11.001s6.33398 4 11.001 4h122c4.66699 0 8.33398 -1.33301 11.001 -4s4 -6.33398 4 -11.001v-421l163 210c5.33301 5.33301 10.166 9.16602 14.499 11.499s9.83301 3.5 16.5 3.5h125c4 0 7.33301 -1.16699 10 -3.5
s4 -5.16602 4 -8.49902s-1 -6 -3 -8l-165 -193l170 -320c1.33301 -4 2 -6.66699 2 -8zM344.502 -66.5c3 -3 4.5 -6.83105 4.5 -11.498c-1.33301 -36.667 -5.5 -70.834 -12.5 -102.501s-17.167 -56.5 -30.5 -74.5c-2 -2.66699 -4.5 -4.33398 -7.5 -5.00098
s-5.83301 -0.333984 -8.5 0.999023l-65 27c-8 4 -11 11 -9 21c12 30.667 18.667 75.334 20 134.001c0 4 1.5 7.5 4.5 10.5s6.5 4.5 10.5 4.5h82c4.66699 0 8.5 -1.5 11.5 -4.5z" />
    <glyph glyph-name="Lacute" unicode="&#x139;" horiz-adv-x="552" 
d="M239 717l0.000976562 -573.002h275c9.33301 0 14 -5.66699 14 -17v-113c0 -4 -1.16699 -7.33301 -3.5 -10s-5.5 -4 -9.5 -4h-417c-4.66699 0 -8.33398 1.33301 -11.001 4s-4 6.33398 -4 11.001v702c0 4.66699 1.5 8.33398 4.5 11.001s6.83301 4 11.5 4h125
c10 0 15 -5 15 -15zM98.001 815.998c-2 -2.66699 -3.00098 -5.33301 -3.00098 -8c0 -6.66699 4.33301 -10 13 -10h77c4.66699 0 8.33398 0.666992 11.001 2s5.66699 4 9 8l98 117c2 3.33301 3 6 3 8c0 6 -4 9 -12 9h-102c-4 0 -7.16699 -0.833008 -9.5 -2.5
s-4.83301 -4.5 -7.5 -8.5z" />
    <glyph glyph-name="lacute" unicode="&#x13a;" horiz-adv-x="290" 
d="M217 761c2.66699 -2.66699 4 -6.33398 4 -11.001v-735c0 -4.66699 -1.33301 -8.33398 -4 -11.001s-6.33398 -4 -11.001 -4h-121c-4.66699 0 -8.5 1.33301 -11.5 4s-4.5 6.33398 -4.5 11.001v735c0 4.66699 1.5 8.33398 4.5 11.001s6.83301 4 11.5 4h121
c4.66699 0 8.33398 -1.33301 11.001 -4zM83 824c-2 -2.66699 -3.00098 -5.33301 -3.00098 -8c0 -6.66699 4.33301 -10 13 -10h77c4.66699 0 8.33398 0.666992 11.001 2s5.66699 4 9 8l98 117c2 3.33301 3 6 3 8c0 6 -4 9 -12 9h-102c-4 0 -7.16699 -0.833008 -9.5 -2.5
s-4.83301 -4.5 -7.5 -8.5z" />
    <glyph glyph-name="uni013B" unicode="&#x13b;" horiz-adv-x="552" 
d="M239 717l0.000976562 -573.002h275c9.33301 0 14 -5.66699 14 -17v-113c0 -4 -1.16699 -7.33301 -3.5 -10s-5.5 -4 -9.5 -4h-417c-4.66699 0 -8.33398 1.33301 -11.001 4s-4 6.33398 -4 11.001v702c0 4.66699 1.5 8.33398 4.5 11.001s6.83301 4 11.5 4h125
c10 0 15 -5 15 -15zM356.501 -66.502c3 -3 4.5 -6.83105 4.5 -11.498c-1.33301 -36.667 -5.5 -70.834 -12.5 -102.501s-17.167 -56.5 -30.5 -74.5c-2 -2.66699 -4.5 -4.33398 -7.5 -5.00098s-5.83301 -0.333984 -8.5 0.999023l-65 27c-8 4 -11 11 -9 21
c12 30.667 18.667 75.334 20 134.001c0 4 1.5 7.5 4.5 10.5s6.5 4.5 10.5 4.5h82c4.66699 0 8.5 -1.5 11.5 -4.5z" />
    <glyph glyph-name="uni013C" unicode="&#x13c;" horiz-adv-x="290" 
d="M217 761c2.66699 -2.66699 4 -6.33398 4 -11.001v-735c0 -4.66699 -1.33301 -8.33398 -4 -11.001s-6.33398 -4 -11.001 -4h-121c-4.66699 0 -8.5 1.33301 -11.5 4s-4.5 6.33398 -4.5 11.001v735c0 4.66699 1.5 8.33398 4.5 11.001s6.83301 4 11.5 4h121
c4.66699 0 8.33398 -1.33301 11.001 -4zM198.5 -66.5c3 -3 4.5 -6.83105 4.5 -11.498c-1.33301 -36.667 -5.5 -70.834 -12.5 -102.501s-17.167 -56.5 -30.5 -74.5c-2 -2.66699 -4.5 -4.33398 -7.5 -5.00098s-5.83301 -0.333984 -8.5 0.999023l-65 27c-8 4 -11 11 -9 21
c12 30.667 18.667 75.334 20 134.001c0 4 1.5 7.5 4.5 10.5s6.5 4.5 10.5 4.5h82c4.66699 0 8.5 -1.5 11.5 -4.5z" />
    <glyph glyph-name="Lcaron" unicode="&#x13d;" horiz-adv-x="555" 
d="M239 717l0.000976562 -573.002h275c9.33301 0 14 -5.66699 14 -17v-113c0 -4 -1.16699 -7.33301 -3.5 -10s-5.5 -4 -9.5 -4h-417c-4.66699 0 -8.33398 1.33301 -11.001 4s-4 6.33398 -4 11.001v702c0 4.66699 1.5 8.33398 4.5 11.001s6.83301 4 11.5 4h125
c10 0 15 -5 15 -15zM336.001 565.998c14 35.333 21.667 85.333 23 150c0 4 1.5 7.5 4.5 10.5s6.5 4.5 10.5 4.5h84c4.66699 0 8.5 -1.5 11.5 -4.5s4.5 -6.83301 4.5 -11.5c-1.33301 -36 -5.83301 -70.333 -13.5 -103s-18.834 -60 -33.501 -82c-4 -6 -9.33301 -8 -16 -6
l-65 21c-9.33301 2.66699 -12.666 9.66699 -9.99902 21z" />
    <glyph glyph-name="lcaron" unicode="&#x13e;" horiz-adv-x="361" 
d="M217 761c2.66699 -2.66699 4 -6.33398 4 -11.001v-735c0 -4.66699 -1.33301 -8.33398 -4 -11.001s-6.33398 -4 -11.001 -4h-121c-4.66699 0 -8.5 1.33301 -11.5 4s-4.5 6.33398 -4.5 11.001v735c0 4.66699 1.5 8.33398 4.5 11.001s6.83301 4 11.5 4h121
c4.66699 0 8.33398 -1.33301 11.001 -4zM276 593c14 35.333 21.667 85.333 23 150c0 4 1.5 7.5 4.5 10.5s6.5 4.5 10.5 4.5h84c4.66699 0 8.5 -1.5 11.5 -4.5s4.5 -6.83301 4.5 -11.5c-1.33301 -36 -5.83301 -70.333 -13.5 -103s-18.834 -60 -33.501 -82
c-4 -6 -9.33301 -8 -16 -6l-65 21c-9.33301 2.66699 -12.666 9.66699 -9.99902 21z" />
    <glyph glyph-name="Ldot" unicode="&#x13f;" horiz-adv-x="556" 
d="M239 717l0.000976562 -573.002h275c9.33301 0 14 -5.66699 14 -17v-113c0 -4 -1.16699 -7.33301 -3.5 -10s-5.5 -4 -9.5 -4h-417c-4.66699 0 -8.33398 1.33301 -11.001 4s-4 6.33398 -4 11.001v702c0 4.66699 1.5 8.33398 4.5 11.001s6.83301 4 11.5 4h125
c10 0 15 -5 15 -15zM481.001 495.998c3.33301 -3.33301 5 -7.66797 5 -13.001v-145c0 -5.33301 -1.66699 -9.66602 -5 -12.999s-7.66602 -5 -12.999 -5h-110c-4.66699 0 -8.5 1.83301 -11.5 5.5s-4.5 8.16699 -4.5 13.5v143c0 5.33301 1.33301 9.83301 4 13.5
s6.66699 5.5 12 5.5h110c5.33301 0 9.66602 -1.66699 12.999 -5z" />
    <glyph glyph-name="ldot" unicode="&#x140;" horiz-adv-x="424" 
d="M217 761c2.66699 -2.66699 4 -6.33398 4 -11.001v-735c0 -4.66699 -1.33301 -8.33398 -4 -11.001s-6.33398 -4 -11.001 -4h-121c-4.66699 0 -8.5 1.33301 -11.5 4s-4.5 6.33398 -4.5 11.001v735c0 4.66699 1.5 8.33398 4.5 11.001s6.83301 4 11.5 4h121
c4.66699 0 8.33398 -1.33301 11.001 -4zM424 471c3.33301 -3.33301 5 -7.66797 5 -13.001v-145c0 -5.33301 -1.66699 -9.66602 -5 -12.999s-7.66602 -5 -12.999 -5h-110c-4.66699 0 -8.5 1.83301 -11.5 5.5s-4.5 8.16699 -4.5 13.5v143c0 5.33301 1.33301 9.83301 4 13.5
s6.66699 5.5 12 5.5h110c5.33301 0 9.66602 -1.66699 12.999 -5z" />
    <glyph glyph-name="Lslash" unicode="&#x141;" horiz-adv-x="567" 
d="M543 127l0.00195312 -113.002c0 -4 -1.16699 -7.33301 -3.5 -10s-5.5 -4 -9.5 -4h-417c-4.66699 0 -8.33398 1.33301 -11.001 4s-4 6.33398 -4 11.001v243l-41 -23c-3.33301 -2.66699 -7.33301 -4 -12 -4s-8.33398 1.5 -11.001 4.5s-4 7.16699 -4 12.5v85
c0 12 4.66699 20.667 14 26l54 32v326c0 4.66699 1.5 8.33398 4.5 11.001s6.83301 4 11.5 4h125c10 0 15 -5 15 -15v-245l89 52c3.33301 2.66699 7.33301 4 12 4c4 0 7.33301 -1.66699 10 -5s4 -7.33301 4 -12v-86c0 -12 -4.33301 -20.333 -13 -25l-102 -60v-196h275
c9.33301 0 14 -5.66699 14 -17z" />
    <glyph glyph-name="lslash" unicode="&#x142;" horiz-adv-x="368" 
d="M331 522c4 0 7.33398 -1.66699 10.001 -5s4 -7.33301 4 -12v-86c0 -12 -4.33301 -20.333 -13 -25l-70 -41v-338c0 -4.66699 -1.33301 -8.33398 -4 -11.001s-6.33398 -4 -11.001 -4h-121c-4.66699 0 -8.5 1.33301 -11.5 4s-4.5 6.33398 -4.5 11.001v258l-57 -33
c-3.33301 -2.66699 -7.33301 -4 -12 -4s-8.33398 1.5 -11.001 4.5s-4 7.16699 -4 12.5v85c0 12 4.66699 20.667 14 26l70 41v345c0 4.66699 1.5 8.33398 4.5 11.001s6.83301 4 11.5 4h121c4.66699 0 8.33398 -1.33301 11.001 -4s4 -6.33398 4 -11.001v-265l57 33
c3.33301 2.66699 7.33301 4 12 4z" />
    <glyph glyph-name="Nacute" unicode="&#x143;" horiz-adv-x="743" 
d="M660 717v-696.001c0 -14 -7 -21 -21 -21h-158c-12.667 0 -22 7 -28 21l-149 330c-28.667 63.333 -55 135.666 -79 216.999h-3c6.66699 -70 10 -137 10 -201v-352c0 -10 -5.33301 -15 -16 -15h-117c-4.66699 0 -8.5 1.33301 -11.5 4s-4.5 6.33398 -4.5 11.001v696
c0 14 7 21 21 21h170c6.66699 0 11.834 -1.66699 15.501 -5s7.16699 -8.66602 10.5 -15.999l143 -330c21.333 -50.667 46.666 -122 75.999 -214h3c-7.33301 66 -11 132.333 -11 199v351c0 10 5.33301 15 16 15h118c10 0 15 -5 15 -15zM317 815.999
c-2 -2.66699 -3.00098 -5.33301 -3.00098 -8c0 -6.66699 4.33301 -10 13 -10h77c4.66699 0 8.33398 0.666992 11.001 2s5.66699 4 9 8l98 117c2 3.33301 3 6 3 8c0 6 -4 9 -12 9h-102c-4 0 -7.16699 -0.833008 -9.5 -2.5s-4.83301 -4.5 -7.5 -8.5z" />
    <glyph glyph-name="nacute" unicode="&#x144;" horiz-adv-x="607" 
d="M258.5 404.5c-17.667 -15.667 -30.168 -36.832 -37.501 -63.499v-326c0 -4.66699 -1.33301 -8.33398 -4 -11.001s-6.33398 -4 -11.001 -4h-121c-4.66699 -0 -8.5 1.33301 -11.5 4s-4.5 6.33398 -4.5 11.001v525c0 4 1.33301 7.33301 4 10s6.33398 4 11.001 4h117
c4.66699 0 8.33398 -1.33301 11.001 -4s4 -6 4 -10v-63c18.667 26 41.834 47.333 69.501 64s59.167 25 94.5 25c51.333 0 91.166 -17.5 119.499 -52.5s42.5 -82.167 42.5 -141.5v-357c0 -10 -5 -15 -15 -15h-121c-10 0 -15 5 -15 15v332
c0 25.333 -6.16699 45.166 -18.5 59.499s-29.833 21.5 -52.5 21.5c-23.333 0 -43.833 -7.83301 -61.5 -23.5zM243.999 638.002c-2 -2.66699 -3.00098 -5.33301 -3.00098 -8c0 -6.66699 4.33301 -10 13 -10h77c4.66699 0 8.33398 0.666992 11.001 2s5.66699 4 9 8l98 117
c2 3.33301 3 6 3 8c0 6 -4 9 -12 9h-102c-4 0 -7.16699 -0.833008 -9.5 -2.5s-4.83301 -4.5 -7.5 -8.5z" />
    <glyph glyph-name="uni0145" unicode="&#x145;" horiz-adv-x="743" 
d="M660 717v-696.001c0 -14 -7 -21 -21 -21h-158c-12.667 0 -22 7 -28 21l-149 330c-28.667 63.333 -55 135.666 -79 216.999h-3c6.66699 -70 10 -137 10 -201v-352c0 -10 -5.33301 -15 -16 -15h-117c-4.66699 0 -8.5 1.33301 -11.5 4s-4.5 6.33398 -4.5 11.001v696
c0 14 7 21 21 21h170c6.66699 0 11.834 -1.66699 15.501 -5s7.16699 -8.66602 10.5 -15.999l143 -330c21.333 -50.667 46.666 -122 75.999 -214h3c-7.33301 66 -11 132.333 -11 199v351c0 10 5.33301 15 16 15h118c10 0 15 -5 15 -15zM431.5 -66.501
c3 -3 4.5 -6.83105 4.5 -11.498c-1.33301 -36.667 -5.5 -70.834 -12.5 -102.501s-17.167 -56.5 -30.5 -74.5c-2 -2.66699 -4.5 -4.33398 -7.5 -5.00098s-5.83301 -0.333984 -8.5 0.999023l-65 27c-8 4 -11 11 -9 21c12 30.667 18.667 75.334 20 134.001
c0 4 1.5 7.5 4.5 10.5s6.5 4.5 10.5 4.5h82c4.66699 0 8.5 -1.5 11.5 -4.5z" />
    <glyph glyph-name="uni0146" unicode="&#x146;" horiz-adv-x="607" 
d="M258.5 404.5c-17.667 -15.667 -30.168 -36.832 -37.501 -63.499v-326c0 -4.66699 -1.33301 -8.33398 -4 -11.001s-6.33398 -4 -11.001 -4h-121c-4.66699 -0 -8.5 1.33301 -11.5 4s-4.5 6.33398 -4.5 11.001v525c0 4 1.33301 7.33301 4 10s6.33398 4 11.001 4h117
c4.66699 0 8.33398 -1.33301 11.001 -4s4 -6 4 -10v-63c18.667 26 41.834 47.333 69.501 64s59.167 25 94.5 25c51.333 0 91.166 -17.5 119.499 -52.5s42.5 -82.167 42.5 -141.5v-357c0 -10 -5 -15 -15 -15h-121c-10 0 -15 5 -15 15v332
c0 25.333 -6.16699 45.166 -18.5 59.499s-29.833 21.5 -52.5 21.5c-23.333 0 -43.833 -7.83301 -61.5 -23.5zM358.499 -66.498c3 -3 4.5 -6.83105 4.5 -11.498c-1.33301 -36.667 -5.5 -70.834 -12.5 -102.501s-17.167 -56.5 -30.5 -74.5
c-2 -2.66699 -4.5 -4.33398 -7.5 -5.00098s-5.83301 -0.333984 -8.5 0.999023l-65 27c-8 4 -11 11 -9 21c12 30.667 18.667 75.334 20 134.001c0 4 1.5 7.5 4.5 10.5s6.5 4.5 10.5 4.5h82c4.66699 0 8.5 -1.5 11.5 -4.5z" />
    <glyph glyph-name="Ncaron" unicode="&#x147;" horiz-adv-x="743" 
d="M660 717v-696.001c0 -14 -7 -21 -21 -21h-158c-12.667 0 -22 7 -28 21l-149 330c-28.667 63.333 -55 135.666 -79 216.999h-3c6.66699 -70 10 -137 10 -201v-352c0 -10 -5.33301 -15 -16 -15h-117c-4.66699 0 -8.5 1.33301 -11.5 4s-4.5 6.33398 -4.5 11.001v696
c0 14 7 21 21 21h170c6.66699 0 11.834 -1.66699 15.501 -5s7.16699 -8.66602 10.5 -15.999l143 -330c21.333 -50.667 46.666 -122 75.999 -214h3c-7.33301 66 -11 132.333 -11 199v351c0 10 5.33301 15 16 15h118c10 0 15 -5 15 -15zM538 930.999
c0 -2.66699 -1.66699 -6.33398 -5 -11.001l-89 -113c-4 -6 -9 -9 -15 -9h-98c-6.66699 0 -12 3 -16 9l-87 113c-3.33301 4.66699 -5 8.33398 -5 11.001c0 7.33301 4 11 12 11h84c6.66699 0 12 -3 16 -9l45 -63l46 63c4 6 9 9 15 9h85c8 0 12 -3.66699 12 -11z" />
    <glyph glyph-name="ncaron" unicode="&#x148;" horiz-adv-x="607" 
d="M258.5 404.5c-17.667 -15.667 -30.168 -36.832 -37.501 -63.499v-326c0 -4.66699 -1.33301 -8.33398 -4 -11.001s-6.33398 -4 -11.001 -4h-121c-4.66699 -0 -8.5 1.33301 -11.5 4s-4.5 6.33398 -4.5 11.001v525c0 4 1.33301 7.33301 4 10s6.33398 4 11.001 4h117
c4.66699 0 8.33398 -1.33301 11.001 -4s4 -6 4 -10v-63c18.667 26 41.834 47.333 69.501 64s59.167 25 94.5 25c51.333 0 91.166 -17.5 119.499 -52.5s42.5 -82.167 42.5 -141.5v-357c0 -10 -5 -15 -15 -15h-121c-10 0 -15 5 -15 15v332
c0 25.333 -6.16699 45.166 -18.5 59.499s-29.833 21.5 -52.5 21.5c-23.333 0 -43.833 -7.83301 -61.5 -23.5zM464.999 753.002c0 -2.66699 -1.66699 -6.33398 -5 -11.001l-89 -113c-4 -6 -9 -9 -15 -9h-98c-6.66699 0 -12 3 -16 9l-87 113
c-3.33301 4.66699 -5 8.33398 -5 11.001c0 7.33301 4 11 12 11h84c6.66699 0 12 -3 16 -9l45 -63l46 63c4 6 9 9 15 9h85c8 0 12 -3.66699 12 -11z" />
    <glyph glyph-name="Eng" unicode="&#x14a;" horiz-adv-x="744" 
d="M660 717l-0.00292969 -704.003c0 -69.333 -19.833 -124.166 -59.5 -164.499s-94.167 -60.5 -163.5 -60.5c-76 0 -140.667 26.667 -194 80c-4.66699 4.66699 -7 9.66699 -7 15c0 4 1.66699 8.33301 5 13l69 79c4.66699 6 9.66699 9 15 9c4.66699 0 9.66699 -2.66699 15 -8
c27.333 -28.667 58 -43 92 -43c28.667 0 49.334 11.333 62.001 34l-190 392c-27.333 57.333 -53.666 128.666 -78.999 213.999h-3c6.66699 -70 10 -136 10 -198v-360c0 -10 -5.33301 -15 -16 -15h-117c-4.66699 0 -8.5 1.33301 -11.5 4s-4.5 6.33398 -4.5 11.001v696
c0 14 7 21 21 21h170c6.66699 0 11.834 -1.66699 15.501 -5s7.16699 -8.66602 10.5 -15.999l146 -327c14 -30.667 27.5 -64.167 40.5 -100.5s24.5 -70.166 34.5 -101.499h3c-8.66699 68 -13 130.333 -13 187v348c0 10 5.33301 15 16 15h118c10 0 15 -5 15 -15z" />
    <glyph glyph-name="eng" unicode="&#x14b;" horiz-adv-x="607" 
d="M499.5 513.5c28.333 -35 42.5 -82.165 42.5 -141.498v-297c0 -62 -10.667 -117 -32 -165s-48 -87 -80 -117c-4.66699 -4.66699 -9.66699 -7 -15 -7c-4 0 -9 2 -15 6l-83 66c-4 4 -6 8 -6 12c0 4.66699 2.33301 9.66699 7 15l25 26c13.333 14 24.666 34 33.999 60
s14 57 14 93v283c0 25.333 -6.16699 45.166 -18.5 59.499s-29.833 21.5 -52.5 21.5c-23.333 0 -43.833 -7.83301 -61.5 -23.5s-30.167 -36.834 -37.5 -63.501v-326c0 -4.66699 -1.33301 -8.33398 -4 -11.001s-6.33398 -4 -11.001 -4h-121c-4.66699 0 -8.5 1.33301 -11.5 4
s-4.5 6.33398 -4.5 11.001v525c0 4 1.33301 7.33301 4 10s6.33398 4 11.001 4h117c4.66699 0 8.33398 -1.33301 11.001 -4s4 -6 4 -10v-63c18.667 26 41.834 47.333 69.501 64s59.167 25 94.5 25c51.333 0 91.166 -17.5 119.499 -52.5z" />
    <glyph glyph-name="Omacron" unicode="&#x14c;" horiz-adv-x="707" 
d="M515 707c44 -24.667 76.667 -58.167 98 -100.5s32 -89.833 32 -142.5v-192c0 -54 -10.667 -102.5 -32 -145.5s-53.833 -76.833 -97.5 -101.5s-97.834 -37 -162.501 -37c-95.333 0 -167.666 25.5 -216.999 76.5s-74 118.833 -74 203.5v192c0 86.667 24.5 155.667 73.5 207
s121.5 77 217.5 77c64 0 118 -12.333 162 -37zM218 460v-188c0 -93.333 45 -140 135 -140c48 0 82.667 12.5 104 37.5s32 59.167 32 102.5v188c0 43.333 -10.667 77.5 -32 102.5s-56 37.5 -104 37.5c-90 0 -135 -46.667 -135 -140zM507 897v-74c0 -10.667 -5 -16 -15 -16
h-278c-10 0 -15 5.33301 -15 16v74c0 10.667 5 16 15 16h278c10 0 15 -5.33301 15 -16z" />
    <glyph glyph-name="omacron" unicode="&#x14d;" horiz-adv-x="592" 
d="M478.5 503c41 -42 61.5 -97.333 61.5 -166v-120c0 -70 -20.333 -125.667 -61 -167s-101.667 -62 -183 -62c-80.667 0 -141.5 20.5 -182.5 61.5s-61.5 95.5 -61.5 163.5v120c0 70.667 20.5 127.167 61.5 169.5s101.833 63.5 182.5 63.5s141.5 -21 182.5 -63zM227 405.5
c-15.333 -18.333 -23.001 -43.5 -23.001 -75.5v-109c0 -32 7.5 -56.667 22.5 -74s38.167 -26 69.5 -26c62 0 93 33.333 93 100v109c0 32 -7.66699 57.167 -23 75.5s-38.666 27.5 -69.999 27.5c-30.667 0 -53.667 -9.16699 -69 -27.5zM450.999 719v-74
c0 -10.667 -5 -16 -15 -16h-278c-10 0 -15 5.33301 -15 16v74c0 10.667 5 16 15 16h278c10 0 15 -5.33301 15 -16z" />
    <glyph glyph-name="Ohungarumlaut" unicode="&#x150;" horiz-adv-x="707" 
d="M515 707c44 -24.667 76.667 -58.167 98 -100.5s32 -89.833 32 -142.5v-192c0 -54 -10.667 -102.5 -32 -145.5s-53.833 -76.833 -97.5 -101.5s-97.834 -37 -162.501 -37c-95.333 0 -167.666 25.5 -216.999 76.5s-74 118.833 -74 203.5v192c0 86.667 24.5 155.667 73.5 207
s121.5 77 217.5 77c64 0 118 -12.333 162 -37zM218 460v-188c0 -93.333 45 -140 135 -140c48 0 82.667 12.5 104 37.5s32 59.167 32 102.5v188c0 43.333 -10.667 77.5 -32 102.5s-56 37.5 -104 37.5c-90 0 -135 -46.667 -135 -140zM387 816
c-2 -2.66699 -3 -5.33496 -3 -8.00195c0 -6.66699 4 -10 12 -10h78c4.66699 0 8.16699 0.666992 10.5 2s5.16602 4 8.49902 8l98 117c2.66699 2.66699 4 5.33398 4 8.00098s-1.16699 4.83398 -3.5 6.50098s-5.16602 2.5 -8.49902 2.5h-102
c-4.66699 0 -8.16699 -0.833008 -10.5 -2.5s-4.83301 -4.5 -7.5 -8.5zM212 815.999c-2 -2.66699 -3 -5.33496 -3 -8.00195c0 -6.66699 4 -10 12 -10h78c4.66699 0 8.16699 0.666992 10.5 2s5.16602 4 8.49902 8l98 117c2.66699 2.66699 4 5.33398 4 8.00098
s-1.16699 4.83398 -3.5 6.50098s-5.16602 2.5 -8.49902 2.5h-102c-4.66699 0 -8.16699 -0.833008 -10.5 -2.5s-4.83301 -4.5 -7.5 -8.5z" />
    </font>
</defs>
</svg>
