<?xml version="1.0" standalone="no"?>
<!DOCTYPE svg PUBLIC "-//W3C//DTD SVG 1.1//EN" "http://www.w3.org/Graphics/SVG/1.1/DTD/svg11.dtd" >
<svg>
<metadata>
Created by FontForge 20090914 at Tue Jun 21 12:40:53 2016
 By www-data
Copyright (c) 2015 by Newlyn Works Limited. All rights reserved.
</metadata>
<defs>
<font id="TPFrank-Light" horiz-adv-x="589" >
  <font-face 
    font-family="TP Frank Light"
    font-weight="300"
    font-stretch="normal"
    units-per-em="1000"
    panose-1="0 0 4 0 0 0 0 0 0 0"
    ascent="800"
    descent="-200"
    x-height="547"
    cap-height="732"
    bbox="-143 -242.505 1088 974"
    underline-thickness="50"
    underline-position="-50"
    unicode-range="U+000D-U+FB02"
  />
<missing-glyph horiz-adv-x="600" 
 />
    <glyph glyph-name="fi" unicode="fi" horiz-adv-x="596" 
d="M319 745v-30c0 -6.66699 -3.66699 -10 -11 -10h-33c-30 0 -52.167 -7 -66.5 -21s-21.5 -36.333 -21.5 -67v-73h124c5.33301 0 8 -3.33301 8 -10v-31c0 -6.66699 -3 -10 -9 -10h-123v-484c0 -6 -3.33301 -9 -10 -9h-38c-8 0 -12 3 -12 9v484h-80c-6 0 -9 3.33301 -9 10v31
c0 6.66699 3 10 9 10h80v71c0 46.667 12.333 82 37 106s59.667 36 105 36h38c8 0 12 -4 12 -12zM503 745v-97c0 -7.33301 -4.33301 -11 -13 -11h-34c-8 0 -12 3.66699 -12 11v97c0 8 4 12 12 12h34c8.66699 0 13 -4 13 -12zM503 537v-527c0 -6.66699 -4 -10 -12 -10h-36
c-7.33301 -0 -11 3.33301 -11 10v527c0 6.66699 3.66699 10 11 10h36c8 0 12 -3.33301 12 -10z" />
    <glyph glyph-name="fl" unicode="fl" horiz-adv-x="596" 
d="M319 745v-30c0 -6.66699 -3.66699 -10 -11 -10h-33c-30 0 -52.167 -7 -66.5 -21s-21.5 -36.333 -21.5 -67v-73h124c5.33301 0 8 -3.33301 8 -10v-31c0 -6.66699 -3 -10 -9 -10h-123v-484c0 -6 -3.33301 -9 -10 -9h-38c-8 0 -12 3 -12 9v484h-80c-6 0 -9 3.33301 -9 10v31
c0 6.66699 3 10 9 10h80v71c0 46.667 12.333 82 37 106s59.667 36 105 36h38c8 0 12 -4 12 -12zM503 748v-738c0 -6.66699 -4 -10 -12 -10h-36c-7.33301 -0 -11 3.33301 -11 10v738c0 6.66699 3.66699 10 11 10h36c8 0 12 -3.33301 12 -10z" />
    <glyph glyph-name=".notdef" horiz-adv-x="600" 
 />
    <glyph glyph-name="nonmarkingreturn" unicode="&#xd;" horiz-adv-x="600" 
 />
    <glyph glyph-name="space" unicode=" " horiz-adv-x="289" 
 />
    <glyph glyph-name="exclam" unicode="!" horiz-adv-x="251" 
d="M157 720c0 -40 -1.33301 -116.667 -4 -230s-4.66699 -183.333 -6 -210c0 -6.66699 -3.33301 -10 -10 -10h-24c-6 0 -9.33301 3.33301 -10 10c-1.33301 26.667 -3.33301 96.5 -6 209.5s-4 189.833 -4 230.5c0 8 3.66699 12 11 12h41c8 0 12 -4 12 -12zM156 165v-151
c0 -9.33301 -4.33301 -14 -13 -14h-35c-8 -0 -12 4.33301 -12 13v153c0 8.66699 4 13 12 13h35c8.66699 0 13 -4.66699 13 -14z" />
    <glyph glyph-name="quotedbl" unicode="&#x22;" horiz-adv-x="380" 
d="M147 721l-7 -256c0 -7.33301 -4 -11 -12 -11h-22c-8 0 -12 3.66699 -12 11l-7 256c0 7.33301 4 11 12 11h35c8.66699 0 13 -3.66699 13 -11zM293 721l-7 -256c0 -7.33301 -4 -11 -12 -11h-22c-8 0 -12 3.66699 -12 11l-7 256c0 7.33301 4 11 12 11h35
c8.66699 0 13 -3.66699 13 -11z" />
    <glyph glyph-name="numbersign" unicode="#" horiz-adv-x="696" 
d="M641 519v-28c0 -8 -3.33301 -12 -10 -12h-121l-55 -226h109c6.66699 0 10 -4 10 -12v-28c0 -8 -3.33301 -12 -10 -12h-121l-46 -192c-2 -6 -6.33301 -9 -13 -9h-30c-8.66699 -0 -12 4.33301 -10 13l46 188h-155l-47 -192c-2 -6 -6.33301 -9 -13 -9h-29
c-8.66699 -0 -12 4.33301 -10 13l46 188h-116c-7.33301 0 -11 4 -11 12v28c0 8 3.66699 12 11 12h129l55 226h-117c-6.66699 0 -10 4 -10 12v28c0 8 3.33301 12 10 12h129l47 192c2 6 6.33301 9 13 9h30c8 0 11 -4 9 -12l-46 -189h155l47 192c2 6 6.33301 9 13 9h30
c8 0 11 -4 9 -12l-46 -189h108c6.66699 0 10 -4 10 -12zM458 479h-156l-55 -226h156z" />
    <glyph glyph-name="dollar" unicode="$" 
d="M463 64c-34 -33.333 -80.002 -52.666 -138.002 -57.999v-75c0 -6.66699 -4 -10 -12 -10h-31c-8 0 -12 3.33301 -12 10v75c-52 3.33301 -95.667 18.166 -131 44.499s-59.666 62.833 -72.999 109.5l-1 5c0 4.66699 3 8 9 10l33 10c2 0.666992 4.33301 1 7 1
c4.66699 0 7.33398 -2.66699 8.00098 -8c9.33301 -34.667 27.333 -62.167 54 -82.5s59.667 -31.833 99 -34.5v290c-69.333 28 -118.5 57.167 -147.5 87.5s-43.5 67.5 -43.5 111.5c0 49.333 16.667 89.5 50 120.5s78.666 49.167 135.999 54.5v70c0 6.66699 4 10 12 10h31
c8 0 12 -3.33301 12 -10v-70c44.667 -3.33301 82.667 -17 114 -41s55.666 -57.333 72.999 -100c0.666992 -0.666992 1 -2 1 -4c0 -4.66699 -2.33301 -8 -7 -10l-35 -12c-1.33301 -0.666992 -3.33301 -1 -6 -1c-4 0 -6.66699 2 -8 6
c-13.333 33.333 -31.166 58.666 -53.499 75.999s-50.166 27.666 -83.499 30.999v-273c48.667 -19.333 87 -38.666 115 -57.999s48.167 -40.666 60.5 -63.999s18.5 -51 18.5 -83c0 -52 -17 -94.667 -51 -128zM171.498 478.5c19 -19.667 53.499 -40.5 103.499 -62.5v254
c-41.333 -3.33301 -73.666 -15.333 -96.999 -36s-35 -48 -35 -82c0 -29.333 9.5 -53.833 28.5 -73.5zM418.997 100c24 22 35.999 50.667 35.999 86c0 22.667 -4 42.167 -12 58.5s-21.667 31.333 -41 45s-46.666 28.167 -81.999 43.5v-272c42 4 75 17 99 39z" />
    <glyph glyph-name="percent" unicode="%" horiz-adv-x="804" 
d="M289 708.5c24 -22.333 36 -53.833 36 -94.5v-124c0 -41.333 -12 -73.166 -36 -95.499s-56 -33.5 -96 -33.5c-39.333 0 -71 11.167 -95 33.5s-36 54.166 -36 95.499v124c0 40.667 12 72.167 36 94.5s55.667 33.5 95 33.5c40 0 72 -11.167 96 -33.5zM619 728.5
c1.33301 -2.33301 1.33496 -5.16602 0.00195312 -8.49902l-389 -711c-2.66699 -6 -7 -9 -13 -9h-26c-3.33301 0 -5.83301 1.16699 -7.5 3.5s-1.83398 5.16602 -0.500977 8.49902l390 711c3.33301 6 7.66602 9 12.999 9h25c4 0 6.66699 -1.16699 8 -3.5zM132.002 677.5
c-15.333 -13.667 -23 -35.834 -23 -66.501v-119c0 -30.667 7.66699 -52.834 23 -66.501s35.666 -20.5 60.999 -20.5s45.833 6.83301 61.5 20.5s23.5 35.834 23.5 66.501v119c0 30.667 -7.83301 52.834 -23.5 66.501s-36.167 20.5 -61.5 20.5s-45.666 -6.83301 -60.999 -20.5
zM705.002 337.5c24 -22.333 36 -54.166 36 -95.499v-124c0 -40.667 -12 -72.167 -36 -94.5s-55.667 -33.5 -95 -33.5s-71 11.167 -95 33.5s-36 53.833 -36 94.5v124c0 41.333 12 73.166 36 95.499s55.667 33.5 95 33.5s71 -11.167 95 -33.5zM548.502 306.5
c-15.667 -13.667 -23.5 -35.834 -23.5 -66.501v-119c0 -30.667 7.83301 -52.834 23.5 -66.501s36.167 -20.5 61.5 -20.5s45.833 6.83301 61.5 20.5s23.5 35.834 23.5 66.501v119c0 30.667 -7.83301 52.834 -23.5 66.501s-36.167 20.5 -61.5 20.5
s-45.833 -6.83301 -61.5 -20.5z" />
    <glyph glyph-name="ampersand" unicode="&#x26;" horiz-adv-x="668" 
d="M616 7c0 -4.66699 -2.33398 -6.99707 -7.00098 -6.99707h-47c-4 0 -7.16699 0.666992 -9.5 2s-5.16602 3.66602 -8.49902 6.99902l-62 73c-26 -28.667 -56.167 -51.167 -90.5 -67.5s-71.166 -24.5 -110.499 -24.5c-40.667 0 -76.667 9 -108 27s-55.5 42 -72.5 72
s-25.5 62.333 -25.5 97c0 48.667 13.5 88.5 40.5 119.5s64.167 56.5 111.5 76.5l-8 9c-30 35.333 -52.167 67.5 -66.5 96.5s-21.5 58.5 -21.5 88.5c0 48.667 16 88.667 48 120s74.333 47 127 47c54 0 96.833 -15 128.5 -45s47.5 -70 47.5 -120
c0 -44.667 -15.333 -85.167 -46 -121.5s-71.667 -66.166 -123 -89.499l170 -201c35.333 52.667 58.666 122 69.999 208c1.33301 4.66699 3 7.66699 5 9s5.33301 1.66602 10 0.999023l31 -7c8 -0.666992 11 -5.66699 9 -15c-6.66699 -40.667 -17.667 -82.334 -33 -125.001
s-34 -80.334 -56 -113.001l94 -111c2 -2 3 -4 3 -6zM207.999 503.503c12.667 -24.333 32.667 -52.166 60 -83.499l11 -14c42 18 76.667 41.833 104 71.5s41 62.834 41 99.501c0 35.333 -10.5 63.166 -31.5 83.499s-49.833 30.5 -86.5 30.5c-34 0 -62 -10.333 -84 -31
s-33 -48.334 -33 -83.001c0 -24.667 6.33301 -49.167 19 -73.5zM374.499 64.5029c27.667 13.667 52.166 33.167 73.499 58.5l-189 221c-82.667 -35.333 -124 -87 -124 -155c0 -24 6 -47.167 18 -69.5s29.333 -40.5 52 -54.5s49.334 -21 80.001 -21
c32 0 61.833 6.83301 89.5 20.5z" />
    <glyph glyph-name="quotesingle" unicode="'" horiz-adv-x="234" 
d="M147 721l-7 -256c0 -7.33301 -4 -11 -12 -11h-22c-8 0 -12 3.66699 -12 11l-7 256c0 7.33301 4 11 12 11h35c8.66699 0 13 -3.66699 13 -11z" />
    <glyph glyph-name="parenleft" unicode="(" horiz-adv-x="305" 
d="M221.5 766.5c1.66699 -1 3.16699 -1.83105 4.5 -2.49805l26 -19c5.33301 -4 6 -9 2 -15c-36 -58.667 -65.167 -124.334 -87.5 -197.001s-33.5 -157.334 -33.5 -254.001c0 -98 11.167 -183 33.5 -255s51.5 -137.667 87.5 -197c1.33301 -2 2 -4.33301 2 -7
c0 -3.33301 -1.33301 -6 -4 -8l-26 -19c-1.33301 -0.666992 -2.83301 -1.5 -4.5 -2.5s-3.5 -1.5 -5.5 -1.5c-4 0 -7.66699 2.66699 -11 8c-89.333 136 -134 298.333 -134 487c0 102.667 12.833 193.5 38.5 272.5s57.5 146.833 95.5 203.5c3.33301 5.33301 7 8 11 8
c2 0 3.83301 -0.5 5.5 -1.5z" />
    <glyph glyph-name="parenright" unicode=")" horiz-adv-x="305" 
d="M196.5 555c25.667 -79.333 38.5 -171.329 38.5 -275.996c-0.666992 -105.333 -13.834 -197.833 -39.501 -277.5s-57.5 -147.834 -95.5 -204.501c-3.33301 -5.33301 -7 -8 -11 -8c-2 0 -5 1.33301 -9 4l-26 19c-6 4 -7 9 -3 15c36 59.333 65.333 125.166 88 197.499
s34 157.166 34 254.499c0 96.667 -11.333 181.167 -34 253.5s-52 138.166 -88 197.499c-1.33301 1.33301 -2 3.66602 -2 6.99902c0 4 1.66699 6.66699 5 8l26 19c4 2.66699 7 4 9 4c4 0 7.66699 -2.66699 11 -8c38.667 -57.333 70.834 -125.666 96.501 -204.999z" />
    <glyph glyph-name="asterisk" unicode="*" horiz-adv-x="458" 
d="M387 601c0 -4.66699 -3.00098 -7.66504 -9.00098 -8.99805l-114 -28l74 -100c2 -2.66699 3 -5 3 -7c0 -2.66699 -2 -5.66699 -6 -9l-22 -17c-2.66699 -2 -5.33398 -3 -8.00098 -3s-5.66699 2 -9 6l-67 109l-67 -109c-2.66699 -4 -5.66699 -6 -9 -6
c-2.66699 0 -5.33398 1 -8.00098 3l-22 17c-3.33301 2.66699 -5.16602 5.16699 -5.49902 7.5s0.5 5.16602 2.5 8.49902l74 100l-114 28c-4.66699 1.33301 -7.5 3.16602 -8.5 5.49902s-0.833008 5.83301 0.5 10.5l7 24c2 6 4.66699 9 8 9l8 -2l113 -40l-4 121
c0 4.66699 0.833008 7.83398 2.5 9.50098s4.83398 2.5 9.50098 2.5h27c4.66699 0 7.83398 -0.833008 9.50098 -2.5s2.5 -4.83398 2.5 -9.50098l-5 -121l113 40c4 1.33301 6.33301 2 7 2c4 0 7 -3 9 -9l7 -24c0.666992 -2 1 -4.33301 1 -7z" />
    <glyph glyph-name="plus" unicode="+" 
d="M539 331.5c1.33301 -1.66699 2 -4.83398 2 -9.50098v-34c0 -4 -0.666992 -6.83301 -2 -8.5s-4 -2.5 -8 -2.5h-206v-213c0 -6.66699 -4 -10 -12 -10h-36c-8 0 -12 3.33301 -12 10v213h-206c-7.33301 0 -11 3.66699 -11 11v34c0 4.66699 0.833008 7.83398 2.5 9.50098
s4.5 2.5 8.5 2.5h206v212c0 6.66699 4 10 12 10h36c8 0 12 -3.33301 12 -10v-212h206c4 0 6.66699 -0.833008 8 -2.5z" />
    <glyph glyph-name="comma" unicode="," horiz-adv-x="240" 
d="M139 -16c-8.66699 -33.333 -23.667 -69.3311 -45 -107.998c-4 -6.66699 -10 -8.33398 -18 -5.00098l-23 10c-5.33301 3.33301 -8 6.66602 -8 9.99902c0 2 1 5 3 9c18.667 36.667 30.5 68.5 35.5 95.5s7.5 70.167 7.5 129.5c0 9.33301 4.33301 14 13 14h34
c9.33301 0 14 -4.66699 14 -14c0 -60.667 -4.33301 -107.667 -13 -141z" />
    <glyph glyph-name="hyphen" unicode="-" horiz-adv-x="490" 
d="M399 332c1.33301 -1.33301 2 -4.33301 2 -9v-35c0 -4 -0.666992 -6.83301 -2 -8.5s-4 -2.5 -8 -2.5h-292c-7.33301 0 -11 3.66699 -11 11v35c0 7.33301 3.66699 11 11 11h292c4 0 6.66699 -0.666992 8 -2z" />
    <glyph glyph-name="period" unicode="." horiz-adv-x="239" 
d="M150 165v-151c0 -9.33301 -4.66699 -14 -14 -14h-35c-8 -0 -12 4.33301 -12 13v153c0 8.66699 4 13 12 13h35c9.33301 0 14 -4.66699 14 -14z" />
    <glyph glyph-name="slash" unicode="/" horiz-adv-x="397" 
d="M311 732h36c7.33301 0 10 -4 8 -12l-257 -910c-2 -6.66699 -6 -10 -12 -10h-36c-7.33301 0 -10 4 -8 12l257 910c2 6.66699 6 10 12 10z" />
    <glyph glyph-name="zero" unicode="0" 
d="M139 47.5c-39.333 38.333 -59 92.5 -59 162.5v312c0 70 19.5 124.167 58.5 162.5s91.167 57.5 156.5 57.5s117.166 -19.333 155.499 -58s57.5 -92.667 57.5 -162v-312c0 -69.333 -19.167 -123.333 -57.5 -162s-89.833 -58 -154.5 -58
c-65.333 0 -117.666 19.167 -156.999 57.5zM406 89.5c26.667 27 40 67.833 40 122.5v308c0 54.667 -13.5 95.5 -40.5 122.5s-63.833 40.5 -110.5 40.5s-83.834 -13.5 -111.501 -40.5s-41.5 -67.833 -41.5 -122.5v-308c0 -54 14 -94.667 42 -122s65.333 -41 112 -41
s83.334 13.5 110.001 40.5z" />
    <glyph glyph-name="one" unicode="1" 
d="M528 47v-35c0 -8 -3.33301 -12 -10 -12h-395c-6 0 -9 4 -9 12v35c0 8 3 12 9 12h172v601l-181 -74c-1.33301 -0.666992 -3 -1 -5 -1c-4.66699 0 -8 3 -10 9l-13 32c-1.33301 2.66699 -2 5 -2 7c0 4 2.33301 7 7 9l205 85l9 3c4 1.33301 7.66699 2 11 2h28
c8 0 12 -3.33301 12 -10v-663h162c6.66699 0 10 -4 10 -12z" />
    <glyph glyph-name="two" unicode="2" 
d="M443 687c37.333 -36.667 56.002 -85.3311 56.002 -145.998c0.666992 -32 -4 -61 -14 -87s-26.833 -54.5 -50.5 -85.5s-58.834 -71.167 -105.501 -120.5l-177 -189h355c6.66699 0 10 -4 10 -12v-35c0 -8 -3.33301 -12 -10 -12h-413
c-4.66699 0 -7.83398 0.833008 -9.50098 2.5s-3.16699 4.5 -4.5 8.5l-8 32c-0.666992 2 -1 4.33301 -1 7c0 4 2 9 6 15l203 216c44.667 48 78 86.333 100 115s37 53.5 45 74.5s12 43.833 12 68.5c0 45.333 -13.167 80.666 -39.5 105.999s-61.833 38 -106.5 38
c-40.667 0 -73.667 -9.83301 -99 -29.5s-44.666 -49.834 -57.999 -90.501c-2.66699 -6.66699 -8 -9 -16 -7l-35 12c-6.66699 2 -9 6.66699 -7 14c17.333 54 43.833 94.167 79.5 120.5s81.167 39.5 136.5 39.5c63.333 0 113.666 -18.333 150.999 -55z" />
    <glyph glyph-name="three" unicode="3" 
d="M442.5 692c35.667 -33.333 53.4961 -78 53.4961 -134v-16c0 -39.333 -11.5 -73.666 -34.5 -102.999s-51.5 -49 -85.5 -59c38.667 -8.66699 70.5 -27.834 95.5 -57.501s37.5 -66.834 37.5 -111.501v-16c0 -40 -8.5 -75.333 -25.5 -106s-42.167 -54.834 -75.5 -72.501
s-73 -26.5 -119 -26.5c-59.333 0 -107 14.333 -143 43s-61 66.334 -75 113.001c-0.666992 2 -1 4.33301 -1 7c0 5.33301 3 9.33301 9 12l30 10c2 1.33301 5 2 9 2c6 0 9.33301 -3 10 -9c22.667 -80.667 76.334 -121 161.001 -121c49.333 0 88 13.333 116 40
s42 63.334 42 110.001v13c0 44 -14.5 78.167 -43.5 102.5s-69.833 36.5 -122.5 36.5h-38c-7.33301 0 -11 3.66699 -11 11v34c0 8 3.66699 12 11 12h38c46.667 0 83.834 12.333 111.501 37s41.5 57 41.5 97v14c0 43.333 -12.667 76 -38 98s-61.333 33 -108 33
c-78 0 -128 -36.667 -150 -110c-1.33301 -4 -3.16602 -6.5 -5.49902 -7.5s-5.5 -0.833008 -9.5 0.5l-34 15c-6.66699 3.33301 -8.66699 8.33301 -6 15c14 44 38.333 79 73 105s79.334 39 134.001 39c66 0 116.833 -16.667 152.5 -50z" />
    <glyph glyph-name="four" unicode="4" 
d="M540 193v-33.999c0 -7.33301 -3.33301 -11 -10 -11h-99v-138c0 -6.66699 -3.66699 -10 -11 -10h-35c-8 0 -12 3.33301 -12 10v138h-306c-4.66699 0 -8 0.833008 -10 2.5s-3.66699 4.5 -5 8.5l-7 28c-0.666992 1.33301 -1 3.66602 -1 6.99902s1.66699 8.33301 5 15
l256 513c4 6.66699 9.66699 10 17 10h39c4 0 6.66699 -1.5 8 -4.5s1 -6.83301 -1 -11.5l-258 -511h263v211c0 6.66699 4 10 12 10h35c4.66699 0 7.66699 -0.666992 9 -2s2 -4 2 -8v-211h99c6.66699 0 10 -4 10 -12z" />
    <glyph glyph-name="five" unicode="5" 
d="M477 720l0.00195312 -33.9961c0 -8 -3.33301 -12 -10 -12h-310v-272l2 -1c38 46.667 90.333 70 157 70c37.333 0 71 -8.33301 101 -25s53.667 -41.334 71 -74.001s26 -71.334 26 -116.001v-50c0 -68 -19.5 -121 -58.5 -159s-91.833 -57 -158.5 -57
c-60 0 -108.167 14.667 -144.5 44s-60.833 65.666 -73.5 108.999c-0.666992 1.33301 -1 3.33301 -1 6c0 4.66699 2.66699 8 8 10l34 10c1.33301 0.666992 3.33301 1 6 1c4 0 7 -2.66699 9 -8c12 -34.667 31.167 -62.334 57.5 -83.001s61.166 -31.334 104.499 -32.001
c48 0 86 13.5 114 40.5s42 67.5 42 121.5v44c0 53.333 -13.667 93.5 -41 120.5s-62 40.5 -104 40.5c-33.333 0 -61.5 -6.66699 -84.5 -20s-43.5 -33.666 -61.5 -60.999c-4 -4.66699 -8 -7 -12 -7c-1.33301 0 -4 0.666992 -8 2l-29 14
c-4.66699 2 -7.83398 3.83301 -9.50098 5.5s-2.5 5.16699 -2.5 10.5v362v2c0 6.66699 3.66699 10 11 10h355c6.66699 0 10 -4 10 -12z" />
    <glyph glyph-name="six" unicode="6" 
d="M416.5 718.5c32.333 -15.667 58.8359 -38.498 79.5029 -68.498c1.33301 -1.33301 2 -3.66602 2 -6.99902c0 -4 -2 -7.66699 -6 -11l-22 -20c-2.66699 -2.66699 -6 -4 -10 -4c-4.66699 0 -8.33398 2.33301 -11.001 7c-14.667 21.333 -34 38.166 -58 50.499
s-52 18.5 -84 18.5c-50.667 0 -90.334 -13.833 -119.001 -41.5s-43 -68.5 -43 -122.5v-141h1c14.667 28.667 37.167 51.334 67.5 68.001s64.5 25 102.5 25c60.667 0 109.667 -18.667 147 -56s56 -90 56 -158v-51c0 -68.667 -19.333 -121.834 -58 -159.501
s-91.334 -56.834 -158.001 -57.501c-66.667 0 -120 19.5 -160 58.5s-60 93.167 -60 162.5l1 306c0.666992 71.333 20.667 126.666 60 165.999s93 59 161 59c42 0 79.167 -7.83301 111.5 -23.5zM191.503 373.502c-31 -28.333 -46.5 -67.833 -46.5 -118.5v-44
c0 -54 14.333 -94.667 43 -122s67 -41 115 -41s85.833 13.5 113.5 40.5s41.5 67.5 41.5 121.5v44c0 54 -13.5 94.5 -40.5 121.5s-62.833 40.5 -107.5 40.5c-48 0 -87.5 -14.167 -118.5 -42.5z" />
    <glyph glyph-name="seven" unicode="7" 
d="M518.5 729.5c1.66699 -1.66699 3.16699 -4.5 4.5 -8.5l6 -28c0.666992 -1.33301 1 -3.33301 1 -6s-1.66699 -8 -5 -16l-319 -661c-1.33301 -4 -3.16602 -6.66699 -5.49902 -8s-5.83301 -2 -10.5 -2h-40c-4.66699 -0 -7.83398 1.33301 -9.50098 4s-1.83398 6 -0.500977 10
l322 659h-379c-7.33301 0 -11 4 -11 12v35c0 8 3.66699 12 11 12h426c4.66699 0 7.83398 -0.833008 9.50098 -2.5z" />
    <glyph glyph-name="eight" unicode="8" 
d="M174 15.5c-33.333 17 -58.6699 40.334 -76.0029 70.001s-26 63.5 -26 101.5v22c0 44.667 12.833 82.167 38.5 112.5s57.834 50.166 96.501 59.499c-34 10 -63 29.333 -87 58s-36 64 -36 106v14c0 34 8.16699 65 24.5 93s40.333 50 72 66s69.5 24 113.5 24s82 -8 114 -24
s56.167 -38 72.5 -66s24.5 -59 24.5 -93v-14c0 -41.333 -12.167 -76.5 -36.5 -105.5s-53.5 -48.5 -87.5 -58.5c38.667 -9.33301 70.834 -29 96.501 -59s38.5 -67.667 38.5 -113v-22c0 -38 -8.5 -71.833 -25.5 -101.5s-42.167 -53 -75.5 -70s-73.666 -25.5 -120.999 -25.5
c-46.667 0 -86.667 8.5 -120 25.5zM403.996 452.001c26 24.667 39 55.334 39 92.001v13c0 38.667 -13.167 69.834 -39.5 93.501s-62.833 35.5 -109.5 35.5c-46 0 -82.167 -11.833 -108.5 -35.5s-39.5 -54.834 -39.5 -93.501v-13c0 -36.667 12.833 -67.334 38.5 -92.001
s62.167 -39.334 109.5 -44.001c47.333 4.66699 84 19.334 110 44.001zM411.996 85.001c28 25.333 42 60.333 42 105v19c0 40 -13.667 72.5 -41 97.5s-67 39.833 -119 44.5c-52 -4.66699 -91.667 -19.5 -119 -44.5s-41 -57.5 -41 -97.5v-19c0 -44 14.167 -78.833 42.5 -104.5
s67.5 -38.5 117.5 -38.5c50.667 0 90 12.667 118 38z" />
    <glyph glyph-name="nine" unicode="9" 
d="M83 91c-1.33301 2.66699 -1.99902 4.99902 -1.99902 6.99902c0 4.66699 2 8.33398 6 11.001l26 18c3.33301 2 6 3 8 3c3.33301 0 7 -2.33301 11 -7c34 -50 84.667 -75 152 -75c50 0 89.333 14 118 42s43 69 43 123v141h-1c-14 -28.667 -36.333 -51.334 -67 -68.001
s-65 -25 -103 -25c-59.333 0 -107.5 18.833 -144.5 56.5s-55.5 90.167 -55.5 157.5v51c0 68.667 19.333 121.834 58 159.501s91 56.5 157 56.5c66.667 0 119.5 -19.667 158.5 -59s58.5 -93.333 58.5 -162v-305c0 -71.333 -19.667 -126.833 -59 -166.5s-93 -59.5 -161 -59.5
c-90.667 0 -158.334 33.667 -203.001 101zM398.501 358.999c31 28 46.5 67.334 46.5 118.001v45c0 54 -14.167 94.667 -42.5 122s-66.5 41 -114.5 41c-47.333 -0.666992 -84.833 -14.334 -112.5 -41.001s-41.5 -67 -41.5 -121v-44c0 -54 13.5 -94.5 40.5 -121.5
s62.5 -40.5 106.5 -40.5c47.333 0 86.5 14 117.5 42z" />
    <glyph glyph-name="colon" unicode=":" horiz-adv-x="239" 
d="M150 533v-151c0 -9.33301 -4.66699 -14 -14 -14h-35c-8 0 -12 4.33301 -12 13v153c0 8.66699 4 13 12 13h35c9.33301 0 14 -4.66699 14 -14zM150 165v-151c0 -9.33301 -4.66699 -14 -14 -14h-35c-8 -0 -12 4.33301 -12 13v153c0 8.66699 4 13 12 13h35
c9.33301 0 14 -4.66699 14 -14z" />
    <glyph glyph-name="semicolon" unicode=";" horiz-adv-x="265" 
d="M163 533v-151c0 -9.33301 -4.66699 -14 -14 -14h-35c-8 0 -12 4.33301 -12 13v153c0 8.66699 4 13 12 13h35c9.33301 0 14 -4.66699 14 -14zM155 -16c-8.66699 -33.333 -23.667 -69.3311 -45 -107.998c-4 -6.66699 -10 -8.33398 -18 -5.00098l-23 10
c-5.33301 3.33301 -8 6.66602 -8 9.99902c0 2 1 5 3 9c18.667 36.667 30.5 68.5 35.5 95.5s7.5 70.167 7.5 129.5c0 9.33301 4.33301 14 13 14h34c9.33301 0 14 -4.66699 14 -14c0 -60.667 -4.33301 -107.667 -13 -141z" />
    <glyph glyph-name="less" unicode="&#x3c;" 
d="M496 211.5c1.33301 -2.33301 1.99902 -5.83496 1.99902 -10.502v-36c0 -4 -1.16699 -7 -3.5 -9s-5.16602 -2.33301 -8.49902 -1l-409 168c-7.33301 2.66699 -11 8 -11 16v41c0 8 3.66699 13.333 11 16l408 168l3 1c6 0 9 -3.66699 9 -11v-36
c0 -4.66699 -0.666992 -8.16699 -2 -10.5s-4 -4.16602 -8 -5.49902l-357 -142l358 -143c4 -1.33301 6.66699 -3.16602 8 -5.49902z" />
    <glyph glyph-name="equal" unicode="=" 
d="M519 412v-31c0 -4 -0.666992 -6.83301 -2 -8.5s-4 -2.5 -8 -2.5h-429c-3.33301 0 -5.83301 0.833008 -7.5 2.5s-2.5 4.5 -2.5 8.5v31c0 8 3.33301 12 10 12h429c6.66699 0 10 -4 10 -12zM519 249v-30c0 -4.66699 -0.666992 -7.83398 -2 -9.50098s-4 -2.5 -8 -2.5h-429
c-4 0 -6.66699 0.833008 -8 2.5s-2 4.83398 -2 9.50098v30c0 8 3.33301 12 10 12h429c6.66699 0 10 -4 10 -12z" />
    <glyph glyph-name="greater" unicode="&#x3e;" 
d="M522 380v-40.998c0 -8 -3.33301 -13.333 -10 -16l-409 -168l-4 -1c-6 0 -9 3.66699 -9 11v36c0 4.66699 0.833008 8.16699 2.5 10.5s4.5 4.16602 8.5 5.49902l358 142l-357 143c-4 1.33301 -6.83301 3.16602 -8.5 5.49902s-2.5 5.83301 -2.5 10.5v36
c0 4 1.16699 6.83301 3.5 8.5s5.5 2.16699 9.5 1.5l408 -168c6.66699 -2.66699 10 -8 10 -16z" />
    <glyph glyph-name="question" unicode="?" horiz-adv-x="454" 
d="M193.5 275c-1.66699 3.33301 -1.16504 7.00195 1.50195 11.002c18 36.667 40 76.334 66 119.001c26 44 45 79.167 57 105.5s18 51.833 18 76.5c0 32.667 -9.33301 57.5 -28 74.5s-45.667 25.5 -81 25.5c-34 0 -61 -7.66699 -81 -23s-34.333 -39.333 -43 -72
c-3.33301 -10 -8.33301 -13.667 -15 -11l-31 9c-4 1.33301 -6.5 3.16602 -7.5 5.49902s-0.833008 5.83301 0.5 10.5c24 90.667 85.333 136 184 136c49.333 0 88.666 -13.333 117.999 -40s44 -62.667 44 -108c0 -28.667 -7 -58.334 -21 -89.001s-35.667 -70.334 -65 -119.001
c-28.667 -49.333 -48.334 -84.333 -59.001 -105c-2.66699 -4.66699 -5.16699 -7.66699 -7.5 -9s-5.83301 -2 -10.5 -2h-31c-4 0 -6.83301 1.66699 -8.5 5zM193.002 13.002v153c0 8.66699 4 13 12 13h35c8.66699 0 13 -4.66699 13 -14v-151c0 -9.33301 -4.33301 -14 -13 -14
h-35c-8 0 -12 4.33301 -12 13z" />
    <glyph glyph-name="at" unicode="@" horiz-adv-x="853" 
d="M682.5 542.5c61 -49.667 91.5 -123.83 91.5 -222.497v-112c0 -46.667 -13.167 -84.5 -39.5 -113.5s-62.833 -43.5 -109.5 -43.5c-24 0 -45.167 5.5 -63.5 16.5s-31.5 25.5 -39.5 43.5c-10.667 -20.667 -25.5 -36.334 -44.5 -47.001s-40.5 -16 -64.5 -16
c-39.333 0 -70.666 12.167 -93.999 36.5s-35 57.5 -35 99.5v110c0 41.333 11.667 74.333 35 99s54.333 37 93 37c20 0 38.5 -3.83301 55.5 -11.5s31.5 -19.167 43.5 -34.5v27c0 6 3.33301 9 10 9h30c3.33301 0 5.83301 -0.5 7.5 -1.5s2.5 -3.5 2.5 -7.5v-237
c0 -25.333 6.33301 -44.333 19 -57s28.334 -19 47.001 -19c32.667 0 56.667 9.66699 72 29s23 46.333 23 81v111c0 165.333 -98.667 248 -296 248c-92.667 0 -165.5 -21.5 -218.5 -64.5s-79.5 -106.5 -79.5 -190.5v-128c0 -79.333 22.667 -143.333 68 -192
s118.666 -73 219.999 -73c47.333 0 86.833 3.66699 118.5 11s64.5 17.666 98.5 30.999l4 1c4.66699 0 7.66699 -2.33301 9 -7l8 -28l1 -4c0 -4.66699 -2.33301 -8 -7 -10c-24.667 -10 -56.834 -20 -96.501 -30s-84.834 -15 -135.501 -15
c-79.333 0 -144.333 14.167 -195 42.5s-87.5 66.166 -110.5 113.499s-34.5 100.333 -34.5 159v130c0 66 14.833 121.667 44.5 167s70.834 79.5 123.501 102.5s113.667 34.5 183 34.5c109.333 0 194.5 -24.833 255.5 -74.5zM508 294.004c0 28 -7.83301 49.666 -23.5 64.999
s-36.834 23.333 -63.501 24c-27.333 -0.666992 -48.333 -8.66699 -63 -24s-22 -37.333 -22 -66v-108c0 -28.667 7.33301 -50.667 22 -66s35.334 -23.333 62.001 -24c26.667 0.666992 48 8.83398 64 24.501s24 37.167 24 64.5v110z" />
    <glyph glyph-name="A" unicode="A" horiz-adv-x="625" 
d="M587 8c0 -5.33301 -2.99902 -7.99902 -8.99902 -7.99902h-43c-6 0 -10 3 -12 9l-70 216h-282l-70 -216c-2 -6 -6.33301 -9 -13 -9h-41c-3.33301 0 -5.83301 1.16699 -7.5 3.5s-1.83398 5.16602 -0.500977 8.49902l230 710c2 6.66699 6.66699 10 14 10h58
c4 0 7 -0.666992 9 -2s3.66699 -4 5 -8l231 -710zM434.001 283.001l-55.999 175.999l-65 206h-2c-12.667 -43.333 -34.334 -112.666 -65.001 -207.999l-57 -174h245z" />
    <glyph glyph-name="B" unicode="B" horiz-adv-x="620" 
d="M479 684.5c32.667 -31.667 49 -75.167 49 -130.5v-19c0 -40.667 -9.83301 -74.667 -29.5 -102s-45.167 -45.333 -76.5 -54c35.333 -6 65 -24 89 -54s36 -67.667 36 -113v-25c0 -60 -18.333 -106.167 -55 -138.5s-86.334 -48.5 -149.001 -48.5h-226
c-8 -0 -12 3.33301 -12 10v712c0 6.66699 4 10 12 10h222c60.667 0 107.334 -15.833 140.001 -47.5zM167 675l0.000976562 -271h159c49.333 0 85.166 12 107.499 36s33.5 54.667 33.5 92v13c0 86.667 -46.667 130 -140 130h-160zM167.001 347v-290h163
c103.333 0 155 45 155 135v18c0 44 -12.833 77.833 -38.5 101.5s-64.5 35.5 -116.5 35.5h-163z" />
    <glyph glyph-name="C" unicode="C" horiz-adv-x="603" 
d="M542 584c0.666992 -1.33301 1.00098 -3.33203 1.00098 -5.99902c0 -4.66699 -2.66699 -8 -8 -10l-34 -13c-2 -0.666992 -4.33301 -1 -7 -1c-4 0 -7 2.66699 -9 8c-14.667 40.667 -34.834 71 -60.501 91s-59.834 30 -102.501 30c-53.333 0 -95.666 -15.333 -126.999 -46
s-47 -79.334 -47 -146.001v-250c0 -66 15.667 -114.5 47 -145.5s73.666 -46.5 126.999 -46.5c85.333 0 141.333 42.667 168 128c2.66699 8 8 10.333 16 7l34 -12c4 -1.33301 6.5 -3.33301 7.5 -6s0.833008 -6.33398 -0.5 -11.001
c-16.667 -53.333 -44.167 -94.166 -82.5 -122.499s-86.166 -42.5 -143.499 -42.5c-70 0 -126.667 20.833 -170 62.5s-65 101.5 -65 179.5v268c0 78 21.667 137.833 65 179.5s100 62.5 170 62.5c111.333 0 185 -52.667 221 -158z" />
    <glyph glyph-name="D" unicode="D" horiz-adv-x="663" 
d="M509.5 670.5c45.667 -41 68.5 -101.168 68.5 -180.501v-247c0 -79.333 -22.833 -139.666 -68.5 -180.999s-109.167 -62 -190.5 -62h-203c-7.33301 -0 -11 3.33301 -11 10v712c0 6.66699 4 10 12 10h202c81.333 0 144.833 -20.5 190.5 -61.5zM167 672.999v-613.998h147
c64.667 0 114.5 15.167 149.5 45.5s52.5 79.166 52.5 146.499v230c0 67.333 -17.5 116.166 -52.5 146.499s-84.833 45.5 -149.5 45.5h-147z" />
    <glyph glyph-name="E" unicode="E" horiz-adv-x="565" 
d="M488 720v-33.998c0 -4.66699 -0.666992 -7.83398 -2 -9.50098s-4 -2.5 -8 -2.5h-311v-273h283c6.66699 0 10 -4 10 -12v-33c0 -4.66699 -0.666992 -7.83398 -2 -9.50098s-4 -2.5 -8 -2.5h-283v-286h312c6.66699 0 10 -4 10 -12v-34c0 -8 -3.33301 -12 -10 -12h-362
c-8 -0 -12 3.33301 -12 10v712c0 6.66699 4 10 12 10h361c6.66699 0 10 -4 10 -12z" />
    <glyph glyph-name="F" unicode="F" horiz-adv-x="533" 
d="M480 720v-33.999c0 -4.66699 -0.666992 -7.83398 -2 -9.50098s-4 -2.5 -8 -2.5h-303v-288h274c6.66699 0 10 -4 10 -12v-33c0 -8 -3.33301 -12 -10 -12h-274v-319c0 -6.66699 -4 -10 -12 -10h-39c-7.33301 -0 -11 3.33301 -11 10v712c0 6.66699 4 10 12 10h353
c6.66699 0 10 -4 10 -12z" />
    <glyph glyph-name="G" unicode="G" horiz-adv-x="653" 
d="M566 585c0.666992 -1.33301 1 -3.33789 1 -6.00488c0 -5.33301 -2.33301 -8.66602 -7 -9.99902l-36 -13c-1.33301 -0.666992 -3.33301 -1 -6 -1c-4 0 -7 2.66699 -9 8c-14.667 40.667 -36 70.834 -64 90.501s-64.333 29.5 -109 29.5c-125.333 0 -188 -64 -188 -192v-250
c0 -66 16.5 -114.5 49.5 -145.5s79.167 -46.5 138.5 -46.5c54.667 0 98 13 130 39s48 65 48 117v113h-157c-6.66699 0 -10 4 -10 12v33c0 4.66699 0.666992 7.83398 2 9.50098s4 2.5 8 2.5h205c8.66699 0 13 -3.66699 13 -11v-160c0 -43.333 -10 -81.166 -30 -113.499
s-48.167 -57.166 -84.5 -74.499s-77.833 -26 -124.5 -26c-76.667 0 -137.5 20.667 -182.5 62s-67.5 101.333 -67.5 180v268c0 78.667 22.333 138.667 67 180s104.667 62 180 62c119.333 0 197 -52.333 233 -157z" />
    <glyph glyph-name="H" unicode="H" horiz-adv-x="690" 
d="M585 721v-711c0 -6.66699 -3.66699 -10 -11 -10h-39c-8 -0 -12 3.33301 -12 10v331h-356v-331c0 -6.66699 -4 -10 -12 -10h-39c-7.33301 -0 -11 3.33301 -11 10v711c0 7.33301 4 11 12 11h38c8 0 12 -3.66699 12 -11v-321h356v321c0 7.33301 4 11 12 11h39
c7.33301 0 11 -3.66699 11 -11z" />
    <glyph glyph-name="I" unicode="I" horiz-adv-x="272" 
d="M167 722v-712c0 -6.66699 -4 -10 -12 -10h-38c-8 -0 -12 3.33301 -12 10v712c0 6.66699 4 10 12 10h38c8 0 12 -3.33301 12 -10z" />
    <glyph glyph-name="J" unicode="J" horiz-adv-x="467" 
d="M366 722v-533.999c0 -64.667 -15.5 -113.834 -46.5 -147.501s-74.167 -50.5 -129.5 -50.5c-64.667 0 -117 24 -157 72c-4.66699 4.66699 -7 8.66699 -7 12c0 4 1.66699 7 5 9l22 23c4 4.66699 8 7 12 7s7.66699 -2.66699 11 -8c29.333 -37.333 67 -56 113 -56
c37.333 0 65.833 11.333 85.5 34s29.5 57 29.5 103v536c0 6.66699 4 10 12 10h39c7.33301 0 11 -3.33301 11 -10z" />
    <glyph glyph-name="K" unicode="K" horiz-adv-x="604" 
d="M564 8c0 -5.33301 -3.33398 -7.99902 -10.001 -7.99902h-43c-4.66699 0 -8.16699 0.666992 -10.5 2s-4.16602 3.66602 -5.49902 6.99902l-221 367l-107 -131v-235c0 -6.66699 -4 -10 -12 -10h-38c-8 -0 -12 3.33301 -12 10v712c0 6.66699 4 10 12 10h38
c8 0 12 -3.33301 12 -10v-390l321 393c2 2 4 3.66699 6 5s5 2 9 2h46c4 0 6.83301 -1.5 8.5 -4.5s1.16699 -5.83301 -1.5 -8.5l-242 -295l248 -409c1.33301 -4 2 -6.33301 2 -7z" />
    <glyph glyph-name="L" unicode="L" horiz-adv-x="514" 
d="M167 722v-663h309c7.33301 0 11 -3.66699 11 -11v-37c0 -7.33301 -3.66699 -11 -11 -11h-360c-7.33301 -0 -11 3.33301 -11 10v712c0 6.66699 4 10 12 10h38c8 0 12 -3.33301 12 -10z" />
    <glyph glyph-name="M" unicode="M" horiz-adv-x="822" 
d="M717 717l-0.00195312 -706c0 -7.33301 -3.33301 -11 -10 -11h-40c-5.33301 0 -8 3.66699 -8 11v500l1 155h-2l-212 -655c-3.33301 -7.33301 -9 -11 -17 -11h-36c-9.33301 0 -14.666 3.66699 -15.999 11l-214 658h-2c1.33301 -64 2 -116.667 2 -158v-501
c0 -6.66699 -3.66699 -10 -11 -10h-38c-2.66699 0 -4.83398 1 -6.50098 3s-2.5 4.33301 -2.5 7v707c0 10 5 15 15 15h68c8.66699 0 14.334 -4 17.001 -12l131 -402l18 -56l58 -188h2c20 72.667 44.667 154.667 74 246l132 399c2.66699 8.66699 8.33398 13 17.001 13h65
c10 0 15 -5 15 -15z" />
    <glyph glyph-name="N" unicode="N" horiz-adv-x="701" 
d="M596 722v-709.999c0 -8 -4.33301 -12 -13 -12h-60c-6 0 -11.333 3.66699 -16 11l-243 457l-56 110c-24 48.667 -38.667 77.667 -44 87h-1c2 -62.667 3 -124.334 3 -185.001v-469c0 -7.33301 -4 -11 -12 -11h-37c-8 0 -12 3.66699 -12 11v709c0 8 4.33301 12 13 12h65
c7.33301 0 13 -4 17 -12l241 -456l78 -155c2.66699 -4 9 -16.333 19 -37h2c-3.33301 68.667 -5 131 -5 187v463c0 6.66699 3.66699 10 11 10h38c8 0 12 -3.33301 12 -10z" />
    <glyph glyph-name="O" unicode="O" horiz-adv-x="671" 
d="M518 679c45.333 -42 68 -102.001 68 -180.001v-265c0 -78.667 -22.667 -139 -68 -181s-106.333 -63 -183 -63s-137.5 20.833 -182.5 62.5s-67.5 101.834 -67.5 180.501v265c0 79.333 22.5 139.833 67.5 181.5s105.833 62.5 182.5 62.5s137.667 -21 183 -63zM197 637.499
c-33.333 -30.333 -50 -77.5 -50 -141.5v-260c0 -64 16.667 -111.167 50 -141.5s79.333 -45.5 138 -45.5c59.333 0 105.666 15.167 138.999 45.5s50 77.5 50 141.5v260c0 64 -16.667 111.167 -50 141.5s-79.666 45.5 -138.999 45.5c-58.667 0 -104.667 -15.167 -138 -45.5z
" />
    <glyph glyph-name="P" unicode="P" horiz-adv-x="579" 
d="M520 523v-39.001c0 -68 -18 -120.667 -54 -158s-92.333 -56 -169 -56h-130v-260c0 -6.66699 -4 -10 -12 -10h-38c-8 0 -12 3.33301 -12 10v713c0 2.66699 0.833008 4.83398 2.5 6.50098s3.5 2.5 5.5 2.5h184c148.667 0 223 -69.667 223 -209zM167 673.999v-346h126
c59.333 0 101.666 13.333 126.999 40s38 66.667 38 120v31c0 52.667 -12.667 91.667 -38 117s-67.666 38 -126.999 38h-126z" />
    <glyph glyph-name="Q" unicode="Q" horiz-adv-x="671" 
d="M518 679c45.333 -42 68 -101.998 68 -179.998v-265c0 -66.667 -16.333 -120.334 -49 -161.001s-78 -66.334 -136 -77.001l117 -146c2 -2 3 -4 3 -6c0 -4 -2.33301 -7 -7 -9l-34 -15c-4 -1.33301 -6.66699 -2 -8 -2c-3.33301 0 -6 1.66699 -8 5l-131 167
c-76 0.666992 -136.333 21.667 -181 63s-67 101.333 -67 180v265c0 79.333 22.5 139.833 67.5 181.5s105.833 62.5 182.5 62.5s137.667 -21 183 -63zM524 496.002c0 64 -16.667 111.167 -50 141.5s-79.666 45.5 -138.999 45.5c-58.667 0 -104.667 -15.167 -138 -45.5
s-50 -77.5 -50 -141.5v-260c0 -64 16.667 -111.167 50 -141.5s79.333 -45.5 138 -45.5c59.333 0 105.666 15.167 138.999 45.5s50 77.5 50 141.5v260z" />
    <glyph glyph-name="R" unicode="R" horiz-adv-x="612" 
d="M554 8c0 -5.33301 -3.00098 -8 -9.00098 -8h-47c-3.33301 -0 -6.16602 0.833008 -8.49902 2.5s-4.5 3.83398 -6.5 6.50098l-174 299h-142v-298c0 -6.66699 -4 -10 -12 -10h-38c-8 0 -12 3.33301 -12 10v712c0 6.66699 4 10 12 10h200c75.333 0 131 -18 167 -54
s54 -85 54 -147v-18c0 -54.667 -13.667 -99.334 -41 -134.001s-68 -56.667 -122 -66l177 -300zM166.999 365h145c58 0 99.833 12.5 125.5 37.5s38.5 62.5 38.5 112.5v13c0 47.333 -12.833 83.5 -38.5 108.5s-67.5 37.5 -125.5 37.5h-145v-309z" />
    <glyph glyph-name="S" unicode="S" horiz-adv-x="585" 
d="M430.5 704.5c36.333 -25 63.498 -61.834 81.498 -110.501l1 -4c0 -4.66699 -2.66699 -8 -8 -10l-36 -13c-1.33301 -0.666992 -3.33301 -1 -6 -1c-3.33301 0 -6 2.33301 -8 7c-14.667 38 -34.834 66.167 -60.501 84.5s-58.167 27.5 -97.5 27.5
c-47.333 0 -84.833 -11.333 -112.5 -34s-41.5 -53.334 -41.5 -92.001c0 -23.333 5.16699 -43.333 15.5 -60s27.833 -32.5 52.5 -47.5s59.667 -31.833 105 -50.5c49.333 -20 88.333 -40.167 117 -60.5s49.334 -42.833 62.001 -67.5s19 -54 19 -88
c0 -38.667 -9.16699 -72.667 -27.5 -102s-44.166 -52.166 -77.499 -68.499s-72 -24.5 -116 -24.5c-60 0 -109.5 13.833 -148.5 41.5s-66.167 67.5 -81.5 119.5l-1 5c0 5.33301 3 9 9 11l34 10c2 0.666992 4.33301 1 7 1c4 0 7 -3 9 -9c10 -39.333 30 -69.5 60 -90.5
s67.333 -31.5 112 -31.5c48.667 0 87.334 11.833 116.001 35.5s43 55.834 43 96.501c0 26 -5 48 -15 66s-26.833 34.833 -50.5 50.5s-57.834 32.5 -102.501 50.5c-73.333 30 -125.5 61.167 -156.5 93.5s-46.5 71.833 -46.5 118.5c0 36 8.83301 68 26.5 96
s42.834 49.667 75.501 65s70.667 23 114 23c52.667 0 97.167 -12.5 133.5 -37.5z" />
    <glyph glyph-name="T" unicode="T" horiz-adv-x="557" 
d="M527 720v-35c0 -8 -3.33301 -12 -10 -12h-209v-663c0 -6.66699 -3.66699 -10 -11 -10h-39c-8 -0 -12 3.33301 -12 10v663h-206c-6.66699 0 -10 4 -10 12v35c0 8 3.33301 12 10 12h477c6.66699 0 10 -4 10 -12z" />
    <glyph glyph-name="U" unicode="U" horiz-adv-x="680" 
d="M580 721l0.000976562 -493c0 -76.667 -21.833 -135.5 -65.5 -176.5s-101.834 -61.5 -174.501 -61.5s-130.834 20.333 -174.501 61s-65.5 100 -65.5 178v492c0 4 0.833008 6.83301 2.5 8.5s4.83398 2.5 9.50098 2.5h38c8 0 12 -3.66699 12 -11v-488
c0 -62.667 16 -109 48 -139s75.333 -45 130 -45s98 15 130 45s48 76.333 48 139v488c0 7.33301 4 11 12 11h38c8 0 12 -3.66699 12 -11z" />
    <glyph glyph-name="V" unicode="V" horiz-adv-x="616" 
d="M265 10l-225.003 709.999l-1 3c0 2.66699 0.833008 4.83398 2.5 6.50098s3.83398 2.5 6.50098 2.5h43c6 0 10.333 -3 13 -9l141 -450l63 -206h2c10 37.333 24.333 85.333 43 144c11.333 35.333 18 56.666 20 63.999l141 448c2.66699 6 7.33398 9 14.001 9h39
c3.33301 0 5.83301 -1.16699 7.5 -3.5s1.83398 -5.16602 0.500977 -8.49902l-225 -710c-2 -6.66699 -6.33301 -10 -13 -10h-58c-7.33301 -0 -12 3.33301 -14 10z" />
    <glyph glyph-name="W" unicode="W" horiz-adv-x="883" 
d="M829 728.5c1.33301 -2.33301 1.66797 -5.16699 1.00098 -8.5l-148 -709c-1.33301 -4 -3 -6.83301 -5 -8.5s-5.33301 -2.5 -10 -2.5h-54c-7.33301 0 -12 3.66699 -14 11l-115 469l-35 149l-6 25h-2l-40 -173l-116 -470c-2 -7.33301 -6.66699 -11 -14 -11h-54
c-4.66699 -0 -8 0.833008 -10 2.5s-3.66699 4.5 -5 8.5l-149 709v3c0 6 3 9 9 9h42c6 0 10 -3 12 -9l96 -475l34 -179h3l40 180l114 472c2 7.33301 6.66699 11 14 11h51c7.33301 0 12 -3.66699 14 -11l115 -475l40 -177h3l34 177l95 477c0.666992 6 5 9 13 9h40
c3.33301 0 5.66602 -1.16699 6.99902 -3.5z" />
    <glyph glyph-name="X" unicode="X" horiz-adv-x="604" 
d="M559 8c0 -5.33301 -3.33301 -7.99902 -10 -7.99902h-46c-4 0 -7 0.666992 -9 2s-4 4 -6 8l-186 306l-188 -306c-2 -4 -3.83301 -6.66699 -5.5 -8s-4.5 -2 -8.5 -2h-45c-4.66699 0 -7.83398 1.5 -9.50098 4.5s-1.16699 6.5 1.5 10.5l218 354l-214 348
c-1.33301 2.66699 -2 5 -2 7c0 5.33301 3.33301 8 10 8h46c4 0 6.83301 -0.666992 8.5 -2s3 -2.83301 4 -4.5s1.83301 -2.83398 2.5 -3.50098l183 -298l183 298c2 4 4 6.66699 6 8s5 2 9 2h44c4.66699 0 7.83398 -1.5 9.50098 -4.5s1.16699 -6.5 -1.5 -10.5l-214 -347
l218 -355c1.33301 -2.66699 2 -5 2 -7z" />
    <glyph glyph-name="Y" unicode="Y" horiz-adv-x="594" 
d="M557 727c1.33301 -3.33301 1 -6.66699 -1 -10l-228 -408v-298c0 -7.33301 -3.66699 -11 -11 -11h-40c-7.33301 0 -11 3.66699 -11 11v296l-229 410c-1.33301 1.33301 -2 3.33301 -2 6c0 6 3 9 9 9h47c6 0 10.667 -3.33301 14 -10l193 -352l191 352
c2.66699 3.33301 5 5.83301 7 7.5s4.66699 2.5 8 2.5h44c4.66699 0 7.66699 -1.66699 9 -5z" />
    <glyph glyph-name="Z" unicode="Z" horiz-adv-x="570" 
d="M507 721l4 -26.001c0.666992 -1.33301 1 -3.66602 1 -6.99902c0 -4.66699 -1.66699 -9.66699 -5 -15l-379 -614h375c6.66699 0 10 -4 10 -12v-35c0 -8 -3.33301 -12 -10 -12h-431c-7.33301 0 -12 3.66699 -14 11l-4 26c-0.666992 2 -1 4.33301 -1 7
c0 4.66699 1.66699 9.66699 5 15l379 614h-366c-6.66699 0 -10 4 -10 12v35c0 8 3.33301 12 10 12h422c7.33301 0 12 -3.66699 14 -11z" />
    <glyph glyph-name="bracketleft" unicode="[" horiz-adv-x="339" 
d="M297 745v-33.999c0 -8 -3.33301 -12 -10 -12h-132v-842h132c4 0 6.66699 -0.833008 8 -2.5s2 -4.83398 2 -9.50098v-33c0 -8 -3.33301 -12 -10 -12h-182c-8 0 -12 4 -12 12v933c0 8 4 12 12 12h182c6.66699 0 10 -4 10 -12z" />
    <glyph glyph-name="backslash" unicode="\" horiz-adv-x="397" 
d="M355 -188l1 -4c0 -5.33301 -3 -8 -9 -8h-36c-6 0 -10 3.33301 -12 10l-257 910l-1 4c0 5.33301 3 8 9 8h36c6 0 10 -3.33301 12 -10z" />
    <glyph glyph-name="bracketright" unicode="]" horiz-adv-x="339" 
d="M233 757c8 0 12 -4.00098 12 -12.001v-933c0 -8 -4 -12 -12 -12h-181c-7.33301 0 -11 4 -11 12v33c0 4.66699 0.833008 7.83398 2.5 9.50098s4.5 2.5 8.5 2.5h132v842h-132c-7.33301 0 -11 4 -11 12v34c0 8 3.66699 12 11 12h181z" />
    <glyph glyph-name="asciicircum" unicode="^" 
d="M538 324c0 -6.66699 -3.33105 -10 -9.99805 -10h-41c-4.66699 0 -8 1.66699 -10 5l-183 355l-183 -355c-2 -3.33301 -5.33301 -5 -10 -5h-41c-4 0 -6.83301 1.5 -8.5 4.5s-1.83398 6.16699 -0.500977 9.5l207 394c1.33301 4 3.16602 6.66699 5.49902 8s5.5 2 9.5 2h41
c8 0 13.333 -3.33301 16 -10l207 -394c0.666992 -0.666992 1 -2 1 -4z" />
    <glyph glyph-name="underscore" unicode="_" horiz-adv-x="414" 
d="M411.5 -29.5c1.66699 -1.66699 2.49805 -4.5 2.49805 -8.5v-38c0 -6.66699 -4 -10 -12 -10h-391c-7.33301 0 -11 3.33301 -11 10v38c0 4 0.833008 6.83301 2.5 8.5s4.83398 2.5 9.50098 2.5h390c4.66699 0 7.83398 -0.833008 9.50098 -2.5z" />
    <glyph glyph-name="grave" unicode="`" horiz-adv-x="574" 
d="M204 757c-3.33301 0 -5.66699 -1.33301 -7 -4s-1 -5 1 -7l99 -125c2.66699 -3.33301 5 -5.5 7 -6.5s5 -1.5 9 -1.5h30c3.33301 0 5.83301 1.33301 7.5 4s1.16699 5.66699 -1.5 9l-89 123c-4 5.33301 -8.33301 8 -13 8h-43z" />
    <glyph glyph-name="a" unicode="a" horiz-adv-x="546" 
d="M406.5 515.5c33.667 -27 50.5 -67.1689 50.5 -120.502v-385c0 -6.66699 -4 -10 -12 -10h-34c-8 0 -12 3.33301 -12 10v78c-18 -30.667 -41.833 -54.667 -71.5 -72s-62.167 -26 -97.5 -26c-52 0 -93.167 14.667 -123.5 44s-45.5 67 -45.5 113c0 97.333 63.667 152 191 164
c26 2 50 3 72 3c25.333 0 50 -1 74 -3v77c0 39.333 -11.167 68.5 -33.5 87.5s-53.5 28.5 -93.5 28.5c-37.333 0 -66 -6.66699 -86 -20s-34.333 -34.666 -43 -63.999c-2.66699 -6.66699 -8 -9 -16 -7l-32 9c-8.66699 2 -12 6.66699 -10 14c10 38.667 30.667 68.334 62 89.001
s73.333 31 126 31c56 0 100.833 -13.5 134.5 -40.5zM333 72.998c27.333 20 49 47.667 65 83v108c-32 1.33301 -56 2 -72 2c-21.333 0 -44 -1 -68 -3c-44.667 -4.66699 -79 -16 -103 -34s-36 -44.333 -36 -79c0 -32 10.333 -57.833 31 -77.5s49.667 -29.5 87 -29.5
c36.667 0 68.667 10 96 30z" />
    <glyph glyph-name="b" unicode="b" horiz-adv-x="585" 
d="M152 748v-280.999c14 26 35.167 47.5 63.5 64.5s62.166 25.5 101.499 25.5c58 0 104.333 -18.667 139 -56s52 -87 52 -149v-158c0 -62.667 -17.167 -112.334 -51.5 -149.001s-81.166 -55 -140.499 -55c-39.333 0 -73.333 8.5 -102 25.5s-49.667 38.167 -63 63.5v-70
c0 -6 -3.66699 -9 -11 -9h-37c-3.33301 0 -5.83301 0.5 -7.5 1.5s-2.5 3.5 -2.5 7.5v739c0 6 3 9 9 9h40c6.66699 0 10 -3 10 -9zM229 484.001c-23.333 -12 -41.999 -29.835 -55.999 -53.502s-21 -52.167 -21 -85.5v-144c0 -33.333 7 -61.666 21 -84.999s32.667 -41 56 -53
s48.666 -18 75.999 -18c44 0 79 13.167 105 39.5s39 64.833 39 115.5v146c0 50.667 -12.833 89.334 -38.5 116.001s-60.834 40 -105.501 40c-27.333 0 -52.666 -6 -75.999 -18z" />
    <glyph glyph-name="c" unicode="c" horiz-adv-x="523" 
d="M397 522.5c31.333 -23 53.333 -54.833 66 -95.5c0.666992 -1.33301 1 -3 1 -5c0 -4 -3 -7.33301 -9 -10l-32 -10l-6 -2c-2.66699 0 -5.66699 3 -9 9c-8.66699 28.667 -23.167 51.334 -43.5 68.001s-48.833 25 -85.5 25c-45.333 0 -80.5 -13.167 -105.5 -39.5
s-37.5 -64.5 -37.5 -114.5v-150c0 -50 12.5 -87.833 37.5 -113.5s60.167 -38.834 105.5 -39.501c36.667 0 65.167 7.83301 85.5 23.5s35.833 39.167 46.5 70.5c1.33301 3.33301 3.16602 5.5 5.49902 6.5s5.83301 0.833008 10.5 -0.5l30 -11c4 -2 6.5 -4.16699 7.5 -6.5
s0.833008 -5.5 -0.5 -9.5c-12.667 -40 -34.667 -71.333 -66 -94s-71.666 -34 -120.999 -34c-62.667 0 -111.834 18.5 -147.501 55.5s-53.5 86.833 -53.5 149.5v156c0 62.667 17.833 112.667 53.5 150s84.834 56 147.501 56c48.667 0 88.667 -11.5 120 -34.5z" />
    <glyph glyph-name="d" unicode="d" horiz-adv-x="585" 
d="M128.5 45c-34.333 36.667 -51.5 86.333 -51.5 149v158c0 62 17.333 111.667 52 149s81 56 139 56c39.333 0 73.166 -8.5 101.499 -25.5s49.5 -38.5 63.5 -64.5v281c0 6 3.33301 9 10 9h40c6 0 9 -3 9 -9v-739c0 -4 -0.833008 -6.5 -2.5 -7.5s-4.16699 -1.5 -7.5 -1.5h-37
c-7.33301 0 -11 3 -11 9v70c-13.333 -25.333 -34.333 -46.5 -63 -63.5s-62.667 -25.5 -102 -25.5c-59.333 0 -106.166 18.333 -140.499 55zM356 62.999c23.333 12 42.001 29.6689 56.001 53.002s21 51.666 21 84.999v144c0 33.333 -7 61.833 -21 85.5s-32.667 41.5 -56 53.5
s-48.666 18 -75.999 18c-44.667 0 -79.834 -13.333 -105.501 -40s-38.5 -65.334 -38.5 -116.001v-146c0 -50.667 13 -89.167 39 -115.5s61 -39.5 105 -39.5c27.333 0 52.666 6 75.999 18z" />
    <glyph glyph-name="e" unicode="e" horiz-adv-x="555" 
d="M134 253l0.00195312 -56.9971c0 -50 13.167 -87.833 39.5 -113.5s63.833 -38.834 112.5 -39.501c40 0 70.667 6.83301 92 20.5s37.666 33.5 48.999 59.5c2.66699 5.33301 6.33398 8 11.001 8c3.33301 0 6 -0.666992 8 -2l25 -13c8.66699 -4 10.667 -9.66699 6 -17
c-14.667 -34 -37.834 -60.667 -69.501 -80s-72.167 -29 -121.5 -29c-66.667 0 -118.334 18.5 -155.001 55.5s-55 86.833 -55 149.5v156c0 62.667 18 112.5 54 149.5s86.333 55.833 151 56.5c64 -0.666992 113.833 -19.334 149.5 -56.001s53.5 -86.334 53.5 -149.001v-77
c0 -14.667 -8.33301 -22 -25 -22h-325zM173.002 464.003c-26 -26 -39 -63.667 -39 -113v-52h292v52c0 49.333 -12.833 87 -38.5 113s-61.5 39.333 -107.5 40c-45.333 -0.666992 -81 -14 -107 -40z" />
    <glyph glyph-name="f" unicode="f" horiz-adv-x="351" 
d="M319 745v-30c0 -6.66699 -3.66699 -10 -11 -10h-33c-30 0 -52.167 -7 -66.5 -21s-21.5 -36.333 -21.5 -67v-73h124c5.33301 0 8 -3.33301 8 -10v-31c0 -6.66699 -3 -10 -9 -10h-123v-484c0 -6 -3.33301 -9 -10 -9h-38c-8 0 -12 3 -12 9v484h-80c-6 0 -9 3.33301 -9 10v31
c0 6.66699 3 10 9 10h80v71c0 46.667 12.333 82 37 106s59.667 36 105 36h38c8 0 12 -4 12 -12z" />
    <glyph glyph-name="g" unicode="g" horiz-adv-x="552" 
d="M468.5 48.5c29 -26.333 43.502 -59.8311 43.502 -100.498c0 -46.667 -19 -84.667 -57 -114s-96.667 -44 -176 -44c-76 0 -132.167 13.5 -168.5 40.5s-54.5 63.167 -54.5 108.5c0 26.667 6.5 50.667 19.5 72s32.833 38 59.5 50c-12 8 -21.167 18.167 -27.5 30.5
s-9.5 24.5 -9.5 36.5c0 16 5.16699 30.667 15.5 44s24.166 23.333 41.499 30c-26.667 15.333 -47.167 36.666 -61.5 63.999s-21.5 59 -21.5 95c0 57.333 17 102.666 51 135.999s82 50 144 50h234c6 0 9 -4 9 -12v-29c0 -7.33301 -3.33301 -11 -10 -11h-105
c19.333 -13.333 35 -32 47 -56s18 -52.333 18 -85c0 -54.667 -16.833 -98 -50.5 -130s-80.834 -48 -141.501 -48h-7v0h-49c-20 0 -35 -4.16699 -45 -12.5s-15 -18.833 -15 -31.5s5 -23 15 -31s25 -12 45 -12l123 -1c60 0 104.5 -13.167 133.5 -39.5zM165.002 461.002
c-24 -23.333 -36.001 -56.332 -36.001 -98.999c0 -43.333 12 -77 36 -101s58.667 -36 104 -36c42.667 0 76 11.167 100 33.5s36 55.5 36 99.5c0 43.333 -11.667 77.166 -35 101.499s-57.666 36.5 -102.999 36.5c-44 0 -78 -11.667 -102 -35zM410.501 -132.497
c29 19 43.5 45.5 43.5 79.5c0 26 -9.33301 47.333 -28 64s-50.334 25 -95.001 25h-102c-42 0 -72 -8.5 -90 -25.5s-27 -38.833 -27 -65.5c0 -34 13.833 -60.167 41.5 -78.5s69.834 -27.5 126.501 -27.5c58 0 101.5 9.5 130.5 28.5z" />
    <glyph glyph-name="h" unicode="h" horiz-adv-x="575" 
d="M152 747v-288.001c19.333 29.333 43.833 53 73.5 71s63.167 27 100.5 27c50.667 0 89.834 -16 117.501 -48s41.5 -74.333 41.5 -127v-372c0 -6.66699 -4 -10 -12 -10h-35c-8 0 -12 3.33301 -12 10v362c0 86 -38.667 129 -116 129c-32.667 0 -63.334 -10.667 -92.001 -32
s-50.667 -49.666 -66 -84.999v-374c0 -6.66699 -4 -10 -12 -10h-36c-7.33301 -0 -11 3.33301 -11 10v737c0 6.66699 3.66699 10 11 10h36c8 0 12 -3.33301 12 -10z" />
    <glyph glyph-name="i" unicode="i" horiz-adv-x="245" 
d="M152 745v-97c0 -7.33301 -4.33301 -11 -13 -11h-34c-8 0 -12 3.66699 -12 11v97c0 8 4 12 12 12h34c8.66699 0 13 -4 13 -12zM152 537v-527c0 -6.66699 -4 -10 -12 -10h-36c-7.33301 -0 -11 3.33301 -11 10v527c0 6.66699 3.66699 10 11 10h36c8 0 12 -3.33301 12 -10z
" />
    <glyph glyph-name="j" unicode="j" horiz-adv-x="245" 
d="M152 745v-97c0 -7.33301 -4.33301 -11 -13 -11h-33c-8.66699 0 -13 3.66699 -13 11v97c0 8 4.33301 12 13 12h33c8.66699 0 13 -4 13 -12zM152 537l0.00195312 -501.997c0 -58.667 -8.83301 -106 -26.5 -142s-44.834 -69.667 -81.501 -101c-4 -2.66699 -6.66699 -4 -8 -4
c-2.66699 0 -6 2 -10 6l-24 22c-2.66699 2 -4 4.33301 -4 7c0 3.33301 1.66699 6.66602 5 9.99902c21.333 19.333 38.166 37.166 50.499 53.499s22 36.166 29 59.499s10.5 52.333 10.5 87v504c0 6.66699 4 10 12 10h36c7.33301 0 11 -3.33301 11 -10z" />
    <glyph glyph-name="k" unicode="k" horiz-adv-x="515" 
d="M482 9c0 -2.66699 -0.832031 -4.83301 -2.49902 -6.5s-3.83398 -2.5 -6.50098 -2.5h-41c-5.33301 0 -9 0.666992 -11 2s-4 4 -6 8l-165 273l-98 -111v-162c0 -6.66699 -4 -10 -12 -10h-36c-7.33301 -0 -11 3.33301 -11 10v737c0 6.66699 3.66699 10 11 10h36
c8 0 12 -3.33301 12 -10v-495l247 285c6 6.66699 12.667 10 20 10h42c6 0 9 -2.66699 9 -8c0 -2.66699 -1 -5 -3 -7l-178 -204l191 -313c1.33301 -2.66699 2 -4.66699 2 -6z" />
    <glyph glyph-name="l" unicode="l" horiz-adv-x="245" 
d="M152 748v-738c0 -6.66699 -4 -10 -12 -10h-36c-7.33301 -0 -11 3.33301 -11 10v738c0 6.66699 3.66699 10 11 10h36c8 0 12 -3.33301 12 -10z" />
    <glyph glyph-name="m" unicode="m" horiz-adv-x="830" 
d="M215.5 529c27 18.667 56.834 28 89.501 28c36 0 65 -9.5 87 -28.5s37.333 -42.5 46 -70.5c18.667 30.667 42 54.834 70 72.501s57.667 26.5 89 26.5c43.333 0 78 -14 104 -42s39 -65.667 39 -113v-392c0 -6.66699 -4 -10 -12 -10h-35c-8 0 -12 3.33301 -12 10v375
c0 38 -8.16699 66.833 -24.5 86.5s-39.833 29.5 -70.5 29.5c-27.333 0 -53.333 -9.16699 -78 -27.5s-45.334 -44.833 -62.001 -79.5v-384c0 -6.66699 -3.66699 -10 -11 -10h-37c-7.33301 0 -11 3.33301 -11 10v375c0 38 -8 66.833 -24 86.5s-39.667 29.5 -71 29.5
c-29.333 0 -56.5 -10.833 -81.5 -32.5s-44.5 -48.834 -58.5 -81.501v-377c0 -6.66699 -4 -10 -12 -10h-36c-7.33301 -0 -11 3.33301 -11 10v527c0 6.66699 3.66699 10 11 10h35c8 0 12 -3.33301 12 -10v-77c16 27.333 37.5 50.333 64.5 69z" />
    <glyph glyph-name="n" unicode="n" horiz-adv-x="575" 
d="M218 469.5c-28.667 -21 -50.667 -48.832 -66 -83.499v-376c0 -6.66699 -4 -10 -12 -10h-36c-7.33301 0 -11 3.33301 -11 10v527c0 6.66699 3.66699 10 11 10h35c8 0 12 -3.33301 12 -10v-77c19.333 29.333 44 52.833 74 70.5s63.667 26.5 101 26.5
c50.667 0 89.834 -15.833 117.501 -47.5s41.5 -73.834 41.5 -126.501v-373c0 -6.66699 -4 -10 -12 -10h-35c-8 -0 -12 3.33301 -12 10v363c0 85.333 -38.667 128 -116 128c-32.667 0 -63.334 -10.5 -92.001 -31.5z" />
    <glyph glyph-name="o" unicode="o" horiz-adv-x="574" 
d="M443 501.5c36.667 -37 55 -87.166 55 -150.499v-155c0 -63.333 -18.333 -113.5 -55 -150.5s-88.667 -55.5 -156 -55.5s-119.333 18.333 -156 55s-55 86.667 -55 150v155c0 63.333 18.333 113.666 55 150.999s88.667 56 156 56s119.333 -18.5 156 -55.5zM175.5 462.501
c-26.333 -26.333 -39.5 -64.5 -39.5 -114.5v-150c0 -50 13.167 -88 39.5 -114s63.5 -39 111.5 -39s85.167 13 111.5 39s39.5 64 39.5 114v150c0 50 -13.167 88.167 -39.5 114.5s-63.5 39.5 -111.5 39.5s-85.167 -13.167 -111.5 -39.5z" />
    <glyph glyph-name="p" unicode="p" horiz-adv-x="585" 
d="M102 -200c-6 0 -9 3 -9 9v729c0 4 0.833008 6.5 2.5 7.5s4.16699 1.5 7.5 1.5h37c7.33301 0 11 -3 11 -9v-69c14 24.667 35.333 45.5 64 62.5s62.334 25.5 101.001 25.5c59.333 -0.666992 106.166 -19.167 140.499 -55.5s51.5 -85.833 51.5 -148.5v-159
c0 -62 -17.167 -111.5 -51.5 -148.5s-80.833 -55.5 -139.5 -55.5c-39.333 0 -73.333 8.5 -102 25.5s-49.667 38.167 -63 63.5v-270c0 -6 -3.33301 -9 -10 -9h-40zM410.5 85.5c25.667 26.333 38.5 64.501 38.5 114.501v147c0 50.667 -12.833 89 -38.5 115
s-60.834 39.333 -105.501 40c-27.333 0 -52.666 -6 -75.999 -18s-42 -29.667 -56 -53s-21 -51.333 -21 -84v-146c0 -32.667 7 -60.834 21 -84.501s32.667 -41.5 56 -53.5s48.666 -18 75.999 -18c44.667 0.666992 79.834 14.167 105.501 40.5z" />
    <glyph glyph-name="q" unicode="q" horiz-adv-x="585" 
d="M433 -191v270c-13.333 -25.333 -34.333 -46.5 -63 -63.5s-62.667 -25.5 -102 -25.5c-58.667 0 -105.167 18.5 -139.5 55.5s-51.5 86.5 -51.5 148.5v159c0 62.667 17.167 112.167 51.5 148.5s81.166 54.833 140.499 55.5c38.667 0 72.334 -8.5 101.001 -25.5
s50 -37.833 64 -62.5v69c0 6 3.66699 9 11 9h37c3.33301 0 5.83301 -0.5 7.5 -1.5s2.5 -3.5 2.5 -7.5v-729c0 -6 -3 -9 -9 -9h-40c-6.66699 0 -10 3 -10 9zM356 63c23.333 12 42 29.832 56 53.499s21 51.834 21 84.501v146c0 32.667 -7 60.667 -21 84s-32.667 41 -56 53
s-48.666 18 -75.999 18c-44.667 -0.666992 -79.834 -14 -105.501 -40s-38.5 -64.333 -38.5 -115v-147c0 -50 12.833 -88.167 38.5 -114.5s60.834 -39.833 105.501 -40.5c27.333 0 52.666 6 75.999 18z" />
    <glyph glyph-name="r" unicode="r" horiz-adv-x="364" 
d="M332.5 552c1.66699 -1.33301 2.49902 -4.33203 2.49902 -8.99902v-37c0 -7.33301 -4 -11 -12 -11h-9c-38.667 0 -71.667 -10.5 -99 -31.5s-48.333 -49.167 -63 -84.5v-370c0 -6 -3.66699 -9 -11 -9h-37c-7.33301 0 -11 3 -11 9v529c0 6 3.33301 9 10 9h37
c7.33301 0 11 -3.33301 11 -10l-1 -88c16.667 31.333 39.667 56.666 69 75.999s64 29 104 29c4.66699 0 7.83398 -0.666992 9.50098 -2z" />
    <glyph glyph-name="s" unicode="s" horiz-adv-x="507" 
d="M374 524.5c32.667 -21 53.9941 -50.1719 63.9941 -87.5049l1 -5c0 -5.33301 -3.33301 -9 -10 -11l-28 -9l-6 -1c-4.66699 0 -8 2.66699 -10 8c-9.33301 28.667 -24.666 50 -45.999 64s-49.666 21 -84.999 21c-38 0 -68 -8.16699 -90 -24.5s-33 -38.166 -33 -65.499
c0 -24.667 9.83301 -44.667 29.5 -60s56.167 -31 109.5 -47c64 -19.333 108.833 -41.166 134.5 -65.499s38.5 -57.166 38.5 -98.499c0 -29.333 -7.83301 -55.666 -23.5 -78.999s-37.667 -41.666 -66 -54.999s-60.5 -20 -96.5 -20c-50.667 0 -93.667 11.167 -129 33.5
s-58.666 52.833 -69.999 91.5c-0.666992 1.33301 -1 3.33301 -1 6c0 5.33301 2.66699 9 8 11l28 11c1.33301 0.666992 3.33301 1 6 1c5.33301 0 9 -3.33301 11 -10c6.66699 -28 23.5 -50.167 50.5 -66.5s58.833 -24.5 95.5 -24.5c38 0 69 9.16699 93 27.5s36 41.833 36 70.5
c0 19.333 -4.16699 35.333 -12.5 48s-22.666 24.167 -42.999 34.5s-50.166 21.5 -89.499 33.5c-59.333 18 -102 39 -128 63s-39 55.333 -39 94c0 42 16.833 76.333 50.5 103s76.834 40 129.501 40c48 0 88.333 -10.5 121 -31.5z" />
    <glyph glyph-name="t" unicode="t" horiz-adv-x="358" 
d="M182.5 689.5c1.66699 -1.66699 2.49902 -4.5 2.49902 -8.5v-137h124c4 0 6.83301 -0.833008 8.5 -2.5s2.5 -4.83398 2.5 -9.50098v-27c0 -4.66699 -0.833008 -7.83398 -2.5 -9.50098s-4.5 -2.5 -8.5 -2.5h-124v-355c0 -55.333 28.667 -83 86 -83h37
c8 0 12 -3.66699 12 -11v-32c0 -8 -4 -12 -12 -12h-44c-42.667 0 -76.334 11.333 -101.001 34s-37 54.667 -37 96v363h-79c-4 0 -6.66699 0.833008 -8 2.5s-2 4.83398 -2 9.50098v27c0 4.66699 0.666992 7.83398 2 9.50098s4 2.5 8 2.5h80v137c0 4 0.833008 6.83301 2.5 8.5
s4.83398 2.5 9.50098 2.5h34c4.66699 0 7.83398 -0.833008 9.50098 -2.5z" />
    <glyph glyph-name="u" unicode="u" horiz-adv-x="575" 
d="M130.5 37.5c-27.667 31.667 -41.5 73.5 -41.5 125.5v374c0 6.66699 4 10 12 10h36c8 0 12 -3.33301 12 -10v-363c0 -85.333 38.333 -128 115 -128c33.333 0 64.333 10.5 93 31.5s50.667 48.833 66 83.5v376c0 6.66699 3.66699 10 11 10h36c8 0 12 -3.33301 12 -10v-527
c0 -6.66699 -4 -10 -12 -10h-35c-8 -0 -12 3.33301 -12 10v77c-19.333 -29.333 -43.833 -52.833 -73.5 -70.5s-63.167 -26.5 -100.5 -26.5c-51.333 0 -90.833 15.833 -118.5 47.5z" />
    <glyph glyph-name="v" unicode="v" horiz-adv-x="522" 
d="M479.5 543.5c1.66699 -2.33301 2.16406 -5.5 1.49707 -9.5l-181 -524c-2.66699 -6.66699 -8 -10 -16 -10h-46c-4.66699 0 -8.16699 0.666992 -10.5 2s-4.16602 4 -5.49902 8l-181 524v3c0 6.66699 3.33301 10 10 10h38c8 0 13.333 -3.66699 16 -11l100 -295
c20.667 -63.333 39.334 -123.333 56.001 -180h2c4.66699 14 8.83398 27.167 12.501 39.5l10.5 34.5l34 106l100 295c2.66699 7.33301 8 11 16 11h35c4 0 6.83301 -1.16699 8.5 -3.5z" />
    <glyph glyph-name="w" unicode="w" horiz-adv-x="742" 
d="M692.5 543.5c1.66699 -2.33301 1.83105 -5.16797 0.498047 -8.50098l-128 -525c-1.33301 -6.66699 -6.66602 -10 -15.999 -10h-44c-8.66699 0 -14 3.33301 -16 10l-67 256c-22.667 88 -39 153.667 -49 197h-1l-32 -125l-19 -72l-69 -256
c-1.33301 -4 -3.16602 -6.66699 -5.49902 -8s-5.5 -2 -9.5 -2h-46c-8.66699 0 -14 3.33301 -16 10l-126 525l-1 4c0 5.33301 3.66699 8 11 8h36c8.66699 0 14 -3.66699 16 -11l64 -282c14 -60.667 27.667 -124.334 41 -191.001h1l48 191l76 282c2 7.33301 6 11 12 11h41
c6.66699 0 11 -3.66699 13 -11l74 -283c11.333 -43.333 24 -95.666 38 -156.999l8 -33h2c13.333 66.667 27 130.334 41 191.001l64 282c2 7.33301 7 11 15 11h35c4 0 6.83301 -1.16699 8.5 -3.5z" />
    <glyph glyph-name="x" unicode="x" horiz-adv-x="506" 
d="M461 8c0 -5.33301 -3.00098 -8 -9.00098 -8h-43c-4 0 -7 0.666992 -9 2s-4.33301 3.66602 -7 6.99902l-140 217l-142 -218c-3.33301 -5.33301 -8.66602 -8 -15.999 -8h-40c-4 0 -6.66699 1.33301 -8 4s-1 5.66699 1 9l172 261l-173 259c-0.666992 1.33301 -1 3 -1 5
c0 6 3 9 9 9h43c4 0 7 -0.666992 9 -2s4.33301 -3.66602 7 -6.99902l140 -216l140 217c4.66699 5.33301 10 8 16 8h41c3.33301 0 5.83301 -1.5 7.5 -4.5s1.5 -6.16699 -0.5 -9.5l-171 -259l172 -261z" />
    <glyph glyph-name="y" unicode="y" horiz-adv-x="522" 
d="M481.5 543.5c2.33301 -2.33301 2.5 -5.50098 0.5 -9.50098l-203 -557c-32 -88.667 -77.333 -150.334 -136 -185.001c-3.33301 -2.66699 -7.33301 -4 -12 -4c-3.33301 0 -6 1.66699 -8 5l-20 26c-2 2.66699 -3 5.33398 -3 8.00098c0 4 1.66699 7 5 9
c32 18 57.333 40.167 76 66.5s36 64.833 52 115.5l-194 516c-0.666992 0.666992 -1 2 -1 4c0 6 3.66699 9 11 9h39c7.33301 0 12.333 -3.66699 15 -11l104 -285c10 -28 15.667 -44.333 17 -49c14.667 -41.333 27.667 -79.666 39 -114.999h1c16.667 52 29.667 90.333 39 115
c1.33301 4.66699 7 21 17 49l100 285c2.66699 7.33301 8 11 16 11h36c4 0 7.16699 -1.16699 9.5 -3.5z" />
    <glyph glyph-name="z" unicode="z" horiz-adv-x="486" 
d="M425 537l4 -24c0.666992 -1.33301 1 -3.33301 1 -6c0 -5.33301 -1.66699 -10.333 -5 -15l-301 -438h297c4 0 6.5 -0.833008 7.5 -2.5s1.5 -4.16699 1.5 -7.5v-33c0 -7.33301 -3.33301 -11 -10 -11h-350c-8.66699 -0 -13.334 3.33301 -14.001 10l-4 24
c-0.666992 1.33301 -1 3.33301 -1 6c0 5.33301 1.66699 10.333 5 15l301 437h-286c-3.33301 0 -5.83301 1.33301 -7.5 4s-2.5 5.66699 -2.5 9v30c0 8 3.33301 12 10 12h340c8.66699 0 13.334 -3.33301 14.001 -10z" />
    <glyph glyph-name="braceleft" unicode="{" horiz-adv-x="357" 
d="M312 745v-33.998c0 -8 -3.33301 -12 -10 -12h-31c-21.333 0 -38.666 -6.33301 -51.999 -19s-20 -32.334 -20 -59.001l1 -215c-0.666992 -30 -7.16699 -56.833 -19.5 -80.5s-31.166 -38.834 -56.499 -45.501v-2c25.333 -6.66699 44.166 -22 56.499 -46
s18.833 -50.667 19.5 -80l-1 -215c0 -26.667 6.66699 -46.5 20 -59.5s30.666 -19.5 51.999 -19.5h31c6.66699 0 10 -4 10 -12v-33c0 -8 -3.33301 -12 -10 -12h-39c-40 0 -70.833 12 -92.5 36s-32.5 56 -32.5 96l1 217c0 66 -31.667 99 -95 99c-7.33301 0 -11 4 -11 12v36
c0 8 3.66699 12 11 12c63.333 0 95 32.667 95 98l-1 218c0 40 10.833 72 32.5 96s52.5 36 92.5 36h39c6.66699 0 10 -4 10 -12z" />
    <glyph glyph-name="bar" unicode="|" horiz-adv-x="241" 
d="M148 722v-914c0 -6.66699 -4 -10 -12 -10h-31c-8 0 -12 3.33301 -12 10v914c0 6.66699 4 10 12 10h31c8 0 12 -3.33301 12 -10z" />
    <glyph glyph-name="braceright" unicode="}" horiz-adv-x="357" 
d="M93 757c40 0 70.833 -12.0029 92.5 -36.0029s32.5 -56 32.5 -96v-218c0 -65.333 31.333 -98 94 -98c8 0 12 -4 12 -12v-36c0 -8 -4 -12 -12 -12c-62.667 0 -94 -33 -94 -99v-217c0 -40 -10.833 -72 -32.5 -96s-52.5 -36 -92.5 -36h-38c-4 0 -6.66699 0.833008 -8 2.5
s-2 4.83398 -2 9.50098v33c0 8 3.33301 12 10 12h31c21.333 0 38.5 6.5 51.5 19.5s19.5 32.833 19.5 59.5v215c0.666992 29.333 7.16699 56 19.5 80s30.833 39.333 55.5 46v2c-25.333 6.66699 -44 21.834 -56 45.501s-18.333 50.5 -19 80.5v215
c0 26.667 -6.5 46.334 -19.5 59.001s-30.167 19 -51.5 19h-31c-6.66699 0 -10 4 -10 12v34c0 8 3.33301 12 10 12h38z" />
    <glyph glyph-name="asciitilde" unicode="~" 
d="M460.5 313c13 11.333 25.168 27.999 36.501 49.999c4 7.33301 10 9.33301 18 6l24 -11c6.66699 -4 8.66699 -9 6 -15c-12 -32.667 -29.167 -58.167 -51.5 -76.5s-49.5 -27.5 -81.5 -27.5c-18 0 -37.167 4 -57.5 12s-45.833 19.667 -76.5 35
c-27.333 13.333 -47.833 22.833 -61.5 28.5s-26.167 8.5 -37.5 8.5c-20.667 0 -37.5 -5.66699 -50.5 -17s-25.167 -28 -36.5 -50c-4.66699 -8 -10.334 -9.66699 -17.001 -5l-26 13c-2.66699 0.666992 -4.5 2.33398 -5.5 5.00098s-0.833008 5.66699 0.5 9
c12 32.667 29.167 58.167 51.5 76.5s49.5 27.5 81.5 27.5c17.333 0 35 -3.66699 53 -11s43 -19 75 -35c24 -12.667 44.333 -22.5 61 -29.5s31.667 -10.5 45 -10.5c20 0 36.5 5.66699 49.5 17z" />
    <glyph glyph-name="uni00A0" unicode="&#xa0;" horiz-adv-x="289" 
 />
    <glyph glyph-name="exclamdown" unicode="&#xa1;" horiz-adv-x="243" 
d="M104 368c-8 0 -12 4.33301 -12 13v153c0 8.66699 4 13 12 13h35c8.66699 0 13 -4.66699 13 -14v-151c0 -9.33301 -4.33301 -14 -13 -14h-35zM100 -185c-7.33301 0 -11 4 -11 12c0 40.667 1.33301 117.5 4 230.5s4.66699 182.833 6 209.5c0.666992 6.66699 4 10 10 10h24
c6.66699 0 10 -3.33301 10 -10c1.33301 -26.667 3.33301 -96.667 6 -210s4 -190 4 -230c0 -8 -4 -12 -12 -12h-41z" />
    <glyph glyph-name="cent" unicode="&#xa2;" 
d="M498 215c-13.333 -36.667 -33.998 -66.1699 -61.998 -88.5029s-63.667 -35.166 -107 -38.499v-75c0 -7.33301 -4 -11 -12 -11h-30c-8.66699 0 -13 3.66699 -13 11v76c-55.333 6 -98.5 27 -129.5 63s-46.5 82.667 -46.5 140v117c0 56.667 15.5 103.167 46.5 139.5
s74.167 57.833 129.5 64.5v85c0 6.66699 4.33301 10 13 10h30c8 0 12 -3.33301 12 -10v-85c42.667 -3.33301 78.167 -16.166 106.5 -38.499s48.833 -52.166 61.5 -89.499l1 -5c0 -4 -2.66699 -7 -8 -9l-30 -10c-2.66699 -1.33301 -4.66699 -2 -6 -2c-4 0 -6.66699 3 -8 9
c-18.667 56.667 -59.334 87.667 -122.001 93v-420c33.333 2 60 10.833 80 26.5s35 38.167 45 67.5c2 6.66699 7 8.66699 15 6l27 -11c7.33301 -2.66699 9.66602 -7.66699 6.99902 -15zM186.002 187.997c22 -26 53 -41.333 93 -46v418c-40 -5.33301 -71 -21 -93 -47
s-33 -61.667 -33 -107v-111c0 -45.333 11 -81 33 -107z" />
    <glyph glyph-name="sterling" unicode="&#xa3;" 
d="M532 616c0 -4.66699 -2.33594 -8 -7.00293 -10l-33 -12c-1.33301 -0.666992 -3 -1 -5 -1c-4.66699 0 -7.66699 2 -9 6c-9.33301 28.667 -24.166 50.667 -44.499 66s-47.833 23 -82.5 23c-45.333 0 -80.166 -12 -104.499 -36s-36.5 -61 -36.5 -111v-184h215
c4 0 6.66699 -0.666992 8 -2s2 -4.33301 2 -9v-33c0 -8 -3.33301 -12 -10 -12h-215v-244h299c4 0 6.66699 -0.833008 8 -2.5s2 -4.83398 2 -9.50098v-33c0 -8 -3.33301 -12 -10 -12h-444c-6.66699 0 -10 4 -10 12v33c0 4.66699 0.666992 7.83398 2 9.50098s4 2.5 8 2.5h84
v244h-84c-6.66699 0 -10 4 -10 12v33c0 4.66699 0.833008 7.66699 2.5 9s4.16699 2 7.5 2h84v182c0 64 17.833 113.833 53.5 149.5s84.834 53.5 147.501 53.5c48 0 87 -10.667 117 -32s51.333 -51 64 -89c0.666992 -1.33301 1 -3 1 -5z" />
    <glyph glyph-name="currency" unicode="&#xa4;" 
d="M518 115c0 -2.66699 -1.66016 -5.66504 -4.99316 -8.99805l-21 -22c-2.66699 -2.66699 -5.33398 -4 -8.00098 -4s-5.33398 1.33301 -8.00098 4l-61 61c-36 -27.333 -76.333 -41 -121 -41c-44 0 -84 13.667 -120 41l-61 -61c-2.66699 -2.66699 -5.33398 -4 -8.00098 -4
s-5.33398 1.33301 -8.00098 4l-22 22c-2.66699 3.33301 -4 6.16602 -4 8.49902s1 4.83301 3 7.5l62 61c-27.333 36 -41 76.333 -41 121c0 22 3.66699 43.5 11 64.5s17.666 39.833 30.999 56.5l-61 61c-2 2 -3 4 -3 6c0 3.33301 1.33301 6.33301 4 9l22 22
c3.33301 2.66699 6.16602 4.16699 8.49902 4.5s4.83301 -0.833984 7.5 -3.50098l60 -61c36 26.667 75.667 40 119 40c44 0 83.667 -13.333 119 -40l61 61c2.66699 2.66699 5 4 7 4c1.33301 0 4.33301 -1.66699 9 -5l22 -22c5.33301 -6 5.33301 -11 0 -15l-60 -61
c13.333 -16.667 23.666 -35.5 30.999 -56.5s11 -42.5 11 -64.5c0 -46 -13.667 -86.333 -41 -121l61 -61c2.66699 -2 4 -4.33301 4 -7zM366.507 177.002c21.667 12.667 39 29.999 52 51.999s19.5 46.333 19.5 73s-6.33301 51.334 -19 74.001s-30 40.5 -52 53.5
s-46 19.5 -72 19.5s-50.167 -6.5 -72.5 -19.5s-40 -30.5 -53 -52.5s-19.5 -46.333 -19.5 -73s6.5 -51.167 19.5 -73.5s30.667 -40 53 -53s46.5 -19.5 72.5 -19.5s49.833 6.33301 71.5 19z" />
    <glyph glyph-name="yen" unicode="&#xa5;" 
d="M322 303v-17h142c6.66699 0 10 -4 10 -12v-34c0 -8 -3.33301 -12 -10 -12h-138v-217c0 -7.33301 -3.66699 -11 -11 -11h-40c-7.33301 0 -11 3.66699 -11 11v217h-139c-6.66699 0 -10 4 -10 12v34c0 8 3.33301 12 10 12h143v15l-224 416
c-1.33301 1.33301 -2 3.66602 -2 6.99902c0 5.33301 3 8 9 8h47c6 0 10.667 -3.33301 14 -10l184 -350l182 350c2.66699 3.33301 5 5.83301 7 7.5s4.66699 2.5 8 2.5h44c4.66699 0 7.66699 -1.66699 9 -5s1 -6.66602 -1 -9.99902z" />
    <glyph glyph-name="brokenbar" unicode="&#xa6;" horiz-adv-x="246" 
d="M150 722l0.00195312 -408c0 -4 -0.833008 -6.66699 -2.5 -8s-4.83398 -2 -9.50098 -2h-30c-4.66699 0 -7.83398 0.666992 -9.50098 2s-2.5 4 -2.5 8v408c0 6.66699 4 10 12 10h30c8 0 12 -3.33301 12 -10zM150.002 218l0.00195312 -410c0 -4 -0.833008 -6.66699 -2.5 -8
s-4.83398 -2 -9.50098 -2h-30c-4.66699 0 -7.83398 0.666992 -9.50098 2s-2.5 4 -2.5 8v410c0 6.66699 4 10 12 10h30c8 0 12 -3.33301 12 -10z" />
    <glyph glyph-name="section" unicode="&#xa7;" horiz-adv-x="578" 
d="M108 503c-8.66699 19.333 -13.001 41.6641 -13.001 66.9971c0 51.333 18 92.833 54 124.5s85.667 47.5 149 47.5c52.667 0 95.334 -12.5 128.001 -37.5s56.667 -58.5 72 -100.5c0.666992 -1.33301 1 -3 1 -5c0 -4 -2 -6.66699 -6 -8l-36 -13
c-1.33301 -0.666992 -3 -1 -5 -1c-3.33301 0 -6 2 -8 6c-12 32 -29.167 57.333 -51.5 76s-53.833 28 -94.5 28c-46 0 -81.333 -10.667 -106 -32s-37 -49.333 -37 -84c0 -21.333 4.83301 -39.833 14.5 -55.5s26 -30.667 49 -45s55.833 -30.166 98.5 -47.499
c64 -26 111 -53.833 141 -83.5s45 -69.5 45 -119.5c0 -27.333 -5.16699 -52.333 -15.5 -75s-25.166 -42 -44.499 -58c32 -29.333 48 -69 48 -119c0 -55.333 -19.167 -99.5 -57.5 -132.5s-88.833 -49.5 -151.5 -49.5c-58.667 0 -105.834 13.5 -141.501 40.5
s-60.167 63.833 -73.5 110.5l-1 5c0 4.66699 3 7.66699 9 9l33 11c1.33301 0.666992 3.33301 1 6 1c4.66699 0 7.66699 -2.66699 9 -8c9.33301 -36 27.833 -63.833 55.5 -83.5s62.5 -29.5 104.5 -29.5c44 0 79.667 10.5 107 31.5s41 50.833 41 89.5
c0 26 -5.33301 47.667 -16 65s-27 32.833 -49 46.5s-52.667 28.5 -92 44.5c-67.333 27.333 -116.166 55.833 -146.499 85.5s-45.5 67.834 -45.5 114.501c0 27.333 5.83301 52.333 17.5 75s28.167 41.334 49.5 56.001c-18.667 16 -32.334 33.667 -41.001 53zM142.999 318.998
c0 -20.667 4.66602 -38.832 13.999 -54.499s25.333 -30.5 48 -44.5s54.334 -29.333 95.001 -46c44.667 -19.333 77.334 -36.666 98.001 -51.999c29.333 22 44 53.333 44 94c0 25.333 -5.33301 46.666 -16 63.999s-26.834 32.666 -48.501 45.999s-52.5 28.333 -92.5 45
c-32.667 13.333 -61.667 28 -87 44c-36.667 -20.667 -55 -52.667 -55 -96z" />
    <glyph glyph-name="dieresis" unicode="&#xa8;" horiz-adv-x="574" 
d="M224 725v-82c0 -4 -1 -6.83301 -3 -8.5s-5.33301 -2.5 -10 -2.5h-29c-4.66699 0 -8 0.833008 -10 2.5s-3 4.5 -3 8.5v82c0 7.33301 4.33301 11 13 11h29c8.66699 0 13 -3.66699 13 -11zM404 725v-82c0 -4 -1 -6.83301 -3 -8.5s-5.33301 -2.5 -10 -2.5h-29
c-4.66699 0 -8 0.833008 -10 2.5s-3 4.5 -3 8.5v82c0 7.33301 4.33301 11 13 11h29c8.66699 0 13 -3.66699 13 -11z" />
    <glyph glyph-name="copyright" unicode="&#xa9;" horiz-adv-x="898" 
d="M257.5 39.5c-57.667 33 -103.167 78.165 -136.5 135.498s-50 121 -50 191c0 69.333 16.667 132.833 50 190.5s78.833 103 136.5 136s121.5 49.5 191.5 49.5s133.833 -16.667 191.5 -50s103.167 -78.666 136.5 -135.999s50 -120.666 50 -189.999
c0 -70 -16.667 -133.667 -50 -191s-78.833 -102.5 -136.5 -135.5s-121.5 -49.5 -191.5 -49.5s-133.833 16.5 -191.5 49.5zM618 77.498c50.667 29 90.667 68.833 120 119.5s44 107 44 169c0 61.333 -14.667 117.333 -44 168s-69.5 90.667 -120.5 120s-107.167 44 -168.5 44
s-117.5 -14.667 -168.5 -44s-91.167 -69.333 -120.5 -120s-44 -106.667 -44 -168c0 -62 14.667 -118.333 44 -169s69.333 -90.5 120 -119.5s107 -43.5 169 -43.5s118.333 14.5 169 43.5zM599 484.998l-0.000976562 -2.00098c0 -4 -2 -6.66699 -6 -8l-30 -10h-3
c-4.66699 0 -7.33398 1.66699 -8.00098 5c-9.33301 24 -21.666 42.167 -36.999 54.5s-36.666 18.5 -63.999 18.5c-34.667 0 -61.834 -10.333 -81.501 -31s-29.5 -50.667 -29.5 -90v-112c0 -38.667 9.83301 -68.167 29.5 -88.5s46.834 -30.833 81.501 -31.5
c28 0 50 5.83301 66 17.5s28 30.5 36 56.5c0.666992 2.66699 2 4.66699 4 6s4 1.33301 6 0l32 -11c2 -0.666992 3.5 -1.83398 4.5 -3.50098s1.16699 -3.5 0.5 -5.5c-20.667 -72 -71 -108 -151 -108c-50.667 0.666992 -90 15.834 -118 45.501s-42 69.834 -42 120.501v116
c0 50.667 14.167 91 42.5 121s67.5 45 117.5 45c76.667 0 126.667 -35 150 -105z" />
    <glyph glyph-name="ordfeminine" unicode="&#xaa;" horiz-adv-x="387" 
d="M272 820.5c19.333 -16.333 28.999 -40.499 28.999 -72.499v-225c0 -4 -2 -6 -6 -6h-25c-4.66699 0 -7 2 -7 6v45c-10 -18 -23.5 -32 -40.5 -42s-35.5 -15 -55.5 -15c-29.333 0 -52.666 8.83301 -69.999 26.5s-26 39.5 -26 65.5c0 59.333 37 92 111 98
c10 1.33301 24 2 42 2c16.667 0 29 -0.333008 37 -1v43c0 43.333 -22.667 65 -68 65c-20 0 -35.5 -3.66699 -46.5 -11s-18.833 -19.333 -23.5 -36c-0.666992 -4.66699 -3.66699 -6.33398 -9 -5.00098l-25 7c-4 1.33301 -5.66699 4 -5 8c14 48 50.667 72 110 72
c32.667 0 58.667 -8.16699 78 -24.5zM225.999 564.501c15.333 11.667 27.001 27.501 35.001 47.501v58c-8 0.666992 -20 1 -36 1c-17.333 0 -30.666 -0.666992 -39.999 -2c-24.667 -2.66699 -43.334 -8.83398 -56.001 -18.501s-19 -24.167 -19 -43.5
c0 -18 5.5 -32.5 16.5 -43.5s26.833 -16.5 47.5 -16.5c19.333 0 36.666 5.83301 51.999 17.5z" />
    <glyph glyph-name="guillemotleft" unicode="&#xab;" horiz-adv-x="488" 
d="M228 89l-39.999 -21.999c-0.666992 -0.666992 -2 -1 -4 -1c-3.33301 0 -6 1.33301 -8 4l-116 208c-2 2.66699 -2 5 0 7l117 208c3.33301 4.66699 7.33301 5.66699 12 3l39 -21c2 -0.666992 3.16699 -2.33398 3.5 -5.00098s-0.166992 -5 -1.5 -7l-102 -181l102 -181
c3.33301 -6 2.66602 -10 -2.00098 -12zM410.001 89.001l-39.999 -21.999c-0.666992 -0.666992 -2 -1 -4 -1c-3.33301 0 -6 1.33301 -8 4l-116 208c-2 2.66699 -2 5 0 7l117 208c3.33301 4.66699 7.33301 5.66699 12 3l39 -21c2 -0.666992 3.16699 -2.33398 3.5 -5.00098
s-0.166992 -5 -1.5 -7l-102 -181l102 -181c3.33301 -6 2.66602 -10 -2.00098 -12z" />
    <glyph glyph-name="logicalnot" unicode="&#xac;" 
d="M80 277c-6.66699 0 -10 3.66699 -10 11v34c0 7.33301 3.33301 11 10 11h433c7.33301 0 11 -3.66699 11 -11v-182c0 -6.66699 -4 -10 -12 -10h-32c-8 0 -12 3.33301 -12 10v137h-388z" />
    <glyph glyph-name="uni00AD" unicode="&#xad;" horiz-adv-x="490" 
d="M399 332c1.33301 -1.33301 2 -4.33301 2 -9v-35c0 -4 -0.666992 -6.83301 -2 -8.5s-4 -2.5 -8 -2.5h-292c-7.33301 0 -11 3.66699 -11 11v35c0 7.33301 3.66699 11 11 11h292c4 0 6.66699 -0.666992 8 -2z" />
    <glyph glyph-name="registered" unicode="&#xae;" horiz-adv-x="599" 
d="M414.5 711.5c35 -20.333 62.832 -47.998 83.499 -82.998s31 -73.5 31 -115.5c0 -41.333 -10.167 -79.5 -30.5 -114.5s-48.166 -62.667 -83.499 -83s-74 -30.5 -116 -30.5c-41.333 0 -79.5 10.167 -114.5 30.5s-62.833 48 -83.5 83s-31 73.167 -31 114.5
s10.333 79.666 31 114.999s48.5 63.166 83.5 83.499s73.167 30.5 114.5 30.5c42 0 80.5 -10.167 115.5 -30.5zM398.499 342.502c30.333 17.667 54.333 41.5 72 71.5s26.5 63 26.5 99s-8.83301 69.167 -26.5 99.5s-41.667 54.333 -72 72s-63.5 26.5 -99.5 26.5
s-69 -8.83301 -99 -26.5s-53.833 -41.667 -71.5 -72s-26.5 -63.5 -26.5 -99.5s8.83301 -69 26.5 -99s41.5 -53.833 71.5 -71.5s63 -26.5 99 -26.5s69.167 8.83301 99.5 26.5zM399.999 387.002c0.666992 -1.33301 1 -3.00098 1 -5.00098c0 -4.66699 -2 -7 -6 -7h-24
c-4 0 -6.33301 1.33301 -7 4l-61 108h-49v-105c0 -4.66699 -2.33301 -7 -7 -7h-21c-4 0 -6 2.33301 -6 7v268c0 4.66699 2 7 6 7h79c30 0 52 -7 66 -21s21 -33.333 21 -58v-11c0 -18 -4.5 -33.667 -13.5 -47s-22.167 -22.666 -39.5 -27.999zM253.999 520.001l48 0.000976562
c20 0 34.333 4.16699 43 12.5s13 21.166 13 38.499v4c0 16.667 -4.33301 29.167 -13 37.5s-23 12.5 -43 12.5h-48v-105z" />
    <glyph glyph-name="macron" unicode="&#xaf;" horiz-adv-x="574" 
d="M414 693.5c1.33301 -1.66699 2 -4.83301 2 -9.5v-27c0 -4 -0.666992 -6.83301 -2 -8.5s-4 -2.5 -8 -2.5h-238c-6.66699 0 -10 3.66699 -10 11v27c0 8 3.33301 12 10 12h238c4 0 6.66699 -0.833008 8 -2.5z" />
    <glyph glyph-name="degree" unicode="&#xb0;" horiz-adv-x="408" 
d="M273 723.5c21.333 -12.333 38.167 -29 50.5 -50s18.5 -43.833 18.5 -68.5s-6.33301 -47.5 -19 -68.5s-29.5 -37.667 -50.5 -50s-43.833 -18.5 -68.5 -18.5s-47.5 6.16699 -68.5 18.5s-37.833 29 -50.5 50s-19 43.833 -19 68.5s6.33301 47.5 19 68.5s29.5 37.667 50.5 50
s43.833 18.5 68.5 18.5s47.667 -6.16699 69 -18.5zM139.001 670c-18 -18 -27 -39.667 -27 -65s9 -47 27 -65s39.667 -27 65 -27c26 0 47.833 9 65.5 27s26.5 39.667 26.5 65s-8.83301 47 -26.5 65s-39.5 27 -65.5 27c-25.333 0 -47 -9 -65 -27z" />
    <glyph glyph-name="plusminus" unicode="&#xb1;" 
d="M48 385l0.000976562 34c0 8 3.33301 12 10 12h206v212c0 6.66699 4 10 12 10h36c8 0 12 -3.33301 12 -10v-212h206c6.66699 0 10 -4 10 -12v-34c0 -8 -3.33301 -12 -10 -12h-206v-212c0 -4 -0.833008 -6.66699 -2.5 -8s-4.83398 -2 -9.50098 -2h-36
c-8 0 -12 3.33301 -12 10v212h-206c-6.66699 0 -10 4 -10 12zM539.001 51.5c1.33301 -1.66699 2 -4.83398 2 -9.50098v-30c0 -8 -3.33301 -12 -10 -12h-473c-6.66699 0 -10 4 -10 12v30c0 4.66699 0.666992 7.83398 2 9.50098s4 2.5 8 2.5h473c4 0 6.66699 -0.833008 8 -2.5
z" />
    <glyph glyph-name="uni00B2" unicode="&#xb2;" horiz-adv-x="335" 
d="M285.5 479.5c1.66699 -1.66699 2.49707 -3.83203 2.49707 -6.49902v-26c0 -2 -0.833008 -3.83301 -2.5 -5.5s-3.83398 -2.5 -6.50098 -2.5h-224c-4 0 -6.66699 2 -8 6l-8 29c-0.666992 2 -0.5 3.83301 0.5 5.5s1.83301 2.5 2.5 2.5l114 116
c34.667 36 57.334 62.5 68.001 79.5s16 35.167 16 54.5c0 22.667 -6.66699 40.5 -20 53.5s-31.333 19.5 -54 19.5c-21.333 0 -38.166 -4.66699 -50.499 -14s-22.166 -24.666 -29.499 -45.999c-2 -6 -5.66699 -8.33301 -11 -7l-26 9c-6 1.33301 -7.66699 5.33301 -5 12
c10.667 30 25.667 52.333 45 67s45.333 22 78 22c36 0 64.667 -10.333 86 -31s32.333 -48.334 33 -83.001c0 -26 -6.66699 -49.833 -20 -71.5s-38 -50.834 -74 -87.501l-94 -93h181c2.66699 0 4.83398 -0.833008 6.50098 -2.5z" />
    <glyph glyph-name="uni00B3" unicode="&#xb3;" horiz-adv-x="338" 
d="M267 619c14.667 -16 21.998 -37 21.998 -63v-8c0 -34.667 -11.167 -62.5 -33.5 -83.5s-52.833 -31.5 -91.5 -31.5c-65.333 0 -106.333 30.333 -123 91v2c0 4 1.66699 6.66699 5 8l25 8h2c4.66699 0 7.33398 -2 8.00098 -6c7.33301 -20.667 17.666 -36 30.999 -46
s31 -15 53 -15c24.667 0 44 6.5 58 19.5s21 31.167 21 54.5v7c0 22.667 -7.16699 40 -21.5 52s-35.166 18 -62.499 18h-20c-6 0 -9 2.66699 -9 8v25c0 2 0.833008 3.83301 2.5 5.5s3.83398 2.5 6.50098 2.5h20c24 0 42.833 6 56.5 18s20.5 28.333 20.5 49v7
c0 22 -6.5 38.5 -19.5 49.5s-31.5 16.5 -55.5 16.5c-37.333 0 -62.333 -18.333 -75 -55c-2 -5.33301 -6.33301 -7 -13 -5l-22 11c-4.66699 2 -6.33398 4.66699 -5.00098 8c7.33301 24.667 20.833 44.5 40.5 59.5s45.5 22.5 77.5 22.5c37.333 0 66 -9.33301 86 -28
s30 -44 30 -76v-7c0 -21.333 -6 -40 -18 -56s-27.333 -27 -46 -33c18.667 -3.33301 35.334 -13 50.001 -29z" />
    <glyph glyph-name="acute" unicode="&#xb4;" horiz-adv-x="574" 
d="M225 626c-1.33301 -2.66699 -2 -4.66699 -2 -6c0 -2 0.833008 -3.66699 2.5 -5s3.5 -2 5.5 -2h30c4 0 7 0.5 9 1.5s4.33301 3.16699 7 6.5l99 125l2 4c0 4.66699 -2.66699 7 -8 7h-42c-5.33301 0 -10 -2.66699 -14 -8z" />
    <glyph glyph-name="uni00B5" unicode="&#xb5;" horiz-adv-x="574" 
d="M483 537l0.00195312 -527c0 -6.66699 -3.66699 -10 -11 -10h-35c-8 -0 -12 3.33301 -12 10v77c-19.333 -29.333 -43.833 -52.833 -73.5 -70.5s-62.834 -26.5 -99.501 -26.5c-44 0 -79.667 13.667 -107 41v-223c0 -4 -0.833008 -6.66699 -2.5 -8s-4.83398 -2 -9.50098 -2
h-30c-4.66699 0 -7.83398 0.666992 -9.50098 2s-2.5 4 -2.5 8v729c0 6.66699 4 10 12 10h35c8 0 12 -3.33301 12 -10v-363c0 -85.333 38.667 -128 116 -128c32.667 0 63.334 10.5 92.001 31.5s50.667 49.167 66 84.5v375c0 6.66699 4 10 12 10h36
c7.33301 0 11 -3.33301 11 -10z" />
    <glyph glyph-name="paragraph" unicode="&#xb6;" horiz-adv-x="528" 
d="M236 732c4.66699 0 7 -2.66113 7 -7.99414v-387c0 -2.66699 -0.666992 -4.83398 -2 -6.50098s-3.33301 -2.16699 -6 -1.5c-36 1.33301 -68.833 11.166 -98.5 29.499s-53 42.666 -70 72.999s-25.5 63.166 -25.5 98.499c0 36 8.5 69.167 25.5 99.5s40.333 54.666 70 72.999
s62.5 28.166 98.5 29.499h1zM469.5 729.506c1.66699 -1.66699 2.49902 -3.83301 2.49902 -6.5v-39c0 -5.33301 -3 -8 -9 -8h-74v-870c0 -5.33301 -2.66699 -8 -8 -8h-41c-5.33301 0 -8 2.66699 -8 8v918c0 2 0.666992 3.83301 2 5.5s3.33301 2.5 6 2.5h123
c2.66699 0 4.83398 -0.833008 6.50098 -2.5z" />
    <glyph glyph-name="periodcentered" unicode="&#xb7;" horiz-adv-x="239" 
d="M150 417v-151c0 -9.33301 -4.33301 -14 -13 -14h-36c-8 0 -12 4.33301 -12 13v153c0 8.66699 4 13 12 13h36c8.66699 0 13 -4.66699 13 -14z" />
    <glyph glyph-name="cedilla" unicode="&#xb8;" horiz-adv-x="574" 
d="M344.5 -74.5c13.667 -14.333 20.502 -31.834 20.502 -52.501c0 -26 -9.66699 -47.167 -29 -63.5s-44 -24.5 -74 -24.5c-20.667 0 -39.667 4 -57 12c-4.66699 2.66699 -6.33398 6.66699 -5.00098 12l8 25c2 6 6 7.66699 12 5c14.667 -6 29.334 -9 44.001 -9
c15.333 0 27.666 4 36.999 12s14 18.667 14 32s-5.33301 23.833 -16 31.5s-26.334 12.167 -47.001 13.5c-2 0 -3.83301 0.833008 -5.5 2.5s-2.16699 3.83398 -1.5 6.50098l22 94l36 -5l-15 -63c24 -4.66699 42.833 -14.167 56.5 -28.5z" />
    <glyph glyph-name="uni00B9" unicode="&#xb9;" horiz-adv-x="230" 
d="M162.5 839.5c1.66699 -1.66699 2.5 -3.5 2.5 -5.5v-387c0 -2 -0.833008 -3.83301 -2.5 -5.5s-3.5 -2.5 -5.5 -2.5h-29c-2.66699 0 -4.66699 0.833008 -6 2.5s-2 3.5 -2 5.5v342l-73 -30l-3 -1c-3.33301 0 -6.33301 2 -9 6l-9 24c-0.666992 0.666992 -1 1.66699 -1 3
c0 4 1.66699 6.66699 5 8l100 43h3h24c2 0 3.83301 -0.833008 5.5 -2.5z" />
    <glyph glyph-name="ordmasculine" unicode="&#xba;" horiz-adv-x="395" 
d="M289 813c21.333 -22 32 -52 32 -90v-88c0 -38 -10.667 -68 -32 -90s-51.666 -33 -90.999 -33c-40 0 -70.667 11 -92 33s-32 51.667 -32 89v89c0 38 10.667 68 32 90s52 33 92 33c39.333 0 69.666 -11 90.999 -33zM136 786.5c-14.667 -15 -22 -36.833 -22 -65.5v-85
c0 -28 7.33301 -49.5 22 -64.5s35.334 -22.5 62.001 -22.5c26 0 46.333 7.5 61 22.5s22 36.5 22 64.5v85c0 28.667 -7.16699 50.5 -21.5 65.5s-34.833 22.5 -61.5 22.5s-47.334 -7.5 -62.001 -22.5z" />
    <glyph glyph-name="guillemotright" unicode="&#xbb;" horiz-adv-x="488" 
d="M246 285c2.66699 -2 2.66797 -4.33301 0.000976562 -7l-116 -208c-1.33301 -2 -3.33301 -3.33301 -6 -4s-4.66699 -0.333984 -6 0.999023l-40 22c-4.66699 2 -5.33398 6 -2.00098 12l102 181l-102 181c-1.33301 2 -1.83301 4.33301 -1.5 7s1.5 4.33398 3.5 5.00098l39 21
c0.666992 0.666992 2 1 4 1c3.33301 0 6 -1.33301 8 -4zM428.001 278l-115.999 -208c-1.33301 -2 -3.33301 -3.33301 -6 -4s-4.66699 -0.333984 -6 0.999023l-40 22c-4.66699 2 -5.33398 6 -2.00098 12l102 181l-102 181c-1.33301 2 -1.83301 4.33301 -1.5 7
s1.5 4.33398 3.5 5.00098l39 21c0.666992 0.666992 2 1 4 1c3.33301 0 6 -1.33301 8 -4l117 -208c2.66699 -2 2.66699 -4.33301 0 -7z" />
    <glyph glyph-name="onequarter" unicode="&#xbc;" horiz-adv-x="730" 
d="M185.5 729.5c1.66699 -1.66699 2.5 -3.5 2.5 -5.5v-387c0 -2 -0.833008 -3.83301 -2.5 -5.5s-3.5 -2.5 -5.5 -2.5h-29c-2.66699 0 -4.66699 0.833008 -6 2.5s-2 3.5 -2 5.5v342l-73 -30l-3 -1c-3.33301 0 -6.33301 2 -9 6l-9 24c-0.666992 0.666992 -1 1.66699 -1 3
c0 4 1.66699 6.66699 5 8l100 43h3h24c2 0 3.83301 -0.833008 5.5 -2.5zM154.5 3c-1.66699 -2 -3.83398 -3 -6.50098 -3h-27c-4 -0 -6.83301 1.33301 -8.5 4s-1.5 5.66699 0.5 9l379 709c2 2.66699 3.83301 5 5.5 7s3.83398 3 6.50098 3h27c4 0 6.83301 -1.33301 8.5 -4
s1.5 -5.66699 -0.5 -9l-379 -709c-2 -2.66699 -3.83301 -5 -5.5 -7zM682 112l-0.000976562 -25.001c0 -5.33301 -2.66699 -8 -8 -8h-44v-70c0 -2.66699 -0.833008 -4.83398 -2.5 -6.50098s-3.5 -2.5 -5.5 -2.5h-28c-2 0 -3.83301 0.833008 -5.5 2.5
s-2.5 3.83398 -2.5 6.50098v70h-168c-4 0 -7 1.66699 -9 5l-8 28l-0.5 2.5c-0.333008 1.66699 -0.166016 2.83398 0.500977 3.50098l143 286c1.33301 2 3.33301 3 6 3h28c4 0 6.66699 -1.5 8 -4.5s1.33301 -6.5 0 -10.5l-137 -272l137 1v116c0 2 0.833008 3.83301 2.5 5.5
s3.5 2.5 5.5 2.5h28c2 0 3.83301 -0.833008 5.5 -2.5s2.5 -3.5 2.5 -5.5v-116h44c5.33301 0 8 -3 8 -9z" />
    <glyph glyph-name="onehalf" unicode="&#xbd;" horiz-adv-x="752" 
d="M185.5 729.5c1.66699 -1.66699 2.5 -3.5 2.5 -5.5v-387c0 -2 -0.833008 -3.83301 -2.5 -5.5s-3.5 -2.5 -5.5 -2.5h-29c-2.66699 0 -4.66699 0.833008 -6 2.5s-2 3.5 -2 5.5v342l-73 -30l-3 -1c-3.33301 0 -6.33301 2 -9 6l-9 24c-0.666992 0.666992 -1 1.66699 -1 3
c0 4 1.66699 6.66699 5 8l100 43h3h24c2 0 3.83301 -0.833008 5.5 -2.5zM154.5 3c-1.66699 -2 -3.83398 -3 -6.50098 -3h-27c-4 -0 -6.83301 1.33301 -8.5 4s-1.5 5.66699 0.5 9l379 709c2 2.66699 3.83301 5 5.5 7s3.83398 3 6.50098 3h27c4 0 6.83301 -1.33301 8.5 -4
s1.5 -5.66699 -0.5 -9l-379 -709c-2 -2.66699 -3.83301 -5 -5.5 -7zM686.5 40.5c1.66699 -1.66699 2.49707 -3.83203 2.49707 -6.49902v-26c0 -2 -0.833008 -3.83301 -2.5 -5.5s-3.83398 -2.5 -6.50098 -2.5h-224c-4 0 -6.66699 2 -8 6l-8 29
c-0.666992 2 -0.5 3.83301 0.5 5.5s1.83301 2.5 2.5 2.5l114 116c34.667 36 57.334 62.5 68.001 79.5s16 35.167 16 54.5c0 22.667 -6.66699 40.5 -20 53.5s-31.333 19.5 -54 19.5c-21.333 0 -38.166 -4.66699 -50.499 -14s-22.166 -24.666 -29.499 -45.999
c-2 -6 -5.66699 -8.33301 -11 -7l-26 9c-6 1.33301 -7.66699 5.33301 -5 12c10.667 30 25.667 52.333 45 67s45.333 22 78 22c36 0 64.667 -10.333 86 -31s32.333 -48.334 33 -83.001c0 -26 -6.66699 -49.833 -20 -71.5s-38 -50.834 -74 -87.501l-94 -93h181
c2.66699 0 4.83398 -0.833008 6.50098 -2.5z" />
    <glyph glyph-name="threequarters" unicode="&#xbe;" horiz-adv-x="835" 
d="M289 509c14.667 -16 21.998 -37 21.998 -63v-8c0 -34.667 -11.167 -62.5 -33.5 -83.5s-52.833 -31.5 -91.5 -31.5c-65.333 0 -106.333 30.333 -123 91v2c0 4 1.66699 6.66699 5 8l25 8h2c4.66699 0 7.33398 -2 8.00098 -6c7.33301 -20.667 17.666 -36 30.999 -46
s31 -15 53 -15c24.667 0 44 6.5 58 19.5s21 31.167 21 54.5v7c0 22.667 -7.16699 40 -21.5 52s-35.166 18 -62.499 18h-20c-6 0 -9 2.66699 -9 8v25c0 2 0.833008 3.83301 2.5 5.5s3.83398 2.5 6.50098 2.5h20c24 0 42.833 6 56.5 18s20.5 28.333 20.5 49v7
c0 22 -6.5 38.5 -19.5 49.5s-31.5 16.5 -55.5 16.5c-37.333 0 -62.333 -18.333 -75 -55c-2 -5.33301 -6.33301 -7 -13 -5l-22 11c-4.66699 2 -6.33398 4.66699 -5.00098 8c7.33301 24.667 20.833 44.5 40.5 59.5s45.5 22.5 77.5 22.5c37.333 0 66 -9.33301 86 -28
s30 -44 30 -76v-7c0 -21.333 -6 -40 -18 -56s-27.333 -27 -46 -33c18.667 -3.33301 35.334 -13 50.001 -29zM260.498 3c-1.66699 -2 -3.83398 -3 -6.50098 -3h-27c-4 -0 -6.83301 1.33301 -8.5 4s-1.5 5.66699 0.5 9l379 709c2 2.66699 3.83301 5 5.5 7s3.83398 3 6.50098 3
h27c4 0 6.83301 -1.33301 8.5 -4s1.5 -5.66699 -0.5 -9l-379 -709c-2 -2.66699 -3.83301 -5 -5.5 -7zM787.998 112l-0.000976562 -25.001c0 -5.33301 -2.66699 -8 -8 -8h-44v-70c0 -2.66699 -0.833008 -4.83398 -2.5 -6.50098s-3.5 -2.5 -5.5 -2.5h-28
c-2 0 -3.83301 0.833008 -5.5 2.5s-2.5 3.83398 -2.5 6.50098v70h-168c-4 0 -7 1.66699 -9 5l-8 28l-0.5 2.5c-0.333008 1.66699 -0.166016 2.83398 0.500977 3.50098l143 286c1.33301 2 3.33301 3 6 3h28c4 0 6.66699 -1.5 8 -4.5s1.33301 -6.5 0 -10.5l-137 -272l137 1
v116c0 2 0.833008 3.83301 2.5 5.5s3.5 2.5 5.5 2.5h28c2 0 3.83301 -0.833008 5.5 -2.5s2.5 -3.5 2.5 -5.5v-116h44c5.33301 0 8 -3 8 -9z" />
    <glyph glyph-name="questiondown" unicode="&#xbf;" horiz-adv-x="445" 
d="M256 534v-153c0 -8.66699 -4 -13 -12 -13h-36c-8.66699 0 -13 4.66699 -13 14v151c0 9.33301 4.33301 14 13 14h36c8 0 12 -4.33301 12 -13zM254.5 272.5c1.66699 -3 1.16602 -6.83594 -1.50098 -11.5029c-16 -34 -38 -74.333 -66 -121
c-25.333 -42.667 -44 -77.167 -56 -103.5s-18 -51.833 -18 -76.5c0 -32.667 9.16699 -57.5 27.5 -74.5s45.166 -25.5 80.499 -25.5c34 0 61 7.66699 81 23s34.667 39.333 44 72c2 10 7 13.667 15 11l30 -9c4 -1.33301 6.5 -3.16602 7.5 -5.49902
s0.833008 -5.83301 -0.5 -10.5c-22.667 -90.667 -84 -136 -184 -136c-49.333 0 -88.666 13.333 -117.999 40s-44 62.667 -44 108c0 28.667 7 58.334 21 89.001s35.667 70.334 65 119.001c28.667 49.333 48.334 84.333 59.001 105c2.66699 4.66699 5.16699 7.66699 7.5 9
s5.83301 2 10.5 2h31c4 0 6.83301 -1.5 8.5 -4.5z" />
    <glyph glyph-name="Agrave" unicode="&#xc0;" horiz-adv-x="625" 
d="M587 8c0 -5.33301 -2.99902 -7.99902 -8.99902 -7.99902h-43c-6 0 -10 3 -12 9l-70 216h-282l-70 -216c-2 -6 -6.33301 -9 -13 -9h-41c-3.33301 0 -5.83301 1.16699 -7.5 3.5s-1.83398 5.16602 -0.500977 8.49902l230 710c2 6.66699 6.66699 10 14 10h58
c4 0 7 -0.666992 9 -2s3.66699 -4 5 -8l231 -710zM434.001 283.001l-55.999 175.999l-65 206h-2c-12.667 -43.333 -34.334 -112.666 -65.001 -207.999l-57 -174h245zM205.002 942c-3.33301 0 -5.66699 -1.33301 -7 -4s-1 -5 1 -7l99 -125c2.66699 -3.33301 5 -5.5 7 -6.5
s5 -1.5 9 -1.5h30c3.33301 0 5.83301 1.33301 7.5 4s1.16699 5.66699 -1.5 9l-89 123c-4 5.33301 -8.33301 8 -13 8h-43z" />
    <glyph glyph-name="Aacute" unicode="&#xc1;" horiz-adv-x="625" 
d="M587 8c0 -5.33301 -2.99902 -7.99902 -8.99902 -7.99902h-43c-6 0 -10 3 -12 9l-70 216h-282l-70 -216c-2 -6 -6.33301 -9 -13 -9h-41c-3.33301 0 -5.83301 1.16699 -7.5 3.5s-1.83398 5.16602 -0.500977 8.49902l230 710c2 6.66699 6.66699 10 14 10h58
c4 0 7 -0.666992 9 -2s3.66699 -4 5 -8l231 -710zM434.001 283.001l-55.999 175.999l-65 206h-2c-12.667 -43.333 -34.334 -112.666 -65.001 -207.999l-57 -174h245zM274.002 811c-2 -2 -3.00098 -4 -3.00098 -6s0.833008 -3.66699 2.5 -5s3.5 -2 5.5 -2h30c4 0 7 0.5 9 1.5
s4.33301 3.16699 7 6.5l99 125l2 4c0 4.66699 -2.66699 7 -8 7h-42c-5.33301 0 -9.66602 -2.66699 -12.999 -8z" />
    <glyph glyph-name="Acircumflex" unicode="&#xc2;" horiz-adv-x="625" 
d="M587 8c0 -5.33301 -2.99902 -7.99902 -8.99902 -7.99902h-43c-6 0 -10 3 -12 9l-70 216h-282l-70 -216c-2 -6 -6.33301 -9 -13 -9h-41c-3.33301 0 -5.83301 1.16699 -7.5 3.5s-1.83398 5.16602 -0.500977 8.49902l230 710c2 6.66699 6.66699 10 14 10h58
c4 0 7 -0.666992 9 -2s3.66699 -4 5 -8l231 -710zM434.001 283.001l-55.999 175.999l-65 206h-2c-12.667 -43.333 -34.334 -112.666 -65.001 -207.999l-57 -174h245zM440.002 806c0 -5.33301 -3 -8 -9 -8h-34c-4.66699 0 -8.66699 2.66699 -12 8l-73 99l-73 -99
c-3.33301 -5.33301 -7.33301 -8 -12 -8h-34c-6 0 -9 2.66699 -9 8c0 2 1.33301 4.66699 4 8l91 121c4 4.66699 8.66699 7 14 7h38c3.33301 0 6 -0.666992 8 -2s4 -3 6 -5l91 -121c2.66699 -3.33301 4 -6 4 -8z" />
    <glyph glyph-name="Atilde" unicode="&#xc3;" horiz-adv-x="625" 
d="M587 8c0 -5.33301 -2.99902 -7.99902 -8.99902 -7.99902h-43c-6 0 -10 3 -12 9l-70 216h-282l-70 -216c-2 -6 -6.33301 -9 -13 -9h-41c-3.33301 0 -5.83301 1.16699 -7.5 3.5s-1.83398 5.16602 -0.500977 8.49902l230 710c2 6.66699 6.66699 10 14 10h58
c4 0 7 -0.666992 9 -2s3.66699 -4 5 -8l231 -710zM434.001 283.001l-55.999 175.999l-65 206h-2c-12.667 -43.333 -34.334 -112.666 -65.001 -207.999l-57 -174h245zM292.502 900c10.333 -4.66699 22.168 -11.3359 35.501 -20.0029
c11.333 -7.33301 20.166 -12.5 26.499 -15.5s13.166 -4.5 20.499 -4.5c18 0 33.333 11.333 46 34c3.33301 5.33301 7.33301 6.33301 12 3l23 -14c4.66699 -2 5.66699 -5.33301 3 -10c-6.66699 -17.333 -17.667 -31.666 -33 -42.999s-32.666 -17 -51.999 -17
c-12 0 -23.167 2.33301 -33.5 7s-21.833 11.334 -34.5 20.001c-11.333 7.33301 -20.166 12.5 -26.499 15.5s-13.166 4.5 -20.499 4.5c-18 0 -33.667 -11.667 -47 -35c-2.66699 -4.66699 -6.33398 -5.66699 -11.001 -3l-23 15c-4 2.66699 -4.66699 6.33398 -2 11.001
c7.33301 16.667 18.166 30.667 32.499 42s30.833 17 49.5 17c12.667 0 24.167 -2.33301 34.5 -7z" />
    <glyph glyph-name="Adieresis" unicode="&#xc4;" horiz-adv-x="625" 
d="M587 8c0 -5.33301 -2.99902 -7.99902 -8.99902 -7.99902h-43c-6 0 -10 3 -12 9l-70 216h-282l-70 -216c-2 -6 -6.33301 -9 -13 -9h-41c-3.33301 0 -5.83301 1.16699 -7.5 3.5s-1.83398 5.16602 -0.500977 8.49902l230 710c2 6.66699 6.66699 10 14 10h58
c4 0 7 -0.666992 9 -2s3.66699 -4 5 -8l231 -710zM434.001 283.001l-55.999 175.999l-65 206h-2c-12.667 -43.333 -34.334 -112.666 -65.001 -207.999l-57 -174h245zM250.002 910v-82c0 -4 -1 -6.83301 -3 -8.5s-5.33301 -2.5 -10 -2.5h-29c-4.66699 0 -8 0.833008 -10 2.5
s-3 4.5 -3 8.5v82c0 7.33301 4.33301 11 13 11h29c8.66699 0 13 -3.66699 13 -11zM430.002 910v-82c0 -4 -1 -6.83301 -3 -8.5s-5.33301 -2.5 -10 -2.5h-29c-4.66699 0 -8 0.833008 -10 2.5s-3 4.5 -3 8.5v82c0 7.33301 4.33301 11 13 11h29c8.66699 0 13 -3.66699 13 -11z
" />
    <glyph glyph-name="Aring" unicode="&#xc5;" horiz-adv-x="625" 
d="M587 8c0 -5.33301 -2.99902 -7.99902 -8.99902 -7.99902h-43c-6 0 -10 3 -12 9l-70 216h-282l-70 -216c-2 -6 -6.33301 -9 -13 -9h-41c-3.33301 0 -5.83301 1.16699 -7.5 3.5s-1.83398 5.16602 -0.500977 8.49902l230 710c2 6.66699 6.66699 10 14 10h58
c4 0 7 -0.666992 9 -2s3.66699 -4 5 -8l231 -710zM434.001 283.001l-55.999 175.999l-65 206h-2c-12.667 -43.333 -34.334 -112.666 -65.001 -207.999l-57 -174h245zM240.502 802.5c-20.333 19.667 -30.501 43.167 -30.501 70.5c0 28 10 51.833 30 71.5s44 29.5 72 29.5
c27.333 0 51 -9.83301 71 -29.5s30 -43.5 30 -71.5c0 -27.333 -10 -50.833 -30 -70.5s-43.667 -29.5 -71 -29.5s-51.166 9.83301 -71.499 29.5zM354.501 830.5c11.667 11.667 17.5 25.834 17.5 42.501s-5.83301 31 -17.5 43s-25.834 18 -42.501 18s-31 -6 -43 -18
s-18 -26.333 -18 -43s6 -30.834 18 -42.501s26.333 -17.5 43 -17.5s30.834 5.83301 42.501 17.5z" />
    <glyph glyph-name="AE" unicode="&#xc6;" horiz-adv-x="886" 
d="M810 46v-33.998c0 -8 -3.33301 -12 -10 -12h-362c-8 0 -12 3.33301 -12 10v215h-235l-112 -216c-2.66699 -6 -7.33398 -9 -14.001 -9h-44c-4 0 -6.66699 1.33301 -8 4s-1 6 1 10l367 708c2.66699 4 4.83398 6.66699 6.50098 8s4.5 2 8.5 2h403c6.66699 0 10 -4 10 -12
v-34c0 -4.66699 -0.666992 -7.83398 -2 -9.50098s-4 -2.5 -8 -2.5h-311v-273h283c6.66699 0 10 -4 10 -12v-33c0 -4.66699 -0.666992 -7.83398 -2 -9.50098s-4 -2.5 -8 -2.5h-283v-286h312c6.66699 0 10 -4 10 -12zM426 283.002v391h-2l-203 -391h205z" />
    <glyph glyph-name="Ccedilla" unicode="&#xc7;" horiz-adv-x="603" 
d="M548 155c-16 -50.667 -41.8359 -90.168 -77.5029 -118.501s-79.5 -43.833 -131.5 -46.5l-9 -36c24 -4.66699 42.833 -14.167 56.5 -28.5s20.5 -31.833 20.5 -52.5c0 -26 -9.66699 -47.167 -29 -63.5s-44 -24.5 -74 -24.5c-10 0 -20.167 1.16699 -30.5 3.5
s-19.166 5.16602 -26.499 8.49902c-4.66699 2 -6.33398 6 -5.00098 12l7 25c2 6 6.33301 7.66699 13 5c14.667 -6 29.334 -9 44.001 -9c15.333 0 27.5 4 36.5 12s13.5 18.667 13.5 32c0 26.667 -20.667 41.667 -62 45c-6 0 -8.66699 3 -8 9l15 63
c-64.667 4 -116.667 26.667 -156 68s-59 99 -59 173v268c0 78 21.667 137.833 65 179.5s100.333 62.5 171 62.5c110.667 0 184 -52.667 220 -158c0.666992 -1.33301 1 -3.33301 1 -6c0 -5.33301 -2.66699 -8.66602 -8 -9.99902l-34 -13
c-1.33301 -0.666992 -3.33301 -1 -6 -1c-4.66699 0 -8 2.66699 -10 8c-14.667 40.667 -34.834 71 -60.501 91s-59.834 30 -102.501 30c-53.333 0 -95.666 -15.333 -126.999 -46s-47 -79.334 -47 -146.001v-250c0 -66 15.833 -114.5 47.5 -145.5s73.834 -46.5 126.501 -46.5
c44 0 79.833 11 107.5 33s47.834 53.667 60.501 95c1.33301 4.66699 3.33301 7.33398 6 8.00098s6.33398 0.333984 11.001 -0.999023l33 -12c8 -3.33301 10.667 -9 8 -17z" />
    <glyph glyph-name="Egrave" unicode="&#xc8;" horiz-adv-x="565" 
d="M488 720v-33.998c0 -4.66699 -0.666992 -7.83398 -2 -9.50098s-4 -2.5 -8 -2.5h-311v-273h283c6.66699 0 10 -4 10 -12v-33c0 -4.66699 -0.666992 -7.83398 -2 -9.50098s-4 -2.5 -8 -2.5h-283v-286h312c6.66699 0 10 -4 10 -12v-34c0 -8 -3.33301 -12 -10 -12h-362
c-8 -0 -12 3.33301 -12 10v712c0 6.66699 4 10 12 10h361c6.66699 0 10 -4 10 -12zM187 942.002c-3.33301 0 -5.66699 -1.33301 -7 -4s-1 -5 1 -7l99 -125c2.66699 -3.33301 5 -5.5 7 -6.5s5 -1.5 9 -1.5h30c3.33301 0 5.83301 1.33301 7.5 4s1.16699 5.66699 -1.5 9
l-89 123c-4 5.33301 -8.33301 8 -13 8h-43z" />
    <glyph glyph-name="Eacute" unicode="&#xc9;" horiz-adv-x="565" 
d="M488 720v-33.998c0 -4.66699 -0.666992 -7.83398 -2 -9.50098s-4 -2.5 -8 -2.5h-311v-273h283c6.66699 0 10 -4 10 -12v-33c0 -4.66699 -0.666992 -7.83398 -2 -9.50098s-4 -2.5 -8 -2.5h-283v-286h312c6.66699 0 10 -4 10 -12v-34c0 -8 -3.33301 -12 -10 -12h-362
c-8 -0 -12 3.33301 -12 10v712c0 6.66699 4 10 12 10h361c6.66699 0 10 -4 10 -12zM257 811.002c-2 -2 -3.00098 -4 -3.00098 -6s0.833008 -3.66699 2.5 -5s3.5 -2 5.5 -2h30c4 0 7 0.5 9 1.5s4.33301 3.16699 7 6.5l99 125l2 4c0 4.66699 -2.66699 7 -8 7h-42
c-5.33301 0 -9.66602 -2.66699 -12.999 -8z" />
    <glyph glyph-name="Ecircumflex" unicode="&#xca;" horiz-adv-x="565" 
d="M488 720v-33.998c0 -4.66699 -0.666992 -7.83398 -2 -9.50098s-4 -2.5 -8 -2.5h-311v-273h283c6.66699 0 10 -4 10 -12v-33c0 -4.66699 -0.666992 -7.83398 -2 -9.50098s-4 -2.5 -8 -2.5h-283v-286h312c6.66699 0 10 -4 10 -12v-34c0 -8 -3.33301 -12 -10 -12h-362
c-8 -0 -12 3.33301 -12 10v712c0 6.66699 4 10 12 10h361c6.66699 0 10 -4 10 -12zM423 806.002c0 -5.33301 -3 -8 -9 -8h-34c-4.66699 0 -8.66699 2.66699 -12 8l-73 99l-73 -99c-3.33301 -5.33301 -7.33301 -8 -12 -8h-34c-6 0 -9 2.66699 -9 8c0 2 1.33301 4.66699 4 8
l91 121c4 4.66699 8.66699 7 14 7h38c3.33301 0 6 -0.666992 8 -2s4 -3 6 -5l91 -121c2.66699 -3.33301 4 -6 4 -8z" />
    <glyph glyph-name="Edieresis" unicode="&#xcb;" horiz-adv-x="565" 
d="M488 720v-33.998c0 -4.66699 -0.666992 -7.83398 -2 -9.50098s-4 -2.5 -8 -2.5h-311v-273h283c6.66699 0 10 -4 10 -12v-33c0 -4.66699 -0.666992 -7.83398 -2 -9.50098s-4 -2.5 -8 -2.5h-283v-286h312c6.66699 0 10 -4 10 -12v-34c0 -8 -3.33301 -12 -10 -12h-362
c-8 -0 -12 3.33301 -12 10v712c0 6.66699 4 10 12 10h361c6.66699 0 10 -4 10 -12zM233 910.002v-82c0 -4 -1 -6.83301 -3 -8.5s-5.33301 -2.5 -10 -2.5h-29c-4.66699 0 -8 0.833008 -10 2.5s-3 4.5 -3 8.5v82c0 7.33301 4.33301 11 13 11h29c8.66699 0 13 -3.66699 13 -11z
M413 910.002v-82c0 -4 -1 -6.83301 -3 -8.5s-5.33301 -2.5 -10 -2.5h-29c-4.66699 0 -8 0.833008 -10 2.5s-3 4.5 -3 8.5v82c0 7.33301 4.33301 11 13 11h29c8.66699 0 13 -3.66699 13 -11z" />
    <glyph glyph-name="Igrave" unicode="&#xcc;" horiz-adv-x="272" 
d="M167 722v-712c0 -6.66699 -4 -10 -12 -10h-38c-8 -0 -12 3.33301 -12 10v712c0 6.66699 4 10 12 10h38c8 0 12 -3.33301 12 -10zM29 942c-3.33301 0 -5.66699 -1.33301 -7 -4s-1 -5 1 -7l99 -125c2.66699 -3.33301 5 -5.5 7 -6.5s5 -1.5 9 -1.5h30
c3.33301 0 5.83301 1.33301 7.5 4s1.16699 5.66699 -1.5 9l-89 123c-4 5.33301 -8.33301 8 -13 8h-43z" />
    <glyph glyph-name="Iacute" unicode="&#xcd;" horiz-adv-x="272" 
d="M167 722v-712c0 -6.66699 -4 -10 -12 -10h-38c-8 -0 -12 3.33301 -12 10v712c0 6.66699 4 10 12 10h38c8 0 12 -3.33301 12 -10zM98 811c-2 -2 -3.00098 -4 -3.00098 -6s0.833008 -3.66699 2.5 -5s3.5 -2 5.5 -2h30c4 0 7 0.5 9 1.5s4.33301 3.16699 7 6.5l99 125l2 4
c0 4.66699 -2.66699 7 -8 7h-42c-5.33301 0 -9.66602 -2.66699 -12.999 -8z" />
    <glyph glyph-name="Icircumflex" unicode="&#xce;" horiz-adv-x="272" 
d="M167 722v-712c0 -6.66699 -4 -10 -12 -10h-38c-8 -0 -12 3.33301 -12 10v712c0 6.66699 4 10 12 10h38c8 0 12 -3.33301 12 -10zM264 806c0 -5.33301 -3 -8 -9 -8h-34c-4.66699 0 -8.66699 2.66699 -12 8l-73 99l-73 -99c-3.33301 -5.33301 -7.33301 -8 -12 -8h-34
c-6 0 -9 2.66699 -9 8c0 2 1.33301 4.66699 4 8l91 121c4 4.66699 8.66699 7 14 7h38c3.33301 0 6 -0.666992 8 -2s4 -3 6 -5l91 -121c2.66699 -3.33301 4 -6 4 -8z" />
    <glyph glyph-name="Idieresis" unicode="&#xcf;" horiz-adv-x="272" 
d="M167 722v-712c0 -6.66699 -4 -10 -12 -10h-38c-8 -0 -12 3.33301 -12 10v712c0 6.66699 4 10 12 10h38c8 0 12 -3.33301 12 -10zM74 910v-82c0 -4 -1 -6.83301 -3 -8.5s-5.33301 -2.5 -10 -2.5h-29c-4.66699 0 -8 0.833008 -10 2.5s-3 4.5 -3 8.5v82
c0 7.33301 4.33301 11 13 11h29c8.66699 0 13 -3.66699 13 -11zM254 910v-82c0 -4 -1 -6.83301 -3 -8.5s-5.33301 -2.5 -10 -2.5h-29c-4.66699 0 -8 0.833008 -10 2.5s-3 4.5 -3 8.5v82c0 7.33301 4.33301 11 13 11h29c8.66699 0 13 -3.66699 13 -11z" />
    <glyph glyph-name="Eth" unicode="&#xd0;" horiz-adv-x="692" 
d="M538 670c46 -41.333 69 -101.335 69 -180.002v-247c0 -79.333 -23 -139.666 -69 -180.999s-109.333 -62 -190 -62h-203c-7.33301 0 -11 3.33301 -11 10v328h-94c-4 0 -6.66699 0.833008 -8 2.5s-2 4.83398 -2 9.50098v33c0 8 3.33301 12 10 12h94v327
c0 6.66699 3.66699 10 11 10h203c80.667 0 144 -20.667 190 -62zM545 480.998c0 67.333 -17.5 116.169 -52.5 146.502s-84.833 45.5 -149.5 45.5h-147v-278h139c6.66699 0 10 -4 10 -12v-33c0 -4.66699 -0.666992 -7.83398 -2 -9.50098s-4 -2.5 -8 -2.5h-139v-279h147
c64.667 0 114.5 15.167 149.5 45.5s52.5 79.166 52.5 146.499v230z" />
    <glyph glyph-name="Ntilde" unicode="&#xd1;" horiz-adv-x="701" 
d="M596 722v-709.999c0 -8 -4.33301 -12 -13 -12h-60c-6 0 -11.333 3.66699 -16 11l-243 457l-56 110c-24 48.667 -38.667 77.667 -44 87h-1c2 -62.667 3 -124.334 3 -185.001v-469c0 -7.33301 -4 -11 -12 -11h-37c-8 0 -12 3.66699 -12 11v709c0 8 4.33301 12 13 12h65
c7.33301 0 13 -4 17 -12l241 -456l78 -155c2.66699 -4 9 -16.333 19 -37h2c-3.33301 68.667 -5 131 -5 187v463c0 6.66699 3.66699 10 11 10h38c8 0 12 -3.33301 12 -10zM334.5 900.001c10.333 -4.66699 22.168 -11.3359 35.501 -20.0029
c11.333 -7.33301 20.166 -12.5 26.499 -15.5s13.166 -4.5 20.499 -4.5c18 0 33.333 11.333 46 34c3.33301 5.33301 7.33301 6.33301 12 3l23 -14c4.66699 -2 5.66699 -5.33301 3 -10c-6.66699 -17.333 -17.667 -31.666 -33 -42.999s-32.666 -17 -51.999 -17
c-12 0 -23.167 2.33301 -33.5 7s-21.833 11.334 -34.5 20.001c-11.333 7.33301 -20.166 12.5 -26.499 15.5s-13.166 4.5 -20.499 4.5c-18 0 -33.667 -11.667 -47 -35c-2.66699 -4.66699 -6.33398 -5.66699 -11.001 -3l-23 15c-4 2.66699 -4.66699 6.33398 -2 11.001
c7.33301 16.667 18.166 30.667 32.499 42s30.833 17 49.5 17c12.667 0 24.167 -2.33301 34.5 -7z" />
    <glyph glyph-name="Ograve" unicode="&#xd2;" horiz-adv-x="671" 
d="M518 679c45.333 -42 68 -102.001 68 -180.001v-265c0 -78.667 -22.667 -139 -68 -181s-106.333 -63 -183 -63s-137.5 20.833 -182.5 62.5s-67.5 101.834 -67.5 180.501v265c0 79.333 22.5 139.833 67.5 181.5s105.833 62.5 182.5 62.5s137.667 -21 183 -63zM197 637.499
c-33.333 -30.333 -50 -77.5 -50 -141.5v-260c0 -64 16.667 -111.167 50 -141.5s79.333 -45.5 138 -45.5c59.333 0 105.666 15.167 138.999 45.5s50 77.5 50 141.5v260c0 64 -16.667 111.167 -50 141.5s-79.666 45.5 -138.999 45.5c-58.667 0 -104.667 -15.167 -138 -45.5z
M228 941.999c-3.33301 0 -5.66699 -1.33301 -7 -4s-1 -5 1 -7l99 -125c2.66699 -3.33301 5 -5.5 7 -6.5s5 -1.5 9 -1.5h30c3.33301 0 5.83301 1.33301 7.5 4s1.16699 5.66699 -1.5 9l-89 123c-4 5.33301 -8.33301 8 -13 8h-43z" />
    <glyph glyph-name="Oacute" unicode="&#xd3;" horiz-adv-x="671" 
d="M518 679c45.333 -42 68 -102.001 68 -180.001v-265c0 -78.667 -22.667 -139 -68 -181s-106.333 -63 -183 -63s-137.5 20.833 -182.5 62.5s-67.5 101.834 -67.5 180.501v265c0 79.333 22.5 139.833 67.5 181.5s105.833 62.5 182.5 62.5s137.667 -21 183 -63zM197 637.499
c-33.333 -30.333 -50 -77.5 -50 -141.5v-260c0 -64 16.667 -111.167 50 -141.5s79.333 -45.5 138 -45.5c59.333 0 105.666 15.167 138.999 45.5s50 77.5 50 141.5v260c0 64 -16.667 111.167 -50 141.5s-79.666 45.5 -138.999 45.5c-58.667 0 -104.667 -15.167 -138 -45.5z
M297 810.999c-2 -2 -3.00098 -4 -3.00098 -6s0.833008 -3.66699 2.5 -5s3.5 -2 5.5 -2h30c4 0 7 0.5 9 1.5s4.33301 3.16699 7 6.5l99 125l2 4c0 4.66699 -2.66699 7 -8 7h-42c-5.33301 0 -9.66602 -2.66699 -12.999 -8z" />
    <glyph glyph-name="Ocircumflex" unicode="&#xd4;" horiz-adv-x="671" 
d="M518 679c45.333 -42 68 -102.001 68 -180.001v-265c0 -78.667 -22.667 -139 -68 -181s-106.333 -63 -183 -63s-137.5 20.833 -182.5 62.5s-67.5 101.834 -67.5 180.501v265c0 79.333 22.5 139.833 67.5 181.5s105.833 62.5 182.5 62.5s137.667 -21 183 -63zM197 637.499
c-33.333 -30.333 -50 -77.5 -50 -141.5v-260c0 -64 16.667 -111.167 50 -141.5s79.333 -45.5 138 -45.5c59.333 0 105.666 15.167 138.999 45.5s50 77.5 50 141.5v260c0 64 -16.667 111.167 -50 141.5s-79.666 45.5 -138.999 45.5c-58.667 0 -104.667 -15.167 -138 -45.5z
M463 805.999c0 -5.33301 -3 -8 -9 -8h-34c-4.66699 0 -8.66699 2.66699 -12 8l-73 99l-73 -99c-3.33301 -5.33301 -7.33301 -8 -12 -8h-34c-6 0 -9 2.66699 -9 8c0 2 1.33301 4.66699 4 8l91 121c4 4.66699 8.66699 7 14 7h38c3.33301 0 6 -0.666992 8 -2s4 -3 6 -5l91 -121
c2.66699 -3.33301 4 -6 4 -8z" />
    <glyph glyph-name="Otilde" unicode="&#xd5;" horiz-adv-x="671" 
d="M518 679c45.333 -42 68 -102.001 68 -180.001v-265c0 -78.667 -22.667 -139 -68 -181s-106.333 -63 -183 -63s-137.5 20.833 -182.5 62.5s-67.5 101.834 -67.5 180.501v265c0 79.333 22.5 139.833 67.5 181.5s105.833 62.5 182.5 62.5s137.667 -21 183 -63zM197 637.499
c-33.333 -30.333 -50 -77.5 -50 -141.5v-260c0 -64 16.667 -111.167 50 -141.5s79.333 -45.5 138 -45.5c59.333 0 105.666 15.167 138.999 45.5s50 77.5 50 141.5v260c0 64 -16.667 111.167 -50 141.5s-79.666 45.5 -138.999 45.5c-58.667 0 -104.667 -15.167 -138 -45.5z
M315.5 899.999c10.333 -4.66699 22.168 -11.3359 35.501 -20.0029c11.333 -7.33301 20.166 -12.5 26.499 -15.5s13.166 -4.5 20.499 -4.5c18 0 33.333 11.333 46 34c3.33301 5.33301 7.33301 6.33301 12 3l23 -14c4.66699 -2 5.66699 -5.33301 3 -10
c-6.66699 -17.333 -17.667 -31.666 -33 -42.999s-32.666 -17 -51.999 -17c-12 0 -23.167 2.33301 -33.5 7s-21.833 11.334 -34.5 20.001c-11.333 7.33301 -20.166 12.5 -26.499 15.5s-13.166 4.5 -20.499 4.5c-18 0 -33.667 -11.667 -47 -35
c-2.66699 -4.66699 -6.33398 -5.66699 -11.001 -3l-23 15c-4 2.66699 -4.66699 6.33398 -2 11.001c7.33301 16.667 18.166 30.667 32.499 42s30.833 17 49.5 17c12.667 0 24.167 -2.33301 34.5 -7z" />
    <glyph glyph-name="Odieresis" unicode="&#xd6;" horiz-adv-x="671" 
d="M518 679c45.333 -42 68 -102.001 68 -180.001v-265c0 -78.667 -22.667 -139 -68 -181s-106.333 -63 -183 -63s-137.5 20.833 -182.5 62.5s-67.5 101.834 -67.5 180.501v265c0 79.333 22.5 139.833 67.5 181.5s105.833 62.5 182.5 62.5s137.667 -21 183 -63zM197 637.499
c-33.333 -30.333 -50 -77.5 -50 -141.5v-260c0 -64 16.667 -111.167 50 -141.5s79.333 -45.5 138 -45.5c59.333 0 105.666 15.167 138.999 45.5s50 77.5 50 141.5v260c0 64 -16.667 111.167 -50 141.5s-79.666 45.5 -138.999 45.5c-58.667 0 -104.667 -15.167 -138 -45.5z
M273 909.999v-82c0 -4 -1 -6.83301 -3 -8.5s-5.33301 -2.5 -10 -2.5h-29c-4.66699 0 -8 0.833008 -10 2.5s-3 4.5 -3 8.5v82c0 7.33301 4.33301 11 13 11h29c8.66699 0 13 -3.66699 13 -11zM453 909.999v-82c0 -4 -1 -6.83301 -3 -8.5s-5.33301 -2.5 -10 -2.5h-29
c-4.66699 0 -8 0.833008 -10 2.5s-3 4.5 -3 8.5v82c0 7.33301 4.33301 11 13 11h29c8.66699 0 13 -3.66699 13 -11z" />
    <glyph glyph-name="multiply" unicode="&#xd7;" 
d="M509 131c2.66699 -2 4 -3.99805 4 -5.99805c0 -2.66699 -1.66699 -5.66699 -5 -9l-24 -24c-5.33301 -5.33301 -10.666 -6 -15.999 -2l-174 174l-174 -174c-2 -2 -4.33301 -3 -7 -3s-5.66699 1.66699 -9 5l-24 24c-6 6 -6.33301 11.333 -1 16l174 174l-174 175
c-2.66699 2.66699 -4 4.66699 -4 6c0 2.66699 1.66699 5.66699 5 9l24 24c3.33301 3.33301 6.33301 5 9 5c2 0 4.33301 -1.33301 7 -4l174 -174l174 174c2 2 4 3 6 3c3.33301 0 6.66602 -1.66699 9.99902 -5l25 -24c2.66699 -2.66699 4 -5.33398 4 -8.00098
s-1.33301 -5.33398 -4 -8.00098l-174 -174z" />
    <glyph glyph-name="Oslash" unicode="&#xd8;" horiz-adv-x="671" 
d="M586 499l0.00195312 -265c0 -78.667 -22.667 -139 -68 -181s-106.333 -63 -183 -63c-62.667 0 -115 14 -157 42l-38 -71c-3.33301 -5.33301 -8.33301 -8 -15 -8h-24c-4.66699 0 -7.83398 1.5 -9.50098 4.5s-1.5 6.5 0.5 10.5l51 93c-38.667 42.667 -58 100 -58 172v265
c0 79.333 22.5 139.833 67.5 181.5s105.833 62.5 182.5 62.5c63.333 0 115.666 -14 156.999 -42l44 81c2 3.33301 4 5.5 6 6.5s5 1.5 9 1.5h24c4 0 7 -1.5 9 -4.5s1.66699 -6.5 -1 -10.5l-56 -104c39.333 -41.333 59 -98.333 59 -171zM175.002 120l288 527
c-30.667 24.667 -73.334 37 -128.001 37c-59.333 0 -105.666 -15.167 -138.999 -45.5s-50 -77.5 -50 -141.5v-262c0 -48 9.66699 -86.333 29 -115zM524.002 497c0 48 -9.66602 86.667 -28.999 116l-288 -528c31.333 -24.667 74 -37 128 -37
c59.333 0 105.666 15.167 138.999 45.5s50 77.5 50 141.5v262z" />
    <glyph glyph-name="Ugrave" unicode="&#xd9;" horiz-adv-x="680" 
d="M580 721l0.000976562 -493c0 -76.667 -21.833 -135.5 -65.5 -176.5s-101.834 -61.5 -174.501 -61.5s-130.834 20.333 -174.501 61s-65.5 100 -65.5 178v492c0 4 0.833008 6.83301 2.5 8.5s4.83398 2.5 9.50098 2.5h38c8 0 12 -3.66699 12 -11v-488
c0 -62.667 16 -109 48 -139s75.333 -45 130 -45s98 15 130 45s48 76.333 48 139v488c0 7.33301 4 11 12 11h38c8 0 12 -3.66699 12 -11zM233.001 939c-3.33301 0 -5.66699 -1.33301 -7 -4s-1 -5 1 -7l99 -125c2.66699 -3.33301 5 -5.5 7 -6.5s5 -1.5 9 -1.5h30
c3.33301 0 5.83301 1.33301 7.5 4s1.16699 5.66699 -1.5 9l-89 123c-4 5.33301 -8.33301 8 -13 8h-43z" />
    <glyph glyph-name="Uacute" unicode="&#xda;" horiz-adv-x="680" 
d="M580 721l0.000976562 -493c0 -76.667 -21.833 -135.5 -65.5 -176.5s-101.834 -61.5 -174.501 -61.5s-130.834 20.333 -174.501 61s-65.5 100 -65.5 178v492c0 4 0.833008 6.83301 2.5 8.5s4.83398 2.5 9.50098 2.5h38c8 0 12 -3.66699 12 -11v-488
c0 -62.667 16 -109 48 -139s75.333 -45 130 -45s98 15 130 45s48 76.333 48 139v488c0 7.33301 4 11 12 11h38c8 0 12 -3.66699 12 -11zM303.001 808c-2 -2 -3.00098 -4 -3.00098 -6s0.833008 -3.66699 2.5 -5s3.5 -2 5.5 -2h30c4 0 7 0.5 9 1.5s4.33301 3.16699 7 6.5
l99 125l2 4c0 4.66699 -2.66699 7 -8 7h-42c-5.33301 0 -9.66602 -2.66699 -12.999 -8z" />
    <glyph glyph-name="Ucircumflex" unicode="&#xdb;" horiz-adv-x="680" 
d="M580 721l0.000976562 -493c0 -76.667 -21.833 -135.5 -65.5 -176.5s-101.834 -61.5 -174.501 -61.5s-130.834 20.333 -174.501 61s-65.5 100 -65.5 178v492c0 4 0.833008 6.83301 2.5 8.5s4.83398 2.5 9.50098 2.5h38c8 0 12 -3.66699 12 -11v-488
c0 -62.667 16 -109 48 -139s75.333 -45 130 -45s98 15 130 45s48 76.333 48 139v488c0 7.33301 4 11 12 11h38c8 0 12 -3.66699 12 -11zM469.001 803c0 -5.33301 -3 -8 -9 -8h-34c-4.66699 0 -8.66699 2.66699 -12 8l-73 99l-73 -99c-3.33301 -5.33301 -7.33301 -8 -12 -8
h-34c-6 0 -9 2.66699 -9 8c0 2 1.33301 4.66699 4 8l91 121c4 4.66699 8.66699 7 14 7h38c3.33301 0 6 -0.666992 8 -2s4 -3 6 -5l91 -121c2.66699 -3.33301 4 -6 4 -8z" />
    <glyph glyph-name="Udieresis" unicode="&#xdc;" horiz-adv-x="680" 
d="M580 721l0.000976562 -493c0 -76.667 -21.833 -135.5 -65.5 -176.5s-101.834 -61.5 -174.501 -61.5s-130.834 20.333 -174.501 61s-65.5 100 -65.5 178v492c0 4 0.833008 6.83301 2.5 8.5s4.83398 2.5 9.50098 2.5h38c8 0 12 -3.66699 12 -11v-488
c0 -62.667 16 -109 48 -139s75.333 -45 130 -45s98 15 130 45s48 76.333 48 139v488c0 7.33301 4 11 12 11h38c8 0 12 -3.66699 12 -11zM279.001 907v-82c0 -4 -1 -6.83301 -3 -8.5s-5.33301 -2.5 -10 -2.5h-29c-4.66699 0 -8 0.833008 -10 2.5s-3 4.5 -3 8.5v82
c0 7.33301 4.33301 11 13 11h29c8.66699 0 13 -3.66699 13 -11zM459.001 907v-82c0 -4 -1 -6.83301 -3 -8.5s-5.33301 -2.5 -10 -2.5h-29c-4.66699 0 -8 0.833008 -10 2.5s-3 4.5 -3 8.5v82c0 7.33301 4.33301 11 13 11h29c8.66699 0 13 -3.66699 13 -11z" />
    <glyph glyph-name="Yacute" unicode="&#xdd;" horiz-adv-x="594" 
d="M557 727c1.33301 -3.33301 1 -6.66699 -1 -10l-228 -408v-298c0 -7.33301 -3.66699 -11 -11 -11h-40c-7.33301 0 -11 3.66699 -11 11v296l-229 410c-1.33301 1.33301 -2 3.33301 -2 6c0 6 3 9 9 9h47c6 0 10.667 -3.33301 14 -10l193 -352l191 352
c2.66699 3.33301 5 5.83301 7 7.5s4.66699 2.5 8 2.5h44c4.66699 0 7.66699 -1.66699 9 -5zM262 807.999c-2 -2 -3.00098 -4 -3.00098 -6s0.833008 -3.66699 2.5 -5s3.5 -2 5.5 -2h30c4 0 7 0.5 9 1.5s4.33301 3.16699 7 6.5l99 125l2 4c0 4.66699 -2.66699 7 -8 7h-42
c-5.33301 0 -9.66602 -2.66699 -12.999 -8z" />
    <glyph glyph-name="Thorn" unicode="&#xde;" horiz-adv-x="583" 
d="M466 543.5c36 -36.333 54 -87.833 54 -154.5v-40c0 -68 -18.167 -120.667 -54.5 -158s-92.5 -56 -168.5 -56h-130v-125c0 -6.66699 -4 -10 -12 -10h-38c-8 -0 -12 3.33301 -12 10v713c0 7.33301 4 11 12 11h38c8 0 12 -3.66699 12 -11v-125h130
c76.667 0 133 -18.167 169 -54.5zM420 502c-25.333 25.333 -67.666 38.001 -126.999 38.001h-126v-347h126c59.333 0 101.666 13.333 126.999 40s38 67 38 121v30c0 53.333 -12.667 92.666 -38 117.999z" />
    <glyph glyph-name="germandbls" unicode="&#xdf;" horiz-adv-x="601" 
d="M496 337c26 -30.667 39 -71.333 39 -122v-21c0 -38.667 -8.66699 -73.334 -26 -104.001s-43 -55 -77 -73s-74.667 -27 -122 -27c-20.667 0 -44 2.33301 -70 7c-4.66699 2.66699 -6.66699 6.33398 -6 11.001l7 36c1.33301 5.33301 4.66602 7.33301 9.99902 6
c18.667 -3.33301 37.667 -5 57 -5c52.667 0 93.834 13.833 123.501 41.5s44.5 64.5 44.5 110.5v18c0 94 -57 143 -171 147c-6.66699 0 -10 2.66699 -10 8v44c0 5.33301 3.33301 8 10 8c32 1.33301 61.667 11.833 89 31.5s41 53.167 41 100.5v23c0 36 -13 65.833 -39 89.5
s-60.333 35.5 -103 35.5s-76.834 -12.167 -102.501 -36.5s-38.5 -54.833 -38.5 -91.5v-565c0 -6 -2.66699 -9 -8 -9h-43c-5.33301 0 -8 3 -8 9v564c0 33.333 7.83301 64 23.5 92s38.667 50.333 69 67s66.5 25 108.5 25c41.333 0 77 -8.16699 107 -24.5s53 -38 69 -65
s24 -56.167 24 -87.5v-26c0 -40 -9.66699 -73.333 -29 -100s-45.666 -45.667 -78.999 -57c47.333 -9.33301 84 -29.333 110 -60z" />
    <glyph glyph-name="agrave" unicode="&#xe0;" horiz-adv-x="546" 
d="M406.5 515.5c33.667 -27 50.5 -67.1689 50.5 -120.502v-385c0 -6.66699 -4 -10 -12 -10h-34c-8 0 -12 3.33301 -12 10v78c-18 -30.667 -41.833 -54.667 -71.5 -72s-62.167 -26 -97.5 -26c-52 0 -93.167 14.667 -123.5 44s-45.5 67 -45.5 113c0 97.333 63.667 152 191 164
c26 2 50 3 72 3c25.333 0 50 -1 74 -3v77c0 39.333 -11.167 68.5 -33.5 87.5s-53.5 28.5 -93.5 28.5c-37.333 0 -66 -6.66699 -86 -20s-34.333 -34.666 -43 -63.999c-2.66699 -6.66699 -8 -9 -16 -7l-32 9c-8.66699 2 -12 6.66699 -10 14c10 38.667 30.667 68.334 62 89.001
s73.333 31 126 31c56 0 100.833 -13.5 134.5 -40.5zM333 72.998c27.333 20 49 47.667 65 83v108c-32 1.33301 -56 2 -72 2c-21.333 0 -44 -1 -68 -3c-44.667 -4.66699 -79 -16 -103 -34s-36 -44.333 -36 -79c0 -32 10.333 -57.833 31 -77.5s49.667 -29.5 87 -29.5
c36.667 0 68.667 10 96 30zM173 755.998c-3.33301 0 -5.66699 -1.33301 -7 -4s-1 -5 1 -7l99 -125c2.66699 -3.33301 5 -5.5 7 -6.5s5 -1.5 9 -1.5h30c3.33301 0 5.83301 1.33301 7.5 4s1.16699 5.66699 -1.5 9l-89 123c-4 5.33301 -8.33301 8 -13 8h-43z" />
    <glyph glyph-name="aacute" unicode="&#xe1;" horiz-adv-x="546" 
d="M406.5 515.5c33.667 -27 50.5 -67.1689 50.5 -120.502v-385c0 -6.66699 -4 -10 -12 -10h-34c-8 0 -12 3.33301 -12 10v78c-18 -30.667 -41.833 -54.667 -71.5 -72s-62.167 -26 -97.5 -26c-52 0 -93.167 14.667 -123.5 44s-45.5 67 -45.5 113c0 97.333 63.667 152 191 164
c26 2 50 3 72 3c25.333 0 50 -1 74 -3v77c0 39.333 -11.167 68.5 -33.5 87.5s-53.5 28.5 -93.5 28.5c-37.333 0 -66 -6.66699 -86 -20s-34.333 -34.666 -43 -63.999c-2.66699 -6.66699 -8 -9 -16 -7l-32 9c-8.66699 2 -12 6.66699 -10 14c10 38.667 30.667 68.334 62 89.001
s73.333 31 126 31c56 0 100.833 -13.5 134.5 -40.5zM333 72.998c27.333 20 49 47.667 65 83v108c-32 1.33301 -56 2 -72 2c-21.333 0 -44 -1 -68 -3c-44.667 -4.66699 -79 -16 -103 -34s-36 -44.333 -36 -79c0 -32 10.333 -57.833 31 -77.5s49.667 -29.5 87 -29.5
c36.667 0 68.667 10 96 30zM242 624.998c-2 -2 -3.00098 -4 -3.00098 -6s0.833008 -3.66699 2.5 -5s3.5 -2 5.5 -2h30c4 0 7 0.5 9 1.5s4.33301 3.16699 7 6.5l99 125l2 4c0 4.66699 -2.66699 7 -8 7h-42c-5.33301 0 -9.66602 -2.66699 -12.999 -8z" />
    <glyph glyph-name="acircumflex" unicode="&#xe2;" horiz-adv-x="546" 
d="M406.5 515.5c33.667 -27 50.5 -67.1689 50.5 -120.502v-385c0 -6.66699 -4 -10 -12 -10h-34c-8 0 -12 3.33301 -12 10v78c-18 -30.667 -41.833 -54.667 -71.5 -72s-62.167 -26 -97.5 -26c-52 0 -93.167 14.667 -123.5 44s-45.5 67 -45.5 113c0 97.333 63.667 152 191 164
c26 2 50 3 72 3c25.333 0 50 -1 74 -3v77c0 39.333 -11.167 68.5 -33.5 87.5s-53.5 28.5 -93.5 28.5c-37.333 0 -66 -6.66699 -86 -20s-34.333 -34.666 -43 -63.999c-2.66699 -6.66699 -8 -9 -16 -7l-32 9c-8.66699 2 -12 6.66699 -10 14c10 38.667 30.667 68.334 62 89.001
s73.333 31 126 31c56 0 100.833 -13.5 134.5 -40.5zM333 72.998c27.333 20 49 47.667 65 83v108c-32 1.33301 -56 2 -72 2c-21.333 0 -44 -1 -68 -3c-44.667 -4.66699 -79 -16 -103 -34s-36 -44.333 -36 -79c0 -32 10.333 -57.833 31 -77.5s49.667 -29.5 87 -29.5
c36.667 0 68.667 10 96 30zM408 619.998c0 -5.33301 -3 -8 -9 -8h-34c-4.66699 0 -8.66699 2.66699 -12 8l-73 99l-73 -99c-3.33301 -5.33301 -7.33301 -8 -12 -8h-34c-6 0 -9 2.66699 -9 8c0 2 1.33301 4.66699 4 8l91 121c4 4.66699 8.66699 7 14 7h38
c3.33301 0 6 -0.666992 8 -2s4 -3 6 -5l91 -121c2.66699 -3.33301 4 -6 4 -8z" />
    <glyph glyph-name="atilde" unicode="&#xe3;" horiz-adv-x="546" 
d="M406.5 515.5c33.667 -27 50.5 -67.1689 50.5 -120.502v-385c0 -6.66699 -4 -10 -12 -10h-34c-8 0 -12 3.33301 -12 10v78c-18 -30.667 -41.833 -54.667 -71.5 -72s-62.167 -26 -97.5 -26c-52 0 -93.167 14.667 -123.5 44s-45.5 67 -45.5 113c0 97.333 63.667 152 191 164
c26 2 50 3 72 3c25.333 0 50 -1 74 -3v77c0 39.333 -11.167 68.5 -33.5 87.5s-53.5 28.5 -93.5 28.5c-37.333 0 -66 -6.66699 -86 -20s-34.333 -34.666 -43 -63.999c-2.66699 -6.66699 -8 -9 -16 -7l-32 9c-8.66699 2 -12 6.66699 -10 14c10 38.667 30.667 68.334 62 89.001
s73.333 31 126 31c56 0 100.833 -13.5 134.5 -40.5zM333 72.998c27.333 20 49 47.667 65 83v108c-32 1.33301 -56 2 -72 2c-21.333 0 -44 -1 -68 -3c-44.667 -4.66699 -79 -16 -103 -34s-36 -44.333 -36 -79c0 -32 10.333 -57.833 31 -77.5s49.667 -29.5 87 -29.5
c36.667 0 68.667 10 96 30zM260.5 713.998c10.333 -4.66699 22.168 -11.3359 35.501 -20.0029c11.333 -7.33301 20.166 -12.5 26.499 -15.5s13.166 -4.5 20.499 -4.5c18 0 33.333 11.333 46 34c3.33301 5.33301 7.33301 6.33301 12 3l23 -14
c4.66699 -2 5.66699 -5.33301 3 -10c-6.66699 -17.333 -17.667 -31.666 -33 -42.999s-32.666 -17 -51.999 -17c-12 0 -23.167 2.33301 -33.5 7s-21.833 11.334 -34.5 20.001c-11.333 7.33301 -20.166 12.5 -26.499 15.5s-13.166 4.5 -20.499 4.5
c-18 0 -33.667 -11.667 -47 -35c-2.66699 -4.66699 -6.33398 -5.66699 -11.001 -3l-23 15c-4 2.66699 -4.66699 6.33398 -2 11.001c7.33301 16.667 18.166 30.667 32.499 42s30.833 17 49.5 17c12.667 0 24.167 -2.33301 34.5 -7z" />
    <glyph glyph-name="adieresis" unicode="&#xe4;" horiz-adv-x="546" 
d="M406.5 515.5c33.667 -27 50.5 -67.1689 50.5 -120.502v-385c0 -6.66699 -4 -10 -12 -10h-34c-8 0 -12 3.33301 -12 10v78c-18 -30.667 -41.833 -54.667 -71.5 -72s-62.167 -26 -97.5 -26c-52 0 -93.167 14.667 -123.5 44s-45.5 67 -45.5 113c0 97.333 63.667 152 191 164
c26 2 50 3 72 3c25.333 0 50 -1 74 -3v77c0 39.333 -11.167 68.5 -33.5 87.5s-53.5 28.5 -93.5 28.5c-37.333 0 -66 -6.66699 -86 -20s-34.333 -34.666 -43 -63.999c-2.66699 -6.66699 -8 -9 -16 -7l-32 9c-8.66699 2 -12 6.66699 -10 14c10 38.667 30.667 68.334 62 89.001
s73.333 31 126 31c56 0 100.833 -13.5 134.5 -40.5zM333 72.998c27.333 20 49 47.667 65 83v108c-32 1.33301 -56 2 -72 2c-21.333 0 -44 -1 -68 -3c-44.667 -4.66699 -79 -16 -103 -34s-36 -44.333 -36 -79c0 -32 10.333 -57.833 31 -77.5s49.667 -29.5 87 -29.5
c36.667 0 68.667 10 96 30zM218 723.998v-82c0 -4 -1 -6.83301 -3 -8.5s-5.33301 -2.5 -10 -2.5h-29c-4.66699 0 -8 0.833008 -10 2.5s-3 4.5 -3 8.5v82c0 7.33301 4.33301 11 13 11h29c8.66699 0 13 -3.66699 13 -11zM398 723.998v-82c0 -4 -1 -6.83301 -3 -8.5
s-5.33301 -2.5 -10 -2.5h-29c-4.66699 0 -8 0.833008 -10 2.5s-3 4.5 -3 8.5v82c0 7.33301 4.33301 11 13 11h29c8.66699 0 13 -3.66699 13 -11z" />
    <glyph glyph-name="aring" unicode="&#xe5;" horiz-adv-x="546" 
d="M406.5 515.5c33.667 -27 50.5 -67.1689 50.5 -120.502v-385c0 -6.66699 -4 -10 -12 -10h-34c-8 0 -12 3.33301 -12 10v78c-18 -30.667 -41.833 -54.667 -71.5 -72s-62.167 -26 -97.5 -26c-52 0 -93.167 14.667 -123.5 44s-45.5 67 -45.5 113c0 97.333 63.667 152 191 164
c26 2 50 3 72 3c25.333 0 50 -1 74 -3v77c0 39.333 -11.167 68.5 -33.5 87.5s-53.5 28.5 -93.5 28.5c-37.333 0 -66 -6.66699 -86 -20s-34.333 -34.666 -43 -63.999c-2.66699 -6.66699 -8 -9 -16 -7l-32 9c-8.66699 2 -12 6.66699 -10 14c10 38.667 30.667 68.334 62 89.001
s73.333 31 126 31c56 0 100.833 -13.5 134.5 -40.5zM333 72.998c27.333 20 49 47.667 65 83v108c-32 1.33301 -56 2 -72 2c-21.333 0 -44 -1 -68 -3c-44.667 -4.66699 -79 -16 -103 -34s-36 -44.333 -36 -79c0 -32 10.333 -57.833 31 -77.5s49.667 -29.5 87 -29.5
c36.667 0 68.667 10 96 30zM208.5 616.498c-20.333 19.667 -30.501 43.167 -30.501 70.5c0 28 10 51.833 30 71.5s44 29.5 72 29.5c27.333 0 51 -9.83301 71 -29.5s30 -43.5 30 -71.5c0 -27.333 -10 -50.833 -30 -70.5s-43.667 -29.5 -71 -29.5
s-51.166 9.83301 -71.499 29.5zM322.499 644.498c11.667 11.667 17.5 25.834 17.5 42.501s-5.83301 31 -17.5 43s-25.834 18 -42.501 18s-31 -6 -43 -18s-18 -26.333 -18 -43s6 -30.834 18 -42.501s26.333 -17.5 43 -17.5s30.834 5.83301 42.501 17.5z" />
    <glyph glyph-name="ae" unicode="&#xe6;" horiz-adv-x="870" 
d="M449 258l0.00195312 -58.999c0 -51.333 13 -90.166 39 -116.499s63.667 -39.5 113 -39.5c40 0 70.667 7 92 21s37.666 33.667 48.999 59c2.66699 5.33301 6.33398 8 11.001 8c3.33301 0 6 -0.666992 8 -2l25 -13c8.66699 -4 10.667 -9.66699 6 -17
c-14.667 -34 -37.667 -60.667 -69 -80s-71.666 -29 -120.999 -29c-48.667 0 -89.334 10 -122.001 30s-56.667 48 -72 84c-18 -34.667 -43.333 -62.334 -76 -83.001s-69 -31 -109 -31c-49.333 0 -88.5 14.333 -117.5 43s-43.5 65.667 -43.5 111
c0 48.667 16.167 86.167 48.5 112.5s78.5 42.166 138.5 47.499c26 2 49.667 3 71 3c16.667 0 40.334 -0.666992 71.001 -2v82c0 40 -10.833 69.5 -32.5 88.5s-51.834 28.5 -90.501 28.5c-37.333 0 -65.833 -6.66699 -85.5 -20s-33.167 -34.666 -40.5 -63.999
c-2.66699 -6.66699 -8 -9 -16 -7l-32 9c-8.66699 2 -12 6.66699 -10 14c10.667 38 31.167 67.5 61.5 88.5s70.166 31.5 119.499 31.5c40 0 74 -7.83301 102 -23.5s48.333 -39.5 61 -71.5c15.333 31.333 37.666 55.166 66.999 71.499s64 24.5 104 24.5
c62 0 110.833 -18.667 146.5 -56s53.5 -87 53.5 -149v-72c0 -14.667 -8.33301 -22 -25 -22h-325zM488.002 464.501c-26 -26.333 -39 -64.832 -39 -115.499v-44h292v46c0 49.333 -12.5 87.166 -37.5 113.499s-60.167 39.5 -105.5 39.5c-47.333 0 -84 -13.167 -110 -39.5z
M327.502 73.502c27 20.333 49.165 49.167 66.498 86.5c-1.33301 6.66699 -2.16602 12.334 -2.49902 17.001s-0.5 8.66699 -0.5 12v70c-29.333 1.33301 -52.666 2 -69.999 2c-20.667 0 -43 -1 -67 -3c-43.333 -4.66699 -76.5 -15.834 -99.5 -33.501s-34.5 -43.5 -34.5 -77.5
c0 -31.333 10 -56.5 30 -75.5s48.333 -28.5 85 -28.5c34.667 0 65.5 10.167 92.5 30.5z" />
    <glyph glyph-name="ccedilla" unicode="&#xe7;" horiz-adv-x="523" 
d="M464.5 127.5c1 -2.33301 0.833984 -5.49805 -0.499023 -9.49805c-11.333 -37.333 -31.166 -67.333 -59.499 -90s-64.833 -35.334 -109.5 -38.001l-9 -36c24 -4.66699 42.833 -14.167 56.5 -28.5s20.5 -31.833 20.5 -52.5c0 -26 -9.66699 -47.167 -29 -63.5
s-44 -24.5 -74 -24.5c-22 0 -41 4 -57 12c-4.66699 2 -6.33398 6 -5.00098 12l7 25c2 6 6.33301 7.66699 13 5c14.667 -6 29 -9 43 -9c15.333 0 27.666 4 36.999 12s14 18.667 14 32s-5.33301 23.833 -16 31.5s-26 12.167 -46 13.5c-6 0 -8.66699 3 -8 9l15 62
c-57.333 4.66699 -101.833 25.167 -133.5 61.5s-47.5 84.166 -47.5 143.499v156c0 62.667 17.833 112.667 53.5 150s84.834 56 147.501 56c48.667 0 88.667 -11.5 120 -34.5s53.333 -54.833 66 -95.5c0.666992 -1.33301 1 -3 1 -5c0 -4 -3 -7.33301 -9 -10l-32 -10l-6 -2
c-2.66699 0 -5.66699 3 -9 9c-8.66699 28.667 -23.167 51.334 -43.5 68.001s-48.833 25 -85.5 25c-45.333 0 -80.5 -13.167 -105.5 -39.5s-37.5 -64.5 -37.5 -114.5v-150c0 -50 12.5 -87.833 37.5 -113.5s60.167 -38.834 105.5 -39.501c36.667 0 65.167 7.83301 85.5 23.5
s35.833 39.167 46.5 70.5c1.33301 3.33301 3.16602 5.5 5.49902 6.5s5.83301 0.833008 10.5 -0.5l30 -11c4 -2 6.5 -4.16699 7.5 -6.5z" />
    <glyph glyph-name="egrave" unicode="&#xe8;" horiz-adv-x="555" 
d="M134 253l0.00195312 -56.9971c0 -50 13.167 -87.833 39.5 -113.5s63.833 -38.834 112.5 -39.501c40 0 70.667 6.83301 92 20.5s37.666 33.5 48.999 59.5c2.66699 5.33301 6.33398 8 11.001 8c3.33301 0 6 -0.666992 8 -2l25 -13c8.66699 -4 10.667 -9.66699 6 -17
c-14.667 -34 -37.834 -60.667 -69.501 -80s-72.167 -29 -121.5 -29c-66.667 0 -118.334 18.5 -155.001 55.5s-55 86.833 -55 149.5v156c0 62.667 18 112.5 54 149.5s86.333 55.833 151 56.5c64 -0.666992 113.833 -19.334 149.5 -56.001s53.5 -86.334 53.5 -149.001v-77
c0 -14.667 -8.33301 -22 -25 -22h-325zM173.002 464.003c-26 -26 -39 -63.667 -39 -113v-52h292v52c0 49.333 -12.833 87 -38.5 113s-61.5 39.333 -107.5 40c-45.333 -0.666992 -81 -14 -107 -40zM172.002 756.003c-3.33301 0 -5.66699 -1.33301 -7 -4s-1 -5 1 -7l99 -125
c2.66699 -3.33301 5 -5.5 7 -6.5s5 -1.5 9 -1.5h30c3.33301 0 5.83301 1.33301 7.5 4s1.16699 5.66699 -1.5 9l-89 123c-4 5.33301 -8.33301 8 -13 8h-43z" />
    <glyph glyph-name="eacute" unicode="&#xe9;" horiz-adv-x="555" 
d="M134 253l0.00195312 -56.9971c0 -50 13.167 -87.833 39.5 -113.5s63.833 -38.834 112.5 -39.501c40 0 70.667 6.83301 92 20.5s37.666 33.5 48.999 59.5c2.66699 5.33301 6.33398 8 11.001 8c3.33301 0 6 -0.666992 8 -2l25 -13c8.66699 -4 10.667 -9.66699 6 -17
c-14.667 -34 -37.834 -60.667 -69.501 -80s-72.167 -29 -121.5 -29c-66.667 0 -118.334 18.5 -155.001 55.5s-55 86.833 -55 149.5v156c0 62.667 18 112.5 54 149.5s86.333 55.833 151 56.5c64 -0.666992 113.833 -19.334 149.5 -56.001s53.5 -86.334 53.5 -149.001v-77
c0 -14.667 -8.33301 -22 -25 -22h-325zM173.002 464.003c-26 -26 -39 -63.667 -39 -113v-52h292v52c0 49.333 -12.833 87 -38.5 113s-61.5 39.333 -107.5 40c-45.333 -0.666992 -81 -14 -107 -40zM242.002 625.003c-2 -2 -3.00098 -4 -3.00098 -6s0.833008 -3.66699 2.5 -5
s3.5 -2 5.5 -2h30c4 0 7 0.5 9 1.5s4.33301 3.16699 7 6.5l99 125l2 4c0 4.66699 -2.66699 7 -8 7h-42c-5.33301 0 -9.66602 -2.66699 -12.999 -8z" />
    <glyph glyph-name="ecircumflex" unicode="&#xea;" horiz-adv-x="555" 
d="M134 253l0.00195312 -56.9971c0 -50 13.167 -87.833 39.5 -113.5s63.833 -38.834 112.5 -39.501c40 0 70.667 6.83301 92 20.5s37.666 33.5 48.999 59.5c2.66699 5.33301 6.33398 8 11.001 8c3.33301 0 6 -0.666992 8 -2l25 -13c8.66699 -4 10.667 -9.66699 6 -17
c-14.667 -34 -37.834 -60.667 -69.501 -80s-72.167 -29 -121.5 -29c-66.667 0 -118.334 18.5 -155.001 55.5s-55 86.833 -55 149.5v156c0 62.667 18 112.5 54 149.5s86.333 55.833 151 56.5c64 -0.666992 113.833 -19.334 149.5 -56.001s53.5 -86.334 53.5 -149.001v-77
c0 -14.667 -8.33301 -22 -25 -22h-325zM173.002 464.003c-26 -26 -39 -63.667 -39 -113v-52h292v52c0 49.333 -12.833 87 -38.5 113s-61.5 39.333 -107.5 40c-45.333 -0.666992 -81 -14 -107 -40zM408.002 620.003c0 -5.33301 -3 -8 -9 -8h-34
c-4.66699 0 -8.66699 2.66699 -12 8l-73 99l-73 -99c-3.33301 -5.33301 -7.33301 -8 -12 -8h-34c-6 0 -9 2.66699 -9 8c0 2 1.33301 4.66699 4 8l91 121c4 4.66699 8.66699 7 14 7h38c3.33301 0 6 -0.666992 8 -2s4 -3 6 -5l91 -121c2.66699 -3.33301 4 -6 4 -8z" />
    <glyph glyph-name="edieresis" unicode="&#xeb;" horiz-adv-x="555" 
d="M134 253l0.00195312 -56.9971c0 -50 13.167 -87.833 39.5 -113.5s63.833 -38.834 112.5 -39.501c40 0 70.667 6.83301 92 20.5s37.666 33.5 48.999 59.5c2.66699 5.33301 6.33398 8 11.001 8c3.33301 0 6 -0.666992 8 -2l25 -13c8.66699 -4 10.667 -9.66699 6 -17
c-14.667 -34 -37.834 -60.667 -69.501 -80s-72.167 -29 -121.5 -29c-66.667 0 -118.334 18.5 -155.001 55.5s-55 86.833 -55 149.5v156c0 62.667 18 112.5 54 149.5s86.333 55.833 151 56.5c64 -0.666992 113.833 -19.334 149.5 -56.001s53.5 -86.334 53.5 -149.001v-77
c0 -14.667 -8.33301 -22 -25 -22h-325zM173.002 464.003c-26 -26 -39 -63.667 -39 -113v-52h292v52c0 49.333 -12.833 87 -38.5 113s-61.5 39.333 -107.5 40c-45.333 -0.666992 -81 -14 -107 -40zM218.002 724.003v-82c0 -4 -1 -6.83301 -3 -8.5s-5.33301 -2.5 -10 -2.5h-29
c-4.66699 0 -8 0.833008 -10 2.5s-3 4.5 -3 8.5v82c0 7.33301 4.33301 11 13 11h29c8.66699 0 13 -3.66699 13 -11zM398.002 724.003v-82c0 -4 -1 -6.83301 -3 -8.5s-5.33301 -2.5 -10 -2.5h-29c-4.66699 0 -8 0.833008 -10 2.5s-3 4.5 -3 8.5v82
c0 7.33301 4.33301 11 13 11h29c8.66699 0 13 -3.66699 13 -11z" />
    <glyph glyph-name="igrave" unicode="&#xec;" horiz-adv-x="245" 
d="M152 537v-527c0 -6.66699 -4 -10 -12 -10h-36c-7.33301 -0 -11 3.33301 -11 10v527c0 6.66699 3.66699 10 11 10h36c8 0 12 -3.33301 12 -10zM15 757c-3.33301 0 -5.66699 -1.33301 -7 -4s-1 -5 1 -7l99 -125c2.66699 -3.33301 5 -5.5 7 -6.5s5 -1.5 9 -1.5h30
c3.33301 0 5.83301 1.33301 7.5 4s1.16699 5.66699 -1.5 9l-89 123c-4 5.33301 -8.33301 8 -13 8h-43z" />
    <glyph glyph-name="iacute" unicode="&#xed;" horiz-adv-x="245" 
d="M152 537v-527c0 -6.66699 -4 -10 -12 -10h-36c-7.33301 -0 -11 3.33301 -11 10v527c0 6.66699 3.66699 10 11 10h36c8 0 12 -3.33301 12 -10zM83 626c-1.33301 -2.66699 -2 -4.66699 -2 -6c0 -2 0.833008 -3.66699 2.5 -5s3.5 -2 5.5 -2h30c4 0 7 0.5 9 1.5
s4.33301 3.16699 7 6.5l99 125l2 4c0 4.66699 -2.66699 7 -8 7h-42c-5.33301 0 -10 -2.66699 -14 -8z" />
    <glyph glyph-name="icircumflex" unicode="&#xee;" horiz-adv-x="245" 
d="M152 537v-527c0 -6.66699 -4 -10 -12 -10h-36c-7.33301 -0 -11 3.33301 -11 10v527c0 6.66699 3.66699 10 11 10h36c8 0 12 -3.33301 12 -10zM250 621c0 -5.33301 -3 -8 -9 -8h-34c-4.66699 0 -8.66699 2.66699 -12 8l-73 99l-72 -99c-4.66699 -5.33301 -9 -8 -13 -8h-34
c-6 0 -9 2.66699 -9 8c0 2 1.33301 4.66699 4 8l92 121c2 2 3.83301 3.66699 5.5 5s4.16699 2 7.5 2h38c3.33301 0 6 -0.666992 8 -2s4 -3 6 -5l91 -121c2.66699 -3.33301 4 -6 4 -8z" />
    <glyph glyph-name="idieresis" unicode="&#xef;" horiz-adv-x="245" 
d="M71 725l0.000976562 -82c0 -4 -0.833008 -6.83301 -2.5 -8.5s-4.83398 -2.5 -9.50098 -2.5h-29c-4.66699 0 -8 0.833008 -10 2.5s-3 4.5 -3 8.5v82c0 7.33301 4.33301 11 13 11h29c8 0 12 -3.66699 12 -11zM229.001 725v-82c0 -4 -1 -6.83301 -3 -8.5
s-5.33301 -2.5 -10 -2.5h-29c-4.66699 0 -8 0.833008 -10 2.5s-3 4.5 -3 8.5v82c0 7.33301 4.33301 11 13 11h29c8.66699 0 13 -3.66699 13 -11zM152.001 537v-527c0 -6.66699 -4 -10 -12 -10h-36c-7.33301 -0 -11 3.33301 -11 10v527c0 6.66699 3.66699 10 11 10h36
c8 0 12 -3.33301 12 -10z" />
    <glyph glyph-name="eth" unicode="&#xf0;" horiz-adv-x="538" 
d="M464 309l-0.000976562 -130c0 -58 -16.667 -104 -50 -138s-80.666 -51 -141.999 -51c-62.667 0 -111 16.833 -145 50.5s-51 79.5 -51 137.5v131c0 56 16 101 48 135s76.333 51 133 51c26.667 0 55 -6.66699 85 -20l-70 131h-112c-4 0 -6.66699 0.833008 -8 2.5
s-2 4.83398 -2 9.50098v25c0 4.66699 0.666992 7.83398 2 9.50098s4 2.5 8 2.5h86l-41 76c-2.66699 5.33301 -2 9.33301 2 12l37 20c0.666992 0.666992 1.66699 1 3 1c4 0 6.66699 -1.66699 8 -5l55 -104h89c4 0 6.83301 -0.833008 8.5 -2.5s2.5 -4.83398 2.5 -9.50098v-25
c0 -4.66699 -0.833008 -7.83398 -2.5 -9.50098s-4.5 -2.5 -8.5 -2.5h-63l101 -190c18 -30 27 -65.667 27 -107zM403.999 306c0 44.667 -11.333 78.667 -34 102s-55 35 -97 35c-44 0 -77.833 -11.5 -101.5 -34.5s-35.5 -57.167 -35.5 -102.5v-124
c0 -44.667 11.5 -78.5 34.5 -101.5s56.167 -34.833 99.5 -35.5c42.667 0 75.667 11.667 99 35s35 57.333 35 102v124z" />
    <glyph glyph-name="ntilde" unicode="&#xf1;" horiz-adv-x="575" 
d="M218 469.5c-28.667 -21 -50.667 -48.832 -66 -83.499v-376c0 -6.66699 -4 -10 -12 -10h-36c-7.33301 0 -11 3.33301 -11 10v527c0 6.66699 3.66699 10 11 10h35c8 0 12 -3.33301 12 -10v-77c19.333 29.333 44 52.833 74 70.5s63.667 26.5 101 26.5
c50.667 0 89.834 -15.833 117.501 -47.5s41.5 -73.834 41.5 -126.501v-373c0 -6.66699 -4 -10 -12 -10h-35c-8 -0 -12 3.33301 -12 10v363c0 85.333 -38.667 128 -116 128c-32.667 0 -63.334 -10.5 -92.001 -31.5zM271.5 714.001
c10.333 -4.66699 22.168 -11.3359 35.501 -20.0029c11.333 -7.33301 20.166 -12.5 26.499 -15.5s13.166 -4.5 20.499 -4.5c18 0 33.333 11.333 46 34c3.33301 5.33301 7.33301 6.33301 12 3l23 -14c4.66699 -2 5.66699 -5.33301 3 -10
c-6.66699 -17.333 -17.667 -31.666 -33 -42.999s-32.666 -17 -51.999 -17c-12 0 -23.167 2.33301 -33.5 7s-21.833 11.334 -34.5 20.001c-11.333 7.33301 -20.166 12.5 -26.499 15.5s-13.166 4.5 -20.499 4.5c-18 0 -33.667 -11.667 -47 -35
c-2.66699 -4.66699 -6.33398 -5.66699 -11.001 -3l-23 15c-4 2.66699 -4.66699 6.33398 -2 11.001c7.33301 16.667 18.166 30.667 32.499 42s30.833 17 49.5 17c12.667 0 24.167 -2.33301 34.5 -7z" />
    <glyph glyph-name="ograve" unicode="&#xf2;" horiz-adv-x="574" 
d="M443 501.5c36.667 -37 55 -87.166 55 -150.499v-155c0 -63.333 -18.333 -113.5 -55 -150.5s-88.667 -55.5 -156 -55.5s-119.333 18.333 -156 55s-55 86.667 -55 150v155c0 63.333 18.333 113.666 55 150.999s88.667 56 156 56s119.333 -18.5 156 -55.5zM175.5 462.501
c-26.333 -26.333 -39.5 -64.5 -39.5 -114.5v-150c0 -50 13.167 -88 39.5 -114s63.5 -39 111.5 -39s85.167 13 111.5 39s39.5 64 39.5 114v150c0 50 -13.167 88.167 -39.5 114.5s-63.5 39.5 -111.5 39.5s-85.167 -13.167 -111.5 -39.5zM180 756.001
c-3.33301 0 -5.66699 -1.33301 -7 -4s-1 -5 1 -7l99 -125c2.66699 -3.33301 5 -5.5 7 -6.5s5 -1.5 9 -1.5h30c3.33301 0 5.83301 1.33301 7.5 4s1.16699 5.66699 -1.5 9l-89 123c-4 5.33301 -8.33301 8 -13 8h-43z" />
    <glyph glyph-name="oacute" unicode="&#xf3;" horiz-adv-x="574" 
d="M443 501.5c36.667 -37 55 -87.166 55 -150.499v-155c0 -63.333 -18.333 -113.5 -55 -150.5s-88.667 -55.5 -156 -55.5s-119.333 18.333 -156 55s-55 86.667 -55 150v155c0 63.333 18.333 113.666 55 150.999s88.667 56 156 56s119.333 -18.5 156 -55.5zM175.5 462.501
c-26.333 -26.333 -39.5 -64.5 -39.5 -114.5v-150c0 -50 13.167 -88 39.5 -114s63.5 -39 111.5 -39s85.167 13 111.5 39s39.5 64 39.5 114v150c0 50 -13.167 88.167 -39.5 114.5s-63.5 39.5 -111.5 39.5s-85.167 -13.167 -111.5 -39.5zM249 625.001
c-2 -2 -3.00098 -4 -3.00098 -6s0.833008 -3.66699 2.5 -5s3.5 -2 5.5 -2h30c4 0 7 0.5 9 1.5s4.33301 3.16699 7 6.5l99 125l2 4c0 4.66699 -2.66699 7 -8 7h-42c-5.33301 0 -9.66602 -2.66699 -12.999 -8z" />
    <glyph glyph-name="ocircumflex" unicode="&#xf4;" horiz-adv-x="574" 
d="M443 501.5c36.667 -37 55 -87.166 55 -150.499v-155c0 -63.333 -18.333 -113.5 -55 -150.5s-88.667 -55.5 -156 -55.5s-119.333 18.333 -156 55s-55 86.667 -55 150v155c0 63.333 18.333 113.666 55 150.999s88.667 56 156 56s119.333 -18.5 156 -55.5zM175.5 462.501
c-26.333 -26.333 -39.5 -64.5 -39.5 -114.5v-150c0 -50 13.167 -88 39.5 -114s63.5 -39 111.5 -39s85.167 13 111.5 39s39.5 64 39.5 114v150c0 50 -13.167 88.167 -39.5 114.5s-63.5 39.5 -111.5 39.5s-85.167 -13.167 -111.5 -39.5zM415 620.001c0 -5.33301 -3 -8 -9 -8
h-34c-4.66699 0 -8.66699 2.66699 -12 8l-73 99l-73 -99c-3.33301 -5.33301 -7.33301 -8 -12 -8h-34c-6 0 -9 2.66699 -9 8c0 2 1.33301 4.66699 4 8l91 121c4 4.66699 8.66699 7 14 7h38c3.33301 0 6 -0.666992 8 -2s4 -3 6 -5l91 -121c2.66699 -3.33301 4 -6 4 -8z" />
    <glyph glyph-name="otilde" unicode="&#xf5;" horiz-adv-x="574" 
d="M443 501.5c36.667 -37 55 -87.166 55 -150.499v-155c0 -63.333 -18.333 -113.5 -55 -150.5s-88.667 -55.5 -156 -55.5s-119.333 18.333 -156 55s-55 86.667 -55 150v155c0 63.333 18.333 113.666 55 150.999s88.667 56 156 56s119.333 -18.5 156 -55.5zM175.5 462.501
c-26.333 -26.333 -39.5 -64.5 -39.5 -114.5v-150c0 -50 13.167 -88 39.5 -114s63.5 -39 111.5 -39s85.167 13 111.5 39s39.5 64 39.5 114v150c0 50 -13.167 88.167 -39.5 114.5s-63.5 39.5 -111.5 39.5s-85.167 -13.167 -111.5 -39.5zM267.5 714.001
c10.333 -4.66699 22.168 -11.3359 35.501 -20.0029c11.333 -7.33301 20.166 -12.5 26.499 -15.5s13.166 -4.5 20.499 -4.5c18 0 33.333 11.333 46 34c3.33301 5.33301 7.33301 6.33301 12 3l23 -14c4.66699 -2 5.66699 -5.33301 3 -10
c-6.66699 -17.333 -17.667 -31.666 -33 -42.999s-32.666 -17 -51.999 -17c-12 0 -23.167 2.33301 -33.5 7s-21.833 11.334 -34.5 20.001c-11.333 7.33301 -20.166 12.5 -26.499 15.5s-13.166 4.5 -20.499 4.5c-18 0 -33.667 -11.667 -47 -35
c-2.66699 -4.66699 -6.33398 -5.66699 -11.001 -3l-23 15c-4 2.66699 -4.66699 6.33398 -2 11.001c7.33301 16.667 18.166 30.667 32.499 42s30.833 17 49.5 17c12.667 0 24.167 -2.33301 34.5 -7z" />
    <glyph glyph-name="odieresis" unicode="&#xf6;" horiz-adv-x="574" 
d="M443 501.5c36.667 -37 55 -87.166 55 -150.499v-155c0 -63.333 -18.333 -113.5 -55 -150.5s-88.667 -55.5 -156 -55.5s-119.333 18.333 -156 55s-55 86.667 -55 150v155c0 63.333 18.333 113.666 55 150.999s88.667 56 156 56s119.333 -18.5 156 -55.5zM175.5 462.501
c-26.333 -26.333 -39.5 -64.5 -39.5 -114.5v-150c0 -50 13.167 -88 39.5 -114s63.5 -39 111.5 -39s85.167 13 111.5 39s39.5 64 39.5 114v150c0 50 -13.167 88.167 -39.5 114.5s-63.5 39.5 -111.5 39.5s-85.167 -13.167 -111.5 -39.5zM225 724.001v-82
c0 -4 -1 -6.83301 -3 -8.5s-5.33301 -2.5 -10 -2.5h-29c-4.66699 0 -8 0.833008 -10 2.5s-3 4.5 -3 8.5v82c0 7.33301 4.33301 11 13 11h29c8.66699 0 13 -3.66699 13 -11zM405 724.001v-82c0 -4 -1 -6.83301 -3 -8.5s-5.33301 -2.5 -10 -2.5h-29
c-4.66699 0 -8 0.833008 -10 2.5s-3 4.5 -3 8.5v82c0 7.33301 4.33301 11 13 11h29c8.66699 0 13 -3.66699 13 -11z" />
    <glyph glyph-name="divide" unicode="&#xf7;" 
d="M325 555v-122c0 -9.33301 -4.33301 -14 -13 -14h-34c-8 0 -12 4.33301 -12 13v123c0 9.33301 4 14 12 14h34c8.66699 0 13 -4.66699 13 -14zM529 331.5c1.33301 -1.66699 2 -4.83301 2 -9.5v-34c0 -4 -0.666992 -6.83301 -2 -8.5s-4 -2.5 -8 -2.5h-453
c-6.66699 0 -10 3.66699 -10 11v34c0 8 3.33301 12 10 12h453c4 0 6.66699 -0.833008 8 -2.5zM325 177.001v-122c0 -9.33301 -4.33301 -14 -13 -14h-34c-8 0 -12 4.33301 -12 13v123c0 9.33301 4 14 12 14h34c8.66699 0 13 -4.66699 13 -14z" />
    <glyph glyph-name="oslash" unicode="&#xf8;" horiz-adv-x="574" 
d="M501.5 592.5c1.66699 -3 1.16602 -6.5 -1.50098 -10.5l-51 -86c32.667 -36.667 49 -85 49 -145v-155c0 -63.333 -18.333 -113.5 -55 -150.5s-88.667 -55.5 -156 -55.5c-50.667 0 -92.667 10.667 -126 32l-33 -55c-2 -3.33301 -4 -5.66602 -6 -6.99902s-5 -2 -9 -2h-23
c-4.66699 0 -7.83398 1.5 -9.50098 4.5s-1.16699 6.83301 1.5 11.5l45 75c-34 37.333 -51 86 -51 146v155c0 63.333 18.333 113.666 55 150.999s88.667 56 156 56c50.667 0 93.334 -11 128.001 -33l39 65c2.66699 5.33301 7.66699 8 15 8h23
c4.66699 0 7.83398 -1.5 9.50098 -4.5zM133.999 197c0 -40 8.66699 -72.332 26 -96.999l226 376c-26 18.667 -59 28 -99 28c-48 0 -85.5 -13.333 -112.5 -40s-40.5 -65.334 -40.5 -116.001v-151zM439.999 348.001c0 38.667 -8.33301 71 -25 97l-226 -375
c25.333 -18 58 -27 98 -27c48 0 85.5 13.167 112.5 39.5s40.5 64.5 40.5 114.5v151z" />
    <glyph glyph-name="ugrave" unicode="&#xf9;" horiz-adv-x="575" 
d="M130.5 37.5c-27.667 31.667 -41.5 73.5 -41.5 125.5v374c0 6.66699 4 10 12 10h36c8 0 12 -3.33301 12 -10v-363c0 -85.333 38.333 -128 115 -128c33.333 0 64.333 10.5 93 31.5s50.667 48.833 66 83.5v376c0 6.66699 3.66699 10 11 10h36c8 0 12 -3.33301 12 -10v-527
c0 -6.66699 -4 -10 -12 -10h-35c-8 -0 -12 3.33301 -12 10v77c-19.333 -29.333 -43.833 -52.833 -73.5 -70.5s-63.167 -26.5 -100.5 -26.5c-51.333 0 -90.833 15.833 -118.5 47.5zM179 757c-3.33301 0 -5.66699 -1.33301 -7 -4s-1 -5 1 -7l99 -125
c2.66699 -3.33301 5 -5.5 7 -6.5s5 -1.5 9 -1.5h30c3.33301 0 5.83301 1.33301 7.5 4s1.16699 5.66699 -1.5 9l-89 123c-4 5.33301 -8.33301 8 -13 8h-43z" />
    <glyph glyph-name="uacute" unicode="&#xfa;" horiz-adv-x="575" 
d="M130.5 37.5c-27.667 31.667 -41.5 73.5 -41.5 125.5v374c0 6.66699 4 10 12 10h36c8 0 12 -3.33301 12 -10v-363c0 -85.333 38.333 -128 115 -128c33.333 0 64.333 10.5 93 31.5s50.667 48.833 66 83.5v376c0 6.66699 3.66699 10 11 10h36c8 0 12 -3.33301 12 -10v-527
c0 -6.66699 -4 -10 -12 -10h-35c-8 -0 -12 3.33301 -12 10v77c-19.333 -29.333 -43.833 -52.833 -73.5 -70.5s-63.167 -26.5 -100.5 -26.5c-51.333 0 -90.833 15.833 -118.5 47.5zM249 626c-2 -2 -3.00098 -4 -3.00098 -6s0.833008 -3.66699 2.5 -5s3.5 -2 5.5 -2h30
c4 0 7 0.5 9 1.5s4.33301 3.16699 7 6.5l99 125l2 4c0 4.66699 -2.66699 7 -8 7h-42c-5.33301 0 -9.66602 -2.66699 -12.999 -8z" />
    <glyph glyph-name="ucircumflex" unicode="&#xfb;" horiz-adv-x="575" 
d="M130.5 37.5c-27.667 31.667 -41.5 73.5 -41.5 125.5v374c0 6.66699 4 10 12 10h36c8 0 12 -3.33301 12 -10v-363c0 -85.333 38.333 -128 115 -128c33.333 0 64.333 10.5 93 31.5s50.667 48.833 66 83.5v376c0 6.66699 3.66699 10 11 10h36c8 0 12 -3.33301 12 -10v-527
c0 -6.66699 -4 -10 -12 -10h-35c-8 -0 -12 3.33301 -12 10v77c-19.333 -29.333 -43.833 -52.833 -73.5 -70.5s-63.167 -26.5 -100.5 -26.5c-51.333 0 -90.833 15.833 -118.5 47.5zM415 621c0 -5.33301 -3 -8 -9 -8h-34c-4.66699 0 -8.66699 2.66699 -12 8l-73 99l-73 -99
c-3.33301 -5.33301 -7.33301 -8 -12 -8h-34c-6 0 -9 2.66699 -9 8c0 2 1.33301 4.66699 4 8l91 121c4 4.66699 8.66699 7 14 7h38c3.33301 0 6 -0.666992 8 -2s4 -3 6 -5l91 -121c2.66699 -3.33301 4 -6 4 -8z" />
    <glyph glyph-name="udieresis" unicode="&#xfc;" horiz-adv-x="575" 
d="M130.5 37.5c-27.667 31.667 -41.5 73.5 -41.5 125.5v374c0 6.66699 4 10 12 10h36c8 0 12 -3.33301 12 -10v-363c0 -85.333 38.333 -128 115 -128c33.333 0 64.333 10.5 93 31.5s50.667 48.833 66 83.5v376c0 6.66699 3.66699 10 11 10h36c8 0 12 -3.33301 12 -10v-527
c0 -6.66699 -4 -10 -12 -10h-35c-8 -0 -12 3.33301 -12 10v77c-19.333 -29.333 -43.833 -52.833 -73.5 -70.5s-63.167 -26.5 -100.5 -26.5c-51.333 0 -90.833 15.833 -118.5 47.5zM225 725v-82c0 -4 -1 -6.83301 -3 -8.5s-5.33301 -2.5 -10 -2.5h-29
c-4.66699 0 -8 0.833008 -10 2.5s-3 4.5 -3 8.5v82c0 7.33301 4.33301 11 13 11h29c8.66699 0 13 -3.66699 13 -11zM405 725v-82c0 -4 -1 -6.83301 -3 -8.5s-5.33301 -2.5 -10 -2.5h-29c-4.66699 0 -8 0.833008 -10 2.5s-3 4.5 -3 8.5v82c0 7.33301 4.33301 11 13 11h29
c8.66699 0 13 -3.66699 13 -11z" />
    <glyph glyph-name="yacute" unicode="&#xfd;" horiz-adv-x="522" 
d="M481.5 543.5c2.33301 -2.33301 2.5 -5.50098 0.5 -9.50098l-203 -557c-32 -88.667 -77.333 -150.334 -136 -185.001c-3.33301 -2.66699 -7.33301 -4 -12 -4c-3.33301 0 -6 1.66699 -8 5l-20 26c-2 2.66699 -3 5.33398 -3 8.00098c0 4 1.66699 7 5 9
c32 18 57.333 40.167 76 66.5s36 64.833 52 115.5l-194 516c-0.666992 0.666992 -1 2 -1 4c0 6 3.66699 9 11 9h39c7.33301 0 12.333 -3.66699 15 -11l104 -285c10 -28 15.667 -44.333 17 -49c14.667 -41.333 27.667 -79.666 39 -114.999h1c16.667 52 29.667 90.333 39 115
c1.33301 4.66699 7 21 17 49l100 285c2.66699 7.33301 8 11 16 11h36c4 0 7.16699 -1.16699 9.5 -3.5zM225 625.999c-2 -2 -3.00098 -4 -3.00098 -6s0.833008 -3.66699 2.5 -5s3.5 -2 5.5 -2h30c4 0 7 0.5 9 1.5s4.33301 3.16699 7 6.5l99 125l2 4
c0 4.66699 -2.66699 7 -8 7h-42c-5.33301 0 -9.66602 -2.66699 -12.999 -8z" />
    <glyph glyph-name="thorn" unicode="&#xfe;" horiz-adv-x="585" 
d="M151 468c14 25.333 35.333 46.5 64 63.5s62.334 25.5 101.001 25.5c59.333 0 106.166 -18.5 140.499 -55.5s51.5 -86.5 51.5 -148.5v-159c0 -62 -17.167 -111.5 -51.5 -148.5s-80.833 -55.5 -139.5 -55.5c-39.333 0 -73.333 8.5 -102 25.5s-49.667 38.167 -63 63.5v-270
c0 -6 -3.33301 -9 -10 -9h-40c-6 0 -9 3 -9 9v939c0 6 3 9 9 9h40c6 0 9 -3 9 -9v-280zM229 484c-23.333 -12 -42 -29.8311 -56 -53.498s-21 -51.834 -21 -84.501v-145c0 -32.667 7 -60.834 21 -84.501s32.667 -41.5 56 -53.5s48.666 -18 75.999 -18
c44.667 0 79.834 13.167 105.501 39.5s38.5 64.833 38.5 115.5v147c0 50.667 -12.833 89.167 -38.5 115.5s-60.834 39.5 -105.501 39.5c-27.333 0 -52.666 -6 -75.999 -18z" />
    <glyph glyph-name="ydieresis" unicode="&#xff;" horiz-adv-x="522" 
d="M481.5 543.5c2.33301 -2.33301 2.5 -5.50098 0.5 -9.50098l-203 -557c-32 -88.667 -77.333 -150.334 -136 -185.001c-3.33301 -2.66699 -7.33301 -4 -12 -4c-3.33301 0 -6 1.66699 -8 5l-20 26c-2 2.66699 -3 5.33398 -3 8.00098c0 4 1.66699 7 5 9
c32 18 57.333 40.167 76 66.5s36 64.833 52 115.5l-194 516c-0.666992 0.666992 -1 2 -1 4c0 6 3.66699 9 11 9h39c7.33301 0 12.333 -3.66699 15 -11l104 -285c10 -28 15.667 -44.333 17 -49c14.667 -41.333 27.667 -79.666 39 -114.999h1c16.667 52 29.667 90.333 39 115
c1.33301 4.66699 7 21 17 49l100 285c2.66699 7.33301 8 11 16 11h36c4 0 7.16699 -1.16699 9.5 -3.5zM201 724.999v-82c0 -4 -1 -6.83301 -3 -8.5s-5.33301 -2.5 -10 -2.5h-29c-4.66699 0 -8 0.833008 -10 2.5s-3 4.5 -3 8.5v82c0 7.33301 4.33301 11 13 11h29
c8.66699 0 13 -3.66699 13 -11zM381 724.999v-82c0 -4 -1 -6.83301 -3 -8.5s-5.33301 -2.5 -10 -2.5h-29c-4.66699 0 -8 0.833008 -10 2.5s-3 4.5 -3 8.5v82c0 7.33301 4.33301 11 13 11h29c8.66699 0 13 -3.66699 13 -11z" />
    <glyph glyph-name="Amacron" unicode="&#x100;" horiz-adv-x="625" 
d="M587 8c0 -5.33301 -2.99902 -7.99902 -8.99902 -7.99902h-43c-6 0 -10 3 -12 9l-70 216h-282l-70 -216c-2 -6 -6.33301 -9 -13 -9h-41c-3.33301 0 -5.83301 1.16699 -7.5 3.5s-1.83398 5.16602 -0.500977 8.49902l230 710c2 6.66699 6.66699 10 14 10h58
c4 0 7 -0.666992 9 -2s3.66699 -4 5 -8l231 -710zM434.001 283.001l-55.999 175.999l-65 206h-2c-12.667 -43.333 -34.334 -112.666 -65.001 -207.999l-57 -174h245zM439.002 878.5c1.33301 -1.66699 2 -4.83301 2 -9.5v-27c0 -4 -0.666992 -6.83301 -2 -8.5
s-4 -2.5 -8 -2.5h-238c-6.66699 0 -10 3.66699 -10 11v27c0 8 3.33301 12 10 12h238c4 0 6.66699 -0.833008 8 -2.5z" />
    <glyph glyph-name="amacron" unicode="&#x101;" horiz-adv-x="546" 
d="M406.5 515.5c33.667 -27 50.5 -67.1689 50.5 -120.502v-385c0 -6.66699 -4 -10 -12 -10h-34c-8 0 -12 3.33301 -12 10v78c-18 -30.667 -41.833 -54.667 -71.5 -72s-62.167 -26 -97.5 -26c-52 0 -93.167 14.667 -123.5 44s-45.5 67 -45.5 113c0 97.333 63.667 152 191 164
c26 2 50 3 72 3c25.333 0 50 -1 74 -3v77c0 39.333 -11.167 68.5 -33.5 87.5s-53.5 28.5 -93.5 28.5c-37.333 0 -66 -6.66699 -86 -20s-34.333 -34.666 -43 -63.999c-2.66699 -6.66699 -8 -9 -16 -7l-32 9c-8.66699 2 -12 6.66699 -10 14c10 38.667 30.667 68.334 62 89.001
s73.333 31 126 31c56 0 100.833 -13.5 134.5 -40.5zM333 72.998c27.333 20 49 47.667 65 83v108c-32 1.33301 -56 2 -72 2c-21.333 0 -44 -1 -68 -3c-44.667 -4.66699 -79 -16 -103 -34s-36 -44.333 -36 -79c0 -32 10.333 -57.833 31 -77.5s49.667 -29.5 87 -29.5
c36.667 0 68.667 10 96 30zM407 692.498c1.33301 -1.66699 2 -4.83301 2 -9.5v-27c0 -4 -0.666992 -6.83301 -2 -8.5s-4 -2.5 -8 -2.5h-238c-6.66699 0 -10 3.66699 -10 11v27c0 8 3.33301 12 10 12h238c4 0 6.66699 -0.833008 8 -2.5z" />
    <glyph glyph-name="Abreve" unicode="&#x102;" horiz-adv-x="625" 
d="M587 8c0 -5.33301 -2.99902 -7.99902 -8.99902 -7.99902h-43c-6 0 -10 3 -12 9l-70 216h-282l-70 -216c-2 -6 -6.33301 -9 -13 -9h-41c-3.33301 0 -5.83301 1.16699 -7.5 3.5s-1.83398 5.16602 -0.500977 8.49902l230 710c2 6.66699 6.66699 10 14 10h58
c4 0 7 -0.666992 9 -2s3.66699 -4 5 -8l231 -710zM434.001 283.001l-55.999 175.999l-65 206h-2c-12.667 -43.333 -34.334 -112.666 -65.001 -207.999l-57 -174h245zM430.002 910c0 -30 -10.833 -56.499 -32.5 -79.499s-50.167 -34.5 -85.5 -34.5s-63.833 11.167 -85.5 33.5
s-32.5 49.166 -32.5 80.499c0 6 3 9 9 9h27c5.33301 0 8 -2.66699 8 -8c0 -18.667 6.66699 -35.334 20 -50.001s31.333 -22 54 -22s40.667 7.33301 54 22s20 31.334 20 50.001c0 5.33301 2.66699 8 8 8h27c6 0 9 -3 9 -9z" />
    <glyph glyph-name="abreve" unicode="&#x103;" horiz-adv-x="546" 
d="M406.5 515.5c33.667 -27 50.5 -67.1689 50.5 -120.502v-385c0 -6.66699 -4 -10 -12 -10h-34c-8 0 -12 3.33301 -12 10v78c-18 -30.667 -41.833 -54.667 -71.5 -72s-62.167 -26 -97.5 -26c-52 0 -93.167 14.667 -123.5 44s-45.5 67 -45.5 113c0 97.333 63.667 152 191 164
c26 2 50 3 72 3c25.333 0 50 -1 74 -3v77c0 39.333 -11.167 68.5 -33.5 87.5s-53.5 28.5 -93.5 28.5c-37.333 0 -66 -6.66699 -86 -20s-34.333 -34.666 -43 -63.999c-2.66699 -6.66699 -8 -9 -16 -7l-32 9c-8.66699 2 -12 6.66699 -10 14c10 38.667 30.667 68.334 62 89.001
s73.333 31 126 31c56 0 100.833 -13.5 134.5 -40.5zM333 72.998c27.333 20 49 47.667 65 83v108c-32 1.33301 -56 2 -72 2c-21.333 0 -44 -1 -68 -3c-44.667 -4.66699 -79 -16 -103 -34s-36 -44.333 -36 -79c0 -32 10.333 -57.833 31 -77.5s49.667 -29.5 87 -29.5
c36.667 0 68.667 10 96 30zM398 723.998c0 -30 -10.833 -56.499 -32.5 -79.499s-50.167 -34.5 -85.5 -34.5s-63.833 11.167 -85.5 33.5s-32.5 49.166 -32.5 80.499c0 6 3 9 9 9h27c5.33301 0 8 -2.66699 8 -8c0 -18.667 6.66699 -35.334 20 -50.001s31.333 -22 54 -22
s40.667 7.33301 54 22s20 31.334 20 50.001c0 5.33301 2.66699 8 8 8h27c6 0 9 -3 9 -9z" />
    <glyph glyph-name="Aogonek" unicode="&#x104;" horiz-adv-x="625" 
d="M505 -43c-19.333 -19.333 -28.9971 -40.999 -28.9971 -64.999c0 -16.667 5.16699 -30.334 15.5 -41.001s24.166 -16 41.499 -16c6 0 15 1.33301 27 4c5.33301 2.66699 8.66602 1.66699 9.99902 -3l9 -28v-2c0 -3.33301 -1.66699 -6 -5 -8
c-4.66699 -3.33301 -11.834 -6 -21.501 -8s-19.167 -3 -28.5 -3c-28 0 -50.833 8.33301 -68.5 25s-26.5 39 -26.5 67c0 26.667 8.33301 51.167 25 73.5s39.334 41.833 68.001 58.5l-69 214h-282l-70 -216c-2 -6 -6.33301 -9 -13 -9h-41
c-3.33301 0 -5.83301 1.16699 -7.5 3.5s-1.83398 5.16602 -0.500977 8.49902l230 710c2 6.66699 6.66699 10 14 10h58c4 0 7 -0.666992 9 -2s3.66699 -4 5 -8l231 -710l1 -4c0 -5.33301 -3 -8 -9 -8h-2c-28 -9.33301 -51.667 -23.666 -71 -42.999zM434.003 283.001
l-55.999 175.999l-65 206h-2c-12.667 -43.333 -34.334 -112.666 -65.001 -207.999l-57 -174h245z" />
    <glyph glyph-name="aogonek" unicode="&#x105;" horiz-adv-x="546" 
d="M406.5 515.5c33.667 -27 50.498 -67.168 50.498 -120.501v-385c0 -6.66699 -4 -10 -12 -10c-28 -9.33301 -51.667 -23.666 -71 -42.999s-29 -41 -29 -65c0 -16.667 5.16699 -30.334 15.5 -41.001s24.5 -16 42.5 -16c5.33301 0 14 1.33301 26 4
c6 3.33301 9.66699 2.33301 11 -3l8 -28v-2c0 -2.66699 -1.33301 -5.33398 -4 -8.00098c-5.33301 -3.33301 -12.666 -6 -21.999 -8s-18.666 -3 -27.999 -3c-28 0 -51 8.33301 -69 25s-27 39 -27 67s9.16699 53.667 27.5 77s42.833 43.333 73.5 60v72
c-18 -30.667 -41.833 -54.667 -71.5 -72s-62.167 -26 -97.5 -26c-52 0 -93.167 14.667 -123.5 44s-45.5 67 -45.5 113c0 97.333 63.667 152 191 164c26 2 50 3 72 3c25.333 0 50 -1 74 -3v77c0 39.333 -11.167 68.5 -33.5 87.5s-53.5 28.5 -93.5 28.5
c-37.333 0 -66 -6.66699 -86 -20s-34.333 -34.666 -43 -63.999c-2.66699 -6.66699 -8 -9 -16 -7l-32 9c-8.66699 2 -12 6.66699 -10 14c10 38.667 30.667 68.334 62 89.001s73.333 31 126 31c56 0 100.833 -13.5 134.5 -40.5zM332.998 72.999c27.333 20 49 47.667 65 83v108
c-32 1.33301 -56 2 -72 2c-21.333 0 -44 -1 -68 -3c-44.667 -4.66699 -79 -16 -103 -34s-36 -44.333 -36 -79c0 -32 10.333 -57.833 31 -77.5s49.667 -29.5 87 -29.5c36.667 0 68.667 10 96 30z" />
    <glyph glyph-name="Cacute" unicode="&#x106;" horiz-adv-x="603" 
d="M542 584c0.666992 -1.33301 1.00098 -3.33203 1.00098 -5.99902c0 -4.66699 -2.66699 -8 -8 -10l-34 -13c-2 -0.666992 -4.33301 -1 -7 -1c-4 0 -7 2.66699 -9 8c-14.667 40.667 -34.834 71 -60.501 91s-59.834 30 -102.501 30c-53.333 0 -95.666 -15.333 -126.999 -46
s-47 -79.334 -47 -146.001v-250c0 -66 15.667 -114.5 47 -145.5s73.666 -46.5 126.999 -46.5c85.333 0 141.333 42.667 168 128c2.66699 8 8 10.333 16 7l34 -12c4 -1.33301 6.5 -3.33301 7.5 -6s0.833008 -6.33398 -0.5 -11.001
c-16.667 -53.333 -44.167 -94.166 -82.5 -122.499s-86.166 -42.5 -143.499 -42.5c-70 0 -126.667 20.833 -170 62.5s-65 101.5 -65 179.5v268c0 78 21.667 137.833 65 179.5s100 62.5 170 62.5c111.333 0 185 -52.667 221 -158zM279.001 811.001
c-2 -2 -3.00098 -4 -3.00098 -6s0.833008 -3.66699 2.5 -5s3.5 -2 5.5 -2h30c4 0 7 0.5 9 1.5s4.33301 3.16699 7 6.5l99 125l2 4c0 4.66699 -2.66699 7 -8 7h-42c-5.33301 0 -9.66602 -2.66699 -12.999 -8z" />
    <glyph glyph-name="cacute" unicode="&#x107;" horiz-adv-x="523" 
d="M397 522.5c31.333 -23 53.333 -54.833 66 -95.5c0.666992 -1.33301 1 -3 1 -5c0 -4 -3 -7.33301 -9 -10l-32 -10l-6 -2c-2.66699 0 -5.66699 3 -9 9c-8.66699 28.667 -23.167 51.334 -43.5 68.001s-48.833 25 -85.5 25c-45.333 0 -80.5 -13.167 -105.5 -39.5
s-37.5 -64.5 -37.5 -114.5v-150c0 -50 12.5 -87.833 37.5 -113.5s60.167 -38.834 105.5 -39.501c36.667 0 65.167 7.83301 85.5 23.5s35.833 39.167 46.5 70.5c1.33301 3.33301 3.16602 5.5 5.49902 6.5s5.83301 0.833008 10.5 -0.5l30 -11c4 -2 6.5 -4.16699 7.5 -6.5
s0.833008 -5.5 -0.5 -9.5c-12.667 -40 -34.667 -71.333 -66 -94s-71.666 -34 -120.999 -34c-62.667 0 -111.834 18.5 -147.501 55.5s-53.5 86.833 -53.5 149.5v156c0 62.667 17.833 112.667 53.5 150s84.834 56 147.501 56c48.667 0 88.667 -11.5 120 -34.5zM239 625
c-2 -2 -3.00098 -4 -3.00098 -6s0.833008 -3.66699 2.5 -5s3.5 -2 5.5 -2h30c4 0 7 0.5 9 1.5s4.33301 3.16699 7 6.5l99 125l2 4c0 4.66699 -2.66699 7 -8 7h-42c-5.33301 0 -9.66602 -2.66699 -12.999 -8z" />
    <glyph glyph-name="Cdotaccent" unicode="&#x10a;" horiz-adv-x="603" 
d="M542 584c0.666992 -1.33301 1.00098 -3.33203 1.00098 -5.99902c0 -4.66699 -2.66699 -8 -8 -10l-34 -13c-2 -0.666992 -4.33301 -1 -7 -1c-4 0 -7 2.66699 -9 8c-14.667 40.667 -34.834 71 -60.501 91s-59.834 30 -102.501 30c-53.333 0 -95.666 -15.333 -126.999 -46
s-47 -79.334 -47 -146.001v-250c0 -66 15.667 -114.5 47 -145.5s73.666 -46.5 126.999 -46.5c85.333 0 141.333 42.667 168 128c2.66699 8 8 10.333 16 7l34 -12c4 -1.33301 6.5 -3.33301 7.5 -6s0.833008 -6.33398 -0.5 -11.001
c-16.667 -53.333 -44.167 -94.166 -82.5 -122.499s-86.166 -42.5 -143.499 -42.5c-70 0 -126.667 20.833 -170 62.5s-65 101.5 -65 179.5v268c0 78 21.667 137.833 65 179.5s100 62.5 170 62.5c111.333 0 185 -52.667 221 -158zM344.001 910.001v-82
c0 -4 -1 -6.83301 -3 -8.5s-5.33301 -2.5 -10 -2.5h-28c-4.66699 0 -8 0.833008 -10 2.5s-3 4.5 -3 8.5v82c0 7.33301 4.33301 11 13 11h28c8.66699 0 13 -3.66699 13 -11z" />
    <glyph glyph-name="cdotaccent" unicode="&#x10b;" horiz-adv-x="523" 
d="M397 522.5c31.333 -23 53.333 -54.833 66 -95.5c0.666992 -1.33301 1 -3 1 -5c0 -4 -3 -7.33301 -9 -10l-32 -10l-6 -2c-2.66699 0 -5.66699 3 -9 9c-8.66699 28.667 -23.167 51.334 -43.5 68.001s-48.833 25 -85.5 25c-45.333 0 -80.5 -13.167 -105.5 -39.5
s-37.5 -64.5 -37.5 -114.5v-150c0 -50 12.5 -87.833 37.5 -113.5s60.167 -38.834 105.5 -39.501c36.667 0 65.167 7.83301 85.5 23.5s35.833 39.167 46.5 70.5c1.33301 3.33301 3.16602 5.5 5.49902 6.5s5.83301 0.833008 10.5 -0.5l30 -11c4 -2 6.5 -4.16699 7.5 -6.5
s0.833008 -5.5 -0.5 -9.5c-12.667 -40 -34.667 -71.333 -66 -94s-71.666 -34 -120.999 -34c-62.667 0 -111.834 18.5 -147.501 55.5s-53.5 86.833 -53.5 149.5v156c0 62.667 17.833 112.667 53.5 150s84.834 56 147.501 56c48.667 0 88.667 -11.5 120 -34.5zM304 724v-82
c0 -4 -1 -6.83301 -3 -8.5s-5.33301 -2.5 -10 -2.5h-28c-4.66699 0 -8 0.833008 -10 2.5s-3 4.5 -3 8.5v82c0 7.33301 4.33301 11 13 11h28c8.66699 0 13 -3.66699 13 -11z" />
    <glyph glyph-name="Ccaron" unicode="&#x10c;" horiz-adv-x="603" 
d="M542 584c0.666992 -1.33301 1.00098 -3.33203 1.00098 -5.99902c0 -4.66699 -2.66699 -8 -8 -10l-34 -13c-2 -0.666992 -4.33301 -1 -7 -1c-4 0 -7 2.66699 -9 8c-14.667 40.667 -34.834 71 -60.501 91s-59.834 30 -102.501 30c-53.333 0 -95.666 -15.333 -126.999 -46
s-47 -79.334 -47 -146.001v-250c0 -66 15.667 -114.5 47 -145.5s73.666 -46.5 126.999 -46.5c85.333 0 141.333 42.667 168 128c2.66699 8 8 10.333 16 7l34 -12c4 -1.33301 6.5 -3.33301 7.5 -6s0.833008 -6.33398 -0.5 -11.001
c-16.667 -53.333 -44.167 -94.166 -82.5 -122.499s-86.166 -42.5 -143.499 -42.5c-70 0 -126.667 20.833 -170 62.5s-65 101.5 -65 179.5v268c0 78 21.667 137.833 65 179.5s100 62.5 170 62.5c111.333 0 185 -52.667 221 -158zM445.001 933.001
c0 -2 -1.33203 -4.66797 -3.99902 -8.00098l-91 -120c-3.33301 -5.33301 -8 -8 -14 -8h-38c-3.33301 0 -5.83301 0.5 -7.5 1.5s-3.5 3.16699 -5.5 6.5l-91 120c-3.33301 4.66699 -5 7.33398 -5 8.00098c0 5.33301 3 8 9 8h34c4 0 8.33301 -2.66699 13 -8l72 -100l73 100
c3.33301 5.33301 7.66602 8 12.999 8h33c6 0 9 -2.66699 9 -8z" />
    <glyph glyph-name="ccaron" unicode="&#x10d;" horiz-adv-x="523" 
d="M397 522.5c31.333 -23 53.333 -54.833 66 -95.5c0.666992 -1.33301 1 -3 1 -5c0 -4 -3 -7.33301 -9 -10l-32 -10l-6 -2c-2.66699 0 -5.66699 3 -9 9c-8.66699 28.667 -23.167 51.334 -43.5 68.001s-48.833 25 -85.5 25c-45.333 0 -80.5 -13.167 -105.5 -39.5
s-37.5 -64.5 -37.5 -114.5v-150c0 -50 12.5 -87.833 37.5 -113.5s60.167 -38.834 105.5 -39.501c36.667 0 65.167 7.83301 85.5 23.5s35.833 39.167 46.5 70.5c1.33301 3.33301 3.16602 5.5 5.49902 6.5s5.83301 0.833008 10.5 -0.5l30 -11c4 -2 6.5 -4.16699 7.5 -6.5
s0.833008 -5.5 -0.5 -9.5c-12.667 -40 -34.667 -71.333 -66 -94s-71.666 -34 -120.999 -34c-62.667 0 -111.834 18.5 -147.501 55.5s-53.5 86.833 -53.5 149.5v156c0 62.667 17.833 112.667 53.5 150s84.834 56 147.501 56c48.667 0 88.667 -11.5 120 -34.5zM405 747
c0 -2 -1.33203 -4.66797 -3.99902 -8.00098l-91 -120c-3.33301 -5.33301 -8 -8 -14 -8h-38c-3.33301 0 -5.83301 0.5 -7.5 1.5s-3.5 3.16699 -5.5 6.5l-91 120c-3.33301 4.66699 -5 7.33398 -5 8.00098c0 5.33301 3 8 9 8h34c4 0 8.33301 -2.66699 13 -8l72 -100l73 100
c3.33301 5.33301 7.66602 8 12.999 8h33c6 0 9 -2.66699 9 -8z" />
    <glyph glyph-name="Dcaron" unicode="&#x10e;" horiz-adv-x="663" 
d="M509.5 670.5c45.667 -41 68.5 -101.168 68.5 -180.501v-247c0 -79.333 -22.833 -139.666 -68.5 -180.999s-109.167 -62 -190.5 -62h-203c-7.33301 -0 -11 3.33301 -11 10v712c0 6.66699 4 10 12 10h202c81.333 0 144.833 -20.5 190.5 -61.5zM167 672.999v-613.998h147
c64.667 0 114.5 15.167 149.5 45.5s52.5 79.166 52.5 146.499v230c0 67.333 -17.5 116.166 -52.5 146.499s-84.833 45.5 -149.5 45.5h-147zM448 933.001c0 -2 -1.33203 -4.66797 -3.99902 -8.00098l-91 -120c-3.33301 -5.33301 -8 -8 -14 -8h-38
c-3.33301 0 -5.83301 0.5 -7.5 1.5s-3.5 3.16699 -5.5 6.5l-91 120c-3.33301 4.66699 -5 7.33398 -5 8.00098c0 5.33301 3 8 9 8h34c4 0 8.33301 -2.66699 13 -8l72 -100l73 100c3.33301 5.33301 7.66602 8 12.999 8h33c6 0 9 -2.66699 9 -8z" />
    <glyph glyph-name="dcaron" unicode="&#x10f;" horiz-adv-x="598" 
d="M128.5 45c-34.333 36.667 -51.5 86.333 -51.5 149v158c0 62 17.333 111.667 52 149s81 56 139 56c39.333 0 73.166 -8.5 101.499 -25.5s49.5 -38.5 63.5 -64.5v281c0 6 3.33301 9 10 9h40c6 0 9 -3 9 -9v-739c0 -4 -0.833008 -6.5 -2.5 -7.5s-4.16699 -1.5 -7.5 -1.5h-37
c-7.33301 0 -11 3 -11 9v70c-13.333 -25.333 -34.333 -46.5 -63 -63.5s-62.667 -25.5 -102 -25.5c-59.333 0 -106.166 18.333 -140.499 55zM356 62.999c23.333 12 42.001 29.6689 56.001 53.002s21 51.666 21 84.999v144c0 33.333 -7 61.833 -21 85.5s-32.667 41.5 -56 53.5
s-48.666 18 -75.999 18c-44.667 0 -79.834 -13.333 -105.501 -40s-38.5 -65.334 -38.5 -116.001v-146c0 -50.667 13 -89.167 39 -115.5s61 -39.5 105 -39.5c27.333 0 52.666 6 75.999 18zM550.001 591.001c19.333 45.333 28.3311 98.0029 26.998 158.003
c0 2 0.833008 3.83301 2.5 5.5s3.83398 2.5 6.50098 2.5h35c2.66699 0 4.83398 -0.833008 6.50098 -2.5s2.5 -3.83398 2.5 -6.50098c-0.666992 -34.667 -3.5 -66.334 -8.5 -95.001s-14.167 -55.667 -27.5 -81c-2 -5.33301 -5.33301 -7 -10 -5l-29 11
c-5.33301 3.33301 -7 7.66602 -5 12.999z" />
    <glyph glyph-name="Dcroat" unicode="&#x110;" horiz-adv-x="692" 
d="M538 670c46 -41.333 69 -101.335 69 -180.002v-247c0 -79.333 -23 -139.666 -69 -180.999s-109.333 -62 -190 -62h-203c-7.33301 0 -11 3.33301 -11 10v328h-94c-4 0 -6.66699 0.833008 -8 2.5s-2 4.83398 -2 9.50098v33c0 8 3.33301 12 10 12h94v327
c0 6.66699 3.66699 10 11 10h203c80.667 0 144 -20.667 190 -62zM545 480.998c0 67.333 -17.5 116.169 -52.5 146.502s-84.833 45.5 -149.5 45.5h-147v-278h139c6.66699 0 10 -4 10 -12v-33c0 -4.66699 -0.666992 -7.83398 -2 -9.50098s-4 -2.5 -8 -2.5h-139v-279h147
c64.667 0 114.5 15.167 149.5 45.5s52.5 79.166 52.5 146.499v230z" />
    <glyph glyph-name="dcroat" unicode="&#x111;" horiz-adv-x="585" 
d="M552 661c1.33301 -1.33301 2 -4.33301 2 -9v-26c0 -4.66699 -0.666992 -7.83398 -2 -9.50098s-4 -2.5 -8 -2.5h-52v-605c0 -4 -0.833008 -6.5 -2.5 -7.5s-4.16699 -1.5 -7.5 -1.5h-37c-7.33301 0 -11 3 -11 9v70c-13.333 -25.333 -34.333 -46.5 -63 -63.5
s-62.667 -25.5 -102 -25.5c-59.333 0 -106.166 18.333 -140.499 55s-51.5 86.334 -51.5 149.001v158c0 62 17.333 111.667 52 149s81 56 139 56c39.333 0 73.166 -8.5 101.499 -25.5s49.5 -38.5 63.5 -64.5v147h-144c-6.66699 0 -10 4 -10 12v26c0 7.33301 3.33301 11 10 11
h144v85c0 6 3.33301 9 10 9h40c6 0 9 -3 9 -9v-85h52c4 0 6.66699 -0.666992 8 -2zM433 345c0 33.333 -6.99902 61.835 -20.999 85.502s-32.667 41.5 -56 53.5s-48.666 18 -75.999 18c-44.667 0 -79.834 -13.333 -105.501 -40s-38.5 -65.334 -38.5 -116.001v-146
c0 -50.667 13 -89.167 39 -115.5s61 -39.5 105 -39.5c27.333 0 52.666 6 75.999 18s42 29.667 56 53s21 51.666 21 84.999v144z" />
    <glyph glyph-name="Emacron" unicode="&#x112;" horiz-adv-x="565" 
d="M488 720v-33.998c0 -4.66699 -0.666992 -7.83398 -2 -9.50098s-4 -2.5 -8 -2.5h-311v-273h283c6.66699 0 10 -4 10 -12v-33c0 -4.66699 -0.666992 -7.83398 -2 -9.50098s-4 -2.5 -8 -2.5h-283v-286h312c6.66699 0 10 -4 10 -12v-34c0 -8 -3.33301 -12 -10 -12h-362
c-8 -0 -12 3.33301 -12 10v712c0 6.66699 4 10 12 10h361c6.66699 0 10 -4 10 -12zM422 878.502c1.33301 -1.66699 2 -4.83301 2 -9.5v-27c0 -4 -0.666992 -6.83301 -2 -8.5s-4 -2.5 -8 -2.5h-238c-6.66699 0 -10 3.66699 -10 11v27c0 8 3.33301 12 10 12h238
c4 0 6.66699 -0.833008 8 -2.5z" />
    <glyph glyph-name="emacron" unicode="&#x113;" horiz-adv-x="555" 
d="M134 253l0.00195312 -56.9971c0 -50 13.167 -87.833 39.5 -113.5s63.833 -38.834 112.5 -39.501c40 0 70.667 6.83301 92 20.5s37.666 33.5 48.999 59.5c2.66699 5.33301 6.33398 8 11.001 8c3.33301 0 6 -0.666992 8 -2l25 -13c8.66699 -4 10.667 -9.66699 6 -17
c-14.667 -34 -37.834 -60.667 -69.501 -80s-72.167 -29 -121.5 -29c-66.667 0 -118.334 18.5 -155.001 55.5s-55 86.833 -55 149.5v156c0 62.667 18 112.5 54 149.5s86.333 55.833 151 56.5c64 -0.666992 113.833 -19.334 149.5 -56.001s53.5 -86.334 53.5 -149.001v-77
c0 -14.667 -8.33301 -22 -25 -22h-325zM173.002 464.003c-26 -26 -39 -63.667 -39 -113v-52h292v52c0 49.333 -12.833 87 -38.5 113s-61.5 39.333 -107.5 40c-45.333 -0.666992 -81 -14 -107 -40zM407.002 692.503c1.33301 -1.66699 2 -4.83301 2 -9.5v-27
c0 -4 -0.666992 -6.83301 -2 -8.5s-4 -2.5 -8 -2.5h-238c-6.66699 0 -10 3.66699 -10 11v27c0 8 3.33301 12 10 12h238c4 0 6.66699 -0.833008 8 -2.5z" />
    <glyph glyph-name="Edotaccent" unicode="&#x116;" horiz-adv-x="565" 
d="M488 720v-33.998c0 -4.66699 -0.666992 -7.83398 -2 -9.50098s-4 -2.5 -8 -2.5h-311v-273h283c6.66699 0 10 -4 10 -12v-33c0 -4.66699 -0.666992 -7.83398 -2 -9.50098s-4 -2.5 -8 -2.5h-283v-286h312c6.66699 0 10 -4 10 -12v-34c0 -8 -3.33301 -12 -10 -12h-362
c-8 -0 -12 3.33301 -12 10v712c0 6.66699 4 10 12 10h361c6.66699 0 10 -4 10 -12zM322 910.002v-82c0 -4 -1 -6.83301 -3 -8.5s-5.33301 -2.5 -10 -2.5h-28c-4.66699 0 -8 0.833008 -10 2.5s-3 4.5 -3 8.5v82c0 7.33301 4.33301 11 13 11h28c8.66699 0 13 -3.66699 13 -11z
" />
    <glyph glyph-name="edotaccent" unicode="&#x117;" horiz-adv-x="555" 
d="M134 253l0.00195312 -56.9971c0 -50 13.167 -87.833 39.5 -113.5s63.833 -38.834 112.5 -39.501c40 0 70.667 6.83301 92 20.5s37.666 33.5 48.999 59.5c2.66699 5.33301 6.33398 8 11.001 8c3.33301 0 6 -0.666992 8 -2l25 -13c8.66699 -4 10.667 -9.66699 6 -17
c-14.667 -34 -37.834 -60.667 -69.501 -80s-72.167 -29 -121.5 -29c-66.667 0 -118.334 18.5 -155.001 55.5s-55 86.833 -55 149.5v156c0 62.667 18 112.5 54 149.5s86.333 55.833 151 56.5c64 -0.666992 113.833 -19.334 149.5 -56.001s53.5 -86.334 53.5 -149.001v-77
c0 -14.667 -8.33301 -22 -25 -22h-325zM173.002 464.003c-26 -26 -39 -63.667 -39 -113v-52h292v52c0 49.333 -12.833 87 -38.5 113s-61.5 39.333 -107.5 40c-45.333 -0.666992 -81 -14 -107 -40zM307.002 724.003v-82c0 -4 -1 -6.83301 -3 -8.5s-5.33301 -2.5 -10 -2.5h-28
c-4.66699 0 -8 0.833008 -10 2.5s-3 4.5 -3 8.5v82c0 7.33301 4.33301 11 13 11h28c8.66699 0 13 -3.66699 13 -11z" />
    <glyph glyph-name="Eogonek" unicode="&#x118;" horiz-adv-x="565" 
d="M489 46l0.00292969 -33.998c0 -8 -3.33301 -12 -10 -12c-28 -9.33301 -51.667 -23.666 -71 -42.999s-29 -41 -29 -65c0 -16.667 5 -30.334 15 -41.001s24 -16 42 -16c6 0 15 1.33301 27 4c5.33301 2.66699 8.66602 1.66699 9.99902 -3l9 -28v-2
c0 -3.33301 -1.66699 -6 -5 -8c-4.66699 -3.33301 -11.834 -6 -21.501 -8s-19.167 -3 -28.5 -3c-28 0 -50.833 8.33301 -68.5 25s-26.5 39 -26.5 67c0 24 6.66699 46.167 20 66.5s31.666 38.5 54.999 54.5h-290c-8 0 -12 3.33301 -12 10v712c0 6.66699 4 10 12 10h361
c6.66699 0 10 -4 10 -12v-34c0 -4.66699 -0.666992 -7.83398 -2 -9.50098s-4 -2.5 -8 -2.5h-311v-273h283c6.66699 0 10 -4 10 -12v-33c0 -4.66699 -0.666992 -7.83398 -2 -9.50098s-4 -2.5 -8 -2.5h-283v-286h312c6.66699 0 10 -4 10 -12z" />
    <glyph glyph-name="eogonek" unicode="&#x119;" horiz-adv-x="555" 
d="M134 253l0.00292969 -56.9971c0 -50 13.167 -87.833 39.5 -113.5s63.833 -38.834 112.5 -39.501c40 0 70.667 6.83301 92 20.5s37.666 33.5 48.999 59.5c2.66699 5.33301 6.33398 8 11.001 8c3.33301 0 6 -0.666992 8 -2l25 -13c8.66699 -4 10.667 -9.66699 6 -17
c-22 -50 -59.333 -83 -112 -99c-28 -9.33301 -51.667 -23.666 -71 -42.999s-29 -41 -29 -65c0 -16.667 5.16699 -30.334 15.5 -41.001s24.166 -16 41.499 -16c6 0 15 1.33301 27 4c5.33301 2.66699 8.66602 1.66699 9.99902 -3l9 -28v-2c0 -3.33301 -1.66699 -6 -5 -8
c-4.66699 -3.33301 -11.834 -6 -21.501 -8s-19.167 -3 -28.5 -3c-28 0 -50.833 8.33301 -68.5 25s-26.5 39 -26.5 67c0 42 20.333 79 61 111c-64.667 1.33301 -114.667 20.333 -150 57s-53 86 -53 148v156c0 62.667 18 112.5 54 149.5s86.333 55.833 151 56.5
c64 -0.666992 113.833 -19.334 149.5 -56.001s53.5 -86.334 53.5 -149.001v-77c0 -14.667 -8.33301 -22 -25 -22h-325zM173.003 464.003c-26 -26 -39 -63.667 -39 -113v-52h292v52c0 49.333 -12.833 87 -38.5 113s-61.5 39.333 -107.5 40
c-45.333 -0.666992 -81 -14 -107 -40z" />
    <glyph glyph-name="Ecaron" unicode="&#x11a;" horiz-adv-x="565" 
d="M488 720v-33.998c0 -4.66699 -0.666992 -7.83398 -2 -9.50098s-4 -2.5 -8 -2.5h-311v-273h283c6.66699 0 10 -4 10 -12v-33c0 -4.66699 -0.666992 -7.83398 -2 -9.50098s-4 -2.5 -8 -2.5h-283v-286h312c6.66699 0 10 -4 10 -12v-34c0 -8 -3.33301 -12 -10 -12h-362
c-8 -0 -12 3.33301 -12 10v712c0 6.66699 4 10 12 10h361c6.66699 0 10 -4 10 -12zM423 933.002c0 -2 -1.33203 -4.66797 -3.99902 -8.00098l-91 -120c-3.33301 -5.33301 -8 -8 -14 -8h-38c-3.33301 0 -5.83301 0.5 -7.5 1.5s-3.5 3.16699 -5.5 6.5l-91 120
c-3.33301 4.66699 -5 7.33398 -5 8.00098c0 5.33301 3 8 9 8h34c4 0 8.33301 -2.66699 13 -8l72 -100l73 100c3.33301 5.33301 7.66602 8 12.999 8h33c6 0 9 -2.66699 9 -8z" />
    <glyph glyph-name="ecaron" unicode="&#x11b;" horiz-adv-x="555" 
d="M134 253l0.00195312 -56.9971c0 -50 13.167 -87.833 39.5 -113.5s63.833 -38.834 112.5 -39.501c40 0 70.667 6.83301 92 20.5s37.666 33.5 48.999 59.5c2.66699 5.33301 6.33398 8 11.001 8c3.33301 0 6 -0.666992 8 -2l25 -13c8.66699 -4 10.667 -9.66699 6 -17
c-14.667 -34 -37.834 -60.667 -69.501 -80s-72.167 -29 -121.5 -29c-66.667 0 -118.334 18.5 -155.001 55.5s-55 86.833 -55 149.5v156c0 62.667 18 112.5 54 149.5s86.333 55.833 151 56.5c64 -0.666992 113.833 -19.334 149.5 -56.001s53.5 -86.334 53.5 -149.001v-77
c0 -14.667 -8.33301 -22 -25 -22h-325zM173.002 464.003c-26 -26 -39 -63.667 -39 -113v-52h292v52c0 49.333 -12.833 87 -38.5 113s-61.5 39.333 -107.5 40c-45.333 -0.666992 -81 -14 -107 -40zM408.002 747.003c0 -2 -1.33203 -4.66797 -3.99902 -8.00098l-91 -120
c-3.33301 -5.33301 -8 -8 -14 -8h-38c-3.33301 0 -5.83301 0.5 -7.5 1.5s-3.5 3.16699 -5.5 6.5l-91 120c-3.33301 4.66699 -5 7.33398 -5 8.00098c0 5.33301 3 8 9 8h34c4 0 8.33301 -2.66699 13 -8l72 -100l73 100c3.33301 5.33301 7.66602 8 12.999 8h33
c6 0 9 -2.66699 9 -8z" />
    <glyph glyph-name="Gbreve" unicode="&#x11e;" horiz-adv-x="653" 
d="M566 585c0.666992 -1.33301 1 -3.33789 1 -6.00488c0 -5.33301 -2.33301 -8.66602 -7 -9.99902l-36 -13c-1.33301 -0.666992 -3.33301 -1 -6 -1c-4 0 -7 2.66699 -9 8c-14.667 40.667 -36 70.834 -64 90.501s-64.333 29.5 -109 29.5c-125.333 0 -188 -64 -188 -192v-250
c0 -66 16.5 -114.5 49.5 -145.5s79.167 -46.5 138.5 -46.5c54.667 0 98 13 130 39s48 65 48 117v113h-157c-6.66699 0 -10 4 -10 12v33c0 4.66699 0.666992 7.83398 2 9.50098s4 2.5 8 2.5h205c8.66699 0 13 -3.66699 13 -11v-160c0 -43.333 -10 -81.166 -30 -113.499
s-48.167 -57.166 -84.5 -74.499s-77.833 -26 -124.5 -26c-76.667 0 -137.5 20.667 -182.5 62s-67.5 101.333 -67.5 180v268c0 78.667 22.333 138.667 67 180s104.667 62 180 62c119.333 0 197 -52.333 233 -157zM450 909.995c0 -30 -10.833 -56.499 -32.5 -79.499
s-50.167 -34.5 -85.5 -34.5s-63.833 11.167 -85.5 33.5s-32.5 49.166 -32.5 80.499c0 6 3 9 9 9h27c5.33301 0 8 -2.66699 8 -8c0 -18.667 6.66699 -35.334 20 -50.001s31.333 -22 54 -22s40.667 7.33301 54 22s20 31.334 20 50.001c0 5.33301 2.66699 8 8 8h27
c6 0 9 -3 9 -9z" />
    <glyph glyph-name="gbreve" unicode="&#x11f;" horiz-adv-x="552" 
d="M468.5 48.5c29 -26.333 43.502 -59.8311 43.502 -100.498c0 -46.667 -19 -84.667 -57 -114s-96.667 -44 -176 -44c-76 0 -132.167 13.5 -168.5 40.5s-54.5 63.167 -54.5 108.5c0 26.667 6.5 50.667 19.5 72s32.833 38 59.5 50c-12 8 -21.167 18.167 -27.5 30.5
s-9.5 24.5 -9.5 36.5c0 16 5.16699 30.667 15.5 44s24.166 23.333 41.499 30c-26.667 15.333 -47.167 36.666 -61.5 63.999s-21.5 59 -21.5 95c0 57.333 17 102.666 51 135.999s82 50 144 50h234c6 0 9 -4 9 -12v-29c0 -7.33301 -3.33301 -11 -10 -11h-105
c19.333 -13.333 35 -32 47 -56s18 -52.333 18 -85c0 -54.667 -16.833 -98 -50.5 -130s-80.834 -48 -141.501 -48h-7v0h-49c-20 0 -35 -4.16699 -45 -12.5s-15 -18.833 -15 -31.5s5 -23 15 -31s25 -12 45 -12l123 -1c60 0 104.5 -13.167 133.5 -39.5zM165.002 461.002
c-24 -23.333 -36.001 -56.332 -36.001 -98.999c0 -43.333 12 -77 36 -101s58.667 -36 104 -36c42.667 0 76 11.167 100 33.5s36 55.5 36 99.5c0 43.333 -11.667 77.166 -35 101.499s-57.666 36.5 -102.999 36.5c-44 0 -78 -11.667 -102 -35zM410.501 -132.497
c29 19 43.5 45.5 43.5 79.5c0 26 -9.33301 47.333 -28 64s-50.334 25 -95.001 25h-102c-42 0 -72 -8.5 -90 -25.5s-27 -38.833 -27 -65.5c0 -34 13.833 -60.167 41.5 -78.5s69.834 -27.5 126.501 -27.5c58 0 101.5 9.5 130.5 28.5zM391.001 724.003
c0 -30 -10.833 -56.499 -32.5 -79.499s-50.167 -34.5 -85.5 -34.5s-63.833 11.167 -85.5 33.5s-32.5 49.166 -32.5 80.499c0 6 3 9 9 9h27c5.33301 0 8 -2.66699 8 -8c0 -18.667 6.66699 -35.334 20 -50.001s31.333 -22 54 -22s40.667 7.33301 54 22s20 31.334 20 50.001
c0 5.33301 2.66699 8 8 8h27c6 0 9 -3 9 -9z" />
    <glyph glyph-name="Gdotaccent" unicode="&#x120;" horiz-adv-x="653" 
d="M566 585c0.666992 -1.33301 1 -3.33789 1 -6.00488c0 -5.33301 -2.33301 -8.66602 -7 -9.99902l-36 -13c-1.33301 -0.666992 -3.33301 -1 -6 -1c-4 0 -7 2.66699 -9 8c-14.667 40.667 -36 70.834 -64 90.501s-64.333 29.5 -109 29.5c-125.333 0 -188 -64 -188 -192v-250
c0 -66 16.5 -114.5 49.5 -145.5s79.167 -46.5 138.5 -46.5c54.667 0 98 13 130 39s48 65 48 117v113h-157c-6.66699 0 -10 4 -10 12v33c0 4.66699 0.666992 7.83398 2 9.50098s4 2.5 8 2.5h205c8.66699 0 13 -3.66699 13 -11v-160c0 -43.333 -10 -81.166 -30 -113.499
s-48.167 -57.166 -84.5 -74.499s-77.833 -26 -124.5 -26c-76.667 0 -137.5 20.667 -182.5 62s-67.5 101.333 -67.5 180v268c0 78.667 22.333 138.667 67 180s104.667 62 180 62c119.333 0 197 -52.333 233 -157zM359 909.995v-82c0 -4 -1 -6.83301 -3 -8.5
s-5.33301 -2.5 -10 -2.5h-28c-4.66699 0 -8 0.833008 -10 2.5s-3 4.5 -3 8.5v82c0 7.33301 4.33301 11 13 11h28c8.66699 0 13 -3.66699 13 -11z" />
    <glyph glyph-name="gdotaccent" unicode="&#x121;" horiz-adv-x="552" 
d="M468.5 48.5c29 -26.333 43.502 -59.8311 43.502 -100.498c0 -46.667 -19 -84.667 -57 -114s-96.667 -44 -176 -44c-76 0 -132.167 13.5 -168.5 40.5s-54.5 63.167 -54.5 108.5c0 26.667 6.5 50.667 19.5 72s32.833 38 59.5 50c-12 8 -21.167 18.167 -27.5 30.5
s-9.5 24.5 -9.5 36.5c0 16 5.16699 30.667 15.5 44s24.166 23.333 41.499 30c-26.667 15.333 -47.167 36.666 -61.5 63.999s-21.5 59 -21.5 95c0 57.333 17 102.666 51 135.999s82 50 144 50h234c6 0 9 -4 9 -12v-29c0 -7.33301 -3.33301 -11 -10 -11h-105
c19.333 -13.333 35 -32 47 -56s18 -52.333 18 -85c0 -54.667 -16.833 -98 -50.5 -130s-80.834 -48 -141.501 -48h-7v0h-49c-20 0 -35 -4.16699 -45 -12.5s-15 -18.833 -15 -31.5s5 -23 15 -31s25 -12 45 -12l123 -1c60 0 104.5 -13.167 133.5 -39.5zM165.002 461.002
c-24 -23.333 -36.001 -56.332 -36.001 -98.999c0 -43.333 12 -77 36 -101s58.667 -36 104 -36c42.667 0 76 11.167 100 33.5s36 55.5 36 99.5c0 43.333 -11.667 77.166 -35 101.499s-57.666 36.5 -102.999 36.5c-44 0 -78 -11.667 -102 -35zM410.501 -132.497
c29 19 43.5 45.5 43.5 79.5c0 26 -9.33301 47.333 -28 64s-50.334 25 -95.001 25h-102c-42 0 -72 -8.5 -90 -25.5s-27 -38.833 -27 -65.5c0 -34 13.833 -60.167 41.5 -78.5s69.834 -27.5 126.501 -27.5c58 0 101.5 9.5 130.5 28.5zM300.001 724.003v-82
c0 -4 -1 -6.83301 -3 -8.5s-5.33301 -2.5 -10 -2.5h-28c-4.66699 0 -8 0.833008 -10 2.5s-3 4.5 -3 8.5v82c0 7.33301 4.33301 11 13 11h28c8.66699 0 13 -3.66699 13 -11z" />
    <glyph glyph-name="uni0122" unicode="&#x122;" horiz-adv-x="653" 
d="M566 585c0.666992 -1.33301 1 -3.33789 1 -6.00488c0 -5.33301 -2.33301 -8.66602 -7 -9.99902l-36 -13c-1.33301 -0.666992 -3.33301 -1 -6 -1c-4 0 -7 2.66699 -9 8c-14.667 40.667 -36 70.834 -64 90.501s-64.333 29.5 -109 29.5c-125.333 0 -188 -64 -188 -192v-250
c0 -66 16.5 -114.5 49.5 -145.5s79.167 -46.5 138.5 -46.5c54.667 0 98 13 130 39s48 65 48 117v113h-157c-6.66699 0 -10 4 -10 12v33c0 4.66699 0.666992 7.83398 2 9.50098s4 2.5 8 2.5h205c8.66699 0 13 -3.66699 13 -11v-160c0 -43.333 -10 -81.166 -30 -113.499
s-48.167 -57.166 -84.5 -74.499s-77.833 -26 -124.5 -26c-76.667 0 -137.5 20.667 -182.5 62s-67.5 101.333 -67.5 180v268c0 78.667 22.333 138.667 67 180s104.667 62 180 62c119.333 0 197 -52.333 233 -157zM356 -73.0049c-0.666992 -36 -3.33301 -67 -8 -93
s-13.667 -50 -27 -72c-2 -4 -5.33301 -5.33301 -10 -4l-26 12c-2.66699 0.666992 -4.5 2.16699 -5.5 4.5s-0.833008 4.83301 0.5 7.5c9.33301 17.333 16 37.833 20 61.5s6.33301 51.5 7 83.5c0 6 2.66699 9 8 9h33c5.33301 0 8 -3 8 -9z" />
    <glyph glyph-name="uni0123" unicode="&#x123;" horiz-adv-x="552" 
d="M248 619c0.666992 36 3.33301 67 8 93s13.667 50 27 72c2 4 5.33301 5.33301 10 4l26 -12c2.66699 -0.666992 4.5 -2.16699 5.5 -4.5s0.833008 -4.83301 -0.5 -7.5c-9.33301 -17.333 -16 -37.833 -20 -61.5s-6.33301 -51.5 -7 -83.5c0 -6 -2.66699 -9 -8 -9h-33
c-5.33301 0 -8 3 -8 9zM468.499 48.5c29 -26.333 43.502 -59.8311 43.502 -100.498c0 -46.667 -19 -84.667 -57 -114s-96.667 -44 -176 -44c-76 0 -132.167 13.5 -168.5 40.5s-54.5 63.167 -54.5 108.5c0 26.667 6.5 50.667 19.5 72s32.833 38 59.5 50
c-12 8 -21.167 18.167 -27.5 30.5s-9.5 24.5 -9.5 36.5c0 16 5.16699 30.667 15.5 44s24.166 23.333 41.499 30c-26.667 15.333 -47.167 36.666 -61.5 63.999s-21.5 59 -21.5 95c0 57.333 17 102.666 51 135.999s82 50 144 50h234c6 0 9 -4 9 -12v-29
c0 -7.33301 -3.33301 -11 -10 -11h-105c19.333 -13.333 35 -32 47 -56s18 -52.333 18 -85c0 -54.667 -16.833 -98 -50.5 -130s-80.834 -48 -141.501 -48h-7v0h-49c-20 0 -35 -4.16699 -45 -12.5s-15 -18.833 -15 -31.5s5 -23 15 -31s25 -12 45 -12l123 -1
c60 0 104.5 -13.167 133.5 -39.5zM165.001 461.002c-24 -23.333 -36.001 -56.332 -36.001 -98.999c0 -43.333 12 -77 36 -101s58.667 -36 104 -36c42.667 0 76 11.167 100 33.5s36 55.5 36 99.5c0 43.333 -11.667 77.166 -35 101.499s-57.666 36.5 -102.999 36.5
c-44 0 -78 -11.667 -102 -35zM410.5 -132.497c29 19 43.5 45.5 43.5 79.5c0 26 -9.33301 47.333 -28 64s-50.334 25 -95.001 25h-102c-42 0 -72 -8.5 -90 -25.5s-27 -38.833 -27 -65.5c0 -34 13.833 -60.167 41.5 -78.5s69.834 -27.5 126.501 -27.5
c58 0 101.5 9.5 130.5 28.5z" />
    <glyph glyph-name="Hbar" unicode="&#x126;" horiz-adv-x="717" 
d="M687 569v-26c0 -8 -3.33301 -12 -10 -12h-78v-521c0 -6.66699 -4 -10 -12 -10h-38c-8 -0 -12 3.33301 -12 10v331h-357v-331c0 -6.66699 -3.66699 -10 -11 -10h-40c-7.33301 -0 -11 3.33301 -11 10v521h-78c-7.33301 0 -11 4 -11 12v26c0 8 3.66699 12 11 12h78v140
c0 7.33301 4 11 12 11h39c7.33301 0 11 -3.66699 11 -11v-140h357v140c0 7.33301 4 11 12 11h38c8 0 12 -3.66699 12 -11v-140h78c6.66699 0 10 -4 10 -12zM537 531h-357v-131h357v131z" />
    <glyph glyph-name="hbar" unicode="&#x127;" horiz-adv-x="575" 
d="M443.5 509c27.667 -32 41.5 -74.335 41.5 -127.002v-372c0 -6.66699 -4 -10 -12 -10h-35c-8 0 -12 3.33301 -12 10v362c0 86 -38.667 129 -116 129c-32.667 0 -63.334 -10.667 -92.001 -32s-50.667 -49.666 -66 -84.999v-374c0 -6.66699 -4 -10 -12 -10h-36
c-7.33301 0 -11 3.33301 -11 10v604h-52c-4 0 -6.66699 0.833008 -8 2.5s-2 4.83398 -2 9.50098v26c0 4.66699 0.833008 7.66699 2.5 9s4.16699 2 7.5 2h52v84c0 6.66699 3.66699 10 11 10h36c8 0 12 -3.33301 12 -10v-84h144c6.66699 0 10 -3.66699 10 -11v-26
c0 -8 -3.33301 -12 -10 -12h-144v-155c19.333 29.333 43.833 53 73.5 71s63.167 27 100.5 27c50.667 0 89.834 -16 117.501 -48z" />
    <glyph glyph-name="Imacron" unicode="&#x12a;" horiz-adv-x="272" 
d="M167 722v-712c0 -6.66699 -4 -10 -12 -10h-38c-8 -0 -12 3.33301 -12 10v712c0 6.66699 4 10 12 10h38c8 0 12 -3.33301 12 -10zM263 878.5c1.33301 -1.66699 2 -4.83301 2 -9.5v-27c0 -4 -0.666992 -6.83301 -2 -8.5s-4 -2.5 -8 -2.5h-238
c-6.66699 0 -10 3.66699 -10 11v27c0 8 3.33301 12 10 12h238c4 0 6.66699 -0.833008 8 -2.5z" />
    <glyph glyph-name="imacron" unicode="&#x12b;" horiz-adv-x="245" 
d="M152 537v-527c0 -6.66699 -4 -10 -12 -10h-36c-7.33301 -0 -11 3.33301 -11 10v527c0 6.66699 3.66699 10 11 10h36c8 0 12 -3.33301 12 -10zM249 693.5c1.33301 -1.66699 2 -4.83301 2 -9.5v-27c0 -4 -0.666992 -6.83301 -2 -8.5s-4 -2.5 -8 -2.5h-238
c-6.66699 0 -10 3.66699 -10 11v27c0 8 3.33301 12 10 12h238c4 0 6.66699 -0.833008 8 -2.5z" />
    <glyph glyph-name="Iogonek" unicode="&#x12e;" horiz-adv-x="273" 
d="M168 722v-711.999c0 -6 -3.33301 -9.33301 -10 -10c-28.667 -9.33301 -52.5 -23.666 -71.5 -42.999s-28.5 -41 -28.5 -65c0 -16.667 5 -30.334 15 -41.001s24 -16 42 -16c6.66699 0 15.334 1.33301 26.001 4c6 2.66699 9.66699 1.66699 11 -3l8 -28
c2 -4.66699 0.666992 -8 -4 -10c-4.66699 -3.33301 -11.834 -6 -21.501 -8s-19.167 -3 -28.5 -3c-28 0 -50.833 8.33301 -68.5 25s-26.5 39 -26.5 67c0 27.333 8.5 52.166 25.5 74.499s40.167 41.833 69.5 58.5v710c0 6.66699 4 10 12 10h38c8 0 12 -3.33301 12 -10z" />
    <glyph glyph-name="iogonek" unicode="&#x12f;" horiz-adv-x="245" 
d="M93 643v82c0 4 1 6.83301 3 8.5s5.33301 2.5 10 2.5h34c4.66699 0 8 -0.833008 10 -2.5s3 -4.5 3 -8.5v-82c0 -7.33301 -4.33301 -11 -13 -11h-34c-8.66699 0 -13 3.66699 -13 11zM173 -196c0 -3.33301 -1.66504 -5.99805 -4.99805 -7.99805
c-4.66699 -3.33301 -11.834 -6 -21.501 -8s-19.167 -3 -28.5 -3c-28.667 0 -51.667 8.5 -69 25.5s-26 39.167 -26 66.5c0 26.667 6.16699 51.167 18.5 73.5s29.5 41.166 51.5 56.499v3v527c0 6.66699 4 10 12 10h36c8 0 12 -3.33301 12 -10v-527
c0 -6.66699 -3.66699 -10 -11 -10c-22.667 -10 -40.334 -25 -53.001 -45s-19 -41.667 -19 -65c0 -16.667 5.16699 -30.334 15.5 -41.001s24.5 -16 42.5 -16c7.33301 0 16 1.66699 26 5c6 2 9.33301 1 10 -3l9 -29v-2z" />
    <glyph glyph-name="Idotaccent" unicode="&#x130;" horiz-adv-x="272" 
d="M167 722v-712c0 -6.66699 -4 -10 -12 -10h-38c-8 -0 -12 3.33301 -12 10v712c0 6.66699 4 10 12 10h38c8 0 12 -3.33301 12 -10zM163 910v-82c0 -4 -1 -6.83301 -3 -8.5s-5.33301 -2.5 -10 -2.5h-28c-4.66699 0 -8 0.833008 -10 2.5s-3 4.5 -3 8.5v82
c0 7.33301 4.33301 11 13 11h28c8.66699 0 13 -3.66699 13 -11z" />
    <glyph glyph-name="dotlessi" unicode="&#x131;" horiz-adv-x="245" 
d="M152 537v-527c0 -6.66699 -4 -10 -12 -10h-36c-7.33301 -0 -11 3.33301 -11 10v527c0 6.66699 3.66699 10 11 10h36c8 0 12 -3.33301 12 -10z" />
    <glyph glyph-name="IJ" unicode="&#x132;" horiz-adv-x="681" 
d="M162 278v-45c0 -62.667 16 -109 48 -139s75.333 -45 130 -45c55.333 0 99 15 131 45s48 76.333 48 139v488c0 7.33301 4 11 12 11h38c4.66699 0 7.83398 -0.833008 9.50098 -2.5s2.5 -4.5 2.5 -8.5v-493c0 -76.667 -22 -135.5 -66 -176.5s-102.333 -61.5 -175 -61.5
s-130.834 20.5 -174.501 61.5s-65.5 100.167 -65.5 177.5v49c0 5.33301 2.66699 8 8 8h45c6 0 9 -2.66699 9 -8zM102 380.5c-1.33301 1.66699 -2 3.5 -2 5.5v335c0 4 0.833008 6.83301 2.5 8.5s4.83398 2.5 9.50098 2.5h38c8 0 12 -3.66699 12 -11v-335
c0 -2 -0.833008 -3.83301 -2.5 -5.5s-3.83398 -2.5 -6.50098 -2.5h-45c-2.66699 0 -4.66699 0.833008 -6 2.5z" />
    <glyph glyph-name="ij" unicode="&#x133;" horiz-adv-x="489" 
d="M152 745v-97c0 -7.33301 -4.33301 -11 -13 -11h-34c-8 0 -12 3.66699 -12 11v97c0 8 4 12 12 12h34c8.66699 0 13 -4 13 -12zM152 537v-527c0 -6.66699 -4 -10 -12 -10h-36c-7.33301 -0 -11 3.33301 -11 10v527c0 6.66699 3.66699 10 11 10h36c8 0 12 -3.33301 12 -10z
M397 745v-97c0 -7.33301 -4.33301 -11 -13 -11h-33c-8.66699 0 -13 3.66699 -13 11v97c0 8 4.33301 12 13 12h33c8.66699 0 13 -4 13 -12zM397 537l0.00195312 -501.997c0 -58.667 -8.83301 -106 -26.5 -142s-44.834 -69.667 -81.501 -101c-4 -2.66699 -6.66699 -4 -8 -4
c-2.66699 0 -6 2 -10 6l-24 22c-2.66699 2 -4 4.33301 -4 7c0 3.33301 1.66699 6.66602 5 9.99902c21.333 19.333 38.166 37.166 50.499 53.499s22 36.166 29 59.499s10.5 52.333 10.5 87v504c0 6.66699 4 10 12 10h36c7.33301 0 11 -3.33301 11 -10z" />
    <glyph glyph-name="uni0136" unicode="&#x136;" horiz-adv-x="604" 
d="M564 8c0 -5.33301 -3.33398 -7.99902 -10.001 -7.99902h-43c-4.66699 0 -8.16699 0.666992 -10.5 2s-4.16602 3.66602 -5.49902 6.99902l-221 367l-107 -131v-235c0 -6.66699 -4 -10 -12 -10h-38c-8 -0 -12 3.33301 -12 10v712c0 6.66699 4 10 12 10h38
c8 0 12 -3.33301 12 -10v-390l321 393c2 2 4 3.66699 6 5s5 2 9 2h46c4 0 6.83301 -1.5 8.5 -4.5s1.16699 -5.83301 -1.5 -8.5l-242 -295l248 -409c1.33301 -4 2 -6.33301 2 -7zM327.999 -72.999c-0.666992 -36 -3.33301 -67 -8 -93s-13.667 -50 -27 -72
c-2 -4 -5.33301 -5.33301 -10 -4l-26 12c-2.66699 0.666992 -4.5 2.16699 -5.5 4.5s-0.833008 4.83301 0.5 7.5c9.33301 17.333 16 37.833 20 61.5s6.33301 51.5 7 83.5c0 6 2.66699 9 8 9h33c5.33301 0 8 -3 8 -9z" />
    <glyph glyph-name="uni0137" unicode="&#x137;" horiz-adv-x="515" 
d="M482 9c0 -2.66699 -0.832031 -4.83301 -2.49902 -6.5s-3.83398 -2.5 -6.50098 -2.5h-41c-5.33301 0 -9 0.666992 -11 2s-4 4 -6 8l-165 273l-98 -111v-162c0 -6.66699 -4 -10 -12 -10h-36c-7.33301 -0 -11 3.33301 -11 10v737c0 6.66699 3.66699 10 11 10h36
c8 0 12 -3.33301 12 -10v-495l247 285c6 6.66699 12.667 10 20 10h42c6 0 9 -2.66699 9 -8c0 -2.66699 -1 -5 -3 -7l-178 -204l191 -313c1.33301 -2.66699 2 -4.66699 2 -6zM289.001 -72.999c-0.666992 -36 -3.33301 -67 -8 -93s-13.667 -50 -27 -72
c-2 -4 -5.33301 -5.33301 -10 -4l-26 12c-2.66699 0.666992 -4.5 2.16699 -5.5 4.5s-0.833008 4.83301 0.5 7.5c9.33301 17.333 16 37.833 20 61.5s6.33301 51.5 7 83.5c0 6 2.66699 9 8 9h33c5.33301 0 8 -3 8 -9z" />
    <glyph glyph-name="Lacute" unicode="&#x139;" horiz-adv-x="514" 
d="M167 722v-663h309c7.33301 0 11 -3.66699 11 -11v-37c0 -7.33301 -3.66699 -11 -11 -11h-360c-7.33301 -0 -11 3.33301 -11 10v712c0 6.66699 4 10 12 10h38c8 0 12 -3.33301 12 -10zM97 811c-2 -2 -3.00098 -4 -3.00098 -6s0.833008 -3.66699 2.5 -5s3.5 -2 5.5 -2h30
c4 0 7 0.5 9 1.5s4.33301 3.16699 7 6.5l99 125l2 4c0 4.66699 -2.66699 7 -8 7h-42c-5.33301 0 -9.66602 -2.66699 -12.999 -8z" />
    <glyph glyph-name="lacute" unicode="&#x13a;" horiz-adv-x="245" 
d="M152 748v-738c0 -6.66699 -4 -10 -12 -10h-36c-7.33301 -0 -11 3.33301 -11 10v738c0 6.66699 3.66699 10 11 10h36c8 0 12 -3.33301 12 -10zM84 807c-2 -2 -3.00098 -4 -3.00098 -6s0.833008 -3.66699 2.5 -5s3.5 -2 5.5 -2h30c4 0 7 0.5 9 1.5s4.33301 3.16699 7 6.5
l99 125l2 4c0 4.66699 -2.66699 7 -8 7h-42c-5.33301 0 -9.66602 -2.66699 -12.999 -8z" />
    <glyph glyph-name="uni013B" unicode="&#x13b;" horiz-adv-x="514" 
d="M167 722v-663h309c7.33301 0 11 -3.66699 11 -11v-37c0 -7.33301 -3.66699 -11 -11 -11h-360c-7.33301 -0 -11 3.33301 -11 10v712c0 6.66699 4 10 12 10h38c8 0 12 -3.33301 12 -10zM288 -73c-0.666992 -36 -3.33301 -67 -8 -93s-13.667 -50 -27 -72
c-2 -4 -5.33301 -5.33301 -10 -4l-26 12c-2.66699 0.666992 -4.5 2.16699 -5.5 4.5s-0.833008 4.83301 0.5 7.5c9.33301 17.333 16 37.833 20 61.5s6.33301 51.5 7 83.5c0 6 2.66699 9 8 9h33c5.33301 0 8 -3 8 -9z" />
    <glyph glyph-name="uni013C" unicode="&#x13c;" horiz-adv-x="245" 
d="M152 748v-738c0 -6.66699 -4 -10 -12 -10h-36c-7.33301 -0 -11 3.33301 -11 10v738c0 6.66699 3.66699 10 11 10h36c8 0 12 -3.33301 12 -10zM147 -73c-0.666992 -36 -3.33301 -67 -8 -93s-13.667 -50 -27 -72c-2 -4 -5.33301 -5.33301 -10 -4l-26 12
c-2.66699 0.666992 -4.5 2.16699 -5.5 4.5s-0.833008 4.83301 0.5 7.5c9.33301 17.333 16 37.833 20 61.5s6.33301 51.5 7 83.5c0 6 2.66699 9 8 9h33c5.33301 0 8 -3 8 -9z" />
    <glyph glyph-name="Lcaron" unicode="&#x13d;" horiz-adv-x="515" 
d="M167 722v-663h309c7.33301 0 11 -3.66699 11 -11v-37c0 -7.33301 -3.66699 -11 -11 -11h-360c-7.33301 -0 -11 3.33301 -11 10v712c0 6.66699 4 10 12 10h38c8 0 12 -3.33301 12 -10zM312 566c19.333 45.333 28.3311 98.0029 26.998 158.003
c0 2 0.833008 3.83301 2.5 5.5s3.83398 2.5 6.50098 2.5h35c2.66699 0 4.83398 -0.833008 6.50098 -2.5s2.5 -3.83398 2.5 -6.50098c-0.666992 -34.667 -3.5 -66.334 -8.5 -95.001s-14.167 -55.667 -27.5 -81c-2 -5.33301 -5.33301 -7 -10 -5l-29 11
c-5.33301 3.33301 -7 7.66602 -5 12.999z" />
    <glyph glyph-name="lcaron" unicode="&#x13e;" horiz-adv-x="258" 
d="M152 748v-738c0 -6.66699 -4 -10 -12 -10h-36c-7.33301 -0 -11 3.33301 -11 10v738c0 6.66699 3.66699 10 11 10h36c8 0 12 -3.33301 12 -10zM209 591c19.333 45.333 28.3311 98.0029 26.998 158.003c0 2 0.833008 3.83301 2.5 5.5s3.83398 2.5 6.50098 2.5h35
c2.66699 0 4.83398 -0.833008 6.50098 -2.5s2.5 -3.83398 2.5 -6.50098c-0.666992 -34.667 -3.5 -66.334 -8.5 -95.001s-14.167 -55.667 -27.5 -81c-2 -5.33301 -5.33301 -7 -10 -5l-29 11c-5.33301 3.33301 -7 7.66602 -5 12.999z" />
    <glyph glyph-name="Ldot" unicode="&#x13f;" horiz-adv-x="516" 
d="M167 722v-663h309c7.33301 0 11 -3.66699 11 -11v-37c0 -7.33301 -3.66699 -11 -11 -11h-360c-7.33301 -0 -11 3.33301 -11 10v712c0 6.66699 4 10 12 10h38c8 0 12 -3.33301 12 -10zM390 480v-151c0 -9.33301 -4.33301 -14 -13 -14h-36c-8 0 -12 4.33301 -12 13v153
c0 8.66699 4 13 12 13h36c8.66699 0 13 -4.66699 13 -14z" />
    <glyph glyph-name="ldot" unicode="&#x140;" horiz-adv-x="323" 
d="M152 748v-738c0 -6.66699 -4 -10 -12 -10h-36c-7.33301 -0 -11 3.33301 -11 10v738c0 6.66699 3.66699 10 11 10h36c8 0 12 -3.33301 12 -10zM314 460v-151c0 -9.33301 -4.33301 -14 -13 -14h-36c-8 0 -12 4.33301 -12 13v153c0 8.66699 4 13 12 13h36
c8.66699 0 13 -4.66699 13 -14z" />
    <glyph glyph-name="Lslash" unicode="&#x141;" horiz-adv-x="522" 
d="M494 48l-0.000976562 -37c0 -7.33301 -3.33301 -11 -10 -11h-360c-7.33301 -0 -11 3.33301 -11 10v315l-65 -36c-2.66699 -1.33301 -4.66699 -2 -6 -2c-6.66699 0 -10 3.33301 -10 10v33c0 6.66699 3 11.334 9 14.001l72 41v337c0 6.66699 3.66699 10 11 10h39
c8 0 12 -3.33301 12 -10v-305l102 57c2.66699 1.33301 5 2 7 2c2.66699 0 4.83398 -1 6.50098 -3s2.5 -4.33301 2.5 -7v-33c0 -6.66699 -2.66699 -11.334 -8 -14.001l-110 -62v-298h309c6.66699 0 10 -3.66699 10 -11z" />
    <glyph glyph-name="lslash" unicode="&#x142;" horiz-adv-x="311" 
d="M268 470c5.33301 0 8 -3.33301 8 -10v-33c0 -6.66699 -2.66699 -11.334 -8 -14.001l-82 -46v-357c0 -6.66699 -4 -10 -12 -10h-36c-8 0 -12 3.33301 -12 10v326l-75 -42c-2.66699 -1.33301 -5 -2 -7 -2c-5.33301 0 -8 3.33301 -8 10v33
c0 6.66699 2.66699 11.334 8 14.001l82 47v352c0 6.66699 4 10 12 10h36c8 0 12 -3.33301 12 -10v-322l75 42c2.66699 1.33301 5 2 7 2z" />
    <glyph glyph-name="Nacute" unicode="&#x143;" horiz-adv-x="701" 
d="M596 722v-709.999c0 -8 -4.33301 -12 -13 -12h-60c-6 0 -11.333 3.66699 -16 11l-243 457l-56 110c-24 48.667 -38.667 77.667 -44 87h-1c2 -62.667 3 -124.334 3 -185.001v-469c0 -7.33301 -4 -11 -12 -11h-37c-8 0 -12 3.66699 -12 11v709c0 8 4.33301 12 13 12h65
c7.33301 0 13 -4 17 -12l241 -456l78 -155c2.66699 -4 9 -16.333 19 -37h2c-3.33301 68.667 -5 131 -5 187v463c0 6.66699 3.66699 10 11 10h38c8 0 12 -3.33301 12 -10zM316 811.001c-2 -2 -3.00098 -4 -3.00098 -6s0.833008 -3.66699 2.5 -5s3.5 -2 5.5 -2h30
c4 0 7 0.5 9 1.5s4.33301 3.16699 7 6.5l99 125l2 4c0 4.66699 -2.66699 7 -8 7h-42c-5.33301 0 -9.66602 -2.66699 -12.999 -8z" />
    <glyph glyph-name="nacute" unicode="&#x144;" horiz-adv-x="575" 
d="M218 469.5c-28.667 -21 -50.667 -48.832 -66 -83.499v-376c0 -6.66699 -4 -10 -12 -10h-36c-7.33301 0 -11 3.33301 -11 10v527c0 6.66699 3.66699 10 11 10h35c8 0 12 -3.33301 12 -10v-77c19.333 29.333 44 52.833 74 70.5s63.667 26.5 101 26.5
c50.667 0 89.834 -15.833 117.501 -47.5s41.5 -73.834 41.5 -126.501v-373c0 -6.66699 -4 -10 -12 -10h-35c-8 -0 -12 3.33301 -12 10v363c0 85.333 -38.667 128 -116 128c-32.667 0 -63.334 -10.5 -92.001 -31.5zM253 625.001c-2 -2 -3.00098 -4 -3.00098 -6
s0.833008 -3.66699 2.5 -5s3.5 -2 5.5 -2h30c4 0 7 0.5 9 1.5s4.33301 3.16699 7 6.5l99 125l2 4c0 4.66699 -2.66699 7 -8 7h-42c-5.33301 0 -9.66602 -2.66699 -12.999 -8z" />
    <glyph glyph-name="uni0145" unicode="&#x145;" horiz-adv-x="701" 
d="M596 722v-709.999c0 -8 -4.33301 -12 -13 -12h-60c-6 0 -11.333 3.66699 -16 11l-243 457l-56 110c-24 48.667 -38.667 77.667 -44 87h-1c2 -62.667 3 -124.334 3 -185.001v-469c0 -7.33301 -4 -11 -12 -11h-37c-8 0 -12 3.66699 -12 11v709c0 8 4.33301 12 13 12h65
c7.33301 0 13 -4 17 -12l241 -456l78 -155c2.66699 -4 9 -16.333 19 -37h2c-3.33301 68.667 -5 131 -5 187v463c0 6.66699 3.66699 10 11 10h38c8 0 12 -3.33301 12 -10zM379 -72.999c-0.666992 -36 -3.33301 -67 -8 -93s-13.667 -50 -27 -72
c-2 -4 -5.33301 -5.33301 -10 -4l-26 12c-2.66699 0.666992 -4.5 2.16699 -5.5 4.5s-0.833008 4.83301 0.5 7.5c9.33301 17.333 16 37.833 20 61.5s6.33301 51.5 7 83.5c0 6 2.66699 9 8 9h33c5.33301 0 8 -3 8 -9z" />
    <glyph glyph-name="uni0146" unicode="&#x146;" horiz-adv-x="575" 
d="M218 469.5c-28.667 -21 -50.667 -48.832 -66 -83.499v-376c0 -6.66699 -4 -10 -12 -10h-36c-7.33301 0 -11 3.33301 -11 10v527c0 6.66699 3.66699 10 11 10h35c8 0 12 -3.33301 12 -10v-77c19.333 29.333 44 52.833 74 70.5s63.667 26.5 101 26.5
c50.667 0 89.834 -15.833 117.501 -47.5s41.5 -73.834 41.5 -126.501v-373c0 -6.66699 -4 -10 -12 -10h-35c-8 -0 -12 3.33301 -12 10v363c0 85.333 -38.667 128 -116 128c-32.667 0 -63.334 -10.5 -92.001 -31.5zM312 -72.999c-0.666992 -36 -3.33301 -67 -8 -93
s-13.667 -50 -27 -72c-2 -4 -5.33301 -5.33301 -10 -4l-26 12c-2.66699 0.666992 -4.5 2.16699 -5.5 4.5s-0.833008 4.83301 0.5 7.5c9.33301 17.333 16 37.833 20 61.5s6.33301 51.5 7 83.5c0 6 2.66699 9 8 9h33c5.33301 0 8 -3 8 -9z" />
    <glyph glyph-name="Ncaron" unicode="&#x147;" horiz-adv-x="701" 
d="M596 722v-709.999c0 -8 -4.33301 -12 -13 -12h-60c-6 0 -11.333 3.66699 -16 11l-243 457l-56 110c-24 48.667 -38.667 77.667 -44 87h-1c2 -62.667 3 -124.334 3 -185.001v-469c0 -7.33301 -4 -11 -12 -11h-37c-8 0 -12 3.66699 -12 11v709c0 8 4.33301 12 13 12h65
c7.33301 0 13 -4 17 -12l241 -456l78 -155c2.66699 -4 9 -16.333 19 -37h2c-3.33301 68.667 -5 131 -5 187v463c0 6.66699 3.66699 10 11 10h38c8 0 12 -3.33301 12 -10zM482 933.001c0 -2 -1.33203 -4.66797 -3.99902 -8.00098l-91 -120c-3.33301 -5.33301 -8 -8 -14 -8
h-38c-3.33301 0 -5.83301 0.5 -7.5 1.5s-3.5 3.16699 -5.5 6.5l-91 120c-3.33301 4.66699 -5 7.33398 -5 8.00098c0 5.33301 3 8 9 8h34c4 0 8.33301 -2.66699 13 -8l72 -100l73 100c3.33301 5.33301 7.66602 8 12.999 8h33c6 0 9 -2.66699 9 -8z" />
    <glyph glyph-name="ncaron" unicode="&#x148;" horiz-adv-x="575" 
d="M218 469.5c-28.667 -21 -50.667 -48.832 -66 -83.499v-376c0 -6.66699 -4 -10 -12 -10h-36c-7.33301 0 -11 3.33301 -11 10v527c0 6.66699 3.66699 10 11 10h35c8 0 12 -3.33301 12 -10v-77c19.333 29.333 44 52.833 74 70.5s63.667 26.5 101 26.5
c50.667 0 89.834 -15.833 117.501 -47.5s41.5 -73.834 41.5 -126.501v-373c0 -6.66699 -4 -10 -12 -10h-35c-8 -0 -12 3.33301 -12 10v363c0 85.333 -38.667 128 -116 128c-32.667 0 -63.334 -10.5 -92.001 -31.5zM419 747.001c0 -2 -1.33203 -4.66797 -3.99902 -8.00098
l-91 -120c-3.33301 -5.33301 -8 -8 -14 -8h-38c-3.33301 0 -5.83301 0.5 -7.5 1.5s-3.5 3.16699 -5.5 6.5l-91 120c-3.33301 4.66699 -5 7.33398 -5 8.00098c0 5.33301 3 8 9 8h34c4 0 8.33301 -2.66699 13 -8l72 -100l73 100c3.33301 5.33301 7.66602 8 12.999 8h33
c6 0 9 -2.66699 9 -8z" />
    <glyph glyph-name="Eng" unicode="&#x14a;" horiz-adv-x="701" 
d="M596 722l0.000976562 -733.998c0 -64.667 -15.5 -113.834 -46.5 -147.501s-74.5 -50.5 -130.5 -50.5c-63.333 0 -115.666 24 -156.999 72c-4 4.66699 -6 8.66699 -6 12s1.33301 6.33301 4 9l22 23c4 4.66699 8 7 12 7c4.66699 0 8.66699 -2.66699 12 -8
c29.333 -37.333 66.666 -56 111.999 -56c35.333 0 62.666 9.83301 81.999 29.5s30.333 49.167 33 88.5l-269 502c-16 29.333 -34 64.666 -54 105.999c-10 21.333 -25.333 51.666 -46 90.999h-1c2 -62.667 3 -124 3 -184v-471c0 -7.33301 -4 -11 -12 -11h-37
c-8 0 -12 3.66699 -12 11v709c0 8 4.33301 12 13 12h65c7.33301 0 13 -4 17 -12l241 -455l66 -127l32 -63h1c-3.33301 68.667 -5 130.334 -5 185.001v462c0 6.66699 3.66699 10 11 10h38c8 0 12 -3.33301 12 -10z" />
    <glyph glyph-name="eng" unicode="&#x14b;" horiz-adv-x="575" 
d="M443.5 509.5c27.667 -31.667 41.501 -73.8311 41.501 -126.498v-348c0 -58.667 -8.83301 -106 -26.5 -142s-44.834 -69.667 -81.501 -101c-4 -2.66699 -6.66699 -4 -8 -4c-2.66699 0 -5.66699 2 -9 6l-25 22c-2.66699 2.66699 -4 5 -4 7c0 2.66699 2 6 6 10
c21.333 19.333 38 37.166 50 53.499s21.5 36.166 28.5 59.499s10.5 52.333 10.5 87v340c0 85.333 -38.667 128 -116 128c-32.667 0 -63.334 -10.5 -92.001 -31.5s-50.667 -48.833 -66 -83.5v-376c0 -6.66699 -4 -10 -12 -10h-36c-7.33301 -0 -11 3.33301 -11 10v527
c0 6.66699 3.66699 10 11 10h35c8 0 12 -3.33301 12 -10v-77c19.333 29.333 44 52.833 74 70.5s63.667 26.5 101 26.5c50.667 0 89.834 -15.833 117.501 -47.5z" />
    <glyph glyph-name="Omacron" unicode="&#x14c;" horiz-adv-x="671" 
d="M518 679c45.333 -42 68 -102.001 68 -180.001v-265c0 -78.667 -22.667 -139 -68 -181s-106.333 -63 -183 -63s-137.5 20.833 -182.5 62.5s-67.5 101.834 -67.5 180.501v265c0 79.333 22.5 139.833 67.5 181.5s105.833 62.5 182.5 62.5s137.667 -21 183 -63zM197 637.499
c-33.333 -30.333 -50 -77.5 -50 -141.5v-260c0 -64 16.667 -111.167 50 -141.5s79.333 -45.5 138 -45.5c59.333 0 105.666 15.167 138.999 45.5s50 77.5 50 141.5v260c0 64 -16.667 111.167 -50 141.5s-79.666 45.5 -138.999 45.5c-58.667 0 -104.667 -15.167 -138 -45.5z
M462 878.499c1.33301 -1.66699 2 -4.83301 2 -9.5v-27c0 -4 -0.666992 -6.83301 -2 -8.5s-4 -2.5 -8 -2.5h-238c-6.66699 0 -10 3.66699 -10 11v27c0 8 3.33301 12 10 12h238c4 0 6.66699 -0.833008 8 -2.5z" />
    <glyph glyph-name="omacron" unicode="&#x14d;" horiz-adv-x="574" 
d="M443 501.5c36.667 -37 55 -87.166 55 -150.499v-155c0 -63.333 -18.333 -113.5 -55 -150.5s-88.667 -55.5 -156 -55.5s-119.333 18.333 -156 55s-55 86.667 -55 150v155c0 63.333 18.333 113.666 55 150.999s88.667 56 156 56s119.333 -18.5 156 -55.5zM175.5 462.501
c-26.333 -26.333 -39.5 -64.5 -39.5 -114.5v-150c0 -50 13.167 -88 39.5 -114s63.5 -39 111.5 -39s85.167 13 111.5 39s39.5 64 39.5 114v150c0 50 -13.167 88.167 -39.5 114.5s-63.5 39.5 -111.5 39.5s-85.167 -13.167 -111.5 -39.5zM414 692.501
c1.33301 -1.66699 2 -4.83301 2 -9.5v-27c0 -4 -0.666992 -6.83301 -2 -8.5s-4 -2.5 -8 -2.5h-238c-6.66699 0 -10 3.66699 -10 11v27c0 8 3.33301 12 10 12h238c4 0 6.66699 -0.833008 8 -2.5z" />
    <glyph glyph-name="Ohungarumlaut" unicode="&#x150;" horiz-adv-x="671" 
d="M518 679c45.333 -42 68 -102.001 68 -180.001v-265c0 -78.667 -22.667 -139 -68 -181s-106.333 -63 -183 -63s-137.5 20.833 -182.5 62.5s-67.5 101.834 -67.5 180.501v265c0 79.333 22.5 139.833 67.5 181.5s105.833 62.5 182.5 62.5s137.667 -21 183 -63zM197 637.499
c-33.333 -30.333 -50 -77.5 -50 -141.5v-260c0 -64 16.667 -111.167 50 -141.5s79.333 -45.5 138 -45.5c59.333 0 105.666 15.167 138.999 45.5s50 77.5 50 141.5v260c0 64 -16.667 111.167 -50 141.5s-79.666 45.5 -138.999 45.5c-58.667 0 -104.667 -15.167 -138 -45.5z
M367 810.999c-1.33301 -2.66699 -2 -4.66699 -2 -6c0 -2 0.833008 -3.66699 2.5 -5s3.5 -2 5.5 -2h30c4 0 7 0.5 9 1.5s4.33301 3.16699 7 6.5l99 125l2 4c0 4.66699 -2.66699 7 -8 7h-42c-5.33301 0 -10 -2.66699 -14 -8zM233 810.999c-1.33301 -2.66699 -2 -4.66699 -2 -6
c0 -2 0.833008 -3.66699 2.5 -5s3.5 -2 5.5 -2h30c4 0 7 0.5 9 1.5s4.33301 3.16699 7 6.5l99 125l2 4c0 4.66699 -2.66699 7 -8 7h-42c-5.33301 0 -10 -2.66699 -14 -8z" />
    <glyph glyph-name="ohungarumlaut" unicode="&#x151;" horiz-adv-x="574" 
d="M443 501.5c36.667 -37 55 -87.166 55 -150.499v-155c0 -63.333 -18.333 -113.5 -55 -150.5s-88.667 -55.5 -156 -55.5s-119.333 18.333 -156 55s-55 86.667 -55 150v155c0 63.333 18.333 113.666 55 150.999s88.667 56 156 56s119.333 -18.5 156 -55.5zM175.5 462.501
c-26.333 -26.333 -39.5 -64.5 -39.5 -114.5v-150c0 -50 13.167 -88 39.5 -114s63.5 -39 111.5 -39s85.167 13 111.5 39s39.5 64 39.5 114v150c0 50 -13.167 88.167 -39.5 114.5s-63.5 39.5 -111.5 39.5s-85.167 -13.167 -111.5 -39.5zM319 625.001
c-1.33301 -2.66699 -2 -4.66699 -2 -6c0 -2 0.833008 -3.66699 2.5 -5s3.5 -2 5.5 -2h30c4 0 7 0.5 9 1.5s4.33301 3.16699 7 6.5l99 125l2 4c0 4.66699 -2.66699 7 -8 7h-42c-5.33301 0 -10 -2.66699 -14 -8zM185 625.001c-1.33301 -2.66699 -2 -4.66699 -2 -6
c0 -2 0.833008 -3.66699 2.5 -5s3.5 -2 5.5 -2h30c4 0 7 0.5 9 1.5s4.33301 3.16699 7 6.5l99 125l2 4c0 4.66699 -2.66699 7 -8 7h-42c-5.33301 0 -10 -2.66699 -14 -8z" />
    <glyph glyph-name="OE" unicode="&#x152;" horiz-adv-x="981" 
d="M904 46l0.000976562 -34c0 -8 -3.33301 -12 -10 -12h-358c-8 -0 -12 3.33301 -12 10v63c-42.667 -55.333 -107.334 -83 -194.001 -83c-74.667 0 -134.167 20.833 -178.5 62.5s-66.5 101.834 -66.5 180.501v265c0 79.333 22.167 139.833 66.5 181.5
s103.833 62.5 178.5 62.5c90 0 154.667 -28 194 -84v64c0 6.66699 4 10 12 10h358c6.66699 0 10 -4 10 -12v-34c0 -4.66699 -0.666992 -7.83398 -2 -9.50098s-4 -2.5 -8 -2.5h-311v-273h283c6.66699 0 10 -4 10 -12v-33c0 -8 -3.33301 -12 -10 -12h-283v-286h311
c6.66699 0 10 -4 10 -12zM474.001 94.5c33.333 30.333 50 77.5 50 141.5v260c0 64 -16.667 111.167 -50 141.5s-79.666 45.5 -138.999 45.5c-58.667 0 -104.667 -15.167 -138 -45.5s-50 -77.5 -50 -141.5v-260c0 -64 16.667 -111.167 50 -141.5s79.333 -45.5 138 -45.5
c59.333 0 105.666 15.167 138.999 45.5z" />
    <glyph glyph-name="oe" unicode="&#x153;" horiz-adv-x="918" 
d="M497 253l0.000976562 -56.9971c0 -50.667 13.167 -88.834 39.5 -114.501s63.833 -38.5 112.5 -38.5c40 0 70.667 7 92 21s37.666 33.667 48.999 59c2.66699 5.33301 6 8 10 8l8 -2l25 -13c8.66699 -4 11 -9.66699 7 -17c-14.667 -33.333 -37.667 -59.833 -69 -79.5
s-71.666 -29.5 -120.999 -29.5c-92 0 -152.667 38.667 -182 116c-14.667 -38.667 -37.667 -67.667 -69 -87s-69.333 -29 -114 -29c-66.667 0 -118.167 18.333 -154.5 55s-54.5 86.667 -54.5 150v154c0 64 18.167 114.5 54.5 151.5s88.166 55.5 155.499 55.5
c44 0 81.5 -9.66699 112.5 -29s54.167 -48.333 69.5 -87c14.667 38.667 37.167 67.667 67.5 87s66.833 29 109.5 29c64 -0.666992 113.667 -19.334 149 -56.001s53 -86.334 53 -149.001v-76c0 -14.667 -8.66699 -22 -26 -22h-324zM536.501 464.003
c-26.333 -26 -39.502 -63.999 -39.502 -113.999v-51h291v51c0 49.333 -12.667 87.166 -38 113.499s-60.666 39.5 -105.999 39.5s-81.166 -13 -107.499 -39zM437.999 347.004c0 50 -13 88.166 -39 114.499s-62.667 39.5 -110 39.5c-49.333 0 -87.333 -13 -114 -39
s-40 -64.333 -40 -115v-149c0 -50 12.833 -88 38.5 -114s62.167 -39 109.5 -39c49.333 0 87.5 12.833 114.5 38.5s40.5 63.834 40.5 114.501v149z" />
    <glyph glyph-name="Racute" unicode="&#x154;" horiz-adv-x="612" 
d="M554 8c0 -5.33301 -3.00098 -8 -9.00098 -8h-47c-3.33301 -0 -6.16602 0.833008 -8.49902 2.5s-4.5 3.83398 -6.5 6.50098l-174 299h-142v-298c0 -6.66699 -4 -10 -12 -10h-38c-8 0 -12 3.33301 -12 10v712c0 6.66699 4 10 12 10h200c75.333 0 131 -18 167 -54
s54 -85 54 -147v-18c0 -54.667 -13.667 -99.334 -41 -134.001s-68 -56.667 -122 -66l177 -300zM166.999 365h145c58 0 99.833 12.5 125.5 37.5s38.5 62.5 38.5 112.5v13c0 47.333 -12.833 83.5 -38.5 108.5s-67.5 37.5 -125.5 37.5h-145v-309zM266.999 811
c-2 -2 -3.00098 -4 -3.00098 -6s0.833008 -3.66699 2.5 -5s3.5 -2 5.5 -2h30c4 0 7 0.5 9 1.5s4.33301 3.16699 7 6.5l99 125l2 4c0 4.66699 -2.66699 7 -8 7h-42c-5.33301 0 -9.66602 -2.66699 -12.999 -8z" />
    <glyph glyph-name="racute" unicode="&#x155;" horiz-adv-x="364" 
d="M332.5 552c1.66699 -1.33301 2.49902 -4.33203 2.49902 -8.99902v-37c0 -7.33301 -4 -11 -12 -11h-9c-38.667 0 -71.667 -10.5 -99 -31.5s-48.333 -49.167 -63 -84.5v-370c0 -6 -3.66699 -9 -11 -9h-37c-7.33301 0 -11 3 -11 9v529c0 6 3.33301 9 10 9h37
c7.33301 0 11 -3.33301 11 -10l-1 -88c16.667 31.333 39.667 56.666 69 75.999s64 29 104 29c4.66699 0 7.83398 -0.666992 9.50098 -2zM164.999 625.001c-2 -2 -3.00098 -4 -3.00098 -6s0.833008 -3.66699 2.5 -5s3.5 -2 5.5 -2h30c4 0 7 0.5 9 1.5s4.33301 3.16699 7 6.5
l99 125l2 4c0 4.66699 -2.66699 7 -8 7h-42c-5.33301 0 -9.66602 -2.66699 -12.999 -8z" />
    <glyph glyph-name="uni0156" unicode="&#x156;" horiz-adv-x="612" 
d="M554 8c0 -5.33301 -3.00098 -8 -9.00098 -8h-47c-3.33301 -0 -6.16602 0.833008 -8.49902 2.5s-4.5 3.83398 -6.5 6.50098l-174 299h-142v-298c0 -6.66699 -4 -10 -12 -10h-38c-8 0 -12 3.33301 -12 10v712c0 6.66699 4 10 12 10h200c75.333 0 131 -18 167 -54
s54 -85 54 -147v-18c0 -54.667 -13.667 -99.334 -41 -134.001s-68 -56.667 -122 -66l177 -300zM166.999 365h145c58 0 99.833 12.5 125.5 37.5s38.5 62.5 38.5 112.5v13c0 47.333 -12.833 83.5 -38.5 108.5s-67.5 37.5 -125.5 37.5h-145v-309zM330.999 -73
c-0.666992 -36 -3.33301 -67 -8 -93s-13.667 -50 -27 -72c-2 -4 -5.33301 -5.33301 -10 -4l-26 12c-2.66699 0.666992 -4.5 2.16699 -5.5 4.5s-0.833008 4.83301 0.5 7.5c9.33301 17.333 16 37.833 20 61.5s6.33301 51.5 7 83.5c0 6 2.66699 9 8 9h33c5.33301 0 8 -3 8 -9z
" />
    <glyph glyph-name="uni0157" unicode="&#x157;" horiz-adv-x="364" 
d="M332.5 552c1.66699 -1.33301 2.49902 -4.33203 2.49902 -8.99902v-37c0 -7.33301 -4 -11 -12 -11h-9c-38.667 0 -71.667 -10.5 -99 -31.5s-48.333 -49.167 -63 -84.5v-370c0 -6 -3.66699 -9 -11 -9h-37c-7.33301 0 -11 3 -11 9v529c0 6 3.33301 9 10 9h37
c7.33301 0 11 -3.33301 11 -10l-1 -88c16.667 31.333 39.667 56.666 69 75.999s64 29 104 29c4.66699 0 7.83398 -0.666992 9.50098 -2zM147.999 -72.999c-0.666992 -36 -3.33301 -67 -8 -93s-13.667 -50 -27 -72c-2 -4 -5.33301 -5.33301 -10 -4l-26 12
c-2.66699 0.666992 -4.5 2.16699 -5.5 4.5s-0.833008 4.83301 0.5 7.5c9.33301 17.333 16 37.833 20 61.5s6.33301 51.5 7 83.5c0 6 2.66699 9 8 9h33c5.33301 0 8 -3 8 -9z" />
    <glyph glyph-name="Rcaron" unicode="&#x158;" horiz-adv-x="612" 
d="M554 8c0 -5.33301 -3.00098 -8 -9.00098 -8h-47c-3.33301 -0 -6.16602 0.833008 -8.49902 2.5s-4.5 3.83398 -6.5 6.50098l-174 299h-142v-298c0 -6.66699 -4 -10 -12 -10h-38c-8 0 -12 3.33301 -12 10v712c0 6.66699 4 10 12 10h200c75.333 0 131 -18 167 -54
s54 -85 54 -147v-18c0 -54.667 -13.667 -99.334 -41 -134.001s-68 -56.667 -122 -66l177 -300zM166.999 365h145c58 0 99.833 12.5 125.5 37.5s38.5 62.5 38.5 112.5v13c0 47.333 -12.833 83.5 -38.5 108.5s-67.5 37.5 -125.5 37.5h-145v-309zM432.999 933
c0 -2 -1.33203 -4.66797 -3.99902 -8.00098l-91 -120c-3.33301 -5.33301 -8 -8 -14 -8h-38c-3.33301 0 -5.83301 0.5 -7.5 1.5s-3.5 3.16699 -5.5 6.5l-91 120c-3.33301 4.66699 -5 7.33398 -5 8.00098c0 5.33301 3 8 9 8h34c4 0 8.33301 -2.66699 13 -8l72 -100l73 100
c3.33301 5.33301 7.66602 8 12.999 8h33c6 0 9 -2.66699 9 -8z" />
    <glyph glyph-name="rcaron" unicode="&#x159;" horiz-adv-x="364" 
d="M332.5 552c1.66699 -1.33301 2.49902 -4.33203 2.49902 -8.99902v-37c0 -7.33301 -4 -11 -12 -11h-9c-38.667 0 -71.667 -10.5 -99 -31.5s-48.333 -49.167 -63 -84.5v-370c0 -6 -3.66699 -9 -11 -9h-37c-7.33301 0 -11 3 -11 9v529c0 6 3.33301 9 10 9h37
c7.33301 0 11 -3.33301 11 -10l-1 -88c16.667 31.333 39.667 56.666 69 75.999s64 29 104 29c4.66699 0 7.83398 -0.666992 9.50098 -2zM330.999 747.001c0 -2 -1.33203 -4.66797 -3.99902 -8.00098l-91 -120c-3.33301 -5.33301 -8 -8 -14 -8h-38
c-3.33301 0 -5.83301 0.5 -7.5 1.5s-3.5 3.16699 -5.5 6.5l-91 120c-3.33301 4.66699 -5 7.33398 -5 8.00098c0 5.33301 3 8 9 8h34c4 0 8.33301 -2.66699 13 -8l72 -100l73 100c3.33301 5.33301 7.66602 8 12.999 8h33c6 0 9 -2.66699 9 -8z" />
    <glyph glyph-name="Sacute" unicode="&#x15a;" horiz-adv-x="585" 
d="M430.5 704.5c36.333 -25 63.498 -61.834 81.498 -110.501l1 -4c0 -4.66699 -2.66699 -8 -8 -10l-36 -13c-1.33301 -0.666992 -3.33301 -1 -6 -1c-3.33301 0 -6 2.33301 -8 7c-14.667 38 -34.834 66.167 -60.501 84.5s-58.167 27.5 -97.5 27.5
c-47.333 0 -84.833 -11.333 -112.5 -34s-41.5 -53.334 -41.5 -92.001c0 -23.333 5.16699 -43.333 15.5 -60s27.833 -32.5 52.5 -47.5s59.667 -31.833 105 -50.5c49.333 -20 88.333 -40.167 117 -60.5s49.334 -42.833 62.001 -67.5s19 -54 19 -88
c0 -38.667 -9.16699 -72.667 -27.5 -102s-44.166 -52.166 -77.499 -68.499s-72 -24.5 -116 -24.5c-60 0 -109.5 13.833 -148.5 41.5s-66.167 67.5 -81.5 119.5l-1 5c0 5.33301 3 9 9 11l34 10c2 0.666992 4.33301 1 7 1c4 0 7 -3 9 -9c10 -39.333 30 -69.5 60 -90.5
s67.333 -31.5 112 -31.5c48.667 0 87.334 11.833 116.001 35.5s43 55.834 43 96.501c0 26 -5 48 -15 66s-26.833 34.833 -50.5 50.5s-57.834 32.5 -102.501 50.5c-73.333 30 -125.5 61.167 -156.5 93.5s-46.5 71.833 -46.5 118.5c0 36 8.83301 68 26.5 96
s42.834 49.667 75.501 65s70.667 23 114 23c52.667 0 97.167 -12.5 133.5 -37.5zM254.998 807.999c-2 -2 -3.00098 -4 -3.00098 -6s0.833008 -3.66699 2.5 -5s3.5 -2 5.5 -2h30c4 0 7 0.5 9 1.5s4.33301 3.16699 7 6.5l99 125l2 4c0 4.66699 -2.66699 7 -8 7h-42
c-5.33301 0 -9.66602 -2.66699 -12.999 -8z" />
    <glyph glyph-name="sacute" unicode="&#x15b;" horiz-adv-x="507" 
d="M374 524.5c32.667 -21 53.9941 -50.1719 63.9941 -87.5049l1 -5c0 -5.33301 -3.33301 -9 -10 -11l-28 -9l-6 -1c-4.66699 0 -8 2.66699 -10 8c-9.33301 28.667 -24.666 50 -45.999 64s-49.666 21 -84.999 21c-38 0 -68 -8.16699 -90 -24.5s-33 -38.166 -33 -65.499
c0 -24.667 9.83301 -44.667 29.5 -60s56.167 -31 109.5 -47c64 -19.333 108.833 -41.166 134.5 -65.499s38.5 -57.166 38.5 -98.499c0 -29.333 -7.83301 -55.666 -23.5 -78.999s-37.667 -41.666 -66 -54.999s-60.5 -20 -96.5 -20c-50.667 0 -93.667 11.167 -129 33.5
s-58.666 52.833 -69.999 91.5c-0.666992 1.33301 -1 3.33301 -1 6c0 5.33301 2.66699 9 8 11l28 11c1.33301 0.666992 3.33301 1 6 1c5.33301 0 9 -3.33301 11 -10c6.66699 -28 23.5 -50.167 50.5 -66.5s58.833 -24.5 95.5 -24.5c38 0 69 9.16699 93 27.5s36 41.833 36 70.5
c0 19.333 -4.16699 35.333 -12.5 48s-22.666 24.167 -42.999 34.5s-50.166 21.5 -89.499 33.5c-59.333 18 -102 39 -128 63s-39 55.333 -39 94c0 42 16.833 76.333 50.5 103s76.834 40 129.501 40c48 0 88.333 -10.5 121 -31.5zM216.994 624.995
c-2 -2 -3.00098 -4 -3.00098 -6s0.833008 -3.66699 2.5 -5s3.5 -2 5.5 -2h30c4 0 7 0.5 9 1.5s4.33301 3.16699 7 6.5l99 125l2 4c0 4.66699 -2.66699 7 -8 7h-42c-5.33301 0 -9.66602 -2.66699 -12.999 -8z" />
    <glyph glyph-name="uni015E" unicode="&#x15e;" horiz-adv-x="585" 
d="M458 47.5c-37.333 -35 -87.6689 -54.168 -151.002 -57.501l-8 -36c24 -4.66699 42.833 -14.167 56.5 -28.5s20.5 -31.833 20.5 -52.5c0 -26 -9.66699 -47.167 -29 -63.5s-44 -24.5 -74 -24.5c-22 0 -41 4 -57 12c-4.66699 2 -6.33398 6 -5.00098 12l7 25
c2 6 6.33301 7.66699 13 5c14.667 -6 29.334 -9 44.001 -9c15.333 0 27.5 4 36.5 12s13.5 18.667 13.5 32c0 26.667 -20.667 41.667 -62 45c-6 0 -8.66699 3 -8 9l15 62c-53.333 3.33301 -97.666 18.833 -132.999 46.5s-60 65.834 -74 114.501l-1 5c0 5.33301 3 9 9 11
l34 10c2 0.666992 4.33301 1 7 1c4 0 7 -3 9 -9c10 -39.333 30 -69.5 60 -90.5s67.333 -31.5 112 -31.5c48.667 0 87.334 11.833 116.001 35.5s43 55.834 43 96.501c0 26 -5 48 -15 66s-26.833 34.833 -50.5 50.5s-57.834 32.5 -102.501 50.5
c-73.333 30 -125.5 61.167 -156.5 93.5s-46.5 71.833 -46.5 118.5c0 36 8.83301 68 26.5 96s42.834 49.667 75.501 65s70.667 23 114 23c52.667 0 97.167 -12.5 133.5 -37.5s63.5 -61.833 81.5 -110.5l1 -4c0 -4.66699 -2.66699 -8 -8 -10l-36 -13
c-1.33301 -0.666992 -3.33301 -1 -6 -1c-3.33301 0 -6 2.33301 -8 7c-14.667 38 -34.834 66.167 -60.501 84.5s-58.167 27.5 -97.5 27.5c-47.333 0 -84.833 -11.333 -112.5 -34s-41.5 -53.334 -41.5 -92.001c0 -23.333 5.16699 -43.333 15.5 -60s27.833 -32.5 52.5 -47.5
s59.667 -31.833 105 -50.5c49.333 -20 88.333 -40.167 117 -60.5s49.334 -42.833 62.001 -67.5s19 -54 19 -88c0 -56.667 -18.667 -102.5 -56 -137.5z" />
    <glyph glyph-name="uni015F" unicode="&#x15f;" horiz-adv-x="507" 
d="M396 36.5c-31.333 -28.333 -72.3389 -43.8369 -123.006 -46.5039l-8 -36c24 -4.66699 42.833 -14.167 56.5 -28.5s20.5 -31.833 20.5 -52.5c0 -26 -9.66699 -47.167 -29 -63.5s-44 -24.5 -74 -24.5c-20.667 0 -39.667 4 -57 12c-4.66699 2 -6.33398 6 -5.00098 12l7 25
c1.33301 3.33301 3 5.33301 5 6s4.66699 0.333984 8 -0.999023c14.667 -6 29.334 -9 44.001 -9c15.333 0 27.5 4 36.5 12s13.5 18.667 13.5 32c0 26.667 -20.667 41.667 -62 45c-6 0 -8.66699 3 -8 9l15 62c-45.333 2.66699 -83.666 15 -114.999 37s-52.333 51 -63 87
c-0.666992 1.33301 -1 3.33301 -1 6c0 5.33301 2.66699 9 8 11l28 11c1.33301 0.666992 3.33301 1 6 1c5.33301 0 9 -3.33301 11 -10c6.66699 -28 23.5 -50.167 50.5 -66.5s58.833 -24.5 95.5 -24.5c38 0 69 9.16699 93 27.5s36 41.833 36 70.5
c0 19.333 -4.16699 35.333 -12.5 48s-22.666 24.167 -42.999 34.5s-50.166 21.5 -89.499 33.5c-59.333 18 -102 39 -128 63s-39 55.333 -39 94c0 42 16.833 76.333 50.5 103s76.834 40 129.501 40c48 0 88.333 -10.5 121 -31.5s54 -50.167 64 -87.5l1 -5
c0 -5.33301 -3.33301 -9 -10 -11l-28 -9l-6 -1c-4.66699 0 -8 2.66699 -10 8c-9.33301 28.667 -24.666 50 -45.999 64s-49.666 21 -84.999 21c-38 0 -68 -8.16699 -90 -24.5s-33 -38.166 -33 -65.499c0 -24.667 9.83301 -44.667 29.5 -60s56.167 -31 109.5 -47
c64 -19.333 108.833 -41.166 134.5 -65.499s38.5 -57.166 38.5 -98.499c0 -42.667 -15.667 -78.167 -47 -106.5z" />
    <glyph glyph-name="Scaron" unicode="&#x160;" horiz-adv-x="585" 
d="M430.5 704.5c36.333 -25 63.498 -61.834 81.498 -110.501l1 -4c0 -4.66699 -2.66699 -8 -8 -10l-36 -13c-1.33301 -0.666992 -3.33301 -1 -6 -1c-3.33301 0 -6 2.33301 -8 7c-14.667 38 -34.834 66.167 -60.501 84.5s-58.167 27.5 -97.5 27.5
c-47.333 0 -84.833 -11.333 -112.5 -34s-41.5 -53.334 -41.5 -92.001c0 -23.333 5.16699 -43.333 15.5 -60s27.833 -32.5 52.5 -47.5s59.667 -31.833 105 -50.5c49.333 -20 88.333 -40.167 117 -60.5s49.334 -42.833 62.001 -67.5s19 -54 19 -88
c0 -38.667 -9.16699 -72.667 -27.5 -102s-44.166 -52.166 -77.499 -68.499s-72 -24.5 -116 -24.5c-60 0 -109.5 13.833 -148.5 41.5s-66.167 67.5 -81.5 119.5l-1 5c0 5.33301 3 9 9 11l34 10c2 0.666992 4.33301 1 7 1c4 0 7 -3 9 -9c10 -39.333 30 -69.5 60 -90.5
s67.333 -31.5 112 -31.5c48.667 0 87.334 11.833 116.001 35.5s43 55.834 43 96.501c0 26 -5 48 -15 66s-26.833 34.833 -50.5 50.5s-57.834 32.5 -102.501 50.5c-73.333 30 -125.5 61.167 -156.5 93.5s-46.5 71.833 -46.5 118.5c0 36 8.83301 68 26.5 96
s42.834 49.667 75.501 65s70.667 23 114 23c52.667 0 97.167 -12.5 133.5 -37.5zM420.998 929.999c0 -2 -1.33203 -4.66797 -3.99902 -8.00098l-91 -120c-3.33301 -5.33301 -8 -8 -14 -8h-38c-3.33301 0 -5.83301 0.5 -7.5 1.5s-3.5 3.16699 -5.5 6.5l-91 120
c-3.33301 4.66699 -5 7.33398 -5 8.00098c0 5.33301 3 8 9 8h34c4 0 8.33301 -2.66699 13 -8l72 -100l73 100c3.33301 5.33301 7.66602 8 12.999 8h33c6 0 9 -2.66699 9 -8z" />
    <glyph glyph-name="scaron" unicode="&#x161;" horiz-adv-x="507" 
d="M374 524.5c32.667 -21 53.9941 -50.1719 63.9941 -87.5049l1 -5c0 -5.33301 -3.33301 -9 -10 -11l-28 -9l-6 -1c-4.66699 0 -8 2.66699 -10 8c-9.33301 28.667 -24.666 50 -45.999 64s-49.666 21 -84.999 21c-38 0 -68 -8.16699 -90 -24.5s-33 -38.166 -33 -65.499
c0 -24.667 9.83301 -44.667 29.5 -60s56.167 -31 109.5 -47c64 -19.333 108.833 -41.166 134.5 -65.499s38.5 -57.166 38.5 -98.499c0 -29.333 -7.83301 -55.666 -23.5 -78.999s-37.667 -41.666 -66 -54.999s-60.5 -20 -96.5 -20c-50.667 0 -93.667 11.167 -129 33.5
s-58.666 52.833 -69.999 91.5c-0.666992 1.33301 -1 3.33301 -1 6c0 5.33301 2.66699 9 8 11l28 11c1.33301 0.666992 3.33301 1 6 1c5.33301 0 9 -3.33301 11 -10c6.66699 -28 23.5 -50.167 50.5 -66.5s58.833 -24.5 95.5 -24.5c38 0 69 9.16699 93 27.5s36 41.833 36 70.5
c0 19.333 -4.16699 35.333 -12.5 48s-22.666 24.167 -42.999 34.5s-50.166 21.5 -89.499 33.5c-59.333 18 -102 39 -128 63s-39 55.333 -39 94c0 42 16.833 76.333 50.5 103s76.834 40 129.501 40c48 0 88.333 -10.5 121 -31.5zM382.994 746.995
c0 -2 -1.33203 -4.66797 -3.99902 -8.00098l-91 -120c-3.33301 -5.33301 -8 -8 -14 -8h-38c-3.33301 0 -5.83301 0.5 -7.5 1.5s-3.5 3.16699 -5.5 6.5l-91 120c-3.33301 4.66699 -5 7.33398 -5 8.00098c0 5.33301 3 8 9 8h34c4 0 8.33301 -2.66699 13 -8l72 -100l73 100
c3.33301 5.33301 7.66602 8 12.999 8h33c6 0 9 -2.66699 9 -8z" />
    <glyph glyph-name="uni0162" unicode="&#x162;" horiz-adv-x="557" 
d="M527 720v-35c0 -8 -3.33301 -12 -10 -12h-209v-663c0 -6.66699 -3.66699 -10 -11 -10h-3l-11 -46c24 -4.66699 42.833 -14.167 56.5 -28.5s20.5 -31.833 20.5 -52.5c0 -26 -9.66699 -47.167 -29 -63.5s-44 -24.5 -74 -24.5c-22 0 -41 4 -57 12
c-4.66699 2 -6.33398 6 -5.00098 12l7 25c2 6 6.33301 7.66699 13 5c14.667 -6 29.334 -9 44.001 -9c15.333 0 27.5 4 36.5 12s13.5 18.667 13.5 32s-5.33301 23.833 -16 31.5s-26 12.167 -46 13.5c-6 0 -8.66699 3 -8 9l17 72c-6.66699 0.666992 -10 4 -10 10v663h-206
c-6.66699 0 -10 4 -10 12v35c0 8 3.33301 12 10 12h477c6.66699 0 10 -4 10 -12z" />
    <glyph glyph-name="uni0163" unicode="&#x163;" horiz-adv-x="358" 
d="M185 493l-0.000976562 -355c0 -55.333 28.667 -83 86 -83h37c8 0 12 -3.66699 12 -11v-32c0 -8 -4 -12 -12 -12h-44c-16.667 0 -32.667 2 -48 6l-12 -52c24 -4.66699 42.667 -14 56 -28s20 -31.667 20 -53c0 -26 -9.66699 -47.167 -29 -63.5s-44 -24.5 -74 -24.5
c-21.333 0 -40 4 -56 12c-5.33301 2.66699 -7.33301 6.66699 -6 12l8 25c2 6 6.33301 7.66699 13 5c14.667 -6 29 -9 43 -9c15.333 0 27.666 4 36.999 12s14 18.667 14 32s-5.33301 23.833 -16 31.5s-26 12.167 -46 13.5c-6 0 -8.66699 3 -8 9l22 92
c-37.333 22 -56 58.667 -56 110v363h-79c-4 0 -6.66699 0.833008 -8 2.5s-2 4.83398 -2 9.50098v27c0 4.66699 0.666992 7.83398 2 9.50098s4 2.5 8 2.5h80v137c0 4 0.833008 6.83301 2.5 8.5s4.83398 2.5 9.50098 2.5h34c4.66699 0 7.83398 -0.833008 9.50098 -2.5
s2.5 -4.5 2.5 -8.5v-137h124c4 0 6.83301 -0.833008 8.5 -2.5s2.5 -4.83398 2.5 -9.50098v-27c0 -4.66699 -0.833008 -7.83398 -2.5 -9.50098s-4.5 -2.5 -8.5 -2.5h-124z" />
    <glyph glyph-name="Tcaron" unicode="&#x164;" horiz-adv-x="557" 
d="M527 720v-35c0 -8 -3.33301 -12 -10 -12h-209v-663c0 -6.66699 -3.66699 -10 -11 -10h-39c-8 -0 -12 3.33301 -12 10v663h-206c-6.66699 0 -10 4 -10 12v35c0 8 3.33301 12 10 12h477c6.66699 0 10 -4 10 -12zM407 930c0 -2 -1.33203 -4.66797 -3.99902 -8.00098
l-91 -120c-3.33301 -5.33301 -8 -8 -14 -8h-38c-3.33301 0 -5.83301 0.5 -7.5 1.5s-3.5 3.16699 -5.5 6.5l-91 120c-3.33301 4.66699 -5 7.33398 -5 8.00098c0 5.33301 3 8 9 8h34c4 0 8.33301 -2.66699 13 -8l72 -100l73 100c3.33301 5.33301 7.66602 8 12.999 8h33
c6 0 9 -2.66699 9 -8z" />
    <glyph glyph-name="tcaron" unicode="&#x165;" horiz-adv-x="358" 
d="M182.5 689.5c1.66699 -1.66699 2.49902 -4.5 2.49902 -8.5v-137h124c4 0 6.83301 -0.833008 8.5 -2.5s2.5 -4.83398 2.5 -9.50098v-27c0 -4.66699 -0.833008 -7.83398 -2.5 -9.50098s-4.5 -2.5 -8.5 -2.5h-124v-355c0 -55.333 28.667 -83 86 -83h37
c8 0 12 -3.66699 12 -11v-32c0 -8 -4 -12 -12 -12h-44c-42.667 0 -76.334 11.333 -101.001 34s-37 54.667 -37 96v363h-79c-4 0 -6.66699 0.833008 -8 2.5s-2 4.83398 -2 9.50098v27c0 4.66699 0.666992 7.83398 2 9.50098s4 2.5 8 2.5h80v137c0 4 0.833008 6.83301 2.5 8.5
s4.83398 2.5 9.50098 2.5h34c4.66699 0 7.83398 -0.833008 9.50098 -2.5zM280.999 616c19.333 45.333 28.3311 98.0029 26.998 158.003c0 2 0.833008 3.83301 2.5 5.5s3.83398 2.5 6.50098 2.5h35c2.66699 0 4.83398 -0.833008 6.50098 -2.5s2.5 -3.83398 2.5 -6.50098
c-0.666992 -34.667 -3.5 -66.334 -8.5 -95.001s-14.167 -55.667 -27.5 -81c-2 -5.33301 -5.33301 -7 -10 -5l-29 11c-5.33301 3.33301 -7 7.66602 -5 12.999z" />
    <glyph glyph-name="Tbar" unicode="&#x166;" horiz-adv-x="581" 
d="M539 720v-35c0 -8 -3.33301 -12 -10 -12h-209v-278h132c6.66699 0 10 -4 10 -12v-33c0 -8 -3.33301 -12 -10 -12h-132v-328c0 -6.66699 -3.66699 -10 -11 -10h-39c-8 -0 -12 3.33301 -12 10v328h-129c-6.66699 0 -10 4 -10 12v33c0 8 3.33301 12 10 12h129v278h-206
c-6.66699 0 -10 4 -10 12v35c0 8 3.33301 12 10 12h477c6.66699 0 10 -4 10 -12z" />
    </font>
</defs>
</svg>
