<?xml version="1.0" encoding="utf-8"?>
<!-- Generator: Adobe Illustrator 20.1.0, SVG Export Plug-In . SVG Version: 6.00 Build 0)  -->
<svg version="1.1" id="Layer_1" xmlns="http://www.w3.org/2000/svg" xmlns:xlink="http://www.w3.org/1999/xlink" x="0px" y="0px"
	 viewBox="0 0 24 24" style="enable-background:new 0 0 24 24;" xml:space="preserve">
<style type="text/css">
	.st0{fill:none;}
	.st1{fill:#FFE142;}
</style>
<path class="st0" d="M0,0h24v24H0V0z"/>
<path class="st1" d="M2.6,22.7h18.8c2,0,2.9-1.9,1.9-3.7L14.2,2.6c-1-1.7-3.5-1.7-4.5,0L0.7,19C-0.3,20.8,0.6,22.7,2.6,22.7z
	 M12.2,20.2h-0.4c-0.6,0-1.1-0.5-1.1-1.1v-0.4c0-0.6,0.5-1.1,1.1-1.1h0.4c0.6,0,1.1,0.5,1.1,1.1v0.4C13.3,19.7,12.8,20.2,12.2,20.2z
	 M12.2,15.1h-0.4c-0.6,0-1.1-0.8-1.1-1.7V8.8c0-0.9,0.5-1.7,1.1-1.7h0.4c0.6,0,1.1,0.8,1.1,1.7v4.7C13.3,14.4,12.8,15.1,12.2,15.1z"
	/>
</svg>
